<?xml version="1.0" standalone="no"?> <!DOCTYPE svg PUBLIC "-//W3C//DTD SVG 1.0//EN" "http://www.w3.org/TR/2001/REC-SVG-20010904/DTD/svg10.dtd" > <svg xmlns="http://www.w3.org/2000/svg" width="100%" height="100%">
<defs >
<font horiz-adv-x="544" ><font-face
    font-family=""
    units-per-em="1000"
    panose-1="2 0 5 3 6 0 0 2 0 4"
    ascent="838"
    descent="-162"
    alphabetic="0" />
<missing-glyph horiz-adv-x="500" />
<glyph unicode=" " glyph-name="space" horiz-adv-x="169" />
<glyph unicode="!" glyph-name="exclam" horiz-adv-x="181" d="M119 634L135 700H251L236 634L99 180H37L119 634ZM40 -5Q13 -5 -4 12T-21 56Q-21 84 -1 103T47 122Q75 122 92 104T109 60Q109 32 89 14T40 -5Z" />
<glyph unicode="&quot;" glyph-name="quotedbl" horiz-adv-x="310" d="M115 639L129 700H235L221 639L162 496H106L115 639ZM264 639L279 700H385L370 639L311 496H255L264 639Z" />
<glyph unicode="#" glyph-name="numbersign" horiz-adv-x="473" d="M98 220H18L39 308H123L152 417H71L92 505H176L221 700H296L244 505H353L406 700H473L421 505H502L482 417H397L368 308H450L428 220H342L283 0H215L275 220H165L106 0H38L98 220ZM300 308L329
417H219L191 308H300Z" />
<glyph unicode="$" glyph-name="dollar" horiz-adv-x="510" d="M152 -5Q95 -1 52 11T-25 39L6 171H74Q75 146 79 128T95 97T124 77T169 67L227 321Q197 336 171 352T126 388T95 435T84 502Q84 544 99 580T144 644T219 688T325 706L338 764H402L388 704Q433 700
470 690T541 669L511 538H448Q446 580 430 602T371 630L317 397Q350 381 378 366T428 330T461 281T473 213Q473 165 457 126T408 57T327 12T216 -7L194 -102H130L152 -5ZM367 196Q367 233 346 253T285 294L233 67Q296 72 331 104T367 196ZM183 519Q183 482 202
463T259 423L308 635Q245 630 214 599T183 519Z" />
<glyph unicode="%" glyph-name="percent" horiz-adv-x="762" d="M214 343Q151 343 114 379T77 482Q77 531 93 572T137 643T199 690T272 707Q335 707 373 670T412 567Q412 518 396 477T352 406T289 360T214 343ZM223 404Q242 404 259 417T290 452T312 505T320 571Q320
606 306 625T266 645Q246 645 228 632T197 596T175 543T167 477Q167 404 223 404ZM683 729H762L119 -34H39L683 729ZM529 -7Q466 -7 429 29T392 132Q392 181 408 222T452 293T514 340T587 357Q650 357 688 320T727 217Q727 168 711 127T667 56T604 10T529 -7ZM538
54Q557 54 574 67T605 102T627 155T635 221Q635 256 621 275T581 295Q561 295 543 282T512 246T490 193T482 127Q482 54 538 54Z" />
<glyph unicode="&amp;" glyph-name="ampersand" horiz-adv-x="676" d="M224 -7Q170 -7 129 6T60 43T18 99T4 168Q4 216 21 253T65 317T129 364T203 398Q192 420 185 446T177 505Q177 551 193 588T238 651T309 692T403 707Q440 707 468 700T511 683Q521 683 525
700H597L557 527H479V602Q466 613 449 620T400 628Q349 628 319 600T289 521Q289 487 300 460T329 406L467 210Q490 242 504 277T532 351H478L493 415H696L681 351H648Q637 351 627 346T611 327Q590 279 566 233T512 146L552 90Q562 76 569 70T587 64H614L600 0H479L433
65Q391 30 341 12T224 -7ZM245 68Q287 68 324 85T389 128L238 343Q216 332 196 319T160 286T135 241T125 183Q125 160 131 139T152 103T190 78T245 68Z" />
<glyph unicode="&apos;" glyph-name="quotesingle" horiz-adv-x="161" d="M115 639L129 700H235L221 639L162 496H106L115 639Z" />
<glyph unicode="(" glyph-name="parenleft" horiz-adv-x="298" d="M173 -49Q149 -35 124 -12T79 47T46 129T33 236Q33 341 62 427T138 577T242 682T353 741H394L380 682Q344 670 301 636T220 545T157 410T131 233Q131 182 139 144T161 80T191 36T224 8L211 -49H173Z" />
<glyph unicode=")" glyph-name="parenright" horiz-adv-x="298" d="M-43 8Q-7 20 36 55T118 146T181 281T207 459Q207 510 198 547T176 611T146 654T113 682L126 741H164Q188 727 213 704T259 645T292 563T305 456Q305 351 276 265T200 115T98 10T-14 -49H-56L-43 8Z" />
<glyph unicode="*" glyph-name="asterisk" horiz-adv-x="364" d="M174 417L238 523L135 450L88 451L72 500L109 530L235 532L122 579L101 619L138 659L181 643L242 540L232 660L257 700H312L316 646L252 539L355 612H402L418 563L381 533L254 530L369 484L389
444L353 404L310 419L248 521L258 403L235 363H180L174 417Z" />
<glyph unicode="+" glyph-name="plus" horiz-adv-x="496" d="M215 305H35L54 386H235L278 576H364L321 386H500L481 305H301L258 115H172L215 305Z" />
<glyph unicode="," glyph-name="comma" horiz-adv-x="181" d="M-52 -53Q-23 -49 -4 -37T16 -6Q16 2 11 5T-3 16Q-22 30 -22 55Q-22 85 -3 103T44 122Q70 122 89 104T108 55Q108 -19 60 -58T-63 -103L-52 -53Z" />
<glyph unicode="-" glyph-name="hyphen" horiz-adv-x="265" d="M46 339H256L236 256H26L46 339Z" />
<glyph unicode="." glyph-name="period" horiz-adv-x="181" d="M40 -5Q13 -5 -4 12T-21 56Q-21 84 -1 103T47 122Q75 122 92 104T109 60Q109 32 89 14T40 -5Z" />
<glyph unicode="/" glyph-name="slash" horiz-adv-x="330" d="M352 741H436L15 -49H-70L352 741Z" />
<glyph unicode="0" glyph-name="zero" horiz-adv-x="639" d="M285 -7Q228 -7 183 11T105 63T56 147T38 261Q38 350 63 428T133 565Q184 633 251 669T395 706Q453 706 498 688T575 634T623 550T640 438Q640 344 614 261T543 120Q492 54 425 24T285 -7ZM288 69Q344
69 385 97T459 180Q490 233 505 305T520 452Q520 536 489 582T391 628Q336 628 295 598T221 510Q189 455 174 385T158 246Q158 161 190 115T288 69Z" />
<glyph unicode="1" glyph-name="one" horiz-adv-x="356" d="M-30 64H49Q60 64 72 74T87 95L200 591L110 553H81L96 622L263 700H341L203 95Q201 84 205 74T221 64H294L280 0H-44L-30 64Z" />
<glyph unicode="2" glyph-name="two" horiz-adv-x="513" d="M-31 52Q-20 99 2 137T55 207T125 268T212 325Q253 350 291 371T358 416T405 469T423 538Q423 580 399 605T323 630Q271 630 236 608T177 536H109L141 670Q182 687 227 697T330 707Q429 707 486 665T543
544Q543 488 520 447T459 375T373 317T275 265Q205 229 152 186T79 86H349L380 179H458L417 0H-43L-31 52Z" />
<glyph unicode="3" glyph-name="three" horiz-adv-x="504" d="M177 -7Q108 -7 57 6T-30 36L-2 158H62Q65 106 96 88T181 69Q259 69 302 109T346 221Q346 269 315 294T224 320H175L192 397H242Q320 397 361 435T402 533Q402 630 297 630Q245 630 216 612T167 550H101L129
671Q172 687 211 697T307 707Q407 707 461 664T516 548Q516 469 469 421T344 357V354Q401 345 431 308T462 218Q462 168 443 127T387 56T297 10T177 -7Z" />
<glyph unicode="4" glyph-name="four" horiz-adv-x="539" d="M204 64H255Q266 64 278 74T293 95L311 173H-3L18 264L438 700H544L440 248H522L504 173H423L405 95Q403 84 407 74T423 64H477L463 0H190L204 64ZM328 248L400 568H397L95 252V248H328Z" />
<glyph unicode="5" glyph-name="five" horiz-adv-x="502" d="M171 -7Q103 -7 54 4T-32 37L-5 154H63Q62 109 92 89T176 69Q214 69 246 81T303 116T340 173T354 252Q354 307 328 334T246 362Q198 362 168 346T117 307H45L136 700H546L511 546H435L438 614H200L150
396H152Q173 414 206 427T291 440Q330 440 363 429T421 396T458 341T472 265Q472 204 451 154T390 68T296 13T171 -7Z" />
<glyph unicode="6" glyph-name="six" horiz-adv-x="571" d="M264 -7Q158 -7 97 56T36 240Q36 324 63 407T141 557T269 664T444 706Q507 706 543 697T603 678L584 594H520Q512 605 493 617T432 629Q377 629 334 608T257 549T201 463T164 359Q200 394 249 415T355
437Q442 437 492 394T542 269Q542 211 522 161T466 73T378 15T264 -7ZM269 67Q306 67 335 82T384 122T414 182T425 257Q425 359 315 359Q267 359 226 341T154 296Q151 276 150 258T148 225Q148 143 177 105T269 67Z" />
<glyph unicode="7" glyph-name="seven" horiz-adv-x="503" d="M67 47L483 610V613H188L149 510H75L118 700H587L564 604L172 0H57L67 47Z" />
<glyph unicode="8" glyph-name="eight" horiz-adv-x="563" d="M246 -7Q184 -7 140 7T67 45T24 101T10 170Q10 251 62 307T203 381V383Q161 400 140 431T118 504Q118 550 137 587T190 651T268 692T361 707Q412 707 451 695T515 662T554 611T567 548Q567 482 526
435T412 371V368Q466 351 494 315T523 223Q523 171 503 129T445 56T357 10T246 -7ZM251 68Q288 68 317 80T366 113T398 164T409 227Q409 275 381 306T284 337Q249 337 220 325T169 291T137 240T125 177Q125 129 155 99T251 68ZM327 410Q384 410 420 445T456 540Q456
579 433 604T357 630Q299 630 264 594T228 498Q228 459 251 435T327 410Z" />
<glyph unicode="9" glyph-name="nine" horiz-adv-x="571" d="M342 706Q450 706 510 643T570 459Q570 375 547 292T474 142T347 35T162 -7Q99 -7 62 2T3 22L22 107H84Q92 96 112 83T174 69Q229 69 273 88T351 142T408 227T444 340Q408 305 358 284T251 263Q210
263 176 274T116 306T78 358T64 430Q64 487 84 537T140 625T228 684T342 706ZM337 629Q299 629 270 615T222 575T192 516T181 442Q181 341 291 341Q339 341 380 359T452 403Q455 423 456 441T458 474Q458 556 429 592T337 629Z" />
<glyph unicode=":" glyph-name="colon" horiz-adv-x="184" d="M41 -5Q14 -5 -3 12T-20 56Q-20 84 0 103T48 122Q76 122 93 104T110 60Q110 32 90 14T41 -5ZM110 292Q83 292 66 309T49 353Q49 381 69 400T117 419Q145 419 162 401T179 357Q179 329 159 311T110 292Z" />
<glyph unicode=";" glyph-name="semicolon" horiz-adv-x="184" d="M110 292Q83 292 66 309T49 353Q49 381 69 400T117 419Q145 419 162 401T179 357Q179 329 159 311T110 292ZM-50 -53Q-21 -49 -2 -37T18 -6Q18 2 13 5T-1 16Q-20 30 -20 55Q-20 85 -1 103T46 122Q72
122 91 104T110 55Q110 -19 62 -58T-61 -103L-50 -53Z" />
<glyph unicode="&lt;" glyph-name="less" horiz-adv-x="452" d="M33 299L50 372L466 561H494L474 477L149 332V330L404 175L387 98H359L33 299Z" />
<glyph unicode="=" glyph-name="equal" horiz-adv-x="487" d="M27 259H462L443 178H8L27 259ZM70 451H505L487 370H52L70 451Z" />
<glyph unicode="&gt;" glyph-name="greater" horiz-adv-x="452" d="M9 182L334 327V329L80 484L97 561H125L451 360L434 287L18 98H-10L9 182Z" />
<glyph unicode="?" glyph-name="question" horiz-adv-x="432" d="M117 180Q118 211 123 237T140 287T171 334T222 384Q241 400 264 416T309 453T344 497T358 555Q358 588 337 609T273 631Q231 631 203 613T159 554H92L119 675Q154 690 193 698T288 707Q377 707
425 668T474 561Q474 523 462 494T429 440T380 395T320 352Q288 331 265 313T225 275T199 233T187 180H117ZM133 -5Q106 -5 89 12T72 56Q72 84 92 103T140 122Q168 122 185 104T202 60Q202 32 182 14T133 -5Z" />
<glyph unicode="@" glyph-name="at" horiz-adv-x="870" d="M636 123Q664 123 690 135T737 174T769 240T782 337Q782 401 760 450T696 534T598 585T472 603Q407 603 343 581T228 514T146 402T114 243Q114 160 140 101T211 4T316 -51T447 -69Q523 -69 584 -52T689
-6H730L722 -58Q677 -88 606 -108T447 -129Q369 -129 295 -108T164 -41T71 74T36 243Q36 311 54 369T105 473T180 555T271 615T370 652T472 664Q549 664 618 643T739 580T823 477T854 337Q854 266 834 215T780 132T704 84T619 68Q557 68 531 87T496 137Q471 110
440 89T359 68Q300 68 268 101T236 198Q236 258 256 305T309 391Q338 424 378 443T465 462Q504 462 528 451T568 424Q582 436 597 446T627 457H663L599 197Q591 166 596 145T636 123ZM387 130Q420 130 446 148T496 192L543 384Q532 390 517 394T479 398Q448 398
425 384T382 345Q362 318 349 281T336 195Q336 160 350 145T387 130Z" />
<glyph unicode="A" glyph-name="A" horiz-adv-x="711" d="M-31 64H-8Q25 64 44 97L334 602Q342 616 340 625T324 634H266L282 700H535L596 96Q598 82 606 73T628 64H655L641 0H373L388 64H485L471 221H208L163 142Q143 105 143 85T176 64H225L211 0H-46L-31 64ZM465
289L435 618H431L246 289H465Z" />
<glyph unicode="B" glyph-name="B" horiz-adv-x="595" d="M-29 64H12Q25 64 37 74T51 95L167 603Q170 614 166 624T149 634H102L118 700H377Q487 700 543 662T599 552Q599 471 553 426T426 367V363Q488 354 526 322T564 230Q564 177 544 135T485 62T393 16T270
0H-43L-29 64ZM268 70Q318 70 351 83T405 118T435 170T444 234Q444 283 414 307T315 331H221L160 70H268ZM321 399Q365 399 395 409T445 438T473 482T482 540Q482 588 453 608T366 629H290L236 399H321Z" />
<glyph unicode="C" glyph-name="C" horiz-adv-x="615" d="M322 -7Q186 -7 114 62T41 254Q41 346 71 428T155 572T283 670T446 707Q473 707 493 705T530 699T559 691T583 680Q588 680 593 686T600 700H677L628 486H549L557 595Q540 609 514 619T445 629Q384 629
332 602T243 525T184 408T162 257Q162 69 328 69Q361 69 387 75T434 91T472 117T508 150H565L545 64Q503 33 450 13T322 -7Z" />
<glyph unicode="D" glyph-name="D" horiz-adv-x="682" d="M-29 64H12Q25 64 37 74T51 95L167 603Q170 614 166 624T149 634H102L118 700H377Q525 700 604 632T684 426Q684 331 656 253T573 118T438 31T255 0H-43L-29 64ZM262 68Q337 68 394 94T488 169T545 284T564
435Q564 537 514 583T363 629H290L160 68H262Z" />
<glyph unicode="E" glyph-name="E" horiz-adv-x="581" d="M-29 64H12Q25 64 37 74T51 95L167 603Q170 614 166 624T149 634H102L118 700H644L601 514H528L541 629H290L235 392H366L394 475H464L410 240H341L352 323H219L160 70H430L472 198H547L502 0H-43L-29 64Z" />
<glyph unicode="F" glyph-name="F" horiz-adv-x="559" d="M-29 64H12Q25 64 37 74T51 95L167 603Q170 614 166 624T149 634H102L118 700H642L598 508H525L540 629H290L231 376H361L390 461H460L404 218H335L346 307H216L159 64H250L236 0H-43L-29 64Z" />
<glyph unicode="G" glyph-name="G" horiz-adv-x="665" d="M302 -7Q178 -7 110 62T41 254Q41 351 73 434T160 577T290 672T451 707Q481 707 503 705T541 699T569 690T591 680Q596 680 600 686T606 700H682L634 492H555L563 592Q544 609 519 619T449 630Q391 630
339 604T247 528T184 410T161 256Q161 164 201 117T320 69Q342 69 358 71T389 78T415 89T440 102L476 259H393L408 325H665L650 259H621Q609 259 597 249T583 228L530 0H466Q467 7 463 16T448 26Q421 12 388 3T302 -7Z" />
<glyph unicode="H" glyph-name="H" horiz-adv-x="722" d="M-29 64H12Q25 64 37 74T51 95L167 602Q170 613 166 623T149 634H102L118 700H395L379 634H291L235 393H548L603 634H514L529 700H807L792 634H750Q738 634 726 624T712 602L595 95Q593 84 597 74T614
64H661L647 0H368L383 64H472L532 325H220L159 64H249L234 0H-43L-29 64Z" />
<glyph unicode="I" glyph-name="I" horiz-adv-x="310" d="M-29 64H21Q33 64 45 74T59 95L176 606Q178 615 174 624T158 634H102L118 700H395L380 634H330Q318 634 306 624T292 603L174 95Q171 84 175 74T191 64H249L234 0H-43L-29 64Z" />
<glyph unicode="J" glyph-name="J" horiz-adv-x="462" d="M123 -7Q69 -7 29 4T-39 30L-20 112H43Q52 94 71 82T128 69Q176 69 201 93T237 169L336 603Q338 614 334 624T318 634H269L284 700H547L532 634H490Q478 634 467 624T452 603L352 165Q331 78 278 36T123 -7Z" />
<glyph unicode="K" glyph-name="K" horiz-adv-x="674" d="M-29 64H12Q25 64 37 74T51 95L167 603Q170 614 166 624T149 634H102L118 700H387L372 634H291L221 330L506 581Q532 604 529 619T503 634H488L503 700H739L724 634H704Q690 634 680 629T653 611L408 405L547
95Q553 82 561 73T583 64H613L599 0H428L441 57L320 334L198 231L159 64H241L227 0H-43L-29 64Z" />
<glyph unicode="L" glyph-name="L" horiz-adv-x="564" d="M-29 64H12Q25 64 37 74T51 95L167 603Q170 614 166 624T149 634H102L118 700H407L392 634H291L160 70H411L459 216H537L488 0H-43L-29 64Z" />
<glyph unicode="M" glyph-name="M" horiz-adv-x="873" d="M-29 64H12Q25 64 37 74T51 95L167 603Q170 614 166 624T149 634H102L118 700H363L411 168H413L701 700H958L942 634H900Q888 634 876 624T861 603L745 95Q743 84 747 74T764 64H811L797 0H529L544 64H622L751
625H744L404 0H321L268 625H261L132 64H212L197 0H-43L-29 64Z" />
<glyph unicode="N" glyph-name="N" horiz-adv-x="707" d="M-29 64H12Q25 64 37 74T51 95L167 603Q170 614 166 624T149 634H102L118 700H314L511 175H513L618 634H531L546 700H795L780 634H739Q727 634 715 624T701 603L563 0H462L251 562H248L133 64H223L209
0H-43L-29 64Z" />
<glyph unicode="O" glyph-name="O" horiz-adv-x="701" d="M324 -7Q259 -7 207 11T117 66T60 154T40 273Q40 366 70 445T152 583T272 674T419 707Q483 707 535 688T624 633T681 545T701 427Q701 331 671 251T590 114T470 25T324 -7ZM327 69Q384 69 430 97T510 174T562
288T581 429Q581 526 539 577T414 628Q358 628 311 601T231 525T179 411T160 269Q160 172 203 121T327 69Z" />
<glyph unicode="P" glyph-name="P" horiz-adv-x="583" d="M-29 64H12Q25 64 37 74T51 95L167 603Q170 614 166 624T149 634H102L118 700H385Q437 700 480 689T554 657T602 602T619 526Q619 463 598 416T536 337T437 289T307 273H208L159 64H249L234 0H-43L-29
64ZM315 344Q365 344 400 357T458 393T491 450T500 525Q499 575 470 601T376 628H290L224 344H315Z" />
<glyph unicode="Q" glyph-name="Q" horiz-adv-x="701" d="M543 -124Q523 -73 465 -49T300 -10Q240 -1 192 19T110 74T58 158T40 273Q40 366 70 445T151 583T272 673T419 706Q484 706 536 687T624 632T680 545T700 427Q700 347 682 282T630 166T550 83T448 35V32Q537
19 585 -5T654 -63L640 -124H543ZM327 69Q384 69 430 97T510 174T562 288T581 429Q581 526 539 577T414 628Q358 628 311 601T231 525T179 411T160 269Q160 172 203 121T327 69Z" />
<glyph unicode="R" glyph-name="R" horiz-adv-x="652" d="M-29 64H12Q25 64 37 74T51 95L167 603Q170 614 166 624T149 634H102L118 700H389Q495 700 556 659T618 540Q618 494 603 459T562 399T500 359T421 338V335Q446 329 464 320T495 294T516 251T529 184L541
90Q544 64 561 64H593L578 0H429L415 189Q412 225 406 247T388 283T354 301T300 306H215L159 64H249L234 0H-43L-29 64ZM326 375Q420 375 459 418T499 533Q499 581 470 605T376 630H290L231 375H326Z" />
<glyph unicode="S" glyph-name="S" horiz-adv-x="516" d="M218 -7Q154 -7 119 4T64 26Q54 26 48 0H-29L18 204H97L85 109Q102 95 133 81T219 66Q289 66 331 98T373 200Q373 225 364 242T338 272T299 294T252 313Q211 330 182 347T133 387T105 436T95 502Q95 547
109 584T153 649T226 691T328 707Q382 707 414 697T465 676Q470 676 475 682T482 700H556L513 515H436L443 594Q426 611 398 622T323 633Q261 633 228 604T195 520Q195 480 219 458T288 418Q331 400 366 384T426 345T464 291T478 213Q478 165 462 125T414 56T332
10T218 -7Z" />
<glyph unicode="T" glyph-name="T" horiz-adv-x="624" d="M131 64H179Q191 64 203 74T217 95L340 631H196L151 483H75L124 700H704L653 483H578L601 631H455L333 95Q330 84 335 74T352 64H404L389 0H117L131 64Z" />
<glyph unicode="U" glyph-name="U" horiz-adv-x="707" d="M328 -7Q260 -7 209 10T125 60T83 143T88 258L166 602Q169 613 165 623T148 634H103L118 700H393L378 634H290L201 245Q190 195 196 162T222 109T270 81T335 73Q376 73 407 81T462 110T502 162T529 243L618
634H534L549 700H794L778 634H738Q726 634 714 624T700 602L615 234Q601 173 578 128T521 52T439 8T328 -7Z" />
<glyph unicode="V" glyph-name="V" horiz-adv-x="700" d="M155 602Q153 616 146 625T127 634H99L115 700H374L359 634H268L326 121H329L585 571Q621 634 566 634H523L539 700H787L772 634H750Q736 634 722 625T699 601L347 0H228L155 602Z" />
<glyph unicode="W" glyph-name="W" horiz-adv-x="959" d="M151 602Q151 616 144 625T123 634H101L117 700H372L356 634H266L274 145H276L541 700H636L655 145H657L853 569Q869 603 865 618T831 634H792L807 700H1046L1031 634H1014Q1000 634 986 626T963 600L676
0H553L535 505H534L291 0H165L151 602Z" />
<glyph unicode="X" glyph-name="X" horiz-adv-x="658" d="M-29 64H-2Q9 64 23 70T46 86L285 357L175 604Q167 621 160 627T141 634H102L118 700H374L358 634H288L385 417L522 582Q533 596 537 606T539 622T530 631T513 634H487L502 700H743L728 634H690Q680 634
666 627T643 610L419 351L535 94Q548 64 571 64H596L582 0H328L342 64H421L320 292L165 111Q147 90 151 77T175 64H212L198 0H-43L-29 64Z" />
<glyph unicode="Y" glyph-name="Y" horiz-adv-x="647" d="M148 64H196Q208 64 220 74T234 95L280 298L157 605Q152 618 145 626T124 634H101L117 700H368L353 634H267L368 367H370L528 569Q554 601 547 617T510 634H477L492 700H734L719 634H701Q674 634 649 604L393
287L350 95Q348 84 352 74T369 64H421L407 0H134L148 64Z" />
<glyph unicode="Z" glyph-name="Z" horiz-adv-x="543" d="M-26 77L472 626V629H207L167 515H93L136 700H620L601 620L103 73V70H388L429 196H507L462 0H-44L-26 77Z" />
<glyph unicode="[" glyph-name="bracketleft" horiz-adv-x="251" d="M142 741H345L330 674H223L71 16H178L163 -49H-40L142 741Z" />
<glyph unicode="\" glyph-name="backslash" horiz-adv-x="330" d="M115 741H191L258 -49H180L115 741Z" />
<glyph unicode="]" glyph-name="bracketright" horiz-adv-x="251" d="M-40 16H67L219 674H112L127 741H331L149 -49H-55L-40 16Z" />
<glyph unicode="^" glyph-name="asciicircum" horiz-adv-x="402" d="M98 516L251 700H333L421 516L415 489H348L282 612H280L165 489H92L98 516Z" />
<glyph unicode="_" glyph-name="underscore" horiz-adv-x="355" d="M-82 -97H278L262 -162H-97L-82 -97Z" />
<glyph unicode="`" glyph-name="grave" horiz-adv-x="406" d="M166 661L175 700H269L311 567H250L166 661Z" />
<glyph unicode="a" glyph-name="a" horiz-adv-x="513" d="M154 -6Q84 -6 44 28T4 127Q4 170 20 204T66 261T137 297T230 309Q268 309 293 305T340 292L356 358Q367 406 344 430T269 455Q243 455 224 452T190 442T162 428T137 409H86L107 498Q142 512 182 521T288
530Q385 530 434 487T464 355L404 96Q401 82 408 73T429 64H459L447 9Q435 3 416 -1T376 -6Q334 -6 316 14T296 64Q267 31 231 13T154 -6ZM179 63Q222 63 250 82T303 128L326 230Q306 237 284 241T236 245Q174 245 141 217T107 136Q107 101 126 82T179 63Z" />
<glyph unicode="b" glyph-name="b" horiz-adv-x="547" d="M243 -6Q185 -6 152 11T97 52Q82 32 64 16T37 0H-10L129 607Q131 617 126 625T109 634H71L86 700H239Q259 700 253 673L198 439Q214 456 234 472T278 502T329 523T387 531Q451 531 492 488T533 357Q533
279 509 205T436 76Q396 32 349 13T243 -6ZM226 59Q276 59 313 83T374 147T410 237T422 340Q422 399 400 425T342 451Q320 451 299 445T258 428T219 404T184 375L119 94Q135 81 158 70T226 59Z" />
<glyph unicode="c" glyph-name="c" horiz-adv-x="473" d="M227 -6Q122 -6 70 48T18 191Q18 264 42 326T108 433T207 504T332 530Q389 530 426 521T492 498L467 393H404Q402 431 382 445T326 460Q279 460 243 438T181 377T142 290T128 189Q128 132 153 98T233 64Q259
64 278 69T312 82T337 101T356 122H415L395 38Q381 30 365 23T329 9T284 -2T227 -6Z" />
<glyph unicode="d" glyph-name="d" horiz-adv-x="574" d="M174 -6Q100 -6 57 36T14 166Q14 202 21 240T41 315T74 383T116 441Q155 484 205 507T309 530Q362 530 392 516T444 481L480 634H403L418 700H582Q603 700 597 673L463 97Q460 84 468 74T489 64H517L505
8Q493 2 478 -2T445 -6Q399 -6 375 17T358 88Q323 46 277 20T174 -6ZM208 62Q229 62 250 69T292 89T332 118T368 152L431 427Q416 438 393 447T327 456Q276 456 238 430T175 363T138 271T125 170Q125 114 147 88T208 62Z" />
<glyph unicode="e" glyph-name="e" horiz-adv-x="490" d="M227 -6Q123 -6 71 51T19 201Q19 270 43 330T108 434T205 504T322 530Q397 530 443 497T489 400Q489 350 465 317T396 262T283 230T129 217Q128 189 131 162T144 112T176 77T233 63Q259 63 278 68T313
81T339 100T360 122H421L401 38Q375 23 334 9T227 -6ZM136 284Q264 289 323 313T383 395Q383 430 365 446T314 463Q277 463 248 449T196 410T159 353T136 284Z" />
<glyph unicode="f" glyph-name="f" horiz-adv-x="304" d="M-56 -102Q-32 -94 -10 -70T24 7L122 456H54L69 524H136L146 569Q163 643 206 675T316 708Q347 708 367 704T401 694L388 634H339Q304 634 284 621T254 566L245 524H345L330 456H230L130 5Q114 -67 78
-106T-3 -162H-70L-56 -102Z" />
<glyph unicode="g" glyph-name="g" horiz-adv-x="470" d="M155 -172Q47 -172 -4 -139T-56 -58Q-56 -32 -46 -13T-19 20T21 45T69 65Q54 72 43 89T31 130Q31 166 54 192T111 238Q89 255 75 281T61 342Q61 384 78 419T124 478T191 516T271 530Q301 530 328 524H511L496
456H455Q448 456 441 451T432 438Q438 426 441 413T445 385Q445 342 428 308T383 249T317 213T237 200Q211 200 189 204T150 215Q136 205 127 194T117 168Q117 136 158 136H281Q351 136 385 103T419 16Q419 -23 405 -57T359 -117T277 -157T155 -172ZM157 -103Q201
-103 231 -96T281 -77T308 -48T317 -13Q317 42 240 42H102Q75 27 59 7T42 -39Q42 -66 67 -84T157 -103ZM236 262Q258 262 278 271T314 297T338 337T347 390Q347 423 327 443T269 464Q246 464 226 455T192 428T169 388T160 336Q160 306 178 284T236 262Z" />
<glyph unicode="h" glyph-name="h" horiz-adv-x="580" d="M439 -6Q388 -6 370 23T362 101L425 374Q441 445 382 445Q338 445 294 423T208 368L124 0H42Q31 0 25 8T22 32L154 606Q156 615 151 624T135 634H97L112 700H264Q284 700 278 673L221 428Q242 447 267
465T321 498T380 521T441 530Q504 530 528 493T538 395L470 98Q466 84 474 74T495 64H524L511 8Q499 3 481 -1T439 -6Z" />
<glyph unicode="i" glyph-name="i" horiz-adv-x="261" d="M118 -6Q66 -6 48 24T41 102L115 421Q118 434 111 445T91 456H53L66 515Q78 519 99 524T153 529Q198 529 217 505T225 430L149 97Q146 84 153 74T174 64H204L192 8Q179 2 160 -2T118 -6ZM213 579Q187 579
171 596T155 638Q155 664 174 682T219 700Q245 700 262 683T279 642Q279 615 259 597T213 579Z" />
<glyph unicode="j" glyph-name="j" horiz-adv-x="251" d="M-39 -168Q-68 -168 -87 -163T-122 -153L-110 -102H-64Q-29 -102 -13 -85T11 -30L115 422Q118 436 111 446T91 456H53L66 515Q78 519 99 524T153 529Q198 529 217 505T225 430L119 -37Q103 -108 64 -138T-39
-168ZM213 579Q187 579 171 596T155 638Q155 664 174 682T219 700Q245 700 262 683T279 642Q279 615 259 597T213 579Z" />
<glyph unicode="k" glyph-name="k" horiz-adv-x="516" d="M407 -6Q387 -6 374 -1T352 15T335 38T321 68L254 231Q233 218 211 206T166 183L124 0H43Q31 0 25 8T22 32L154 606Q156 615 151 624T134 634H97L112 700H263Q285 700 278 673L186 270Q230 295 270 325T343
388T400 455T436 524H537L525 471Q491 425 443 379T337 289L422 96Q428 82 438 73T461 64H483L470 9Q460 4 445 -1T407 -6Z" />
<glyph unicode="l" glyph-name="l" horiz-adv-x="265" d="M122 -6Q68 -6 50 24T43 102L159 606Q161 615 155 624T139 634H97L112 700H268Q289 700 283 673L150 97Q146 84 154 74T175 64H209L197 8Q183 3 164 -1T122 -6Z" />
<glyph unicode="m" glyph-name="m" horiz-adv-x="875" d="M734 -6Q682 -6 664 24T658 104L719 371Q728 410 717 428T678 446Q636 446 596 423T519 371L433 0H352Q341 0 335 8T332 32L410 371Q428 446 367 446Q327 446 286 423T209 370L124 0H42Q31 0 25 8T22 32L112
421Q114 434 108 445T87 456H53L66 515Q78 519 97 524T149 529Q187 529 208 507T220 429Q239 448 262 466T312 498T367 521T427 530Q479 530 502 502T525 425Q545 445 568 464T618 497T674 521T735 530Q798 530 822 493T833 395L764 97Q761 84 769 74T789 64H819L807
8Q793 3 775 -1T734 -6Z" />
<glyph unicode="n" glyph-name="n" horiz-adv-x="580" d="M439 -6Q388 -6 370 23T362 101L425 374Q441 445 383 445Q338 445 294 423T208 368L124 0H42Q31 0 25 8T22 32L112 421Q114 434 108 445T87 456H53L66 515Q78 519 98 524T149 529Q168 529 183 524T209
506T222 473T220 425Q241 445 266 464T320 497T379 521T441 530Q504 530 528 493T538 395L470 98Q466 84 474 74T495 64H523L511 8Q499 3 481 -1T439 -6Z" />
<glyph unicode="o" glyph-name="o" horiz-adv-x="543" d="M237 -5Q132 -5 75 53T18 211Q18 281 41 340T103 441T196 506T308 530Q412 530 469 472T526 316Q526 245 504 187T443 85T351 19T237 -5ZM241 64Q282 64 314 85T369 143T404 226T416 324Q416 457 304 457Q264
457 232 436T176 380T141 298T128 199Q128 133 156 99T241 64Z" />
<glyph unicode="p" glyph-name="p" horiz-adv-x="577" d="M-71 -102H-34Q-23 -102 -13 -94T-1 -76L112 421Q114 434 108 445T87 456H53L66 515Q78 520 98 524T148 529Q167 529 182 524T208 506T221 475T220 429Q237 448 257 466T303 499T356 522T417 531Q481 531
522 490T563 357Q563 322 557 285T540 211T511 143T471 86Q432 43 382 25T280 6Q228 6 193 20T136 54L101 -102H176L162 -162H-85L-71 -102ZM259 70Q310 70 346 94T406 158T441 245T452 342Q452 402 429 427T368 452Q325 452 283 427T209 371L147 105Q164 92 189
81T259 70Z" />
<glyph unicode="q" glyph-name="q" horiz-adv-x="560" d="M233 -102H310L355 94Q320 55 274 31T168 6Q99 6 58 47T16 177Q16 213 22 249T42 320T73 384T114 440Q156 486 207 508T315 530Q343 530 364 526T401 513T431 495T455 471Q471 494 489 509T528 524H562L425
-75Q423 -85 429 -93T445 -102H487L473 -162H219L233 -102ZM206 73Q256 73 297 101T372 166L430 427Q415 437 393 446T330 456Q277 456 239 431T176 365T139 276T127 178Q127 120 148 97T206 73Z" />
<glyph unicode="r" glyph-name="r" horiz-adv-x="373" d="M42 0Q31 0 25 8T22 32L112 421Q114 434 108 445T87 456H53L66 515Q78 520 98 524T148 529Q188 529 208 503T220 423Q236 444 254 463T293 496T337 519T386 528Q394 528 401 527T413 524L392 435H373Q316
435 277 414T206 359L124 0H42Z" />
<glyph unicode="s" glyph-name="s" horiz-adv-x="413" d="M157 -5Q83 -5 42 7T-25 35L-3 134H61Q63 94 84 77T155 60Q208 60 236 84T265 146Q265 163 257 174T236 194T203 210T163 227Q139 237 120 249T86 276T65 312T57 362Q57 442 112 485T259 529Q291 529 315
526T358 519T392 508T421 494L399 397H339Q336 430 312 444T249 458Q198 458 175 436T151 384Q151 352 176 338T243 306Q269 295 291 284T330 256T356 218T365 165Q365 87 310 41T157 -5Z" />
<glyph unicode="t" glyph-name="t" horiz-adv-x="313" d="M165 -7Q87 -7 59 35T48 149L119 456H56L71 524H134L167 665H275L242 524H351L336 456H226L156 148Q146 107 157 86T209 64H257L244 7Q227 1 209 -3T165 -7Z" />
<glyph unicode="u" glyph-name="u" horiz-adv-x="576" d="M153 -7Q86 -7 58 35T46 147L109 421Q112 434 106 445T85 456H53L66 515Q78 520 99 524T148 529Q196 529 212 499T217 420L156 153Q148 115 160 94T205 72Q245 72 285 93T365 146L452 524H534Q545 524
551 515T553 491L463 98Q460 84 467 74T487 64H519L507 8Q493 2 475 -2T433 -6Q390 -6 369 16T355 87Q313 47 262 20T153 -7Z" />
<glyph unicode="v" glyph-name="v" horiz-adv-x="518" d="M105 426Q103 442 95 449T75 456H51L64 515Q76 520 93 524T138 529Q159 529 172 524T193 508T204 482T210 448L252 111H254Q317 197 367 299T448 524H542L527 456Q482 346 419 231T258 0H164L105 426Z" />
<glyph unicode="w" glyph-name="w" horiz-adv-x="748" d="M105 425Q103 441 94 448T74 456H51L64 515Q76 520 93 524T136 529Q179 529 192 508T207 447L215 139H217L404 524H495L514 122H516Q567 202 610 304T678 524H772L757 456Q719 349 658 231T508 0H425L410
380H408L219 0H122L105 425Z" />
<glyph unicode="x" glyph-name="x" horiz-adv-x="487" d="M373 -6Q353 -6 339 -2T315 13T297 37T279 73L222 196Q174 123 130 72T55 0H-25L-11 64Q27 76 75 121T190 258L110 430Q103 445 96 450T76 456H46L59 515Q68 519 85 524T125 529Q144 529 156 526T179 513T199
486T219 443L267 332Q315 403 357 454T432 524H509L493 456Q461 448 414 404T299 271L381 95Q389 77 399 71T421 64H447L435 8Q424 3 410 -1T373 -6Z" />
<glyph unicode="y" glyph-name="y" horiz-adv-x="563" d="M176 -171Q108 -171 66 -162T-4 -141L15 -59H78Q106 -104 184 -104Q248 -104 283 -79T331 -1L356 104Q314 66 267 43T162 19Q95 19 65 58T51 166L109 421Q112 434 106 445T85 456H53L66 515Q78 520 99
524T148 529Q194 529 211 500T217 420L161 172Q153 136 165 117T210 97Q250 97 290 116T370 167L452 524H534Q545 524 551 515T553 491L441 5Q419 -88 355 -129T176 -171Z" />
<glyph unicode="z" glyph-name="z" horiz-adv-x="467" d="M-27 73L367 453H157L125 360H59L96 524H509L492 449L98 70H318L348 163H416L379 0H-44L-27 73Z" />
<glyph unicode="{" glyph-name="braceleft" horiz-adv-x="320" d="M167 -49Q101 -49 73 -16T59 78L102 264Q107 288 99 303T61 319H30L45 386H69Q100 386 118 398T142 438L185 624Q199 685 235 713T335 741H415L400 674H335Q314 674 301 662T282 627L239 440Q231
403 208 383T140 352V350Q178 339 190 314T193 246L152 65Q147 43 154 30T182 16H248L233 -49H167Z" />
<glyph unicode="|" glyph-name="bar" horiz-adv-x="155" d="M59 741H136V-49H59V741Z" />
<glyph unicode="}" glyph-name="braceright" horiz-adv-x="320" d="M-40 16H24Q45 16 59 28T78 63L123 259Q131 296 154 316T222 347V349Q184 360 171 385T168 453L208 626Q213 647 205 660T177 674H112L127 741H194Q260 741 288 708T302 614L261 435Q255 411
263 396T301 380H332L317 313H293Q232 313 220 261L175 68Q161 7 125 -21T25 -49H-55L-40 16Z" />
<glyph unicode="~" glyph-name="asciitilde" horiz-adv-x="355" d="M23 287Q36 310 59 328T120 347Q138 347 156 343T192 333T224 324T252 319Q269 319 279 327T298 353H359L344 293Q332 270 309 251T249 231Q231 231 213 236T177 247T144 258T116 263Q99 263
89 254T71 227H11L23 287Z" />
<glyph unicode="&#xa0;" glyph-name="nbspace" horiz-adv-x="169" />
<glyph unicode="&#xa1;" glyph-name="exclamdown" horiz-adv-x="181" d="M86 -8L70 -74H-46L-31 -8L106 446H168L86 -8ZM165 631Q192 631 209 614T226 570Q226 542 206 523T158 504Q130 504 113 522T96 566Q96 594 116 612T165 631Z" />
<glyph unicode="&#xa2;" glyph-name="cent" horiz-adv-x="484" d="M187 -2Q103 9 61 61T18 193Q18 264 40 323T101 427T193 497T310 529L324 587H387L373 529Q418 527 448 518T503 498L478 393H416Q413 429 398 442T357 458L266 64Q306 69 329 85T367 120H424L405
38Q379 24 343 11T250 -5L228 -102H164L187 -2ZM293 456Q254 448 223 424T171 364T138 284T127 190Q127 141 145 109T203 68L293 456Z" />
<glyph unicode="&#xa3;" glyph-name="sterling" horiz-adv-x="506" d="M105 385Q104 405 104 421T103 452Q103 521 124 569T181 648T264 692T365 706Q430 706 475 695T559 662L529 535H462Q465 588 438 608T359 629Q297 629 265 594T225 493Q222 467 221 440T217
385H392L376 313H213Q208 256 198 204T164 112Q208 99 255 94T359 88L391 180H467L426 0H380Q289 0 224 13T108 49Q90 35 69 23T20 0H-40L-26 64Q33 78 70 128T108 273Q108 283 108 292T107 313H33L49 385H105Z" />
<glyph unicode="&#xa5;" glyph-name="yen" horiz-adv-x="589" d="M235 250L249 310H71L86 373H236L149 605Q138 634 113 634H101L116 700H354L339 634H262L341 394H343L474 570Q497 601 490 617T456 634H429L444 700H677L662 634H643Q629 634 617 626T593 604L410
373H558L543 310H365L351 250H530L515 187H337L316 95Q313 84 318 74T334 64H387L373 0H99L113 64H161Q173 64 185 74T200 95L221 187H43L58 250H235Z" />
<glyph unicode="&#xa6;" glyph-name="brokenbar" horiz-adv-x="155" d="M59 309H136V-49H59V309ZM59 741H136V389H59V741Z" />
<glyph unicode="&#xa7;" glyph-name="section" horiz-adv-x="513" d="M165 -132Q88 -132 42 -118T-28 -92L-3 15H67Q68 -28 91 -45T165 -62Q222 -62 252 -39T283 23Q283 40 276 53T254 77T214 100T157 127Q91 155 59 189T26 278Q26 333 62 373T174 434Q157 450
147 473T137 529Q137 565 152 597T195 654T264 693T355 707Q425 707 465 696T533 670L510 571H442Q439 606 418 620T348 635Q294 635 265 611T235 549Q235 533 240 521T258 497T293 476T348 453Q423 426 461 390T499 299Q499 242 462 201T347 140Q370 121 380 100T390
47Q390 9 376 -23T334 -80T263 -118T165 -132ZM289 180Q337 191 367 214T398 276Q399 307 370 327T289 368L230 393Q171 381 147 359T122 302Q122 275 143 255T219 211L289 180Z" />
<glyph unicode="&#xa8;" glyph-name="dieresis" horiz-adv-x="406" d="M201 580Q176 580 161 596T145 635Q145 661 163 678T207 695Q232 695 247 679T263 639Q263 613 244 597T201 580ZM372 580Q348 580 333 596T317 635Q317 661 335 678T378 695Q403 695 418
679T434 639Q434 613 415 597T372 580Z" />
<glyph unicode="&#xa9;" glyph-name="copyright" horiz-adv-x="757" d="M399 -7Q328 -7 264 16T152 85T76 196T47 350Q47 437 75 503T152 615T264 683T399 707Q471 707 535 684T647 615T723 504T752 350Q752 263 724 197T647 85T535 17T399 -7ZM399 30Q464 30
520 51T618 113T684 213T708 350Q708 427 684 487T619 587T521 649T399 670Q334 670 278 649T181 588T115 487T91 350Q91 273 115 214T180 113T278 51T399 30ZM406 155Q318 155 267 204T216 350Q216 398 230 435T269 497T328 534T403 547Q432 547 450 542T482 531Q490
531 492 543H544V410H489L481 463Q468 474 453 482T410 490Q367 490 337 458T306 353Q306 211 412 211Q447 211 469 223T507 256H548V200Q525 180 490 168T406 155Z" />
<glyph unicode="&#xaa;" glyph-name="ordfeminine" horiz-adv-x="442" d="M179 254Q122 254 86 284T50 372Q50 441 101 480T244 519Q276 519 299 515T340 503L353 555Q371 636 280 636Q237 636 212 625T170 599H119L137 679Q167 691 204 699T297 707Q339 707 371
698T424 669T452 621T450 553L402 344Q400 333 406 325T423 317H447L436 267Q426 262 410 258T373 253Q340 253 323 269T303 312Q279 285 248 270T179 254ZM211 316Q242 316 264 330T310 370L329 451Q312 457 293 460T251 464Q148 464 148 379Q148 316 211 316Z"
/>
<glyph unicode="&#xab;" glyph-name="guillemotleft" horiz-adv-x="464" d="M26 236L40 296L224 477H288L278 437L126 257V255L197 84L188 43H134L26 236ZM219 236L234 296L417 477H481L472 437L319 257V255L390 84L381 43H327L219 236Z" />
<glyph unicode="&#xad;" glyph-name="uni00AD" horiz-adv-x="265" d="M46 339H256L236 256H26L46 339Z" />
<glyph unicode="&#xae;" glyph-name="registered" horiz-adv-x="398" d="M262 350Q226 350 193 362T136 397T96 453T81 529Q81 572 96 605T135 661T193 696T262 708Q298 708 330 696T388 661T428 605T443 529Q443 487 428 454T388 397T331 362T262 350ZM262 380Q292
380 319 390T365 418T396 465T408 529Q408 565 397 593T366 639T319 668T262 678Q232 678 206 668T160 640T129 593T117 529Q117 493 128 465T159 419T205 390T262 380ZM181 470H191Q193 470 196 472T199 478V585Q199 587 196 590T191 593H181V620H267Q339 620
339 570Q339 539 303 529V528Q317 526 323 519T335 492L340 476Q341 473 343 472T348 470H355V444H298L289 492Q287 504 282 509T264 515H247V470H267V444H181V470ZM246 541H264Q279 541 284 547T290 567Q290 578 285 584T264 591H246V541Z" />
<glyph unicode="&#xaf;" glyph-name="macron" horiz-adv-x="406" d="M171 667H424L407 595H154L171 667Z" />
<glyph unicode="&#xb0;" glyph-name="degree" horiz-adv-x="339" d="M234 436Q206 436 182 445T140 472T112 512T102 565Q102 598 114 624T146 668T193 696T247 706Q275 706 299 697T342 670T370 628T380 576Q380 543 368 517T336 473T289 446T234 436ZM237 488Q271
488 295 511T319 576Q319 611 298 632T245 654Q211 654 188 631T165 566Q165 531 185 510T237 488Z" />
<glyph unicode="&#xb2;" glyph-name="twosuperior" horiz-adv-x="303" d="M36 357Q49 409 82 441T163 501Q184 514 203 525T238 548T261 573T270 605Q270 646 222 646Q173 646 150 599H103L123 684Q146 692 172 698T232 704Q292 704 324 681T357 613Q357 584 346
563T315 525T273 495T224 469Q187 450 158 429T119 382H244L260 424H313L289 320H27L36 357Z" />
<glyph unicode="&#xb3;" glyph-name="threesuperior" horiz-adv-x="298" d="M156 316Q114 316 83 323T32 340L50 413H95Q97 390 113 380T155 370Q190 370 211 388T232 440Q232 463 216 474T171 486H142L155 540H185Q221 540 241 557T262 602Q262 623 249 635T210
647Q167 647 145 609H100L119 686Q142 694 166 699T222 704Q279 704 311 681T344 616Q344 573 319 549T250 515V512Q281 506 299 486T317 437Q317 383 275 350T156 316Z" />
<glyph unicode="&#xb4;" glyph-name="acute" horiz-adv-x="406" d="M301 700H412L402 661L300 567H237L301 700Z" />
<glyph unicode="&#xb6;" glyph-name="paragraph" horiz-adv-x="551" d="M267 318Q179 322 128 360T76 474Q76 534 96 577T154 647T242 687T356 700H637L622 634H580Q568 634 556 624T542 603L381 -91H314L479 629H406L241 -91H173L267 318Z" />
<glyph unicode="&#xb7;" glyph-name="periodcentered" horiz-adv-x="181" d="M97 239Q70 239 53 256T36 300Q36 328 56 347T104 366Q132 366 149 348T166 304Q166 276 146 258T97 239Z" />
<glyph unicode="&#xb8;" glyph-name="cedilla" horiz-adv-x="406" d="M107 -175Q77 -175 59 -170T28 -157L39 -110H69Q73 -116 82 -121T106 -126Q145 -126 145 -97Q145 -86 136 -79T105 -71H89L105 0H156L148 -32Q181 -34 198 -51T216 -95Q216 -133 187 -154T107 -175Z" />
<glyph unicode="&#xb9;" glyph-name="onesuperior" horiz-adv-x="243" d="M40 368H90Q96 368 102 374T111 386L168 629L112 604H88L101 655L209 700H271L199 386Q197 381 200 375T209 368H260L249 320H29L40 368Z" />
<glyph unicode="&#xba;" glyph-name="ordmasculine" horiz-adv-x="462" d="M252 253Q161 253 112 303T63 437Q63 496 83 545T137 631T216 687T312 707Q401 707 450 658T500 525Q500 466 481 416T429 330T350 274T252 253ZM255 317Q289 317 316 334T361 381T389
450T399 532Q399 587 375 613T309 640Q276 640 250 623T204 577T175 509T165 427Q165 370 189 344T255 317Z" />
<glyph unicode="&#xbb;" glyph-name="guillemotright" horiz-adv-x="464" d="M185 82L338 262V265L267 436L276 477H330L438 283L424 223L240 43H176L185 82ZM-9 82L145 262V265L73 436L82 477H136L244 283L230 223L47 43H-18L-9 82Z" />
<glyph unicode="&#xbc;" glyph-name="onequarter" horiz-adv-x="682" d="M441 48H471Q477 48 483 54T491 65L499 99H325L339 159L564 380H645L592 150H642L630 99H581L573 65Q571 60 573 54T582 48H617L606 0H429L441 48ZM511 150L545 301H543L394 152V150H511ZM43
368H93Q99 368 105 374T114 386L171 629L115 604H91L104 655L212 700H274L202 386Q200 381 203 375T212 368H263L252 320H32L43 368ZM657 729H728L87 -34H14L657 729Z" />
<glyph unicode="&#xbd;" glyph-name="onehalf" horiz-adv-x="714" d="M373 37Q386 89 419 121T500 181Q521 194 540 205T575 228T598 253T607 285Q607 326 559 326Q510 326 487 279H440L460 364Q483 372 509 378T569 384Q629 384 661 361T694 293Q694 264 683
243T652 205T610 175T561 149Q524 130 495 109T456 62H581L597 104H650L626 0H364L373 37ZM43 368H93Q99 368 105 374T114 386L171 629L115 604H91L104 655L212 700H274L202 386Q200 381 203 375T212 368H263L252 320H32L43 368ZM649 729H720L79 -34H6L649 729Z"
/>
<glyph unicode="&#xbe;" glyph-name="threequarters" horiz-adv-x="682" d="M159 316Q117 316 86 323T35 340L53 413H98Q100 390 116 380T158 370Q193 370 214 388T235 440Q235 463 219 474T174 486H145L158 540H188Q224 540 244 557T265 602Q265 623 252 635T213
647Q170 647 148 609H103L122 686Q145 694 169 699T225 704Q282 704 314 681T347 616Q347 573 322 549T253 515V512Q284 506 302 486T320 437Q320 383 278 350T159 316ZM441 48H471Q477 48 483 54T491 65L499 99H325L339 159L564 380H645L592 150H642L630 99H581L573
65Q571 60 573 54T582 48H617L606 0H429L441 48ZM511 150L545 301H543L394 152V150H511ZM666 729H737L96 -34H23L666 729Z" />
<glyph unicode="&#xbf;" glyph-name="questiondown" horiz-adv-x="432" d="M340 446Q338 415 333 389T317 339T286 292T235 242Q216 226 193 210T148 173T113 129T99 71Q99 38 120 17T184 -5Q226 -5 254 13T298 72H365L338 -49Q303 -64 264 -72T169 -81Q80 -81
32 -42T-17 65Q-17 103 -5 132T28 186T77 231T137 274Q169 295 192 313T232 351T258 393T270 446H340ZM324 631Q351 631 368 614T385 570Q385 542 365 523T317 504Q289 504 272 522T255 566Q255 594 275 612T324 631Z" />
<glyph unicode="&#xc0;" glyph-name="Agrave" horiz-adv-x="707" d="M223 64H246Q279 64 298 97L588 602Q596 616 594 625T578 634H520L536 700H789L850 96Q852 82 860 73T882 64H909L895 0H627L642 64H739L725 221H462L417 142Q397 105 397 85T430 64H479L465
0H208L223 64ZM719 289L689 618H685L500 289H719ZM331 833L340 872H434L476 739H415L331 833Z" />
<glyph unicode="&#xc1;" glyph-name="Aacute" horiz-adv-x="707" d="M223 64H246Q279 64 298 97L588 602Q596 616 594 625T578 634H520L536 700H789L850 96Q852 82 860 73T882 64H909L895 0H627L642 64H739L725 221H462L417 142Q397 105 397 85T430 64H479L465
0H208L223 64ZM719 289L689 618H685L500 289H719ZM466 872H577L567 833L465 739H402L466 872Z" />
<glyph unicode="&#xc2;" glyph-name="Acircumflex" horiz-adv-x="707" d="M223 64H246Q279 64 298 97L588 602Q596 616 594 625T578 634H520L536 700H789L850 96Q852 82 860 73T882 64H909L895 0H627L642 64H739L725 221H462L417 142Q397 105 397 85T430 64H479L465
0H208L223 64ZM719 289L689 618H685L500 289H719ZM322 769L414 872H506L565 769L558 739H517L453 808L361 739H315L322 769Z" />
<glyph unicode="&#xc3;" glyph-name="Atilde" horiz-adv-x="707" d="M223 64H246Q279 64 298 97L588 602Q596 616 594 625T578 634H520L536 700H789L850 96Q852 82 860 73T882 64H909L895 0H627L642 64H739L725 221H462L417 142Q397 105 397 85T430 64H479L465
0H208L223 64ZM719 289L689 618H685L500 289H719ZM297 800Q310 823 332 840T390 858Q408 858 426 853T462 842T494 831T521 826Q538 826 549 836T568 862H623L610 806Q597 783 575 766T516 748Q498 748 480 753T445 765T412 777T386 783Q369 783 358 773T340 745H285L297
800Z" />
<glyph unicode="&#xc4;" glyph-name="Adieresis" horiz-adv-x="707" d="M223 64H246Q279 64 298 97L588 602Q596 616 594 625T578 634H520L536 700H789L850 96Q852 82 860 73T882 64H909L895 0H627L642 64H739L725 221H462L417 142Q397 105 397 85T430 64H479L465
0H208L223 64ZM719 289L689 618H685L500 289H719ZM365 752Q340 752 325 768T309 807Q309 833 327 850T371 867Q396 867 411 851T427 811Q427 785 408 769T365 752ZM536 752Q512 752 497 768T481 807Q481 833 499 850T542 867Q567 867 582 851T598 811Q598 785 579
769T536 752Z" />
<glyph unicode="&#xc5;" glyph-name="Aring" horiz-adv-x="707" d="M223 64H246Q279 64 298 97L588 602Q596 616 594 625T578 634H520L536 700H789L850 96Q852 82 860 73T882 64H909L895 0H627L642 64H739L725 221H462L417 142Q397 105 397 85T430 64H479L465
0H208L223 64ZM719 289L689 618H685L500 289H719ZM442 741Q401 741 374 765T346 832Q346 856 354 874T377 906T411 926T450 933Q490 933 517 908T545 842Q545 818 537 799T514 768T481 748T442 741ZM443 784Q465 784 480 799T496 840Q496 863 483 876T448 890Q425
890 410 875T395 832Q395 810 407 797T443 784Z" />
<glyph unicode="&#xc6;" glyph-name="AE" horiz-adv-x="956" d="M341 0L355 64H428L464 221H230L169 140Q141 103 147 84T185 64H227L212 0H-47L-33 64H-11Q18 64 43 97L424 600Q434 614 430 624T412 634H359L374 700H1019L976 514H903L916 629H675L620 392H741L769
475H839L785 240H716L727 323H604L545 70H805L847 198H922L877 0H341ZM282 289H480L559 629H538L282 289Z" />
<glyph unicode="&#xc7;" glyph-name="Ccedilla" horiz-adv-x="615" d="M231 -175Q201 -175 183 -170T152 -157L163 -110H193Q197 -116 206 -121T230 -126Q269 -126 269 -97Q269 -86 260 -79T229 -71H213L229 0H244Q145 19 93 85T41 254Q41 346 71 428T155 572T283
670T446 707Q473 707 493 705T530 699T559 691T583 680Q588 680 593 686T600 700H677L628 486H549L557 595Q540 609 514 619T445 629Q384 629 332 602T243 525T184 408T162 257Q162 69 328 69Q361 69 387 75T434 91T472 117T508 150H565L545 64Q503 33 450 13T322
-7Q311 -7 301 -7T279 -5L272 -32Q305 -34 322 -51T340 -95Q340 -133 311 -154T231 -175Z" />
<glyph unicode="&#xc8;" glyph-name="Egrave" horiz-adv-x="581" d="M-29 64H12Q25 64 37 74T51 95L167 603Q170 614 166 624T149 634H102L118 700H644L601 514H528L541 629H290L235 392H366L394 475H464L410 240H341L352 323H219L160 70H430L472 198H547L502
0H-43L-29 64ZM295 833L304 872H398L440 739H379L295 833Z" />
<glyph unicode="&#xc9;" glyph-name="Eacute" horiz-adv-x="581" d="M431 872H542L532 833L430 739H367L431 872ZM-29 64H12Q25 64 37 74T51 95L167 603Q170 614 166 624T149 634H102L118 700H644L601 514H528L541 629H290L235 392H366L394 475H464L410 240H341L352
323H219L160 70H430L472 198H547L502 0H-43L-29 64Z" />
<glyph unicode="&#xca;" glyph-name="Ecircumflex" horiz-adv-x="581" d="M286 769L378 872H470L529 769L522 739H481L417 808L325 739H279L286 769ZM-29 64H12Q25 64 37 74T51 95L167 603Q170 614 166 624T149 634H102L118 700H644L601 514H528L541 629H290L235
392H366L394 475H464L410 240H341L352 323H219L160 70H430L472 198H547L502 0H-43L-29 64Z" />
<glyph unicode="&#xcb;" glyph-name="Edieresis" horiz-adv-x="581" d="M329 752Q304 752 289 768T273 807Q273 833 291 850T335 867Q360 867 375 851T391 811Q391 785 372 769T329 752ZM500 752Q476 752 461 768T445 807Q445 833 463 850T506 867Q531 867 546
851T562 811Q562 785 543 769T500 752ZM-29 64H12Q25 64 37 74T51 95L167 603Q170 614 166 624T149 634H102L118 700H644L601 514H528L541 629H290L235 392H366L394 475H464L410 240H341L352 323H219L160 70H430L472 198H547L502 0H-43L-29 64Z" />
<glyph unicode="&#xcc;" glyph-name="Igrave" horiz-adv-x="310" d="M-29 64H21Q33 64 45 74T59 95L176 606Q178 615 174 624T158 634H102L118 700H395L380 634H330Q318 634 306 624T292 603L174 95Q171 84 175 74T191 64H249L234 0H-43L-29 64ZM154 833L163 872H257L299
739H238L154 833Z" />
<glyph unicode="&#xcd;" glyph-name="Iacute" horiz-adv-x="310" d="M-29 64H21Q33 64 45 74T59 95L176 606Q178 615 174 624T158 634H102L118 700H395L380 634H330Q318 634 306 624T292 603L174 95Q171 84 175 74T191 64H249L234 0H-43L-29 64ZM287 872H398L388
833L286 739H223L287 872Z" />
<glyph unicode="&#xce;" glyph-name="Icircumflex" horiz-adv-x="310" d="M-29 64H21Q33 64 45 74T59 95L176 606Q178 615 174 624T158 634H102L118 700H395L380 634H330Q318 634 306 624T292 603L174 95Q171 84 175 74T191 64H249L234 0H-43L-29 64ZM149 769L241
872H333L392 769L385 739H344L280 808L188 739H142L149 769Z" />
<glyph unicode="&#xcf;" glyph-name="Idieresis" horiz-adv-x="310" d="M-29 64H21Q33 64 45 74T59 95L176 606Q178 615 174 624T158 634H102L118 700H395L380 634H330Q318 634 306 624T292 603L174 95Q171 84 175 74T191 64H249L234 0H-43L-29 64ZM184 752Q159
752 144 768T128 807Q128 833 146 850T190 867Q215 867 230 851T246 811Q246 785 227 769T184 752ZM355 752Q331 752 316 768T300 807Q300 833 318 850T361 867Q386 867 401 851T417 811Q417 785 398 769T355 752Z" />
<glyph unicode="&#xd0;" glyph-name="Eth" horiz-adv-x="682" d="M-29 64H12Q25 64 37 74T51 95L101 313H29L44 380H116L167 603Q170 614 166 624T149 634H102L118 700H377Q525 700 604 632T684 426Q684 331 656 253T573 118T438 31T255 0H-43L-29 64ZM262 68Q337
68 394 94T488 169T545 284T564 435Q564 537 514 583T363 629H290L232 380H401L385 313H217L160 68H262Z" />
<glyph unicode="&#xd1;" glyph-name="Ntilde" horiz-adv-x="706" d="M-29 64H12Q25 64 37 74T51 95L167 603Q170 614 166 624T149 634H102L118 700H314L511 175H513L618 634H531L546 700H795L780 634H739Q727 634 715 624T701 603L563 0H462L251 562H248L133 64H223L209
0H-43L-29 64ZM319 800Q332 823 354 840T412 858Q430 858 448 853T484 842T516 831T543 826Q560 826 571 836T590 862H645L632 806Q619 783 597 766T538 748Q520 748 502 753T467 765T434 777T408 783Q391 783 380 773T362 745H307L319 800Z" />
<glyph unicode="&#xd2;" glyph-name="Ograve" horiz-adv-x="701" d="M324 -7Q259 -7 207 11T117 66T60 154T40 273Q40 366 70 445T152 583T272 674T419 707Q483 707 535 688T624 633T681 545T701 427Q701 331 671 251T590 114T470 25T324 -7ZM327 69Q384 69 430
97T510 174T562 288T581 429Q581 526 539 577T414 628Q358 628 311 601T231 525T179 411T160 269Q160 172 203 121T327 69ZM334 840L343 879H437L479 746H418L334 840Z" />
<glyph unicode="&#xd3;" glyph-name="Oacute" horiz-adv-x="701" d="M469 879H580L570 840L468 746H405L469 879ZM324 -7Q259 -7 207 11T117 66T60 154T40 273Q40 366 70 445T152 583T272 674T419 707Q483 707 535 688T624 633T681 545T701 427Q701 331 671 251T590
114T470 25T324 -7ZM327 69Q384 69 430 97T510 174T562 288T581 429Q581 526 539 577T414 628Q358 628 311 601T231 525T179 411T160 269Q160 172 203 121T327 69Z" />
<glyph unicode="&#xd4;" glyph-name="Ocircumflex" horiz-adv-x="701" d="M327 776L419 879H511L570 776L563 746H522L458 815L366 746H320L327 776ZM324 -7Q259 -7 207 11T117 66T60 154T40 273Q40 366 70 445T152 583T272 674T419 707Q483 707 535 688T624 633T681
545T701 427Q701 331 671 251T590 114T470 25T324 -7ZM327 69Q384 69 430 97T510 174T562 288T581 429Q581 526 539 577T414 628Q358 628 311 601T231 525T179 411T160 269Q160 172 203 121T327 69Z" />
<glyph unicode="&#xd5;" glyph-name="Otilde" horiz-adv-x="701" d="M324 -7Q259 -7 207 11T117 66T60 154T40 273Q40 366 70 445T152 583T272 674T419 707Q483 707 535 688T624 633T681 545T701 427Q701 331 671 251T590 114T470 25T324 -7ZM327 69Q384 69 430
97T510 174T562 288T581 429Q581 526 539 577T414 628Q358 628 311 601T231 525T179 411T160 269Q160 172 203 121T327 69ZM300 807Q313 830 335 847T393 865Q411 865 429 860T465 849T497 838T524 833Q541 833 552 843T571 869H626L613 813Q600 790 578 773T519
755Q501 755 483 760T448 772T415 784T389 790Q372 790 361 780T343 752H288L300 807Z" />
<glyph unicode="&#xd6;" glyph-name="Odieresis" horiz-adv-x="701" d="M364 740Q339 740 324 756T308 795Q308 821 326 838T370 855Q395 855 410 839T426 799Q426 773 407 757T364 740ZM535 740Q511 740 496 756T480 795Q480 821 498 838T541 855Q566 855 581
839T597 799Q597 773 578 757T535 740ZM324 -7Q259 -7 207 11T117 66T60 154T40 273Q40 366 70 445T152 583T272 674T419 707Q483 707 535 688T624 633T681 545T701 427Q701 331 671 251T590 114T470 25T324 -7ZM327 69Q384 69 430 97T510 174T562 288T581 429Q581
526 539 577T414 628Q358 628 311 601T231 525T179 411T160 269Q160 172 203 121T327 69Z" />
<glyph unicode="&#xd7;" glyph-name="multiply" horiz-adv-x="497" d="M34 189L214 341L96 493L161 545L276 394L454 545L500 488L320 336L437 184L374 132L257 283L80 132L34 189Z" />
<glyph unicode="&#xd8;" glyph-name="Oslash" horiz-adv-x="701" d="M98 87Q70 122 55 168T40 273Q40 366 70 445T152 583T272 674T419 707Q528 707 599 654L658 721H737L642 613Q671 578 686 531T701 427Q701 331 671 251T590 114T470 25T324 -7Q212 -7 141 46L74
-29H-5L98 87ZM327 69Q384 69 431 97T511 174T564 288T583 429Q583 488 568 530L203 116Q244 69 327 69ZM158 269Q158 213 172 171L536 583Q515 606 484 617T414 628Q358 628 311 601T230 525T177 411T158 269Z" />
<glyph unicode="&#xd9;" glyph-name="Ugrave" horiz-adv-x="707" d="M328 -7Q260 -7 209 10T125 60T83 143T88 258L166 602Q169 613 165 623T148 634H103L118 700H393L378 634H290L201 245Q190 195 196 162T222 109T270 81T335 73Q376 73 407 81T462 110T502 162T529
243L618 634H534L549 700H794L778 634H738Q726 634 714 624T700 602L615 234Q601 173 578 128T521 52T439 8T328 -7ZM362 833L371 872H465L507 739H446L362 833Z" />
<glyph unicode="&#xda;" glyph-name="Uacute" horiz-adv-x="707" d="M498 872H609L599 833L497 739H434L498 872ZM328 -7Q260 -7 209 10T125 60T83 143T88 258L166 602Q169 613 165 623T148 634H103L118 700H393L378 634H290L201 245Q190 195 196 162T222 109T270
81T335 73Q376 73 407 81T462 110T502 162T529 243L618 634H534L549 700H794L778 634H738Q726 634 714 624T700 602L615 234Q601 173 578 128T521 52T439 8T328 -7Z" />
<glyph unicode="&#xdb;" glyph-name="Ucircumflex" horiz-adv-x="707" d="M356 769L448 872H540L599 769L592 739H551L487 808L395 739H349L356 769ZM328 -7Q260 -7 209 10T125 60T83 143T88 258L166 602Q169 613 165 623T148 634H103L118 700H393L378 634H290L201
245Q190 195 196 162T222 109T270 81T335 73Q376 73 407 81T462 110T502 162T529 243L618 634H534L549 700H794L778 634H738Q726 634 714 624T700 602L615 234Q601 173 578 128T521 52T439 8T328 -7Z" />
<glyph unicode="&#xdc;" glyph-name="Udieresis" horiz-adv-x="707" d="M396 752Q371 752 356 768T340 807Q340 833 358 850T402 867Q427 867 442 851T458 811Q458 785 439 769T396 752ZM567 752Q543 752 528 768T512 807Q512 833 530 850T573 867Q598 867 613
851T629 811Q629 785 610 769T567 752ZM328 -7Q260 -7 209 10T125 60T83 143T88 258L166 602Q169 613 165 623T148 634H103L118 700H393L378 634H290L201 245Q190 195 196 162T222 109T270 81T335 73Q376 73 407 81T462 110T502 162T529 243L618 634H534L549 700H794L778
634H738Q726 634 714 624T700 602L615 234Q601 173 578 128T521 52T439 8T328 -7Z" />
<glyph unicode="&#xdd;" glyph-name="Yacute" horiz-adv-x="647" d="M148 64H196Q208 64 220 74T234 95L280 298L157 605Q152 618 145 626T124 634H101L117 700H368L353 634H267L368 367H370L528 569Q554 601 547 617T510 634H477L492 700H734L719 634H701Q674
634 649 604L393 287L350 95Q348 84 352 74T369 64H421L407 0H134L148 64ZM466 872H577L567 833L465 739H402L466 872Z" />
<glyph unicode="&#xde;" glyph-name="Thorn" horiz-adv-x="585" d="M-29 64H12Q25 64 37 74T51 95L167 603Q170 614 166 624T149 634H102L118 700H393L378 634H291L270 544H361Q411 544 453 536T525 510T573 463T590 391Q590 333 568 290T507 219T415 178T298
164H182L159 64H251L237 0H-43L-29 64ZM306 235Q390 235 430 272T471 380Q471 429 440 450T347 472H253L199 235H306Z" />
<glyph unicode="&#xdf;" glyph-name="germandbls" horiz-adv-x="589" d="M-75 -102Q-49 -93 -28 -70T5 7L115 508Q125 553 145 589T199 652T277 693T382 708Q422 708 456 700T515 676T554 637T569 583Q569 539 539 507T462 441Q424 414 397 394T370 352Q370 344
374 338T388 324T413 307T449 283Q466 271 483 259T514 230T536 194T545 148Q545 114 532 86T493 38T433 6T354 -6Q301 -6 265 5T203 31L226 130H286Q286 92 304 77T362 61Q397 61 421 78T446 127Q446 142 439 153T421 175T395 194T364 214Q322 241 299 265T275
328Q275 371 304 402T373 465Q390 479 406 491T434 517T454 543T462 572Q462 601 440 618T375 635Q307 635 272 599T223 504L112 5Q96 -67 60 -106T-22 -162H-89L-75 -102Z" />
<glyph unicode="&#xe0;" glyph-name="agrave" horiz-adv-x="508" d="M406 -6Q336 -6 296 28T256 127Q256 170 272 204T318 261T389 297T482 309Q520 309 545 305T592 292L608 358Q619 406 596 430T521 455Q495 455 476 452T442 442T414 428T389 409H338L359 498Q394
512 434 521T540 530Q637 530 686 487T716 355L656 96Q653 82 660 73T681 64H711L699 9Q687 3 668 -1T628 -6Q586 -6 568 14T548 64Q519 31 483 13T406 -6ZM431 63Q474 63 502 82T555 128L578 230Q558 237 536 241T488 245Q426 245 393 217T359 136Q359 101 378
82T431 63ZM198 661L207 700H301L343 567H282L198 661Z" />
<glyph unicode="&#xe1;" glyph-name="aacute" horiz-adv-x="508" d="M406 -6Q336 -6 296 28T256 127Q256 170 272 204T318 261T389 297T482 309Q520 309 545 305T592 292L608 358Q619 406 596 430T521 455Q495 455 476 452T442 442T414 428T389 409H338L359 498Q394
512 434 521T540 530Q637 530 686 487T716 355L656 96Q653 82 660 73T681 64H711L699 9Q687 3 668 -1T628 -6Q586 -6 568 14T548 64Q519 31 483 13T406 -6ZM431 63Q474 63 502 82T555 128L578 230Q558 237 536 241T488 245Q426 245 393 217T359 136Q359 101 378
82T431 63ZM334 700H445L435 661L333 567H270L334 700Z" />
<glyph unicode="&#xe2;" glyph-name="acircumflex" horiz-adv-x="508" d="M406 -6Q336 -6 296 28T256 127Q256 170 272 204T318 261T389 297T482 309Q520 309 545 305T592 292L608 358Q619 406 596 430T521 455Q495 455 476 452T442 442T414 428T389 409H338L359
498Q394 512 434 521T540 530Q637 530 686 487T716 355L656 96Q653 82 660 73T681 64H711L699 9Q687 3 668 -1T628 -6Q586 -6 568 14T548 64Q519 31 483 13T406 -6ZM431 63Q474 63 502 82T555 128L578 230Q558 237 536 241T488 245Q426 245 393 217T359 136Q359
101 378 82T431 63ZM188 597L280 700H372L431 597L424 567H383L319 636L227 567H181L188 597Z" />
<glyph unicode="&#xe3;" glyph-name="atilde" horiz-adv-x="508" d="M406 -6Q336 -6 296 28T256 127Q256 170 272 204T318 261T389 297T482 309Q520 309 545 305T592 292L608 358Q619 406 596 430T521 455Q495 455 476 452T442 442T414 428T389 409H338L359 498Q394
512 434 521T540 530Q637 530 686 487T716 355L656 96Q653 82 660 73T681 64H711L699 9Q687 3 668 -1T628 -6Q586 -6 568 14T548 64Q519 31 483 13T406 -6ZM431 63Q474 63 502 82T555 128L578 230Q558 237 536 241T488 245Q426 245 393 217T359 136Q359 101 378
82T431 63ZM157 628Q170 651 192 668T250 686Q268 686 286 681T322 670T354 659T381 654Q398 654 409 664T428 690H483L470 634Q457 611 435 594T376 576Q358 576 340 581T305 593T272 605T246 611Q229 611 218 601T200 573H145L157 628Z" />
<glyph unicode="&#xe4;" glyph-name="adieresis" horiz-adv-x="508" d="M406 -6Q336 -6 296 28T256 127Q256 170 272 204T318 261T389 297T482 309Q520 309 545 305T592 292L608 358Q619 406 596 430T521 455Q495 455 476 452T442 442T414 428T389 409H338L359
498Q394 512 434 521T540 530Q637 530 686 487T716 355L656 96Q653 82 660 73T681 64H711L699 9Q687 3 668 -1T628 -6Q586 -6 568 14T548 64Q519 31 483 13T406 -6ZM431 63Q474 63 502 82T555 128L578 230Q558 237 536 241T488 245Q426 245 393 217T359 136Q359
101 378 82T431 63ZM233 580Q208 580 193 596T177 635Q177 661 195 678T239 695Q264 695 279 679T295 639Q295 613 276 597T233 580ZM404 580Q380 580 365 596T349 635Q349 661 367 678T410 695Q435 695 450 679T466 639Q466 613 447 597T404 580Z" />
<glyph unicode="&#xe5;" glyph-name="aring" horiz-adv-x="508" d="M406 -6Q336 -6 296 28T256 127Q256 170 272 204T318 261T389 297T482 309Q520 309 545 305T592 292L608 358Q619 406 596 430T521 455Q495 455 476 452T442 442T414 428T389 409H338L359 498Q394
512 434 521T540 530Q637 530 686 487T716 355L656 96Q653 82 660 73T681 64H711L699 9Q687 3 668 -1T628 -6Q586 -6 568 14T548 64Q519 31 483 13T406 -6ZM431 63Q474 63 502 82T555 128L578 230Q558 237 536 241T488 245Q426 245 393 217T359 136Q359 101 378
82T431 63ZM310 569Q269 569 242 593T214 660Q214 684 222 702T245 734T279 754T318 761Q358 761 385 736T413 670Q413 646 405 627T382 596T349 576T310 569ZM311 612Q333 612 348 627T364 668Q364 691 351 704T316 718Q293 718 278 703T263 660Q263 638 275 625T311
612Z" />
<glyph unicode="&#xe6;" glyph-name="ae" horiz-adv-x="787" d="M524 -6Q457 -6 412 18T343 86Q314 44 266 19T167 -6Q89 -6 47 28T4 125Q4 167 20 199T65 254T136 287T229 299Q267 299 288 297T332 291L348 358Q359 403 339 429T269 455Q243 455 224 452T190
442T162 428T137 409H86L107 498Q142 512 182 521T288 530Q347 530 384 511T434 451Q470 488 516 509T619 530Q694 530 740 497T786 400Q786 350 762 317T693 263T580 233T426 220Q425 192 428 164T441 114T473 77T530 63Q556 63 575 68T610 81T636 100T657 122H718L698
38Q672 23 631 9T524 -6ZM185 63Q235 63 268 83T325 133Q321 149 320 166T318 201V229Q298 233 279 234T235 236Q173 236 140 210T107 134Q107 100 128 82T185 63ZM433 287Q561 292 620 315T680 395Q680 430 662 446T611 463Q574 463 545 449T493 410T456 354T433
287Z" />
<glyph unicode="&#xe7;" glyph-name="ccedilla" horiz-adv-x="473" d="M154 -175Q124 -175 106 -170T75 -157L86 -110H116Q120 -116 129 -121T153 -126Q192 -126 192 -97Q192 -86 183 -79T152 -71H136L152 2Q101 15 70 48Q18 103 18 191Q18 264 42 326T108 433T207
504T332 530Q389 530 426 521T492 498L467 393H404Q402 431 382 445T326 460Q279 460 243 438T181 377T142 290T128 189Q128 132 153 98T233 64Q259 64 278 69T312 82T337 101T356 122H415L395 38Q381 30 365 23T329 9T284 -2T227 -6Q214 -6 201 -5L195 -32Q228
-34 245 -51T263 -95Q263 -133 234 -154T154 -175Z" />
<glyph unicode="&#xe8;" glyph-name="egrave" horiz-adv-x="490" d="M227 -6Q123 -6 71 51T19 201Q19 270 43 330T108 434T205 504T322 530Q397 530 443 497T489 400Q489 350 465 317T396 262T283 230T129 217Q128 189 131 162T144 112T176 77T233 63Q259 63 278
68T313 81T339 100T360 122H421L401 38Q375 23 334 9T227 -6ZM136 284Q264 289 323 313T383 395Q383 430 365 446T314 463Q277 463 248 449T196 410T159 353T136 284ZM213 661L222 700H316L358 567H297L213 661Z" />
<glyph unicode="&#xe9;" glyph-name="eacute" horiz-adv-x="490" d="M344 700H455L445 661L343 567H280L344 700ZM227 -6Q123 -6 71 51T19 201Q19 270 43 330T108 434T205 504T322 530Q397 530 443 497T489 400Q489 350 465 317T396 262T283 230T129 217Q128 189
131 162T144 112T176 77T233 63Q259 63 278 68T313 81T339 100T360 122H421L401 38Q375 23 334 9T227 -6ZM136 284Q264 289 323 313T383 395Q383 430 365 446T314 463Q277 463 248 449T196 410T159 353T136 284Z" />
<glyph unicode="&#xea;" glyph-name="ecircumflex" horiz-adv-x="490" d="M206 597L298 700H390L449 597L442 567H401L337 636L245 567H199L206 597ZM227 -6Q123 -6 71 51T19 201Q19 270 43 330T108 434T205 504T322 530Q397 530 443 497T489 400Q489 350 465
317T396 262T283 230T129 217Q128 189 131 162T144 112T176 77T233 63Q259 63 278 68T313 81T339 100T360 122H421L401 38Q375 23 334 9T227 -6ZM136 284Q264 289 323 313T383 395Q383 430 365 446T314 463Q277 463 248 449T196 410T159 353T136 284Z" />
<glyph unicode="&#xeb;" glyph-name="edieresis" horiz-adv-x="490" d="M247 580Q222 580 207 596T191 635Q191 661 209 678T253 695Q278 695 293 679T309 639Q309 613 290 597T247 580ZM418 580Q394 580 379 596T363 635Q363 661 381 678T424 695Q449 695 464
679T480 639Q480 613 461 597T418 580ZM227 -6Q123 -6 71 51T19 201Q19 270 43 330T108 434T205 504T322 530Q397 530 443 497T489 400Q489 350 465 317T396 262T283 230T129 217Q128 189 131 162T144 112T176 77T233 63Q259 63 278 68T313 81T339 100T360 122H421L401
38Q375 23 334 9T227 -6ZM136 284Q264 289 323 313T383 395Q383 430 365 446T314 463Q277 463 248 449T196 410T159 353T136 284Z" />
<glyph unicode="&#xec;" glyph-name="igrave" horiz-adv-x="261" d="M118 -6Q66 -6 48 24T41 102L115 421Q118 434 111 445T91 456H53L66 515Q78 519 99 524T153 529Q198 529 217 505T225 430L149 97Q146 84 153 74T174 64H204L192 8Q179 2 160 -2T118 -6ZM338
662L347 701H441L483 568H422L338 662Z" />
<glyph unicode="&#xed;" glyph-name="iacute" horiz-adv-x="261" d="M470 701H581L571 662L469 568H406L470 701ZM118 -6Q66 -6 48 24T41 102L115 421Q118 434 111 445T91 456H53L66 515Q78 519 99 524T153 529Q198 529 217 505T225 430L149 97Q146 84 153 74T174
64H204L192 8Q179 2 160 -2T118 -6Z" />
<glyph unicode="&#xee;" glyph-name="icircumflex" horiz-adv-x="261" d="M324 598L416 701H508L567 598L560 568H519L455 637L363 568H317L324 598ZM118 -6Q66 -6 48 24T41 102L115 421Q118 434 111 445T91 456H53L66 515Q78 519 99 524T153 529Q198 529 217
505T225 430L149 97Q146 84 153 74T174 64H204L192 8Q179 2 160 -2T118 -6Z" />
<glyph unicode="&#xef;" glyph-name="idieresis" horiz-adv-x="261" d="M359 581Q334 581 319 597T303 636Q303 662 321 679T365 696Q390 696 405 680T421 640Q421 614 402 598T359 581ZM530 581Q506 581 491 597T475 636Q475 662 493 679T536 696Q561 696 576
680T592 640Q592 614 573 598T530 581ZM118 -6Q66 -6 48 24T41 102L115 421Q118 434 111 445T91 456H53L66 515Q78 519 99 524T153 529Q198 529 217 505T225 430L149 97Q146 84 153 74T174 64H204L192 8Q179 2 160 -2T118 -6Z" />
<glyph unicode="&#xf0;" glyph-name="eth" horiz-adv-x="541" d="M262 608Q248 614 233 619T201 630L218 700H255Q278 692 300 684T342 664L394 700H461L456 680L390 634Q456 585 491 513T527 342Q527 258 505 194T443 85T351 18T237 -5Q185 -5 144 10T75 54T33
123T18 213Q18 277 39 332T97 428T182 492T283 515Q321 515 352 503T406 463Q374 537 313 579L255 539H187L192 559L262 608ZM241 64Q283 64 315 85T370 142T404 222T416 316Q416 446 298 446Q260 446 229 426T175 372T140 294T128 200Q128 134 157 99T241 64Z"
/>
<glyph unicode="&#xf1;" glyph-name="ntilde" horiz-adv-x="580" d="M439 -6Q388 -6 370 23T362 101L425 374Q441 445 383 445Q338 445 294 423T208 368L124 0H42Q31 0 25 8T22 32L112 421Q114 434 108 445T87 456H53L66 515Q78 519 98 524T149 529Q168 529 183
524T209 506T222 473T220 425Q241 445 266 464T320 497T379 521T441 530Q504 530 528 493T538 395L470 98Q466 84 474 74T495 64H523L511 8Q499 3 481 -1T439 -6ZM201 628Q214 651 236 668T294 686Q312 686 330 681T366 670T398 659T425 654Q442 654 453 664T472
690H527L514 634Q501 611 479 594T420 576Q402 576 384 581T349 593T316 605T290 611Q273 611 262 601T244 573H189L201 628Z" />
<glyph unicode="&#xf2;" glyph-name="ograve" horiz-adv-x="543" d="M237 -5Q132 -5 75 53T18 211Q18 281 41 340T103 441T196 506T308 530Q412 530 469 472T526 316Q526 245 504 187T443 85T351 19T237 -5ZM241 64Q282 64 314 85T369 143T404 226T416 324Q416
457 304 457Q264 457 232 436T176 380T141 298T128 199Q128 133 156 99T241 64ZM215 661L224 700H318L360 567H299L215 661Z" />
<glyph unicode="&#xf3;" glyph-name="oacute" horiz-adv-x="543" d="M351 700H462L452 661L350 567H287L351 700ZM237 -5Q132 -5 75 53T18 211Q18 281 41 340T103 441T196 506T308 530Q412 530 469 472T526 316Q526 245 504 187T443 85T351 19T237 -5ZM241 64Q282
64 314 85T369 143T404 226T416 324Q416 457 304 457Q264 457 232 436T176 380T141 298T128 199Q128 133 156 99T241 64Z" />
<glyph unicode="&#xf4;" glyph-name="ocircumflex" horiz-adv-x="543" d="M209 597L301 700H393L452 597L445 567H404L340 636L248 567H202L209 597ZM237 -5Q132 -5 75 53T18 211Q18 281 41 340T103 441T196 506T308 530Q412 530 469 472T526 316Q526 245 504
187T443 85T351 19T237 -5ZM241 64Q282 64 314 85T369 143T404 226T416 324Q416 457 304 457Q264 457 232 436T176 380T141 298T128 199Q128 133 156 99T241 64Z" />
<glyph unicode="&#xf5;" glyph-name="otilde" horiz-adv-x="543" d="M237 -5Q132 -5 75 53T18 211Q18 281 41 340T103 441T196 506T308 530Q412 530 469 472T526 316Q526 245 504 187T443 85T351 19T237 -5ZM241 64Q282 64 314 85T369 143T404 226T416 324Q416
457 304 457Q264 457 232 436T176 380T141 298T128 199Q128 133 156 99T241 64ZM182 628Q195 651 217 668T275 686Q293 686 311 681T347 670T379 659T406 654Q423 654 434 664T453 690H508L495 634Q482 611 460 594T401 576Q383 576 365 581T330 593T297 605T271
611Q254 611 243 601T225 573H170L182 628Z" />
<glyph unicode="&#xf6;" glyph-name="odieresis" horiz-adv-x="543" d="M249 580Q224 580 209 596T193 635Q193 661 211 678T255 695Q280 695 295 679T311 639Q311 613 292 597T249 580ZM420 580Q396 580 381 596T365 635Q365 661 383 678T426 695Q451 695 466
679T482 639Q482 613 463 597T420 580ZM237 -5Q132 -5 75 53T18 211Q18 281 41 340T103 441T196 506T308 530Q412 530 469 472T526 316Q526 245 504 187T443 85T351 19T237 -5ZM241 64Q282 64 314 85T369 143T404 226T416 324Q416 457 304 457Q264 457 232 436T176
380T141 298T128 199Q128 133 156 99T241 64Z" />
<glyph unicode="&#xf7;" glyph-name="divide" horiz-adv-x="496" d="M232 117Q205 117 189 134T172 178Q172 205 193 223T241 242Q268 242 285 224T301 181Q300 153 280 135T232 117ZM295 449Q267 449 251 466T235 510Q236 537 256 555T304 574Q331 574 348 556T364
513Q363 485 342 467T295 449ZM35 305L54 386H500L481 305H35Z" />
<glyph unicode="&#xf8;" glyph-name="oslash" horiz-adv-x="543" d="M63 67Q18 121 18 211Q18 281 41 340T103 441T196 506T308 530Q389 530 443 493L489 545H560L481 457Q526 401 526 316Q526 245 504 187T443 85T351 19T237 -5Q195 -5 162 4T102 31L50 -27H-21L63
67ZM241 64Q282 64 314 85T370 143T405 226T418 324Q418 355 412 379L158 94Q185 64 241 64ZM126 199Q126 168 132 144L385 428Q356 457 304 457Q264 457 231 436T175 380T139 298T126 199Z" />
<glyph unicode="&#xf9;" glyph-name="ugrave" horiz-adv-x="576" d="M153 -7Q86 -7 58 35T46 147L109 421Q112 434 106 445T85 456H53L66 515Q78 520 99 524T148 529Q196 529 212 499T217 420L156 153Q148 115 160 94T205 72Q245 72 285 93T365 146L452 524H534Q545
524 551 515T553 491L463 98Q460 84 467 74T487 64H519L507 8Q493 2 475 -2T433 -6Q390 -6 369 16T355 87Q313 47 262 20T153 -7ZM237 662L246 701H340L382 568H321L237 662Z" />
<glyph unicode="&#xfa;" glyph-name="uacute" horiz-adv-x="576" d="M369 701H480L470 662L368 568H305L369 701ZM153 -7Q86 -7 58 35T46 147L109 421Q112 434 106 445T85 456H53L66 515Q78 520 99 524T148 529Q196 529 212 499T217 420L156 153Q148 115 160 94T205
72Q245 72 285 93T365 146L452 524H534Q545 524 551 515T553 491L463 98Q460 84 467 74T487 64H519L507 8Q493 2 475 -2T433 -6Q390 -6 369 16T355 87Q313 47 262 20T153 -7Z" />
<glyph unicode="&#xfb;" glyph-name="ucircumflex" horiz-adv-x="576" d="M229 598L321 701H413L472 598L465 568H424L360 637L268 568H222L229 598ZM153 -7Q86 -7 58 35T46 147L109 421Q112 434 106 445T85 456H53L66 515Q78 520 99 524T148 529Q196 529 212
499T217 420L156 153Q148 115 160 94T205 72Q245 72 285 93T365 146L452 524H534Q545 524 551 515T553 491L463 98Q460 84 467 74T487 64H519L507 8Q493 2 475 -2T433 -6Q390 -6 369 16T355 87Q313 47 262 20T153 -7Z" />
<glyph unicode="&#xfc;" glyph-name="udieresis" horiz-adv-x="576" d="M268 581Q243 581 228 597T212 636Q212 662 230 679T274 696Q299 696 314 680T330 640Q330 614 311 598T268 581ZM439 581Q415 581 400 597T384 636Q384 662 402 679T445 696Q470 696 485
680T501 640Q501 614 482 598T439 581ZM153 -7Q86 -7 58 35T46 147L109 421Q112 434 106 445T85 456H53L66 515Q78 520 99 524T148 529Q196 529 212 499T217 420L156 153Q148 115 160 94T205 72Q245 72 285 93T365 146L452 524H534Q545 524 551 515T553 491L463
98Q460 84 467 74T487 64H519L507 8Q493 2 475 -2T433 -6Q390 -6 369 16T355 87Q313 47 262 20T153 -7Z" />
<glyph unicode="&#xfd;" glyph-name="yacute" horiz-adv-x="563" d="M176 -171Q108 -171 66 -162T-4 -141L15 -59H78Q106 -104 184 -104Q248 -104 283 -79T331 -1L356 104Q314 66 267 43T162 19Q95 19 65 58T51 166L109 421Q112 434 106 445T85 456H53L66 515Q78
520 99 524T148 529Q194 529 211 500T217 420L161 172Q153 136 165 117T210 97Q250 97 290 116T370 167L452 524H534Q545 524 551 515T553 491L441 5Q419 -88 355 -129T176 -171ZM366 700H477L467 661L365 567H302L366 700Z" />
<glyph unicode="&#xfe;" glyph-name="thorn" horiz-adv-x="554" d="M-95 -102H-57Q-46 -102 -36 -94T-24 -75L132 607Q134 616 128 625T113 634H74L89 700H241Q261 700 255 673L200 432Q217 451 237 468T282 500T334 522T394 531Q458 531 499 490T540 357Q540
322 534 285T517 211T488 143T448 86Q409 43 359 25T259 6Q204 6 170 20T113 54L78 -102H153L139 -162H-108L-95 -102ZM236 70Q287 70 323 94T383 158T418 245T429 342Q429 402 406 427T345 452Q302 452 260 427T186 371L124 105Q141 92 166 81T236 70Z" />
<glyph unicode="&#xff;" glyph-name="ydieresis" horiz-adv-x="563" d="M176 -171Q108 -171 66 -162T-4 -141L15 -59H78Q106 -104 184 -104Q248 -104 283 -79T331 -1L356 104Q314 66 267 43T162 19Q95 19 65 58T51 166L109 421Q112 434 106 445T85 456H53L66 515Q78
520 99 524T148 529Q194 529 211 500T217 420L161 172Q153 136 165 117T210 97Q250 97 290 116T370 167L452 524H534Q545 524 551 515T553 491L441 5Q419 -88 355 -129T176 -171ZM266 580Q241 580 226 596T210 635Q210 661 228 678T272 695Q297 695 312 679T328
639Q328 613 309 597T266 580ZM437 580Q413 580 398 596T382 635Q382 661 400 678T443 695Q468 695 483 679T499 639Q499 613 480 597T437 580Z" />
<glyph unicode="&#x100;" glyph-name="Amacron" horiz-adv-x="711" d="M223 64H246Q279 64 298 97L588 602Q596 616 594 625T578 634H520L536 700H789L850 96Q852 82 860 73T882 64H909L895 0H627L642 64H739L725 221H462L417 142Q397 105 397 85T430 64H479L465
0H208L223 64ZM719 289L689 618H685L500 289H719ZM328 836H581L564 764H311L328 836Z" />
<glyph unicode="&#x101;" glyph-name="amacron" horiz-adv-x="513" d="M406 -6Q336 -6 296 28T256 127Q256 170 272 204T318 261T389 297T482 309Q520 309 545 305T592 292L608 358Q619 406 596 430T521 455Q495 455 476 452T442 442T414 428T389 409H338L359
498Q394 512 434 521T540 530Q637 530 686 487T716 355L656 96Q653 82 660 73T681 64H711L699 9Q687 3 668 -1T628 -6Q586 -6 568 14T548 64Q519 31 483 13T406 -6ZM431 63Q474 63 502 82T555 128L578 230Q558 237 536 241T488 245Q426 245 393 217T359 136Q359
101 378 82T431 63ZM197 667H450L433 595H180L197 667Z" />
<glyph unicode="&#x102;" glyph-name="Abreve" horiz-adv-x="711" d="M223 64H246Q279 64 298 97L588 602Q596 616 594 625T578 634H520L536 700H789L850 96Q852 82 860 73T882 64H909L895 0H627L642 64H739L725 221H462L417 142Q397 105 397 85T430 64H479L465
0H208L223 64ZM719 289L689 618H685L500 289H719ZM440 740Q412 740 391 748T356 768T333 797T321 832L329 866H387Q388 840 403 826T445 812Q500 812 516 866H582L572 824Q565 809 554 794T527 767T489 748T440 740Z" />
<glyph unicode="&#x103;" glyph-name="abreve" horiz-adv-x="513" d="M406 -6Q336 -6 296 28T256 127Q256 170 272 204T318 261T389 297T482 309Q520 309 545 305T592 292L608 358Q619 406 596 430T521 455Q495 455 476 452T442 442T414 428T389 409H338L359 498Q394
512 434 521T540 530Q637 530 686 487T716 355L656 96Q653 82 660 73T681 64H711L699 9Q687 3 668 -1T628 -6Q586 -6 568 14T548 64Q519 31 483 13T406 -6ZM431 63Q474 63 502 82T555 128L578 230Q558 237 536 241T488 245Q426 245 393 217T359 136Q359 101 378
82T431 63ZM294 568Q266 568 245 576T210 596T187 625T175 660L183 694H241Q242 668 257 654T299 640Q354 640 370 694H436L426 652Q419 637 408 622T381 595T343 576T294 568Z" />
<glyph unicode="&#x104;" glyph-name="Aogonek" horiz-adv-x="711" d="M533 -165Q493 -165 472 -147T451 -100Q451 -81 459 -66T479 -38T506 -16T536 0H373L388 64H485L471 221H208L163 142Q143 105 143 85T176 64H225L211 0H-46L-31 64H-8Q25 64 44 97L334 602Q342
616 340 625T324 634H266L282 700H535L596 96Q598 82 606 73T628 64H655L641 0H599Q573 -20 557 -37T540 -77Q540 -102 575 -102H606L595 -151Q583 -157 567 -161T533 -165ZM465 289L435 618H431L246 289H465Z" />
<glyph unicode="&#x105;" glyph-name="aogonek" horiz-adv-x="513" d="M357 -165Q317 -165 296 -147T275 -100Q275 -64 299 -41T352 -3Q324 2 311 20T296 64Q267 31 231 13T154 -6Q84 -6 44 28T4 127Q4 170 20 204T66 261T137 297T230 309Q268 309 293 305T340
292L356 358Q367 406 344 430T269 455Q243 455 224 452T190 442T162 428T137 409H86L107 498Q142 512 182 521T288 530Q385 530 434 487T464 355L404 96Q401 82 408 73T429 64H459L447 9Q414 -5 389 -28T364 -77Q364 -102 399 -102H430L419 -151Q407 -157 391 -161T357
-165ZM179 63Q222 63 250 82T303 128L326 230Q306 237 284 241T236 245Q174 245 141 217T107 136Q107 101 126 82T179 63Z" />
<glyph unicode="&#x106;" glyph-name="Cacute" horiz-adv-x="615" d="M486 879H597L587 840L485 746H422L486 879ZM322 -7Q186 -7 114 62T41 254Q41 346 71 428T155 572T283 670T446 707Q473 707 493 705T530 699T559 691T583 680Q588 680 593 686T600 700H677L628
486H549L557 595Q540 609 514 619T445 629Q384 629 332 602T243 525T184 408T162 257Q162 69 328 69Q361 69 387 75T434 91T472 117T508 150H565L545 64Q503 33 450 13T322 -7Z" />
<glyph unicode="&#x107;" glyph-name="cacute" horiz-adv-x="473" d="M358 700H469L459 661L357 567H294L358 700ZM227 -6Q122 -6 70 48T18 191Q18 264 42 326T108 433T207 504T332 530Q389 530 426 521T492 498L467 393H404Q402 431 382 445T326 460Q279 460
243 438T181 377T142 290T128 189Q128 132 153 98T233 64Q259 64 278 69T312 82T337 101T356 122H415L395 38Q381 30 365 23T329 9T284 -2T227 -6Z" />
<glyph unicode="&#x108;" glyph-name="Ccircumflex" horiz-adv-x="615" d="M344 776L436 879H528L587 776L580 746H539L475 815L383 746H337L344 776ZM322 -7Q186 -7 114 62T41 254Q41 346 71 428T155 572T283 670T446 707Q473 707 493 705T530 699T559 691T583
680Q588 680 593 686T600 700H677L628 486H549L557 595Q540 609 514 619T445 629Q384 629 332 602T243 525T184 408T162 257Q162 69 328 69Q361 69 387 75T434 91T472 117T508 150H565L545 64Q503 33 450 13T322 -7Z" />
<glyph unicode="&#x109;" glyph-name="ccircumflex" horiz-adv-x="473" d="M216 597L308 700H400L459 597L452 567H411L347 636L255 567H209L216 597ZM227 -6Q122 -6 70 48T18 191Q18 264 42 326T108 433T207 504T332 530Q389 530 426 521T492 498L467 393H404Q402
431 382 445T326 460Q279 460 243 438T181 377T142 290T128 189Q128 132 153 98T233 64Q259 64 278 69T312 82T337 101T356 122H415L395 38Q381 30 365 23T329 9T284 -2T227 -6Z" />
<glyph unicode="&#x10a;" glyph-name="Cdotaccent" horiz-adv-x="615" d="M322 -7Q186 -7 114 62T41 254Q41 346 71 428T155 572T283 670T446 707Q473 707 493 705T530 699T559 691T583 680Q588 680 593 686T600 700H677L628 486H549L557 595Q540 609 514 619T445
629Q384 629 332 602T243 525T184 408T162 257Q162 69 328 69Q361 69 387 75T434 91T472 117T508 150H565L545 64Q503 33 450 13T322 -7ZM458 758Q432 758 416 775T400 817Q400 843 419 861T464 879Q490 879 507 862T524 821Q524 794 504 776T458 758Z" />
<glyph unicode="&#x10b;" glyph-name="cdotaccent" horiz-adv-x="473" d="M227 -6Q122 -6 70 48T18 191Q18 264 42 326T108 433T207 504T332 530Q389 530 426 521T492 498L467 393H404Q402 431 382 445T326 460Q279 460 243 438T181 377T142 290T128 189Q128 132
153 98T233 64Q259 64 278 69T312 82T337 101T356 122H415L395 38Q381 30 365 23T329 9T284 -2T227 -6ZM330 579Q304 579 288 596T272 638Q272 664 291 682T336 700Q362 700 379 683T396 642Q396 615 376 597T330 579Z" />
<glyph unicode="&#x10c;" glyph-name="Ccaron" horiz-adv-x="615" d="M599 849L507 746H415L356 849L363 879H404L468 810L560 879H606L599 849ZM322 -7Q186 -7 114 62T41 254Q41 346 71 428T155 572T283 670T446 707Q473 707 493 705T530 699T559 691T583 680Q588
680 593 686T600 700H677L628 486H549L557 595Q540 609 514 619T445 629Q384 629 332 602T243 525T184 408T162 257Q162 69 328 69Q361 69 387 75T434 91T472 117T508 150H565L545 64Q503 33 450 13T322 -7Z" />
<glyph unicode="&#x10d;" glyph-name="ccaron" horiz-adv-x="473" d="M471 670L379 567H287L228 670L235 700H276L340 631L432 700H478L471 670ZM227 -6Q122 -6 70 48T18 191Q18 264 42 326T108 433T207 504T332 530Q389 530 426 521T492 498L467 393H404Q402
431 382 445T326 460Q279 460 243 438T181 377T142 290T128 189Q128 132 153 98T233 64Q259 64 278 69T312 82T337 101T356 122H415L395 38Q381 30 365 23T329 9T284 -2T227 -6Z" />
<glyph unicode="&#x10e;" glyph-name="Dcaron" horiz-adv-x="682" d="M535 842L443 739H351L292 842L299 872H340L404 803L496 872H542L535 842ZM-29 64H12Q25 64 37 74T51 95L167 603Q170 614 166 624T149 634H102L118 700H377Q525 700 604 632T684 426Q684 331
656 253T573 118T438 31T255 0H-43L-29 64ZM262 68Q337 68 394 94T488 169T545 284T564 435Q564 537 514 583T363 629H290L160 68H262Z" />
<glyph unicode="&#x10f;" glyph-name="dcaron" horiz-adv-x="574" d="M652 700H739L731 661L665 562H607L652 700ZM174 -6Q100 -6 57 36T14 166Q14 202 21 240T41 315T74 383T116 441Q155 484 205 507T309 530Q362 530 392 516T444 481L480 634H403L418 700H582Q603
700 597 673L463 97Q460 84 468 74T489 64H517L505 8Q493 2 478 -2T445 -6Q399 -6 375 17T358 88Q323 46 277 20T174 -6ZM208 62Q229 62 250 69T292 89T332 118T368 152L431 427Q416 438 393 447T327 456Q276 456 238 430T175 363T138 271T125 170Q125 114 147
88T208 62Z" />
<glyph unicode="&#x110;" glyph-name="Dcroat" horiz-adv-x="682" d="M-29 64H12Q25 64 37 74T51 95L101 313H29L44 380H116L167 603Q170 614 166 624T149 634H102L118 700H377Q525 700 604 632T684 426Q684 331 656 253T573 118T438 31T255 0H-43L-29 64ZM262
68Q337 68 394 94T488 169T545 284T564 435Q564 537 514 583T363 629H290L232 380H401L385 313H217L160 68H262Z" />
<glyph unicode="&#x111;" glyph-name="dcroat" horiz-adv-x="574" d="M573 572L463 97Q460 84 468 74T489 64H517L505 8Q493 2 478 -2T445 -6Q399 -6 375 17T358 88Q323 46 277 20T174 -6Q100 -6 57 36T14 166Q14 202 21 240T41 315T74 383T116 441Q155 484 205
507T309 530Q362 530 392 516T444 481L465 572H344L357 629H478L495 700H582Q603 700 597 673L587 629H649L636 572H573ZM208 62Q229 62 250 69T292 89T332 118T368 152L431 427Q416 438 393 447T327 456Q276 456 238 430T175 363T138 271T125 170Q125 114 147
88T208 62Z" />
<glyph unicode="&#x112;" glyph-name="Emacron" horiz-adv-x="581" d="M-29 64H12Q25 64 37 74T51 95L167 603Q170 614 166 624T149 634H102L118 700H644L601 514H528L541 629H290L235 392H366L394 475H464L410 240H341L352 323H219L160 70H430L472 198H547L502
0H-43L-29 64ZM300 836H553L536 764H283L300 836Z" />
<glyph unicode="&#x113;" glyph-name="emacron" horiz-adv-x="490" d="M227 -6Q123 -6 71 51T19 201Q19 270 43 330T108 434T205 504T322 530Q397 530 443 497T489 400Q489 350 465 317T396 262T283 230T129 217Q128 189 131 162T144 112T176 77T233 63Q259 63
278 68T313 81T339 100T360 122H421L401 38Q375 23 334 9T227 -6ZM136 284Q264 289 323 313T383 395Q383 430 365 446T314 463Q277 463 248 449T196 410T159 353T136 284ZM218 667H471L454 595H201L218 667Z" />
<glyph unicode="&#x114;" glyph-name="Ebreve" horiz-adv-x="581" d="M-29 64H12Q25 64 37 74T51 95L167 603Q170 614 166 624T149 634H102L118 700H644L601 514H528L541 629H290L235 392H366L394 475H464L410 240H341L352 323H219L160 70H430L472 198H547L502
0H-43L-29 64ZM390 747Q362 747 341 755T306 775T283 804T271 839L279 873H337Q338 847 353 833T395 819Q450 819 466 873H532L522 831Q515 816 504 801T477 774T439 755T390 747Z" />
<glyph unicode="&#x115;" glyph-name="ebreve" horiz-adv-x="490" d="M227 -6Q123 -6 71 51T19 201Q19 270 43 330T108 434T205 504T322 530Q397 530 443 497T489 400Q489 350 465 317T396 262T283 230T129 217Q128 189 131 162T144 112T176 77T233 63Q259 63
278 68T313 81T339 100T360 122H421L401 38Q375 23 334 9T227 -6ZM136 284Q264 289 323 313T383 395Q383 430 365 446T314 463Q277 463 248 449T196 410T159 353T136 284ZM306 568Q278 568 257 576T222 596T199 625T187 660L195 694H253Q254 668 269 654T311 640Q366
640 382 694H448L438 652Q431 637 420 622T393 595T355 576T306 568Z" />
<glyph unicode="&#x116;" glyph-name="Edotaccent" horiz-adv-x="581" d="M-29 64H12Q25 64 37 74T51 95L167 603Q170 614 166 624T149 634H102L118 700H644L601 514H528L541 629H290L235 392H366L394 475H464L410 240H341L352 323H219L160 70H430L472 198H547L502
0H-43L-29 64ZM403 751Q377 751 361 768T345 810Q345 836 364 854T409 872Q435 872 452 855T469 814Q469 787 449 769T403 751Z" />
<glyph unicode="&#x117;" glyph-name="edotaccent" horiz-adv-x="490" d="M227 -6Q123 -6 71 51T19 201Q19 270 43 330T108 434T205 504T322 530Q397 530 443 497T489 400Q489 350 465 317T396 262T283 230T129 217Q128 189 131 162T144 112T176 77T233 63Q259
63 278 68T313 81T339 100T360 122H421L401 38Q375 23 334 9T227 -6ZM136 284Q264 289 323 313T383 395Q383 430 365 446T314 463Q277 463 248 449T196 410T159 353T136 284ZM320 579Q294 579 278 596T262 638Q262 664 281 682T326 700Q352 700 369 683T386 642Q386
615 366 597T320 579Z" />
<glyph unicode="&#x118;" glyph-name="Eogonek" horiz-adv-x="581" d="M-29 64H12Q25 64 37 74T51 95L167 603Q170 614 166 624T149 634H102L118 700H644L601 514H528L541 629H290L235 392H366L394 475H464L410 240H341L352 323H219L160 70H430L472 198H547L502
0H466Q440 -20 424 -37T407 -77Q407 -102 442 -102H473L462 -151Q450 -157 434 -161T400 -165Q360 -165 339 -147T318 -100Q318 -81 326 -66T346 -38T373 -16T403 0H-43L-29 64Z" />
<glyph unicode="&#x119;" glyph-name="eogonek" horiz-adv-x="490" d="M284 -165Q244 -165 223 -147T202 -100Q202 -82 209 -67T227 -40T252 -19T280 -3Q256 -6 227 -6Q123 -6 71 51T19 201Q19 270 43 330T108 434T205 504T322 530Q397 530 443 497T489 400Q489
350 465 317T396 262T283 230T129 217Q128 189 131 162T144 112T176 77T233 63Q259 63 278 68T313 81T339 100T360 122H421L401 38Q384 26 365 13T330 -14T302 -44T291 -77Q291 -102 326 -102H357L346 -151Q334 -157 318 -161T284 -165ZM136 284Q264 289 323 313T383
395Q383 430 365 446T314 463Q277 463 248 449T196 410T159 353T136 284Z" />
<glyph unicode="&#x11a;" glyph-name="Ecaron" horiz-adv-x="581" d="M543 842L451 739H359L300 842L307 872H348L412 803L504 872H550L543 842ZM-29 64H12Q25 64 37 74T51 95L167 603Q170 614 166 624T149 634H102L118 700H644L601 514H528L541 629H290L235 392H366L394
475H464L410 240H341L352 323H219L160 70H430L472 198H547L502 0H-43L-29 64Z" />
<glyph unicode="&#x11b;" glyph-name="ecaron" horiz-adv-x="490" d="M461 670L369 567H277L218 670L225 700H266L330 631L422 700H468L461 670ZM227 -6Q123 -6 71 51T19 201Q19 270 43 330T108 434T205 504T322 530Q397 530 443 497T489 400Q489 350 465 317T396
262T283 230T129 217Q128 189 131 162T144 112T176 77T233 63Q259 63 278 68T313 81T339 100T360 122H421L401 38Q375 23 334 9T227 -6ZM136 284Q264 289 323 313T383 395Q383 430 365 446T314 463Q277 463 248 449T196 410T159 353T136 284Z" />
<glyph unicode="&#x11c;" glyph-name="Gcircumflex" horiz-adv-x="665" d="M344 776L436 879H528L587 776L580 746H539L475 815L383 746H337L344 776ZM302 -7Q178 -7 110 62T41 254Q41 351 73 434T160 577T290 672T451 707Q481 707 503 705T541 699T569 690T591
680Q596 680 600 686T606 700H682L634 492H555L563 592Q544 609 519 619T449 630Q391 630 339 604T247 528T184 410T161 256Q161 164 201 117T320 69Q342 69 358 71T389 78T415 89T440 102L476 259H393L408 325H665L650 259H621Q609 259 597 249T583 228L530 0H466Q467
7 463 16T448 26Q421 12 388 3T302 -7Z" />
<glyph unicode="&#x11d;" glyph-name="gcircumflex" horiz-adv-x="470" d="M200 597L292 700H384L443 597L436 567H395L331 636L239 567H193L200 597ZM155 -172Q47 -172 -4 -139T-56 -58Q-56 -32 -46 -13T-19 20T21 45T69 65Q54 72 43 89T31 130Q31 166 54 192T111
238Q89 255 75 281T61 342Q61 384 78 419T124 478T191 516T271 530Q301 530 328 524H511L496 456H455Q448 456 441 451T432 438Q438 426 441 413T445 385Q445 342 428 308T383 249T317 213T237 200Q211 200 189 204T150 215Q136 205 127 194T117 168Q117 136 158
136H281Q351 136 385 103T419 16Q419 -23 405 -57T359 -117T277 -157T155 -172ZM157 -103Q201 -103 231 -96T281 -77T308 -48T317 -13Q317 42 240 42H102Q75 27 59 7T42 -39Q42 -66 67 -84T157 -103ZM236 262Q258 262 278 271T314 297T338 337T347 390Q347 423
327 443T269 464Q246 464 226 455T192 428T169 388T160 336Q160 306 178 284T236 262Z" />
<glyph unicode="&#x11e;" glyph-name="Gbreve" horiz-adv-x="665" d="M302 -7Q178 -7 110 62T41 254Q41 351 73 434T160 577T290 672T451 707Q481 707 503 705T541 699T569 690T591 680Q596 680 600 686T606 700H682L634 492H555L563 592Q544 609 519 619T449
630Q391 630 339 604T247 528T184 410T161 256Q161 164 201 117T320 69Q342 69 358 71T389 78T415 89T440 102L476 259H393L408 325H665L650 259H621Q609 259 597 249T583 228L530 0H466Q467 7 463 16T448 26Q421 12 388 3T302 -7ZM449 747Q421 747 400 755T365
775T342 804T330 839L338 873H396Q397 847 412 833T454 819Q509 819 525 873H591L581 831Q574 816 563 801T536 774T498 755T449 747Z" />
<glyph unicode="&#x11f;" glyph-name="gbreve" horiz-adv-x="470" d="M155 -172Q47 -172 -4 -139T-56 -58Q-56 -32 -46 -13T-19 20T21 45T69 65Q54 72 43 89T31 130Q31 166 54 192T111 238Q89 255 75 281T61 342Q61 384 78 419T124 478T191 516T271 530Q301 530
328 524H511L496 456H455Q448 456 441 451T432 438Q438 426 441 413T445 385Q445 342 428 308T383 249T317 213T237 200Q211 200 189 204T150 215Q136 205 127 194T117 168Q117 136 158 136H281Q351 136 385 103T419 16Q419 -23 405 -57T359 -117T277 -157T155
-172ZM157 -103Q201 -103 231 -96T281 -77T308 -48T317 -13Q317 42 240 42H102Q75 27 59 7T42 -39Q42 -66 67 -84T157 -103ZM236 262Q258 262 278 271T314 297T338 337T347 390Q347 423 327 443T269 464Q246 464 226 455T192 428T169 388T160 336Q160 306 178 284T236
262ZM305 568Q277 568 256 576T221 596T198 625T186 660L194 694H252Q253 668 268 654T310 640Q365 640 381 694H447L437 652Q430 637 419 622T392 595T354 576T305 568Z" />
<glyph unicode="&#x120;" glyph-name="Gdotaccent" horiz-adv-x="665" d="M302 -7Q178 -7 110 62T41 254Q41 351 73 434T160 577T290 672T451 707Q481 707 503 705T541 699T569 690T591 680Q596 680 600 686T606 700H682L634 492H555L563 592Q544 609 519 619T449
630Q391 630 339 604T247 528T184 410T161 256Q161 164 201 117T320 69Q342 69 358 71T389 78T415 89T440 102L476 259H393L408 325H665L650 259H621Q609 259 597 249T583 228L530 0H466Q467 7 463 16T448 26Q421 12 388 3T302 -7ZM458 758Q432 758 416 775T400
817Q400 843 419 861T464 879Q490 879 507 862T524 821Q524 794 504 776T458 758Z" />
<glyph unicode="&#x121;" glyph-name="gdotaccent" horiz-adv-x="470" d="M155 -172Q47 -172 -4 -139T-56 -58Q-56 -32 -46 -13T-19 20T21 45T69 65Q54 72 43 89T31 130Q31 166 54 192T111 238Q89 255 75 281T61 342Q61 384 78 419T124 478T191 516T271 530Q301
530 328 524H511L496 456H455Q448 456 441 451T432 438Q438 426 441 413T445 385Q445 342 428 308T383 249T317 213T237 200Q211 200 189 204T150 215Q136 205 127 194T117 168Q117 136 158 136H281Q351 136 385 103T419 16Q419 -23 405 -57T359 -117T277 -157T155
-172ZM157 -103Q201 -103 231 -96T281 -77T308 -48T317 -13Q317 42 240 42H102Q75 27 59 7T42 -39Q42 -66 67 -84T157 -103ZM236 262Q258 262 278 271T314 297T338 337T347 390Q347 423 327 443T269 464Q246 464 226 455T192 428T169 388T160 336Q160 306 178 284T236
262ZM310 579Q284 579 268 596T252 638Q252 664 271 682T316 700Q342 700 359 683T376 642Q376 615 356 597T310 579Z" />
<glyph unicode="&#x122;" glyph-name="Gcommaaccent" horiz-adv-x="665" d="M188 91Q214 94 228 102T243 125Q243 132 239 135T229 144Q212 156 212 178Q212 201 228 215T268 229Q292 229 308 214T325 171Q325 113 285 82T177 46L188 91ZM302 -7Q178 -7 110 62T41
254Q41 351 73 434T160 577T290 672T451 707Q481 707 503 705T541 699T569 690T591 680Q596 680 600 686T606 700H682L634 492H555L563 592Q544 609 519 619T449 630Q391 630 339 604T247 528T184 410T161 256Q161 164 201 117T320 69Q342 69 358 71T389 78T415
89T440 102L476 259H393L408 325H665L650 259H621Q609 259 597 249T583 228L530 0H466Q467 7 463 16T448 26Q421 12 388 3T302 -7Z" />
<glyph unicode="&#x123;" glyph-name="gcommaaccent" horiz-adv-x="470" d="M380 706Q354 703 340 695T325 672Q325 665 329 662T339 653Q356 641 356 619Q356 596 340 582T300 568Q276 568 260 583T243 626Q243 684 283 715T391 751L380 706ZM155 -172Q47 -172
-4 -139T-56 -58Q-56 -32 -46 -13T-19 20T21 45T69 65Q54 72 43 89T31 130Q31 166 54 192T111 238Q89 255 75 281T61 342Q61 384 78 419T124 478T191 516T271 530Q301 530 328 524H511L496 456H455Q448 456 441 451T432 438Q438 426 441 413T445 385Q445 342 428
308T383 249T317 213T237 200Q211 200 189 204T150 215Q136 205 127 194T117 168Q117 136 158 136H281Q351 136 385 103T419 16Q419 -23 405 -57T359 -117T277 -157T155 -172ZM157 -103Q201 -103 231 -96T281 -77T308 -48T317 -13Q317 42 240 42H102Q75 27 59 7T42
-39Q42 -66 67 -84T157 -103ZM236 262Q258 262 278 271T314 297T338 337T347 390Q347 423 327 443T269 464Q246 464 226 455T192 428T169 388T160 336Q160 306 178 284T236 262Z" />
<glyph unicode="&#x124;" glyph-name="Hcircumflex" horiz-adv-x="722" d="M356 769L448 872H540L599 769L592 739H551L487 808L395 739H349L356 769ZM-29 64H12Q25 64 37 74T51 95L167 602Q170 613 166 623T149 634H102L118 700H395L379 634H291L235 393H548L603
634H514L529 700H807L792 634H750Q738 634 726 624T712 602L595 95Q593 84 597 74T614 64H661L647 0H368L383 64H472L532 325H220L159 64H249L234 0H-43L-29 64Z" />
<glyph unicode="&#x125;" glyph-name="hcircumflex" horiz-adv-x="580" d="M258 751L350 854H442L501 751L494 721H453L389 790L297 721H251L258 751ZM439 -6Q388 -6 370 23T362 101L425 374Q441 445 382 445Q338 445 294 423T208 368L124 0H42Q31 0 25 8T22 32L154
606Q156 615 151 624T135 634H97L112 700H264Q284 700 278 673L221 428Q242 447 267 465T321 498T380 521T441 530Q504 530 528 493T538 395L470 98Q466 84 474 74T495 64H524L511 8Q499 3 481 -1T439 -6Z" />
<glyph unicode="&#x126;" glyph-name="Hbar" horiz-adv-x="722" d="M-29 64H12Q25 64 37 74T51 95L140 483H65L77 538H152L167 602Q170 613 166 623T149 634H102L118 700H395L379 634H291L268 538H581L603 634H514L529 700H807L792 634H750Q738 634 726 624T712
602L697 538H771L759 483H684L595 95Q593 84 597 74T614 64H661L647 0H368L383 64H472L532 325H220L159 64H249L234 0H-43L-29 64ZM548 393L568 483H256L235 393H548Z" />
<glyph unicode="&#x127;" glyph-name="hbar" horiz-adv-x="580" d="M439 -6Q388 -6 370 23T362 101L425 374Q441 445 382 445Q338 445 294 423T208 368L124 0H42Q31 0 25 8T22 32L145 572H82L95 629H158L175 700H264Q284 700 278 673L268 629H387L374 572H254L221
428Q242 447 267 465T321 498T380 521T441 530Q504 530 528 493T538 395L470 98Q466 84 474 74T495 64H524L511 8Q499 3 481 -1T439 -6Z" />
<glyph unicode="&#x12a;" glyph-name="Imacron" horiz-adv-x="310" d="M-29 64H21Q33 64 45 74T59 95L176 606Q178 615 174 624T158 634H102L118 700H395L380 634H330Q318 634 306 624T292 603L174 95Q171 84 175 74T191 64H249L234 0H-43L-29 64ZM159 836H412L395
764H142L159 836Z" />
<glyph unicode="&#x12b;" glyph-name="imacron" horiz-adv-x="261" d="M92 667H305L288 595H75L92 667ZM118 -6Q66 -6 48 24T41 102L115 421Q118 434 111 445T91 456H53L66 515Q78 519 99 524T153 529Q198 529 217 505T225 430L149 97Q146 84 153 74T174 64H204L192
8Q179 2 160 -2T118 -6Z" />
<glyph unicode="&#x12e;" glyph-name="Iogonek" horiz-adv-x="310" d="M-29 64H21Q33 64 45 74T59 95L176 606Q178 615 174 624T158 634H102L118 700H395L380 634H330Q318 634 306 624T292 603L174 95Q171 84 175 74T191 64H249L234 0H177Q151 -20 135 -37T118
-77Q118 -102 153 -102H184L173 -151Q161 -157 145 -161T111 -165Q71 -165 50 -147T29 -100Q29 -81 37 -66T57 -38T84 -16T114 0H-43L-29 64Z" />
<glyph unicode="&#x12f;" glyph-name="iogonek" horiz-adv-x="261" d="M105 -165Q65 -165 44 -147T23 -100Q23 -65 46 -42T97 -4Q57 1 44 30T41 102L115 421Q118 434 111 445T91 456H53L66 515Q78 519 99 524T153 529Q198 529 217 505T225 430L149 97Q146 84 153
74T174 64H204L192 8Q180 2 166 -6T140 -24T120 -48T112 -75Q112 -102 147 -102H178L167 -151Q155 -157 139 -161T105 -165ZM213 579Q187 579 171 596T155 638Q155 664 174 682T219 700Q245 700 262 683T279 642Q279 615 259 597T213 579Z" />
<glyph unicode="&#x130;" glyph-name="Idotaccent" horiz-adv-x="310" d="M-29 64H21Q33 64 45 74T59 95L176 606Q178 615 174 624T158 634H102L118 700H395L380 634H330Q318 634 306 624T292 603L174 95Q171 84 175 74T191 64H249L234 0H-43L-29 64ZM266 751Q240
751 224 768T208 810Q208 836 227 854T272 872Q298 872 315 855T332 814Q332 787 312 769T266 751Z" />
<glyph unicode="&#x131;" glyph-name="dotlessi" horiz-adv-x="261" d="M118 -6Q66 -6 48 24T41 102L115 421Q118 434 111 445T91 456H53L66 515Q78 519 99 524T153 529Q198 529 217 505T225 430L149 97Q146 84 153 74T174 64H204L192 8Q179 2 160 -2T118 -6Z" />
<glyph unicode="&#x134;" glyph-name="Jcircumflex" horiz-adv-x="462" d="M306 769L398 872H490L549 769L542 739H501L437 808L345 739H299L306 769ZM123 -7Q69 -7 29 4T-39 30L-20 112H43Q52 94 71 82T128 69Q176 69 201 93T237 169L336 603Q338 614 334 624T318
634H269L284 700H547L532 634H490Q478 634 467 624T452 603L352 165Q331 78 278 36T123 -7Z" />
<glyph unicode="&#x135;" glyph-name="jcircumflex" horiz-adv-x="251" d="M-39 -168Q-68 -168 -87 -163T-122 -153L-110 -102H-64Q-29 -102 -13 -85T11 -30L115 422Q118 436 111 446T91 456H53L66 515Q78 519 99 524T153 529Q198 529 217 505T225 430L119 -37Q103
-108 64 -138T-39 -168ZM325 597L417 700H509L568 597L561 567H520L456 636L364 567H318L325 597Z" />
<glyph unicode="&#x136;" glyph-name="Kcommaaccent" horiz-adv-x="674" d="M208 -165Q234 -162 248 -154T263 -131Q263 -124 259 -121T249 -112Q232 -100 232 -78Q232 -55 248 -41T288 -27Q312 -27 328 -42T345 -85Q345 -143 305 -174T197 -210L208 -165ZM-29
64H12Q25 64 37 74T51 95L167 603Q170 614 166 624T149 634H102L118 700H387L372 634H291L221 330L506 581Q532 604 529 619T503 634H488L503 700H739L724 634H704Q690 634 680 629T653 611L408 405L547 95Q553 82 561 73T583 64H613L599 0H428L441 57L320 334L198
231L159 64H241L227 0H-43L-29 64Z" />
<glyph unicode="&#x137;" glyph-name="kcommaaccent" horiz-adv-x="516" d="M127 91Q153 94 167 102T182 125Q182 132 178 135T168 144Q151 156 151 178Q151 201 167 215T207 229Q231 229 247 214T264 171Q264 113 224 82T116 46L127 91ZM407 -6Q387 -6 374 -1T352
15T335 38T321 68L254 231Q233 218 211 206T166 183L124 0H43Q31 0 25 8T22 32L154 606Q156 615 151 624T134 634H97L112 700H263Q285 700 278 673L186 270Q230 295 270 325T343 388T400 455T436 524H537L525 471Q491 425 443 379T337 289L422 96Q428 82 438 73T461
64H483L470 9Q460 4 445 -1T407 -6Z" />
<glyph unicode="&#x139;" glyph-name="Lacute" horiz-adv-x="564" d="M301 872H412L402 833L300 739H237L301 872ZM-29 64H12Q25 64 37 74T51 95L167 603Q170 614 166 624T149 634H102L118 700H407L392 634H291L160 70H411L459 216H537L488 0H-43L-29 64Z" />
<glyph unicode="&#x13a;" glyph-name="lacute" horiz-adv-x="265" d="M252 854H363L353 815L251 721H188L252 854ZM122 -6Q68 -6 50 24T43 102L159 606Q161 615 155 624T139 634H97L112 700H268Q289 700 283 673L150 97Q146 84 154 74T175 64H209L197 8Q183 3
164 -1T122 -6Z" />
<glyph unicode="&#x13b;" glyph-name="Lcommaaccent" horiz-adv-x="564" d="M145 91Q171 94 185 102T200 125Q200 132 196 135T186 144Q169 156 169 178Q169 201 185 215T225 229Q249 229 265 214T282 171Q282 113 242 82T134 46L145 91ZM-29 64H12Q25 64 37 74T51
95L167 603Q170 614 166 624T149 634H102L118 700H407L392 634H291L160 70H411L459 216H537L488 0H-43L-29 64Z" />
<glyph unicode="&#x13c;" glyph-name="lcommaaccent" horiz-adv-x="265" d="M248 91Q274 94 288 102T303 125Q303 132 299 135T289 144Q272 156 272 178Q272 201 288 215T328 229Q352 229 368 214T385 171Q385 113 345 82T237 46L248 91ZM122 -6Q68 -6 50 24T43
102L159 606Q161 615 155 624T139 634H97L112 700H268Q289 700 283 673L150 97Q146 84 154 74T175 64H209L197 8Q183 3 164 -1T122 -6Z" />
<glyph unicode="&#x13d;" glyph-name="Lcaron" horiz-adv-x="564" d="M481 700H568L560 661L493 556H434L481 700ZM-29 64H12Q25 64 37 74T51 95L167 603Q170 614 166 624T149 634H102L118 700H407L392 634H291L160 70H411L459 216H537L488 0H-43L-29 64Z" />
<glyph unicode="&#x13e;" glyph-name="lcaron" horiz-adv-x="265" d="M338 700H425L417 661L351 562H293L338 700ZM122 -6Q68 -6 50 24T43 102L159 606Q161 615 155 624T139 634H97L112 700H268Q289 700 283 673L150 97Q146 84 154 74T175 64H209L197 8Q183 3
164 -1T122 -6Z" />
<glyph unicode="&#x141;" glyph-name="Lslash" horiz-adv-x="564" d="M-29 64H12Q25 64 37 74T51 95L87 254L7 226L23 301L104 329L167 603Q170 614 166 624T149 634H102L118 700H407L392 634H291L230 372L448 448L431 373L213 297L160 70H411L459 216H537L488
0H-43L-29 64Z" />
<glyph unicode="&#x142;" glyph-name="lslash" horiz-adv-x="265" d="M122 -6Q68 -6 50 24T43 102L90 308L18 266L37 346L109 388L159 606Q161 615 155 624T139 634H97L112 700H268Q289 700 283 673L234 461L308 504L289 423L215 380L150 97Q146 84 154 74T175
64H209L197 8Q183 3 164 -1T122 -6Z" />
<glyph unicode="&#x143;" glyph-name="Nacute" horiz-adv-x="707" d="M485 872H596L586 833L484 739H421L485 872ZM-29 64H12Q25 64 37 74T51 95L167 603Q170 614 166 624T149 634H102L118 700H314L511 175H513L618 634H531L546 700H795L780 634H739Q727 634 715
624T701 603L563 0H462L251 562H248L133 64H223L209 0H-43L-29 64Z" />
<glyph unicode="&#x144;" glyph-name="nacute" horiz-adv-x="580" d="M366 700H477L467 661L365 567H302L366 700ZM439 -6Q388 -6 370 23T362 101L425 374Q441 445 383 445Q338 445 294 423T208 368L124 0H42Q31 0 25 8T22 32L112 421Q114 434 108 445T87 456H53L66
515Q78 519 98 524T149 529Q168 529 183 524T209 506T222 473T220 425Q241 445 266 464T320 497T379 521T441 530Q504 530 528 493T538 395L470 98Q466 84 474 74T495 64H523L511 8Q499 3 481 -1T439 -6Z" />
<glyph unicode="&#x145;" glyph-name="Ncommaaccent" horiz-adv-x="706" d="M224 -165Q250 -162 264 -154T279 -131Q279 -124 275 -121T265 -112Q248 -100 248 -78Q248 -55 264 -41T304 -27Q328 -27 344 -42T361 -85Q361 -143 321 -174T213 -210L224 -165ZM-29
64H12Q25 64 37 74T51 95L167 603Q170 614 166 624T149 634H102L118 700H314L511 175H513L618 634H531L546 700H795L780 634H739Q727 634 715 624T701 603L563 0H462L251 562H248L133 64H223L209 0H-43L-29 64Z" />
<glyph unicode="&#x146;" glyph-name="ncommaaccent" horiz-adv-x="580" d="M157 91Q183 94 197 102T212 125Q212 132 208 135T198 144Q181 156 181 178Q181 201 197 215T237 229Q261 229 277 214T294 171Q294 113 254 82T146 46L157 91ZM439 -6Q388 -6 370 23T362
101L425 374Q441 445 383 445Q338 445 294 423T208 368L124 0H42Q31 0 25 8T22 32L112 421Q114 434 108 445T87 456H53L66 515Q78 519 98 524T149 529Q168 529 183 524T209 506T222 473T220 425Q241 445 266 464T320 497T379 521T441 530Q504 530 528 493T538 395L470
98Q466 84 474 74T495 64H523L511 8Q499 3 481 -1T439 -6Z" />
<glyph unicode="&#x147;" glyph-name="Ncaron" horiz-adv-x="706" d="M601 842L509 739H417L358 842L365 872H406L470 803L562 872H608L601 842ZM-29 64H12Q25 64 37 74T51 95L167 603Q170 614 166 624T149 634H102L118 700H314L511 175H513L618 634H531L546 700H795L780
634H739Q727 634 715 624T701 603L563 0H462L251 562H248L133 64H223L209 0H-43L-29 64Z" />
<glyph unicode="&#x148;" glyph-name="ncaron" horiz-adv-x="580" d="M475 670L383 567H291L232 670L239 700H280L344 631L436 700H482L475 670ZM439 -6Q388 -6 370 23T362 101L425 374Q441 445 383 445Q338 445 294 423T208 368L124 0H42Q31 0 25 8T22 32L112
421Q114 434 108 445T87 456H53L66 515Q78 519 98 524T149 529Q168 529 183 524T209 506T222 473T220 425Q241 445 266 464T320 497T379 521T441 530Q504 530 528 493T538 395L470 98Q466 84 474 74T495 64H523L511 8Q499 3 481 -1T439 -6Z" />
<glyph unicode="&#x14c;" glyph-name="Omacron" horiz-adv-x="701" d="M342 859H595L578 787H325L342 859ZM324 -7Q259 -7 207 11T117 66T60 154T40 273Q40 366 70 445T152 583T272 674T419 707Q483 707 535 688T624 633T681 545T701 427Q701 331 671 251T590
114T470 25T324 -7ZM327 69Q384 69 430 97T510 174T562 288T581 429Q581 526 539 577T414 628Q358 628 311 601T231 525T179 411T160 269Q160 172 203 121T327 69Z" />
<glyph unicode="&#x14d;" glyph-name="omacron" horiz-adv-x="543" d="M221 667H474L457 595H204L221 667ZM237 -5Q132 -5 75 53T18 211Q18 281 41 340T103 441T196 506T308 530Q412 530 469 472T526 316Q526 245 504 187T443 85T351 19T237 -5ZM241 64Q282 64
314 85T369 143T404 226T416 324Q416 457 304 457Q264 457 232 436T176 380T141 298T128 199Q128 133 156 99T241 64Z" />
<glyph unicode="&#x150;" glyph-name="Ohungarumlaut" horiz-adv-x="701" d="M523 876H614L605 837L528 743H468L523 876ZM378 876H469L460 837L383 743H323L378 876ZM324 -7Q259 -7 207 11T117 66T60 154T40 273Q40 366 70 445T152 583T272 674T419 707Q483 707
535 688T624 633T681 545T701 427Q701 331 671 251T590 114T470 25T324 -7ZM327 69Q384 69 430 97T510 174T562 288T581 429Q581 526 539 577T414 628Q358 628 311 601T231 525T179 411T160 269Q160 172 203 121T327 69Z" />
<glyph unicode="&#x151;" glyph-name="ohungarumlaut" horiz-adv-x="543" d="M406 700H497L488 661L411 567H351L406 700ZM261 700H352L343 661L266 567H206L261 700ZM237 -5Q132 -5 75 53T18 211Q18 281 41 340T103 441T196 506T308 530Q412 530 469 472T526
316Q526 245 504 187T443 85T351 19T237 -5ZM241 64Q282 64 314 85T369 143T404 226T416 324Q416 457 304 457Q264 457 232 436T176 380T141 298T128 199Q128 133 156 99T241 64Z" />
<glyph unicode="&#x152;" glyph-name="OE" horiz-adv-x="952" d="M421 70L549 629H462Q388 629 332 604T237 531T180 417T160 265Q160 163 210 117T362 70H421ZM348 0Q200 0 120 68T40 274Q40 370 70 448T155 583T290 669T469 700H1015L972 514H899L912 629H666L611
392H737L765 475H835L781 240H712L723 323H595L536 70H801L843 198H918L873 0H348Z" />
<glyph unicode="&#x153;" glyph-name="oe" horiz-adv-x="875" d="M237 -5Q132 -5 75 53T18 211Q18 281 41 340T103 441T196 506T308 530Q377 530 421 500T487 418Q525 470 581 500T707 530Q782 530 828 497T874 400Q874 350 850 317T781 262T668 230T514 217Q513
189 516 162T530 112T562 77T618 63Q644 63 663 68T698 81T724 100T745 122H806L786 38Q760 23 719 9T612 -6Q544 -6 502 20T439 94Q403 47 352 21T237 -5ZM241 64Q282 64 314 85T369 143T404 226T416 324Q416 457 304 457Q264 457 232 436T176 380T141 298T128
199Q128 133 156 99T241 64ZM521 284Q649 289 708 313T768 395Q768 430 750 446T699 463Q662 463 633 449T581 410T544 353T521 284Z" />
<glyph unicode="&#x154;" glyph-name="Racute" horiz-adv-x="652" d="M404 872H515L505 833L403 739H340L404 872ZM-29 64H12Q25 64 37 74T51 95L167 603Q170 614 166 624T149 634H102L118 700H389Q495 700 556 659T618 540Q618 494 603 459T562 399T500 359T421
338V335Q446 329 464 320T495 294T516 251T529 184L541 90Q544 64 561 64H593L578 0H429L415 189Q412 225 406 247T388 283T354 301T300 306H215L159 64H249L234 0H-43L-29 64ZM326 375Q420 375 459 418T499 533Q499 581 470 605T376 630H290L231 375H326Z" />
<glyph unicode="&#x155;" glyph-name="racute" horiz-adv-x="373" d="M544 700H655L645 661L543 567H480L544 700ZM42 0Q31 0 25 8T22 32L112 421Q114 434 108 445T87 456H53L66 515Q78 520 98 524T148 529Q188 529 208 503T220 423Q236 444 254 463T293 496T337
519T386 528Q394 528 401 527T413 524L392 435H373Q316 435 277 414T206 359L124 0H42Z" />
<glyph unicode="&#x156;" glyph-name="Rcommaaccent" horiz-adv-x="652" d="M211 -165Q237 -162 251 -154T266 -131Q266 -124 262 -121T252 -112Q235 -100 235 -78Q235 -55 251 -41T291 -27Q315 -27 331 -42T348 -85Q348 -143 308 -174T200 -210L211 -165ZM-29
64H12Q25 64 37 74T51 95L167 603Q170 614 166 624T149 634H102L118 700H389Q495 700 556 659T618 540Q618 494 603 459T562 399T500 359T421 338V335Q446 329 464 320T495 294T516 251T529 184L541 90Q544 64 561 64H593L578 0H429L415 189Q412 225 406 247T388
283T354 301T300 306H215L159 64H249L234 0H-43L-29 64ZM326 375Q420 375 459 418T499 533Q499 581 470 605T376 630H290L231 375H326Z" />
<glyph unicode="&#x157;" glyph-name="rcommaaccent" horiz-adv-x="373" d="M230 91Q256 94 270 102T285 125Q285 132 281 135T271 144Q254 156 254 178Q254 201 270 215T310 229Q334 229 350 214T367 171Q367 113 327 82T219 46L230 91ZM42 0Q31 0 25 8T22 32L112
421Q114 434 108 445T87 456H53L66 515Q78 520 98 524T148 529Q188 529 208 503T220 423Q236 444 254 463T293 496T337 519T386 528Q394 528 401 527T413 524L392 435H373Q316 435 277 414T206 359L124 0H42Z" />
<glyph unicode="&#x158;" glyph-name="Rcaron" horiz-adv-x="652" d="M517 842L425 739H333L274 842L281 872H322L386 803L478 872H524L517 842ZM-29 64H12Q25 64 37 74T51 95L167 603Q170 614 166 624T149 634H102L118 700H389Q495 700 556 659T618 540Q618 494
603 459T562 399T500 359T421 338V335Q446 329 464 320T495 294T516 251T529 184L541 90Q544 64 561 64H593L578 0H429L415 189Q412 225 406 247T388 283T354 301T300 306H215L159 64H249L234 0H-43L-29 64ZM326 375Q420 375 459 418T499 533Q499 581 470 605T376
630H290L231 375H326Z" />
<glyph unicode="&#x159;" glyph-name="rcaron" horiz-adv-x="373" d="M657 670L565 567H473L414 670L421 700H462L526 631L618 700H664L657 670ZM42 0Q31 0 25 8T22 32L112 421Q114 434 108 445T87 456H53L66 515Q78 520 98 524T148 529Q188 529 208 503T220 423Q236
444 254 463T293 496T337 519T386 528Q394 528 401 527T413 524L392 435H373Q316 435 277 414T206 359L124 0H42Z" />
<glyph unicode="&#x15a;" glyph-name="Sacute" horiz-adv-x="516" d="M391 879H502L492 840L390 746H327L391 879ZM218 -7Q154 -7 119 4T64 26Q54 26 48 0H-29L18 204H97L85 109Q102 95 133 81T219 66Q289 66 331 98T373 200Q373 225 364 242T338 272T299 294T252
313Q211 330 182 347T133 387T105 436T95 502Q95 547 109 584T153 649T226 691T328 707Q382 707 414 697T465 676Q470 676 475 682T482 700H556L513 515H436L443 594Q426 611 398 622T323 633Q261 633 228 604T195 520Q195 480 219 458T288 418Q331 400 366 384T426
345T464 291T478 213Q478 165 462 125T414 56T332 10T218 -7Z" />
<glyph unicode="&#x15b;" glyph-name="sacute" horiz-adv-x="413" d="M303 701H414L404 662L302 568H239L303 701ZM157 -5Q83 -5 42 7T-25 35L-3 134H61Q63 94 84 77T155 60Q208 60 236 84T265 146Q265 163 257 174T236 194T203 210T163 227Q139 237 120 249T86
276T65 312T57 362Q57 442 112 485T259 529Q291 529 315 526T358 519T392 508T421 494L399 397H339Q336 430 312 444T249 458Q198 458 175 436T151 384Q151 352 176 338T243 306Q269 295 291 284T330 256T356 218T365 165Q365 87 310 41T157 -5Z" />
<glyph unicode="&#x15c;" glyph-name="Scircumflex" horiz-adv-x="516" d="M249 776L341 879H433L492 776L485 746H444L380 815L288 746H242L249 776ZM218 -7Q154 -7 119 4T64 26Q54 26 48 0H-29L18 204H97L85 109Q102 95 133 81T219 66Q289 66 331 98T373 200Q373
225 364 242T338 272T299 294T252 313Q211 330 182 347T133 387T105 436T95 502Q95 547 109 584T153 649T226 691T328 707Q382 707 414 697T465 676Q470 676 475 682T482 700H556L513 515H436L443 594Q426 611 398 622T323 633Q261 633 228 604T195 520Q195 480
219 458T288 418Q331 400 366 384T426 345T464 291T478 213Q478 165 462 125T414 56T332 10T218 -7Z" />
<glyph unicode="&#x15d;" glyph-name="scircumflex" horiz-adv-x="413" d="M162 598L254 701H346L405 598L398 568H357L293 637L201 568H155L162 598ZM157 -5Q83 -5 42 7T-25 35L-3 134H61Q63 94 84 77T155 60Q208 60 236 84T265 146Q265 163 257 174T236 194T203
210T163 227Q139 237 120 249T86 276T65 312T57 362Q57 442 112 485T259 529Q291 529 315 526T358 519T392 508T421 494L399 397H339Q336 430 312 444T249 458Q198 458 175 436T151 384Q151 352 176 338T243 306Q269 295 291 284T330 256T356 218T365 165Q365 87
310 41T157 -5Z" />
<glyph unicode="&#x15e;" glyph-name="Scedilla" horiz-adv-x="516" d="M174 -175Q144 -175 126 -170T95 -157L106 -110H136Q140 -116 149 -121T173 -126Q212 -126 212 -97Q212 -86 203 -79T172 -71H156L171 -5Q129 -1 104 8T64 26Q54 26 48 0H-29L18 204H97L85
109Q102 95 133 81T219 66Q289 66 331 98T373 200Q373 225 364 242T338 272T299 294T252 313Q211 330 182 347T133 387T105 436T95 502Q95 547 109 584T153 649T226 691T328 707Q382 707 414 697T465 676Q470 676 475 682T482 700H556L513 515H436L443 594Q426
611 398 622T323 633Q261 633 228 604T195 520Q195 480 219 458T288 418Q331 400 366 384T426 345T464 291T478 213Q478 165 462 125T414 56T334 10T221 -7L215 -32Q248 -34 265 -51T283 -95Q283 -133 254 -154T174 -175Z" />
<glyph unicode="&#x15f;" glyph-name="scedilla" horiz-adv-x="413" d="M111 -175Q81 -175 63 -170T32 -157L43 -110H73Q77 -116 86 -121T110 -126Q149 -126 149 -97Q149 -86 140 -79T109 -71H93L108 -3Q57 1 27 11T-25 35L-3 134H61Q63 94 84 77T155 60Q208 60
236 84T265 146Q265 163 257 174T236 194T203 210T163 227Q139 237 120 249T86 276T65 312T57 362Q57 442 112 485T259 529Q291 529 315 526T358 519T392 508T421 494L399 397H339Q336 430 312 444T249 458Q198 458 175 436T151 384Q151 352 176 338T243 306Q269
295 291 284T330 256T356 218T365 165Q365 87 310 42T158 -5L152 -32Q185 -34 202 -51T220 -95Q220 -133 191 -154T111 -175Z" />
<glyph unicode="&#x160;" glyph-name="Scaron" horiz-adv-x="516" d="M504 849L412 746H320L261 849L268 879H309L373 810L465 879H511L504 849ZM218 -7Q154 -7 119 4T64 26Q54 26 48 0H-29L18 204H97L85 109Q102 95 133 81T219 66Q289 66 331 98T373 200Q373
225 364 242T338 272T299 294T252 313Q211 330 182 347T133 387T105 436T95 502Q95 547 109 584T153 649T226 691T328 707Q382 707 414 697T465 676Q470 676 475 682T482 700H556L513 515H436L443 594Q426 611 398 622T323 633Q261 633 228 604T195 520Q195 480
219 458T288 418Q331 400 366 384T426 345T464 291T478 213Q478 165 462 125T414 56T332 10T218 -7Z" />
<glyph unicode="&#x161;" glyph-name="scaron" horiz-adv-x="413" d="M418 671L326 568H234L175 671L182 701H223L287 632L379 701H425L418 671ZM157 -5Q83 -5 42 7T-25 35L-3 134H61Q63 94 84 77T155 60Q208 60 236 84T265 146Q265 163 257 174T236 194T203 210T163
227Q139 237 120 249T86 276T65 312T57 362Q57 442 112 485T259 529Q291 529 315 526T358 519T392 508T421 494L399 397H339Q336 430 312 444T249 458Q198 458 175 436T151 384Q151 352 176 338T243 306Q269 295 291 284T330 256T356 218T365 165Q365 87 310 41T157
-5Z" />
<glyph unicode="&#x162;" glyph-name="Tcommaaccent" horiz-adv-x="624" d="M155 91Q181 94 195 102T210 125Q210 132 206 135T196 144Q179 156 179 178Q179 201 195 215T235 229Q259 229 275 214T292 171Q292 113 252 82T144 46L155 91ZM131 64H179Q191 64 203
74T217 95L340 631H196L151 483H75L124 700H704L653 483H578L601 631H455L333 95Q330 84 335 74T352 64H404L389 0H117L131 64Z" />
<glyph unicode="&#x163;" glyph-name="tcommaaccent" horiz-adv-x="313" d="M272 91Q298 94 312 102T327 125Q327 132 323 135T313 144Q296 156 296 178Q296 201 312 215T352 229Q376 229 392 214T409 171Q409 113 369 82T261 46L272 91ZM165 -7Q87 -7 59 35T48
149L119 456H56L71 524H134L167 665H275L242 524H351L336 456H226L156 148Q146 107 157 86T209 64H257L244 7Q227 1 209 -3T165 -7Z" />
<glyph unicode="&#x164;" glyph-name="Tcaron" horiz-adv-x="624" d="M552 842L460 739H368L309 842L316 872H357L421 803L513 872H559L552 842ZM131 64H179Q191 64 203 74T217 95L340 631H196L151 483H75L124 700H704L653 483H578L601 631H455L333 95Q330 84
335 74T352 64H404L389 0H117L131 64Z" />
<glyph unicode="&#x165;" glyph-name="tcaron" horiz-adv-x="313" d="M332 700H419L411 661L345 562H287L332 700ZM165 -7Q87 -7 59 35T48 149L119 456H56L71 524H134L167 665H275L242 524H351L336 456H226L156 148Q146 107 157 86T209 64H257L244 7Q227 1 209
-3T165 -7Z" />
<glyph unicode="&#x16a;" glyph-name="Umacron" horiz-adv-x="707" d="M328 -7Q260 -7 209 10T125 60T83 143T88 258L166 602Q169 613 165 623T148 634H103L118 700H393L378 634H290L201 245Q190 195 196 162T222 109T270 81T335 73Q376 73 407 81T462 110T502
162T529 243L618 634H534L549 700H794L778 634H738Q726 634 714 624T700 602L615 234Q601 173 578 128T521 52T439 8T328 -7ZM367 836H620L603 764H350L367 836Z" />
<glyph unicode="&#x16b;" glyph-name="umacron" horiz-adv-x="576" d="M153 -7Q86 -7 58 35T46 147L109 421Q112 434 106 445T85 456H53L66 515Q78 520 99 524T148 529Q196 529 212 499T217 420L156 153Q148 115 160 94T205 72Q245 72 285 93T365 146L452 524H534Q545
524 551 515T553 491L463 98Q460 84 467 74T487 64H519L507 8Q493 2 475 -2T433 -6Q390 -6 369 16T355 87Q313 47 262 20T153 -7ZM239 668H492L475 596H222L239 668Z" />
<glyph unicode="&#x16c;" glyph-name="Ubreve" horiz-adv-x="707" d="M328 -7Q260 -7 209 10T125 60T83 143T88 258L166 602Q169 613 165 623T148 634H103L118 700H393L378 634H290L201 245Q190 195 196 162T222 109T270 81T335 73Q376 73 407 81T462 110T502
162T529 243L618 634H534L549 700H794L778 634H738Q726 634 714 624T700 602L615 234Q601 173 578 128T521 52T439 8T328 -7ZM461 740Q433 740 412 748T377 768T354 797T342 832L350 866H408Q409 840 424 826T466 812Q521 812 537 866H603L593 824Q586 809 575
794T548 767T510 748T461 740Z" />
<glyph unicode="&#x16d;" glyph-name="ubreve" horiz-adv-x="576" d="M153 -7Q86 -7 58 35T46 147L109 421Q112 434 106 445T85 456H53L66 515Q78 520 99 524T148 529Q196 529 212 499T217 420L156 153Q148 115 160 94T205 72Q245 72 285 93T365 146L452 524H534Q545
524 551 515T553 491L463 98Q460 84 467 74T487 64H519L507 8Q493 2 475 -2T433 -6Q390 -6 369 16T355 87Q313 47 262 20T153 -7ZM337 569Q309 569 288 577T253 597T230 626T218 661L226 695H284Q285 669 300 655T342 641Q397 641 413 695H479L469 653Q462 638
451 623T424 596T386 577T337 569Z" />
<glyph unicode="&#x16e;" glyph-name="Uring" horiz-adv-x="707" d="M472 721Q431 721 404 745T376 812Q376 836 384 854T407 886T441 906T480 913Q520 913 547 888T575 822Q575 798 567 779T544 748T511 728T472 721ZM473 764Q495 764 510 779T526 820Q526 843
513 856T478 870Q455 870 440 855T425 812Q425 790 437 777T473 764ZM328 -7Q260 -7 209 10T125 60T83 143T88 258L166 602Q169 613 165 623T148 634H103L118 700H393L378 634H290L201 245Q190 195 196 162T222 109T270 81T335 73Q376 73 407 81T462 110T502 162T529
243L618 634H534L549 700H794L778 634H738Q726 634 714 624T700 602L615 234Q601 173 578 128T521 52T439 8T328 -7Z" />
<glyph unicode="&#x16f;" glyph-name="uring" horiz-adv-x="576" d="M348 570Q307 570 280 594T252 661Q252 685 260 703T283 735T317 755T356 762Q396 762 423 737T451 671Q451 647 443 628T420 597T387 577T348 570ZM349 613Q371 613 386 628T402 669Q402 692
389 705T354 719Q331 719 316 704T301 661Q301 639 313 626T349 613ZM153 -7Q86 -7 58 35T46 147L109 421Q112 434 106 445T85 456H53L66 515Q78 520 99 524T148 529Q196 529 212 499T217 420L156 153Q148 115 160 94T205 72Q245 72 285 93T365 146L452 524H534Q545
524 551 515T553 491L463 98Q460 84 467 74T487 64H519L507 8Q493 2 475 -2T433 -6Q390 -6 369 16T355 87Q313 47 262 20T153 -7Z" />
<glyph unicode="&#x170;" glyph-name="Uhungarumlaut" horiz-adv-x="707" d="M328 -7Q260 -7 209 10T125 60T83 143T88 258L166 602Q169 613 165 623T148 634H103L118 700H393L378 634H290L201 245Q190 195 196 162T222 109T270 81T335 73Q376 73 407 81T462 110T502
162T529 243L618 634H534L549 700H794L778 634H738Q726 634 714 624T700 602L615 234Q601 173 578 128T521 52T439 8T328 -7ZM553 872H644L635 833L558 739H498L553 872ZM408 872H499L490 833L413 739H353L408 872Z" />
<glyph unicode="&#x171;" glyph-name="uhungarumlaut" horiz-adv-x="576" d="M153 -7Q86 -7 58 35T46 147L109 421Q112 434 106 445T85 456H53L66 515Q78 520 99 524T148 529Q196 529 212 499T217 420L156 153Q148 115 160 94T205 72Q245 72 285 93T365 146L452
524H534Q545 524 551 515T553 491L463 98Q460 84 467 74T487 64H519L507 8Q493 2 475 -2T433 -6Q390 -6 369 16T355 87Q313 47 262 20T153 -7ZM430 701H521L512 662L435 568H375L430 701ZM285 701H376L367 662L290 568H230L285 701Z" />
<glyph unicode="&#x172;" glyph-name="Uogonek" horiz-adv-x="707" d="M332 -165Q292 -165 271 -147T250 -100Q250 -66 271 -44T320 -7Q254 -6 204 11T123 62T83 144T88 258L166 602Q169 613 165 623T148 634H103L118 700H393L378 634H290L201 245Q190 195 196
162T222 109T270 81T335 73Q376 73 407 81T462 110T502 162T529 243L618 634H534L549 700H794L778 634H738Q726 634 714 624T700 602L615 234Q594 145 555 91T449 11Q426 2 406 -7T371 -26T348 -48T339 -77Q339 -102 374 -102H405L394 -151Q382 -157 366 -161T332
-165Z" />
<glyph unicode="&#x173;" glyph-name="uogonek" horiz-adv-x="576" d="M153 -7Q86 -7 58 35T46 147L109 421Q112 434 106 445T85 456H53L66 515Q78 520 99 524T148 529Q196 529 212 499T217 420L156 153Q148 115 160 94T205 72Q245 72 285 93T365 146L452 524H534Q545
524 551 515T553 491L463 98Q460 84 467 74T487 64H519L507 8Q474 -6 449 -28T424 -77Q424 -102 459 -102H490L479 -151Q467 -157 451 -161T417 -165Q377 -165 356 -147T335 -100Q335 -65 358 -42T410 -4Q378 2 363 24T355 87Q313 47 262 20T153 -7Z" />
<glyph unicode="&#x178;" glyph-name="Ydieresis" horiz-adv-x="647" d="M148 64H196Q208 64 220 74T234 95L280 298L157 605Q152 618 145 626T124 634H101L117 700H368L353 634H267L368 367H370L528 569Q554 601 547 617T510 634H477L492 700H734L719 634H701Q674
634 649 604L393 287L350 95Q348 84 352 74T369 64H421L407 0H134L148 64ZM365 752Q340 752 325 768T309 807Q309 833 327 850T371 867Q396 867 411 851T427 811Q427 785 408 769T365 752ZM536 752Q512 752 497 768T481 807Q481 833 499 850T542 867Q567 867 582
851T598 811Q598 785 579 769T536 752Z" />
<glyph unicode="&#x179;" glyph-name="Zacute" horiz-adv-x="543" d="M410 872H521L511 833L409 739H346L410 872ZM-26 77L472 626V629H207L167 515H93L136 700H620L601 620L103 73V70H388L429 196H507L462 0H-44L-26 77Z" />
<glyph unicode="&#x17a;" glyph-name="zacute" horiz-adv-x="467" d="M331 700H442L432 661L330 567H267L331 700ZM-27 73L367 453H157L125 360H59L96 524H509L492 449L98 70H318L348 163H416L379 0H-44L-27 73Z" />
<glyph unicode="&#x17b;" glyph-name="Zdotaccent" horiz-adv-x="543" d="M-26 77L472 626V629H207L167 515H93L136 700H620L601 620L103 73V70H388L429 196H507L462 0H-44L-26 77ZM382 751Q356 751 340 768T324 810Q324 836 343 854T388 872Q414 872 431 855T448
814Q448 787 428 769T382 751Z" />
<glyph unicode="&#x17c;" glyph-name="zdotaccent" horiz-adv-x="467" d="M-27 73L367 453H157L125 360H59L96 524H509L492 449L98 70H318L348 163H416L379 0H-44L-27 73ZM303 579Q277 579 261 596T245 638Q245 664 264 682T309 700Q335 700 352 683T369 642Q369
615 349 597T303 579Z" />
<glyph unicode="&#x17d;" glyph-name="Zcaron" horiz-adv-x="543" d="M519 842L427 739H335L276 842L283 872H324L388 803L480 872H526L519 842ZM-26 77L472 626V629H207L167 515H93L136 700H620L601 620L103 73V70H388L429 196H507L462 0H-44L-26 77Z" />
<glyph unicode="&#x17e;" glyph-name="zcaron" horiz-adv-x="467" d="M443 670L351 567H259L200 670L207 700H248L312 631L404 700H450L443 670ZM-27 73L367 453H157L125 360H59L96 524H509L492 449L98 70H318L348 163H416L379 0H-44L-27 73Z" />
<glyph unicode="&#x192;" glyph-name="florin" horiz-adv-x="352" d="M139 437L170 570Q187 644 234 676T347 708Q377 708 396 704T427 694L414 634H368Q335 634 314 620T284 566L254 437H357L340 363H236L163 47Q150 -9 117 -43T31 -95H-29L-15 -32Q8 -24 25
-6T52 54L122 363H58L75 437H139Z" />
<glyph unicode="&#x218;" glyph-name="Scommaaccent" horiz-adv-x="516" d="M111 -163Q137 -160 151 -152T166 -129Q166 -122 162 -119T152 -110Q135 -98 135 -76Q135 -53 151 -39T191 -25Q215 -25 231 -40T248 -83Q248 -141 208 -172T100 -208L111 -163ZM218
-7Q154 -7 119 4T64 26Q54 26 48 0H-29L18 204H97L85 109Q102 95 133 81T219 66Q289 66 331 98T373 200Q373 225 364 242T338 272T299 294T252 313Q211 330 182 347T133 387T105 436T95 502Q95 547 109 584T153 649T226 691T328 707Q382 707 414 697T465 676Q470
676 475 682T482 700H556L513 515H436L443 594Q426 611 398 622T323 633Q261 633 228 604T195 520Q195 480 219 458T288 418Q331 400 366 384T426 345T464 291T478 213Q478 165 462 125T414 56T332 10T218 -7Z" />
<glyph unicode="&#x219;" glyph-name="scommaaccent" horiz-adv-x="413" d="M311 -163Q337 -160 351 -152T366 -129Q366 -122 362 -119T352 -110Q335 -98 335 -76Q335 -53 351 -39T391 -25Q415 -25 431 -40T448 -83Q448 -141 408 -172T300 -208L311 -163ZM157
-5Q83 -5 42 7T-25 35L-3 134H61Q63 94 84 77T155 60Q208 60 236 84T265 146Q265 163 257 174T236 194T203 210T163 227Q139 237 120 249T86 276T65 312T57 362Q57 442 112 485T259 529Q291 529 315 526T358 519T392 508T421 494L399 397H339Q336 430 312 444T249
458Q198 458 175 436T151 384Q151 352 176 338T243 306Q269 295 291 284T330 256T356 218T365 165Q365 87 310 41T157 -5Z" />
<glyph unicode="&#x21a;" glyph-name="uni021A" horiz-adv-x="624" d="M155 91Q181 94 195 102T210 125Q210 132 206 135T196 144Q179 156 179 178Q179 201 195 215T235 229Q259 229 275 214T292 171Q292 113 252 82T144 46L155 91ZM131 64H179Q191 64 203 74T217
95L340 631H196L151 483H75L124 700H704L653 483H578L601 631H455L333 95Q330 84 335 74T352 64H404L389 0H117L131 64Z" />
<glyph unicode="&#x21b;" glyph-name="uni021B" horiz-adv-x="313" d="M272 91Q298 94 312 102T327 125Q327 132 323 135T313 144Q296 156 296 178Q296 201 312 215T352 229Q376 229 392 214T409 171Q409 113 369 82T261 46L272 91ZM165 -7Q87 -7 59 35T48 149L119
456H56L71 524H134L167 665H275L242 524H351L336 456H226L156 148Q146 107 157 86T209 64H257L244 7Q227 1 209 -3T165 -7Z" />
<glyph unicode="&#x237;" glyph-name="uni0237" horiz-adv-x="251" d="M-39 -168Q-68 -168 -87 -163T-122 -153L-110 -102H-64Q-29 -102 -13 -85T11 -30L115 422Q118 436 111 446T91 456H53L66 515Q78 519 99 524T153 529Q198 529 217 505T225 430L119 -37Q103
-108 64 -138T-39 -168Z" />
<glyph unicode="&#x2c6;" glyph-name="circumflex" horiz-adv-x="406" d="M159 597L251 700H343L402 597L395 567H354L290 636L198 567H152L159 597Z" />
<glyph unicode="&#x2c7;" glyph-name="caron" horiz-adv-x="406" d="M418 670L326 567H234L175 670L182 700H223L287 631L379 700H425L418 670Z" />
<glyph unicode="&#x2d8;" glyph-name="breve" horiz-adv-x="406" d="M288 568Q260 568 239 576T204 596T181 625T169 660L177 694H235Q236 668 251 654T293 640Q348 640 364 694H430L420 652Q413 637 402 622T375 595T337 576T288 568Z" />
<glyph unicode="&#x2d9;" glyph-name="dotaccent" horiz-adv-x="406" d="M287 579Q261 579 245 596T229 638Q229 664 248 682T293 700Q319 700 336 683T353 642Q353 615 333 597T287 579Z" />
<glyph unicode="&#x2da;" glyph-name="ring" horiz-adv-x="406" d="M293 569Q252 569 225 593T197 660Q197 684 205 702T228 734T262 754T301 761Q341 761 368 736T396 670Q396 646 388 627T365 596T332 576T293 569ZM294 612Q316 612 331 627T347 668Q347 691
334 704T299 718Q276 718 261 703T246 660Q246 638 258 625T294 612Z" />
<glyph unicode="&#x2db;" glyph-name="ogonek" horiz-adv-x="406" d="M139 -165Q99 -165 78 -147T57 -100Q57 -81 65 -66T85 -38T112 -16T142 0H205Q179 -20 163 -37T146 -77Q146 -102 181 -102H212L201 -151Q189 -157 173 -161T139 -165Z" />
<glyph unicode="&#x2dc;" glyph-name="tilde" horiz-adv-x="406" d="M132 628Q145 651 167 668T225 686Q243 686 261 681T297 670T329 659T356 654Q373 654 384 664T403 690H458L445 634Q432 611 410 594T351 576Q333 576 315 581T280 593T247 605T221 611Q204
611 193 601T175 573H120L132 628Z" />
<glyph unicode="&#x2dd;" glyph-name="hungarumlaut" horiz-adv-x="406" d="M360 700H451L442 661L365 567H305L360 700ZM215 700H306L297 661L220 567H160L215 700Z" />
</font>
</defs>
</svg>
