<?xml version="1.0" standalone="no"?> <!DOCTYPE svg PUBLIC "-//W3C//DTD SVG 1.0//EN" "http://www.w3.org/TR/2001/REC-SVG-20010904/DTD/svg10.dtd" > <svg xmlns="http://www.w3.org/2000/svg" width="100%" height="100%">
<defs >
<font horiz-adv-x="503" ><font-face
    font-family=""
    units-per-em="1000"
    panose-1="2 11 5 3 4 0 0 2 0 4"
    ascent="838"
    descent="-162"
    alphabetic="0" />
<missing-glyph horiz-adv-x="182" />
<glyph unicode=" " glyph-name="space" horiz-adv-x="182" />
<glyph unicode="!" glyph-name="exclam" horiz-adv-x="260" d="M129 175Q115 175 105 184T93 212Q89 309 85 395Q83 431 82 469T80 541T78 604T77 651Q77 676 90 690T129 704H132Q157 704 170 690T184 651Q184 633 183 604T181 541T178 469T175 395Q171 309 167
212Q166 193 156 184T131 175H129ZM191 55Q191 29 174 12T130 -5Q104 -5 87 12T69 55Q69 80 86 98T130 116Q156 116 173 98T191 55Z" />
<glyph unicode="&quot;" glyph-name="quotedbl" horiz-adv-x="297" d="M75 495Q63 495 54 503T42 529Q38 556 35 582Q32 604 30 626T28 662Q28 701 66 701H87Q124 701 124 662Q124 648 122 626T117 582Q114 556 111 529Q105 495 77 495H75ZM220 495Q208 495 198
503T186 529Q182 556 179 582Q177 604 175 626T173 662Q173 701 211 701H231Q269 701 269 662Q269 648 267 626T262 582Q258 556 255 529Q253 511 244 503T222 495H220Z" />
<glyph unicode="#" glyph-name="numbersign" horiz-adv-x="507" d="M205 420L189 305H302L319 420H205ZM335 34Q330 -4 299 -4H297Q280 -4 270 6T263 40L290 225H177L149 34Q144 -4 113 -4H111Q94 -4 84 6T77 40L104 225H60Q38 225 30 236T21 265V267Q21 283 29
294T60 305H116L133 420H89Q67 420 59 431T50 459V461Q50 477 58 488T89 500H144L168 666Q174 704 204 704H207Q223 704 233 694T240 660L216 500H329L354 666Q360 704 390 704H393Q409 704 419 694T426 660L402 500H447Q468 500 476 489T485 461V459Q485 443 477
432T447 420H391L374 305H419Q440 305 448 294T457 267V265Q457 248 449 237T419 225H363L335 34Z" />
<glyph unicode="$" glyph-name="dollar" horiz-adv-x="523" d="M219 -5Q118 0 64 35Q27 59 27 92V93Q27 110 37 122T69 135Q83 135 93 126T119 105T157 83T219 69V322Q174 335 139 351T79 390T42 442T29 515Q29 597 81 646T225 704V737Q225 754 234 761T257 769H259Q273
769 282 762T291 737V705Q369 701 417 674Q437 663 447 650T458 616V614Q458 597 447 587T420 576Q406 576 396 583T373 600T341 619T291 631V399Q342 385 380 369T444 331T481 276T494 199Q494 105 439 55T286 -4V-74Q286 -91 277 -98T254 -106H252Q238 -106 229
-99T219 -74V-5ZM400 188Q400 215 393 233T371 264T335 286T286 303V71Q342 79 371 108T400 188ZM119 524Q119 501 125 485T145 456T179 435T225 417V630Q171 622 145 594T119 524Z" />
<glyph unicode="%" glyph-name="percent" horiz-adv-x="779" d="M197 -11Q187 -26 179 -32T161 -38H159Q139 -38 131 -21T136 18L581 706Q590 721 598 727T617 733H618Q638 733 647 716T642 677L197 -11ZM356 527Q356 481 343 447T307 391T254 357T192 345Q159
345 130 356T77 390T41 447T27 527Q27 572 40 606T77 662T129 695T192 706Q224 706 254 695T306 662T342 606T356 527ZM112 525Q112 466 134 437T192 407Q227 407 249 436T272 525Q272 585 250 614T192 644Q156 644 134 615T112 525ZM752 176Q752 130 739 96T703
40T650 6T588 -6Q555 -6 525 5T473 39T437 96T423 176Q423 221 436 255T472 311T525 344T588 355Q620 355 650 344T702 311T738 255T752 176ZM507 174Q507 115 529 86T588 56Q623 56 645 85T668 174Q668 234 646 263T588 293Q552 293 530 264T507 174Z" />
<glyph unicode="&amp;" glyph-name="ampersand" horiz-adv-x="665" d="M572 -5Q555 -5 543 2T511 31L473 73Q436 37 386 16T272 -6Q212 -6 167 9T92 51T46 115T30 198Q30 237 42 268T76 325T125 368T184 400Q164 427 152 458T139 532Q139 571 153 603T193 658T257
693T343 706Q376 706 405 700T457 682Q496 662 496 628V626Q496 609 485 598T457 587Q444 587 435 593T414 606T386 620T344 627Q296 627 268 602T240 531Q240 499 256 472T306 407L476 215Q492 248 504 286T525 365Q530 388 540 399T569 411H572Q623 411 612 356Q601
302 580 248T533 151L605 71Q616 59 617 46T614 21T599 2T575 -5H572ZM136 206Q136 179 144 155T171 112T219 82T288 71Q332 71 364 86T422 129L228 348Q188 327 162 295T136 206Z" />
<glyph unicode="&apos;" glyph-name="quotesingle" horiz-adv-x="153" d="M75 495Q63 495 54 503T42 529Q38 556 35 582Q32 604 30 626T28 662Q28 701 66 701H87Q124 701 124 662Q124 648 122 626T117 582Q114 556 111 529Q105 495 77 495H75Z" />
<glyph unicode="(" glyph-name="parenleft" horiz-adv-x="310" d="M297 -15Q297 -31 288 -41T260 -51Q237 -51 210 -33Q175 -11 143 22T86 103T46 211T31 349Q31 424 45 483T85 589T142 669T209 725Q237 743 260 743Q278 743 287 733T297 707Q297 693 286 682T260
657Q242 639 220 617T177 559T143 473T129 349Q129 274 142 222T176 135T219 76T260 35Q275 21 286 10T297 -15Z" />
<glyph unicode=")" glyph-name="parenright" horiz-adv-x="310" d="M279 349Q279 272 264 211T225 103T168 23T100 -33Q73 -51 50 -51Q32 -51 23 -41T13 -15Q13 -1 24 10T50 35Q68 53 90 76T133 134T167 222T181 349Q181 422 168 473T134 559T91 616T50 657Q35
671 24 682T13 707Q13 723 22 733T50 743Q72 743 101 725Q136 703 168 670T225 590T264 484T279 349Z" />
<glyph unicode="*" glyph-name="asterisk" horiz-adv-x="374" d="M151 526Q127 526 100 530T56 539Q37 545 31 558T30 586L32 591Q44 623 80 612Q97 606 121 594T165 567Q158 590 154 618T149 665Q149 682 158 693T185 704H190Q207 704 216 693T226 665Q226 646
222 618T210 567Q231 581 254 593T295 612Q312 617 325 612T343 590L344 587Q355 551 319 539Q302 534 276 530T224 525Q243 511 263 492T295 458Q305 444 304 430T289 406L285 403Q256 381 232 413Q221 428 210 451T188 500Q177 474 166 451T143 413Q119 381 90
403L86 406Q72 416 71 430T80 458Q91 473 111 492T151 526Z" />
<glyph unicode="+" glyph-name="plus" horiz-adv-x="505" d="M476 345Q476 328 467 317T437 305H297V155Q297 132 285 123T255 113H253Q236 113 223 122T210 155V305H69Q47 305 38 316T29 345V347Q29 363 38 374T69 386H210V536Q210 559 223 568T253 578H255Q272
578 284 569T297 536V386H437Q458 386 467 375T476 347V345Z" />
<glyph unicode="," glyph-name="comma" horiz-adv-x="189" d="M24 -70Q24 -59 29 -54T49 -42Q68 -35 74 -27T81 -10Q81 -2 76 3T59 16Q47 24 40 34T33 62Q33 85 49 100T92 116Q118 116 137 98T157 40Q157 -17 131 -50T56 -91Q24 -96 24 -71V-70Z" />
<glyph unicode="-" glyph-name="hyphen" horiz-adv-x="270" d="M69 256Q50 256 39 268T28 297V299Q28 316 39 327T69 339H201Q220 339 231 328T242 299V297Q242 280 231 268T201 256H69Z" />
<glyph unicode="." glyph-name="period" horiz-adv-x="189" d="M156 55Q156 29 138 12T94 -5Q68 -5 51 12T33 55Q33 80 50 98T94 116Q120 116 138 98T156 55Z" />
<glyph unicode="/" glyph-name="slash" horiz-adv-x="333" d="M232 704Q244 745 274 745H276Q299 745 309 729T312 686L97 -12Q85 -53 55 -53H53Q30 -53 20 -37T18 6L232 704Z" />
<glyph unicode="0" glyph-name="zero" horiz-adv-x="658" d="M329 -6Q270 -6 217 15T124 81T60 192T36 350Q36 440 59 507T123 618T217 684T329 706Q387 706 440 684T534 618T598 507T622 350Q622 259 598 192T534 81T441 16T329 -6ZM329 71Q370 71 404 87T462
136T499 222T513 348Q513 421 500 474T462 561T404 612T329 628Q287 628 253 612T195 562T158 474T144 348Q144 275 157 223T195 137T253 87T329 71Z" />
<glyph unicode="1" glyph-name="one" horiz-adv-x="342" d="M251 48Q251 22 236 9T198 -4H196Q175 -4 160 9T144 48V585L82 548Q66 538 58 534T40 530Q28 530 21 539T14 563V576Q14 593 22 602T45 621L156 686Q172 695 183 699T207 704H214Q251 704 251 664V48Z" />
<glyph unicode="2" glyph-name="two" horiz-adv-x="522" d="M446 85Q469 85 478 73T487 43V42Q487 25 478 13T446 0H66Q43 0 33 13T23 45V48Q23 72 32 87T61 122L227 284Q299 354 336 406T373 512Q373 565 342 594T249 624Q207 624 183 614T143 592T115 569T86
559Q69 559 58 570T46 599V601Q46 615 55 629T88 659Q115 676 158 691T255 706Q363 706 421 658T480 515Q480 477 467 443T430 374T374 306T302 234L145 85H446Z" />
<glyph unicode="3" glyph-name="three" horiz-adv-x="510" d="M214 73Q287 73 328 107T370 204Q370 263 333 290T229 319L202 320Q180 321 170 330T160 357V362Q160 397 197 400L220 401Q285 403 323 429T362 514Q362 626 237 626Q198 626 175 618T136 599T110
580T83 571Q67 571 56 581T44 611V612Q44 644 82 666Q112 683 152 694T244 706Q347 706 404 662T462 523Q462 456 427 419T338 365V362Q401 349 439 310T477 201Q477 151 459 113T408 48T327 8T221 -6Q167 -6 125 6T55 35Q18 59 18 89V91Q18 110 30 122T60 134Q76
134 87 125T114 104T152 83T214 73Z" />
<glyph unicode="4" glyph-name="four" horiz-adv-x="568" d="M461 48Q461 21 446 9T409 -4H407Q385 -4 370 8T355 48V164H63Q40 164 30 177T19 208V215Q19 236 26 253T55 300L328 656Q347 680 363 691T408 703H410Q431 703 446 691T461 653V241H514Q535 241 543
230T552 204V202Q552 186 544 175T514 164H461V48ZM104 241H355V567H352L104 244V241Z" />
<glyph unicode="5" glyph-name="five" horiz-adv-x="524" d="M217 -6Q169 -6 133 3T70 27Q45 41 35 55T25 86V88Q25 106 36 117T66 129Q82 129 93 120T119 101T156 81T216 72Q291 72 337 113T384 229Q384 266 374 293T346 338T304 363T251 372Q219 372 197 363T158
343T126 323T93 314Q50 314 50 356V644Q50 671 65 685T106 700H416Q439 700 448 688T458 658V656Q458 639 449 627T416 614H129V403H132Q149 418 185 434T276 450Q320 450 359 437T427 398T473 330T490 233Q490 177 470 133T414 58T328 11T217 -6Z" />
<glyph unicode="6" glyph-name="six" horiz-adv-x="589" d="M335 435Q382 435 422 422T493 383T540 317T557 226Q557 173 539 131T487 58T408 11T306 -6Q249 -6 200 14T114 77T57 183T36 335Q36 425 60 494T127 611T232 682T368 706Q406 706 435 701T485 686Q519
669 519 637V635Q519 615 508 605T480 594Q468 594 459 599T438 611T409 622T364 628Q260 628 205 559T143 362Q176 397 227 416T335 435ZM310 361Q261 361 216 342T143 293Q149 172 192 120T306 67Q378 67 415 109T452 223Q452 294 413 327T310 361Z" />
<glyph unicode="7" glyph-name="seven" horiz-adv-x="513" d="M167 -4Q138 -4 125 18T129 74L406 611V614H65Q42 614 33 626T23 656V658Q23 675 32 687T65 700H440Q459 700 472 689T486 654V649Q486 624 481 604T466 560L236 50Q223 21 208 9T172 -4H167Z" />
<glyph unicode="8" glyph-name="eight" horiz-adv-x="579" d="M289 -6Q163 -6 97 48T30 196Q30 264 70 309T174 373V376Q123 393 92 430T61 526Q61 567 77 600T124 657T196 693T289 706Q340 706 382 694T454 658T500 601T517 526Q517 468 487 431T405 376V373Q470
354 509 309T549 196Q549 103 482 49T289 -6ZM289 67Q368 67 407 105T446 201Q446 259 407 298T289 337Q211 337 172 298T133 201Q133 143 171 105T289 67ZM289 410Q349 410 382 439T416 520Q416 572 383 602T289 632Q229 632 196 602T163 520Q163 469 196 440T289
410Z" />
<glyph unicode="9" glyph-name="nine" horiz-adv-x="588" d="M254 265Q207 265 166 278T95 316T48 381T30 472Q30 524 48 567T100 641T179 689T282 706Q339 706 388 686T474 623T531 517T552 365Q552 275 529 206T463 89T358 18T216 -6Q149 -6 109 10Q63 29 63
65V66Q63 85 74 96T105 107Q116 107 126 102T149 89T179 77T221 71Q334 71 386 139T444 333Q409 300 359 283T254 265ZM278 339Q326 339 371 358T444 407Q441 468 428 511T394 581T345 620T282 633Q210 633 173 590T136 475Q136 404 175 372T278 339Z" />
<glyph unicode=":" glyph-name="colon" horiz-adv-x="192" d="M157 55Q157 29 139 12T96 -5Q70 -5 53 12T35 55Q35 80 52 98T96 116Q121 116 139 98T157 55ZM157 355Q157 329 139 312T96 295Q70 295 53 312T35 355Q35 381 52 398T96 416Q121 416 139 399T157 355Z" />
<glyph unicode=";" glyph-name="semicolon" horiz-adv-x="192" d="M157 355Q157 329 139 312T96 295Q70 295 53 312T35 355Q35 381 52 398T96 416Q121 416 139 399T157 355ZM25 -70Q25 -59 30 -54T50 -42Q68 -35 74 -27T81 -10Q81 -2 76 3T60 16Q48 24 41 34T33
62Q33 85 50 100T93 116Q118 116 137 98T157 40Q157 -17 131 -50T56 -91Q25 -96 25 -71V-70Z" />
<glyph unicode="&lt;" glyph-name="less" horiz-adv-x="472" d="M61 279Q26 296 26 329V332Q26 363 61 380L381 546Q404 557 422 548T441 515V513Q441 500 433 490T404 469L132 332V330L404 191Q424 181 432 171T441 147V144Q441 120 423 111T381 113L61 279Z" />
<glyph unicode="=" glyph-name="equal" horiz-adv-x="499" d="M470 408Q470 392 461 381T431 369H69Q48 369 39 380T29 408V410Q29 427 38 438T69 450H431Q452 450 461 439T470 410V408ZM470 219Q470 202 461 191T431 179H69Q48 179 39 190T29 219V221Q29 237
38 248T69 260H431Q452 260 461 249T470 221V219Z" />
<glyph unicode="&gt;" glyph-name="greater" horiz-adv-x="472" d="M91 111Q68 100 49 109T30 142V145Q30 158 38 168T68 189L340 327V330L68 467Q47 477 39 487T30 511V512Q30 537 49 546T91 543L411 378Q429 368 437 357T446 329V326Q446 294 411 277L91 111Z" />
<glyph unicode="?" glyph-name="question" horiz-adv-x="443" d="M171 173Q151 173 141 184T130 215Q130 238 134 258T147 297T171 337T211 382Q228 399 245 416T275 451T296 490T304 536Q304 581 278 604T204 627Q171 627 152 619T119 600T95 581T68 572Q51 572
40 583T28 613V614Q28 649 71 674Q95 688 130 697T209 706Q303 706 356 664T410 536Q410 505 402 481T379 435T347 396T309 358Q290 339 273 323T245 286Q234 270 229 252T218 211Q213 191 203 182T173 173H171ZM237 55Q237 29 219 12T176 -5Q150 -5 132 12T114
55Q114 80 132 98T176 116Q201 116 219 98T237 55Z" />
<glyph unicode="@" glyph-name="at" horiz-adv-x="873" d="M689 -69Q643 -97 576 -112T437 -127Q360 -127 287 -106T157 -41T66 74T31 242Q31 344 69 422T169 554T308 635T461 662Q539 662 608 641T729 578T811 476T842 336Q842 266 822 216T770 133T696 85T611
69Q582 69 561 75T527 91T506 114T495 143Q471 115 435 92T349 68Q295 68 262 102T229 204Q229 249 245 295T292 379T364 439T460 463Q500 463 523 452T563 425Q572 444 583 453T611 462H613Q647 462 640 426L589 205Q581 173 589 153T631 132Q657 132 681 143T725
179T755 242T767 336Q767 398 745 447T682 529T585 580T461 598Q396 598 333 576T221 510T141 399T110 242Q110 161 136 103T206 8T309 -46T437 -63Q505 -63 548 -52T618 -28T660 -4T691 7Q719 7 719 -22V-24Q719 -39 712 -49T689 -69ZM470 396Q437 396 410 380T362
337T330 276T318 204Q318 167 334 150T376 133Q412 133 441 153T496 202L537 379Q525 386 511 391T470 396Z" />
<glyph unicode="A" glyph-name="A" horiz-adv-x="645" d="M74 -4Q51 -4 39 12T38 60L248 648Q267 703 322 703H327Q355 703 371 690T399 647L607 64Q618 31 604 14T566 -4H561Q539 -4 525 6T503 43L449 198H180L128 43Q114 -4 77 -4H74ZM206 274H423L315 590H313L206
274Z" />
<glyph unicode="B" glyph-name="B" horiz-adv-x="595" d="M180 78H304Q373 78 411 109T450 203Q450 266 411 297T298 328H180V78ZM180 404H291Q351 404 387 429T424 514Q424 573 388 597T292 622H180V404ZM131 0Q105 0 90 14T75 56V644Q75 671 90 685T131 700H295Q349
700 392 691T466 660T513 604T530 521Q530 488 521 463T495 420T456 390T406 371V368Q439 361 467 349T516 317T548 268T560 199Q560 99 492 50T307 0H131Z" />
<glyph unicode="C" glyph-name="C" horiz-adv-x="619" d="M543 42Q511 21 465 8T360 -6Q288 -6 230 17T129 86T64 198T41 350Q41 435 66 501T135 613T239 682T369 706Q420 706 461 698T536 670Q560 656 570 641T580 609V608Q580 589 569 578T540 567Q524 567 511
576T481 597T437 617T369 627Q320 627 280 610T212 558T167 472T151 354Q151 213 206 143T364 73Q413 73 443 84T492 110T524 136T552 148Q570 148 580 137T590 109V107Q590 87 579 73T543 42Z" />
<glyph unicode="D" glyph-name="D" horiz-adv-x="677" d="M131 0Q105 0 90 14T75 56V644Q75 671 90 685T131 700H280Q455 700 547 618T640 352Q640 170 547 85T277 0H131ZM182 78H277Q342 78 389 93T468 140T515 225T530 351Q530 424 515 475T469 559T390 606T277
621H182V78Z" />
<glyph unicode="E" glyph-name="E" horiz-adv-x="562" d="M131 0Q105 0 90 14T75 56V644Q75 671 90 685T131 700H478Q516 700 516 661V659Q516 620 478 620H181V397H395Q413 397 423 388T434 359V357Q434 338 424 329T395 319H181V78H491Q508 78 518 69T529 40V38Q529
19 519 10T491 0H131Z" />
<glyph unicode="F" glyph-name="F" horiz-adv-x="550" d="M182 48Q182 23 168 10T130 -4H128Q104 -4 90 9T75 48V644Q75 671 90 685T131 700H480Q500 700 509 689T519 661V659Q519 642 510 631T480 620H182V382H399Q418 382 427 372T437 344V342Q437 324 428 314T399
303H182V48Z" />
<glyph unicode="G" glyph-name="G" horiz-adv-x="671" d="M547 25Q516 12 470 3T364 -6Q288 -6 228 17T125 85T60 196T37 350Q37 437 61 503T130 615T237 683T376 706Q431 706 474 697T546 672Q582 651 582 618V617Q582 597 570 585T540 573Q525 573 514 581T486
599T444 617T375 626Q324 626 283 611T212 562T166 478T149 354Q149 210 204 140T364 70Q415 70 446 77T500 96V275H404Q385 275 376 286T366 314V316Q366 333 375 343T404 354H552Q578 354 591 339T605 299V99Q605 70 592 53T547 25Z" />
<glyph unicode="H" glyph-name="H" horiz-adv-x="691" d="M182 48Q182 22 168 9T129 -4H128Q104 -4 90 9T75 48V652Q75 676 89 690T128 704H129Q153 704 167 690T182 652V398H510V652Q510 676 524 690T562 704H564Q587 704 601 690T616 652V48Q616 22 602 9T564
-4H562Q538 -4 524 9T510 48V320H182V48Z" />
<glyph unicode="I" glyph-name="I" horiz-adv-x="263" d="M185 49Q185 22 170 9T133 -4H131Q109 -4 94 9T78 49V652Q78 675 91 689T131 704H133Q158 704 171 690T185 652V49Z" />
<glyph unicode="J" glyph-name="J" horiz-adv-x="442" d="M371 172Q371 87 321 40T167 -7Q138 -7 110 -3T62 10Q36 22 26 37T15 69V70Q15 87 26 99T58 112Q70 112 79 106T99 92T124 78T162 72Q264 72 264 175V652Q264 676 277 690T317 704H319Q344 704 357 690T371
652V172Z" />
<glyph unicode="K" glyph-name="K" horiz-adv-x="647" d="M182 345L483 675Q498 692 508 698T530 704H531Q544 704 554 698T568 680T571 656T556 629L359 417L585 80Q595 63 596 48T592 22T574 3T547 -4H546Q530 -4 518 4T492 35L287 342L182 228V49Q182 22 167
9T129 -4H128Q105 -4 90 9T75 49V652Q75 675 88 689T128 704H129Q155 704 168 690T182 652V345Z" />
<glyph unicode="L" glyph-name="L" horiz-adv-x="541" d="M131 0Q105 0 90 15T75 56V652Q75 675 88 689T128 704H129Q155 704 168 690T182 652V78H471Q489 78 500 68T511 40V38Q511 21 500 11T471 0H131Z" />
<glyph unicode="M" glyph-name="M" horiz-adv-x="837" d="M119 -4Q99 -4 87 7T75 40V644Q75 670 90 685T131 700H173Q199 700 215 688T242 647L419 161H422L597 647Q607 676 623 688T667 700H707Q733 700 748 685T763 644V48Q763 22 749 9T711 -4H709Q686 -4 672
9T657 48V577H653L455 31Q448 11 437 4T412 -4H408Q394 -4 383 3T365 31L168 577H165V40Q165 18 153 7T121 -4H119Z" />
<glyph unicode="N" glyph-name="N" horiz-adv-x="689" d="M120 -4Q100 -4 88 7T75 41V644Q75 670 90 685T131 700H152Q178 700 195 688T228 650L520 177H522V659Q522 682 535 693T567 704H569Q588 704 601 693T614 659V48Q614 25 600 12T563 -1H558Q534 -1 520
9T491 42L169 568H167V41Q167 18 154 7T121 -4H120Z" />
<glyph unicode="O" glyph-name="O" horiz-adv-x="724" d="M688 350Q688 263 662 197T591 85T487 17T363 -6Q297 -6 238 17T134 85T63 196T37 350Q37 436 63 502T134 614T238 682T363 706Q428 706 487 683T590 614T661 503T688 350ZM146 348Q146 278 162 226T208
139T276 87T363 70Q409 70 448 87T516 138T561 225T578 348Q578 418 562 471T516 559T448 611T363 629Q316 629 277 612T208 559T163 471T146 348Z" />
<glyph unicode="P" glyph-name="P" horiz-adv-x="578" d="M127 -4Q105 -4 90 9T75 49V644Q75 671 90 685T131 700H283Q344 700 393 688T476 651T529 585T547 488Q547 375 477 324T280 272H182V49Q182 22 167 9T129 -4H127ZM182 621V347H280Q363 347 401 380T439
486Q439 559 401 590T280 621H182Z" />
<glyph unicode="Q" glyph-name="Q" horiz-adv-x="726" d="M673 -108Q660 -108 638 -102L330 -16Q264 2 210 31T117 105T58 209T37 350Q37 437 63 503T134 615T238 683T363 706Q429 706 488 683T591 615T662 504T688 350Q688 284 672 230T626 134T556 64T465 23V21L666
-15Q690 -19 699 -30T709 -62V-72Q709 -90 699 -99T673 -108ZM146 348Q146 277 162 225T208 138T276 86T363 69Q409 69 448 86T516 138T561 225T578 348Q578 419 562 471T516 559T448 611T363 629Q316 629 277 612T208 559T163 472T146 348Z" />
<glyph unicode="R" glyph-name="R" horiz-adv-x="620" d="M519 -4Q502 -4 489 5T462 39L323 296Q314 295 306 295T288 295H183V48Q183 22 168 9T131 -4H129Q106 -4 91 9T76 48V644Q76 671 91 685T132 700H294Q413 700 478 653T543 502Q543 430 512 385T423 317L559
69Q576 39 564 18T522 -4H519ZM183 621V371H285Q360 371 397 399T435 497Q435 564 396 592T285 621H183Z" />
<glyph unicode="S" glyph-name="S" horiz-adv-x="529" d="M493 199Q493 96 427 45T245 -6Q184 -6 136 6T60 36Q24 59 24 93V95Q24 113 35 125T66 137Q83 137 94 127T122 105T166 82T242 72Q314 72 354 100T395 189Q395 222 382 242T346 275T293 297T229 316Q182
329 146 345T86 385T50 439T37 515Q37 560 53 595T99 655T171 693T266 706Q317 706 357 697T422 673Q460 650 460 617V615Q460 598 450 587T422 576Q407 576 397 584T371 601T333 619T267 627Q198 627 165 599T131 522Q131 495 141 477T170 445T216 423T276 405Q331
390 372 374T440 335T480 279T493 199Z" />
<glyph unicode="T" glyph-name="T" horiz-adv-x="575" d="M341 622V49Q341 22 326 9T288 -4H286Q264 -4 249 9T234 49V622H60Q42 622 32 631T21 660V662Q21 681 31 690T60 700H514Q532 700 542 691T553 662V660Q553 641 543 632T514 622H341Z" />
<glyph unicode="U" glyph-name="U" horiz-adv-x="679" d="M178 253Q178 200 191 166T227 112T282 83T352 75Q388 75 418 83T470 111T504 165T516 253V659Q516 681 528 692T561 704H563Q584 704 596 693T609 659V256Q609 122 543 58T346 -6Q283 -6 232 10T146 58T91
140T71 256V652Q71 675 84 689T124 704H125Q150 704 164 690T178 652V253Z" />
<glyph unicode="V" glyph-name="V" horiz-adv-x="639" d="M510 660Q525 704 558 704H560Q586 704 599 686T602 639L393 53Q382 20 366 8T322 -4H317Q289 -4 273 8T245 53L39 632Q28 664 44 684T87 704H90Q125 704 141 657L324 127H326L510 660Z" />
<glyph unicode="W" glyph-name="W" horiz-adv-x="897" d="M771 660Q776 683 788 693T816 704H818Q845 704 858 686T864 642L718 56Q710 23 694 10T648 -4H643Q614 -4 597 9T571 57L450 530H448L326 54Q318 22 301 9T256 -4H251Q222 -4 205 9T180 55L38 635Q30
664 43 684T87 704H89Q128 704 139 657L260 141H263L397 652Q404 680 417 692T454 704H456Q479 704 492 692T513 652L648 141H651L771 660Z" />
<glyph unicode="X" glyph-name="X" horiz-adv-x="629" d="M380 358L571 80Q581 65 582 50T579 23T562 4T534 -4H533Q521 -4 509 4T482 32L303 295L132 33Q119 13 109 5T84 -4H83Q70 -4 60 2T44 18T39 41T49 68L245 365L67 620Q56 635 54 650T57 677T74 696T103
704H104Q117 704 129 696T155 668L321 429L477 667Q490 687 500 695T525 704H526Q539 704 549 698T565 682T570 658T560 632L380 358Z" />
<glyph unicode="Y" glyph-name="Y" horiz-adv-x="583" d="M513 704Q540 704 551 684T549 637L349 285V49Q349 22 334 9T297 -4H295Q273 -4 258 9T242 49V282L40 629Q32 643 32 656T38 680T57 697T85 704H87Q104 704 115 692T140 657L300 376H302L462 664Q473 684
484 694T510 704H513Z" />
<glyph unicode="Z" glyph-name="Z" horiz-adv-x="546" d="M406 619V622H86Q48 622 48 660V662Q48 679 57 689T86 700H476Q496 700 507 689T519 658V649Q519 628 513 613T495 580L136 79V76H477Q497 76 506 67T515 40V38Q515 21 506 11T477 0H65Q47 0 35 12T23
43V50Q23 70 28 85T50 122L406 619Z" />
<glyph unicode="[" glyph-name="bracketleft" horiz-adv-x="310" d="M130 -49Q107 -49 91 -36T74 7V685Q74 714 90 727T130 741H252Q271 741 278 731T285 707V705Q285 691 278 682T252 672H169V20H252Q271 20 278 11T285 -13V-15Q285 -29 278 -39T252 -49H130Z" />
<glyph unicode="\" glyph-name="backslash" horiz-adv-x="333" d="M315 6Q323 -20 313 -36T280 -53H278Q248 -53 236 -12L21 686Q13 712 23 728T57 745H59Q89 745 101 704L315 6Z" />
<glyph unicode="]" glyph-name="bracketright" horiz-adv-x="310" d="M58 -49Q39 -49 32 -39T25 -15V-13Q25 1 32 10T58 20H141V672H58Q39 672 32 681T25 705V707Q25 721 32 731T58 741H180Q203 741 219 728T235 685V7Q235 -22 219 -35T180 -49H58Z" />
<glyph unicode="^" glyph-name="asciicircum" horiz-adv-x="419" d="M211 703Q230 703 242 695T268 668L355 546Q363 535 363 523Q363 509 352 500T327 491H325Q314 491 303 498T279 523L210 615H208L140 523Q127 505 116 498T94 491H92Q78 491 67 499T56 522Q56
534 64 546L150 668Q164 687 176 695T208 703H211Z" />
<glyph unicode="_" glyph-name="underscore" horiz-adv-x="354" d="M359 -130Q359 -143 352 -152T327 -162H29Q10 -162 3 -153T-5 -130V-128Q-5 -114 2 -105T29 -95H327Q345 -95 352 -104T359 -128V-130Z" />
<glyph unicode="`" glyph-name="grave" horiz-adv-x="410" d="M232 610Q242 592 234 577T207 562H205Q185 562 164 583L104 646Q95 656 93 666T93 686T104 700T125 706H146Q167 706 179 697T202 667L232 610Z" />
<glyph unicode="a" glyph-name="a" horiz-adv-x="519" d="M412 -4Q366 -4 359 58Q329 27 291 11T198 -6Q161 -6 130 4T77 33T42 82T29 149Q29 189 44 219T87 269T153 298T238 308Q273 308 301 305T358 294V365Q358 413 330 434T247 456Q208 456 186 449T149 433T125
417T101 409Q85 409 75 420T64 447V448Q64 464 74 477T108 502Q137 515 176 522T260 530Q355 530 406 494T458 372V46Q458 -4 414 -4H412ZM229 61Q274 61 304 79T358 123V236Q335 241 310 244T255 247Q198 247 163 226T127 155Q127 105 155 83T229 61Z" />
<glyph unicode="b" glyph-name="b" horiz-adv-x="576" d="M113 704Q139 704 152 687T165 628V453Q195 483 238 506T342 530Q379 530 415 517T480 474T525 393T543 269Q543 192 524 140T473 55T401 8T320 -6Q265 -6 227 8T160 46Q154 21 141 9T110 -4H108Q88 -4
77 7T65 46V654Q65 704 111 704H113ZM306 452Q264 452 229 433T165 388V115Q189 91 219 79T293 66Q320 66 347 74T395 103T429 163T442 260Q442 318 431 355T400 414T357 444T306 452Z" />
<glyph unicode="c" glyph-name="c" horiz-adv-x="493" d="M427 27Q401 12 366 3T289 -6Q167 -6 99 65T31 261Q31 324 50 374T105 458T189 511T295 530Q330 530 365 524T423 505Q443 494 451 481T460 452V450Q460 432 449 422T424 412Q410 412 400 418T378 433T346
448T294 455Q258 455 229 443T178 405T144 344T132 261Q132 165 175 117T292 69Q325 69 346 77T381 94T405 111T427 119Q444 119 454 109T464 81V80Q464 49 427 27Z" />
<glyph unicode="d" glyph-name="d" horiz-adv-x="577" d="M512 46Q512 -4 466 -4H464Q414 -4 411 71Q382 39 339 17T241 -6Q199 -6 161 9T95 55T50 136T33 254Q33 331 52 383T103 468T175 515T256 530Q312 530 348 516T411 476V654Q411 704 458 704H460Q486 704
499 687T512 628V46ZM284 453Q256 453 229 445T181 415T147 355T134 259Q134 205 144 168T171 109T213 76T265 66Q312 66 346 85T411 139V407Q387 429 357 441T284 453Z" />
<glyph unicode="e" glyph-name="e" horiz-adv-x="530" d="M133 244Q137 149 179 109T300 68Q337 68 360 76T400 93T427 111T452 119Q469 119 478 109T488 82V80Q488 66 479 54T455 33Q427 16 387 5T286 -6Q163 -6 97 65T31 260Q31 322 49 372T100 457T177 511T275
530Q385 530 442 468T500 290Q500 244 452 244H133ZM275 464Q221 464 183 429T135 308H401Q399 394 366 429T275 464Z" />
<glyph unicode="f" glyph-name="f" horiz-adv-x="312" d="M180 45Q180 20 167 8T131 -4H129Q108 -4 94 8T80 45V454H46Q31 454 22 462T12 487V489Q12 507 21 515T46 523H80V569Q80 641 120 674T226 707Q240 707 252 706T275 702Q304 695 304 667V666Q304 635 265
631Q245 629 229 626T202 617T186 598T180 565V523H261Q277 523 286 515T296 489V487Q296 470 287 462T261 454H180V45Z" />
<glyph unicode="g" glyph-name="g" horiz-adv-x="576" d="M411 82Q382 52 340 32T243 12Q202 12 164 25T97 69T51 146T33 261Q33 334 52 385T104 469T177 515T260 530Q313 530 350 516T415 476Q426 527 465 527H467Q512 527 512 477V17Q512 -29 494 -63T444 -121T366
-156T265 -168Q214 -168 167 -160T90 -135Q57 -116 57 -87V-86Q57 -71 67 -59T96 -47Q109 -47 119 -54T145 -71T186 -87T253 -95Q325 -95 368 -68T411 24V82ZM268 84Q313 84 348 103T411 152V404Q386 428 356 440T284 453Q257 453 230 445T182 416T147 360T134
269Q134 215 144 180T172 123T214 93T268 84Z" />
<glyph unicode="h" glyph-name="h" horiz-adv-x="572" d="M327 449Q282 449 241 432T165 394V45Q165 20 151 8T116 -4H114Q92 -4 79 8T65 45V654Q65 704 111 704H113Q139 704 152 687T165 628V455Q205 486 259 508T373 530Q401 530 426 524T470 501T500 458T511
387V45Q511 20 498 8T462 -4H460Q438 -4 425 8T411 45V365Q411 415 389 432T327 449Z" />
<glyph unicode="i" glyph-name="i" horiz-adv-x="233" d="M175 639Q175 616 158 600T117 583Q93 583 76 599T59 639Q59 662 76 679T117 696Q141 696 158 679T175 639ZM166 45Q166 20 153 8T117 -4H115Q94 -4 80 8T66 45V477Q66 527 113 527H115Q141 527 153 510T166
451V45Z" />
<glyph unicode="j" glyph-name="j" horiz-adv-x="233" d="M175 639Q175 616 158 600T117 583Q93 583 76 599T59 639Q59 662 76 679T117 696Q141 696 158 679T175 639ZM166 -32Q166 -102 132 -134T32 -166Q24 -166 15 -166T-4 -163Q-34 -156 -34 -130V-129Q-34
-100 -5 -97Q17 -95 30 -91T52 -78T63 -58T66 -26V477Q66 527 113 527H115Q141 527 153 510T166 451V-32Z" />
<glyph unicode="k" glyph-name="k" horiz-adv-x="518" d="M240 245L165 166V45Q165 20 151 8T116 -4H114Q92 -4 79 8T65 45V654Q65 704 111 704H113Q139 704 152 687T165 628V270L376 501Q389 515 398 521T419 527H420Q431 527 440 521T454 504T457 482T443 456L306
312L470 69Q478 56 479 43T475 20T459 3T434 -4H433Q419 -4 408 4T382 34L240 245Z" />
<glyph unicode="l" glyph-name="l" horiz-adv-x="232" d="M115 704Q141 704 153 687T166 628V45Q166 20 153 8T117 -4H115Q94 -4 80 8T66 45V654Q66 704 113 704H115Z" />
<glyph unicode="m" glyph-name="m" horiz-adv-x="879" d="M314 449Q270 449 234 433T165 397V45Q165 20 151 8T116 -4H114Q92 -4 79 8T65 45V477Q65 527 111 527H113Q136 527 149 512T165 458Q201 485 251 507T359 530Q400 530 435 514T484 454Q524 486 576 508T685
530Q712 530 736 523T779 500T807 458T818 392V45Q818 20 805 8T769 -4H767Q746 -4 733 8T719 45V367Q719 415 699 432T640 449Q598 449 561 433T492 396V45Q492 20 478 8T443 -4H441Q419 -4 406 8T392 45V367Q392 415 372 432T314 449Z" />
<glyph unicode="n" glyph-name="n" horiz-adv-x="572" d="M327 449Q282 449 241 432T165 394V45Q165 20 151 8T116 -4H114Q92 -4 79 8T65 45V477Q65 527 111 527H113Q137 527 150 512T165 455Q205 486 259 508T373 530Q401 530 426 524T470 501T500 458T511 387V45Q511
20 498 8T462 -4H460Q438 -4 425 8T411 45V365Q411 415 389 432T327 449Z" />
<glyph unicode="o" glyph-name="o" horiz-adv-x="573" d="M542 260Q542 198 523 149T469 65T388 12T286 -6Q231 -6 185 12T104 64T51 148T31 260Q31 323 50 373T104 458T184 511T286 530Q341 530 388 512T469 458T522 373T542 260ZM132 260Q132 164 174 116T286
67Q357 67 399 115T441 260Q441 356 399 406T286 457Q216 457 174 407T132 260Z" />
<glyph unicode="p" glyph-name="p" horiz-adv-x="576" d="M165 -114Q165 -139 151 -151T116 -163H114Q92 -163 79 -151T65 -114V477Q65 527 111 527H113Q137 527 150 511T165 453Q195 483 238 506T342 530Q379 530 415 517T480 474T525 394T543 273Q543 197 524
146T472 63T399 17T316 3Q265 3 229 15T165 51V-114ZM307 452Q265 452 229 433T165 388V123Q189 99 220 87T293 74Q321 74 347 82T395 111T429 169T442 263Q442 320 431 356T400 414T357 444T307 452Z" />
<glyph unicode="q" glyph-name="q" horiz-adv-x="576" d="M460 -163Q439 -163 425 -151T411 -114V73Q382 43 340 23T244 3Q202 3 164 17T97 61T51 139T33 256Q33 332 52 384T104 469T177 515T260 530Q313 530 350 516T414 476Q416 484 418 490Q432 527 465 527H467Q512
527 512 477V-114Q512 -139 498 -151T463 -163H460ZM268 75Q313 75 348 94T411 144V404Q386 428 357 440T283 453Q255 453 229 445T181 415T147 358T134 265Q134 210 144 174T172 115T214 84T268 75Z" />
<glyph unicode="r" glyph-name="r" horiz-adv-x="373" d="M113 527Q136 527 150 509T165 449Q194 481 232 504T313 528Q353 528 353 487V485Q353 464 343 453T308 440Q261 436 229 423T165 382V45Q165 20 151 8T116 -4H114Q92 -4 79 8T65 45V477Q65 527 111 527H113Z" />
<glyph unicode="s" glyph-name="s" horiz-adv-x="445" d="M414 158Q414 83 365 39T209 -5Q165 -5 132 1T72 21Q31 41 31 75V77Q31 94 41 106T71 118Q84 118 93 111T115 94T148 77T205 69Q320 69 320 149Q320 166 315 178T296 200T260 215T204 227Q123 238 79 271T35
377Q35 451 87 490T227 529Q299 529 347 509Q370 500 379 487T389 458V456Q389 439 379 428T351 417Q340 417 331 423T309 436T278 449T228 455Q174 455 150 438T125 385Q125 369 131 357T150 337T186 322T241 311Q285 305 317 294T371 265T403 221T414 158Z" />
<glyph unicode="t" glyph-name="t" horiz-adv-x="329" d="M46 454Q29 454 21 463T12 487V489Q12 523 46 523H80V621Q80 644 93 657T130 670H132Q155 670 167 657T180 621V523H272Q306 523 306 489V487Q306 472 298 463T272 454H180V139Q180 97 198 83T255 69H269Q310
69 310 35V34Q310 6 280 -1Q268 -4 254 -5T222 -6Q155 -6 118 24T80 128V454H46Z" />
<glyph unicode="u" glyph-name="u" horiz-adv-x="576" d="M459 -4Q414 -4 408 61Q368 32 317 13T211 -7Q179 -7 153 0T106 23T75 66T64 133V478Q64 501 77 514T113 527H115Q138 527 151 514T164 478V154Q164 105 186 88T249 70Q292 70 332 86T407 124V478Q407
501 420 514T456 527H458Q481 527 494 514T507 478V46Q507 -4 461 -4H459Z" />
<glyph unicode="v" glyph-name="v" horiz-adv-x="531" d="M84 527Q116 527 134 478L272 117H274L408 482Q416 504 426 515T454 527H455Q483 527 494 508T494 461L334 45Q324 19 308 8T269 -4H267Q244 -4 228 7T201 45L40 454Q26 488 41 507T83 527H84Z" />
<glyph unicode="w" glyph-name="w" horiz-adv-x="765" d="M384 382H382L276 44Q266 15 254 6T219 -4H217Q195 -4 182 5T160 44L35 462Q26 491 40 509T79 527H82Q117 527 132 478L227 139H229L338 483Q346 507 357 517T389 527H393Q412 527 423 517T442 482L545
139H547L649 485Q661 527 692 527H695Q717 527 729 512T733 470L604 44Q595 15 582 6T547 -4H545Q523 -4 510 5T488 44L384 382Z" />
<glyph unicode="x" glyph-name="x" horiz-adv-x="513" d="M189 268L55 452Q45 466 44 479T48 503T64 520T88 527H90Q102 527 114 519T140 491L260 326L371 494Q383 512 393 519T416 527H417Q430 527 439 521T453 505T457 483T447 458L320 273L465 71Q475 57 476
44T472 20T456 3T432 -4H431Q418 -4 406 4T380 32L250 217L121 29Q109 11 99 4T76 -4H75Q62 -4 52 2T38 18T34 40T45 65L189 268Z" />
<glyph unicode="y" glyph-name="y" horiz-adv-x="527" d="M248 -126Q239 -147 228 -157T200 -167H199Q175 -167 163 -148T164 -97L223 34L38 452Q31 467 31 480T37 504T54 520T79 526H80Q97 526 109 514T131 478L272 151H274L408 483Q416 505 426 515T454 526H455Q483
526 494 506T493 456L248 -126Z" />
<glyph unicode="z" glyph-name="z" horiz-adv-x="474" d="M335 451H82Q65 451 56 460T46 486V488Q46 504 55 513T82 523H408Q429 523 439 513T449 485V482Q449 466 444 454T424 424L141 72H408Q425 72 434 63T443 38V36Q443 19 434 10T408 0H70Q49 0 39 11T28
40V43Q28 58 34 70T55 102L335 451Z" />
<glyph unicode="{" glyph-name="braceleft" horiz-adv-x="341" d="M108 254Q108 283 95 296T51 315L44 316Q17 320 17 348V357Q17 372 23 379T44 389L51 390Q81 395 94 408T108 451V620Q108 684 140 712T238 741H287Q322 741 322 708V700Q322 687 315 678T289
668H260Q230 668 217 653T203 608V448Q203 409 185 387T127 353Q166 342 184 319T203 257V85Q203 56 216 40T260 24H289Q307 24 314 15T322 -8V-16Q322 -49 287 -49H238Q172 -49 140 -20T108 73V254Z" />
<glyph unicode="|" glyph-name="bar" horiz-adv-x="192" d="M98 744Q115 744 125 735T136 705V-14Q136 -34 125 -43T97 -53H95Q78 -53 67 -44T56 -14V705Q56 725 67 734T96 744H98Z" />
<glyph unicode="}" glyph-name="braceright" horiz-adv-x="341" d="M233 73Q233 9 201 -20T103 -49H54Q19 -49 19 -16V-8Q19 5 26 14T52 24H81Q111 24 124 40T138 85V257Q138 296 156 319T214 353Q175 364 157 386T138 448V608Q138 637 125 652T81 668H52Q34 668
27 677T19 700V708Q19 741 54 741H103Q169 741 201 713T233 620V451Q233 422 246 409T290 390L297 389Q311 387 317 380T324 357V348Q324 320 297 316L290 315Q260 310 247 297T233 254V73Z" />
<glyph unicode="~" glyph-name="asciitilde" horiz-adv-x="365" d="M248 229Q230 229 214 235T181 248T152 261T126 267Q111 267 103 260T88 245T75 230T57 223H55Q38 223 30 237T27 278Q35 308 58 328T119 349Q137 349 154 343T187 330T216 317T242 311Q257 311
265 318T280 333T292 349T310 356H312Q330 356 338 341T339 300Q331 268 307 249T248 229Z" />
<glyph unicode="&#xa1;" glyph-name="exclamdown" horiz-adv-x="260" d="M131 451Q145 451 155 443T167 414Q171 316 175 231Q176 194 177 157T180 85T182 22T183 -25Q183 -50 170 -64T131 -78H128Q102 -78 89 -64T76 -25Q76 -7 76 21T78 84T81 156T84 231Q88
316 92 414Q94 434 104 442T129 451H131ZM191 571Q191 546 174 528T130 510Q104 510 87 528T69 571Q69 597 86 614T130 631Q156 631 173 614T191 571Z" />
<glyph unicode="&#xa2;" glyph-name="cent" d="M328 529Q359 527 382 521T425 504Q445 493 453 481T462 453V452Q462 434 453 424T428 413Q417 413 408 418T389 429T364 443T328 453V70Q352 74 367 81T393 96T412 110T432 116Q449 116 458 106T467 79V77Q467 47
433 27Q415 16 388 8T328 -4V-75Q328 -92 319 -99T296 -107H294Q280 -107 271 -100T261 -75V-5Q152 4 91 74T29 261Q29 319 46 366T94 447T167 502T261 528V560Q261 577 270 584T294 592H296Q309 592 318 585T328 560V529ZM130 261Q130 176 164 128T261 70V453Q200
442 165 393T130 261Z" />
<glyph unicode="&#xa3;" glyph-name="sterling" horiz-adv-x="516" d="M371 346Q371 332 364 322T336 311H196Q200 286 202 261T205 210Q205 167 190 137T151 85H449Q471 85 481 73T491 44V42Q491 25 481 13T449 0H63Q44 0 35 10T25 38V40Q25 59 38 72T66 101T95
141T108 209Q108 235 105 260T96 311H59Q40 311 32 321T24 346V348Q24 362 32 372T59 383H80Q72 414 68 444T63 506Q63 553 80 590T128 653T202 692T296 706Q334 706 370 698T437 673Q460 659 468 645T477 618V615Q477 595 466 584T439 572Q422 572 412 580T388
598T354 616T299 624Q239 624 204 595T168 509Q168 479 172 448T183 383H336Q356 383 363 373T371 348V346Z" />
<glyph unicode="&#xa5;" glyph-name="yen" horiz-adv-x="553" d="M89 705Q106 705 118 693T141 658L285 399H287L429 665Q450 705 476 705H479Q507 705 516 684T512 637L362 365H474Q491 365 498 356T505 334V332Q505 319 498 310T474 301H334V240H474Q491 240
498 231T505 209V207Q505 193 498 185T474 176H334V49Q334 22 319 9T282 -5H280Q258 -5 243 8T228 49V176H86Q69 176 62 184T55 207V209Q55 222 62 231T86 240H228V301H86Q69 301 62 310T55 332V334Q55 347 62 356T86 365H197L45 630Q37 644 37 657T43 681T60 698T87
705H89Z" />
<glyph unicode="&#xa6;" glyph-name="brokenbar" horiz-adv-x="160" d="M39 274Q39 295 51 304T79 313H81Q98 313 109 304T121 274V-10Q121 -32 110 -40T81 -49H79Q62 -49 51 -40T39 -9V274ZM121 424Q121 403 110 394T81 385H79Q63 385 51 394T39 424V706Q39 727
50 736T79 745H81Q98 745 109 736T121 706V424Z" />
<glyph unicode="&#xa7;" glyph-name="section" horiz-adv-x="519" d="M445 29Q445 -43 394 -87T237 -132Q193 -132 156 -124T92 -103Q74 -94 64 -82T54 -52V-49Q54 -33 64 -23T91 -12Q104 -12 114 -19T139 -35T176 -51T236 -59Q291 -59 320 -40T349 21Q349 40
342 54T317 78T272 98T206 119Q116 144 72 181T27 285Q27 341 57 373T138 421Q104 442 90 472T75 549Q75 619 126 662T270 706Q309 706 341 700T397 683Q420 673 428 661T436 634V629Q436 612 427 604T403 595Q391 595 381 601T358 613T325 626T273 632Q221 632
193 611T164 554Q164 519 192 497T291 458Q337 446 374 432T436 398T476 351T490 286Q490 240 466 204T381 147Q412 128 428 101T445 29ZM221 386Q166 379 142 357T117 301Q117 266 143 243T235 201Q253 196 269 191T302 181Q348 190 373 213T398 272Q398 313 366
335T268 374L221 386Z" />
<glyph unicode="&#xa8;" glyph-name="dieresis" horiz-adv-x="410" d="M176 637Q176 614 160 599T120 583Q97 583 81 598T65 637Q65 660 81 675T120 691Q143 691 159 676T176 637ZM344 637Q344 614 328 599T289 583Q266 583 250 598T234 637Q234 660 250 675T289
691Q312 691 328 676T344 637Z" />
<glyph unicode="&#xa9;" glyph-name="copyright" horiz-adv-x="790" d="M509 182Q490 170 464 163T404 155Q312 155 262 207T211 351Q211 397 225 433T266 495T329 534T408 548Q437 548 460 543T500 529Q531 513 531 488V484Q531 470 523 462T504 454Q494 454
487 459T469 470T445 481T408 486Q357 486 326 451T295 350Q295 282 324 250T407 217Q431 217 446 222T471 234T489 245T507 251Q518 251 525 244T533 224V222Q533 197 509 182ZM752 350Q752 263 723 197T645 85T531 17T395 -7Q323 -7 259 16T145 85T67 196T38
350Q38 437 67 503T145 615T258 683T395 707Q466 707 531 684T645 615T723 504T752 350ZM91 350Q91 275 115 217T180 119T276 58T395 37Q458 37 513 58T610 118T676 216T700 350Q700 425 676 483T611 581T514 642T395 663Q332 663 277 642T180 582T115 484T91 350Z"
/>
<glyph unicode="&#xaa;" glyph-name="ordfeminine" horiz-adv-x="438" d="M353 256Q309 256 303 308Q277 280 245 267T167 253Q106 253 66 285T25 384Q25 418 38 443T74 485T130 510T201 519Q230 519 254 516T302 507V561Q302 603 280 619T209 636Q179 636 160
630T129 618T107 605T86 599Q72 599 64 608T56 631V633Q56 649 63 659T89 679Q114 691 148 698T224 706Q305 706 349 676T394 568V290Q394 256 360 256H353ZM197 314Q232 314 257 328T302 364V456Q282 459 262 461T220 463Q172 463 144 447T115 389Q115 347 138
331T197 314Z" />
<glyph unicode="&#xab;" glyph-name="guillemotleft" horiz-adv-x="464" d="M226 102Q233 91 234 80T231 60T217 45T196 39H194Q170 39 146 75L42 215Q32 230 29 240T25 260Q25 270 28 280T42 305L146 445Q170 481 194 481H196Q208 481 217 475T230 460T234 440T226
418L116 262V260L226 102ZM416 102Q423 91 424 80T421 60T407 45T386 39H384Q360 39 336 75L232 215Q222 230 219 240T215 260Q215 270 218 280T232 305L336 445Q360 481 384 481H386Q398 481 407 475T420 460T424 440T416 418L306 262V260L416 102Z" />
<glyph unicode="&#xae;" glyph-name="registered" horiz-adv-x="409" d="M388 529Q388 488 374 455T334 398T276 363T205 350Q167 350 134 362T76 398T37 454T22 529Q22 570 36 603T75 659T133 695T205 708Q242 708 275 696T334 660T373 603T388 529ZM59 529Q59
460 100 422T205 383Q236 383 262 393T308 421T339 467T350 529Q350 563 339 590T309 636T263 665T205 675Q142 675 101 637T59 529ZM282 469Q290 455 284 445T263 435H262Q246 435 234 457L206 508H182V458Q182 445 176 440T159 435H157Q147 435 140 440T133 458V595Q133
613 143 620T166 627H211Q285 627 285 568Q285 533 253 517L282 469ZM182 540H207Q224 540 230 547T237 568Q237 580 231 587T207 595H182V540Z" />
<glyph unicode="&#xaf;" glyph-name="macron" horiz-adv-x="410" d="M296 666Q315 666 322 656T329 633V631Q329 617 322 607T296 597H114Q95 597 88 607T80 631V633Q80 646 87 656T114 666H296Z" />
<glyph unicode="&#xb0;" glyph-name="degree" horiz-adv-x="337" d="M305 572Q305 542 294 517T265 475T221 448T168 438Q140 438 115 447T72 474T42 517T31 572Q31 602 42 627T71 669T115 696T168 706Q196 706 221 697T264 670T294 627T305 572ZM92 572Q92 535
114 513T168 491Q202 491 224 513T246 572Q246 610 224 631T168 653Q136 653 114 632T92 572Z" />
<glyph unicode="&#xb2;" glyph-name="two.superior" horiz-adv-x="316" d="M262 383Q279 383 286 374T293 353V351Q293 338 286 330T262 321H53Q40 321 32 329T23 354V355Q23 371 29 381T55 411L134 484Q172 519 189 542T206 590Q206 614 191 628T145 643Q126
643 114 638T93 627T77 616T59 611Q48 611 41 619T33 639V640Q33 664 60 680Q78 691 103 698T156 705Q219 705 254 678T289 597Q289 555 264 523T192 450L117 383H262Z" />
<glyph unicode="&#xb3;" glyph-name="three.superior" horiz-adv-x="309" d="M204 432Q204 460 185 472T136 485L119 486Q90 487 90 512V516Q90 541 119 542L135 543Q164 544 181 556T199 595Q199 645 136 645Q118 645 106 641T86 631T71 622T55 617Q44 617 37
624T29 644V645Q29 668 53 682Q71 693 95 699T147 705Q204 705 240 680T276 603Q276 568 256 548T204 518V516Q241 508 262 487T283 428Q283 374 243 345T134 316Q105 316 81 322T42 337Q28 345 22 354T16 375V376Q16 388 23 396T44 405Q53 405 60 400T75 390T95
379T128 374Q164 374 184 388T204 432Z" />
<glyph unicode="&#xb4;" glyph-name="acute" horiz-adv-x="410" d="M208 667Q219 687 231 696T264 706H285Q297 706 305 701T317 686T318 667T306 646L246 583Q225 562 205 562H203Q184 562 176 577T178 610L208 667Z" />
<glyph unicode="&#xb6;" glyph-name="paragraph" horiz-adv-x="574" d="M305 -96Q290 -96 279 -87T268 -58V320H261Q211 320 169 330T96 362T48 421T30 510Q30 566 49 603T101 661T179 691T278 700H444Q467 700 483 687T499 644V-58Q499 -78 489 -87T462 -96H460Q445
-96 434 -87T423 -58V626H345V-58Q345 -78 334 -87T307 -96H305Z" />
<glyph unicode="&#xb7;" glyph-name="periodcentered" horiz-adv-x="189" d="M156 303Q156 277 138 260T94 243Q68 243 51 260T33 303Q33 329 50 346T94 364Q120 364 138 347T156 303Z" />
<glyph unicode="&#xb8;" glyph-name="cedilla" horiz-adv-x="410" d="M163 0H217V-32Q258 -34 277 -52T297 -103Q297 -137 271 -156T203 -175Q188 -175 174 -172T148 -164Q128 -155 128 -136V-134Q128 -124 133 -118T148 -111Q154 -111 158 -113T168 -118T180
-123T197 -125Q212 -125 221 -119T230 -100Q230 -89 221 -82T189 -75H184Q163 -75 163 -55V0Z" />
<glyph unicode="&#xb9;" glyph-name="one.superior" horiz-adv-x="243" d="M186 357Q186 334 175 325T147 316H143Q126 316 115 325T103 357V617L65 593Q49 583 39 583Q17 583 17 609V614Q17 628 23 637T48 657L100 686Q111 692 123 696T147 700H149Q186 700 186
664V357Z" />
<glyph unicode="&#xba;" glyph-name="ordmasculine" d="M472 478Q472 425 455 383T409 312T339 268T251 253Q204 253 164 268T95 312T48 383T31 478Q31 531 48 573T94 645T164 690T251 706Q298 706 338 691T408 646T455 574T472 478ZM125 478Q125 397 159 359T251
320Q308 320 342 358T377 478Q377 558 343 598T251 638Q194 638 160 598T125 478Z" />
<glyph unicode="&#xbb;" glyph-name="guillemotright" horiz-adv-x="464" d="M349 260V262L239 418Q232 428 231 439T234 460T248 475T269 481H271Q295 481 319 445L423 305Q433 290 436 280T440 260Q440 250 437 240T423 215L319 75Q295 39 271 39H269Q257 39
248 45T235 60T231 80T239 102L349 260ZM159 260V262L49 418Q42 428 41 439T44 460T58 475T79 481H81Q105 481 129 445L233 305Q243 290 246 280T250 260Q250 250 247 240T233 215L129 75Q105 39 81 39H79Q67 39 58 45T45 60T41 80T49 102L159 260Z" />
<glyph unicode="&#xbc;" glyph-name="onequarter" horiz-adv-x="695" d="M186 357Q186 334 175 325T147 316H143Q126 316 115 325T103 357V617L65 593Q49 583 39 583Q17 583 17 609V614Q17 628 23 637T48 657L100 686Q111 692 123 696T147 700H149Q186 700 186
664V357ZM626 33Q626 13 615 4T589 -5H587Q571 -5 560 4T549 33V85H397Q366 85 366 120V121Q366 137 371 148T392 179L527 349Q541 366 553 374T586 382H588Q605 382 615 373T626 343V140H653Q667 140 673 133T679 114V112Q679 101 673 93T653 85H626V33ZM428 142V140H550V290H548L428
142ZM144 -8Q133 -24 125 -31T106 -39H105Q86 -39 77 -23T83 17L528 703Q539 719 547 726T566 734H567Q586 734 595 718T589 678L144 -8Z" />
<glyph unicode="&#xbd;" glyph-name="onehalf" horiz-adv-x="735" d="M186 357Q186 334 175 325T147 316H143Q126 316 115 325T103 357V617L65 593Q49 583 39 583Q17 583 17 609V614Q17 628 23 637T48 657L100 686Q111 692 123 696T147 700H149Q186 700 186 664V357ZM682
62Q699 62 706 53T713 32V30Q713 17 706 9T682 0H473Q460 0 452 8T443 33V34Q443 50 449 60T475 90L554 163Q592 198 609 221T626 269Q626 293 611 307T565 322Q546 322 534 317T513 306T497 295T479 290Q468 290 461 298T453 318V319Q453 343 480 359Q498 370
523 377T576 384Q639 384 674 357T709 276Q709 234 684 202T612 129L537 62H682ZM143 -8Q132 -24 124 -31T105 -39H104Q85 -39 76 -23T82 17L527 703Q538 719 546 726T565 734H566Q585 734 594 718T588 678L143 -8Z" />
<glyph unicode="&#xbe;" glyph-name="threequarters" horiz-adv-x="736" d="M207 432Q207 460 188 472T139 485L122 486Q93 487 93 512V516Q93 541 122 542L138 543Q167 544 184 556T202 595Q202 645 139 645Q121 645 109 641T89 631T74 622T58 617Q47 617 40
624T32 644V645Q32 668 56 682Q74 693 98 699T150 705Q207 705 243 680T279 603Q279 568 259 548T207 518V516Q244 508 265 487T286 428Q286 374 246 345T137 316Q108 316 84 322T45 337Q31 345 25 354T19 375V376Q19 388 26 396T47 405Q56 405 63 400T78 390T98
379T131 374Q167 374 187 388T207 432ZM667 33Q667 13 656 4T630 -5H628Q612 -5 601 4T590 33V85H438Q407 85 407 120V121Q407 137 412 148T433 179L568 349Q582 366 594 374T627 382H629Q646 382 656 373T667 343V140H694Q708 140 714 133T720 114V112Q720 101
714 93T694 85H667V33ZM469 142V140H591V290H589L469 142ZM194 -8Q183 -24 175 -31T156 -39H155Q136 -39 127 -23T133 17L578 703Q589 719 597 726T616 734H617Q636 734 645 718T639 678L194 -8Z" />
<glyph unicode="&#xbf;" glyph-name="questiondown" horiz-adv-x="443" d="M272 453Q292 453 302 442T313 411Q313 388 309 368T296 329T272 289T232 244Q215 227 198 210T168 175T147 136T139 90Q139 45 165 22T239 -1Q272 -1 291 7T324 26T348 45T375 54Q392
54 403 43T415 13V12Q415 -23 372 -48Q348 -62 313 -71T234 -80Q140 -80 87 -38T33 90Q33 121 41 145T64 191T96 230T134 268Q153 287 170 303T198 340Q209 356 214 374T225 415Q230 435 240 444T270 453H272ZM206 571Q206 597 224 614T267 631Q293 631 311 614T329
571Q329 546 311 528T267 510Q242 510 224 528T206 571Z" />
<glyph unicode="&#xc0;" glyph-name="Agrave" horiz-adv-x="645" d="M74 -4Q51 -4 39 12T38 60L248 648Q267 703 322 703H327Q355 703 371 690T399 647L607 64Q618 31 604 14T566 -4H561Q539 -4 525 6T503 43L449 198H180L128 43Q114 -4 77 -4H74ZM206 274H423L315
590H313L206 274ZM351 770Q361 750 352 737T327 724H323Q301 724 280 747L234 795Q224 805 221 815T221 834T233 848T256 854H272Q291 854 304 847T326 821L351 770Z" />
<glyph unicode="&#xc1;" glyph-name="Aacute" horiz-adv-x="645" d="M74 -4Q51 -4 39 12T38 60L248 648Q267 703 322 703H327Q355 703 371 690T399 647L607 64Q618 31 604 14T566 -4H561Q539 -4 525 6T503 43L449 198H180L128 43Q114 -4 77 -4H74ZM206 274H423L315
590H313L206 274ZM318 821Q327 840 340 847T372 854H388Q416 854 422 835T410 795L364 747Q343 724 321 724H317Q301 724 292 737T293 770L318 821Z" />
<glyph unicode="&#xc2;" glyph-name="Acircumflex" horiz-adv-x="645" d="M74 -4Q51 -4 39 12T38 60L248 648Q267 703 322 703H327Q355 703 371 690T399 647L607 64Q618 31 604 14T566 -4H561Q539 -4 525 6T503 43L449 198H180L128 43Q114 -4 77 -4H74ZM206 274H423L315
590H313L206 274ZM279 748Q253 725 238 725H237Q228 725 220 730T209 744T208 763T221 785L257 822Q273 839 287 846T318 854H323Q340 854 354 847T384 822L420 785Q430 774 432 764T432 745T421 731T404 725H403Q388 725 362 748L320 786L279 748Z" />
<glyph unicode="&#xc3;" glyph-name="Atilde" horiz-adv-x="645" d="M74 -4Q51 -4 39 12T38 60L248 648Q267 703 322 703H327Q355 703 371 690T399 647L607 64Q618 31 604 14T566 -4H561Q539 -4 525 6T503 43L449 198H180L128 43Q114 -4 77 -4H74ZM206 274H423L315
590H313L206 274ZM376 734Q359 734 344 739T316 751T291 763T269 769Q255 769 246 763T231 747Q226 740 221 734T204 728H203Q186 728 179 742T178 779Q186 806 208 823T262 841Q278 841 293 836T321 824T347 812T369 806Q383 806 391 812T407 829Q412 836 417
841T433 847H435Q452 847 459 833T459 796Q451 769 430 752T376 734Z" />
<glyph unicode="&#xc4;" glyph-name="Adieresis" horiz-adv-x="645" d="M74 -4Q51 -4 39 12T38 60L248 648Q267 703 322 703H327Q355 703 371 690T399 647L607 64Q618 31 604 14T566 -4H561Q539 -4 525 6T503 43L449 198H180L128 43Q114 -4 77 -4H74ZM206 274H423L315
590H313L206 274ZM293 788Q293 765 277 749T237 733Q214 733 198 749T182 788Q182 810 198 826T237 842Q260 842 276 826T293 788ZM461 788Q461 765 445 749T406 733Q383 733 367 749T351 788Q351 810 367 826T406 842Q429 842 445 826T461 788Z" />
<glyph unicode="&#xc5;" glyph-name="Aring" horiz-adv-x="645" d="M74 -4Q51 -4 39 12T38 60L248 648Q267 703 322 703H327Q355 703 371 690T399 647L607 64Q618 31 604 14T566 -4H561Q539 -4 525 6T503 43L449 198H180L128 43Q114 -4 77 -4H74ZM206 274H423L315
590H313L206 274ZM417 825Q417 803 409 786T388 757T358 739T321 732Q282 732 253 756T224 825Q224 868 253 893T321 918Q340 918 357 912T388 893T409 864T417 825ZM278 825Q278 804 290 792T321 780Q340 780 352 792T365 825Q365 845 353 857T321 870Q302 870
290 858T278 825Z" />
<glyph unicode="&#xc6;" glyph-name="AE" horiz-adv-x="939" d="M507 0Q484 0 468 13T451 56V203H204L121 37Q110 14 98 5T66 -5H63Q37 -5 28 15T33 65L337 650Q348 673 367 686T418 700H854Q874 700 883 689T893 661V659Q893 642 884 631T854 620H558V397H771Q790
397 799 387T808 359V357Q808 341 799 331T771 320H558V78H867Q887 78 896 68T906 40V38Q906 21 897 11T867 0H507ZM243 280H451V620H414L243 280Z" />
<glyph unicode="&#xc7;" glyph-name="Ccedilla" horiz-adv-x="619" d="M543 42Q511 21 465 8T360 -6H358V-32Q399 -34 418 -52T438 -103Q438 -137 412 -156T344 -175Q329 -175 315 -172T289 -164Q269 -155 269 -136V-134Q269 -124 274 -118T289 -111Q295 -111
299 -113T309 -118T321 -123T338 -125Q353 -125 362 -119T371 -100Q371 -89 362 -82T330 -75H325Q304 -75 304 -55V-2Q244 7 196 34T113 106T60 212T41 350Q41 435 66 501T135 613T239 682T369 706Q420 706 461 698T536 670Q560 656 570 641T580 609V608Q580 589
569 578T540 567Q524 567 511 576T481 597T437 617T369 627Q320 627 280 610T212 558T167 472T151 354Q151 213 206 143T364 73Q413 73 443 84T492 110T524 136T552 148Q570 148 580 137T590 109V107Q590 87 579 73T543 42Z" />
<glyph unicode="&#xc8;" glyph-name="Egrave" horiz-adv-x="562" d="M131 0Q105 0 90 14T75 56V644Q75 671 90 685T131 700H478Q516 700 516 661V659Q516 620 478 620H181V397H395Q413 397 423 388T434 359V357Q434 338 424 329T395 319H181V78H491Q508 78 518
69T529 40V38Q529 19 519 10T491 0H131ZM335 770Q345 750 336 737T311 724H307Q285 724 264 747L218 795Q208 805 205 815T205 834T217 848T240 854H256Q275 854 288 847T310 821L335 770Z" />
<glyph unicode="&#xc9;" glyph-name="Eacute" horiz-adv-x="562" d="M131 0Q105 0 90 14T75 56V644Q75 671 90 685T131 700H478Q516 700 516 661V659Q516 620 478 620H181V397H395Q413 397 423 388T434 359V357Q434 338 424 329T395 319H181V78H491Q508 78 518
69T529 40V38Q529 19 519 10T491 0H131ZM301 821Q310 840 323 847T355 854H371Q399 854 405 835T393 795L347 747Q326 724 304 724H300Q284 724 275 737T276 770L301 821Z" />
<glyph unicode="&#xca;" glyph-name="Ecircumflex" horiz-adv-x="562" d="M131 0Q105 0 90 14T75 56V644Q75 671 90 685T131 700H478Q516 700 516 661V659Q516 620 478 620H181V397H395Q413 397 423 388T434 359V357Q434 338 424 329T395 319H181V78H491Q508 78
518 69T529 40V38Q529 19 519 10T491 0H131ZM250 748Q224 725 209 725H208Q199 725 191 730T180 744T179 763T192 785L228 822Q244 839 258 846T289 854H294Q311 854 325 847T355 822L391 785Q401 774 403 764T403 745T392 731T375 725H374Q359 725 333 748L291
786L250 748Z" />
<glyph unicode="&#xcb;" glyph-name="Edieresis" horiz-adv-x="562" d="M131 0Q105 0 90 14T75 56V644Q75 671 90 685T131 700H478Q516 700 516 661V659Q516 620 478 620H181V397H395Q413 397 423 388T434 359V357Q434 338 424 329T395 319H181V78H491Q508 78
518 69T529 40V38Q529 19 519 10T491 0H131ZM275 788Q275 765 259 749T219 733Q196 733 180 749T164 788Q164 810 180 826T219 842Q242 842 258 826T275 788ZM443 788Q443 765 427 749T388 733Q365 733 349 749T333 788Q333 810 349 826T388 842Q411 842 427 826T443
788Z" />
<glyph unicode="&#xcc;" glyph-name="Igrave" horiz-adv-x="263" d="M185 49Q185 22 170 9T133 -4H131Q109 -4 94 9T78 49V652Q78 675 91 689T131 704H133Q158 704 171 690T185 652V49ZM419 770Q429 750 420 737T395 724H391Q369 724 348 747L302 795Q292 805
289 815T289 834T301 848T324 854H340Q359 854 372 847T394 821L419 770Z" />
<glyph unicode="&#xcd;" glyph-name="Iacute" horiz-adv-x="263" d="M185 49Q185 22 170 9T133 -4H131Q109 -4 94 9T78 49V652Q78 675 91 689T131 704H133Q158 704 171 690T185 652V49ZM388 821Q397 840 410 847T442 854H458Q486 854 492 835T480 795L434 747Q413
724 391 724H387Q371 724 362 737T363 770L388 821Z" />
<glyph unicode="&#xce;" glyph-name="Icircumflex" horiz-adv-x="263" d="M185 49Q185 22 170 9T133 -4H131Q109 -4 94 9T78 49V652Q78 675 91 689T131 704H133Q158 704 171 690T185 652V49ZM347 748Q321 725 306 725H305Q296 725 288 730T277 744T276 763T289
785L325 822Q341 839 355 846T386 854H391Q408 854 422 847T452 822L488 785Q498 774 500 764T500 745T489 731T472 725H471Q456 725 430 748L388 786L347 748Z" />
<glyph unicode="&#xcf;" glyph-name="Idieresis" horiz-adv-x="263" d="M185 49Q185 22 170 9T133 -4H131Q109 -4 94 9T78 49V652Q78 675 91 689T131 704H133Q158 704 171 690T185 652V49ZM360 788Q360 765 344 749T304 733Q281 733 265 749T249 788Q249 810 265
826T304 842Q327 842 343 826T360 788ZM528 788Q528 765 512 749T473 733Q450 733 434 749T418 788Q418 810 434 826T473 842Q496 842 512 826T528 788Z" />
<glyph unicode="&#xd0;" glyph-name="Eth" horiz-adv-x="680" d="M134 0Q109 0 94 14T79 56V311H47Q27 311 18 322T9 349V351Q9 366 18 377T47 388H79V644Q79 671 94 685T134 700H283Q458 700 551 618T644 352Q644 170 551 85T281 0H134ZM185 311V78H281Q345 78
393 93T472 140T518 225T534 351Q534 424 519 475T473 559T394 606T281 621H185V388H330Q350 388 358 377T367 351V349Q367 334 359 323T330 311H185Z" />
<glyph unicode="&#xd1;" glyph-name="Ntilde" horiz-adv-x="689" d="M120 -4Q100 -4 88 7T75 41V644Q75 670 90 685T131 700H152Q178 700 195 688T228 650L520 177H522V659Q522 682 535 693T567 704H569Q588 704 601 693T614 659V48Q614 25 600 12T563 -1H558Q534
-1 520 9T491 42L169 568H167V41Q167 18 154 7T121 -4H120ZM415 734Q398 734 383 739T355 751T330 763T308 769Q294 769 285 763T270 747Q265 740 260 734T243 728H242Q225 728 218 742T217 779Q225 806 247 823T301 841Q317 841 332 836T360 824T386 812T408 806Q422
806 430 812T446 829Q451 836 456 841T472 847H474Q491 847 498 833T498 796Q490 769 469 752T415 734Z" />
<glyph unicode="&#xd2;" glyph-name="Ograve" horiz-adv-x="724" d="M688 350Q688 263 662 197T591 85T487 17T363 -6Q297 -6 238 17T134 85T63 196T37 350Q37 436 63 502T134 614T238 682T363 706Q428 706 487 683T590 614T661 503T688 350ZM146 348Q146 278
162 226T208 139T276 87T363 70Q409 70 448 87T516 138T561 225T578 348Q578 418 562 471T516 559T448 611T363 629Q316 629 277 612T208 559T163 471T146 348ZM391 770Q401 750 392 737T367 724H363Q341 724 320 747L274 795Q264 805 261 815T261 834T273 848T296
854H312Q331 854 344 847T366 821L391 770Z" />
<glyph unicode="&#xd3;" glyph-name="Oacute" horiz-adv-x="724" d="M688 350Q688 263 662 197T591 85T487 17T363 -6Q297 -6 238 17T134 85T63 196T37 350Q37 436 63 502T134 614T238 682T363 706Q428 706 487 683T590 614T661 503T688 350ZM146 348Q146 278
162 226T208 139T276 87T363 70Q409 70 448 87T516 138T561 225T578 348Q578 418 562 471T516 559T448 611T363 629Q316 629 277 612T208 559T163 471T146 348ZM361 821Q370 840 383 847T415 854H431Q459 854 465 835T453 795L407 747Q386 724 364 724H360Q344
724 335 737T336 770L361 821Z" />
<glyph unicode="&#xd4;" glyph-name="Ocircumflex" horiz-adv-x="724" d="M688 350Q688 263 662 197T591 85T487 17T363 -6Q297 -6 238 17T134 85T63 196T37 350Q37 436 63 502T134 614T238 682T363 706Q428 706 487 683T590 614T661 503T688 350ZM146 348Q146
278 162 226T208 139T276 87T363 70Q409 70 448 87T516 138T561 225T578 348Q578 418 562 471T516 559T448 611T363 629Q316 629 277 612T208 559T163 471T146 348ZM319 748Q293 725 278 725H277Q268 725 260 730T249 744T248 763T261 785L297 822Q313 839 327
846T358 854H363Q380 854 394 847T424 822L460 785Q470 774 472 764T472 745T461 731T444 725H443Q428 725 402 748L360 786L319 748Z" />
<glyph unicode="&#xd5;" glyph-name="Otilde" horiz-adv-x="724" d="M688 350Q688 263 662 197T591 85T487 17T363 -6Q297 -6 238 17T134 85T63 196T37 350Q37 436 63 502T134 614T238 682T363 706Q428 706 487 683T590 614T661 503T688 350ZM146 348Q146 278
162 226T208 139T276 87T363 70Q409 70 448 87T516 138T561 225T578 348Q578 418 562 471T516 559T448 611T363 629Q316 629 277 612T208 559T163 471T146 348ZM419 734Q402 734 387 739T359 751T334 763T312 769Q298 769 289 763T274 747Q269 740 264 734T247
728H246Q229 728 222 742T221 779Q229 806 251 823T305 841Q321 841 336 836T364 824T390 812T412 806Q426 806 434 812T450 829Q455 836 460 841T476 847H478Q495 847 502 833T502 796Q494 769 473 752T419 734Z" />
<glyph unicode="&#xd6;" glyph-name="Odieresis" horiz-adv-x="724" d="M688 350Q688 263 662 197T591 85T487 17T363 -6Q297 -6 238 17T134 85T63 196T37 350Q37 436 63 502T134 614T238 682T363 706Q428 706 487 683T590 614T661 503T688 350ZM146 348Q146 278
162 226T208 139T276 87T363 70Q409 70 448 87T516 138T561 225T578 348Q578 418 562 471T516 559T448 611T363 629Q316 629 277 612T208 559T163 471T146 348ZM333 788Q333 765 317 749T277 733Q254 733 238 749T222 788Q222 810 238 826T277 842Q300 842 316
826T333 788ZM501 788Q501 765 485 749T446 733Q423 733 407 749T391 788Q391 810 407 826T446 842Q469 842 485 826T501 788Z" />
<glyph unicode="&#xd7;" glyph-name="multiply" horiz-adv-x="495" d="M124 158Q110 144 95 144H94Q81 144 72 151T58 168T55 191T69 215L193 339L69 463Q58 474 56 486T58 508T72 526T95 533H96Q110 533 124 519L247 395L370 518Q385 533 399 533H400Q413 533
423 526T437 509T439 486T426 463L302 339L426 215Q437 204 439 192T437 169T423 151T401 144H400Q385 144 371 158L247 282L124 158Z" />
<glyph unicode="&#xd8;" glyph-name="Oslash" horiz-adv-x="724" d="M608 595Q645 550 666 489T688 350Q688 263 662 197T591 85T487 17T363 -6Q253 -6 169 55L123 -2Q112 -16 104 -21T87 -26H85Q63 -26 54 -9T63 30L120 100Q81 145 59 207T37 350Q37 436 63 502T134
614T238 682T363 706Q417 706 467 690T559 641L602 694Q613 708 622 713T639 718H641Q662 718 671 701T663 662L608 595ZM145 348Q145 294 154 251T181 176L504 574Q476 602 441 615T363 629Q316 629 277 612T208 559T162 471T145 348ZM579 348Q579 449 545 517L223
121Q278 70 363 70Q409 70 448 87T517 138T562 225T579 348Z" />
<glyph unicode="&#xd9;" glyph-name="Ugrave" horiz-adv-x="679" d="M178 253Q178 200 191 166T227 112T282 83T352 75Q388 75 418 83T470 111T504 165T516 253V659Q516 681 528 692T561 704H563Q584 704 596 693T609 659V256Q609 122 543 58T346 -6Q283 -6 232
10T146 58T91 140T71 256V652Q71 675 84 689T124 704H125Q150 704 164 690T178 652V253ZM377 770Q387 750 378 737T353 724H349Q327 724 306 747L260 795Q250 805 247 815T247 834T259 848T282 854H298Q317 854 330 847T352 821L377 770Z" />
<glyph unicode="&#xda;" glyph-name="Uacute" horiz-adv-x="679" d="M178 253Q178 200 191 166T227 112T282 83T352 75Q388 75 418 83T470 111T504 165T516 253V659Q516 681 528 692T561 704H563Q584 704 596 693T609 659V256Q609 122 543 58T346 -6Q283 -6 232
10T146 58T91 140T71 256V652Q71 675 84 689T124 704H125Q150 704 164 690T178 652V253ZM346 821Q355 840 368 847T400 854H416Q444 854 450 835T438 795L392 747Q371 724 349 724H345Q329 724 320 737T321 770L346 821Z" />
<glyph unicode="&#xdb;" glyph-name="Ucircumflex" horiz-adv-x="679" d="M178 253Q178 200 191 166T227 112T282 83T352 75Q388 75 418 83T470 111T504 165T516 253V659Q516 681 528 692T561 704H563Q584 704 596 693T609 659V256Q609 122 543 58T346 -6Q283
-6 232 10T146 58T91 140T71 256V652Q71 675 84 689T124 704H125Q150 704 164 690T178 652V253ZM302 748Q276 725 261 725H260Q251 725 243 730T232 744T231 763T244 785L280 822Q296 839 310 846T341 854H346Q363 854 377 847T407 822L443 785Q453 774 455 764T455
745T444 731T427 725H426Q411 725 385 748L343 786L302 748Z" />
<glyph unicode="&#xdc;" glyph-name="Udieresis" horiz-adv-x="679" d="M178 253Q178 200 191 166T227 112T282 83T352 75Q388 75 418 83T470 111T504 165T516 253V659Q516 681 528 692T561 704H563Q584 704 596 693T609 659V256Q609 122 543 58T346 -6Q283 -6
232 10T146 58T91 140T71 256V652Q71 675 84 689T124 704H125Q150 704 164 690T178 652V253ZM318 788Q318 765 302 749T262 733Q239 733 223 749T207 788Q207 810 223 826T262 842Q285 842 301 826T318 788ZM486 788Q486 765 470 749T431 733Q408 733 392 749T376
788Q376 810 392 826T431 842Q454 842 470 826T486 788Z" />
<glyph unicode="&#xdd;" glyph-name="Yacute" horiz-adv-x="583" d="M513 704Q540 704 551 684T549 637L349 285V49Q349 22 334 9T297 -4H295Q273 -4 258 9T242 49V282L40 629Q32 643 32 656T38 680T57 697T85 704H87Q104 704 115 692T140 657L300 376H302L462
664Q473 684 484 694T510 704H513ZM297 821Q306 840 319 847T351 854H367Q395 854 401 835T389 795L343 747Q322 724 300 724H296Q280 724 271 737T272 770L297 821Z" />
<glyph unicode="&#xde;" glyph-name="Thorn" horiz-adv-x="578" d="M128 -4Q105 -4 90 9T75 49V652Q75 675 88 689T128 704H129Q155 704 168 690T182 652V564H283Q344 564 393 553T476 516T529 452T547 358Q547 248 477 199T280 149H182V49Q182 22 167 9T129 -4H128ZM182
484V224H280Q363 224 401 254T439 357Q439 428 401 456T280 484H182Z" />
<glyph unicode="&#xdf;" glyph-name="germandbls" horiz-adv-x="596" d="M383 69Q474 69 474 137Q474 169 450 185T372 222Q318 242 288 269T258 344Q258 386 279 412T333 468Q364 494 385 515T406 566Q406 600 379 617T305 635Q234 635 200 599T165 498V44Q165
19 151 7T115 -5H113Q92 -5 79 7T65 44V501Q65 600 128 654T306 708Q349 708 386 700T449 675T490 632T505 569Q505 548 497 530T476 494T444 462T407 432Q373 407 360 393T347 361Q347 344 364 332T428 301Q460 288 486 275T530 244T557 202T567 145Q567 76 518
35T378 -6Q346 -6 320 -1T274 16Q239 36 239 66V68Q239 84 249 95T276 106Q287 106 296 100T316 88T343 75T383 69Z" />
<glyph unicode="&#xe0;" glyph-name="agrave" horiz-adv-x="519" d="M412 -4Q366 -4 359 58Q329 27 291 11T198 -6Q161 -6 130 4T77 33T42 82T29 149Q29 189 44 219T87 269T153 298T238 308Q273 308 301 305T358 294V365Q358 413 330 434T247 456Q208 456 186
449T149 433T125 417T101 409Q85 409 75 420T64 447V448Q64 464 74 477T108 502Q137 515 176 522T260 530Q355 530 406 494T458 372V46Q458 -4 414 -4H412ZM229 61Q274 61 304 79T358 123V236Q335 241 310 244T255 247Q198 247 163 226T127 155Q127 105 155 83T229
61ZM282 610Q292 592 284 577T257 562H255Q235 562 214 583L154 646Q145 656 143 666T143 686T154 700T175 706H196Q217 706 229 697T252 667L282 610Z" />
<glyph unicode="&#xe1;" glyph-name="aacute" horiz-adv-x="519" d="M412 -4Q366 -4 359 58Q329 27 291 11T198 -6Q161 -6 130 4T77 33T42 82T29 149Q29 189 44 219T87 269T153 298T238 308Q273 308 301 305T358 294V365Q358 413 330 434T247 456Q208 456 186
449T149 433T125 417T101 409Q85 409 75 420T64 447V448Q64 464 74 477T108 502Q137 515 176 522T260 530Q355 530 406 494T458 372V46Q458 -4 414 -4H412ZM229 61Q274 61 304 79T358 123V236Q335 241 310 244T255 247Q198 247 163 226T127 155Q127 105 155 83T229
61ZM269 667Q280 687 292 696T325 706H346Q358 706 366 701T378 686T379 667T367 646L307 583Q286 562 266 562H264Q245 562 237 577T239 610L269 667Z" />
<glyph unicode="&#xe2;" glyph-name="acircumflex" horiz-adv-x="519" d="M412 -4Q366 -4 359 58Q329 27 291 11T198 -6Q161 -6 130 4T77 33T42 82T29 149Q29 189 44 219T87 269T153 298T238 308Q273 308 301 305T358 294V365Q358 413 330 434T247 456Q208 456
186 449T149 433T125 417T101 409Q85 409 75 420T64 447V448Q64 464 74 477T108 502Q137 515 176 522T260 530Q355 530 406 494T458 372V46Q458 -4 414 -4H412ZM229 61Q274 61 304 79T358 123V236Q335 241 310 244T255 247Q198 247 163 226T127 155Q127 105 155
83T229 61ZM267 708Q284 708 298 700T327 675L366 631Q378 617 380 605T380 583T368 569T350 563H348Q332 563 310 586L265 634L221 586Q199 563 183 563H181Q172 563 164 568T151 583T150 604T165 631L204 675Q232 708 264 708H267Z" />
<glyph unicode="&#xe3;" glyph-name="atilde" horiz-adv-x="519" d="M412 -4Q366 -4 359 58Q329 27 291 11T198 -6Q161 -6 130 4T77 33T42 82T29 149Q29 189 44 219T87 269T153 298T238 308Q273 308 301 305T358 294V365Q358 413 330 434T247 456Q208 456 186
449T149 433T125 417T101 409Q85 409 75 420T64 447V448Q64 464 74 477T108 502Q137 515 176 522T260 530Q355 530 406 494T458 372V46Q458 -4 414 -4H412ZM229 61Q274 61 304 79T358 123V236Q335 241 310 244T255 247Q198 247 163 226T127 155Q127 105 155 83T229
61ZM317 576Q300 576 285 581T257 593T232 605T210 611Q196 611 187 605T172 589Q167 582 162 577T145 571H144Q127 571 120 584T119 621Q127 648 149 666T203 684Q219 684 234 679T262 667T288 655T310 649Q324 649 332 655T348 672Q353 679 358 684T374 690H376Q393
690 400 676T400 639Q392 612 371 594T317 576Z" />
<glyph unicode="&#xe4;" glyph-name="adieresis" horiz-adv-x="519" d="M412 -4Q366 -4 359 58Q329 27 291 11T198 -6Q161 -6 130 4T77 33T42 82T29 149Q29 189 44 219T87 269T153 298T238 308Q273 308 301 305T358 294V365Q358 413 330 434T247 456Q208 456 186
449T149 433T125 417T101 409Q85 409 75 420T64 447V448Q64 464 74 477T108 502Q137 515 176 522T260 530Q355 530 406 494T458 372V46Q458 -4 414 -4H412ZM229 61Q274 61 304 79T358 123V236Q335 241 310 244T255 247Q198 247 163 226T127 155Q127 105 155 83T229
61ZM230 637Q230 614 214 599T174 583Q151 583 135 598T119 637Q119 660 135 675T174 691Q197 691 213 676T230 637ZM398 637Q398 614 382 599T343 583Q320 583 304 598T288 637Q288 660 304 675T343 691Q366 691 382 676T398 637Z" />
<glyph unicode="&#xe5;" glyph-name="aring" horiz-adv-x="519" d="M412 -4Q366 -4 359 58Q329 27 291 11T198 -6Q161 -6 130 4T77 33T42 82T29 149Q29 189 44 219T87 269T153 298T238 308Q273 308 301 305T358 294V365Q358 413 330 434T247 456Q208 456 186 449T149
433T125 417T101 409Q85 409 75 420T64 447V448Q64 464 74 477T108 502Q137 515 176 522T260 530Q355 530 406 494T458 372V46Q458 -4 414 -4H412ZM229 61Q274 61 304 79T358 123V236Q335 241 310 244T255 247Q198 247 163 226T127 155Q127 105 155 83T229 61ZM355
663Q355 641 347 624T326 595T296 577T259 570Q220 570 191 594T162 663Q162 706 191 731T259 756Q278 756 295 750T326 731T347 702T355 663ZM216 663Q216 643 228 631T259 618Q278 618 290 630T303 663Q303 683 291 696T259 709Q240 709 228 696T216 663Z" />
<glyph unicode="&#xe6;" glyph-name="ae" horiz-adv-x="856" d="M612 -6Q540 -6 488 18T403 90Q371 47 323 21T206 -6Q126 -6 78 33T29 151Q29 190 44 219T88 268T156 298T243 308H358V365Q358 413 330 434T247 456Q208 456 186 449T149 433T125 417T101 409Q85
409 75 420T64 447V448Q64 464 74 477T108 502Q137 515 176 522T260 530Q325 530 366 514T428 459Q460 493 504 511T601 530Q710 530 768 468T826 290Q826 267 814 256T778 244H459Q463 149 505 109T626 68Q663 68 686 76T726 93T753 111T778 119Q795 119 804 109T814
82V80Q814 66 805 54T781 33Q753 16 713 5T612 -6ZM227 61Q281 61 316 83T376 141Q368 164 363 189T357 244H254Q197 244 162 224T127 155Q127 105 155 83T227 61ZM601 464Q547 464 509 429T461 308H727Q725 394 692 429T601 464Z" />
<glyph unicode="&#xe7;" glyph-name="ccedilla" horiz-adv-x="493" d="M427 27Q401 12 366 3T289 -6H279V-32Q320 -34 339 -52T359 -103Q359 -137 333 -156T265 -175Q250 -175 236 -172T210 -164Q190 -155 190 -136V-134Q190 -124 195 -118T210 -111Q216 -111
220 -113T230 -118T242 -123T259 -125Q274 -125 283 -119T292 -100Q292 -89 283 -82T251 -75H246Q225 -75 225 -55V0Q132 17 82 85T31 261Q31 324 50 374T105 458T189 511T295 530Q330 530 365 524T423 505Q443 494 451 481T460 452V450Q460 432 449 422T424 412Q410
412 400 418T378 433T346 448T294 455Q258 455 229 443T178 405T144 344T132 261Q132 165 175 117T292 69Q325 69 346 77T381 94T405 111T427 119Q444 119 454 109T464 81V80Q464 49 427 27Z" />
<glyph unicode="&#xe8;" glyph-name="egrave" horiz-adv-x="530" d="M133 244Q137 149 179 109T300 68Q337 68 360 76T400 93T427 111T452 119Q469 119 478 109T488 82V80Q488 66 479 54T455 33Q427 16 387 5T286 -6Q163 -6 97 65T31 260Q31 322 49 372T100 457T177
511T275 530Q385 530 442 468T500 290Q500 244 452 244H133ZM275 464Q221 464 183 429T135 308H401Q399 394 366 429T275 464ZM295 610Q305 592 297 577T270 562H268Q248 562 227 583L167 646Q158 656 156 666T156 686T167 700T188 706H209Q230 706 242 697T265
667L295 610Z" />
<glyph unicode="&#xe9;" glyph-name="eacute" horiz-adv-x="530" d="M133 244Q137 149 179 109T300 68Q337 68 360 76T400 93T427 111T452 119Q469 119 478 109T488 82V80Q488 66 479 54T455 33Q427 16 387 5T286 -6Q163 -6 97 65T31 260Q31 322 49 372T100 457T177
511T275 530Q385 530 442 468T500 290Q500 244 452 244H133ZM275 464Q221 464 183 429T135 308H401Q399 394 366 429T275 464ZM282 667Q293 687 305 696T338 706H359Q371 706 379 701T391 686T392 667T380 646L320 583Q299 562 279 562H277Q258 562 250 577T252
610L282 667Z" />
<glyph unicode="&#xea;" glyph-name="ecircumflex" horiz-adv-x="530" d="M133 244Q137 149 179 109T300 68Q337 68 360 76T400 93T427 111T452 119Q469 119 478 109T488 82V80Q488 66 479 54T455 33Q427 16 387 5T286 -6Q163 -6 97 65T31 260Q31 322 49 372T100
457T177 511T275 530Q385 530 442 468T500 290Q500 244 452 244H133ZM275 464Q221 464 183 429T135 308H401Q399 394 366 429T275 464ZM275 708Q292 708 306 700T335 675L374 631Q386 617 388 605T388 583T376 569T358 563H356Q340 563 318 586L273 634L229 586Q207
563 191 563H189Q180 563 172 568T159 583T158 604T173 631L212 675Q240 708 272 708H275Z" />
<glyph unicode="&#xeb;" glyph-name="edieresis" horiz-adv-x="530" d="M133 244Q137 149 179 109T300 68Q337 68 360 76T400 93T427 111T452 119Q469 119 478 109T488 82V80Q488 66 479 54T455 33Q427 16 387 5T286 -6Q163 -6 97 65T31 260Q31 322 49 372T100
457T177 511T275 530Q385 530 442 468T500 290Q500 244 452 244H133ZM275 464Q221 464 183 429T135 308H401Q399 394 366 429T275 464ZM244 637Q244 614 228 599T188 583Q165 583 149 598T133 637Q133 660 149 675T188 691Q211 691 227 676T244 637ZM412 637Q412
614 396 599T357 583Q334 583 318 598T302 637Q302 660 318 675T357 691Q380 691 396 676T412 637Z" />
<glyph unicode="&#xec;" glyph-name="igrave" horiz-adv-x="233" d="M166 45Q166 20 153 8T117 -4H115Q94 -4 80 8T66 45V477Q66 527 113 527H115Q141 527 153 510T166 451V45ZM402 610Q412 592 404 577T377 562H375Q355 562 334 583L274 646Q265 656 263 666T263
686T274 700T295 706H316Q337 706 349 697T372 667L402 610Z" />
<glyph unicode="&#xed;" glyph-name="iacute" horiz-adv-x="233" d="M166 45Q166 20 153 8T117 -4H115Q94 -4 80 8T66 45V477Q66 527 113 527H115Q141 527 153 510T166 451V45ZM375 667Q386 687 398 696T431 706H452Q464 706 472 701T484 686T485 667T473 646L413
583Q392 562 372 562H370Q351 562 343 577T345 610L375 667Z" />
<glyph unicode="&#xee;" glyph-name="icircumflex" horiz-adv-x="233" d="M166 45Q166 20 153 8T117 -4H115Q94 -4 80 8T66 45V477Q66 527 113 527H115Q141 527 153 510T166 451V45ZM377 708Q394 708 408 700T437 675L476 631Q488 617 490 605T490 583T478 569T460
563H458Q442 563 420 586L375 634L331 586Q309 563 293 563H291Q282 563 274 568T261 583T260 604T275 631L314 675Q342 708 374 708H377Z" />
<glyph unicode="&#xef;" glyph-name="idieresis" horiz-adv-x="233" d="M90 637Q90 614 74 599T35 583Q12 583 -4 598T-21 637Q-21 660 -5 675T35 691Q58 691 74 676T90 637ZM253 637Q253 614 237 599T198 583Q175 583 159 598T143 637Q143 660 159 675T198 691Q221
691 237 676T253 637ZM166 45Q166 20 153 8T117 -4H115Q94 -4 80 8T66 45V477Q66 527 113 527H115Q141 527 153 510T166 451V45Z" />
<glyph unicode="&#xf0;" glyph-name="eth" horiz-adv-x="573" d="M372 635Q452 582 497 494T542 277Q542 205 523 152T469 63T387 11T284 -6Q228 -6 182 12T102 64T50 146T31 255Q31 315 48 363T97 445T171 497T267 515Q323 515 358 496T420 446Q379 535 303 584L261
553Q240 535 227 535H226Q216 535 209 540T200 553T200 569T212 585L248 611Q237 616 225 619T201 627Q181 632 173 640T164 665V667Q164 690 180 696T225 697Q251 691 274 684T320 665L353 690Q375 707 387 707H388Q398 707 405 702T414 688T413 672T400 656L372
635ZM132 255Q132 165 174 116T290 67Q362 67 401 115T441 255Q441 345 402 394T290 444Q218 444 175 395T132 255Z" />
<glyph unicode="&#xf1;" glyph-name="ntilde" horiz-adv-x="572" d="M327 449Q282 449 241 432T165 394V45Q165 20 151 8T116 -4H114Q92 -4 79 8T65 45V477Q65 527 111 527H113Q137 527 150 512T165 455Q205 486 259 508T373 530Q401 530 426 524T470 501T500
458T511 387V45Q511 20 498 8T462 -4H460Q438 -4 425 8T411 45V365Q411 415 389 432T327 449ZM348 576Q331 576 316 581T288 593T263 605T241 611Q227 611 218 605T203 589Q198 582 193 577T176 571H175Q158 571 151 584T150 621Q158 648 180 666T234 684Q250 684
265 679T293 667T319 655T341 649Q355 649 363 655T379 672Q384 679 389 684T405 690H407Q424 690 431 676T431 639Q423 612 402 594T348 576Z" />
<glyph unicode="&#xf2;" glyph-name="ograve" horiz-adv-x="573" d="M542 260Q542 198 523 149T469 65T388 12T286 -6Q231 -6 185 12T104 64T51 148T31 260Q31 323 50 373T104 458T184 511T286 530Q341 530 388 512T469 458T522 373T542 260ZM132 260Q132 164
174 116T286 67Q357 67 399 115T441 260Q441 356 399 406T286 457Q216 457 174 407T132 260ZM309 610Q319 592 311 577T284 562H282Q262 562 241 583L181 646Q172 656 170 666T170 686T181 700T202 706H223Q244 706 256 697T279 667L309 610Z" />
<glyph unicode="&#xf3;" glyph-name="oacute" horiz-adv-x="573" d="M542 260Q542 198 523 149T469 65T388 12T286 -6Q231 -6 185 12T104 64T51 148T31 260Q31 323 50 373T104 458T184 511T286 530Q341 530 388 512T469 458T522 373T542 260ZM132 260Q132 164
174 116T286 67Q357 67 399 115T441 260Q441 356 399 406T286 457Q216 457 174 407T132 260ZM296 667Q307 687 319 696T352 706H373Q385 706 393 701T405 686T406 667T394 646L334 583Q313 562 293 562H291Q272 562 264 577T266 610L296 667Z" />
<glyph unicode="&#xf4;" glyph-name="ocircumflex" horiz-adv-x="573" d="M542 260Q542 198 523 149T469 65T388 12T286 -6Q231 -6 185 12T104 64T51 148T31 260Q31 323 50 373T104 458T184 511T286 530Q341 530 388 512T469 458T522 373T542 260ZM132 260Q132
164 174 116T286 67Q357 67 399 115T441 260Q441 356 399 406T286 457Q216 457 174 407T132 260ZM289 708Q306 708 320 700T349 675L388 631Q400 617 402 605T402 583T390 569T372 563H370Q354 563 332 586L287 634L243 586Q221 563 205 563H203Q194 563 186 568T173
583T172 604T187 631L226 675Q254 708 286 708H289Z" />
<glyph unicode="&#xf5;" glyph-name="otilde" horiz-adv-x="573" d="M542 260Q542 198 523 149T469 65T388 12T286 -6Q231 -6 185 12T104 64T51 148T31 260Q31 323 50 373T104 458T184 511T286 530Q341 530 388 512T469 458T522 373T542 260ZM132 260Q132 164
174 116T286 67Q357 67 399 115T441 260Q441 356 399 406T286 457Q216 457 174 407T132 260ZM343 576Q326 576 311 581T283 593T258 605T236 611Q222 611 213 605T198 589Q193 582 188 577T171 571H170Q153 571 146 584T145 621Q153 648 175 666T229 684Q245 684
260 679T288 667T314 655T336 649Q350 649 358 655T374 672Q379 679 384 684T400 690H402Q419 690 426 676T426 639Q418 612 397 594T343 576Z" />
<glyph unicode="&#xf6;" glyph-name="odieresis" horiz-adv-x="573" d="M542 260Q542 198 523 149T469 65T388 12T286 -6Q231 -6 185 12T104 64T51 148T31 260Q31 323 50 373T104 458T184 511T286 530Q341 530 388 512T469 458T522 373T542 260ZM132 260Q132 164
174 116T286 67Q357 67 399 115T441 260Q441 356 399 406T286 457Q216 457 174 407T132 260ZM257 637Q257 614 241 599T201 583Q178 583 162 598T146 637Q146 660 162 675T201 691Q224 691 240 676T257 637ZM425 637Q425 614 409 599T370 583Q347 583 331 598T315
637Q315 660 331 675T370 691Q393 691 409 676T425 637Z" />
<glyph unicode="&#xf7;" glyph-name="divide" horiz-adv-x="506" d="M68 305Q46 305 37 316T28 345V347Q28 363 37 374T68 386H438Q459 386 468 375T477 347V345Q477 328 468 317T438 305H68ZM192 181Q192 207 209 224T253 242Q279 242 296 225T314 181Q314 155
297 138T253 121Q227 121 210 138T192 181ZM192 509Q192 535 209 552T253 570Q279 570 296 553T314 509Q314 484 297 467T253 449Q227 449 210 466T192 509Z" />
<glyph unicode="&#xf8;" glyph-name="oslash" horiz-adv-x="573" d="M479 446Q509 411 525 365T542 260Q542 198 523 149T469 65T388 12T286 -6Q201 -6 139 35L100 -12Q92 -22 85 -25T72 -29H71Q51 -29 43 -12T51 24L93 75Q64 109 48 155T31 260Q31 323 50 373T104
458T184 511T286 530Q328 530 365 519T434 486L469 529Q477 539 484 542T497 546H498Q518 546 526 529T518 493L479 446ZM443 260Q443 328 421 375L189 96Q227 65 286 65Q357 65 400 114T443 260ZM131 260Q131 189 152 146L383 425Q344 458 286 458Q216 458 174
407T131 260Z" />
<glyph unicode="&#xf9;" glyph-name="ugrave" horiz-adv-x="576" d="M459 -4Q414 -4 408 61Q368 32 317 13T211 -7Q179 -7 153 0T106 23T75 66T64 133V478Q64 501 77 514T113 527H115Q138 527 151 514T164 478V154Q164 105 186 88T249 70Q292 70 332 86T407 124V478Q407
501 420 514T456 527H458Q481 527 494 514T507 478V46Q507 -4 461 -4H459ZM309 610Q319 592 311 577T284 562H282Q262 562 241 583L181 646Q172 656 170 666T170 686T181 700T202 706H223Q244 706 256 697T279 667L309 610Z" />
<glyph unicode="&#xfa;" glyph-name="uacute" horiz-adv-x="576" d="M459 -4Q414 -4 408 61Q368 32 317 13T211 -7Q179 -7 153 0T106 23T75 66T64 133V478Q64 501 77 514T113 527H115Q138 527 151 514T164 478V154Q164 105 186 88T249 70Q292 70 332 86T407 124V478Q407
501 420 514T456 527H458Q481 527 494 514T507 478V46Q507 -4 461 -4H459ZM296 667Q307 687 319 696T352 706H373Q385 706 393 701T405 686T406 667T394 646L334 583Q313 562 293 562H291Q272 562 264 577T266 610L296 667Z" />
<glyph unicode="&#xfb;" glyph-name="ucircumflex" horiz-adv-x="576" d="M459 -4Q414 -4 408 61Q368 32 317 13T211 -7Q179 -7 153 0T106 23T75 66T64 133V478Q64 501 77 514T113 527H115Q138 527 151 514T164 478V154Q164 105 186 88T249 70Q292 70 332 86T407
124V478Q407 501 420 514T456 527H458Q481 527 494 514T507 478V46Q507 -4 461 -4H459ZM288 708Q305 708 319 700T348 675L387 631Q399 617 401 605T401 583T389 569T371 563H369Q353 563 331 586L286 634L242 586Q220 563 204 563H202Q193 563 185 568T172 583T171
604T186 631L225 675Q253 708 285 708H288Z" />
<glyph unicode="&#xfc;" glyph-name="udieresis" horiz-adv-x="576" d="M459 -4Q414 -4 408 61Q368 32 317 13T211 -7Q179 -7 153 0T106 23T75 66T64 133V478Q64 501 77 514T113 527H115Q138 527 151 514T164 478V154Q164 105 186 88T249 70Q292 70 332 86T407
124V478Q407 501 420 514T456 527H458Q481 527 494 514T507 478V46Q507 -4 461 -4H459ZM258 637Q258 614 242 599T202 583Q179 583 163 598T147 637Q147 660 163 675T202 691Q225 691 241 676T258 637ZM426 637Q426 614 410 599T371 583Q348 583 332 598T316 637Q316
660 332 675T371 691Q394 691 410 676T426 637Z" />
<glyph unicode="&#xfd;" glyph-name="yacute" horiz-adv-x="527" d="M248 -126Q239 -147 228 -157T200 -167H199Q175 -167 163 -148T164 -97L223 34L38 452Q31 467 31 480T37 504T54 520T79 526H80Q97 526 109 514T131 478L272 151H274L408 483Q416 505 426 515T454
526H455Q483 526 494 506T493 456L248 -126ZM283 667Q294 687 306 696T339 706H360Q372 706 380 701T392 686T393 667T381 646L321 583Q300 562 280 562H278Q259 562 251 577T253 610L283 667Z" />
<glyph unicode="&#xfe;" glyph-name="thorn" horiz-adv-x="574" d="M113 704Q139 704 152 687T165 628V453Q195 483 238 506T342 530Q379 530 415 517T480 474T525 394T543 273Q543 197 524 146T472 63T399 17T316 3Q265 3 229 15T165 51V-114Q165 -139 151 -151T116
-163H114Q92 -163 79 -151T65 -114V654Q65 704 111 704H113ZM307 452Q265 452 229 433T165 388V123Q189 99 220 87T293 74Q321 74 347 82T395 111T429 169T442 263Q442 320 431 356T400 414T357 444T307 452Z" />
<glyph unicode="&#xff;" glyph-name="ydieresis" horiz-adv-x="527" d="M248 -126Q239 -147 228 -157T200 -167H199Q175 -167 163 -148T164 -97L223 34L38 452Q31 467 31 480T37 504T54 520T79 526H80Q97 526 109 514T131 478L272 151H274L408 483Q416 505 426
515T454 526H455Q483 526 494 506T493 456L248 -126ZM244 637Q244 614 228 599T188 583Q165 583 149 598T133 637Q133 660 149 675T188 691Q211 691 227 676T244 637ZM412 637Q412 614 396 599T357 583Q334 583 318 598T302 637Q302 660 318 675T357 691Q380 691
396 676T412 637Z" />
<glyph unicode="&#x100;" glyph-name="Amacron" horiz-adv-x="645" d="M74 -4Q51 -4 39 12T38 60L248 648Q267 703 322 703H327Q355 703 371 690T399 647L607 64Q618 31 604 14T566 -4H561Q539 -4 525 6T503 43L449 198H180L128 43Q114 -4 77 -4H74ZM206 274H423L315
590H313L206 274ZM415 1071Q434 1071 441 1061T449 1037V1035Q449 1021 442 1011T415 1001H225Q206 1001 199 1011T191 1035V1037Q191 1051 198 1061T225 1071H415Z" />
<glyph unicode="&#x101;" glyph-name="amacron" horiz-adv-x="519" d="M412 -4Q366 -4 359 58Q329 27 291 11T198 -6Q161 -6 130 4T77 33T42 82T29 149Q29 189 44 219T87 269T153 298T238 308Q273 308 301 305T358 294V365Q358 413 330 434T247 456Q208 456 186
449T149 433T125 417T101 409Q85 409 75 420T64 447V448Q64 464 74 477T108 502Q137 515 176 522T260 530Q355 530 406 494T458 372V46Q458 -4 414 -4H412ZM229 61Q274 61 304 79T358 123V236Q335 241 310 244T255 247Q198 247 163 226T127 155Q127 105 155 83T229
61ZM349 666Q368 666 375 656T382 633V631Q382 617 375 607T349 597H167Q148 597 141 607T133 631V633Q133 646 140 656T167 666H349Z" />
<glyph unicode="&#x102;" glyph-name="Abreve" horiz-adv-x="645" d="M74 -4Q51 -4 39 12T38 60L248 648Q267 703 322 703H327Q355 703 371 690T399 647L607 64Q618 31 604 14T566 -4H561Q539 -4 525 6T503 43L449 198H180L128 43Q114 -4 77 -4H74ZM206 274H423L315
590H313L206 274ZM321 729Q277 729 246 748T201 800Q191 821 198 836T223 851H225Q236 851 243 845T258 829Q271 814 286 806T321 797Q341 797 355 805T383 829Q391 838 398 844T417 851H418Q435 851 442 836T441 800Q427 768 396 749T321 729Z" />
<glyph unicode="&#x103;" glyph-name="abreve" horiz-adv-x="519" d="M412 -4Q366 -4 359 58Q329 27 291 11T198 -6Q161 -6 130 4T77 33T42 82T29 149Q29 189 44 219T87 269T153 298T238 308Q273 308 301 305T358 294V365Q358 413 330 434T247 456Q208 456 186
449T149 433T125 417T101 409Q85 409 75 420T64 447V448Q64 464 74 477T108 502Q137 515 176 522T260 530Q355 530 406 494T458 372V46Q458 -4 414 -4H412ZM229 61Q274 61 304 79T358 123V236Q335 241 310 244T255 247Q198 247 163 226T127 155Q127 105 155 83T229
61ZM259 569Q214 569 181 591T133 648Q124 671 132 686T158 702H159Q169 702 176 697T195 678Q209 660 224 651T259 641Q279 641 294 650T323 678Q334 691 341 696T359 702H360Q378 702 386 687T385 648Q371 613 338 591T259 569Z" />
<glyph unicode="&#x104;" glyph-name="Aogonek" horiz-adv-x="645" d="M529 4Q511 15 503 43L449 198H180L128 43Q114 -4 77 -4H74Q51 -4 39 12T38 60L248 648Q267 703 322 703H327Q354 703 371 690T399 647L607 64Q615 41 610 26T593 2Q571 -15 558 -32T545 -67Q545
-77 549 -82T561 -91T577 -97T594 -101Q620 -108 620 -129V-130Q620 -161 571 -163Q554 -164 536 -161T502 -149T476 -127T466 -91Q466 -61 486 -36T529 4ZM206 274H423L315 590H313L206 274Z" />
<glyph unicode="&#x105;" glyph-name="aogonek" horiz-adv-x="519" d="M247 456Q208 456 186 449T149 433T125 417T101 409Q85 409 75 420T64 447V448Q64 464 74 477T108 502Q137 515 176 522T260 530Q355 530 406 494T458 372V45Q458 27 455 18T440 -1Q417 -22
408 -35T398 -65Q398 -85 413 -91T446 -101Q472 -108 472 -129V-130Q472 -161 423 -163Q406 -164 388 -161T354 -148T328 -124T318 -86Q318 -60 336 -36T383 6Q374 14 368 26T359 58Q329 26 291 10T198 -6Q161 -6 130 4T77 33T42 82T29 149Q29 189 44 219T87 269T153
298T238 308Q273 308 301 305T358 294V365Q358 413 330 434T247 456ZM229 61Q274 61 304 79T358 123V236Q335 241 310 244T255 247Q198 247 163 226T127 155Q127 105 155 83T229 61Z" />
<glyph unicode="&#x106;" glyph-name="Cacute" horiz-adv-x="619" d="M543 42Q511 21 465 8T360 -6Q288 -6 230 17T129 86T64 198T41 350Q41 435 66 501T135 613T239 682T369 706Q420 706 461 698T536 670Q560 656 570 641T580 609V608Q580 589 569 578T540 567Q524
567 511 576T481 597T437 617T369 627Q320 627 280 610T212 558T167 472T151 354Q151 213 206 143T364 73Q413 73 443 84T492 110T524 136T552 148Q570 148 580 137T590 109V107Q590 87 579 73T543 42ZM350 821Q359 840 372 847T404 854H420Q448 854 454 835T442
795L396 747Q375 724 353 724H349Q333 724 324 737T325 770L350 821Z" />
<glyph unicode="&#x107;" glyph-name="cacute" horiz-adv-x="493" d="M427 27Q401 12 366 3T289 -6Q167 -6 99 65T31 261Q31 324 50 374T105 458T189 511T295 530Q330 530 365 524T423 505Q443 494 451 481T460 452V450Q460 432 449 422T424 412Q410 412 400 418T378
433T346 448T294 455Q258 455 229 443T178 405T144 344T132 261Q132 165 175 117T292 69Q325 69 346 77T381 94T405 111T427 119Q444 119 454 109T464 81V80Q464 49 427 27ZM284 667Q295 687 307 696T340 706H361Q373 706 381 701T393 686T394 667T382 646L322
583Q301 562 281 562H279Q260 562 252 577T254 610L284 667Z" />
<glyph unicode="&#x108;" glyph-name="Ccircumflex" horiz-adv-x="619" d="M543 42Q511 21 465 8T360 -6Q288 -6 230 17T129 86T64 198T41 350Q41 435 66 501T135 613T239 682T369 706Q420 706 461 698T536 670Q560 656 570 641T580 609V608Q580 589 569 578T540
567Q524 567 511 576T481 597T437 617T369 627Q320 627 280 610T212 558T167 472T151 354Q151 213 206 143T364 73Q413 73 443 84T492 110T524 136T552 148Q570 148 580 137T590 109V107Q590 87 579 73T543 42ZM308 748Q282 725 267 725H266Q257 725 249 730T238
744T237 763T250 785L286 822Q302 839 316 846T347 854H352Q369 854 383 847T413 822L449 785Q459 774 461 764T461 745T450 731T433 725H432Q417 725 391 748L349 786L308 748Z" />
<glyph unicode="&#x109;" glyph-name="ccircumflex" horiz-adv-x="493" d="M427 27Q401 12 366 3T289 -6Q167 -6 99 65T31 261Q31 324 50 374T105 458T189 511T295 530Q330 530 365 524T423 505Q443 494 451 481T460 452V450Q460 432 449 422T424 412Q410 412
400 418T378 433T346 448T294 455Q258 455 229 443T178 405T144 344T132 261Q132 165 175 117T292 69Q325 69 346 77T381 94T405 111T427 119Q444 119 454 109T464 81V80Q464 49 427 27ZM276 708Q293 708 307 700T336 675L375 631Q387 617 389 605T389 583T377
569T359 563H357Q341 563 319 586L274 634L230 586Q208 563 192 563H190Q181 563 173 568T160 583T159 604T174 631L213 675Q241 708 273 708H276Z" />
<glyph unicode="&#x10a;" glyph-name="Cdotaccent" horiz-adv-x="619" d="M543 42Q511 21 465 8T360 -6Q288 -6 230 17T129 86T64 198T41 350Q41 435 66 501T135 613T239 682T369 706Q420 706 461 698T536 670Q560 656 570 641T580 609V608Q580 589 569 578T540
567Q524 567 511 576T481 597T437 617T369 627Q320 627 280 610T212 558T167 472T151 354Q151 213 206 143T364 73Q413 73 443 84T492 110T524 136T552 148Q570 148 580 137T590 109V107Q590 87 579 73T543 42ZM409 790Q409 767 392 751T351 734Q327 734 311 750T294
790Q294 814 310 830T351 847Q375 847 392 831T409 790Z" />
<glyph unicode="&#x10b;" glyph-name="cdotaccent" horiz-adv-x="493" d="M427 27Q401 12 366 3T289 -6Q167 -6 99 65T31 261Q31 324 50 374T105 458T189 511T295 530Q330 530 365 524T423 505Q443 494 451 481T460 452V450Q460 432 449 422T424 412Q410 412 400
418T378 433T346 448T294 455Q258 455 229 443T178 405T144 344T132 261Q132 165 175 117T292 69Q325 69 346 77T381 94T405 111T427 119Q444 119 454 109T464 81V80Q464 49 427 27ZM333 639Q333 616 316 600T275 583Q251 583 235 599T218 639Q218 662 234 679T275
696Q299 696 316 679T333 639Z" />
<glyph unicode="&#x10c;" glyph-name="Ccaron" horiz-adv-x="619" d="M543 42Q511 21 465 8T360 -6Q288 -6 230 17T129 86T64 198T41 350Q41 435 66 501T135 613T239 682T369 706Q420 706 461 698T536 670Q560 656 570 641T580 609V608Q580 589 569 578T540 567Q524
567 511 576T481 597T437 617T369 627Q320 627 280 610T212 558T167 472T151 354Q151 213 206 143T364 73Q413 73 443 84T492 110T524 136T552 148Q570 148 580 137T590 109V107Q590 87 579 73T543 42ZM351 793L393 831Q419 854 434 854H435Q444 854 452 849T463
835T464 815T451 794L415 757Q399 740 385 733T354 725H349Q332 725 318 732T288 757L252 794Q241 804 239 815T240 834T251 848T268 854H269Q284 854 310 831L351 793Z" />
<glyph unicode="&#x10d;" glyph-name="ccaron" horiz-adv-x="493" d="M427 27Q401 12 366 3T289 -6Q167 -6 99 65T31 261Q31 324 50 374T105 458T189 511T295 530Q330 530 365 524T423 505Q443 494 451 481T460 452V450Q460 432 449 422T424 412Q410 412 400 418T378
433T346 448T294 455Q258 455 229 443T178 405T144 344T132 261Q132 165 175 117T292 69Q325 69 346 77T381 94T405 111T427 119Q444 119 454 109T464 81V80Q464 49 427 27ZM275 562Q243 562 215 595L176 639Q164 653 161 665T162 687T174 701T192 707H194Q210
707 232 684L276 636L321 684Q343 707 359 707H361Q370 707 378 702T390 687T392 666T377 639L338 595Q324 578 310 570T278 562H275Z" />
<glyph unicode="&#x10e;" glyph-name="Dcaron" horiz-adv-x="677" d="M131 0Q105 0 90 14T75 56V644Q75 671 90 685T131 700H280Q455 700 547 618T640 352Q640 170 547 85T277 0H131ZM182 78H277Q342 78 389 93T468 140T515 225T530 351Q530 424 515 475T469 559T390
606T277 621H182V78ZM312 793L354 831Q380 854 395 854H396Q405 854 413 849T424 835T425 815T412 794L376 757Q360 740 346 733T315 725H310Q293 725 279 732T249 757L213 794Q202 804 200 815T201 834T212 848T229 854H230Q245 854 271 831L312 793Z" />
<glyph unicode="&#x10f;" glyph-name="dcaron" horiz-adv-x="577" d="M622 583Q609 555 586 555H583Q570 555 563 563T556 586L559 661Q560 680 571 692T604 705H612Q636 705 645 689T645 652L622 583ZM512 46Q512 -4 466 -4H464Q414 -4 411 71Q382 39 339 17T241
-6Q199 -6 161 9T95 55T50 136T33 254Q33 331 52 383T103 468T175 515T256 530Q312 530 348 516T411 476V654Q411 704 458 704H460Q486 704 499 687T512 628V46ZM284 453Q256 453 229 445T181 415T147 355T134 259Q134 205 144 168T171 109T213 76T265 66Q312 66
346 85T411 139V407Q387 429 357 441T284 453Z" />
<glyph unicode="&#x110;" glyph-name="Dcroat" horiz-adv-x="680" d="M134 0Q109 0 94 14T79 56V311H47Q28 311 19 322T9 349V351Q9 366 18 377T47 388H79V644Q79 671 94 685T134 700H283Q458 700 551 618T644 352Q644 170 551 85T281 0H134ZM185 311V78H281Q345
78 393 93T472 140T518 225T534 351Q534 424 519 475T473 559T394 606T281 621H185V388H330Q350 388 358 377T367 351V349Q367 334 359 323T330 311H185Z" />
<glyph unicode="&#x111;" glyph-name="dcroat" horiz-adv-x="577" d="M512 46Q512 -4 466 -4H464Q414 -4 411 71Q382 39 339 17T241 -6Q199 -6 161 9T95 55T50 136T33 254Q33 331 52 383T103 468T175 515T256 530Q312 530 348 516T411 476V572H294Q277 572 270
580T263 602V604Q263 616 270 625T294 634H411V654Q411 704 458 704H460Q485 704 498 688T512 634H545Q561 634 568 625T575 604V602Q575 589 568 581T545 572H512V46ZM284 453Q256 453 229 445T181 415T147 355T134 259Q134 205 144 168T171 109T213 76T265 66Q312
66 346 85T411 139V407Q387 429 357 441T284 453Z" />
<glyph unicode="&#x112;" glyph-name="Emacron" horiz-adv-x="562" d="M131 0Q105 0 90 14T75 56V644Q75 671 90 685T131 700H478Q516 700 516 661V659Q516 620 478 620H181V397H395Q413 397 423 388T434 359V357Q434 338 424 329T395 319H181V78H491Q508 78 518
69T529 40V38Q529 19 519 10T491 0H131ZM400 1071Q419 1071 426 1061T434 1037V1035Q434 1021 427 1011T400 1001H210Q191 1001 184 1011T176 1035V1037Q176 1051 183 1061T210 1071H400Z" />
<glyph unicode="&#x113;" glyph-name="emacron" horiz-adv-x="530" d="M133 244Q137 149 179 109T300 68Q337 68 360 76T400 93T427 111T452 119Q469 119 478 109T488 82V80Q488 66 479 54T455 33Q427 16 387 5T286 -6Q163 -6 97 65T31 260Q31 322 49 372T100
457T177 511T275 530Q385 530 442 468T500 290Q500 244 452 244H133ZM275 464Q221 464 183 429T135 308H401Q399 394 366 429T275 464ZM364 666Q383 666 390 656T397 633V631Q397 617 390 607T364 597H182Q163 597 156 607T148 631V633Q148 646 155 656T182 666H364Z"
/>
<glyph unicode="&#x114;" glyph-name="Ebreve" horiz-adv-x="562" d="M131 0Q105 0 90 14T75 56V644Q75 671 90 685T131 700H478Q516 700 516 661V659Q516 620 478 620H181V397H395Q413 397 423 388T434 359V357Q434 338 424 329T395 319H181V78H491Q508 78 518
69T529 40V38Q529 19 519 10T491 0H131ZM305 729Q261 729 230 748T185 800Q175 821 182 836T207 851H209Q220 851 227 845T242 829Q255 814 270 806T305 797Q325 797 339 805T367 829Q375 838 382 844T401 851H402Q419 851 426 836T425 800Q411 768 380 749T305
729Z" />
<glyph unicode="&#x115;" glyph-name="ebreve" horiz-adv-x="530" d="M133 244Q137 149 179 109T300 68Q337 68 360 76T400 93T427 111T452 119Q469 119 478 109T488 82V80Q488 66 479 54T455 33Q427 16 387 5T286 -6Q163 -6 97 65T31 260Q31 322 49 372T100 457T177
511T275 530Q385 530 442 468T500 290Q500 244 452 244H133ZM275 464Q221 464 183 429T135 308H401Q399 394 366 429T275 464ZM272 569Q227 569 194 591T146 648Q137 671 145 686T171 702H172Q182 702 189 697T208 678Q222 660 237 651T272 641Q292 641 307 650T336
678Q347 691 354 696T372 702H373Q391 702 399 687T398 648Q384 613 351 591T272 569Z" />
<glyph unicode="&#x116;" glyph-name="Edotaccent" horiz-adv-x="562" d="M131 0Q105 0 90 14T75 56V644Q75 671 90 685T131 700H478Q516 700 516 661V659Q516 620 478 620H181V397H395Q413 397 423 388T434 359V357Q434 338 424 329T395 319H181V78H491Q508 78
518 69T529 40V38Q529 19 519 10T491 0H131ZM363 790Q363 767 346 751T305 734Q281 734 265 750T248 790Q248 814 264 830T305 847Q329 847 346 831T363 790Z" />
<glyph unicode="&#x117;" glyph-name="edotaccent" horiz-adv-x="530" d="M133 244Q137 149 179 109T300 68Q337 68 360 76T400 93T427 111T452 119Q469 119 478 109T488 82V80Q488 66 479 54T455 33Q427 16 387 5T286 -6Q163 -6 97 65T31 260Q31 322 49 372T100
457T177 511T275 530Q385 530 442 468T500 290Q500 244 452 244H133ZM275 464Q221 464 183 429T135 308H401Q399 394 366 429T275 464ZM330 639Q330 616 313 600T272 583Q248 583 232 599T215 639Q215 662 231 679T272 696Q296 696 313 679T330 639Z" />
<glyph unicode="&#x118;" glyph-name="Eogonek" horiz-adv-x="562" d="M131 0Q105 0 90 14T75 56V644Q75 671 90 685T131 700H478Q516 700 516 661V659Q516 620 478 620H181V397H395Q413 397 423 388T434 359V357Q434 338 424 329T395 319H181V78H491Q508 78 518
69T529 40V38Q529 18 519 9T491 0H487Q434 -31 434 -67Q434 -77 438 -82T450 -91T465 -97T482 -101Q508 -108 508 -129V-130Q508 -161 459 -163Q442 -164 424 -161T390 -149T364 -127T354 -91Q354 -61 373 -38T415 0H131Z" />
<glyph unicode="&#x119;" glyph-name="eogonek" horiz-adv-x="530" d="M442 21Q398 -8 381 -27T364 -66Q364 -86 380 -91T413 -101Q439 -108 439 -129V-130Q439 -161 390 -163Q373 -164 355 -161T321 -149T295 -127T285 -91Q285 -62 300 -41T341 -3Q329 -4 315
-5T286 -6Q163 -6 97 65T31 260Q31 322 49 372T100 457T177 511T275 530Q385 530 442 468T500 290Q500 244 452 244H133Q136 150 179 109T300 68Q337 68 360 76T400 93T427 111T452 119Q469 119 478 109T488 82V81Q488 62 475 48T442 21ZM275 464Q220 464 182 428T135
308H401Q399 394 366 429T275 464Z" />
<glyph unicode="&#x11a;" glyph-name="Ecaron" horiz-adv-x="562" d="M131 0Q105 0 90 14T75 56V644Q75 671 90 685T131 700H478Q516 700 516 661V659Q516 620 478 620H181V397H395Q413 397 423 388T434 359V357Q434 338 424 329T395 319H181V78H491Q508 78 518
69T529 40V38Q529 19 519 10T491 0H131ZM305 793L347 831Q373 854 388 854H389Q398 854 406 849T417 835T418 815T405 794L369 757Q353 740 339 733T308 725H303Q286 725 272 732T242 757L206 794Q195 804 193 815T194 834T205 848T222 854H223Q238 854 264 831L305
793Z" />
<glyph unicode="&#x11b;" glyph-name="ecaron" horiz-adv-x="530" d="M133 244Q137 149 179 109T300 68Q337 68 360 76T400 93T427 111T452 119Q469 119 478 109T488 82V80Q488 66 479 54T455 33Q427 16 387 5T286 -6Q163 -6 97 65T31 260Q31 322 49 372T100 457T177
511T275 530Q385 530 442 468T500 290Q500 244 452 244H133ZM275 464Q221 464 183 429T135 308H401Q399 394 366 429T275 464ZM273 562Q241 562 213 595L174 639Q162 653 159 665T160 687T172 701T190 707H192Q208 707 230 684L274 636L319 684Q341 707 357 707H359Q368
707 376 702T388 687T390 666T375 639L336 595Q322 578 308 570T276 562H273Z" />
<glyph unicode="&#x11c;" glyph-name="Gcircumflex" horiz-adv-x="671" d="M547 25Q516 12 470 3T364 -6Q288 -6 228 17T125 85T60 196T37 350Q37 437 61 503T130 615T237 683T376 706Q431 706 474 697T546 672Q582 651 582 618V617Q582 597 570 585T540 573Q525
573 514 581T486 599T444 617T375 626Q324 626 283 611T212 562T166 478T149 354Q149 210 204 140T364 70Q415 70 446 77T500 96V275H404Q385 275 376 286T366 314V316Q366 333 375 343T404 354H552Q578 354 591 339T605 299V99Q605 70 592 53T547 25ZM316 748Q290
725 275 725H274Q265 725 257 730T246 744T245 763T258 785L294 822Q310 839 324 846T355 854H360Q377 854 391 847T421 822L457 785Q467 774 469 764T469 745T458 731T441 725H440Q425 725 399 748L357 786L316 748Z" />
<glyph unicode="&#x11d;" glyph-name="gcircumflex" horiz-adv-x="576" d="M411 82Q382 52 340 32T243 12Q202 12 164 25T97 69T51 146T33 261Q33 334 52 385T104 469T177 515T260 530Q313 530 350 516T415 476Q426 527 465 527H467Q512 527 512 477V17Q512 -29
494 -63T444 -121T366 -156T265 -168Q214 -168 167 -160T90 -135Q57 -116 57 -87V-86Q57 -71 67 -59T96 -47Q109 -47 119 -54T145 -71T186 -87T253 -95Q325 -95 368 -68T411 24V82ZM268 84Q313 84 348 103T411 152V404Q386 428 356 440T284 453Q257 453 230 445T182
416T147 360T134 269Q134 215 144 180T172 123T214 93T268 84ZM282 708Q299 708 313 700T342 675L381 631Q393 617 395 605T395 583T383 569T365 563H363Q347 563 325 586L280 634L236 586Q214 563 198 563H196Q187 563 179 568T166 583T165 604T180 631L219 675Q247
708 279 708H282Z" />
<glyph unicode="&#x11e;" glyph-name="Gbreve" horiz-adv-x="671" d="M547 25Q516 12 470 3T364 -6Q288 -6 228 17T125 85T60 196T37 350Q37 437 61 503T130 615T237 683T376 706Q431 706 474 697T546 672Q582 651 582 618V617Q582 597 570 585T540 573Q525 573
514 581T486 599T444 617T375 626Q324 626 283 611T212 562T166 478T149 354Q149 210 204 140T364 70Q415 70 446 77T500 96V275H404Q385 275 376 286T366 314V316Q366 333 375 343T404 354H552Q578 354 591 339T605 299V99Q605 70 592 53T547 25ZM359 729Q315
729 284 748T239 800Q229 821 236 836T261 851H263Q274 851 281 845T296 829Q309 814 324 806T359 797Q379 797 393 805T421 829Q429 838 436 844T455 851H456Q473 851 480 836T479 800Q465 768 434 749T359 729Z" />
<glyph unicode="&#x11f;" glyph-name="gbreve" horiz-adv-x="576" d="M411 82Q382 52 340 32T243 12Q202 12 164 25T97 69T51 146T33 261Q33 334 52 385T104 469T177 515T260 530Q313 530 350 516T415 476Q426 527 465 527H467Q512 527 512 477V17Q512 -29 494
-63T444 -121T366 -156T265 -168Q214 -168 167 -160T90 -135Q57 -116 57 -87V-86Q57 -71 67 -59T96 -47Q109 -47 119 -54T145 -71T186 -87T253 -95Q325 -95 368 -68T411 24V82ZM268 84Q313 84 348 103T411 152V404Q386 428 356 440T284 453Q257 453 230 445T182
416T147 360T134 269Q134 215 144 180T172 123T214 93T268 84ZM282 569Q237 569 204 591T156 648Q147 671 155 686T181 702H182Q192 702 199 697T218 678Q232 660 247 651T282 641Q302 641 317 650T346 678Q357 691 364 696T382 702H383Q401 702 409 687T408 648Q394
613 361 591T282 569Z" />
<glyph unicode="&#x120;" glyph-name="Gdotaccent" horiz-adv-x="671" d="M547 25Q516 12 470 3T364 -6Q288 -6 228 17T125 85T60 196T37 350Q37 437 61 503T130 615T237 683T376 706Q431 706 474 697T546 672Q582 651 582 618V617Q582 597 570 585T540 573Q525
573 514 581T486 599T444 617T375 626Q324 626 283 611T212 562T166 478T149 354Q149 210 204 140T364 70Q415 70 446 77T500 96V275H404Q385 275 376 286T366 314V316Q366 333 375 343T404 354H552Q578 354 591 339T605 299V99Q605 70 592 53T547 25ZM417 790Q417
767 400 751T359 734Q335 734 319 750T302 790Q302 814 318 830T359 847Q383 847 400 831T417 790Z" />
<glyph unicode="&#x121;" glyph-name="gdotaccent" horiz-adv-x="576" d="M411 82Q382 52 340 32T243 12Q202 12 164 25T97 69T51 146T33 261Q33 334 52 385T104 469T177 515T260 530Q313 530 350 516T415 476Q426 527 465 527H467Q512 527 512 477V17Q512 -29
494 -63T444 -121T366 -156T265 -168Q214 -168 167 -160T90 -135Q57 -116 57 -87V-86Q57 -71 67 -59T96 -47Q109 -47 119 -54T145 -71T186 -87T253 -95Q325 -95 368 -68T411 24V82ZM268 84Q313 84 348 103T411 152V404Q386 428 356 440T284 453Q257 453 230 445T182
416T147 360T134 269Q134 215 144 180T172 123T214 93T268 84ZM339 639Q339 616 322 600T281 583Q257 583 241 599T224 639Q224 662 240 679T281 696Q305 696 322 679T339 639Z" />
<glyph unicode="&#x122;" glyph-name="Gcommaaccent" horiz-adv-x="671" d="M547 25Q516 12 470 3T364 -6Q288 -6 228 17T125 85T60 196T37 350Q37 437 61 503T130 615T237 683T376 706Q431 706 474 697T546 672Q582 651 582 618V617Q582 597 570 585T540 573Q525
573 514 581T486 599T444 617T375 626Q324 626 283 611T212 562T166 478T149 354Q149 210 204 140T364 70Q415 70 446 77T500 96V275H404Q385 275 376 286T366 314V316Q366 333 375 343T404 354H552Q578 354 591 339T605 299V99Q605 70 592 53T547 25ZM306 -174Q306
-167 310 -162T327 -151Q339 -146 345 -141T352 -128Q352 -121 348 -117T333 -106Q323 -99 318 -91T312 -68Q312 -50 326 -38T360 -26Q383 -26 398 -41T413 -89Q413 -133 393 -158T335 -192Q321 -195 314 -190T306 -175V-174Z" />
<glyph unicode="&#x123;" glyph-name="gcommaaccent" horiz-adv-x="576" d="M339 728Q339 721 335 716T318 705Q306 700 300 695T293 682Q293 675 297 671T312 660Q322 653 327 645T333 622Q333 604 319 592T285 580Q262 580 247 595T232 643Q232 687 252 712T310
746Q324 749 331 744T339 729V728ZM411 82Q382 52 340 32T243 12Q202 12 164 25T97 69T51 146T33 261Q33 334 52 385T104 469T177 515T260 530Q313 530 350 516T415 476Q426 527 465 527H467Q512 527 512 477V17Q512 -29 494 -63T444 -121T366 -156T265 -168Q214
-168 167 -160T90 -135Q57 -116 57 -87V-86Q57 -71 67 -59T96 -47Q109 -47 119 -54T145 -71T186 -87T253 -95Q325 -95 368 -68T411 24V82ZM268 84Q313 84 348 103T411 152V404Q386 428 356 440T284 453Q257 453 230 445T182 416T147 360T134 269Q134 215 144 180T172
123T214 93T268 84Z" />
<glyph unicode="&#x124;" glyph-name="Hcircumflex" horiz-adv-x="691" d="M182 48Q182 22 168 9T129 -4H128Q104 -4 90 9T75 48V652Q75 676 89 690T128 704H129Q153 704 167 690T182 652V398H510V652Q510 676 524 690T562 704H564Q587 704 601 690T616 652V48Q616
22 602 9T564 -4H562Q538 -4 524 9T510 48V320H182V48ZM303 748Q277 725 262 725H261Q252 725 244 730T233 744T232 763T245 785L281 822Q297 839 311 846T342 854H347Q364 854 378 847T408 822L444 785Q454 774 456 764T456 745T445 731T428 725H427Q412 725 386
748L344 786L303 748Z" />
<glyph unicode="&#x125;" glyph-name="hcircumflex" horiz-adv-x="572" d="M327 449Q282 449 241 432T165 394V45Q165 20 151 8T116 -4H114Q92 -4 79 8T65 45V654Q65 704 111 704H113Q139 704 152 687T165 628V455Q205 486 259 508T373 530Q401 530 426 524T470
501T500 458T511 387V45Q511 20 498 8T462 -4H460Q438 -4 425 8T411 45V365Q411 415 389 432T327 449ZM247 756Q221 733 206 733H205Q196 733 188 738T177 752T176 771T189 793L225 830Q241 847 255 854T286 862H291Q308 862 322 855T352 830L388 793Q398 782 400
772T400 753T389 739T372 733H371Q356 733 330 756L288 794L247 756Z" />
<glyph unicode="&#x126;" glyph-name="Hbar" horiz-adv-x="691" d="M616 508V48Q616 22 602 9T564 -4H562Q538 -4 524 9T510 48V320H182V48Q182 22 168 9T129 -4H128Q104 -4 90 9T75 48V508H39Q21 508 13 518T4 542V544Q4 558 12 568T39 578H75V652Q75 676 89
690T128 704H129Q153 704 167 690T182 652V578H510V652Q510 676 524 690T562 704H564Q587 704 601 690T616 652V578H653Q671 578 679 568T687 544V542Q687 528 679 518T653 508H616ZM510 398V508H182V398H510Z" />
<glyph unicode="&#x127;" glyph-name="hbar" horiz-adv-x="572" d="M113 704Q138 704 151 688T165 634H282Q297 634 304 625T311 604V602Q311 589 304 581T282 572H165V455Q205 486 259 508T373 530Q401 530 426 524T470 501T500 458T511 387V45Q511 20 498 8T462
-4H460Q438 -4 425 8T411 45V365Q411 415 389 432T327 449Q282 449 241 432T165 394V45Q165 20 151 8T116 -4H114Q92 -4 79 8T65 45V572H32Q17 572 9 580T1 602V604Q1 616 8 625T32 634H65V654Q65 704 111 704H113Z" />
<glyph unicode="&#x12a;" glyph-name="Imacron" horiz-adv-x="263" d="M224 811Q243 811 250 802T258 778V776Q258 762 251 752T224 742H40Q21 742 14 752T6 776V778Q6 792 13 801T40 811H224ZM185 49Q185 22 170 9T133 -4H131Q109 -4 94 9T78 49V652Q78 675 91
689T131 704H133Q158 704 171 690T185 652V49Z" />
<glyph unicode="&#x12b;" glyph-name="imacron" horiz-adv-x="233" d="M190 666Q208 666 215 656T223 633V631Q223 617 216 607T190 597H44Q25 597 18 607T10 631V633Q10 646 17 656T44 666H190ZM166 45Q166 20 153 8T117 -4H115Q94 -4 80 8T66 45V477Q66 527
113 527H115Q141 527 153 510T166 451V45Z" />
<glyph unicode="&#x12e;" glyph-name="Iogonek" horiz-adv-x="263" d="M99 4Q88 10 83 22T78 49V652Q78 675 91 689T131 704H133Q158 704 171 690T185 652V49Q185 33 181 24T165 3Q144 -17 133 -31T122 -65Q122 -85 137 -91T169 -101Q196 -107 196 -129V-130Q196
-161 147 -163Q130 -164 112 -161T78 -149T52 -126T42 -89Q42 -60 59 -37T99 4Z" />
<glyph unicode="&#x12f;" glyph-name="iogonek" horiz-adv-x="233" d="M175 639Q175 616 158 600T117 583Q93 583 76 599T59 639Q59 662 76 679T117 696Q141 696 158 679T175 639ZM83 7Q73 14 70 24T66 45V477Q66 527 113 527H115Q141 527 153 510T166 451V45Q166
31 163 22T151 5Q127 -19 119 -33T110 -65Q110 -85 126 -91T159 -101Q185 -108 185 -129V-130Q185 -161 136 -163Q119 -164 101 -161T67 -148T41 -124T31 -86Q31 -60 44 -38T83 7Z" />
<glyph unicode="&#x130;" glyph-name="Idotaccent" horiz-adv-x="263" d="M185 49Q185 22 170 9T133 -4H131Q109 -4 94 9T78 49V652Q78 675 91 689T131 704H133Q158 704 171 690T185 652V49ZM447 790Q447 767 430 751T389 734Q365 734 349 750T332 790Q332 814
348 830T389 847Q413 847 430 831T447 790Z" />
<glyph unicode="&#x131;" glyph-name="dotlessi" horiz-adv-x="233" d="M166 45Q166 20 153 8T117 -4H115Q94 -4 80 8T66 45V477Q66 527 113 527H115Q141 527 153 510T166 451V45Z" />
<glyph unicode="&#x134;" glyph-name="Jcircumflex" horiz-adv-x="442" d="M371 172Q371 87 321 40T167 -7Q138 -7 110 -3T62 10Q36 22 26 37T15 69V70Q15 87 26 99T58 112Q70 112 79 106T99 92T124 78T162 72Q264 72 264 175V652Q264 676 277 690T317 704H319Q344
704 357 690T371 652V172ZM274 748Q248 725 233 725H232Q223 725 215 730T204 744T203 763T216 785L252 822Q268 839 282 846T313 854H318Q335 854 349 847T379 822L415 785Q425 774 427 764T427 745T416 731T399 725H398Q383 725 357 748L315 786L274 748Z" />
<glyph unicode="&#x135;" glyph-name="jcircumflex" horiz-adv-x="233" d="M166 -32Q166 -102 132 -134T32 -166Q24 -166 15 -166T-4 -163Q-34 -156 -34 -130V-129Q-34 -100 -5 -97Q17 -95 30 -91T52 -78T63 -58T66 -26V477Q66 527 113 527H115Q141 527 153 510T166
451V-32ZM374 708Q391 708 405 700T434 675L473 631Q485 617 487 605T487 583T475 569T457 563H455Q439 563 417 586L372 634L328 586Q306 563 290 563H288Q279 563 271 568T258 583T257 604T272 631L311 675Q339 708 371 708H374Z" />
<glyph unicode="&#x136;" glyph-name="Kcommaaccent" horiz-adv-x="647" d="M182 345L483 675Q498 692 508 698T530 704H531Q544 704 554 698T568 680T571 656T556 629L359 417L585 80Q595 63 596 48T592 22T574 3T547 -4H546Q530 -4 518 4T492 35L287 342L182
228V49Q182 22 167 9T129 -4H128Q105 -4 90 9T75 49V652Q75 675 88 689T128 704H129Q155 704 168 690T182 652V345ZM269 -174Q269 -167 273 -162T290 -151Q302 -146 308 -141T315 -128Q315 -121 311 -117T296 -106Q286 -99 281 -91T275 -68Q275 -50 289 -38T323
-26Q346 -26 361 -41T376 -89Q376 -133 356 -158T298 -192Q284 -195 277 -190T269 -175V-174Z" />
<glyph unicode="&#x137;" glyph-name="kcommaaccent" horiz-adv-x="518" d="M240 245L165 166V45Q165 20 151 8T116 -4H114Q92 -4 79 8T65 45V654Q65 704 111 704H113Q139 704 152 687T165 628V270L376 501Q389 515 398 521T419 527H420Q431 527 440 521T454 504T457
482T443 456L306 312L470 69Q478 56 479 43T475 20T459 3T434 -4H433Q419 -4 408 4T382 34L240 245ZM218 -174Q218 -167 222 -162T239 -151Q251 -146 257 -141T264 -128Q264 -121 260 -117T245 -106Q235 -99 230 -91T224 -68Q224 -50 238 -38T272 -26Q295 -26 310
-41T325 -89Q325 -133 305 -158T247 -192Q233 -195 226 -190T218 -175V-174Z" />
<glyph unicode="&#x139;" glyph-name="Lacute" horiz-adv-x="541" d="M131 0Q105 0 90 15T75 56V652Q75 675 88 689T128 704H129Q155 704 168 690T182 652V78H471Q489 78 500 68T511 40V38Q511 21 500 11T471 0H131ZM386 821Q395 840 408 847T440 854H456Q484
854 490 835T478 795L432 747Q411 724 389 724H385Q369 724 360 737T361 770L386 821Z" />
<glyph unicode="&#x13a;" glyph-name="lacute" horiz-adv-x="232" d="M115 704Q141 704 153 687T166 628V45Q166 20 153 8T117 -4H115Q94 -4 80 8T66 45V654Q66 704 113 704H115ZM373 824Q382 843 395 850T427 857H443Q471 857 477 838T465 798L419 750Q398 727
376 727H372Q356 727 347 740T348 773L373 824Z" />
<glyph unicode="&#x13b;" glyph-name="Lcommaaccent" horiz-adv-x="541" d="M131 0Q105 0 90 15T75 56V652Q75 675 88 689T128 704H129Q155 704 168 690T182 652V78H471Q489 78 500 68T511 40V38Q511 21 500 11T471 0H131ZM241 -174Q241 -167 245 -162T262 -151Q274
-146 280 -141T287 -128Q287 -121 283 -117T268 -106Q258 -99 253 -91T247 -68Q247 -50 261 -38T295 -26Q318 -26 333 -41T348 -89Q348 -133 328 -158T270 -192Q256 -195 249 -190T241 -175V-174Z" />
<glyph unicode="&#x13c;" glyph-name="lcommaaccent" horiz-adv-x="232" d="M115 704Q141 704 153 687T166 628V45Q166 20 153 8T117 -4H115Q94 -4 80 8T66 45V654Q66 704 113 704H115ZM318 -174Q318 -167 322 -162T339 -151Q351 -146 357 -141T364 -128Q364 -121
360 -117T345 -106Q335 -99 330 -91T324 -68Q324 -50 338 -38T372 -26Q395 -26 410 -41T425 -89Q425 -133 405 -158T347 -192Q333 -195 326 -190T318 -175V-174Z" />
<glyph unicode="&#x13d;" glyph-name="Lcaron" horiz-adv-x="541" d="M369 583Q354 555 332 555H330Q302 555 302 586L306 661Q306 680 317 692T351 705H359Q384 705 392 689T392 652L369 583ZM131 0Q105 0 90 15T75 56V652Q75 675 88 689T128 704H129Q155 704
168 690T182 652V78H471Q489 78 500 68T511 40V38Q511 21 500 11T471 0H131Z" />
<glyph unicode="&#x13e;" glyph-name="lcaron" horiz-adv-x="232" d="M277 583Q262 555 240 555H238Q210 555 210 586L214 661Q214 680 225 692T259 705H266Q291 705 299 689T299 652L277 583ZM115 704Q141 704 153 687T166 628V45Q166 20 153 8T117 -4H115Q94
-4 80 8T66 45V654Q66 704 113 704H115Z" />
<glyph unicode="&#x141;" glyph-name="Lslash" horiz-adv-x="541" d="M131 0Q106 0 91 15T76 56V248L47 236Q30 229 17 234T-1 254Q-6 269 -1 282T20 302L76 325V652Q76 675 89 689T128 704H130Q155 704 168 690T182 652V368L341 433Q358 440 371 435T391 416Q399
401 393 388T371 368L182 291V78H471Q489 78 500 68T512 40V38Q512 21 501 11T471 0H131Z" />
<glyph unicode="&#x142;" glyph-name="lslash" horiz-adv-x="233" d="M167 468L195 485Q208 493 220 490T240 475Q247 463 245 450T228 429L167 391V45Q167 20 153 8T118 -4H116Q94 -4 81 8T67 45V330L48 319Q35 311 23 314T3 329Q-4 340 -2 353T15 375L67 407V654Q67
704 113 704H115Q141 704 154 687T167 628V468Z" />
<glyph unicode="&#x143;" glyph-name="Nacute" horiz-adv-x="689" d="M120 -4Q100 -4 88 7T75 41V644Q75 670 90 685T131 700H152Q178 700 195 688T228 650L520 177H522V659Q522 682 535 693T567 704H569Q588 704 601 693T614 659V48Q614 25 600 12T563 -1H558Q534
-1 520 9T491 42L169 568H167V41Q167 18 154 7T121 -4H120ZM356 821Q365 840 378 847T410 854H426Q454 854 460 835T448 795L402 747Q381 724 359 724H355Q339 724 330 737T331 770L356 821Z" />
<glyph unicode="&#x144;" glyph-name="nacute" horiz-adv-x="572" d="M327 449Q282 449 241 432T165 394V45Q165 20 151 8T116 -4H114Q92 -4 79 8T65 45V477Q65 527 111 527H113Q137 527 150 512T165 455Q205 486 259 508T373 530Q401 530 426 524T470 501T500
458T511 387V45Q511 20 498 8T462 -4H460Q438 -4 425 8T411 45V365Q411 415 389 432T327 449ZM299 667Q310 687 322 696T355 706H376Q388 706 396 701T408 686T409 667T397 646L337 583Q316 562 296 562H294Q275 562 267 577T269 610L299 667Z" />
<glyph unicode="&#x145;" glyph-name="Ncommaaccent" horiz-adv-x="689" d="M120 -4Q100 -4 88 7T75 41V644Q75 670 90 685T131 700H152Q178 700 195 688T228 650L520 177H522V659Q522 682 535 693T567 704H569Q588 704 601 693T614 659V48Q614 25 600 12T563
-1H558Q534 -1 520 9T491 42L169 568H167V41Q167 18 154 7T121 -4H120ZM285 -174Q285 -167 289 -162T306 -151Q318 -146 324 -141T331 -128Q331 -121 327 -117T312 -106Q302 -99 297 -91T291 -68Q291 -50 305 -38T339 -26Q362 -26 377 -41T392 -89Q392 -133 372
-158T314 -192Q300 -195 293 -190T285 -175V-174Z" />
<glyph unicode="&#x146;" glyph-name="ncommaaccent" horiz-adv-x="572" d="M327 449Q282 449 241 432T165 394V45Q165 20 151 8T116 -4H114Q92 -4 79 8T65 45V477Q65 527 111 527H113Q137 527 150 512T165 455Q205 486 259 508T373 530Q401 530 426 524T470 501T500
458T511 387V45Q511 20 498 8T462 -4H460Q438 -4 425 8T411 45V365Q411 415 389 432T327 449ZM235 -174Q235 -167 239 -162T256 -151Q268 -146 274 -141T281 -128Q281 -121 277 -117T262 -106Q252 -99 247 -91T241 -68Q241 -50 255 -38T289 -26Q312 -26 327 -41T342
-89Q342 -133 322 -158T264 -192Q250 -195 243 -190T235 -175V-174Z" />
<glyph unicode="&#x147;" glyph-name="Ncaron" horiz-adv-x="689" d="M120 -4Q100 -4 88 7T75 41V644Q75 670 90 685T131 700H152Q178 700 195 688T228 650L520 177H522V659Q522 682 535 693T567 704H569Q588 704 601 693T614 659V48Q614 25 600 12T563 -1H558Q534
-1 520 9T491 42L169 568H167V41Q167 18 154 7T121 -4H120ZM356 793L398 831Q424 854 439 854H440Q449 854 457 849T468 835T469 815T456 794L420 757Q404 740 390 733T359 725H354Q337 725 323 732T293 757L257 794Q246 804 244 815T245 834T256 848T273 854H274Q289
854 315 831L356 793Z" />
<glyph unicode="&#x148;" glyph-name="ncaron" horiz-adv-x="572" d="M327 449Q282 449 241 432T165 394V45Q165 20 151 8T116 -4H114Q92 -4 79 8T65 45V477Q65 527 111 527H113Q137 527 150 512T165 455Q205 486 259 508T373 530Q401 530 426 524T470 501T500
458T511 387V45Q511 20 498 8T462 -4H460Q438 -4 425 8T411 45V365Q411 415 389 432T327 449ZM290 562Q258 562 230 595L191 639Q179 653 176 665T177 687T189 701T207 707H209Q225 707 247 684L291 636L336 684Q358 707 374 707H376Q385 707 393 702T405 687T407
666T392 639L353 595Q339 578 325 570T293 562H290Z" />
<glyph unicode="&#x14c;" glyph-name="Omacron" horiz-adv-x="724" d="M688 350Q688 263 662 197T591 85T487 17T363 -6Q297 -6 238 17T134 85T63 196T37 350Q37 436 63 502T134 614T238 682T363 706Q428 706 487 683T590 614T661 503T688 350ZM146 348Q146 278
162 226T208 139T276 87T363 70Q409 70 448 87T516 138T561 225T578 348Q578 418 562 471T516 559T448 611T363 629Q316 629 277 612T208 559T163 471T146 348ZM457 815Q476 815 483 805T491 781V779Q491 765 484 755T457 745H267Q248 745 241 755T233 779V781Q233
795 240 805T267 815H457Z" />
<glyph unicode="&#x14d;" glyph-name="omacron" horiz-adv-x="573" d="M542 260Q542 198 523 149T469 65T388 12T286 -6Q231 -6 185 12T104 64T51 148T31 260Q31 323 50 373T104 458T184 511T286 530Q341 530 388 512T469 458T522 373T542 260ZM132 260Q132 164
174 116T286 67Q357 67 399 115T441 260Q441 356 399 406T286 457Q216 457 174 407T132 260ZM377 666Q396 666 403 656T410 633V631Q410 617 403 607T377 597H195Q176 597 169 607T161 631V633Q161 646 168 656T195 666H377Z" />
<glyph unicode="&#x150;" glyph-name="Ohungarumlaut" horiz-adv-x="724" d="M688 350Q688 263 662 197T591 85T487 17T363 -6Q297 -6 238 17T134 85T63 196T37 350Q37 436 63 502T134 614T238 682T363 706Q428 706 487 683T590 614T661 503T688 350ZM146 348Q146
278 162 226T208 139T276 87T363 70Q409 70 448 87T516 138T561 225T578 348Q578 418 562 471T516 559T448 611T363 629Q316 629 277 612T208 559T163 471T146 348ZM282 816Q290 838 301 846T332 854H342Q365 854 372 838T363 799L327 747Q311 725 288 725H286Q272
725 264 735T262 763L282 816ZM423 816Q431 838 442 846T473 854H483Q506 854 513 838T504 799L468 747Q452 725 429 725H427Q413 725 405 735T403 763L423 816Z" />
<glyph unicode="&#x151;" glyph-name="ohungarumlaut" horiz-adv-x="573" d="M542 260Q542 198 523 149T469 65T388 12T286 -6Q231 -6 185 12T104 64T51 148T31 260Q31 323 50 373T104 458T184 511T286 530Q341 530 388 512T469 458T522 373T542 260ZM132 260Q132
164 174 116T286 67Q357 67 399 115T441 260Q441 356 399 406T286 457Q216 457 174 407T132 260ZM217 667Q225 686 236 696T268 706H277Q299 706 305 690T298 651L258 588Q249 574 239 569T218 563H216Q202 563 193 573T192 604L217 667ZM359 667Q367 686 378 696T410
706H419Q441 706 447 690T440 651L400 588Q391 574 381 569T360 563H358Q344 563 335 573T334 604L359 667Z" />
<glyph unicode="&#x152;" glyph-name="OE" horiz-adv-x="958" d="M397 0Q222 0 130 82T37 348Q37 530 130 615T400 700H873Q893 700 902 689T912 661V659Q912 642 903 631T873 620H586V397H789Q809 397 818 387T827 359V357Q827 341 818 331T789 320H586V78H886Q906
78 915 68T924 40V38Q924 21 915 11T886 0H397ZM479 620H400Q335 620 288 606T209 559T162 475T146 349Q146 276 161 225T208 141T287 93T400 78H479V620Z" />
<glyph unicode="&#x153;" glyph-name="oe" horiz-adv-x="940" d="M696 -6Q621 -6 570 20T489 97Q457 47 405 21T286 -6Q231 -6 185 12T104 64T51 148T31 260Q31 323 50 373T104 458T184 511T286 530Q354 530 406 502T490 423Q520 474 570 502T685 530Q795 530
852 468T910 290Q910 244 862 244H543Q547 149 589 109T710 68Q747 68 770 76T810 93T837 111T862 119Q879 119 888 109T898 82V80Q898 66 889 54T865 33Q837 16 797 5T696 -6ZM132 260Q132 164 174 115T286 66Q357 66 399 115T441 260Q441 356 399 406T286 456Q216
456 174 406T132 260ZM685 464Q631 464 593 429T545 308H811Q809 394 776 429T685 464Z" />
<glyph unicode="&#x154;" glyph-name="Racute" horiz-adv-x="620" d="M519 -4Q502 -4 489 5T462 39L323 296Q314 295 306 295T288 295H183V48Q183 22 168 9T131 -4H129Q106 -4 91 9T76 48V644Q76 671 91 685T132 700H294Q413 700 478 653T543 502Q543 430 512
385T423 317L559 69Q576 39 564 18T522 -4H519ZM183 621V371H285Q360 371 397 399T435 497Q435 564 396 592T285 621H183ZM294 821Q303 840 316 847T348 854H364Q392 854 398 835T386 795L340 747Q319 724 297 724H293Q277 724 268 737T269 770L294 821Z" />
<glyph unicode="&#x155;" glyph-name="racute" horiz-adv-x="373" d="M113 527Q136 527 150 509T165 449Q194 481 232 504T313 528Q353 528 353 487V485Q353 464 343 453T308 440Q261 436 229 423T165 382V45Q165 20 151 8T116 -4H114Q92 -4 79 8T65 45V477Q65
527 111 527H113ZM222 667Q233 687 245 696T278 706H299Q311 706 319 701T331 686T332 667T320 646L260 583Q239 562 219 562H217Q198 562 190 577T192 610L222 667Z" />
<glyph unicode="&#x156;" glyph-name="Rcommaaccent" horiz-adv-x="620" d="M519 -4Q502 -4 489 5T462 39L323 296Q314 295 306 295T288 295H183V48Q183 22 168 9T131 -4H129Q106 -4 91 9T76 48V644Q76 671 91 685T132 700H294Q413 700 478 653T543 502Q543 430
512 385T423 317L559 69Q576 39 564 18T522 -4H519ZM183 621V371H285Q360 371 397 399T435 497Q435 564 396 592T285 621H183ZM258 -174Q258 -167 262 -162T279 -151Q291 -146 297 -141T304 -128Q304 -121 300 -117T285 -106Q275 -99 270 -91T264 -68Q264 -50 278
-38T312 -26Q335 -26 350 -41T365 -89Q365 -133 345 -158T287 -192Q273 -195 266 -190T258 -175V-174Z" />
<glyph unicode="&#x157;" glyph-name="rcommaaccent" horiz-adv-x="373" d="M113 527Q136 527 150 509T165 449Q194 481 232 504T313 528Q353 528 353 487V485Q353 464 343 453T308 440Q261 436 229 423T165 382V45Q165 20 151 8T116 -4H114Q92 -4 79 8T65 45V477Q65
527 111 527H113ZM315 -174Q315 -167 319 -162T336 -151Q348 -146 354 -141T361 -128Q361 -121 357 -117T342 -106Q332 -99 327 -91T321 -68Q321 -50 335 -38T369 -26Q392 -26 407 -41T422 -89Q422 -133 402 -158T344 -192Q330 -195 323 -190T315 -175V-174Z" />
<glyph unicode="&#x158;" glyph-name="Rcaron" horiz-adv-x="620" d="M519 -4Q502 -4 489 5T462 39L323 296Q314 295 306 295T288 295H183V48Q183 22 168 9T131 -4H129Q106 -4 91 9T76 48V644Q76 671 91 685T132 700H294Q413 700 478 653T543 502Q543 430 512
385T423 317L559 69Q576 39 564 18T522 -4H519ZM183 621V371H285Q360 371 397 399T435 497Q435 564 396 592T285 621H183ZM293 793L335 831Q361 854 376 854H377Q386 854 394 849T405 835T406 815T393 794L357 757Q341 740 327 733T296 725H291Q274 725 260 732T230
757L194 794Q183 804 181 815T182 834T193 848T210 854H211Q226 854 252 831L293 793Z" />
<glyph unicode="&#x159;" glyph-name="rcaron" horiz-adv-x="373" d="M113 527Q136 527 150 509T165 449Q194 481 232 504T313 528Q353 528 353 487V485Q353 464 343 453T308 440Q261 436 229 423T165 382V45Q165 20 151 8T116 -4H114Q92 -4 79 8T65 45V477Q65
527 111 527H113ZM213 562Q181 562 153 595L114 639Q102 653 99 665T100 687T112 701T130 707H132Q148 707 170 684L214 636L259 684Q281 707 297 707H299Q308 707 316 702T328 687T330 666T315 639L276 595Q262 578 248 570T216 562H213Z" />
<glyph unicode="&#x15a;" glyph-name="Sacute" horiz-adv-x="529" d="M493 199Q493 96 427 45T245 -6Q184 -6 136 6T60 36Q24 59 24 93V95Q24 113 35 125T66 137Q83 137 94 127T122 105T166 82T242 72Q314 72 354 100T395 189Q395 222 382 242T346 275T293 297T229
316Q182 329 146 345T86 385T50 439T37 515Q37 560 53 595T99 655T171 693T266 706Q317 706 357 697T422 673Q460 650 460 617V615Q460 598 450 587T422 576Q407 576 397 584T371 601T333 619T267 627Q198 627 165 599T131 522Q131 495 141 477T170 445T216 423T276
405Q331 390 372 374T440 335T480 279T493 199ZM265 821Q274 840 287 847T319 854H335Q363 854 369 835T357 795L311 747Q290 724 268 724H264Q248 724 239 737T240 770L265 821Z" />
<glyph unicode="&#x15b;" glyph-name="sacute" horiz-adv-x="445" d="M414 158Q414 83 365 39T209 -5Q165 -5 132 1T72 21Q31 41 31 75V77Q31 94 41 106T71 118Q84 118 93 111T115 94T148 77T205 69Q320 69 320 149Q320 166 315 178T296 200T260 215T204 227Q123
238 79 271T35 377Q35 451 87 490T227 529Q299 529 347 509Q370 500 379 487T389 458V456Q389 439 379 428T351 417Q340 417 331 423T309 436T278 449T228 455Q174 455 150 438T125 385Q125 369 131 357T150 337T186 322T241 311Q285 305 317 294T371 265T403 221T414
158ZM231 667Q242 687 254 696T287 706H308Q320 706 328 701T340 686T341 667T329 646L269 583Q248 562 228 562H226Q207 562 199 577T201 610L231 667Z" />
<glyph unicode="&#x15c;" glyph-name="Scircumflex" horiz-adv-x="529" d="M493 199Q493 96 427 45T245 -6Q184 -6 136 6T60 36Q24 59 24 93V95Q24 113 35 125T66 137Q83 137 94 127T122 105T166 82T242 72Q314 72 354 100T395 189Q395 222 382 242T346 275T293
297T229 316Q182 329 146 345T86 385T50 439T37 515Q37 560 53 595T99 655T171 693T266 706Q317 706 357 697T422 673Q460 650 460 617V615Q460 598 450 587T422 576Q407 576 397 584T371 601T333 619T267 627Q198 627 165 599T131 522Q131 495 141 477T170 445T216
423T276 405Q331 390 372 374T440 335T480 279T493 199ZM222 748Q196 725 181 725H180Q171 725 163 730T152 744T151 763T164 785L200 822Q216 839 230 846T261 854H266Q283 854 297 847T327 822L363 785Q373 774 375 764T375 745T364 731T347 725H346Q331 725
305 748L263 786L222 748Z" />
<glyph unicode="&#x15d;" glyph-name="scircumflex" horiz-adv-x="445" d="M414 158Q414 83 365 39T209 -5Q165 -5 132 1T72 21Q31 41 31 75V77Q31 94 41 106T71 118Q84 118 93 111T115 94T148 77T205 69Q320 69 320 149Q320 166 315 178T296 200T260 215T204
227Q123 238 79 271T35 377Q35 451 87 490T227 529Q299 529 347 509Q370 500 379 487T389 458V456Q389 439 379 428T351 417Q340 417 331 423T309 436T278 449T228 455Q174 455 150 438T125 385Q125 369 131 357T150 337T186 322T241 311Q285 305 317 294T371 265T403
221T414 158ZM223 708Q240 708 254 700T283 675L322 631Q334 617 336 605T336 583T324 569T306 563H304Q288 563 266 586L221 634L177 586Q155 563 139 563H137Q128 563 120 568T107 583T106 604T121 631L160 675Q188 708 220 708H223Z" />
<glyph unicode="&#x15e;" glyph-name="Scedilla" horiz-adv-x="529" d="M493 199Q493 102 434 51T270 -5V-32Q311 -34 330 -52T350 -103Q350 -137 324 -156T256 -175Q241 -175 227 -172T201 -164Q181 -155 181 -136V-134Q181 -124 186 -118T201 -111Q207 -111
211 -113T221 -118T233 -123T250 -125Q265 -125 274 -119T283 -100Q283 -89 274 -82T242 -75H237Q216 -75 216 -55V-5Q165 -3 125 8T60 36Q24 59 24 93V95Q24 113 35 125T66 137Q83 137 94 127T122 105T166 82T242 72Q314 72 354 100T395 189Q395 222 382 242T346
275T293 297T229 316Q182 329 146 345T86 385T50 439T37 515Q37 560 53 595T99 655T171 693T266 706Q317 706 357 697T422 673Q460 650 460 617V615Q460 598 450 587T422 576Q407 576 397 584T371 601T333 619T267 627Q198 627 165 599T131 522Q131 495 141 477T170
445T216 423T276 405Q331 390 372 374T440 335T480 279T493 199Z" />
<glyph unicode="&#x15f;" glyph-name="scedilla" horiz-adv-x="445" d="M414 158Q414 87 371 44T235 -4V-32Q276 -34 295 -52T315 -103Q315 -137 289 -156T221 -175Q206 -175 192 -172T166 -164Q146 -155 146 -136V-134Q146 -124 151 -118T166 -111Q172 -111 176
-113T186 -118T198 -123T215 -125Q230 -125 239 -119T248 -100Q248 -89 239 -82T207 -75H202Q181 -75 181 -55V-4Q147 -2 121 4T72 21Q31 41 31 75V77Q31 94 41 106T71 118Q84 118 93 111T115 94T148 77T205 69Q320 69 320 149Q320 166 315 178T296 200T260 215T204
227Q123 238 79 271T35 377Q35 451 87 490T227 529Q299 529 347 509Q370 500 379 487T389 458V456Q389 439 379 428T351 417Q340 417 331 423T309 436T278 449T228 455Q174 455 150 438T125 385Q125 369 131 357T150 337T186 322T241 311Q285 305 317 294T371 265T403
221T414 158Z" />
<glyph unicode="&#x160;" glyph-name="Scaron" horiz-adv-x="529" d="M748 199Q748 96 682 45T500 -6Q439 -6 391 6T315 36Q279 59 279 93V95Q279 113 290 125T321 137Q338 137 349 127T377 105T421 82T497 72Q569 72 609 100T650 189Q650 222 637 242T601 275T548
297T484 316Q437 329 401 345T341 385T305 439T292 515Q292 560 308 595T354 655T426 693T521 706Q572 706 612 697T677 673Q715 650 715 617V615Q715 598 705 587T677 576Q662 576 652 584T626 601T588 619T522 627Q453 627 420 599T386 522Q386 495 396 477T425
445T471 423T531 405Q586 390 627 374T695 335T735 279T748 199ZM261 793L303 831Q329 854 344 854H345Q354 854 362 849T373 835T374 815T361 794L325 757Q309 740 295 733T264 725H259Q242 725 228 732T198 757L162 794Q151 804 149 815T150 834T161 848T178
854H179Q194 854 220 831L261 793Z" />
<glyph unicode="&#x161;" glyph-name="scaron" horiz-adv-x="445" d="M414 158Q414 83 365 39T209 -5Q165 -5 132 1T72 21Q31 41 31 75V77Q31 94 41 106T71 118Q84 118 93 111T115 94T148 77T205 69Q320 69 320 149Q320 166 315 178T296 200T260 215T204 227Q123
238 79 271T35 377Q35 451 87 490T227 529Q299 529 347 509Q370 500 379 487T389 458V456Q389 439 379 428T351 417Q340 417 331 423T309 436T278 449T228 455Q174 455 150 438T125 385Q125 369 131 357T150 337T186 322T241 311Q285 305 317 294T371 265T403 221T414
158ZM224 562Q192 562 164 595L125 639Q113 653 110 665T111 687T123 701T141 707H143Q159 707 181 684L225 636L270 684Q292 707 308 707H310Q319 707 327 702T339 687T341 666T326 639L287 595Q273 578 259 570T227 562H224Z" />
<glyph unicode="&#x162;" glyph-name="Tcommaaccent" horiz-adv-x="575" d="M341 622V49Q341 22 326 9T288 -4H286Q264 -4 249 9T234 49V622H60Q42 622 32 631T21 660V662Q21 681 31 690T60 700H514Q532 700 542 691T553 662V660Q553 641 543 632T514 622H341ZM230
-174Q230 -167 234 -162T251 -151Q263 -146 269 -141T276 -128Q276 -121 272 -117T257 -106Q247 -99 242 -91T236 -68Q236 -50 250 -38T284 -26Q307 -26 322 -41T337 -89Q337 -133 317 -158T259 -192Q245 -195 238 -190T230 -175V-174Z" />
<glyph unicode="&#x163;" glyph-name="tcommaaccent" horiz-adv-x="329" d="M46 454Q29 454 21 463T12 487V489Q12 523 46 523H80V621Q80 644 93 657T130 670H132Q155 670 167 657T180 621V523H272Q306 523 306 489V487Q306 472 298 463T272 454H180V139Q180 97
198 83T255 69H269Q310 69 310 35V34Q310 6 280 -1Q268 -4 254 -5T222 -6Q155 -6 118 24T80 128V454H46ZM393 -174Q393 -167 397 -162T414 -151Q426 -146 432 -141T439 -128Q439 -121 435 -117T420 -106Q410 -99 405 -91T399 -68Q399 -50 413 -38T447 -26Q470 -26
485 -41T500 -89Q500 -133 480 -158T422 -192Q408 -195 401 -190T393 -175V-174Z" />
<glyph unicode="&#x164;" glyph-name="Tcaron" horiz-adv-x="575" d="M341 622V49Q341 22 326 9T288 -4H286Q264 -4 249 9T234 49V622H60Q42 622 32 631T21 660V662Q21 681 31 690T60 700H514Q532 700 542 691T553 662V660Q553 641 543 632T514 622H341ZM285 793L327
831Q353 854 368 854H369Q378 854 386 849T397 835T398 815T385 794L349 757Q333 740 319 733T288 725H283Q266 725 252 732T222 757L186 794Q175 804 173 815T174 834T185 848T202 854H203Q218 854 244 831L285 793Z" />
<glyph unicode="&#x165;" glyph-name="tcaron" horiz-adv-x="329" d="M298 583Q283 555 261 555H259Q231 555 231 586L235 661Q235 680 246 692T280 705H287Q312 705 321 689T320 652L298 583ZM46 454Q29 454 21 463T12 487V489Q12 523 46 523H80V621Q80 644 93
657T130 670H132Q155 670 167 657T180 621V523H272Q306 523 306 489V487Q306 472 298 463T272 454H180V139Q180 97 198 83T255 69H269Q310 69 310 35V34Q310 6 280 -1Q268 -4 254 -5T222 -6Q155 -6 118 24T80 128V454H46Z" />
<glyph unicode="&#x16a;" glyph-name="Umacron" horiz-adv-x="679" d="M178 253Q178 200 191 166T227 112T282 83T352 75Q388 75 418 83T470 111T504 165T516 253V659Q516 681 528 692T561 704H563Q584 704 596 693T609 659V256Q609 122 543 58T346 -6Q283 -6
232 10T146 58T91 140T71 256V652Q71 675 84 689T124 704H125Q150 704 164 690T178 652V253ZM442 815Q461 815 468 805T476 781V779Q476 765 469 755T442 745H252Q233 745 226 755T218 779V781Q218 795 225 805T252 815H442Z" />
<glyph unicode="&#x16b;" glyph-name="umacron" horiz-adv-x="576" d="M459 -4Q414 -4 408 61Q368 32 317 13T211 -7Q179 -7 153 0T106 23T75 66T64 133V478Q64 501 77 514T113 527H115Q138 527 151 514T164 478V154Q164 105 186 88T249 70Q292 70 332 86T407
124V478Q407 501 420 514T456 527H458Q481 527 494 514T507 478V46Q507 -4 461 -4H459ZM378 666Q397 666 404 656T411 633V631Q411 617 404 607T378 597H196Q177 597 170 607T162 631V633Q162 646 169 656T196 666H378Z" />
<glyph unicode="&#x16c;" glyph-name="Ubreve" horiz-adv-x="679" d="M178 253Q178 200 191 166T227 112T282 83T352 75Q388 75 418 83T470 111T504 165T516 253V659Q516 681 528 692T561 704H563Q584 704 596 693T609 659V256Q609 122 543 58T346 -6Q283 -6 232
10T146 58T91 140T71 256V652Q71 675 84 689T124 704H125Q150 704 164 690T178 652V253ZM347 729Q303 729 272 748T227 800Q217 821 224 836T249 851H251Q262 851 269 845T284 829Q297 814 312 806T347 797Q367 797 381 805T409 829Q417 838 424 844T443 851H444Q461
851 468 836T467 800Q453 768 422 749T347 729Z" />
<glyph unicode="&#x16d;" glyph-name="ubreve" horiz-adv-x="576" d="M459 -4Q414 -4 408 61Q368 32 317 13T211 -7Q179 -7 153 0T106 23T75 66T64 133V478Q64 501 77 514T113 527H115Q138 527 151 514T164 478V154Q164 105 186 88T249 70Q292 70 332 86T407 124V478Q407
501 420 514T456 527H458Q481 527 494 514T507 478V46Q507 -4 461 -4H459ZM287 569Q242 569 209 591T161 648Q152 671 160 686T186 702H187Q197 702 204 697T223 678Q237 660 252 651T287 641Q307 641 322 650T351 678Q362 691 369 696T387 702H388Q406 702 414
687T413 648Q399 613 366 591T287 569Z" />
<glyph unicode="&#x16e;" glyph-name="Uring" horiz-adv-x="679" d="M178 253Q178 200 191 166T227 112T282 83T352 75Q388 75 418 83T470 111T504 165T516 253V659Q516 681 528 692T561 704H563Q584 704 596 693T609 659V256Q609 122 543 58T346 -6Q283 -6 232
10T146 58T91 140T71 256V652Q71 675 84 689T124 704H125Q150 704 164 690T178 652V253ZM443 796Q443 774 435 757T414 728T384 710T347 703Q308 703 279 727T250 796Q250 839 279 864T347 889Q366 889 383 883T414 864T435 835T443 796ZM304 796Q304 775 316 763T347
751Q366 751 378 763T391 796Q391 816 379 828T347 841Q328 841 316 829T304 796Z" />
<glyph unicode="&#x16f;" glyph-name="uring" horiz-adv-x="576" d="M459 -4Q414 -4 408 61Q368 32 317 13T211 -7Q179 -7 153 0T106 23T75 66T64 133V478Q64 501 77 514T113 527H115Q138 527 151 514T164 478V154Q164 105 186 88T249 70Q292 70 332 86T407 124V478Q407
501 420 514T456 527H458Q481 527 494 514T507 478V46Q507 -4 461 -4H459ZM383 663Q383 641 375 624T354 595T324 577T287 570Q248 570 219 594T190 663Q190 706 219 731T287 756Q306 756 323 750T354 731T375 702T383 663ZM244 663Q244 643 256 631T287 618Q306
618 318 630T331 663Q331 683 319 696T287 709Q268 709 256 696T244 663Z" />
<glyph unicode="&#x170;" glyph-name="Uhungarumlaut" horiz-adv-x="679" d="M178 253Q178 200 191 166T227 112T282 83T352 75Q388 75 418 83T470 111T504 165T516 253V659Q516 681 528 692T561 704H563Q584 704 596 693T609 659V256Q609 122 543 58T346 -6Q283
-6 232 10T146 58T91 140T71 256V652Q71 675 84 689T124 704H125Q150 704 164 690T178 652V253ZM270 816Q278 838 289 846T320 854H330Q353 854 360 838T351 799L315 747Q299 725 276 725H274Q260 725 252 735T250 763L270 816ZM411 816Q419 838 430 846T461 854H471Q494
854 501 838T492 799L456 747Q440 725 417 725H415Q401 725 393 735T391 763L411 816Z" />
<glyph unicode="&#x171;" glyph-name="uhungarumlaut" horiz-adv-x="576" d="M459 -4Q414 -4 408 61Q368 32 317 13T211 -7Q179 -7 153 0T106 23T75 66T64 133V478Q64 501 77 514T113 527H115Q138 527 151 514T164 478V154Q164 105 186 88T249 70Q292 70 332 86T407
124V478Q407 501 420 514T456 527H458Q481 527 494 514T507 478V46Q507 -4 461 -4H459ZM217 667Q225 686 236 696T268 706H277Q299 706 305 690T298 651L258 588Q249 574 239 569T218 563H216Q202 563 193 573T192 604L217 667ZM359 667Q367 686 378 696T410 706H419Q441
706 447 690T440 651L400 588Q391 574 381 569T360 563H358Q344 563 335 573T334 604L359 667Z" />
<glyph unicode="&#x172;" glyph-name="Uogonek" horiz-adv-x="679" d="M462 10Q408 -16 391 -34T374 -66Q374 -76 378 -82T390 -91T405 -97T422 -101Q448 -108 448 -129V-130Q448 -161 399 -163Q382 -164 364 -161T330 -149T304 -127T294 -91Q294 -63 310 -41T350
-5Q342 -5 332 -5T310 -3Q257 1 213 18T138 68T89 147T71 256V652Q71 675 84 689T124 704H125Q150 704 164 690T178 652V253Q178 200 191 166T227 112T282 83T352 75Q388 75 418 83T470 111T504 165T516 253V659Q516 681 528 692T562 704H563Q584 704 596 693T609
659V256Q609 161 572 103T462 10Z" />
<glyph unicode="&#x173;" glyph-name="uogonek" horiz-adv-x="576" d="M429 6Q411 21 408 61Q368 32 317 13T211 -7Q179 -7 153 0T106 23T75 66T64 133V478Q64 501 77 514T113 527H115Q138 527 151 514T164 478V154Q164 105 186 88T249 70Q292 70 332 86T407 124V478Q407
501 420 514T456 527H458Q481 527 494 514T507 478V46Q507 28 504 19T489 -1Q466 -22 455 -35T444 -65Q444 -85 459 -91T492 -101Q518 -108 518 -129V-130Q518 -161 469 -163Q452 -164 434 -161T400 -148T374 -124T364 -86Q364 -60 382 -36T429 6Z" />
<glyph unicode="&#x178;" glyph-name="Ydieresis" horiz-adv-x="583" d="M513 704Q540 704 551 684T549 637L349 285V49Q349 22 334 9T297 -4H295Q273 -4 258 9T242 49V282L40 629Q32 643 32 656T38 680T57 697T85 704H87Q104 704 115 692T140 657L300 376H302L462
664Q473 684 484 694T510 704H513ZM273 788Q273 765 257 749T217 733Q194 733 178 749T162 788Q162 810 178 826T217 842Q240 842 256 826T273 788ZM441 788Q441 765 425 749T386 733Q363 733 347 749T331 788Q331 810 347 826T386 842Q409 842 425 826T441 788Z"
/>
<glyph unicode="&#x179;" glyph-name="Zacute" horiz-adv-x="546" d="M406 619V622H86Q48 622 48 660V662Q48 679 57 689T86 700H476Q496 700 507 689T519 658V649Q519 628 513 613T495 580L136 79V76H477Q497 76 506 67T515 40V38Q515 21 506 11T477 0H65Q47
0 35 12T23 43V50Q23 70 28 85T50 122L406 619ZM284 821Q293 840 306 847T338 854H354Q382 854 388 835T376 795L330 747Q309 724 287 724H283Q267 724 258 737T259 770L284 821Z" />
<glyph unicode="&#x17a;" glyph-name="zacute" horiz-adv-x="474" d="M335 451H82Q65 451 56 460T46 486V488Q46 504 55 513T82 523H408Q429 523 439 513T449 485V482Q449 466 444 454T424 424L141 72H408Q425 72 434 63T443 38V36Q443 19 434 10T408 0H70Q49
0 39 11T28 40V43Q28 58 34 70T55 102L335 451ZM257 667Q268 687 280 696T313 706H334Q346 706 354 701T366 686T367 667T355 646L295 583Q274 562 254 562H252Q233 562 225 577T227 610L257 667Z" />
<glyph unicode="&#x17b;" glyph-name="Zdotaccent" horiz-adv-x="546" d="M406 619V622H86Q48 622 48 660V662Q48 679 57 689T86 700H476Q496 700 507 689T519 658V649Q519 628 513 613T495 580L136 79V76H477Q497 76 506 67T515 40V38Q515 21 506 11T477 0H65Q47
0 35 12T23 43V50Q23 70 28 85T50 122L406 619ZM346 790Q346 767 329 751T288 734Q264 734 248 750T231 790Q231 814 247 830T288 847Q312 847 329 831T346 790Z" />
<glyph unicode="&#x17c;" glyph-name="zdotaccent" horiz-adv-x="474" d="M335 451H82Q65 451 56 460T46 486V488Q46 504 55 513T82 523H408Q429 523 439 513T449 485V482Q449 466 444 454T424 424L141 72H408Q425 72 434 63T443 38V36Q443 19 434 10T408 0H70Q49
0 39 11T28 40V43Q28 58 34 70T55 102L335 451ZM306 639Q306 616 289 600T248 583Q224 583 208 599T191 639Q191 662 207 679T248 696Q272 696 289 679T306 639Z" />
<glyph unicode="&#x17d;" glyph-name="Zcaron" horiz-adv-x="546" d="M406 619V622H86Q48 622 48 660V662Q48 679 57 689T86 700H476Q496 700 507 689T519 658V649Q519 628 513 613T495 580L136 79V76H477Q497 76 506 67T515 40V38Q515 21 506 11T477 0H65Q47
0 35 12T23 43V50Q23 70 28 85T50 122L406 619ZM287 793L329 831Q355 854 370 854H371Q380 854 388 849T399 835T400 815T387 794L351 757Q335 740 321 733T290 725H285Q268 725 254 732T224 757L188 794Q177 804 175 815T176 834T187 848T204 854H205Q220 854
246 831L287 793Z" />
<glyph unicode="&#x17e;" glyph-name="zcaron" horiz-adv-x="474" d="M335 451H82Q65 451 56 460T46 486V488Q46 504 55 513T82 523H408Q429 523 439 513T449 485V482Q449 466 444 454T424 424L141 72H408Q425 72 434 63T443 38V36Q443 19 434 10T408 0H70Q49
0 39 11T28 40V43Q28 58 34 70T55 102L335 451ZM250 562Q218 562 190 595L151 639Q139 653 136 665T137 687T149 701T167 707H169Q185 707 207 684L251 636L296 684Q318 707 334 707H336Q345 707 353 702T365 687T367 666T352 639L313 595Q299 578 285 570T253
562H250Z" />
<glyph unicode="&#x192;" glyph-name="florin" horiz-adv-x="357" d="M278 707Q290 707 301 706T324 702Q353 695 353 667V666Q353 636 315 633L287 631Q262 629 247 614T227 564L211 436H278Q298 436 305 426T313 402V400Q313 386 306 376T278 366H203L153 -42Q150
-68 136 -80T99 -93H97Q74 -93 61 -79T50 -38L98 366H67Q47 366 40 376T32 400V402Q32 416 39 426T67 436H107L123 569Q132 641 171 674T278 707Z" />
<glyph unicode="&#x218;" glyph-name="Scommaaccent" horiz-adv-x="529" d="M493 199Q493 96 427 45T245 -6Q184 -6 136 6T60 36Q24 59 24 93V95Q24 113 35 125T66 137Q83 137 94 127T122 105T166 82T242 72Q314 72 354 100T395 189Q395 222 382 242T346 275T293
297T229 316Q182 329 146 345T86 385T50 439T37 515Q37 560 53 595T99 655T171 693T266 706Q317 706 357 697T422 673Q460 650 460 617V615Q460 598 450 587T422 576Q407 576 397 584T371 601T333 619T267 627Q198 627 165 599T131 522Q131 495 141 477T170 445T216
423T276 405Q331 390 372 374T440 335T480 279T493 199ZM201 -174Q201 -167 205 -162T222 -151Q234 -146 240 -141T247 -128Q247 -121 243 -117T228 -106Q218 -99 213 -91T207 -68Q207 -50 221 -38T255 -26Q278 -26 293 -41T308 -89Q308 -133 288 -158T230 -192Q216
-195 209 -190T201 -175V-174Z" />
<glyph unicode="&#x219;" glyph-name="scommaaccent" horiz-adv-x="445" d="M414 158Q414 83 365 39T209 -5Q165 -5 132 1T72 21Q31 41 31 75V77Q31 94 41 106T71 118Q84 118 93 111T115 94T148 77T205 69Q320 69 320 149Q320 166 315 178T296 200T260 215T204
227Q123 238 79 271T35 377Q35 451 87 490T227 529Q299 529 347 509Q370 500 379 487T389 458V456Q389 439 379 428T351 417Q340 417 331 423T309 436T278 449T228 455Q174 455 150 438T125 385Q125 369 131 357T150 337T186 322T241 311Q285 305 317 294T371 265T403
221T414 158ZM166 -174Q166 -167 170 -162T187 -151Q199 -146 205 -141T212 -128Q212 -121 208 -117T193 -106Q183 -99 178 -91T172 -68Q172 -50 186 -38T220 -26Q243 -26 258 -41T273 -89Q273 -133 253 -158T195 -192Q181 -195 174 -190T166 -175V-174Z" />
<glyph unicode="&#x237;" glyph-name="uni0237" horiz-adv-x="233" d="M166 -32Q166 -102 132 -134T32 -166Q24 -166 15 -166T-4 -163Q-34 -156 -34 -130V-129Q-34 -100 -5 -97Q17 -95 30 -91T52 -78T63 -58T66 -26V477Q66 527 113 527H115Q141 527 153 510T166 451V-32Z" />
<glyph unicode="&#x2c6;" glyph-name="circumflex" horiz-adv-x="409" d="M207 708Q224 708 238 700T267 675L306 631Q318 617 320 605T320 583T308 569T290 563H288Q272 563 250 586L205 634L161 586Q139 563 123 563H121Q112 563 104 568T91 583T90 604T105
631L144 675Q172 708 204 708H207Z" />
<glyph unicode="&#x2c7;" glyph-name="caron" horiz-adv-x="409" d="M204 562Q172 562 144 595L105 639Q93 653 90 665T91 687T103 701T121 707H123Q139 707 161 684L205 636L250 684Q272 707 288 707H290Q299 707 307 702T319 687T321 666T306 639L267 595Q253
578 239 570T207 562H204Z" />
<glyph unicode="&#x2d8;" glyph-name="breve" horiz-adv-x="410" d="M205 569Q160 569 127 591T79 648Q70 671 78 686T104 702H105Q115 702 122 697T141 678Q155 660 170 651T205 641Q225 641 240 650T269 678Q280 691 287 696T305 702H306Q324 702 332 687T331
648Q317 613 284 591T205 569Z" />
<glyph unicode="&#x2d9;" glyph-name="dotaccent" horiz-adv-x="410" d="M263 639Q263 616 246 600T205 583Q181 583 165 599T148 639Q148 662 164 679T205 696Q229 696 246 679T263 639Z" />
<glyph unicode="&#x2da;" glyph-name="ring" horiz-adv-x="410" d="M301 663Q301 641 293 624T272 595T242 577T205 570Q166 570 137 594T108 663Q108 706 137 731T205 756Q224 756 241 750T272 731T293 702T301 663ZM162 663Q162 643 174 631T205 618Q224 618
236 630T249 663Q249 683 237 696T205 709Q186 709 174 696T162 663Z" />
<glyph unicode="&#x2db;" glyph-name="ogonek" horiz-adv-x="404" d="M139 -91Q139 -61 158 -38T200 0H266Q244 -17 231 -33T218 -67Q218 -77 222 -82T234 -91T250 -97T267 -101Q293 -108 293 -129V-130Q293 -161 244 -163Q227 -164 209 -161T175 -149T149 -127T139 -91Z" />
<glyph unicode="&#x2dc;" glyph-name="tilde" horiz-adv-x="410" d="M257 576Q240 576 225 581T197 593T172 605T150 611Q136 611 127 605T112 589Q107 582 102 577T85 571H84Q67 571 60 584T59 621Q67 648 89 666T143 684Q159 684 174 679T202 667T228 655T250
649Q264 649 272 655T288 672Q293 679 298 684T314 690H316Q333 690 340 676T340 639Q332 612 311 594T257 576Z" />
<glyph unicode="&#x2dd;" glyph-name="hungarumlaut" horiz-adv-x="410" d="M135 667Q143 686 154 696T186 706H195Q217 706 223 690T216 651L176 588Q167 574 157 569T136 563H134Q120 563 111 573T110 604L135 667ZM277 667Q285 686 296 696T328 706H337Q359
706 365 690T358 651L318 588Q309 574 299 569T278 563H276Q262 563 253 573T252 604L277 667Z" />
</font>
</defs>
</svg>
