<?xml version="1.0" standalone="no"?> <!DOCTYPE svg PUBLIC "-//W3C//DTD SVG 1.0//EN" "http://www.w3.org/TR/2001/REC-SVG-20010904/DTD/svg10.dtd" > <svg xmlns="http://www.w3.org/2000/svg" width="100%" height="100%">
<defs >
<font horiz-adv-x="507" ><font-face
    font-family=""
    units-per-em="1000"
    panose-1="2 0 6 3 6 0 0 2 0 4"
    ascent="838"
    descent="-162"
    alphabetic="0" />
<missing-glyph horiz-adv-x="500" />
<glyph unicode=" " glyph-name="space" horiz-adv-x="175" />
<glyph unicode="!" glyph-name="exclam" horiz-adv-x="146" d="M61 685V700H85V685L81 118H65L61 685ZM73 39Q82 39 88 33T94 18Q94 9 88 3T73 -3Q64 -3 58 3T52 18Q52 27 58 33T73 39Z" />
<glyph unicode="&quot;" glyph-name="quotedbl" horiz-adv-x="152" d="M27 667V700H50V667L46 545H31L27 667ZM102 667V700H125V667L121 545H106L102 667Z" />
<glyph unicode="#" glyph-name="numbersign" horiz-adv-x="440" d="M48 450H138L175 700H193L156 450H308L345 700H363L326 450H415V432H324L304 295H392V277H301L261 0H243L283 277H131L91 0H73L113 277H25V295H116L136 432H48V450ZM134 295H286L306 432H154L134 295Z" />
<glyph unicode="$" glyph-name="dollar" horiz-adv-x="481" d="M246 764V703Q287 703 316 700T365 692T398 684T420 676V570H404Q403 597 401 614T396 642T389 659T377 668Q360 676 331 681T246 687V370Q287 358 324 346T389 314T433 265T450 189Q450 138 435
102T393 43T329 9T246 -3V-102H227V-3Q147 -1 101 9T28 32V145H44Q45 115 47 95T52 64T58 47T67 39Q78 34 91 30T123 22T167 16T227 13V357Q191 367 157 379T97 412T55 462T39 537Q39 570 50 600T84 652T142 688T227 703V764H246ZM430 189Q430 231 415 258T375
302T317 330T246 351V13Q287 13 321 23T379 54T416 109T430 189ZM58 538Q58 497 71 471T108 426T161 397T227 376V687Q182 686 150 674T97 641T68 595T58 538Z" />
<glyph unicode="%" glyph-name="percent" horiz-adv-x="672" d="M178 703Q207 703 233 692T280 660T311 608T323 534Q323 492 312 461T280 408T234 377T178 366Q149 366 123 376T76 408T45 460T33 534Q33 576 44 607T76 660T122 692T178 703ZM98 -34H79L572 729H591L98
-34ZM178 381Q234 381 268 421T303 534Q303 607 269 647T178 688Q122 688 88 648T53 534Q53 461 87 421T178 381ZM492 334Q521 334 547 323T594 291T625 239T637 165Q637 123 626 92T594 39T548 8T492 -3Q463 -3 437 7T390 39T359 91T347 165Q347 207 358 238T390
291T436 323T492 334ZM492 12Q548 12 582 52T617 165Q617 238 583 278T492 319Q436 319 402 279T367 165Q367 92 401 52T492 12Z" />
<glyph unicode="&amp;" glyph-name="ampersand" horiz-adv-x="657" d="M306 703Q337 703 358 699T394 689T418 679T433 674Q439 674 442 678T447 700H462V543H447L439 638Q389 687 307 687Q240 687 203 650T166 552Q166 522 172 500T189 458T216 419T253 376L470
132Q499 179 517 237T543 359H468V373H638V359H587Q564 359 560 332Q549 275 531 220T482 119L552 41Q566 28 575 21T596 14H639V0H563L470 103Q435 55 383 26T258 -3Q202 -3 159 13T88 56T45 120T30 196Q30 238 43 273T79 335T132 381T197 412Q173 442 159 473T145
552Q145 585 156 612T188 660T239 692T306 703ZM258 13Q327 13 375 40T459 116L207 399Q139 376 96 327T52 196Q52 161 63 128T100 70T164 29T258 13Z" />
<glyph unicode="&apos;" glyph-name="quotesingle" horiz-adv-x="77" d="M27 667V700H50V667L46 545H31L27 667Z" />
<glyph unicode="(" glyph-name="parenleft" horiz-adv-x="250" d="M235 729Q209 713 177 687T117 616T70 507T51 351Q51 259 70 193T117 81T177 7T235 -37V-49H224Q197 -34 164 -5T101 73T51 189T30 351Q30 444 50 511T100 624T163 698T224 741H235V729Z" />
<glyph unicode=")" glyph-name="parenright" horiz-adv-x="250" d="M15 -37Q41 -21 73 5T133 76T180 184T199 341Q199 432 180 498T133 611T73 685T15 729V741H26Q53 726 86 697T149 619T199 503T220 341Q220 248 200 181T150 68T87 -6T26 -49H15V-37Z" />
<glyph unicode="*" glyph-name="asterisk" horiz-adv-x="344" d="M167 552L161 671L164 700H180L183 671L176 552L276 617L302 629L310 616L286 599L180 544L286 491L310 474L302 461L276 473L176 537L183 419L180 390H164L161 419L167 537L68 473L42 461L34 474L58
491L163 544L58 599L34 616L42 629L68 617L167 552Z" />
<glyph unicode="+" glyph-name="plus" horiz-adv-x="446" d="M233 337V149H214V337H36V354H214V542H233V354H410V337H233Z" />
<glyph unicode="," glyph-name="comma" horiz-adv-x="100" d="M16 -69Q31 -63 41 -51T52 -19Q52 -12 48 -8T40 -1Q29 7 29 19Q29 27 35 33T49 39Q59 39 66 31T74 3Q74 -40 57 -58T16 -83V-69Z" />
<glyph unicode="-" glyph-name="hyphen" horiz-adv-x="201" d="M20 306H181V289H20V306Z" />
<glyph unicode="." glyph-name="period" horiz-adv-x="100" d="M50 39Q59 39 65 33T71 18Q71 9 65 3T50 -3Q41 -3 35 3T29 18Q29 27 35 33T50 39Z" />
<glyph unicode="/" glyph-name="slash" horiz-adv-x="282" d="M28 -49H9L251 741H270L28 -49Z" />
<glyph unicode="0" glyph-name="zero" horiz-adv-x="629" d="M315 -3Q258 -3 208 19T119 85T59 196T37 350Q37 438 59 504T119 614T207 681T315 703Q372 703 422 681T510 615T570 504T592 350Q592 262 570 196T510 86T422 19T315 -3ZM315 13Q370 13 416 34T497
98T550 203T570 350Q570 433 551 496T497 601T417 665T315 687Q260 687 213 666T132 602T79 496T59 350Q59 266 78 203T132 98T213 35T315 13Z" />
<glyph unicode="1" glyph-name="one" horiz-adv-x="292" d="M18 14H101Q115 14 126 25T137 50V682L27 622H12V638L143 700H158V50Q158 37 169 26T194 14H274V0H18V14Z" />
<glyph unicode="2" glyph-name="two" horiz-adv-x="484" d="M429 151H444V0H22V28Q22 77 41 116T90 187T159 246T237 298Q276 323 311 346T373 396T415 454T431 527Q431 602 388 644T248 687Q197 687 157 679T94 653Q83 644 78 625T70 555H54V665Q99 683 145 693T248
703Q301 703 340 691T404 655T441 600T453 528Q453 483 436 449T389 386T323 333T245 283Q207 260 171 234T105 178T59 110T41 27V15H422L429 151Z" />
<glyph unicode="3" glyph-name="three" horiz-adv-x="474" d="M440 198Q440 103 386 50T209 -3Q153 -3 106 9T24 35V133H40Q42 93 47 73T64 45Q82 32 118 23T209 13Q266 13 305 25T370 62T406 120T418 198Q418 241 403 271T361 321T302 348T232 357H165V372H224Q263
372 295 382T352 411T389 461T403 530Q403 608 361 647T225 687Q172 687 137 680T83 660Q71 652 66 633T58 574H42V667Q82 684 126 693T225 703Q325 703 374 659T424 530Q424 462 385 419T287 366V365Q320 360 348 347T396 312T428 261T440 198Z" />
<glyph unicode="4" glyph-name="four" horiz-adv-x="522" d="M353 14Q367 14 378 25T389 50V189H18V208L394 700H410V205H504V189H410V50Q410 37 421 26T446 14H504V0H293V14H353ZM39 205H389V663H388L39 206V205Z" />
<glyph unicode="5" glyph-name="five" horiz-adv-x="489" d="M207 -3Q151 -3 108 7T24 36V132H40Q42 89 46 71T64 44Q84 31 118 22T207 13Q259 13 301 27T372 70T418 138T434 228Q434 278 419 314T379 372T319 405T247 416Q181 416 135 392T65 337H47V700H433V575H418L411
685H66V359H68Q77 370 93 383T132 407T184 425T247 432Q287 432 325 420T392 383T438 320T456 228Q456 175 438 133T386 60T307 14T207 -3Z" />
<glyph unicode="6" glyph-name="six" horiz-adv-x="551" d="M59 335Q59 324 59 314T60 294Q98 348 160 382T297 417Q339 417 378 407T449 373T498 312T517 220Q517 166 500 125T453 55T382 12T291 -3Q240 -3 194 16T113 75T58 180T37 335Q37 425 62 493T129 608T229
679T350 703Q397 703 429 697T485 678V658H470Q455 671 425 679T350 687Q289 687 236 665T144 599T82 489T59 335ZM297 402Q260 402 226 392T161 365T105 324T61 272Q68 202 88 153T139 73T209 28T291 14Q336 14 373 27T438 66T481 130T496 220Q496 270 480 305T435
361T372 392T297 402Z" />
<glyph unicode="7" glyph-name="seven" horiz-adv-x="496" d="M460 685H44L37 551H22V700H478V682L151 0H131V15L460 684V685Z" />
<glyph unicode="8" glyph-name="eight" horiz-adv-x="537" d="M205 376Q143 388 105 431T67 534Q67 570 80 601T120 654T183 690T268 703Q315 703 352 690T416 655T456 601T470 534Q470 474 432 432T332 376V374Q372 368 404 352T459 311T493 255T505 188Q505
147 490 112T445 52T371 12T268 -3Q209 -3 165 11T92 51T47 112T32 188Q32 223 44 254T78 310T132 351T205 374V376ZM483 188Q483 227 469 259T428 316T361 353T268 367Q215 367 175 354T108 316T68 260T54 188Q54 149 67 117T107 62T174 26T268 13Q322 13 362
26T429 62T469 117T483 188ZM268 382Q355 382 402 424T449 534Q449 602 402 644T268 687Q181 687 135 645T88 534Q88 466 134 424T268 382Z" />
<glyph unicode="9" glyph-name="nine" horiz-adv-x="551" d="M492 365Q492 374 492 383T491 401Q453 347 391 315T254 283Q212 283 173 293T102 327T53 388T34 480Q34 534 51 575T98 645T169 688T260 703Q311 703 357 684T438 625T493 520T514 365Q514 275 492
206T430 91T331 21T201 -3Q154 -3 119 4T58 27V47H73Q111 13 201 13Q267 13 321 35T413 101T471 211T492 365ZM254 298Q328 298 390 332T489 423Q483 494 463 544T412 625T342 671T260 686Q215 686 178 673T113 634T70 570T55 480Q55 430 71 395T116 339T179 308T254
298Z" />
<glyph unicode=":" glyph-name="colon" horiz-adv-x="108" d="M54 359Q63 359 69 353T75 338Q75 329 69 323T54 317Q45 317 39 323T33 338Q33 347 39 353T54 359ZM54 39Q63 39 69 33T75 18Q75 9 69 3T54 -3Q45 -3 39 3T33 18Q33 27 39 33T54 39Z" />
<glyph unicode=";" glyph-name="semicolon" horiz-adv-x="108" d="M54 359Q63 359 69 353T75 338Q75 329 69 323T54 317Q45 317 39 323T33 338Q33 347 39 353T54 359ZM20 -69Q35 -63 45 -51T56 -19Q56 -12 52 -8T44 -1Q33 7 33 19Q33 27 39 33T53 39Q63 39 70
31T78 3Q78 -40 61 -58T20 -83V-69Z" />
<glyph unicode="&lt;" glyph-name="less" horiz-adv-x="446" d="M31 338L399 536H411V523L50 330V329L411 135V122H399L31 321V338Z" />
<glyph unicode="=" glyph-name="equal" horiz-adv-x="467" d="M30 382V397H437V382H30ZM30 232V247H437V232H30Z" />
<glyph unicode="&gt;" glyph-name="greater" horiz-adv-x="446" d="M415 320L47 122H35V135L396 328V329L35 523V536H47L415 337V320Z" />
<glyph unicode="?" glyph-name="question" horiz-adv-x="421" d="M95 669Q84 665 77 659T66 643T59 616T56 574H40V667Q63 679 104 691T215 703Q296 703 342 667T388 548Q388 511 375 482T341 428T295 379T246 329Q226 308 211 287T185 241T172 187T172 118H154Q149
158 153 189T168 247T196 297T234 343Q256 367 279 389T322 436T354 487T367 548Q367 687 215 687Q171 687 143 682T95 669ZM166 39Q175 39 181 33T187 18Q187 9 181 3T166 -3Q157 -3 151 3T145 18Q145 27 151 33T166 39Z" />
<glyph unicode="@" glyph-name="at" horiz-adv-x="856" d="M479 469Q520 469 544 459T583 437Q585 446 591 457T603 469H612L544 183Q534 141 546 116T607 90Q638 90 672 103T734 145T780 220T798 335Q798 408 773 464T702 559T593 616T453 636Q382 636 311 612T184
538T93 417T58 250Q58 157 86 92T162 -16T277 -77T419 -97Q500 -97 567 -77T676 -23H689V-38Q641 -72 572 -92T419 -113Q341 -113 272 -93T151 -29T69 83T38 250Q38 349 74 424T170 550T303 626T453 652Q531 652 598 632T713 571T790 472T818 335Q818 266 799 217T749
136T681 89T607 74Q552 74 532 102T522 177Q506 159 488 140T448 106T401 81T346 71Q298 71 266 102T233 193Q233 229 241 260T263 318T293 366T327 404Q358 433 397 451T479 469ZM347 88Q375 88 399 97T446 122T487 158T526 198L579 421Q560 437 537 445T479 453Q437
453 405 438T343 393Q327 378 312 358T284 313T263 259T255 193Q255 136 281 112T347 88Z" />
<glyph unicode="A" glyph-name="A" horiz-adv-x="688" d="M14 14H43Q61 14 76 26T98 56L308 646Q314 663 306 674T280 685H224V700H363L588 61Q595 42 610 28T643 14H674V0H471V14H584L505 237H181L122 70Q113 44 120 29T153 14H216V0H14V14ZM187 252H500L348
684H341L187 252Z" />
<glyph unicode="B" glyph-name="B" horiz-adv-x="562" d="M347 369Q384 366 417 355T476 322T515 267T530 188Q530 137 512 101T463 43T388 10T296 0H18V14H68Q82 14 93 25T104 50V649Q104 662 93 673T68 685H18V700H278Q319 700 357 693T426 666T474 614T492
531Q492 493 481 466T451 419T405 387T347 370V369ZM125 360V16H296Q340 16 379 25T447 54T492 107T509 188Q509 236 493 269T447 322T375 351T281 360H125ZM125 376H275Q314 376 349 383T412 409T456 456T472 531Q472 578 456 607T413 654T351 677T278 684H125V376Z"
/>
<glyph unicode="C" glyph-name="C" horiz-adv-x="620" d="M347 -3Q279 -3 223 19T125 85T60 196T37 353Q37 443 63 509T133 618T234 682T355 703Q399 703 431 699T486 689T523 679T543 674Q549 674 552 678T557 700H572V516H557L549 636Q522 662 474 674T356 687Q295
687 241 667T147 606T83 502T59 354Q59 268 79 205T138 98T229 34T347 13Q438 13 493 40T575 109H592V92Q573 71 551 54T499 24T433 4T347 -3Z" />
<glyph unicode="D" glyph-name="D" horiz-adv-x="665" d="M18 14H68Q82 14 93 25T104 50V649Q104 662 93 673T68 685H18V700H280Q366 700 431 681T540 619T606 511T628 350Q628 255 606 189T541 80T432 19T280 0H18V14ZM280 16Q363 16 424 34T526 93T587 196T607
350Q607 440 587 503T527 607T425 665T280 684H125V16H280Z" />
<glyph unicode="E" glyph-name="E" horiz-adv-x="562" d="M18 14H68Q82 14 93 25T104 50V649Q104 662 93 673T68 685H18V700H518V546H503L496 685H125V371H355L363 466H377V261H363L355 356H125V15H510L517 167H532V0H18V14Z" />
<glyph unicode="F" glyph-name="F" horiz-adv-x="541" d="M354 336H125V14H225V0H18V14H68Q82 14 93 25T104 50V649Q104 662 93 673T68 685H18V700H515V546H500L493 685H125V351H354L362 452H376V236H362L354 336Z" />
<glyph unicode="G" glyph-name="G" horiz-adv-x="682" d="M551 36Q546 36 532 30T493 17T433 3T353 -3Q281 -3 223 19T123 85T59 196T37 353Q37 443 63 509T133 618T235 682T358 703Q403 703 437 699T494 689T532 679T553 674Q559 674 562 678T567 700H582V521H567L559
635Q532 662 482 674T359 687Q296 687 241 667T146 606T82 502T59 354Q59 182 136 98T353 13Q433 13 483 31T565 74V289H449V303H664V289H622Q608 289 597 278T586 253V0H570Q568 23 563 29T551 36Z" />
<glyph unicode="H" glyph-name="H" horiz-adv-x="703" d="M18 14H68Q82 14 93 25T104 50V649Q104 662 93 673T68 685H18V700H238V685H125V370H578V685H465V700H685V685H635Q621 685 610 674T599 649V50Q599 37 610 26T635 14H685V0H465V14H578V355H125V14H238V0H18V14Z" />
<glyph unicode="I" glyph-name="I" horiz-adv-x="249" d="M18 14H78Q92 14 103 25T114 50V649Q114 662 103 673T78 685H18V700H231V685H171Q157 685 146 674T135 649V50Q135 37 146 26T171 14H231V0H18V14Z" />
<glyph unicode="J" glyph-name="J" horiz-adv-x="417" d="M313 145Q313 72 273 34T144 -4Q97 -4 62 8T7 32V53H26Q38 38 67 25T144 12Q224 12 258 45T292 145V649Q292 662 281 673T256 685H201V700H399V685H349Q335 685 324 674T313 649V145Z" />
<glyph unicode="K" glyph-name="K" horiz-adv-x="646" d="M18 14H68Q82 14 93 25T104 50V649Q104 662 93 673T68 685H18V700H238V685H125V264L489 649Q502 663 498 674T477 685H434V700H613V685H574Q559 685 542 674T511 649L286 410L518 60Q532 40 552 27T591
14H628V0H526V14L272 395L125 239V14H238V0H18V14Z" />
<glyph unicode="L" glyph-name="L" horiz-adv-x="549" d="M18 14H68Q82 14 93 25T104 50V649Q104 662 93 673T68 685H18V700H243V685H125V15H503L510 177H525V0H18V14Z" />
<glyph unicode="M" glyph-name="M" horiz-adv-x="836" d="M410 0L138 685H123V14H224V0H18V14H68Q82 14 93 25T104 50V649Q104 662 93 673T68 685H18V700H153L417 38H418L682 700H818V685H768Q754 685 743 674T732 649V50Q732 37 743 26T768 14H818V0H611V14H711V685H695L423
0H410Z" />
<glyph unicode="N" glyph-name="N" horiz-adv-x="699" d="M18 14H68Q82 14 93 25T104 50V649Q104 662 93 673T68 685H18V700H142L577 34H578V685H468V700H683V685H633Q619 685 608 674T597 649V0H577L129 685H123V14H236V0H18V14Z" />
<glyph unicode="O" glyph-name="O" horiz-adv-x="711" d="M356 -3Q291 -3 233 20T132 87T63 198T37 350Q37 436 62 502T131 612T233 680T356 703Q421 703 478 680T579 613T648 502T674 350Q674 264 649 198T580 88T479 20T356 -3ZM356 13Q418 13 472 35T566 99T629
205T652 350Q652 432 629 494T566 600T472 665T356 687Q294 687 240 665T145 600T82 495T59 350Q59 268 82 205T145 100T239 35T356 13Z" />
<glyph unicode="P" glyph-name="P" horiz-adv-x="541" d="M125 306V14H219V0H18V14H68Q82 14 93 25T104 50V649Q104 662 93 673T68 685H18V700H274Q326 700 370 690T446 658T495 597T513 504Q513 448 497 411T449 350T374 316T274 306H125ZM125 322H274Q325 322
365 330T434 360T477 416T492 504Q492 556 476 590T431 646T362 675T274 684H125V322Z" />
<glyph unicode="Q" glyph-name="Q" horiz-adv-x="711" d="M432 7Q531 3 600 -21T715 -106V-123H694Q673 -88 641 -66T565 -30T470 -11T356 -3Q289 -1 231 22T130 89T62 198T37 350Q37 436 62 502T131 612T233 680T356 703Q421 703 478 680T579 613T648 502T674
350Q674 272 654 212T599 109T522 41T432 8V7ZM356 13Q418 13 472 35T566 99T629 205T652 350Q652 432 629 494T566 600T472 665T356 687Q294 687 240 665T145 600T82 495T59 350Q59 268 82 205T146 100T241 35T356 13Z" />
<glyph unicode="R" glyph-name="R" horiz-adv-x="613" d="M125 335V14H219V0H18V14H68Q82 14 93 25T104 50V649Q104 662 93 673T68 685H18V700H267Q314 700 356 692T431 663T482 607T501 516Q501 474 489 443T454 391T402 358T335 342V341Q360 337 383 328T425
303T461 260T488 193L529 46Q533 33 544 24T566 14H601V0H518L469 187Q458 230 440 258T396 304T338 328T268 335H125ZM125 351H268Q315 351 354 358T421 384T464 435T480 516Q480 568 463 600T416 651T348 677T267 684H125V351Z" />
<glyph unicode="S" glyph-name="S" horiz-adv-x="496" d="M247 -3Q203 -3 170 2T113 15T75 27T55 33Q50 33 48 26T43 0H28V190H43L50 72Q77 47 121 30T246 13Q289 13 325 23T388 54T430 108T445 190Q445 235 427 262T380 308T314 337T236 359Q200 369 166 381T105
413T62 462T46 538Q46 572 57 602T92 654T153 690T241 703Q280 703 308 698T355 688T386 677T404 672Q409 672 411 678T416 700H431V530H416L409 631Q383 657 343 672T241 687Q194 687 161 676T106 644T75 596T65 539Q65 497 79 470T118 426T174 397T243 376Q285
364 325 352T396 319T446 269T465 190Q465 139 448 102T402 42T333 8T247 -3Z" />
<glyph unicode="T" glyph-name="T" horiz-adv-x="617" d="M205 14H262Q276 14 287 25T298 50V685H51L44 528H29V700H588V528H573L566 685H319V50Q319 37 330 26T355 14H412V0H205V14Z" />
<glyph unicode="U" glyph-name="U" horiz-adv-x="694" d="M350 -4Q300 -4 255 7T174 44T119 113T98 222V649Q98 662 87 673T62 685H18V700H228V685H119V221Q119 161 137 121T187 57T261 23T351 13Q397 13 438 22T510 55T559 119T577 221V685H468V700H676V685H632Q618
685 607 674T596 649V222Q596 157 577 114T523 44T445 7T350 -4Z" />
<glyph unicode="V" glyph-name="V" horiz-adv-x="685" d="M671 685H647Q629 685 614 673T592 643L351 0H335L95 638Q88 655 73 670T40 685H14V700H208V685H99L342 36H345L568 629Q589 685 537 685H478V700H671V685Z" />
<glyph unicode="W" glyph-name="W" horiz-adv-x="946" d="M473 653L280 0H264L92 638Q87 656 71 670T37 685H15V700H204V685H100L271 48H274L467 700H481L674 48H677L831 625Q847 685 792 685H743V700H931V685H909Q891 685 876 673T855 639L683 0H667L474 653H473Z" />
<glyph unicode="X" glyph-name="X" horiz-adv-x="634" d="M120 647Q109 664 91 674T59 685H18V700H212V685H117L318 375L487 641Q498 658 492 671T469 685H422V700H616V685H564Q559 685 552 681T536 671T521 658T509 643L329 359L529 52Q534 44 542 38T559 26T576
17T590 14H616V0H429V14H532L314 348L127 60Q117 45 123 30T144 14H206V0H18V14H43Q49 14 56 17T72 24T87 35T98 47L304 364L120 647Z" />
<glyph unicode="Y" glyph-name="Y" horiz-adv-x="617" d="M205 14H262Q276 14 287 25T298 50V299L96 638Q85 657 67 671T27 685H15V700H195V685H90L309 317H310L499 628Q517 657 508 671T472 685H422V700H602V685H582Q564 685 551 673T527 643L319 299V50Q319
37 330 26T355 14H412V0H205V14Z" />
<glyph unicode="Z" glyph-name="Z" horiz-adv-x="536" d="M18 16L496 685H67L60 549H45V700H518V683L40 15H481L488 155H503V0H18V16Z" />
<glyph unicode="[" glyph-name="bracketleft" horiz-adv-x="208" d="M40 741H190V726H59V-35H190V-49H40V741Z" />
<glyph unicode="\" glyph-name="backslash" horiz-adv-x="282" d="M254 -49L12 741H31L273 -49H254Z" />
<glyph unicode="]" glyph-name="bracketright" horiz-adv-x="208" d="M168 -49H18V-35H149V726H18V741H168V-49Z" />
<glyph unicode="^" glyph-name="asciicircum" horiz-adv-x="400" d="M96 588L185 700H215L304 588V578H292L201 680L108 578H96V588Z" />
<glyph unicode="_" glyph-name="underscore" horiz-adv-x="313" d="M-2 -148H315V-162H-2V-148Z" />
<glyph unicode="`" glyph-name="grave" horiz-adv-x="400" d="M219 578H202L109 685V700H130L219 578Z" />
<glyph unicode="a" glyph-name="a" horiz-adv-x="495" d="M190 -3Q155 -3 126 5T75 31T41 77T28 144Q28 182 43 210T86 256T152 282T237 291Q317 291 385 273V387Q385 424 375 448T345 485T301 504T245 509Q183 509 141 494T74 458H62V479Q91 496 136 510T247
525Q280 525 308 519T358 498T392 456T405 388V70Q405 38 416 26T453 13Q460 13 470 15Q474 16 479 17V2Q474 0 470 -1Q460 -3 452 -3Q418 -3 402 13T385 70V97Q350 50 306 24T190 -3ZM191 12Q227 12 255 19T307 41T349 74T385 118V257Q350 266 314 271T238 276Q197
276 162 269T102 245T62 204T48 145Q48 109 59 84T89 43T134 20T191 12Z" />
<glyph unicode="b" glyph-name="b" horiz-adv-x="544" d="M279 -3Q207 -3 161 20T85 80V44Q85 32 82 16T71 0H65V654Q65 666 56 675T34 685H-18V700H76Q85 700 85 689V394Q101 419 122 442T170 484T230 514T303 525Q340 525 377 513T445 471T493 391T512 266Q512
188 491 137T437 54T363 10T279 -3ZM302 509Q264 509 232 498T174 468T125 424T85 372V100Q120 57 165 35T279 12Q316 12 354 23T422 63T472 141T491 265Q491 338 474 385T430 460T369 498T302 509Z" />
<glyph unicode="c" glyph-name="c" horiz-adv-x="495" d="M273 -3Q214 -3 169 15T93 68T46 152T30 262Q30 323 48 372T100 455T178 507T279 525Q344 525 382 515T444 493V408H428Q427 430 425 445T419 469T407 484T389 494Q370 502 341 506T279 510Q228 510 186
493T114 444T68 366T51 262Q51 146 107 79T273 11Q344 11 384 33T442 82H456V67Q447 55 431 43T391 21T339 4T273 -3Z" />
<glyph unicode="d" glyph-name="d" horiz-adv-x="574" d="M468 0Q461 0 460 5T459 22V121Q443 98 422 76T375 36T315 8T243 -3Q205 -3 168 9T100 50T51 129T32 254Q32 332 53 384T108 467T184 512T268 525Q339 525 384 502T459 444V685H362V700H470Q479 700 479
689V45Q479 33 488 24T510 14H558V0H468ZM244 12Q282 12 313 22T371 51T419 92T459 142V424Q424 464 380 486T268 509Q230 509 192 498T123 458T73 380T53 255Q53 182 70 135T115 61T177 23T244 12Z" />
<glyph unicode="e" glyph-name="e" horiz-adv-x="508" d="M51 274V259Q51 144 108 78T279 11Q348 11 393 31T458 74H472V58Q446 35 398 16T279 -3Q158 -3 94 67T30 259Q30 320 47 369T96 452T171 506T265 525Q311 525 351 512T420 469T465 395T482 286Q482 283
482 281T481 277V274H51ZM265 510Q174 510 117 451T52 289H462Q461 348 447 390T406 458T344 497T265 510Z" />
<glyph unicode="f" glyph-name="f" horiz-adv-x="272" d="M248 505H115V45Q115 33 124 24T146 14H210V0H16V14H64Q76 14 85 23T95 45V505H10V520H95V579Q95 613 104 637T131 675T170 696T218 703Q246 703 263 700T291 695V675H276Q269 680 256 684T218 688Q172
688 144 665T115 579V520H248V505Z" />
<glyph unicode="g" glyph-name="g" horiz-adv-x="472" d="M227 -166Q168 -166 128 -156T64 -128T30 -86T19 -33Q19 14 52 46T130 96Q104 101 89 117T73 163Q73 191 87 209T119 242Q92 263 79 294T65 363Q65 396 76 425T108 476T162 512T239 525Q262 525 287 520H456V505H376Q368
505 362 501T356 488Q385 465 399 433T413 363Q413 330 402 302T370 252T315 219T239 206Q174 206 130 234Q114 220 103 204T92 163Q92 136 110 123T158 109H312Q377 109 417 82T458 -11Q458 -42 446 -70T405 -119T334 -153T227 -166ZM151 92Q103 73 72 43T40 -33Q40
-58 48 -79T78 -117T136 -142T227 -151Q286 -151 326 -140T391 -109T427 -65T438 -11Q438 45 405 68T311 92H151ZM239 221Q278 221 307 232T355 262T383 307T393 363Q393 392 384 418T355 465T307 498T239 510Q200 510 171 498T123 466T95 419T85 363Q85 333 94
308T123 263T171 232T239 221Z" />
<glyph unicode="h" glyph-name="h" horiz-adv-x="581" d="M368 14H471V392Q471 428 462 451T437 486T400 504T355 509Q289 509 228 476T115 398V14H218V0H16V14H64Q76 14 85 23T95 45V654Q95 666 86 675T64 685H12V700H106Q115 700 115 689V414Q138 436 165 456T223
491T287 516T356 525Q383 525 407 520T450 499T480 459T491 395V45Q491 33 500 24T522 14H565V0H368V14Z" />
<glyph unicode="i" glyph-name="i" horiz-adv-x="221" d="M16 14H70Q82 14 91 23T101 45V474Q101 486 92 495T70 505H10V520H109Q116 520 118 517T121 501V45Q121 33 130 24T152 14H206V0H16V14ZM106 649Q114 649 119 644T124 631Q124 623 119 618T106 613Q98
613 93 618T88 631Q88 639 93 644T106 649Z" />
<glyph unicode="j" glyph-name="j" horiz-adv-x="190" d="M101 474Q101 486 92 495T70 505H10V520H109Q116 520 118 517T121 501V-72Q121 -163 25 -163Q-1 -163 -18 -160T-50 -151V-131H-35Q-25 -138 -12 -143T25 -148Q66 -148 83 -129T101 -72V474ZM106 649Q114
649 119 644T124 631Q124 623 119 618T106 613Q98 613 93 618T88 631Q88 639 93 644T106 649Z" />
<glyph unicode="k" glyph-name="k" horiz-adv-x="504" d="M16 14H64Q76 14 85 23T95 45V654Q95 666 86 675T64 685H12V700H106Q115 700 115 689V201L370 475Q378 485 373 495T356 505H321V520H482V505H445Q435 505 420 496T395 477L234 305L411 52Q421 38 438
26T467 14H488V0H424L221 291L115 178V14H218V0H16V14Z" />
<glyph unicode="l" glyph-name="l" horiz-adv-x="222" d="M16 14H70Q82 14 91 23T101 45V654Q101 666 92 675T70 685H12V700H112Q121 700 121 689V45Q121 33 130 24T152 14H206V0H16V14Z" />
<glyph unicode="m" glyph-name="m" horiz-adv-x="890" d="M677 14H780V400Q780 433 772 454T749 487T715 504T672 509Q640 509 611 501T556 478T506 445T458 404V14H561V0H335V14H438V400Q438 433 430 454T407 487T373 504T330 509Q297 509 268 501T213 478T163
444T115 403V14H218V0H16V14H64Q76 14 85 23T95 45V474Q95 486 86 495T64 505H10V520H103Q110 520 112 517T115 501V421Q136 441 159 460T210 493T267 516T330 525Q354 525 376 521T415 504T443 472T457 421Q478 441 501 460T552 493T609 516T672 525Q698 525 721
520T762 501T790 463T800 403V45Q800 33 809 24T831 14H874V0H677V14Z" />
<glyph unicode="n" glyph-name="n" horiz-adv-x="581" d="M16 14H64Q76 14 85 23T95 45V474Q95 486 86 495T64 505H10V520H103Q110 520 112 517T115 501V414Q138 436 165 456T223 491T287 516T356 525Q383 525 407 520T450 499T480 459T491 395V45Q491 33 500
24T522 14H565V0H368V14H471V392Q471 428 462 451T437 486T400 504T355 509Q289 509 228 476T115 398V14H218V0H16V14Z" />
<glyph unicode="o" glyph-name="o" horiz-adv-x="552" d="M276 -3Q222 -3 177 15T100 67T49 150T30 261Q30 322 48 371T99 454T177 506T276 525Q330 525 375 507T453 454T504 371T522 261Q522 199 504 151T453 68T375 15T276 -3ZM276 11Q327 11 368 28T439 78T485
156T501 261Q501 319 485 365T440 443T369 492T276 510Q226 510 185 493T114 443T68 365T51 261Q51 203 67 157T113 78T184 29T276 11Z" />
<glyph unicode="p" glyph-name="p" horiz-adv-x="574" d="M309 -3Q237 -3 191 19T115 77V-148H219V-162H16V-148H64Q76 -148 85 -138T95 -117V474Q95 486 86 495T64 505H10V520H103Q115 520 115 491V394Q131 419 152 442T200 484T260 514T333 525Q370 525 407
513T475 471T523 391T542 266Q542 188 521 137T467 54T393 10T309 -3ZM332 509Q294 509 262 498T204 468T155 424T115 372V96Q150 55 195 34T309 12Q346 12 384 23T452 63T502 141T521 265Q521 338 504 385T460 460T399 498T332 509Z" />
<glyph unicode="q" glyph-name="q" horiz-adv-x="552" d="M355 -148H459V115Q443 92 422 71T373 34T314 7T243 -3Q205 -3 168 9T100 50T51 129T32 254Q32 332 53 384T108 467T184 512T268 525Q337 525 383 504T459 450V476Q459 488 462 504T473 520H479V-117Q479
-129 488 -138T510 -148H558V-162H355V-148ZM244 12Q281 12 312 22T370 49T419 88T459 136V431Q424 467 379 488T268 509Q230 509 192 498T123 458T73 380T53 255Q53 182 70 135T115 61T177 23T244 12Z" />
<glyph unicode="r" glyph-name="r" horiz-adv-x="344" d="M16 14H64Q76 14 85 23T95 45V474Q95 486 86 495T64 505H10V520H103Q110 520 112 517T115 501V406Q131 428 150 449T192 486T242 513T300 523Q305 523 309 523T316 522Q320 521 322 521V504H316Q313 504
309 504T300 505Q271 505 245 495T196 469T153 431T115 385V14H221V0H16V14Z" />
<glyph unicode="s" glyph-name="s" horiz-adv-x="410" d="M194 -3Q129 -3 87 5T28 22V115H44Q46 69 52 51T67 29Q92 19 119 15T194 11Q358 11 358 147Q358 175 348 194T318 226T269 247T202 263Q166 269 137 277T86 299T54 336T42 393Q42 456 85 490T209 525Q272
525 308 518T362 503V418H346Q344 457 339 472T319 495Q301 503 277 506T209 510Q134 510 98 479T62 393Q62 364 71 345T99 314T145 294T209 280Q248 273 279 264T332 240T366 203T378 148Q378 -3 194 -3Z" />
<glyph unicode="t" glyph-name="t" horiz-adv-x="291" d="M10 520H91V666H111V520H261V505H111V105Q111 56 132 34T203 12Q220 12 236 16T261 26H275V8Q264 3 243 0T203 -3Q146 -3 119 22T91 104V505H10V520Z" />
<glyph unicode="u" glyph-name="u" horiz-adv-x="585" d="M482 45Q482 33 491 24T513 14H569V0H474Q467 0 465 3T462 19V98Q415 56 355 26T227 -5Q200 -5 176 0T133 20T105 59T94 123V474Q94 486 85 495T63 505H10V520H114V126Q114 90 123 68T147 33T183 16T228
11Q291 11 351 41T462 115V505H373V520H482V45Z" />
<glyph unicode="v" glyph-name="v" horiz-adv-x="557" d="M80 464Q72 482 61 493T34 505H10V520H180V505H84L273 31H275L446 467Q451 481 442 493T418 505H366V520H535V505H512Q497 505 485 496T466 469L282 0H265L80 464Z" />
<glyph unicode="w" glyph-name="w" horiz-adv-x="791" d="M391 483L241 0H222L83 464Q78 483 66 494T37 505H10V520H184V505H90L231 33H233L384 520H400L551 33H553L680 467Q684 481 676 493T652 505H600V520H769V505H747Q732 505 719 496T701 469L561 0H542L392
483H391Z" />
<glyph unicode="x" glyph-name="x" horiz-adv-x="525" d="M111 467Q100 481 83 493T55 505H10V520H182V505H105L265 283L389 475Q396 486 391 495T374 505H333V520H493V505H457Q447 505 433 497T411 477L276 269L432 52Q443 38 460 26T488 14H509V0H348V14H438L264
256L123 44Q116 33 121 24T137 14H174V0H16V14H55Q65 14 79 22T101 42L252 270L111 467Z" />
<glyph unicode="y" glyph-name="y" horiz-adv-x="557" d="M116 -143Q163 -129 199 -86T266 28L80 464Q72 483 58 494T29 505H10V520H180V505H84L276 51L446 467Q452 482 443 493T418 505H366V520H535V505H512Q497 505 485 495T465 466L288 33Q258 -42 219 -92T136
-162H116V-143Z" />
<glyph unicode="z" glyph-name="z" horiz-adv-x="460" d="M18 14L415 506H65L60 390H45V520H438V505L41 14H403L408 134H423V0H18V14Z" />
<glyph unicode="{" glyph-name="braceleft" horiz-adv-x="275" d="M114 286Q114 348 48 348H18V362H48Q114 362 114 424V633Q114 690 140 715T217 741H257V726H217Q172 726 153 704T133 633V424Q133 389 119 375T84 356V355Q104 351 118 336T133 286V69Q133 21
152 -2T217 -25H257V-39H217Q166 -39 140 -14T114 69V286Z" />
<glyph unicode="|" glyph-name="bar" horiz-adv-x="120" d="M70 -49H50V741H70V-49Z" />
<glyph unicode="}" glyph-name="braceright" horiz-adv-x="275" d="M161 69Q161 12 135 -13T58 -39H18V-25H58Q103 -25 122 -2T142 69V286Q142 321 156 336T191 355V356Q171 360 157 374T142 424V633Q142 681 123 703T58 726H18V741H58Q109 741 135 716T161 633V424Q161
362 227 362H257V348H227Q161 348 161 286V69Z" />
<glyph unicode="~" glyph-name="asciitilde" horiz-adv-x="320" d="M88 295Q69 295 57 283T41 246H21V257Q27 279 43 296T89 313Q106 313 125 307T163 292T199 278T232 271Q251 271 263 283T279 320H299V309Q292 286 276 270T231 254Q214 254 195 260T157 274T121
288T88 295Z" />
<glyph unicode="&#xa0;" glyph-name="nbspace" horiz-adv-x="175" />
<glyph unicode="&#xa1;" glyph-name="exclamdown" horiz-adv-x="146" d="M85 -62V-77H61V-62L65 505H81L85 -62ZM73 584Q64 584 58 590T52 605Q52 614 58 620T73 626Q82 626 88 620T94 605Q94 596 88 590T73 584Z" />
<glyph unicode="&#xa2;" glyph-name="cent" horiz-adv-x="492" d="M277 583V525Q342 525 380 515T441 493V408H425Q424 430 422 445T416 469T404 484T386 494Q367 502 338 506T277 510V11Q344 12 383 34T439 82H453V67Q434 44 390 22T277 -3V-102H258V-3Q146 1
88 71T30 262Q30 321 46 368T93 449T165 502T258 524V583H277ZM51 262Q51 149 103 82T258 11V509Q162 503 107 439T51 262Z" />
<glyph unicode="&#xa3;" glyph-name="sterling" horiz-adv-x="498" d="M106 523Q106 491 114 446T133 348H331V333H135Q143 291 148 249T154 167Q154 132 147 107T125 63Q158 51 197 42T279 27T363 19T445 16L452 151H467V0H440Q336 0 258 12T113 49Q96 32 75
21T28 0H13V14Q40 22 62 33T100 62T125 105T134 167Q134 205 128 247T114 333H30V348H111Q101 399 93 445T84 524Q84 564 95 597T131 653T193 690T284 703Q345 703 385 693T466 665V555H450Q448 606 443 625T427 654Q404 672 370 679T284 687Q236 687 202 676T147
643T116 591T106 523Z" />
<glyph unicode="&#xa5;" glyph-name="yen" horiz-adv-x="549" d="M73 337H260L92 638Q81 658 63 671T23 685H11V700H191V685H87L275 347H276L435 629Q452 658 443 671T408 685H358V700H538V685H518Q500 685 487 673T463 643L288 337H476V322H285V245H476V230H285V50Q285
37 296 26T321 14H378V0H171V14H228Q242 14 253 25T264 50V230H73V245H264V322H73V337Z" />
<glyph unicode="&#xa6;" glyph-name="brokenbar" horiz-adv-x="120" d="M70 379H50V741H70V379ZM50 -49V312H70V-49H50Z" />
<glyph unicode="&#xa7;" glyph-name="section" horiz-adv-x="498" d="M468 276Q468 212 427 177T315 132Q359 113 382 86T405 11Q405 -60 360 -95T228 -130Q169 -130 129 -122T71 -105V-12H87Q89 -58 95 -76T110 -98Q122 -103 132 -106T156 -111T187 -115T228
-116Q303 -116 344 -86T385 10Q385 41 374 61T341 97T287 123T212 147Q169 159 136 173T79 205T43 248T30 304Q30 364 72 396T193 438Q145 457 120 488T95 570Q95 630 139 666T260 703Q319 703 351 696T400 681V596H384Q382 635 377 650T357 673Q339 681 320 684T260
688Q189 688 152 656T115 570Q115 513 151 483T267 434Q306 425 342 412T406 381T451 337T468 276ZM224 426Q50 415 50 305Q50 249 92 219T218 164L288 142Q322 145 351 154T402 179T436 220T448 276Q448 306 434 328T394 367T335 396T261 417L224 426Z" />
<glyph unicode="&#xa8;" glyph-name="dieresis" horiz-adv-x="400" d="M137 649Q145 649 150 644T155 631Q155 623 150 618T137 613Q129 613 124 618T119 631Q119 639 124 644T137 649ZM263 649Q271 649 276 644T281 631Q281 623 276 618T263 613Q255 613 250
618T245 631Q245 639 250 644T263 649Z" />
<glyph unicode="&#xa9;" glyph-name="copyright" horiz-adv-x="754" d="M377 -3Q306 -3 243 20T131 87T55 198T26 350Q26 436 54 502T131 612T242 680T377 703Q448 703 511 680T623 613T699 502T728 350Q728 264 700 198T623 88T512 20T377 -3ZM45 350Q45 268
71 205T143 99T248 34T377 12Q445 12 505 34T611 99T682 205T709 350Q709 432 683 495T611 601T506 666T377 688Q309 688 249 666T143 601T72 495T45 350ZM384 158Q345 158 312 170T253 206T214 266T199 352Q199 401 214 436T256 495T317 530T388 542Q413 542 431
538T462 529T482 520T493 516Q497 516 499 522T502 540H517V414H502L497 485Q479 502 454 514T389 526Q354 526 324 516T271 484T235 430T221 352Q221 264 264 219T384 174Q435 174 465 190T512 231H529V215Q506 190 473 174T384 158Z" />
<glyph unicode="&#xaa;" glyph-name="ordfeminine" horiz-adv-x="420" d="M159 254Q130 254 105 261T62 283T33 322T22 379Q22 412 35 435T71 475T127 498T199 506Q266 506 325 491V586Q325 618 316 637T291 668T253 683T206 687Q153 687 119 675T64 644H51V664Q75
678 113 690T208 703Q236 703 260 698T304 680T334 645T345 587V316Q345 290 354 280T386 270Q390 270 394 270T401 271Q405 272 408 273V258Q405 257 401 256Q393 254 385 254Q356 254 341 268T325 316V338Q295 299 258 277T159 254ZM160 270Q221 270 258 294T325
359V475Q268 491 200 491Q130 491 86 465T42 380Q42 349 50 328T74 294T112 276T160 270Z" />
<glyph unicode="&#xab;" glyph-name="guillemotleft" horiz-adv-x="389" d="M28 249V269L197 469H209V456L50 260V258L209 63V50H197L28 249ZM180 249V269L349 469H361V456L202 260V258L361 63V50H349L180 249Z" />
<glyph unicode="&#xad;" glyph-name="uni00AD" horiz-adv-x="201" d="M20 306H181V289H20V306Z" />
<glyph unicode="&#xae;" glyph-name="registered" horiz-adv-x="406" d="M203 350Q167 350 134 362T77 397T37 453T22 529Q22 572 37 605T76 661T134 696T203 708Q239 708 271 696T329 661T369 605T384 529Q384 487 369 454T329 397T272 362T203 350ZM40 529Q40
490 53 460T88 409T140 377T203 366Q236 366 266 377T318 409T353 460T366 529Q366 568 353 598T318 649T266 681T203 692Q170 692 140 681T88 650T53 599T40 529ZM122 454H138Q140 454 144 458T148 465V599Q148 601 144 605T138 610H122V623H208Q241 623 257 610T273
573Q273 556 262 546T233 530V529Q245 527 250 519T264 493L276 465Q278 462 282 458T289 454H302V441H262L244 493Q239 507 233 515T208 524H168V454H197V441H122V454ZM168 537H208Q252 537 252 573Q252 590 243 599T208 608H168V537Z" />
<glyph unicode="&#xaf;" glyph-name="macron" horiz-adv-x="400" d="M90 636H310V621H90V636Z" />
<glyph unicode="&#xb0;" glyph-name="degree" horiz-adv-x="297" d="M149 465Q125 465 104 473T66 498T39 536T29 585Q29 613 39 635T65 673T103 697T149 706Q173 706 195 698T233 673T260 635T270 585Q270 558 260 536T234 498T195 474T149 465ZM49 585Q49 562
57 543T78 510T110 488T149 480Q191 480 220 509T250 585Q250 633 221 662T149 691Q107 691 78 662T49 585Z" />
<glyph unicode="&#xb2;" glyph-name="twosuperior" horiz-adv-x="278" d="M19 351Q19 375 29 395T57 432T95 464T137 491Q159 504 178 515T211 540T233 569T241 606Q241 644 218 665T146 687Q120 687 98 682T65 668Q59 663 56 654T50 620H36V681Q59 690 88 696T146
702Q203 702 232 677T261 607Q261 584 251 566T225 532T187 504T145 479Q125 468 106 456T72 427T47 393T37 351V348H238L242 416H256V334H19V351Z" />
<glyph unicode="&#xb3;" glyph-name="threesuperior" horiz-adv-x="265" d="M120 332Q90 332 65 338T20 352V413H35Q37 393 38 380T47 362Q59 355 76 351T120 347Q178 347 202 370T227 437Q227 459 219 474T197 499T166 513T129 517H94V530H126Q165 530 192 550T219
611Q219 687 128 687Q102 687 86 683T59 673Q53 668 50 658T44 628H30V682Q51 691 75 696T129 702Q180 702 208 679T237 612Q237 575 216 553T165 526V524Q200 519 223 497T246 437Q246 387 215 360T120 332Z" />
<glyph unicode="&#xb4;" glyph-name="acute" horiz-adv-x="400" d="M270 700H291V685L198 578H181L270 700Z" />
<glyph unicode="&#xb6;" glyph-name="paragraph" horiz-adv-x="519" d="M285 352H265Q215 352 172 359T97 385T47 438T28 526Q28 580 46 614T95 667T170 693T263 700H501V685H451Q437 685 426 674T415 649V-91H397V684H303V-91H285V352Z" />
<glyph unicode="&#xb7;" glyph-name="periodcentered" horiz-adv-x="100" d="M50 341Q59 341 65 335T71 320Q71 311 65 305T50 299Q41 299 35 305T29 320Q29 329 35 335T50 341Z" />
<glyph unicode="&#xb8;" glyph-name="cedilla" horiz-adv-x="400" d="M195 -173Q169 -173 153 -169T121 -157V-137H135Q142 -147 158 -152T195 -158Q252 -158 252 -112Q252 -85 235 -75T173 -65H166V0H184V-50Q273 -50 273 -112Q273 -142 251 -157T195 -173Z" />
<glyph unicode="&#xb9;" glyph-name="onesuperior" horiz-adv-x="224" d="M15 347H79Q88 347 97 356T107 375V683L26 637H12V652L113 700H126V375Q126 366 135 357T153 347H216V334H15V347Z" />
<glyph unicode="&#xba;" glyph-name="ordmasculine" horiz-adv-x="469" d="M235 254Q190 254 152 269T86 314T42 384T26 479Q26 531 42 572T85 643T151 687T235 703Q280 703 318 688T384 643T428 573T444 479Q444 426 428 385T385 314T319 270T235 254ZM235 269Q321
269 372 324T423 479Q423 577 372 632T235 687Q149 687 98 632T47 479Q47 379 98 324T235 269Z" />
<glyph unicode="&#xbb;" glyph-name="guillemotright" horiz-adv-x="389" d="M28 63L187 259V261L28 456V469H40L209 270V250L40 50H28V63ZM180 63L339 259V261L180 456V469H192L361 270V250L192 50H180V63Z" />
<glyph unicode="&#xbc;" glyph-name="onequarter" horiz-adv-x="607" d="M451 13H490Q499 13 508 22T518 41V98H323V113L521 366H537V111H599V98H537V41Q537 32 546 23T564 13H599V0H451V13ZM343 111H518V335H516L343 113V111ZM86 -34H67L560 729H579L86 -34ZM15
347H79Q88 347 97 356T107 375V683L26 637H12V652L113 700H126V375Q126 366 135 357T153 347H216V334H15V347Z" />
<glyph unicode="&#xbd;" glyph-name="onehalf" horiz-adv-x="648" d="M389 17Q389 41 399 61T427 98T465 130T507 157Q529 170 548 181T581 206T603 235T611 272Q611 310 588 331T516 353Q490 353 468 348T435 334Q429 329 426 320T420 286H406V347Q429 356 458
362T516 368Q573 368 602 343T631 273Q631 250 621 232T595 198T557 170T515 145Q495 134 476 122T442 93T417 59T407 17V14H608L612 82H626V0H389V17ZM78 -34H59L552 729H571L78 -34ZM15 347H79Q88 347 97 356T107 375V683L26 637H12V652L113 700H126V375Q126
366 135 357T153 347H216V334H15V347Z" />
<glyph unicode="&#xbe;" glyph-name="threequarters" horiz-adv-x="606" d="M450 13H489Q498 13 507 22T517 41V98H322V113L520 366H536V111H598V98H536V41Q536 32 545 23T563 13H598V0H450V13ZM342 111H517V335H515L342 113V111ZM83 -34H64L557 729H576L83 -34ZM120
332Q90 332 65 338T20 352V413H35Q37 393 38 380T47 362Q59 355 76 351T120 347Q178 347 202 370T227 437Q227 459 219 474T197 499T166 513T129 517H94V530H126Q165 530 192 550T219 611Q219 687 128 687Q102 687 86 683T59 673Q53 668 50 658T44 628H30V682Q51
691 75 696T129 702Q180 702 208 679T237 612Q237 575 216 553T165 526V524Q200 519 223 497T246 437Q246 387 215 360T120 332Z" />
<glyph unicode="&#xbf;" glyph-name="questiondown" horiz-adv-x="421" d="M326 -46Q337 -42 344 -36T355 -20T362 7T365 49H381V-44Q358 -56 321 -68T217 -80Q132 -80 83 -44T34 75Q34 112 47 141T81 195T127 244T175 294Q194 315 209 336T235 382T249 436T249
505H267Q272 465 268 434T252 376T224 326T186 280Q164 256 141 234T98 187T67 136T54 75Q54 -64 217 -64Q257 -64 282 -59T326 -46ZM255 584Q246 584 240 590T234 605Q234 614 240 620T255 626Q264 626 270 620T276 605Q276 596 270 590T255 584Z" />
<glyph unicode="&#xc0;" glyph-name="Agrave" horiz-adv-x="688" d="M14 14H43Q61 14 76 26T98 56L308 646Q314 663 306 674T280 685H224V700H363L588 61Q595 42 610 28T643 14H674V0H471V14H584L505 237H181L122 70Q113 44 120 29T153 14H216V0H14V14ZM187 252H500L348
684H341L187 252ZM347 744H330L237 851V866H258L347 744Z" />
<glyph unicode="&#xc1;" glyph-name="Aacute" horiz-adv-x="688" d="M14 14H43Q61 14 76 26T98 56L308 646Q314 663 306 674T280 685H224V700H363L588 61Q595 42 610 28T643 14H674V0H471V14H584L505 237H181L122 70Q113 44 120 29T153 14H216V0H14V14ZM187 252H500L348
684H341L187 252ZM398 866H419V851L326 744H309L398 866Z" />
<glyph unicode="&#xc2;" glyph-name="Acircumflex" horiz-adv-x="688" d="M14 14H43Q61 14 76 26T98 56L308 646Q314 663 306 674T280 685H224V700H363L588 61Q595 42 610 28T643 14H674V0H471V14H584L505 237H181L122 70Q113 44 120 29T153 14H216V0H14V14ZM187
252H500L348 684H341L187 252ZM224 754L314 866H344L432 754V744H419L328 849L237 744H224V754Z" />
<glyph unicode="&#xc3;" glyph-name="Atilde" horiz-adv-x="688" d="M14 14H43Q61 14 76 26T98 56L308 646Q314 663 306 674T280 685H224V700H363L588 61Q595 42 610 28T643 14H674V0H471V14H584L505 237H181L122 70Q113 44 120 29T153 14H216V0H14V14ZM187 252H500L348
684H341L187 252ZM266 807Q247 807 235 795T219 762H199V773Q205 791 221 808T267 825Q284 825 300 819T331 804T360 790T390 783Q409 783 421 795T437 828H457V817Q450 797 434 782T389 766Q372 766 356 772T325 786T296 800T266 807Z" />
<glyph unicode="&#xc4;" glyph-name="Adieresis" horiz-adv-x="688" d="M14 14H43Q61 14 76 26T98 56L308 646Q314 663 306 674T280 685H224V700H363L588 61Q595 42 610 28T643 14H674V0H471V14H584L505 237H181L122 70Q113 44 120 29T153 14H216V0H14V14ZM187
252H500L348 684H341L187 252ZM265 815Q273 815 278 810T283 797Q283 789 278 784T265 779Q257 779 252 784T247 797Q247 805 252 810T265 815ZM391 815Q399 815 404 810T409 797Q409 789 404 784T391 779Q383 779 378 784T373 797Q373 805 378 810T391 815Z" />
<glyph unicode="&#xc5;" glyph-name="Aring" horiz-adv-x="688" d="M14 14H43Q61 14 76 26T98 56L308 646Q314 663 306 674T280 685H224V700H363L588 61Q595 42 610 28T643 14H674V0H471V14H584L505 237H181L122 70Q113 44 120 29T153 14H216V0H14V14ZM187 252H500L348
684H341L187 252ZM328 744Q296 744 272 765T247 823Q247 841 253 855T271 880T297 896T328 902Q343 902 357 897T383 881T401 856T408 823Q408 786 384 765T328 744ZM266 823Q266 794 284 777T328 759Q354 759 371 776T389 823Q389 852 372 869T328 887Q302 887
284 870T266 823Z" />
<glyph unicode="&#xc6;" glyph-name="AE" horiz-adv-x="958" d="M751 356H539V15H906L913 167H928V0H432V14H518V237H219L125 70Q111 46 117 30T150 14H210V0H14V14H37Q55 14 72 26T98 56L426 640Q436 657 431 671T405 685H344V700H914V546H899L892 685H539V371H751L759
466H773V261H759L751 356ZM227 252H518V685H471L227 252Z" />
<glyph unicode="&#xc7;" glyph-name="Ccedilla" horiz-adv-x="620" d="M334 -173Q308 -173 292 -169T260 -157V-137H274Q281 -147 297 -152T334 -158Q391 -158 391 -112Q391 -85 374 -75T312 -65H305V0Q246 6 197 31T112 100T57 207T37 353Q37 443 63 509T133
618T234 682T355 703Q399 703 431 699T486 689T523 679T543 674Q549 674 552 678T557 700H572V516H557L549 636Q522 662 474 674T356 687Q295 687 241 667T147 606T83 502T59 354Q59 268 79 205T138 98T229 34T347 13Q438 13 493 40T575 109H592V92Q573 71 551
54T499 24T433 4T347 -3Q341 -3 335 -3T323 -2V-50Q412 -50 412 -112Q412 -142 390 -157T334 -173Z" />
<glyph unicode="&#xc8;" glyph-name="Egrave" horiz-adv-x="562" d="M18 14H68Q82 14 93 25T104 50V649Q104 662 93 673T68 685H18V700H518V546H503L496 685H125V371H355L363 466H377V261H363L355 356H125V15H510L517 167H532V0H18V14ZM310 744H293L200 851V866H221L310
744Z" />
<glyph unicode="&#xc9;" glyph-name="Eacute" horiz-adv-x="562" d="M18 14H68Q82 14 93 25T104 50V649Q104 662 93 673T68 685H18V700H518V546H503L496 685H125V371H355L363 466H377V261H363L355 356H125V15H510L517 167H532V0H18V14ZM361 866H382V851L289 744H272L361
866Z" />
<glyph unicode="&#xca;" glyph-name="Ecircumflex" horiz-adv-x="562" d="M18 14H68Q82 14 93 25T104 50V649Q104 662 93 673T68 685H18V700H518V546H503L496 685H125V371H355L363 466H377V261H363L355 356H125V15H510L517 167H532V0H18V14ZM187 754L277 866H307L395
754V744H382L291 849L200 744H187V754Z" />
<glyph unicode="&#xcb;" glyph-name="Edieresis" horiz-adv-x="562" d="M18 14H68Q82 14 93 25T104 50V649Q104 662 93 673T68 685H18V700H518V546H503L496 685H125V371H355L363 466H377V261H363L355 356H125V15H510L517 167H532V0H18V14ZM228 815Q236 815 241
810T246 797Q246 789 241 784T228 779Q220 779 215 784T210 797Q210 805 215 810T228 815ZM354 815Q362 815 367 810T372 797Q372 789 367 784T354 779Q346 779 341 784T336 797Q336 805 341 810T354 815Z" />
<glyph unicode="&#xcc;" glyph-name="Igrave" horiz-adv-x="249" d="M18 14H78Q92 14 103 25T114 50V649Q114 662 103 673T78 685H18V700H231V685H171Q157 685 146 674T135 649V50Q135 37 146 26T171 14H231V0H18V14ZM144 744H127L34 851V866H55L144 744Z" />
<glyph unicode="&#xcd;" glyph-name="Iacute" horiz-adv-x="249" d="M18 14H78Q92 14 103 25T114 50V649Q114 662 103 673T78 685H18V700H231V685H171Q157 685 146 674T135 649V50Q135 37 146 26T171 14H231V0H18V14ZM195 866H216V851L123 744H106L195 866Z" />
<glyph unicode="&#xce;" glyph-name="Icircumflex" horiz-adv-x="249" d="M18 14H78Q92 14 103 25T114 50V649Q114 662 103 673T78 685H18V700H231V685H171Q157 685 146 674T135 649V50Q135 37 146 26T171 14H231V0H18V14ZM21 754L111 866H141L229 754V744H216L125
849L34 744H21V754Z" />
<glyph unicode="&#xcf;" glyph-name="Idieresis" horiz-adv-x="249" d="M18 14H78Q92 14 103 25T114 50V649Q114 662 103 673T78 685H18V700H231V685H171Q157 685 146 674T135 649V50Q135 37 146 26T171 14H231V0H18V14ZM62 815Q70 815 75 810T80 797Q80 789 75
784T62 779Q54 779 49 784T44 797Q44 805 49 810T62 815ZM188 815Q196 815 201 810T206 797Q206 789 201 784T188 779Q180 779 175 784T170 797Q170 805 175 810T188 815Z" />
<glyph unicode="&#xd0;" glyph-name="Eth" horiz-adv-x="665" d="M19 358H104V649Q104 662 93 673T68 685H18V700H279Q365 700 430 681T540 619T606 511T628 350Q628 255 606 189T540 80T431 19T279 0H18V14H68Q82 14 93 25T104 50V343H19V358ZM279 16Q362 16
423 34T526 93T587 196T607 350Q607 440 587 503T526 607T424 665T279 684H125V358H352V343H125V16H279Z" />
<glyph unicode="&#xd1;" glyph-name="Ntilde" horiz-adv-x="699" d="M18 14H68Q82 14 93 25T104 50V649Q104 662 93 673T68 685H18V700H142L577 34H578V685H468V700H683V685H633Q619 685 608 674T597 649V0H577L129 685H123V14H236V0H18V14ZM277 807Q258 807 246
795T230 762H210V773Q216 791 232 808T278 825Q295 825 311 819T342 804T371 790T401 783Q420 783 432 795T448 828H468V817Q461 797 445 782T400 766Q383 766 367 772T336 786T307 800T277 807Z" />
<glyph unicode="&#xd2;" glyph-name="Ograve" horiz-adv-x="711" d="M356 -3Q291 -3 233 20T132 87T63 198T37 350Q37 436 62 502T131 612T233 680T356 703Q421 703 478 680T579 613T648 502T674 350Q674 264 649 198T580 88T479 20T356 -3ZM356 13Q418 13 472
35T566 99T629 205T652 350Q652 432 629 494T566 600T472 665T356 687Q294 687 240 665T145 600T82 495T59 350Q59 268 82 205T145 100T239 35T356 13ZM374 744H357L264 851V866H285L374 744Z" />
<glyph unicode="&#xd3;" glyph-name="Oacute" horiz-adv-x="711" d="M356 -3Q291 -3 233 20T132 87T63 198T37 350Q37 436 62 502T131 612T233 680T356 703Q421 703 478 680T579 613T648 502T674 350Q674 264 649 198T580 88T479 20T356 -3ZM356 13Q418 13 472
35T566 99T629 205T652 350Q652 432 629 494T566 600T472 665T356 687Q294 687 240 665T145 600T82 495T59 350Q59 268 82 205T145 100T239 35T356 13ZM425 866H446V851L353 744H336L425 866Z" />
<glyph unicode="&#xd4;" glyph-name="Ocircumflex" horiz-adv-x="711" d="M356 -3Q291 -3 233 20T132 87T63 198T37 350Q37 436 62 502T131 612T233 680T356 703Q421 703 478 680T579 613T648 502T674 350Q674 264 649 198T580 88T479 20T356 -3ZM356 13Q418 13
472 35T566 99T629 205T652 350Q652 432 629 494T566 600T472 665T356 687Q294 687 240 665T145 600T82 495T59 350Q59 268 82 205T145 100T239 35T356 13ZM251 754L341 866H371L459 754V744H446L355 849L264 744H251V754Z" />
<glyph unicode="&#xd5;" glyph-name="Otilde" horiz-adv-x="711" d="M356 -3Q291 -3 233 20T132 87T63 198T37 350Q37 436 62 502T131 612T233 680T356 703Q421 703 478 680T579 613T648 502T674 350Q674 264 649 198T580 88T479 20T356 -3ZM356 13Q418 13 472
35T566 99T629 205T652 350Q652 432 629 494T566 600T472 665T356 687Q294 687 240 665T145 600T82 495T59 350Q59 268 82 205T145 100T239 35T356 13ZM293 807Q274 807 262 795T246 762H226V773Q232 791 248 808T294 825Q311 825 327 819T358 804T387 790T417
783Q436 783 448 795T464 828H484V817Q477 797 461 782T416 766Q399 766 383 772T352 786T323 800T293 807Z" />
<glyph unicode="&#xd6;" glyph-name="Odieresis" horiz-adv-x="711" d="M356 -3Q291 -3 233 20T132 87T63 198T37 350Q37 436 62 502T131 612T233 680T356 703Q421 703 478 680T579 613T648 502T674 350Q674 264 649 198T580 88T479 20T356 -3ZM356 13Q418 13
472 35T566 99T629 205T652 350Q652 432 629 494T566 600T472 665T356 687Q294 687 240 665T145 600T82 495T59 350Q59 268 82 205T145 100T239 35T356 13ZM292 815Q300 815 305 810T310 797Q310 789 305 784T292 779Q284 779 279 784T274 797Q274 805 279 810T292
815ZM418 815Q426 815 431 810T436 797Q436 789 431 784T418 779Q410 779 405 784T400 797Q400 805 405 810T418 815Z" />
<glyph unicode="&#xd7;" glyph-name="multiply" horiz-adv-x="440" d="M219 326L64 168L52 180L207 338L52 496L64 508L219 350L375 508L387 496L231 338L387 180L375 168L219 326Z" />
<glyph unicode="&#xd8;" glyph-name="Oslash" horiz-adv-x="711" d="M356 -3Q299 -3 247 14T153 67L80 -29H60L141 78Q93 123 65 191T37 350Q37 436 62 502T131 612T233 680T356 703Q413 703 465 685T559 632L626 721H646L571 621Q619 576 646 509T674 350Q674
264 649 198T580 88T479 20T356 -3ZM59 350Q59 264 83 200T152 92L548 617Q509 652 460 669T356 687Q294 687 240 665T145 600T82 495T59 350ZM356 13Q418 13 472 35T566 99T629 205T652 350Q652 435 627 499T559 606L163 81Q202 47 251 30T356 13Z" />
<glyph unicode="&#xd9;" glyph-name="Ugrave" horiz-adv-x="694" d="M350 -4Q300 -4 255 7T174 44T119 113T98 222V649Q98 662 87 673T62 685H18V700H228V685H119V221Q119 161 137 121T187 57T261 23T351 13Q397 13 438 22T510 55T559 119T577 221V685H468V700H676V685H632Q618
685 607 674T596 649V222Q596 157 577 114T523 44T445 7T350 -4ZM366 744H349L256 851V866H277L366 744Z" />
<glyph unicode="&#xda;" glyph-name="Uacute" horiz-adv-x="694" d="M350 -4Q300 -4 255 7T174 44T119 113T98 222V649Q98 662 87 673T62 685H18V700H228V685H119V221Q119 161 137 121T187 57T261 23T351 13Q397 13 438 22T510 55T559 119T577 221V685H468V700H676V685H632Q618
685 607 674T596 649V222Q596 157 577 114T523 44T445 7T350 -4ZM417 866H438V851L345 744H328L417 866Z" />
<glyph unicode="&#xdb;" glyph-name="Ucircumflex" horiz-adv-x="694" d="M350 -4Q300 -4 255 7T174 44T119 113T98 222V649Q98 662 87 673T62 685H18V700H228V685H119V221Q119 161 137 121T187 57T261 23T351 13Q397 13 438 22T510 55T559 119T577 221V685H468V700H676V685H632Q618
685 607 674T596 649V222Q596 157 577 114T523 44T445 7T350 -4ZM243 754L333 866H363L451 754V744H438L347 849L256 744H243V754Z" />
<glyph unicode="&#xdc;" glyph-name="Udieresis" horiz-adv-x="694" d="M350 -4Q300 -4 255 7T174 44T119 113T98 222V649Q98 662 87 673T62 685H18V700H228V685H119V221Q119 161 137 121T187 57T261 23T351 13Q397 13 438 22T510 55T559 119T577 221V685H468V700H676V685H632Q618
685 607 674T596 649V222Q596 157 577 114T523 44T445 7T350 -4ZM284 815Q292 815 297 810T302 797Q302 789 297 784T284 779Q276 779 271 784T266 797Q266 805 271 810T284 815ZM410 815Q418 815 423 810T428 797Q428 789 423 784T410 779Q402 779 397 784T392
797Q392 805 397 810T410 815Z" />
<glyph unicode="&#xdd;" glyph-name="Yacute" horiz-adv-x="617" d="M205 14H262Q276 14 287 25T298 50V299L96 638Q85 657 67 671T27 685H15V700H195V685H90L309 317H310L499 628Q517 657 508 671T472 685H422V700H602V685H582Q564 685 551 673T527 643L319 299V50Q319
37 330 26T355 14H412V0H205V14ZM378 866H399V851L306 744H289L378 866Z" />
<glyph unicode="&#xde;" glyph-name="Thorn" horiz-adv-x="541" d="M18 14H68Q82 14 93 25T104 50V649Q104 662 93 673T68 685H18V700H228V685H125V548H277Q329 548 372 539T447 508T495 450T513 362Q513 309 497 274T450 216T376 184T277 174H125V14H228V0H18V14ZM125
532V190H277Q328 190 367 198T435 226T477 279T492 362Q492 411 476 444T432 496T364 524T277 532H125Z" />
<glyph unicode="&#xdf;" glyph-name="germandbls" horiz-adv-x="571" d="M10 520H96Q105 608 159 655T307 703Q341 703 371 697T423 678T459 644T473 593Q473 569 463 549T437 510T399 476T355 443Q321 419 305 400T288 358Q288 332 313 316T395 279Q423 269 449
258T495 232T527 194T539 138Q539 69 493 33T372 -3Q327 -3 291 4T237 19V107H253Q255 65 261 48T276 26Q289 21 299 18T321 14T344 12T372 11Q435 11 477 42T519 137Q519 166 508 185T479 219T437 242T390 261Q331 281 300 301T268 358Q268 387 289 408T345 456Q367
472 386 487T421 519T444 554T453 593Q453 619 442 637T412 666T365 683T307 688Q216 688 166 638T115 489V14H181V0H16V14H64Q76 14 85 23T95 45V505H10V520Z" />
<glyph unicode="&#xe0;" glyph-name="agrave" horiz-adv-x="495" d="M190 -3Q155 -3 126 5T75 31T41 77T28 144Q28 182 43 210T86 256T152 282T237 291Q317 291 385 273V387Q385 424 375 448T345 485T301 504T245 509Q183 509 141 494T74 458H62V479Q91 496 136
510T247 525Q280 525 308 519T358 498T392 456T405 388V70Q405 38 416 26T453 13Q460 13 470 15Q474 16 479 17V2Q474 0 470 -1Q460 -3 452 -3Q418 -3 402 13T385 70V97Q350 50 306 24T190 -3ZM191 12Q227 12 255 19T307 41T349 74T385 118V257Q350 266 314 271T238
276Q197 276 162 269T102 245T62 204T48 145Q48 109 59 84T89 43T134 20T191 12ZM252 578H235L142 685V700H163L252 578Z" />
<glyph unicode="&#xe1;" glyph-name="aacute" horiz-adv-x="495" d="M190 -3Q155 -3 126 5T75 31T41 77T28 144Q28 182 43 210T86 256T152 282T237 291Q317 291 385 273V387Q385 424 375 448T345 485T301 504T245 509Q183 509 141 494T74 458H62V479Q91 496 136
510T247 525Q280 525 308 519T358 498T392 456T405 388V70Q405 38 416 26T453 13Q460 13 470 15Q474 16 479 17V2Q474 0 470 -1Q460 -3 452 -3Q418 -3 402 13T385 70V97Q350 50 306 24T190 -3ZM191 12Q227 12 255 19T307 41T349 74T385 118V257Q350 266 314 271T238
276Q197 276 162 269T102 245T62 204T48 145Q48 109 59 84T89 43T134 20T191 12ZM303 700H324V685L231 578H214L303 700Z" />
<glyph unicode="&#xe2;" glyph-name="acircumflex" horiz-adv-x="495" d="M190 -3Q155 -3 126 5T75 31T41 77T28 144Q28 182 43 210T86 256T152 282T237 291Q317 291 385 273V387Q385 424 375 448T345 485T301 504T245 509Q183 509 141 494T74 458H62V479Q91 496
136 510T247 525Q280 525 308 519T358 498T392 456T405 388V70Q405 38 416 26T453 13Q460 13 470 15Q474 16 479 17V2Q474 0 470 -1Q460 -3 452 -3Q418 -3 402 13T385 70V97Q350 50 306 24T190 -3ZM191 12Q227 12 255 19T307 41T349 74T385 118V257Q350 266 314
271T238 276Q197 276 162 269T102 245T62 204T48 145Q48 109 59 84T89 43T134 20T191 12ZM129 588L219 700H249L337 588V578H324L233 683L142 578H129V588Z" />
<glyph unicode="&#xe3;" glyph-name="atilde" horiz-adv-x="495" d="M190 -3Q155 -3 126 5T75 31T41 77T28 144Q28 182 43 210T86 256T152 282T237 291Q317 291 385 273V387Q385 424 375 448T345 485T301 504T245 509Q183 509 141 494T74 458H62V479Q91 496 136
510T247 525Q280 525 308 519T358 498T392 456T405 388V70Q405 38 416 26T453 13Q460 13 470 15Q474 16 479 17V2Q474 0 470 -1Q460 -3 452 -3Q418 -3 402 13T385 70V97Q350 50 306 24T190 -3ZM191 12Q227 12 255 19T307 41T349 74T385 118V257Q350 266 314 271T238
276Q197 276 162 269T102 245T62 204T48 145Q48 109 59 84T89 43T134 20T191 12ZM171 641Q152 641 140 629T124 596H104V607Q110 625 126 642T172 659Q189 659 205 653T236 638T265 624T295 617Q314 617 326 629T342 662H362V651Q355 631 339 616T294 600Q277 600
261 606T230 620T201 634T171 641Z" />
<glyph unicode="&#xe4;" glyph-name="adieresis" horiz-adv-x="495" d="M190 -3Q155 -3 126 5T75 31T41 77T28 144Q28 182 43 210T86 256T152 282T237 291Q317 291 385 273V387Q385 424 375 448T345 485T301 504T245 509Q183 509 141 494T74 458H62V479Q91 496
136 510T247 525Q280 525 308 519T358 498T392 456T405 388V70Q405 38 416 26T453 13Q460 13 470 15Q474 16 479 17V2Q474 0 470 -1Q460 -3 452 -3Q418 -3 402 13T385 70V97Q350 50 306 24T190 -3ZM191 12Q227 12 255 19T307 41T349 74T385 118V257Q350 266 314
271T238 276Q197 276 162 269T102 245T62 204T48 145Q48 109 59 84T89 43T134 20T191 12ZM170 649Q178 649 183 644T188 631Q188 623 183 618T170 613Q162 613 157 618T152 631Q152 639 157 644T170 649ZM296 649Q304 649 309 644T314 631Q314 623 309 618T296
613Q288 613 283 618T278 631Q278 639 283 644T296 649Z" />
<glyph unicode="&#xe5;" glyph-name="aring" horiz-adv-x="495" d="M190 -3Q155 -3 126 5T75 31T41 77T28 144Q28 182 43 210T86 256T152 282T237 291Q317 291 385 273V387Q385 424 375 448T345 485T301 504T245 509Q183 509 141 494T74 458H62V479Q91 496 136
510T247 525Q280 525 308 519T358 498T392 456T405 388V70Q405 38 416 26T453 13Q460 13 470 15Q474 16 479 17V2Q474 0 470 -1Q460 -3 452 -3Q418 -3 402 13T385 70V97Q350 50 306 24T190 -3ZM191 12Q227 12 255 19T307 41T349 74T385 118V257Q350 266 314 271T238
276Q197 276 162 269T102 245T62 204T48 145Q48 109 59 84T89 43T134 20T191 12ZM233 578Q201 578 177 599T152 657Q152 675 158 689T176 714T202 730T233 736Q248 736 262 731T288 715T306 690T313 657Q313 620 289 599T233 578ZM171 657Q171 628 189 611T233
593Q259 593 276 610T294 657Q294 686 277 703T233 721Q207 721 189 704T171 657Z" />
<glyph unicode="&#xe6;" glyph-name="ae" horiz-adv-x="859" d="M190 -3Q155 -3 126 5T75 31T41 77T28 144Q28 182 44 209T88 255T155 281T240 290H392V387Q392 424 381 448T349 485T302 504T245 509Q183 509 141 494T74 458H62V479Q91 496 136 510T247 525Q280
525 309 519T361 498T397 456T410 388V375Q433 445 489 485T621 525Q667 525 705 513T772 473T817 401T833 294Q833 291 833 288T832 282V275H412V261Q412 204 425 158T465 79T533 29T632 11Q701 11 745 31T809 74H823V58Q797 35 750 16T632 -3Q547 -3 493 32T413
133Q377 71 325 34T190 -3ZM191 12Q269 12 319 49T407 151Q399 177 395 209T391 275H241Q199 275 164 268T103 244T63 204T48 145Q48 109 59 84T89 43T134 20T191 12ZM813 290Q813 351 800 393T761 461T700 498T621 510Q529 510 474 451T412 290H813Z" />
<glyph unicode="&#xe7;" glyph-name="ccedilla" horiz-adv-x="495" d="M249 -173Q223 -173 207 -169T175 -157V-137H189Q196 -147 212 -152T249 -158Q306 -158 306 -112Q306 -85 289 -75T227 -65H220V0H228Q131 14 81 82T30 262Q30 323 48 372T100 455T178 507T279
525Q344 525 382 515T444 493V408H428Q427 430 425 445T419 469T407 484T389 494Q370 502 341 506T279 510Q228 510 186 493T114 444T68 366T51 262Q51 146 107 79T273 11Q344 11 384 33T442 82H456V67Q447 55 431 43T391 21T339 4T273 -3Q264 -3 255 -3T238 -1V-50Q327
-50 327 -112Q327 -142 305 -157T249 -173Z" />
<glyph unicode="&#xe8;" glyph-name="egrave" horiz-adv-x="508" d="M51 274V259Q51 144 108 78T279 11Q348 11 393 31T458 74H472V58Q446 35 398 16T279 -3Q158 -3 94 67T30 259Q30 320 47 369T96 452T171 506T265 525Q311 525 351 512T420 469T465 395T482 286Q482
283 482 281T481 277V274H51ZM265 510Q174 510 117 451T52 289H462Q461 348 447 390T406 458T344 497T265 510ZM283 578H266L173 685V700H194L283 578Z" />
<glyph unicode="&#xe9;" glyph-name="eacute" horiz-adv-x="508" d="M51 274V259Q51 144 108 78T279 11Q348 11 393 31T458 74H472V58Q446 35 398 16T279 -3Q158 -3 94 67T30 259Q30 320 47 369T96 452T171 506T265 525Q311 525 351 512T420 469T465 395T482 286Q482
283 482 281T481 277V274H51ZM265 510Q174 510 117 451T52 289H462Q461 348 447 390T406 458T344 497T265 510ZM334 700H355V685L262 578H245L334 700Z" />
<glyph unicode="&#xea;" glyph-name="ecircumflex" horiz-adv-x="508" d="M51 274V259Q51 144 108 78T279 11Q348 11 393 31T458 74H472V58Q446 35 398 16T279 -3Q158 -3 94 67T30 259Q30 320 47 369T96 452T171 506T265 525Q311 525 351 512T420 469T465 395T482
286Q482 283 482 281T481 277V274H51ZM265 510Q174 510 117 451T52 289H462Q461 348 447 390T406 458T344 497T265 510ZM160 588L250 700H280L368 588V578H355L264 683L173 578H160V588Z" />
<glyph unicode="&#xeb;" glyph-name="edieresis" horiz-adv-x="508" d="M51 274V259Q51 144 108 78T279 11Q348 11 393 31T458 74H472V58Q446 35 398 16T279 -3Q158 -3 94 67T30 259Q30 320 47 369T96 452T171 506T265 525Q311 525 351 512T420 469T465 395T482
286Q482 283 482 281T481 277V274H51ZM265 510Q174 510 117 451T52 289H462Q461 348 447 390T406 458T344 497T265 510ZM201 649Q209 649 214 644T219 631Q219 623 214 618T201 613Q193 613 188 618T183 631Q183 639 188 644T201 649ZM327 649Q335 649 340 644T345
631Q345 623 340 618T327 613Q319 613 314 618T309 631Q309 639 314 644T327 649Z" />
<glyph unicode="&#xec;" glyph-name="igrave" horiz-adv-x="221" d="M16 14H70Q82 14 91 23T101 45V474Q101 486 92 495T70 505H10V520H109Q116 520 118 517T121 501V45Q121 33 130 24T152 14H206V0H16V14ZM387 578H370L277 685V700H298L387 578Z" />
<glyph unicode="&#xed;" glyph-name="iacute" horiz-adv-x="221" d="M16 14H70Q82 14 91 23T101 45V474Q101 486 92 495T70 505H10V520H109Q116 520 118 517T121 501V45Q121 33 130 24T152 14H206V0H16V14ZM438 700H459V685L366 578H349L438 700Z" />
<glyph unicode="&#xee;" glyph-name="icircumflex" horiz-adv-x="221" d="M16 14H70Q82 14 91 23T101 45V474Q101 486 92 495T70 505H10V520H109Q116 520 118 517T121 501V45Q121 33 130 24T152 14H206V0H16V14ZM264 588L354 700H384L472 588V578H459L368 683L277
578H264V588Z" />
<glyph unicode="&#xef;" glyph-name="idieresis" horiz-adv-x="221" d="M16 14H70Q82 14 91 23T101 45V474Q101 486 92 495T70 505H10V520H109Q116 520 118 517T121 501V45Q121 33 130 24T152 14H206V0H16V14ZM305 649Q313 649 318 644T323 631Q323 623 318 618T305
613Q297 613 292 618T287 631Q287 639 292 644T305 649ZM431 649Q439 649 444 644T449 631Q449 623 444 618T431 613Q423 613 418 618T413 631Q413 639 418 644T431 649Z" />
<glyph unicode="&#xf0;" glyph-name="eth" horiz-adv-x="552" d="M183 570L299 637Q265 656 233 666T175 682V700H186Q212 693 246 680T316 646L407 699H419V688L331 637Q367 614 401 581T462 503T505 401T522 271Q522 203 504 152T453 67T375 15T276 -3Q222 -3
177 15T100 67T49 150T30 261Q30 322 48 371T99 454T177 506T276 525Q344 525 398 495T488 396Q476 438 458 473T416 537T367 588T314 627L195 559H183V570ZM276 11Q327 11 368 28T439 78T485 156T501 261Q501 319 485 365T440 443T369 492T276 510Q226 510 185
493T114 443T68 365T51 261Q51 203 67 157T113 78T184 29T276 11Z" />
<glyph unicode="&#xf1;" glyph-name="ntilde" horiz-adv-x="581" d="M16 14H64Q76 14 85 23T95 45V474Q95 486 86 495T64 505H10V520H103Q110 520 112 517T115 501V414Q138 436 165 456T223 491T287 516T356 525Q383 525 407 520T450 499T480 459T491 395V45Q491
33 500 24T522 14H565V0H368V14H471V392Q471 428 462 451T437 486T400 504T355 509Q289 509 228 476T115 398V14H218V0H16V14ZM228 641Q209 641 197 629T181 596H161V607Q167 625 183 642T229 659Q246 659 262 653T293 638T322 624T352 617Q371 617 383 629T399
662H419V651Q412 631 396 616T351 600Q334 600 318 606T287 620T258 634T228 641Z" />
<glyph unicode="&#xf2;" glyph-name="ograve" horiz-adv-x="552" d="M276 -3Q222 -3 177 15T100 67T49 150T30 261Q30 322 48 371T99 454T177 506T276 525Q330 525 375 507T453 454T504 371T522 261Q522 199 504 151T453 68T375 15T276 -3ZM276 11Q327 11 368
28T439 78T485 156T501 261Q501 319 485 365T440 443T369 492T276 510Q226 510 185 493T114 443T68 365T51 261Q51 203 67 157T113 78T184 29T276 11ZM295 578H278L185 685V700H206L295 578Z" />
<glyph unicode="&#xf3;" glyph-name="oacute" horiz-adv-x="552" d="M276 -3Q222 -3 177 15T100 67T49 150T30 261Q30 322 48 371T99 454T177 506T276 525Q330 525 375 507T453 454T504 371T522 261Q522 199 504 151T453 68T375 15T276 -3ZM276 11Q327 11 368
28T439 78T485 156T501 261Q501 319 485 365T440 443T369 492T276 510Q226 510 185 493T114 443T68 365T51 261Q51 203 67 157T113 78T184 29T276 11ZM346 700H367V685L274 578H257L346 700Z" />
<glyph unicode="&#xf4;" glyph-name="ocircumflex" horiz-adv-x="552" d="M276 -3Q222 -3 177 15T100 67T49 150T30 261Q30 322 48 371T99 454T177 506T276 525Q330 525 375 507T453 454T504 371T522 261Q522 199 504 151T453 68T375 15T276 -3ZM276 11Q327 11
368 28T439 78T485 156T501 261Q501 319 485 365T440 443T369 492T276 510Q226 510 185 493T114 443T68 365T51 261Q51 203 67 157T113 78T184 29T276 11ZM172 588L262 700H292L380 588V578H367L276 683L185 578H172V588Z" />
<glyph unicode="&#xf5;" glyph-name="otilde" horiz-adv-x="552" d="M276 -3Q222 -3 177 15T100 67T49 150T30 261Q30 322 48 371T99 454T177 506T276 525Q330 525 375 507T453 454T504 371T522 261Q522 199 504 151T453 68T375 15T276 -3ZM276 11Q327 11 368
28T439 78T485 156T501 261Q501 319 485 365T440 443T369 492T276 510Q226 510 185 493T114 443T68 365T51 261Q51 203 67 157T113 78T184 29T276 11ZM214 641Q195 641 183 629T167 596H147V607Q153 625 169 642T215 659Q232 659 248 653T279 638T308 624T338 617Q357
617 369 629T385 662H405V651Q398 631 382 616T337 600Q320 600 304 606T273 620T244 634T214 641Z" />
<glyph unicode="&#xf6;" glyph-name="odieresis" horiz-adv-x="552" d="M276 -3Q222 -3 177 15T100 67T49 150T30 261Q30 322 48 371T99 454T177 506T276 525Q330 525 375 507T453 454T504 371T522 261Q522 199 504 151T453 68T375 15T276 -3ZM276 11Q327 11 368
28T439 78T485 156T501 261Q501 319 485 365T440 443T369 492T276 510Q226 510 185 493T114 443T68 365T51 261Q51 203 67 157T113 78T184 29T276 11ZM213 649Q221 649 226 644T231 631Q231 623 226 618T213 613Q205 613 200 618T195 631Q195 639 200 644T213 649ZM339
649Q347 649 352 644T357 631Q357 623 352 618T339 613Q331 613 326 618T321 631Q321 639 326 644T339 649Z" />
<glyph unicode="&#xf7;" glyph-name="divide" horiz-adv-x="446" d="M36 337V354H410V337H36ZM223 231Q232 231 238 225T244 210Q244 201 238 195T223 189Q214 189 208 195T202 210Q202 219 208 225T223 231ZM223 502Q232 502 238 496T244 481Q244 472 238 466T223
460Q214 460 208 466T202 481Q202 490 208 496T223 502Z" />
<glyph unicode="&#xf8;" glyph-name="oslash" horiz-adv-x="552" d="M108 59Q71 93 51 144T30 261Q30 322 48 371T99 454T177 506T276 525Q322 525 361 512T433 472L487 541H506L444 463Q481 428 501 378T522 261Q522 199 504 151T453 68T375 15T276 -3Q183 -3
119 49L63 -23H44L108 59ZM51 261Q51 200 69 152T119 72L423 459Q364 510 276 510Q226 510 185 493T114 443T68 365T51 261ZM276 11Q327 11 368 28T439 78T485 156T501 261Q501 321 483 369T433 449L129 62Q188 11 276 11Z" />
<glyph unicode="&#xf9;" glyph-name="ugrave" horiz-adv-x="585" d="M482 45Q482 33 491 24T513 14H569V0H474Q467 0 465 3T462 19V98Q415 56 355 26T227 -5Q200 -5 176 0T133 20T105 59T94 123V474Q94 486 85 495T63 505H10V520H114V126Q114 90 123 68T147 33T183
16T228 11Q291 11 351 41T462 115V505H373V520H482V45ZM285 578H268L175 685V700H196L285 578Z" />
<glyph unicode="&#xfa;" glyph-name="uacute" horiz-adv-x="585" d="M482 45Q482 33 491 24T513 14H569V0H474Q467 0 465 3T462 19V98Q415 56 355 26T227 -5Q200 -5 176 0T133 20T105 59T94 123V474Q94 486 85 495T63 505H10V520H114V126Q114 90 123 68T147 33T183
16T228 11Q291 11 351 41T462 115V505H373V520H482V45ZM336 700H357V685L264 578H247L336 700Z" />
<glyph unicode="&#xfb;" glyph-name="ucircumflex" horiz-adv-x="585" d="M482 45Q482 33 491 24T513 14H569V0H474Q467 0 465 3T462 19V98Q415 56 355 26T227 -5Q200 -5 176 0T133 20T105 59T94 123V474Q94 486 85 495T63 505H10V520H114V126Q114 90 123 68T147
33T183 16T228 11Q291 11 351 41T462 115V505H373V520H482V45ZM162 588L252 700H282L370 588V578H357L266 683L175 578H162V588Z" />
<glyph unicode="&#xfc;" glyph-name="udieresis" horiz-adv-x="585" d="M482 45Q482 33 491 24T513 14H569V0H474Q467 0 465 3T462 19V98Q415 56 355 26T227 -5Q200 -5 176 0T133 20T105 59T94 123V474Q94 486 85 495T63 505H10V520H114V126Q114 90 123 68T147
33T183 16T228 11Q291 11 351 41T462 115V505H373V520H482V45ZM203 649Q211 649 216 644T221 631Q221 623 216 618T203 613Q195 613 190 618T185 631Q185 639 190 644T203 649ZM329 649Q337 649 342 644T347 631Q347 623 342 618T329 613Q321 613 316 618T311 631Q311
639 316 644T329 649Z" />
<glyph unicode="&#xfd;" glyph-name="yacute" horiz-adv-x="571" d="M116 -143Q163 -129 199 -86T266 28L80 464Q72 483 58 494T29 505H10V520H180V505H84L276 51L446 467Q452 482 443 493T418 505H366V520H535V505H512Q497 505 485 495T465 466L288 33Q258 -42
219 -92T136 -162H116V-143ZM343 700H364V685L271 578H254L343 700Z" />
<glyph unicode="&#xfe;" glyph-name="thorn" horiz-adv-x="544" d="M279 -3Q207 -3 161 19T85 77V-148H189V-162H-14V-148H34Q46 -148 55 -138T65 -117V654Q65 666 56 675T34 685H-18V700H76Q85 700 85 689V394Q101 419 122 442T170 484T230 514T303 525Q340 525
377 513T445 471T493 391T512 266Q512 188 491 137T437 54T363 10T279 -3ZM302 509Q264 509 232 498T174 468T125 424T85 372V96Q120 55 165 34T279 12Q316 12 354 23T422 63T472 141T491 265Q491 338 474 385T430 460T369 498T302 509Z" />
<glyph unicode="&#xff;" glyph-name="ydieresis" horiz-adv-x="571" d="M116 -143Q163 -129 199 -86T266 28L80 464Q72 483 58 494T29 505H10V520H180V505H84L276 51L446 467Q452 482 443 493T418 505H366V520H535V505H512Q497 505 485 495T465 466L288 33Q258
-42 219 -92T136 -162H116V-143ZM210 649Q218 649 223 644T228 631Q228 623 223 618T210 613Q202 613 197 618T192 631Q192 639 197 644T210 649ZM336 649Q344 649 349 644T354 631Q354 623 349 618T336 613Q328 613 323 618T318 631Q318 639 323 644T336 649Z"
/>
<glyph unicode="&#x100;" glyph-name="Amacron" horiz-adv-x="688" d="M14 14H43Q61 14 76 26T98 56L308 646Q314 663 306 674T280 685H224V700H363L588 61Q595 42 610 28T643 14H674V0H471V14H584L505 237H181L122 70Q113 44 120 29T153 14H216V0H14V14ZM187
252H500L348 684H341L187 252ZM218 794H438V779H218V794Z" />
<glyph unicode="&#x101;" glyph-name="amacron" horiz-adv-x="495" d="M190 -3Q155 -3 126 5T75 31T41 77T28 144Q28 182 43 210T86 256T152 282T237 291Q317 291 385 273V387Q385 424 375 448T345 485T301 504T245 509Q183 509 141 494T74 458H62V479Q91 496
136 510T247 525Q280 525 308 519T358 498T392 456T405 388V70Q405 38 416 26T453 13Q460 13 470 15Q474 16 479 17V2Q474 0 470 -1Q460 -3 452 -3Q418 -3 402 13T385 70V97Q350 50 306 24T190 -3ZM191 12Q227 12 255 19T307 41T349 74T385 118V257Q350 266 314
271T238 276Q197 276 162 269T102 245T62 204T48 145Q48 109 59 84T89 43T134 20T191 12ZM123 636H343V621H123V636Z" />
<glyph unicode="&#x102;" glyph-name="Abreve" horiz-adv-x="688" d="M14 14H43Q61 14 76 26T98 56L308 646Q314 663 306 674T280 685H224V700H363L588 61Q595 42 610 28T643 14H674V0H471V14H584L505 237H181L122 70Q113 44 120 29T153 14H216V0H14V14ZM187 252H500L348
684H341L187 252ZM328 746Q283 746 254 771T215 835V847H237Q241 807 264 785T328 763Q368 763 391 785T419 847H441V835Q432 796 403 771T328 746Z" />
<glyph unicode="&#x103;" glyph-name="abreve" horiz-adv-x="495" d="M190 -3Q155 -3 126 5T75 31T41 77T28 144Q28 182 43 210T86 256T152 282T237 291Q317 291 385 273V387Q385 424 375 448T345 485T301 504T245 509Q183 509 141 494T74 458H62V479Q91 496 136
510T247 525Q280 525 308 519T358 498T392 456T405 388V70Q405 38 416 26T453 13Q460 13 470 15Q474 16 479 17V2Q474 0 470 -1Q460 -3 452 -3Q418 -3 402 13T385 70V97Q350 50 306 24T190 -3ZM191 12Q227 12 255 19T307 41T349 74T385 118V257Q350 266 314 271T238
276Q197 276 162 269T102 245T62 204T48 145Q48 109 59 84T89 43T134 20T191 12ZM233 580Q188 580 159 605T120 669V681H142Q146 641 169 619T233 597Q273 597 296 619T324 681H346V669Q337 630 308 605T233 580Z" />
<glyph unicode="&#x104;" glyph-name="Aogonek" horiz-adv-x="688" d="M623 -164Q585 -164 564 -146T543 -98Q543 -66 563 -42T612 0H471V14H584L505 237H181L122 70Q113 44 120 29T153 14H216V0H14V14H43Q61 14 76 26T98 56L308 646Q314 663 306 674T280 685H224V700H363L588
61Q595 42 610 28T643 14H674V0H632Q597 -24 580 -46T563 -98Q563 -149 623 -149Q635 -149 641 -147T655 -139H666V-158Q655 -161 646 -162T623 -164ZM187 252H500L348 684H341L187 252Z" />
<glyph unicode="&#x105;" glyph-name="aogonek" horiz-adv-x="495" d="M436 -164Q398 -164 377 -146T356 -98Q356 -66 377 -42T433 -1Q407 4 396 21T385 70V97Q350 50 306 24T190 -3Q155 -3 126 5T75 31T41 77T28 144Q28 182 43 210T86 256T152 282T237 291Q317
291 385 273V387Q385 424 375 448T345 485T301 504T245 509Q183 509 141 494T74 458H62V479Q91 496 136 510T247 525Q280 525 308 519T358 498T392 456T405 388V70Q405 40 416 27T453 13Q460 13 470 15Q474 16 479 17V2Q422 -14 399 -42T376 -98Q376 -149 436 -149Q448
-149 454 -147T468 -139H479V-158Q468 -161 459 -162T436 -164ZM191 12Q227 12 255 19T307 41T349 74T385 118V257Q350 266 314 271T238 276Q197 276 162 269T102 245T62 204T48 145Q48 109 59 84T89 43T134 20T191 12Z" />
<glyph unicode="&#x106;" glyph-name="Cacute" horiz-adv-x="620" d="M417 866H438V851L345 744H328L417 866ZM347 -3Q279 -3 223 19T125 85T60 196T37 353Q37 443 63 509T133 618T234 682T355 703Q399 703 431 699T486 689T523 679T543 674Q549 674 552 678T557
700H572V516H557L549 636Q522 662 474 674T356 687Q295 687 241 667T147 606T83 502T59 354Q59 268 79 205T138 98T229 34T347 13Q438 13 493 40T575 109H592V92Q573 71 551 54T499 24T433 4T347 -3Z" />
<glyph unicode="&#x107;" glyph-name="cacute" horiz-adv-x="495" d="M341 700H362V685L269 578H252L341 700ZM273 -3Q214 -3 169 15T93 68T46 152T30 262Q30 323 48 372T100 455T178 507T279 525Q344 525 382 515T444 493V408H428Q427 430 425 445T419 469T407
484T389 494Q370 502 341 506T279 510Q228 510 186 493T114 444T68 366T51 262Q51 146 107 79T273 11Q344 11 384 33T442 82H456V67Q447 55 431 43T391 21T339 4T273 -3Z" />
<glyph unicode="&#x108;" glyph-name="Ccircumflex" horiz-adv-x="620" d="M243 754L333 866H363L451 754V744H438L347 849L256 744H243V754ZM347 -3Q279 -3 223 19T125 85T60 196T37 353Q37 443 63 509T133 618T234 682T355 703Q399 703 431 699T486 689T523
679T543 674Q549 674 552 678T557 700H572V516H557L549 636Q522 662 474 674T356 687Q295 687 241 667T147 606T83 502T59 354Q59 268 79 205T138 98T229 34T347 13Q438 13 493 40T575 109H592V92Q573 71 551 54T499 24T433 4T347 -3Z" />
<glyph unicode="&#x109;" glyph-name="ccircumflex" horiz-adv-x="495" d="M177 588L267 700H297L385 588V578H372L281 683L190 578H177V588ZM273 -3Q214 -3 169 15T93 68T46 152T30 262Q30 323 48 372T100 455T178 507T279 525Q344 525 382 515T444 493V408H428Q427
430 425 445T419 469T407 484T389 494Q370 502 341 506T279 510Q228 510 186 493T114 444T68 366T51 262Q51 146 107 79T273 11Q344 11 384 33T442 82H456V67Q447 55 431 43T391 21T339 4T273 -3Z" />
<glyph unicode="&#x10a;" glyph-name="Cdotaccent" horiz-adv-x="620" d="M347 -3Q279 -3 223 19T125 85T60 196T37 353Q37 443 63 509T133 618T234 682T355 703Q399 703 431 699T486 689T523 679T543 674Q549 674 552 678T557 700H572V516H557L549 636Q522 662
474 674T356 687Q295 687 241 667T147 606T83 502T59 354Q59 268 79 205T138 98T229 34T347 13Q438 13 493 40T575 109H592V92Q573 71 551 54T499 24T433 4T347 -3ZM347 815Q355 815 360 810T365 797Q365 789 360 784T347 779Q339 779 334 784T329 797Q329 805
334 810T347 815Z" />
<glyph unicode="&#x10b;" glyph-name="cdotaccent" horiz-adv-x="495" d="M273 -3Q214 -3 169 15T93 68T46 152T30 262Q30 323 48 372T100 455T178 507T279 525Q344 525 382 515T444 493V408H428Q427 430 425 445T419 469T407 484T389 494Q370 502 341 506T279
510Q228 510 186 493T114 444T68 366T51 262Q51 146 107 79T273 11Q344 11 384 33T442 82H456V67Q447 55 431 43T391 21T339 4T273 -3ZM271 649Q279 649 284 644T289 631Q289 623 284 618T271 613Q263 613 258 618T253 631Q253 639 258 644T271 649Z" />
<glyph unicode="&#x10c;" glyph-name="Ccaron" horiz-adv-x="620" d="M451 856L361 744H331L243 856V866H256L347 761L438 866H451V856ZM347 -3Q279 -3 223 19T125 85T60 196T37 353Q37 443 63 509T133 618T234 682T355 703Q399 703 431 699T486 689T523 679T543
674Q549 674 552 678T557 700H572V516H557L549 636Q522 662 474 674T356 687Q295 687 241 667T147 606T83 502T59 354Q59 268 79 205T138 98T229 34T347 13Q438 13 493 40T575 109H592V92Q573 71 551 54T499 24T433 4T347 -3Z" />
<glyph unicode="&#x10d;" glyph-name="ccaron" horiz-adv-x="495" d="M385 690L295 578H265L177 690V700H190L281 595L372 700H385V690ZM273 -3Q214 -3 169 15T93 68T46 152T30 262Q30 323 48 372T100 455T178 507T279 525Q344 525 382 515T444 493V408H428Q427
430 425 445T419 469T407 484T389 494Q370 502 341 506T279 510Q228 510 186 493T114 444T68 366T51 262Q51 146 107 79T273 11Q344 11 384 33T442 82H456V67Q447 55 431 43T391 21T339 4T273 -3Z" />
<glyph unicode="&#x10e;" glyph-name="Dcaron" horiz-adv-x="665" d="M408 856L318 744H288L200 856V866H213L304 761L395 866H408V856ZM18 14H68Q82 14 93 25T104 50V649Q104 662 93 673T68 685H18V700H280Q366 700 431 681T540 619T606 511T628 350Q628 255
606 189T541 80T432 19T280 0H18V14ZM280 16Q363 16 424 34T526 93T587 196T607 350Q607 440 587 503T527 607T425 665T280 684H125V16H280Z" />
<glyph unicode="&#x10f;" glyph-name="dcaron" horiz-adv-x="574" d="M563 700H582V686L552 578H538L563 700ZM468 0Q461 0 460 5T459 22V121Q443 98 422 76T375 36T315 8T243 -3Q205 -3 168 9T100 50T51 129T32 254Q32 332 53 384T108 467T184 512T268 525Q339
525 384 502T459 444V685H362V700H470Q479 700 479 689V45Q479 33 488 24T510 14H558V0H468ZM244 12Q282 12 313 22T371 51T419 92T459 142V424Q424 464 380 486T268 509Q230 509 192 498T123 458T73 380T53 255Q53 182 70 135T115 61T177 23T244 12Z" />
<glyph unicode="&#x110;" glyph-name="Dcroat" horiz-adv-x="665" d="M19 358H104V649Q104 662 93 673T68 685H18V700H279Q365 700 430 681T540 619T606 511T628 350Q628 255 606 189T540 80T431 19T279 0H18V14H68Q82 14 93 25T104 50V343H19V358ZM279 16Q362
16 423 34T526 93T587 196T607 350Q607 440 587 503T526 607T424 665T279 684H125V358H352V343H125V16H279Z" />
<glyph unicode="&#x111;" glyph-name="dcroat" horiz-adv-x="574" d="M296 614H459V685H362V700H470Q479 700 479 689V614H558V600H479V45Q479 33 488 24T510 14H558V0H468Q461 0 460 5T459 22V121Q443 98 422 76T375 36T315 8T243 -3Q205 -3 168 9T100 50T51
129T32 254Q32 332 53 384T108 467T184 512T268 525Q339 525 384 502T459 444V600H296V614ZM244 12Q282 12 313 22T371 51T419 92T459 142V424Q424 464 380 486T268 509Q230 509 192 498T123 458T73 380T53 255Q53 182 70 135T115 61T177 23T244 12Z" />
<glyph unicode="&#x112;" glyph-name="Emacron" horiz-adv-x="562" d="M18 14H68Q82 14 93 25T104 50V649Q104 662 93 673T68 685H18V700H518V546H503L496 685H125V371H355L363 466H377V261H363L355 356H125V15H510L517 167H532V0H18V14ZM181 794H401V779H181V794Z" />
<glyph unicode="&#x113;" glyph-name="emacron" horiz-adv-x="508" d="M51 274V259Q51 144 108 78T279 11Q348 11 393 31T458 74H472V58Q446 35 398 16T279 -3Q158 -3 94 67T30 259Q30 320 47 369T96 452T171 506T265 525Q311 525 351 512T420 469T465 395T482
286Q482 283 482 281T481 277V274H51ZM265 510Q174 510 117 451T52 289H462Q461 348 447 390T406 458T344 497T265 510ZM154 636H374V621H154V636Z" />
<glyph unicode="&#x114;" glyph-name="Ebreve" horiz-adv-x="562" d="M18 14H68Q82 14 93 25T104 50V649Q104 662 93 673T68 685H18V700H518V546H503L496 685H125V371H355L363 466H377V261H363L355 356H125V15H510L517 167H532V0H18V14ZM295 746Q250 746 221 771T182
835V847H204Q208 807 231 785T295 763Q335 763 358 785T386 847H408V835Q399 796 370 771T295 746Z" />
<glyph unicode="&#x115;" glyph-name="ebreve" horiz-adv-x="508" d="M51 274V259Q51 144 108 78T279 11Q348 11 393 31T458 74H472V58Q446 35 398 16T279 -3Q158 -3 94 67T30 259Q30 320 47 369T96 452T171 506T265 525Q311 525 351 512T420 469T465 395T482
286Q482 283 482 281T481 277V274H51ZM265 510Q174 510 117 451T52 289H462Q461 348 447 390T406 458T344 497T265 510ZM264 580Q219 580 190 605T151 669V681H173Q177 641 200 619T264 597Q304 597 327 619T355 681H377V669Q368 630 339 605T264 580Z" />
<glyph unicode="&#x116;" glyph-name="Edotaccent" horiz-adv-x="562" d="M18 14H68Q82 14 93 25T104 50V649Q104 662 93 673T68 685H18V700H518V546H503L496 685H125V371H355L363 466H377V261H363L355 356H125V15H510L517 167H532V0H18V14ZM291 815Q299 815 304
810T309 797Q309 789 304 784T291 779Q283 779 278 784T273 797Q273 805 278 810T291 815Z" />
<glyph unicode="&#x117;" glyph-name="edotaccent" horiz-adv-x="508" d="M51 274V259Q51 144 108 78T279 11Q348 11 393 31T458 74H472V58Q446 35 398 16T279 -3Q158 -3 94 67T30 259Q30 320 47 369T96 452T171 506T265 525Q311 525 351 512T420 469T465 395T482
286Q482 283 482 281T481 277V274H51ZM265 510Q174 510 117 451T52 289H462Q461 348 447 390T406 458T344 497T265 510ZM264 649Q272 649 277 644T282 631Q282 623 277 618T264 613Q256 613 251 618T246 631Q246 639 251 644T264 649Z" />
<glyph unicode="&#x118;" glyph-name="Eogonek" horiz-adv-x="562" d="M18 14H68Q82 14 93 25T104 50V649Q104 662 93 673T68 685H18V700H518V546H503L496 685H125V371H355L363 466H377V261H363L355 356H125V15H510L517 167H532V0H495Q460 -24 443 -46T426 -98Q426
-149 486 -149Q498 -149 504 -147T518 -139H529V-158Q518 -161 509 -162T486 -164Q448 -164 427 -146T406 -98Q406 -66 426 -42T475 0H18V14Z" />
<glyph unicode="&#x119;" glyph-name="eogonek" horiz-adv-x="508" d="M403 -164Q365 -164 345 -145T324 -97Q324 -68 343 -39T407 23Q380 10 349 4T279 -3Q158 -3 94 67T30 259Q30 320 47 369T96 452T171 506T265 525Q311 525 351 512T420 469T465 395T482 286Q482
283 482 281T481 277V274H51V259Q51 144 108 78T279 11Q348 11 393 31T458 74H472V58Q405 11 375 -24T344 -97Q344 -149 403 -149Q415 -149 421 -147T435 -139H446V-158Q435 -161 426 -162T403 -164ZM265 510Q174 510 117 451T52 289H462Q461 348 447 390T406 458T344
497T265 510Z" />
<glyph unicode="&#x11a;" glyph-name="Ecaron" horiz-adv-x="562" d="M395 856L305 744H275L187 856V866H200L291 761L382 866H395V856ZM18 14H68Q82 14 93 25T104 50V649Q104 662 93 673T68 685H18V700H518V546H503L496 685H125V371H355L363 466H377V261H363L355
356H125V15H510L517 167H532V0H18V14Z" />
<glyph unicode="&#x11b;" glyph-name="ecaron" horiz-adv-x="508" d="M368 690L278 578H248L160 690V700H173L264 595L355 700H368V690ZM51 274V259Q51 144 108 78T279 11Q348 11 393 31T458 74H472V58Q446 35 398 16T279 -3Q158 -3 94 67T30 259Q30 320 47 369T96
452T171 506T265 525Q311 525 351 512T420 469T465 395T482 286Q482 283 482 281T481 277V274H51ZM265 510Q174 510 117 451T52 289H462Q461 348 447 390T406 458T344 497T265 510Z" />
<glyph unicode="&#x11c;" glyph-name="Gcircumflex" horiz-adv-x="682" d="M251 754L341 866H371L459 754V744H446L355 849L264 744H251V754ZM551 36Q546 36 532 30T493 17T433 3T353 -3Q281 -3 223 19T123 85T59 196T37 353Q37 443 63 509T133 618T235 682T358
703Q403 703 437 699T494 689T532 679T553 674Q559 674 562 678T567 700H582V521H567L559 635Q532 662 482 674T359 687Q296 687 241 667T146 606T82 502T59 354Q59 182 136 98T353 13Q433 13 483 31T565 74V289H449V303H664V289H622Q608 289 597 278T586 253V0H570Q568
23 563 29T551 36Z" />
<glyph unicode="&#x11d;" glyph-name="gcircumflex" horiz-adv-x="472" d="M132 588L222 700H252L340 588V578H327L236 683L145 578H132V588ZM227 -166Q168 -166 128 -156T64 -128T30 -86T19 -33Q19 14 52 46T130 96Q104 101 89 117T73 163Q73 191 87 209T119
242Q92 263 79 294T65 363Q65 396 76 425T108 476T162 512T239 525Q262 525 287 520H456V505H376Q368 505 362 501T356 488Q385 465 399 433T413 363Q413 330 402 302T370 252T315 219T239 206Q174 206 130 234Q114 220 103 204T92 163Q92 136 110 123T158 109H312Q377
109 417 82T458 -11Q458 -42 446 -70T405 -119T334 -153T227 -166ZM151 92Q103 73 72 43T40 -33Q40 -58 48 -79T78 -117T136 -142T227 -151Q286 -151 326 -140T391 -109T427 -65T438 -11Q438 45 405 68T311 92H151ZM239 221Q278 221 307 232T355 262T383 307T393
363Q393 392 384 418T355 465T307 498T239 510Q200 510 171 498T123 466T95 419T85 363Q85 333 94 308T123 263T171 232T239 221Z" />
<glyph unicode="&#x11e;" glyph-name="Gbreve" horiz-adv-x="682" d="M551 36Q546 36 532 30T493 17T433 3T353 -3Q281 -3 223 19T123 85T59 196T37 353Q37 443 63 509T133 618T235 682T358 703Q403 703 437 699T494 689T532 679T553 674Q559 674 562 678T567
700H582V521H567L559 635Q532 662 482 674T359 687Q296 687 241 667T146 606T82 502T59 354Q59 182 136 98T353 13Q433 13 483 31T565 74V289H449V303H664V289H622Q608 289 597 278T586 253V0H570Q568 23 563 29T551 36ZM348 746Q303 746 274 771T235 835V847H257Q261
807 284 785T348 763Q388 763 411 785T439 847H461V835Q452 796 423 771T348 746Z" />
<glyph unicode="&#x11f;" glyph-name="gbreve" horiz-adv-x="472" d="M227 -166Q168 -166 128 -156T64 -128T30 -86T19 -33Q19 14 52 46T130 96Q104 101 89 117T73 163Q73 191 87 209T119 242Q92 263 79 294T65 363Q65 396 76 425T108 476T162 512T239 525Q262
525 287 520H456V505H376Q368 505 362 501T356 488Q385 465 399 433T413 363Q413 330 402 302T370 252T315 219T239 206Q174 206 130 234Q114 220 103 204T92 163Q92 136 110 123T158 109H312Q377 109 417 82T458 -11Q458 -42 446 -70T405 -119T334 -153T227 -166ZM151
92Q103 73 72 43T40 -33Q40 -58 48 -79T78 -117T136 -142T227 -151Q286 -151 326 -140T391 -109T427 -65T438 -11Q438 45 405 68T311 92H151ZM239 221Q278 221 307 232T355 262T383 307T393 363Q393 392 384 418T355 465T307 498T239 510Q200 510 171 498T123 466T95
419T85 363Q85 333 94 308T123 263T171 232T239 221ZM236 580Q191 580 162 605T123 669V681H145Q149 641 172 619T236 597Q276 597 299 619T327 681H349V669Q340 630 311 605T236 580Z" />
<glyph unicode="&#x120;" glyph-name="Gdotaccent" horiz-adv-x="682" d="M551 36Q546 36 532 30T493 17T433 3T353 -3Q281 -3 223 19T123 85T59 196T37 353Q37 443 63 509T133 618T235 682T358 703Q403 703 437 699T494 689T532 679T553 674Q559 674 562 678T567
700H582V521H567L559 635Q532 662 482 674T359 687Q296 687 241 667T146 606T82 502T59 354Q59 182 136 98T353 13Q433 13 483 31T565 74V289H449V303H664V289H622Q608 289 597 278T586 253V0H570Q568 23 563 29T551 36ZM347 815Q355 815 360 810T365 797Q365 789
360 784T347 779Q339 779 334 784T329 797Q329 805 334 810T347 815Z" />
<glyph unicode="&#x121;" glyph-name="gdotaccent" horiz-adv-x="472" d="M227 -166Q168 -166 128 -156T64 -128T30 -86T19 -33Q19 14 52 46T130 96Q104 101 89 117T73 163Q73 191 87 209T119 242Q92 263 79 294T65 363Q65 396 76 425T108 476T162 512T239 525Q262
525 287 520H456V505H376Q368 505 362 501T356 488Q385 465 399 433T413 363Q413 330 402 302T370 252T315 219T239 206Q174 206 130 234Q114 220 103 204T92 163Q92 136 110 123T158 109H312Q377 109 417 82T458 -11Q458 -42 446 -70T405 -119T334 -153T227 -166ZM151
92Q103 73 72 43T40 -33Q40 -58 48 -79T78 -117T136 -142T227 -151Q286 -151 326 -140T391 -109T427 -65T438 -11Q438 45 405 68T311 92H151ZM239 221Q278 221 307 232T355 262T383 307T393 363Q393 392 384 418T355 465T307 498T239 510Q200 510 171 498T123 466T95
419T85 363Q85 333 94 308T123 263T171 232T239 221ZM236 649Q244 649 249 644T254 631Q254 623 249 618T236 613Q228 613 223 618T218 631Q218 639 223 644T236 649Z" />
<glyph unicode="&#x122;" glyph-name="Gcommaaccent" horiz-adv-x="682" d="M312 -139Q326 -133 334 -123T342 -96Q342 -89 339 -85T331 -79Q321 -72 321 -60Q321 -52 326 -47T339 -41Q349 -41 356 -48T364 -75Q364 -110 348 -128T312 -153V-139ZM551 36Q546 36
532 30T493 17T433 3T353 -3Q281 -3 223 19T123 85T59 196T37 353Q37 443 63 509T133 618T235 682T358 703Q403 703 437 699T494 689T532 679T553 674Q559 674 562 678T567 700H582V521H567L559 635Q532 662 482 674T359 687Q296 687 241 667T146 606T82 502T59
354Q59 182 136 98T353 13Q433 13 483 31T565 74V289H449V303H664V289H622Q608 289 597 278T586 253V0H570Q568 23 563 29T551 36Z" />
<glyph unicode="&#x123;" glyph-name="gcommaaccent" horiz-adv-x="472" d="M257 705Q228 692 228 661Q228 654 231 651T239 645Q250 637 250 626Q250 618 245 613T232 606Q222 606 215 613T206 640Q206 675 221 693T257 719V705ZM227 -166Q168 -166 128 -156T64
-128T30 -86T19 -33Q19 14 52 46T130 96Q104 101 89 117T73 163Q73 191 87 209T119 242Q92 263 79 294T65 363Q65 396 76 425T108 476T162 512T239 525Q262 525 287 520H456V505H376Q368 505 362 501T356 488Q385 465 399 433T413 363Q413 330 402 302T370 252T315
219T239 206Q174 206 130 234Q114 220 103 204T92 163Q92 136 110 123T158 109H312Q377 109 417 82T458 -11Q458 -42 446 -70T405 -119T334 -153T227 -166ZM151 92Q103 73 72 43T40 -33Q40 -58 48 -79T78 -117T136 -142T227 -151Q286 -151 326 -140T391 -109T427
-65T438 -11Q438 45 405 68T311 92H151ZM239 221Q278 221 307 232T355 262T383 307T393 363Q393 392 384 418T355 465T307 498T239 510Q200 510 171 498T123 466T95 419T85 363Q85 333 94 308T123 263T171 232T239 221Z" />
<glyph unicode="&#x124;" glyph-name="Hcircumflex" horiz-adv-x="703" d="M247 754L337 866H367L455 754V744H442L351 849L260 744H247V754ZM18 14H68Q82 14 93 25T104 50V649Q104 662 93 673T68 685H18V700H238V685H125V370H578V685H465V700H685V685H635Q621
685 610 674T599 649V50Q599 37 610 26T635 14H685V0H465V14H578V355H125V14H238V0H18V14Z" />
<glyph unicode="&#x125;" glyph-name="hcircumflex" horiz-adv-x="581" d="M177 746L267 858H297L385 746V736H372L281 841L190 736H177V746ZM368 14H471V392Q471 428 462 451T437 486T400 504T355 509Q289 509 228 476T115 398V14H218V0H16V14H64Q76 14 85 23T95
45V654Q95 666 86 675T64 685H12V700H106Q115 700 115 689V414Q138 436 165 456T223 491T287 516T356 525Q383 525 407 520T450 499T480 459T491 395V45Q491 33 500 24T522 14H565V0H368V14Z" />
<glyph unicode="&#x126;" glyph-name="Hbar" horiz-adv-x="703" d="M18 520H104V649Q104 662 93 673T68 685H18V700H238V685H125V520H578V685H465V700H685V685H635Q621 685 610 674T599 649V520H685V506H599V50Q599 37 610 26T635 14H685V0H465V14H578V355H125V14H238V0H18V14H68Q82
14 93 25T104 50V506H18V520ZM578 370V506H125V370H578Z" />
<glyph unicode="&#x127;" glyph-name="hbar" horiz-adv-x="581" d="M12 614H95V654Q95 666 86 675T64 685H12V700H106Q115 700 115 689V614H274V600H115V414Q138 436 165 456T223 491T287 516T356 525Q383 525 407 520T450 499T480 459T491 395V45Q491 33 500
24T522 14H565V0H368V14H471V392Q471 428 462 451T437 486T400 504T355 509Q289 509 228 476T115 398V14H218V0H16V14H64Q76 14 85 23T95 45V600H12V614Z" />
<glyph unicode="&#x12a;" glyph-name="Imacron" horiz-adv-x="249" d="M18 14H78Q92 14 103 25T114 50V649Q114 662 103 673T78 685H18V700H231V685H171Q157 685 146 674T135 649V50Q135 37 146 26T171 14H231V0H18V14ZM15 794H235V779H15V794Z" />
<glyph unicode="&#x12b;" glyph-name="imacron" horiz-adv-x="221" d="M16 14H70Q82 14 91 23T101 45V474Q101 486 92 495T70 505H10V520H109Q116 520 118 517T121 501V45Q121 33 130 24T152 14H206V0H16V14ZM258 636H478V621H258V636Z" />
<glyph unicode="&#x12e;" glyph-name="Iogonek" horiz-adv-x="249" d="M18 14H78Q92 14 103 25T114 50V649Q114 662 103 673T78 685H18V700H231V685H171Q157 685 146 674T135 649V50Q135 37 146 26T171 14H231V0H178Q143 -24 126 -46T109 -98Q109 -149 169 -149Q181
-149 187 -147T201 -139H212V-158Q201 -161 192 -162T169 -164Q131 -164 110 -146T89 -98Q89 -66 109 -42T158 0H18V14Z" />
<glyph unicode="&#x12f;" glyph-name="iogonek" horiz-adv-x="221" d="M16 14H70Q82 14 91 23T101 45V474Q101 486 92 495T70 505H10V520H109Q116 520 118 517T121 501V45Q121 33 130 24T152 14H206V0H158Q123 -24 106 -46T89 -98Q89 -149 149 -149Q161 -149 167
-147T181 -139H192V-158Q181 -161 172 -162T149 -164Q111 -164 90 -146T69 -98Q69 -66 89 -42T138 0H16V14ZM106 649Q114 649 119 644T124 631Q124 623 119 618T106 613Q98 613 93 618T88 631Q88 639 93 644T106 649Z" />
<glyph unicode="&#x130;" glyph-name="Idotaccent" horiz-adv-x="249" d="M18 14H78Q92 14 103 25T114 50V649Q114 662 103 673T78 685H18V700H231V685H171Q157 685 146 674T135 649V50Q135 37 146 26T171 14H231V0H18V14ZM125 815Q133 815 138 810T143 797Q143
789 138 784T125 779Q117 779 112 784T107 797Q107 805 112 810T125 815Z" />
<glyph unicode="&#x131;" glyph-name="dotlessi" horiz-adv-x="221" d="M16 14H70Q82 14 91 23T101 45V474Q101 486 92 495T70 505H10V520H109Q116 520 118 517T121 501V45Q121 33 130 24T152 14H206V0H16V14Z" />
<glyph unicode="&#x134;" glyph-name="Jcircumflex" horiz-adv-x="417" d="M198 754L288 866H318L406 754V744H393L302 849L211 744H198V754ZM313 145Q313 72 273 34T144 -4Q97 -4 62 8T7 32V53H26Q38 38 67 25T144 12Q224 12 258 45T292 145V649Q292 662 281
673T256 685H201V700H399V685H349Q335 685 324 674T313 649V145Z" />
<glyph unicode="&#x135;" glyph-name="jcircumflex" horiz-adv-x="190" d="M248 588L338 700H368L456 588V578H443L352 683L261 578H248V588ZM101 474Q101 486 92 495T70 505H10V520H109Q116 520 118 517T121 501V-72Q121 -163 25 -163Q-1 -163 -18 -160T-50 -151V-131H-35Q-25
-138 -12 -143T25 -148Q66 -148 83 -129T101 -72V474Z" />
<glyph unicode="&#x136;" glyph-name="Kcommaaccent" horiz-adv-x="646" d="M310 -139Q324 -133 332 -123T340 -96Q340 -89 337 -85T329 -79Q319 -72 319 -60Q319 -52 324 -47T337 -41Q347 -41 354 -48T362 -75Q362 -110 346 -128T310 -153V-139ZM18 14H68Q82
14 93 25T104 50V649Q104 662 93 673T68 685H18V700H238V685H125V264L489 649Q502 663 498 674T477 685H434V700H613V685H574Q559 685 542 674T511 649L286 410L518 60Q532 40 552 27T591 14H628V0H526V14L272 395L125 239V14H238V0H18V14Z" />
<glyph unicode="&#x137;" glyph-name="kcommaaccent" horiz-adv-x="500" d="M248 -139Q262 -133 270 -123T278 -96Q278 -89 275 -85T267 -79Q257 -72 257 -60Q257 -52 262 -47T275 -41Q285 -41 292 -48T300 -75Q300 -110 284 -128T248 -153V-139ZM16 14H64Q76
14 85 23T95 45V654Q95 666 86 675T64 685H12V700H106Q115 700 115 689V201L370 475Q378 485 373 495T356 505H321V520H482V505H445Q435 505 420 496T395 477L234 305L411 52Q421 38 438 26T467 14H488V0H424L221 291L115 178V14H218V0H16V14Z" />
<glyph unicode="&#x139;" glyph-name="Lacute" horiz-adv-x="549" d="M203 866H224V851L131 744H114L203 866ZM18 14H68Q82 14 93 25T104 50V649Q104 662 93 673T68 685H18V700H243V685H125V15H503L510 177H525V0H18V14Z" />
<glyph unicode="&#x13a;" glyph-name="lacute" horiz-adv-x="222" d="M182 858H203V843L110 736H93L182 858ZM16 14H70Q82 14 91 23T101 45V654Q101 666 92 675T70 685H12V700H112Q121 700 121 689V45Q121 33 130 24T152 14H206V0H16V14Z" />
<glyph unicode="&#x13b;" glyph-name="Lcommaaccent" horiz-adv-x="549" d="M268 -139Q282 -133 290 -123T298 -96Q298 -89 295 -85T287 -79Q277 -72 277 -60Q277 -52 282 -47T295 -41Q305 -41 312 -48T320 -75Q320 -110 304 -128T268 -153V-139ZM18 14H68Q82
14 93 25T104 50V649Q104 662 93 673T68 685H18V700H243V685H125V15H503L510 177H525V0H18V14Z" />
<glyph unicode="&#x13c;" glyph-name="lcommaaccent" horiz-adv-x="222" d="M339 -139Q353 -133 361 -123T369 -96Q369 -89 366 -85T358 -79Q348 -72 348 -60Q348 -52 353 -47T366 -41Q376 -41 383 -48T391 -75Q391 -110 375 -128T339 -153V-139ZM16 14H70Q82
14 91 23T101 45V654Q101 666 92 675T70 685H12V700H112Q121 700 121 689V45Q121 33 130 24T152 14H206V0H16V14Z" />
<glyph unicode="&#x13d;" glyph-name="Lcaron" horiz-adv-x="549" d="M368 700H387V686L347 558H333L368 700ZM18 14H68Q82 14 93 25T104 50V649Q104 662 93 673T68 685H18V700H243V685H125V15H503L510 177H525V0H18V14Z" />
<glyph unicode="&#x13e;" glyph-name="lcaron" horiz-adv-x="222" d="M205 700H224V686L194 578H180L205 700ZM16 14H70Q82 14 91 23T101 45V654Q101 666 92 675T70 685H12V700H112Q121 700 121 689V45Q121 33 130 24T152 14H206V0H16V14Z" />
<glyph unicode="&#x141;" glyph-name="Lslash" horiz-adv-x="549" d="M11 257L104 299V649Q104 662 93 673T68 685H18V700H243V685H125V309L367 419V403L125 293V15H503L510 177H525V0H18V14H68Q82 14 93 25T104 50V283L11 241V257Z" />
<glyph unicode="&#x142;" glyph-name="lslash" horiz-adv-x="222" d="M13 344L101 410V654Q101 666 92 675T70 685H12V700H112Q121 700 121 689V425L215 496V477L121 406V45Q121 33 130 24T152 14H206V0H16V14H70Q82 14 91 23T101 45V391L13 325V344Z" />
<glyph unicode="&#x143;" glyph-name="Nacute" horiz-adv-x="699" d="M409 866H430V851L337 744H320L409 866ZM18 14H68Q82 14 93 25T104 50V649Q104 662 93 673T68 685H18V700H142L577 34H578V685H468V700H683V685H633Q619 685 608 674T597 649V0H577L129 685H123V14H236V0H18V14Z"
/>
<glyph unicode="&#x144;" glyph-name="nacute" horiz-adv-x="581" d="M360 700H381V685L288 578H271L360 700ZM16 14H64Q76 14 85 23T95 45V474Q95 486 86 495T64 505H10V520H103Q110 520 112 517T115 501V414Q138 436 165 456T223 491T287 516T356 525Q383 525
407 520T450 499T480 459T491 395V45Q491 33 500 24T522 14H565V0H368V14H471V392Q471 428 462 451T437 486T400 504T355 509Q289 509 228 476T115 398V14H218V0H16V14Z" />
<glyph unicode="&#x145;" glyph-name="Ncommaaccent" horiz-adv-x="699" d="M320 -139Q334 -133 342 -123T350 -96Q350 -89 347 -85T339 -79Q329 -72 329 -60Q329 -52 334 -47T347 -41Q357 -41 364 -48T372 -75Q372 -110 356 -128T320 -153V-139ZM18 14H68Q82
14 93 25T104 50V649Q104 662 93 673T68 685H18V700H142L577 34H578V685H468V700H683V685H633Q619 685 608 674T597 649V0H577L129 685H123V14H236V0H18V14Z" />
<glyph unicode="&#x146;" glyph-name="ncommaaccent" horiz-adv-x="581" d="M261 -139Q275 -133 283 -123T291 -96Q291 -89 288 -85T280 -79Q270 -72 270 -60Q270 -52 275 -47T288 -41Q298 -41 305 -48T313 -75Q313 -110 297 -128T261 -153V-139ZM16 14H64Q76
14 85 23T95 45V474Q95 486 86 495T64 505H10V520H103Q110 520 112 517T115 501V414Q138 436 165 456T223 491T287 516T356 525Q383 525 407 520T450 499T480 459T491 395V45Q491 33 500 24T522 14H565V0H368V14H471V392Q471 428 462 451T437 486T400 504T355 509Q289
509 228 476T115 398V14H218V0H16V14Z" />
<glyph unicode="&#x147;" glyph-name="Ncaron" horiz-adv-x="699" d="M443 856L353 744H323L235 856V866H248L339 761L430 866H443V856ZM18 14H68Q82 14 93 25T104 50V649Q104 662 93 673T68 685H18V700H142L577 34H578V685H468V700H683V685H633Q619 685 608 674T597
649V0H577L129 685H123V14H236V0H18V14Z" />
<glyph unicode="&#x148;" glyph-name="ncaron" horiz-adv-x="581" d="M389 690L299 578H269L181 690V700H194L285 595L376 700H389V690ZM16 14H64Q76 14 85 23T95 45V474Q95 486 86 495T64 505H10V520H103Q110 520 112 517T115 501V414Q138 436 165 456T223 491T287
516T356 525Q383 525 407 520T450 499T480 459T491 395V45Q491 33 500 24T522 14H565V0H368V14H471V392Q471 428 462 451T437 486T400 504T355 509Q289 509 228 476T115 398V14H218V0H16V14Z" />
<glyph unicode="&#x14c;" glyph-name="Omacron" horiz-adv-x="711" d="M245 794H465V779H245V794ZM356 -3Q291 -3 233 20T132 87T63 198T37 350Q37 436 62 502T131 612T233 680T356 703Q421 703 478 680T579 613T648 502T674 350Q674 264 649 198T580 88T479 20T356
-3ZM356 13Q418 13 472 35T566 99T629 205T652 350Q652 432 629 494T566 600T472 665T356 687Q294 687 240 665T145 600T82 495T59 350Q59 268 82 205T145 100T239 35T356 13Z" />
<glyph unicode="&#x14d;" glyph-name="omacron" horiz-adv-x="552" d="M166 636H386V621H166V636ZM276 -3Q222 -3 177 15T100 67T49 150T30 261Q30 322 48 371T99 454T177 506T276 525Q330 525 375 507T453 454T504 371T522 261Q522 199 504 151T453 68T375 15T276
-3ZM276 11Q327 11 368 28T439 78T485 156T501 261Q501 319 485 365T440 443T369 492T276 510Q226 510 185 493T114 443T68 365T51 261Q51 203 67 157T113 78T184 29T276 11Z" />
<glyph unicode="&#x150;" glyph-name="Ohungarumlaut" horiz-adv-x="711" d="M354 866H374V851L315 744H298L354 866ZM457 866H477V851L418 744H401L457 866ZM356 -3Q291 -3 233 20T132 87T63 198T37 350Q37 436 62 502T131 612T233 680T356 703Q421 703 478 680T579
613T648 502T674 350Q674 264 649 198T580 88T479 20T356 -3ZM356 13Q418 13 472 35T566 99T629 205T652 350Q652 432 629 494T566 600T472 665T356 687Q294 687 240 665T145 600T82 495T59 350Q59 268 82 205T145 100T239 35T356 13Z" />
<glyph unicode="&#x151;" glyph-name="ohungarumlaut" horiz-adv-x="552" d="M275 700H295V685L236 578H219L275 700ZM378 700H398V685L339 578H322L378 700ZM276 -3Q222 -3 177 15T100 67T49 150T30 261Q30 322 48 371T99 454T177 506T276 525Q330 525 375 507T453
454T504 371T522 261Q522 199 504 151T453 68T375 15T276 -3ZM276 11Q327 11 368 28T439 78T485 156T501 261Q501 319 485 365T440 443T369 492T276 510Q226 510 185 493T114 443T68 365T51 261Q51 203 67 157T113 78T184 29T276 11Z" />
<glyph unicode="&#x152;" glyph-name="OE" horiz-adv-x="948" d="M402 684Q315 684 251 666T144 607T80 504T58 350Q58 260 79 197T143 93T250 35T402 16H510V684H402ZM749 466H763V261H749Q747 287 745 308L741 356H531V15H896L903 167H918V0H402Q312 0 244 19T130
80T61 188T37 350Q37 444 60 510T129 619T243 680T402 700H904V546H889L882 685H531V371H742L749 466Z" />
<glyph unicode="&#x153;" glyph-name="oe" horiz-adv-x="972" d="M276 -3Q222 -3 177 15T100 67T49 150T30 261Q30 322 48 371T99 454T177 506T276 525Q367 525 428 475T507 334Q526 423 584 474T729 525Q775 525 815 512T884 469T929 395T946 286Q946 283 946
281T945 277V274H518V259Q518 144 573 78T743 11Q812 11 857 31T922 74H936V58Q910 35 862 16T743 -3Q642 -3 583 46T507 183Q487 95 427 46T276 -3ZM276 11Q327 11 367 28T437 78T481 156T497 261Q497 319 482 365T437 443T368 492T276 510Q226 510 185 493T114
443T68 365T51 261Q51 203 67 157T113 78T184 29T276 11ZM729 510Q638 510 583 451T519 289H926Q925 348 911 390T870 458T808 497T729 510Z" />
<glyph unicode="&#x154;" glyph-name="Racute" horiz-adv-x="613" d="M343 866H364V851L271 744H254L343 866ZM125 335V14H219V0H18V14H68Q82 14 93 25T104 50V649Q104 662 93 673T68 685H18V700H267Q314 700 356 692T431 663T482 607T501 516Q501 474 489 443T454
391T402 358T335 342V341Q360 337 383 328T425 303T461 260T488 193L529 46Q533 33 544 24T566 14H601V0H518L469 187Q458 230 440 258T396 304T338 328T268 335H125ZM125 351H268Q315 351 354 358T421 384T464 435T480 516Q480 568 463 600T416 651T348 677T267
684H125V351Z" />
<glyph unicode="&#x155;" glyph-name="racute" horiz-adv-x="344" d="M505 700H526V685L433 578H416L505 700ZM16 14H64Q76 14 85 23T95 45V474Q95 486 86 495T64 505H10V520H103Q110 520 112 517T115 501V406Q131 428 150 449T192 486T242 513T300 523Q305 523
309 523T316 522Q320 521 322 521V504H316Q313 504 309 504T300 505Q271 505 245 495T196 469T153 431T115 385V14H221V0H16V14Z" />
<glyph unicode="&#x156;" glyph-name="Rcommaaccent" horiz-adv-x="613" d="M301 -139Q315 -133 323 -123T331 -96Q331 -89 328 -85T320 -79Q310 -72 310 -60Q310 -52 315 -47T328 -41Q338 -41 345 -48T353 -75Q353 -110 337 -128T301 -153V-139ZM125 335V14H219V0H18V14H68Q82
14 93 25T104 50V649Q104 662 93 673T68 685H18V700H267Q314 700 356 692T431 663T482 607T501 516Q501 474 489 443T454 391T402 358T335 342V341Q360 337 383 328T425 303T461 260T488 193L529 46Q533 33 544 24T566 14H601V0H518L469 187Q458 230 440 258T396
304T338 328T268 335H125ZM125 351H268Q315 351 354 358T421 384T464 435T480 516Q480 568 463 600T416 651T348 677T267 684H125V351Z" />
<glyph unicode="&#x157;" glyph-name="rcommaaccent" horiz-adv-x="344" d="M332 116Q346 122 354 132T362 159Q362 166 359 170T351 176Q341 183 341 195Q341 203 346 208T359 214Q369 214 376 207T384 180Q384 145 368 127T332 102V116ZM16 14H64Q76 14 85 23T95
45V474Q95 486 86 495T64 505H10V520H103Q110 520 112 517T115 501V406Q131 428 150 449T192 486T242 513T300 523Q305 523 309 523T316 522Q320 521 322 521V504H316Q313 504 309 504T300 505Q271 505 245 495T196 469T153 431T115 385V14H221V0H16V14Z" />
<glyph unicode="&#x158;" glyph-name="Rcaron" horiz-adv-x="613" d="M377 856L287 744H257L169 856V866H182L273 761L364 866H377V856ZM125 335V14H219V0H18V14H68Q82 14 93 25T104 50V649Q104 662 93 673T68 685H18V700H267Q314 700 356 692T431 663T482 607T501
516Q501 474 489 443T454 391T402 358T335 342V341Q360 337 383 328T425 303T461 260T488 193L529 46Q533 33 544 24T566 14H601V0H518L469 187Q458 230 440 258T396 304T338 328T268 335H125ZM125 351H268Q315 351 354 358T421 384T464 435T480 516Q480 568 463
600T416 651T348 677T267 684H125V351Z" />
<glyph unicode="&#x159;" glyph-name="rcaron" horiz-adv-x="344" d="M539 690L449 578H419L331 690V700H344L435 595L526 700H539V690ZM16 14H64Q76 14 85 23T95 45V474Q95 486 86 495T64 505H10V520H103Q110 520 112 517T115 501V406Q131 428 150 449T192 486T242
513T300 523Q305 523 309 523T316 522Q320 521 322 521V504H316Q313 504 309 504T300 505Q271 505 245 495T196 469T153 431T115 385V14H221V0H16V14Z" />
<glyph unicode="&#x15a;" glyph-name="Sacute" horiz-adv-x="496" d="M318 866H339V851L246 744H229L318 866ZM247 -3Q203 -3 170 2T113 15T75 27T55 33Q50 33 48 26T43 0H28V190H43L50 72Q77 47 121 30T246 13Q289 13 325 23T388 54T430 108T445 190Q445 235
427 262T380 308T314 337T236 359Q200 369 166 381T105 413T62 462T46 538Q46 572 57 602T92 654T153 690T241 703Q280 703 308 698T355 688T386 677T404 672Q409 672 411 678T416 700H431V530H416L409 631Q383 657 343 672T241 687Q194 687 161 676T106 644T75
596T65 539Q65 497 79 470T118 426T174 397T243 376Q285 364 325 352T396 319T446 269T465 190Q465 139 448 102T402 42T333 8T247 -3Z" />
<glyph unicode="&#x15b;" glyph-name="sacute" horiz-adv-x="410" d="M279 700H300V685L207 578H190L279 700ZM194 -3Q129 -3 87 5T28 22V115H44Q46 69 52 51T67 29Q92 19 119 15T194 11Q358 11 358 147Q358 175 348 194T318 226T269 247T202 263Q166 269 137
277T86 299T54 336T42 393Q42 456 85 490T209 525Q272 525 308 518T362 503V418H346Q344 457 339 472T319 495Q301 503 277 506T209 510Q134 510 98 479T62 393Q62 364 71 345T99 314T145 294T209 280Q248 273 279 264T332 240T366 203T378 148Q378 -3 194 -3Z"
/>
<glyph unicode="&#x15c;" glyph-name="Scircumflex" horiz-adv-x="496" d="M149 754L239 866H269L357 754V744H344L253 849L162 744H149V754ZM247 -3Q203 -3 170 2T113 15T75 27T55 33Q50 33 48 26T43 0H28V190H43L50 72Q77 47 121 30T246 13Q289 13 325 23T388
54T430 108T445 190Q445 235 427 262T380 308T314 337T236 359Q200 369 166 381T105 413T62 462T46 538Q46 572 57 602T92 654T153 690T241 703Q280 703 308 698T355 688T386 677T404 672Q409 672 411 678T416 700H431V530H416L409 631Q383 657 343 672T241 687Q194
687 161 676T106 644T75 596T65 539Q65 497 79 470T118 426T174 397T243 376Q285 364 325 352T396 319T446 269T465 190Q465 139 448 102T402 42T333 8T247 -3Z" />
<glyph unicode="&#x15d;" glyph-name="scircumflex" horiz-adv-x="410" d="M105 588L195 700H225L313 588V578H300L209 683L118 578H105V588ZM194 -3Q129 -3 87 5T28 22V115H44Q46 69 52 51T67 29Q92 19 119 15T194 11Q358 11 358 147Q358 175 348 194T318 226T269
247T202 263Q166 269 137 277T86 299T54 336T42 393Q42 456 85 490T209 525Q272 525 308 518T362 503V418H346Q344 457 339 472T319 495Q301 503 277 506T209 510Q134 510 98 479T62 393Q62 364 71 345T99 314T145 294T209 280Q248 273 279 264T332 240T366 203T378
148Q378 -3 194 -3Z" />
<glyph unicode="&#x15e;" glyph-name="Scedilla" horiz-adv-x="496" d="M243 -173Q217 -173 201 -169T169 -157V-137H183Q190 -147 206 -152T243 -158Q300 -158 300 -112Q300 -85 283 -75T221 -65H214V-2Q178 0 151 6T104 18T72 28T55 33Q50 33 48 26T43 0H28V190H43L50
72Q77 47 121 30T246 13Q289 13 325 23T388 54T430 108T445 190Q445 235 427 262T380 308T314 337T236 359Q200 369 166 381T105 413T62 462T46 538Q46 572 57 602T92 654T153 690T241 703Q280 703 308 698T355 688T386 677T404 672Q409 672 411 678T416 700H431V530H416L409
631Q383 657 343 672T241 687Q194 687 161 676T106 644T75 596T65 539Q65 497 79 470T118 426T174 397T243 376Q285 364 325 352T396 319T446 269T465 190Q465 139 448 102T402 42T333 8T247 -3H232V-50Q321 -50 321 -112Q321 -142 299 -157T243 -173Z" />
<glyph unicode="&#x15f;" glyph-name="scedilla" horiz-adv-x="410" d="M199 -173Q173 -173 157 -169T125 -157V-137H139Q146 -147 162 -152T199 -158Q256 -158 256 -112Q256 -85 239 -75T177 -65H170V-3Q115 -1 80 7T28 22V115H44Q46 69 52 51T67 29Q92 19 119
15T194 11Q358 11 358 147Q358 175 348 194T318 226T269 247T202 263Q166 269 137 277T86 299T54 336T42 393Q42 456 85 490T209 525Q272 525 308 518T362 503V418H346Q344 457 339 472T319 495Q301 503 277 506T209 510Q134 510 98 479T62 393Q62 364 71 345T99
314T145 294T209 280Q248 273 279 264T332 240T366 203T378 148Q378 -3 194 -3H188V-50Q277 -50 277 -112Q277 -142 255 -157T199 -173Z" />
<glyph unicode="&#x160;" glyph-name="Scaron" horiz-adv-x="496" d="M247 -3Q203 -3 170 2T113 15T75 27T55 33Q50 33 48 26T43 0H28V190H43L50 72Q77 47 121 30T246 13Q289 13 325 23T388 54T430 108T445 190Q445 235 427 262T380 308T314 337T236 359Q200 369
166 381T105 413T62 462T46 538Q46 572 57 602T92 654T153 690T241 703Q280 703 308 698T355 688T386 677T404 672Q409 672 411 678T416 700H431V530H416L409 631Q383 657 343 672T241 687Q194 687 161 676T106 644T75 596T65 539Q65 497 79 470T118 426T174 397T243
376Q285 364 325 352T396 319T446 269T465 190Q465 139 448 102T402 42T333 8T247 -3ZM357 856L267 744H237L149 856V866H162L253 761L344 866H357V856Z" />
<glyph unicode="&#x161;" glyph-name="scaron" horiz-adv-x="410" d="M194 -3Q129 -3 87 5T28 22V115H44Q46 69 52 51T67 29Q92 19 119 15T194 11Q358 11 358 147Q358 175 348 194T318 226T269 247T202 263Q166 269 137 277T86 299T54 336T42 393Q42 456 85 490T209
525Q272 525 308 518T362 503V418H346Q344 457 339 472T319 495Q301 503 277 506T209 510Q134 510 98 479T62 393Q62 364 71 345T99 314T145 294T209 280Q248 273 279 264T332 240T366 203T378 148Q378 -3 194 -3ZM313 690L223 578H193L105 690V700H118L209 595L300
700H313V690Z" />
<glyph unicode="&#x162;" glyph-name="Tcommaaccent" horiz-adv-x="617" d="M279 -139Q293 -133 301 -123T309 -96Q309 -89 306 -85T298 -79Q288 -72 288 -60Q288 -52 293 -47T306 -41Q316 -41 323 -48T331 -75Q331 -110 315 -128T279 -153V-139ZM205 14H262Q276
14 287 25T298 50V685H51L44 528H29V700H588V528H573L566 685H319V50Q319 37 330 26T355 14H412V0H205V14Z" />
<glyph unicode="&#x163;" glyph-name="tcommaaccent" horiz-adv-x="291" d="M399 -139Q413 -133 421 -123T429 -96Q429 -89 426 -85T418 -79Q408 -72 408 -60Q408 -52 413 -47T426 -41Q436 -41 443 -48T451 -75Q451 -110 435 -128T399 -153V-139ZM10 520H91V666H111V520H261V505H111V105Q111
56 132 34T203 12Q220 12 236 16T261 26H275V8Q264 3 243 0T203 -3Q146 -3 119 22T91 104V505H10V520Z" />
<glyph unicode="&#x164;" glyph-name="Tcaron" horiz-adv-x="617" d="M412 856L322 744H292L204 856V866H217L308 761L399 866H412V856ZM205 14H262Q276 14 287 25T298 50V685H51L44 528H29V700H588V528H573L566 685H319V50Q319 37 330 26T355 14H412V0H205V14Z" />
<glyph unicode="&#x165;" glyph-name="tcaron" horiz-adv-x="291" d="M204 700H223V686L193 578H179L204 700ZM10 520H91V666H111V520H261V505H111V105Q111 56 132 34T203 12Q220 12 236 16T261 26H275V8Q264 3 243 0T203 -3Q146 -3 119 22T91 104V505H10V520Z" />
<glyph unicode="&#x16a;" glyph-name="Umacron" horiz-adv-x="694" d="M350 -4Q300 -4 255 7T174 44T119 113T98 222V649Q98 662 87 673T62 685H18V700H228V685H119V221Q119 161 137 121T187 57T261 23T351 13Q397 13 438 22T510 55T559 119T577 221V685H468V700H676V685H632Q618
685 607 674T596 649V222Q596 157 577 114T523 44T445 7T350 -4ZM237 794H457V779H237V794Z" />
<glyph unicode="&#x16b;" glyph-name="umacron" horiz-adv-x="585" d="M482 45Q482 33 491 24T513 14H569V0H474Q467 0 465 3T462 19V98Q415 56 355 26T227 -5Q200 -5 176 0T133 20T105 59T94 123V474Q94 486 85 495T63 505H10V520H114V126Q114 90 123 68T147
33T183 16T228 11Q291 11 351 41T462 115V505H373V520H482V45ZM156 636H376V621H156V636Z" />
<glyph unicode="&#x16c;" glyph-name="Ubreve" horiz-adv-x="694" d="M350 -4Q300 -4 255 7T174 44T119 113T98 222V649Q98 662 87 673T62 685H18V700H228V685H119V221Q119 161 137 121T187 57T261 23T351 13Q397 13 438 22T510 55T559 119T577 221V685H468V700H676V685H632Q618
685 607 674T596 649V222Q596 157 577 114T523 44T445 7T350 -4ZM347 746Q302 746 273 771T234 835V847H256Q260 807 283 785T347 763Q387 763 410 785T438 847H460V835Q451 796 422 771T347 746Z" />
<glyph unicode="&#x16d;" glyph-name="ubreve" horiz-adv-x="585" d="M482 45Q482 33 491 24T513 14H569V0H474Q467 0 465 3T462 19V98Q415 56 355 26T227 -5Q200 -5 176 0T133 20T105 59T94 123V474Q94 486 85 495T63 505H10V520H114V126Q114 90 123 68T147 33T183
16T228 11Q291 11 351 41T462 115V505H373V520H482V45ZM266 580Q221 580 192 605T153 669V681H175Q179 641 202 619T266 597Q306 597 329 619T357 681H379V669Q370 630 341 605T266 580Z" />
<glyph unicode="&#x16e;" glyph-name="Uring" horiz-adv-x="694" d="M347 715Q315 715 291 736T266 794Q266 812 272 826T290 851T316 867T347 873Q362 873 376 868T402 852T420 827T427 794Q427 757 403 736T347 715ZM285 794Q285 765 303 748T347 730Q373 730
390 747T408 794Q408 823 391 840T347 858Q321 858 303 841T285 794ZM350 -4Q300 -4 255 7T174 44T119 113T98 222V649Q98 662 87 673T62 685H18V700H228V685H119V221Q119 161 137 121T187 57T261 23T351 13Q397 13 438 22T510 55T559 119T577 221V685H468V700H676V685H632Q618
685 607 674T596 649V222Q596 157 577 114T523 44T445 7T350 -4Z" />
<glyph unicode="&#x16f;" glyph-name="uring" horiz-adv-x="585" d="M266 578Q234 578 210 599T185 657Q185 675 191 689T209 714T235 730T266 736Q281 736 295 731T321 715T339 690T346 657Q346 620 322 599T266 578ZM204 657Q204 628 222 611T266 593Q292 593
309 610T327 657Q327 686 310 703T266 721Q240 721 222 704T204 657ZM482 45Q482 33 491 24T513 14H569V0H474Q467 0 465 3T462 19V98Q415 56 355 26T227 -5Q200 -5 176 0T133 20T105 59T94 123V474Q94 486 85 495T63 505H10V520H114V126Q114 90 123 68T147 33T183
16T228 11Q291 11 351 41T462 115V505H373V520H482V45Z" />
<glyph unicode="&#x170;" glyph-name="Uhungarumlaut" horiz-adv-x="694" d="M350 -4Q300 -4 255 7T174 44T119 113T98 222V649Q98 662 87 673T62 685H18V700H228V685H119V221Q119 161 137 121T187 57T261 23T351 13Q397 13 438 22T510 55T559 119T577 221V685H468V700H676V685H632Q618
685 607 674T596 649V222Q596 157 577 114T523 44T445 7T350 -4ZM346 866H366V851L307 744H290L346 866ZM449 866H469V851L410 744H393L449 866Z" />
<glyph unicode="&#x171;" glyph-name="uhungarumlaut" horiz-adv-x="585" d="M482 45Q482 33 491 24T513 14H569V0H474Q467 0 465 3T462 19V98Q415 56 355 26T227 -5Q200 -5 176 0T133 20T105 59T94 123V474Q94 486 85 495T63 505H10V520H114V126Q114 90 123 68T147
33T183 16T228 11Q291 11 351 41T462 115V505H373V520H482V45ZM265 700H285V685L226 578H209L265 700ZM368 700H388V685L329 578H312L368 700Z" />
<glyph unicode="&#x172;" glyph-name="Uogonek" horiz-adv-x="694" d="M392 -164Q354 -164 333 -146T312 -98Q312 -68 330 -44T380 -2Q376 -3 371 -3Q366 -4 361 -4T350 -4Q300 -4 255 7T174 44T119 113T98 222V649Q98 662 87 673T62 685H18V700H228V685H119V221Q119
161 137 121T187 57T261 23T351 13Q397 13 438 22T510 55T559 119T577 221V685H468V700H676V685H632Q618 685 607 674T596 649V222Q596 174 586 138T556 77T510 35T452 9Q422 1 405 -5T371 -25Q332 -57 332 -98Q332 -149 392 -149Q404 -149 410 -147T424 -139H435V-158Q424
-161 415 -162T392 -164Z" />
<glyph unicode="&#x173;" glyph-name="uogonek" horiz-adv-x="585" d="M520 -164Q482 -164 461 -146T440 -98Q440 -66 460 -42T509 0H474Q467 0 465 3T462 19V98Q415 56 355 26T227 -5Q200 -5 176 0T133 20T105 59T94 123V474Q94 486 85 495T63 505H10V520H114V126Q114
90 123 68T147 33T183 16T228 11Q291 11 351 41T462 115V505H373V520H482V45Q482 33 491 24T513 14H569V0H529Q494 -24 477 -46T460 -98Q460 -149 520 -149Q532 -149 538 -147T552 -139H563V-158Q552 -161 543 -162T520 -164Z" />
<glyph unicode="&#x178;" glyph-name="Ydieresis" horiz-adv-x="617" d="M205 14H262Q276 14 287 25T298 50V299L96 638Q85 657 67 671T27 685H15V700H195V685H90L309 317H310L499 628Q517 657 508 671T472 685H422V700H602V685H582Q564 685 551 673T527 643L319
299V50Q319 37 330 26T355 14H412V0H205V14ZM245 815Q253 815 258 810T263 797Q263 789 258 784T245 779Q237 779 232 784T227 797Q227 805 232 810T245 815ZM371 815Q379 815 384 810T389 797Q389 789 384 784T371 779Q363 779 358 784T353 797Q353 805 358 810T371
815Z" />
<glyph unicode="&#x179;" glyph-name="Zacute" horiz-adv-x="536" d="M341 866H362V851L269 744H252L341 866ZM18 16L496 685H67L60 549H45V700H518V683L40 15H481L488 155H503V0H18V16Z" />
<glyph unicode="&#x17a;" glyph-name="zacute" horiz-adv-x="460" d="M305 700H326V685L233 578H216L305 700ZM18 14L415 506H65L60 390H45V520H438V505L41 14H403L408 134H423V0H18V14Z" />
<glyph unicode="&#x17b;" glyph-name="Zdotaccent" horiz-adv-x="536" d="M18 16L496 685H67L60 549H45V700H518V683L40 15H481L488 155H503V0H18V16ZM271 807Q279 807 284 802T289 789Q289 781 284 776T271 771Q263 771 258 776T253 789Q253 797 258 802T271 807Z" />
<glyph unicode="&#x17c;" glyph-name="zdotaccent" horiz-adv-x="460" d="M18 14L415 506H65L60 390H45V520H438V505L41 14H403L408 134H423V0H18V14ZM235 649Q243 649 248 644T253 631Q253 623 248 618T235 613Q227 613 222 618T217 631Q217 639 222 644T235 649Z" />
<glyph unicode="&#x17d;" glyph-name="Zcaron" horiz-adv-x="536" d="M18 16L496 685H67L60 549H45V700H518V683L40 15H481L488 155H503V0H18V16ZM375 856L285 744H255L167 856V866H180L271 761L362 866H375V856Z" />
<glyph unicode="&#x17e;" glyph-name="zcaron" horiz-adv-x="460" d="M18 14L415 506H65L60 390H45V520H438V505L41 14H403L408 134H423V0H18V14ZM339 690L249 578H219L131 690V700H144L235 595L326 700H339V690Z" />
<glyph unicode="&#x192;" glyph-name="florin" horiz-adv-x="333" d="M119 405H46V420H121L141 580Q149 647 181 675T259 703Q288 703 305 699T331 690V670H316Q311 676 298 682T259 688Q219 688 194 664T161 580L141 420H263V405H139L96 50Q89 -7 66 -37T9 -84H0V-70Q26
-57 48 -31T76 50L119 405Z" />
<glyph unicode="&#x218;" glyph-name="Scommaaccent" horiz-adv-x="496" d="M218 -139Q232 -133 240 -123T248 -96Q248 -89 245 -85T237 -79Q227 -72 227 -60Q227 -52 232 -47T245 -41Q255 -41 262 -48T270 -75Q270 -110 254 -128T218 -153V-139ZM247 -3Q203 -3
170 2T113 15T75 27T55 33Q50 33 48 26T43 0H28V190H43L50 72Q77 47 121 30T246 13Q289 13 325 23T388 54T430 108T445 190Q445 235 427 262T380 308T314 337T236 359Q200 369 166 381T105 413T62 462T46 538Q46 572 57 602T92 654T153 690T241 703Q280 703 308
698T355 688T386 677T404 672Q409 672 411 678T416 700H431V530H416L409 631Q383 657 343 672T241 687Q194 687 161 676T106 644T75 596T65 539Q65 497 79 470T118 426T174 397T243 376Q285 364 325 352T396 319T446 269T465 190Q465 139 448 102T402 42T333 8T247
-3Z" />
<glyph unicode="&#x219;" glyph-name="scommaaccent" horiz-adv-x="410" d="M176 -139Q190 -133 198 -123T206 -96Q206 -89 203 -85T195 -79Q185 -72 185 -60Q185 -52 190 -47T203 -41Q213 -41 220 -48T228 -75Q228 -110 212 -128T176 -153V-139ZM194 -3Q129 -3
87 5T28 22V115H44Q46 69 52 51T67 29Q92 19 119 15T194 11Q358 11 358 147Q358 175 348 194T318 226T269 247T202 263Q166 269 137 277T86 299T54 336T42 393Q42 456 85 490T209 525Q272 525 308 518T362 503V418H346Q344 457 339 472T319 495Q301 503 277 506T209
510Q134 510 98 479T62 393Q62 364 71 345T99 314T145 294T209 280Q248 273 279 264T332 240T366 203T378 148Q378 -3 194 -3Z" />
<glyph unicode="&#x21a;" glyph-name="uni021A" horiz-adv-x="617" d="M279 -139Q293 -133 301 -123T309 -96Q309 -89 306 -85T298 -79Q288 -72 288 -60Q288 -52 293 -47T306 -41Q316 -41 323 -48T331 -75Q331 -110 315 -128T279 -153V-139ZM205 14H262Q276 14
287 25T298 50V685H51L44 528H29V700H588V528H573L566 685H319V50Q319 37 330 26T355 14H412V0H205V14Z" />
<glyph unicode="&#x21b;" glyph-name="uni021B" horiz-adv-x="291" d="M399 -139Q413 -133 421 -123T429 -96Q429 -89 426 -85T418 -79Q408 -72 408 -60Q408 -52 413 -47T426 -41Q436 -41 443 -48T451 -75Q451 -110 435 -128T399 -153V-139ZM10 520H91V666H111V520H261V505H111V105Q111
56 132 34T203 12Q220 12 236 16T261 26H275V8Q264 3 243 0T203 -3Q146 -3 119 22T91 104V505H10V520Z" />
<glyph unicode="&#x237;" glyph-name="uni0237" horiz-adv-x="190" d="M101 474Q101 486 92 495T70 505H10V520H109Q116 520 118 517T121 501V-72Q121 -163 25 -163Q-1 -163 -18 -160T-50 -151V-131H-35Q-25 -138 -12 -143T25 -148Q66 -148 83 -129T101 -72V474Z" />
<glyph unicode="&#x2c6;" glyph-name="circumflex" horiz-adv-x="400" d="M96 588L186 700H216L304 588V578H291L200 683L109 578H96V588Z" />
<glyph unicode="&#x2c7;" glyph-name="caron" horiz-adv-x="400" d="M304 690L214 578H184L96 690V700H109L200 595L291 700H304V690Z" />
<glyph unicode="&#x2d8;" glyph-name="breve" horiz-adv-x="400" d="M200 580Q155 580 126 605T87 669V681H109Q113 641 136 619T200 597Q240 597 263 619T291 681H313V669Q304 630 275 605T200 580Z" />
<glyph unicode="&#x2d9;" glyph-name="dotaccent" horiz-adv-x="400" d="M200 649Q208 649 213 644T218 631Q218 623 213 618T200 613Q192 613 187 618T182 631Q182 639 187 644T200 649Z" />
<glyph unicode="&#x2da;" glyph-name="ring" horiz-adv-x="400" d="M200 578Q168 578 144 599T119 657Q119 675 125 689T143 714T169 730T200 736Q215 736 229 731T255 715T273 690T280 657Q280 620 256 599T200 578ZM138 657Q138 628 156 611T200 593Q226 593
243 610T261 657Q261 686 244 703T200 721Q174 721 156 704T138 657Z" />
<glyph unicode="&#x2db;" glyph-name="ogonek" horiz-adv-x="400" d="M235 -164Q197 -164 176 -146T155 -98Q155 -66 175 -42T224 0H244Q209 -24 192 -46T175 -98Q175 -149 235 -149Q247 -149 253 -147T267 -139H278V-158Q267 -161 258 -162T235 -164Z" />
<glyph unicode="&#x2dc;" glyph-name="tilde" horiz-adv-x="400" d="M138 641Q119 641 107 629T91 596H71V607Q77 625 93 642T139 659Q156 659 172 653T203 638T232 624T262 617Q281 617 293 629T309 662H329V651Q322 631 306 616T261 600Q244 600 228 606T197
620T168 634T138 641Z" />
<glyph unicode="&#x2dd;" glyph-name="hungarumlaut" horiz-adv-x="400" d="M199 700H219V685L160 578H143L199 700ZM302 700H322V685L263 578H246L302 700Z" />
</font>
</defs>
</svg>
