<?xml version="1.0" standalone="no"?> <!DOCTYPE svg PUBLIC "-//W3C//DTD SVG 1.0//EN" "http://www.w3.org/TR/2001/REC-SVG-20010904/DTD/svg10.dtd" > <svg xmlns="http://www.w3.org/2000/svg" width="100%" height="100%">
<defs >
<font horiz-adv-x="557" ><font-face
    font-family=""
    units-per-em="1000"
    panose-1="2 11 8 3 4 0 0 2 0 4"
    ascent="838"
    descent="-162"
    alphabetic="0" />
<missing-glyph horiz-adv-x="242" />
<glyph unicode=" " glyph-name="space" horiz-adv-x="136" />
<glyph unicode="!" glyph-name="exclam" horiz-adv-x="326" d="M159 233Q129 233 107 250T80 305Q70 378 62 440Q59 467 56 493T50 544T47 586T45 615Q45 700 125 700H201Q281 700 281 615Q281 605 280 587T276 544T270 494T263 440Q255 378 246 305Q241 267 219
250T167 233H159ZM272 96Q272 75 264 56T240 23T205 1T163 -7Q140 -7 120 1T86 23T63 56T54 96Q54 118 62 137T85 170T120 193T163 201Q185 201 205 193T240 171T263 137T272 96Z" />
<glyph unicode="&quot;" glyph-name="quotedbl" horiz-adv-x="455" d="M116 428Q88 428 67 444T41 497Q37 521 33 546Q30 567 28 592T25 639Q25 700 84 700H150Q210 700 210 639Q210 617 208 592T202 546Q198 521 194 497Q188 461 167 445T118 428H116ZM337 428Q309
428 288 444T262 497Q258 521 254 546Q251 567 249 592T246 639Q246 700 305 700H372Q431 700 431 639Q431 617 429 592T423 546Q419 521 415 497Q409 461 389 445T339 428H337Z" />
<glyph unicode="#" glyph-name="numbersign" horiz-adv-x="563" d="M253 401L242 323H310L321 401H253ZM407 56Q402 26 385 11T339 -5H337Q305 -5 287 12T273 67L289 180H221L203 56Q198 26 181 11T134 -5H133Q101 -5 83 12T69 67L85 180H76Q42 180 29 198T16
242V254Q16 283 30 303T87 323H106L117 401H108Q74 401 61 419T48 464V476Q48 505 62 524T119 544H137L152 644Q163 705 221 705H222Q254 705 273 688T287 633L273 544H342L357 644Q366 705 425 705H427Q459 705 477 688T491 633L478 544H487Q521 544 533 526T546
482V470Q546 441 532 421T476 401H457L446 323H455Q489 323 501 305T514 260V249Q514 220 500 200T444 180H425L407 56Z" />
<glyph unicode="$" glyph-name="dollar" horiz-adv-x="577" d="M360 702Q411 698 455 682Q492 668 506 649T520 594V578Q520 546 505 531T464 515Q447 515 433 521T402 534T363 548T308 554Q266 554 245 542T224 506Q224 481 247 471T314 448Q383 430 429 411T503
367T543 307T555 223Q555 135 504 79T352 4V-52Q352 -80 337 -95T293 -111H265Q235 -111 221 -96T206 -52V-2Q140 1 92 21Q54 36 40 56T25 112V130Q25 159 40 177T84 195Q101 195 115 188T146 172T187 156T249 148Q337 148 337 197Q337 212 331 221T311 236T277
248T227 261Q181 273 143 289T77 329T34 391T18 483Q18 575 71 627T214 697V721Q214 749 228 764T273 780H301Q330 780 345 765T360 721V702Z" />
<glyph unicode="%" glyph-name="percent" horiz-adv-x="916" d="M297 0Q272 -39 242 -39H240Q222 -39 210 -32T191 -11T186 18T199 51L615 695Q641 734 671 734H672Q690 734 703 727T722 706T726 677T714 644L297 0ZM417 517Q417 467 400 431T356 370T292 334T217
322Q179 322 143 334T79 370T35 430T18 517Q18 566 34 602T79 662T143 697T217 709Q256 709 292 698T355 662T400 602T417 517ZM173 515Q173 467 184 448T217 429Q240 429 251 448T262 515Q262 563 251 582T217 602Q196 602 185 583T173 515ZM898 185Q898 135 881
99T837 38T773 3T699 -9Q660 -9 624 2T561 38T516 98T499 185Q499 234 516 270T560 331T624 366T699 378Q737 378 773 367T836 331T881 271T898 185ZM654 183Q654 135 665 116T699 97Q721 97 732 116T743 183Q743 231 732 250T699 270Q677 270 666 251T654 183Z"
/>
<glyph unicode="&amp;" glyph-name="ampersand" horiz-adv-x="756" d="M566 0Q539 0 525 6T489 32L484 37Q445 15 400 4T297 -8Q227 -8 175 7T89 50T37 117T20 204Q20 241 31 271T62 326T108 368T164 400Q150 425 143 451T136 509Q136 554 152 591T201 654T283
696T397 711Q466 711 515 695Q551 683 564 663T578 607V587Q578 559 563 544T523 528Q508 528 496 532T472 541T447 550T417 554Q393 554 380 541T366 508Q366 487 378 470T414 426L519 307L537 354Q553 397 574 412T637 428H649Q747 428 707 316Q694 281 675 242T635
171L694 103Q709 86 711 68T707 34T685 10T651 0H566ZM231 232Q231 190 256 165T330 140Q358 140 381 154L255 294Q244 283 238 268T231 232Z" />
<glyph unicode="&apos;" glyph-name="quotesingle" horiz-adv-x="234" d="M116 428Q88 428 67 444T41 497Q37 521 33 546Q30 567 28 592T25 639Q25 700 84 700H150Q210 700 210 639Q210 617 208 592T202 546Q198 521 194 497Q188 461 167 445T118 428H116Z" />
<glyph unicode="(" glyph-name="parenleft" horiz-adv-x="374" d="M364 16Q364 -14 347 -32T294 -50Q261 -50 220 -28Q181 -8 146 24T85 102T42 209T26 350Q26 426 42 486T84 591T146 668T220 720Q259 742 294 742Q329 742 346 724T364 676Q364 659 358 645T343
617Q329 598 311 578T275 529T246 456T234 350Q234 284 246 240T275 166T310 115T343 75Q352 62 358 48T364 16Z" />
<glyph unicode=")" glyph-name="parenright" horiz-adv-x="374" d="M349 350Q349 271 333 210T290 102T228 24T154 -28Q115 -50 80 -50Q45 -50 28 -32T10 16Q10 33 16 47T32 75Q46 94 64 114T100 165T128 240T140 350Q140 413 129 456T100 528T65 578T32 617Q22
630 16 644T10 676Q10 706 28 724T81 742Q115 742 154 720Q193 700 228 668T290 591T333 486T349 350Z" />
<glyph unicode="*" glyph-name="asterisk" horiz-adv-x="431" d="M158 492Q129 485 102 484T62 488Q36 496 28 517T29 566L32 574Q43 602 64 614T110 618Q123 614 141 598T180 559Q166 585 156 609T145 647Q145 673 162 689T211 705H220Q252 705 269 689T286 647Q286
634 276 610T251 559Q272 584 289 599T321 619Q345 627 366 616T399 575L402 567Q413 538 403 517T368 487Q355 482 329 483T273 491Q302 480 323 469T354 444Q369 424 366 401T336 358L328 352Q303 333 280 336T240 361Q232 372 226 396T216 449Q212 420 206 395T191
359Q175 338 152 335T104 351L95 358Q70 378 66 401T78 444Q88 458 108 469T158 492Z" />
<glyph unicode="+" glyph-name="plus" horiz-adv-x="545" d="M526 333Q526 303 509 282T454 261H365V160Q365 122 344 105T292 88H254Q224 88 203 105T182 160V261H92Q54 261 37 282T20 333V359Q20 388 37 409T92 430H182V531Q182 569 203 586T254 603H292Q322
603 343 586T365 531V430H454Q492 430 509 409T526 359V333Z" />
<glyph unicode="," glyph-name="comma" horiz-adv-x="253" d="M13 -71Q13 -54 22 -45T54 -27Q76 -19 82 -12T89 4Q89 16 77 22T51 41Q37 51 27 67T17 110Q17 149 46 175T123 201Q146 201 167 193T203 170T228 130T237 75Q237 -3 195 -52T68 -112Q42 -115 28 -105T13
-74V-71Z" />
<glyph unicode="-" glyph-name="hyphen" horiz-adv-x="314" d="M94 206Q58 206 40 227T21 279V294Q21 324 39 345T94 366H220Q256 366 274 345T292 294V279Q292 248 274 227T220 206H94Z" />
<glyph unicode="." glyph-name="period" horiz-adv-x="253" d="M235 96Q235 75 227 56T203 23T168 1T126 -7Q103 -7 83 1T49 23T26 56T17 96Q17 118 25 137T48 170T83 193T126 201Q148 201 168 193T203 171T226 137T235 96Z" />
<glyph unicode="/" glyph-name="slash" horiz-adv-x="392" d="M213 677Q223 709 243 726T295 743H315Q353 743 368 718T373 654L177 15Q167 -17 147 -34T94 -51H74Q36 -51 21 -26T17 38L213 677Z" />
<glyph unicode="0" glyph-name="zero" horiz-adv-x="703" d="M352 -11Q282 -11 222 12T118 81T49 194T24 350Q24 438 50 505T120 619T224 688T352 711Q419 711 479 688T583 619T654 506T680 350Q680 261 655 194T586 81T482 12T352 -11ZM352 147Q398 147 420 192T443
346Q443 453 421 497T352 542Q305 542 283 498T260 346Q260 238 282 193T352 147Z" />
<glyph unicode="1" glyph-name="one" horiz-adv-x="426" d="M368 79Q368 38 345 19T289 0H208Q176 0 153 19T130 79V474L121 467Q101 451 88 446T62 441Q42 441 31 454T19 494V550Q19 588 36 610T95 651Q149 676 196 689T281 702H295Q328 702 348 685T368 629V79Z" />
<glyph unicode="2" glyph-name="two" horiz-adv-x="570" d="M469 172Q507 172 524 151T542 99V73Q542 42 525 21T469 0H95Q57 0 40 21T22 75V101Q22 122 25 139T35 171T54 200T83 230L213 347Q262 392 284 422T307 481Q307 506 290 520T237 535Q212 535 194 529T160
515T129 501T96 495Q70 495 53 512T36 560V587Q36 621 50 643T106 682Q144 697 188 704T277 711Q406 711 476 660T547 495Q547 458 536 427T505 367T456 310T389 252L291 172H469Z" />
<glyph unicode="3" glyph-name="three" horiz-adv-x="565" d="M213 149Q253 149 279 165T306 214Q306 243 288 258T221 279L212 280Q148 287 148 343V356Q148 412 210 421L217 422Q260 428 281 441T303 483Q303 511 284 526T228 542Q203 542 185 537T151 527T121
516T91 511Q64 511 48 527T32 572V597Q32 633 47 653T103 687Q178 711 266 711Q324 711 372 700T456 666T511 608T531 524Q531 453 496 415T394 360V356Q544 335 544 196Q544 97 463 43T237 -11Q190 -11 150 -6T78 10Q46 21 29 39T12 93V121Q12 149 28 166T74 184Q91
184 104 179T133 167T167 155T213 149Z" />
<glyph unicode="4" glyph-name="four" horiz-adv-x="631" d="M546 78Q546 38 524 19T468 0H390Q357 0 335 19T312 78V143H92Q58 143 38 162T17 217V242Q17 260 19 275T28 305T45 337T73 377L272 634Q300 671 327 686T399 702H468Q500 702 523 683T546 625V290H566Q596
290 608 274T621 235V197Q621 174 609 159T566 143H546V78ZM183 290H320V471H316L183 294V290Z" />
<glyph unicode="5" glyph-name="five" horiz-adv-x="574" d="M240 -11Q200 -11 161 -6T93 7Q52 19 34 42T16 101V121Q16 152 32 170T79 188Q95 188 109 183T138 170T173 158T218 152Q268 152 292 172T317 231Q317 266 297 283T240 301Q219 301 203 297T172 286T141
276T104 271Q72 271 55 288T37 337V620Q37 661 60 680T118 700H441Q479 700 496 679T514 627V602Q514 571 497 550T441 529H203V411H206Q224 427 254 437T335 448Q381 448 421 436T490 396T536 328T553 230Q553 174 532 129T471 53T372 6T240 -11Z" />
<glyph unicode="6" glyph-name="six" horiz-adv-x="651" d="M420 447Q466 447 505 434T572 395T615 330T631 238Q631 181 612 135T555 56T465 7T343 -11Q271 -11 212 8T112 70T47 177T24 335Q24 515 121 613T403 711Q442 711 473 707T528 695Q557 686 574 666T592
607V580Q592 545 576 528T531 511Q516 511 504 515T478 524T447 534T404 538Q343 538 309 507T263 404Q295 427 336 437T420 447ZM329 306Q309 306 291 302T258 291Q260 244 265 214T280 167T302 142T332 135Q370 135 385 158T401 225Q401 269 384 287T329 306Z"
/>
<glyph unicode="7" glyph-name="seven" horiz-adv-x="551" d="M156 0Q136 0 121 7T98 29T91 62T105 105L330 516V520H91Q53 520 36 541T18 592V627Q18 658 35 679T91 700H450Q486 700 506 679T527 625V585Q527 545 519 509T498 439L354 80Q322 0 249 0H156Z" />
<glyph unicode="8" glyph-name="eight" horiz-adv-x="641" d="M320 -11Q173 -11 96 45T18 199Q18 266 48 308T148 371V375Q93 393 68 429T43 522Q43 566 64 601T121 660T209 698T320 711Q380 711 431 698T519 661T576 601T597 522Q597 465 574 429T495 375V371Q562
350 592 308T623 199Q623 102 546 46T320 -11ZM320 135Q361 135 379 159T397 220Q397 256 379 280T320 304Q279 304 261 280T243 220Q243 184 261 160T320 135ZM320 431Q351 431 367 448T383 497Q383 527 367 545T320 564Q289 564 273 546T257 497Q257 466 273
449T320 431Z" />
<glyph unicode="9" glyph-name="nine" horiz-adv-x="651" d="M237 250Q189 250 149 263T81 303T36 370T20 463Q20 520 39 566T96 644T187 694T309 711Q381 711 439 691T540 629T605 521T628 362Q628 274 606 205T537 88T419 15T250 -11Q215 -11 183 -8T125 3Q51
22 51 88V120Q51 150 68 168T116 186Q129 186 142 182T170 173T203 163T245 159Q282 159 307 166T349 190T375 232T388 294Q356 271 317 261T237 250ZM321 390Q341 390 359 394T391 405Q389 453 384 483T370 531T347 554T317 561Q279 561 264 538T249 472Q249 427
266 409T321 390Z" />
<glyph unicode=":" glyph-name="colon" horiz-adv-x="255" d="M237 96Q237 75 229 56T205 23T170 1T128 -7Q105 -7 85 1T50 23T27 56T18 96Q18 118 26 137T50 170T85 193T128 201Q150 201 170 193T205 171T228 137T237 96ZM237 371Q237 350 229 331T205 298T170
276T128 268Q105 268 85 276T50 298T27 331T18 371Q18 393 26 412T50 445T85 468T128 476Q150 476 170 468T205 446T228 412T237 371Z" />
<glyph unicode=";" glyph-name="semicolon" horiz-adv-x="256" d="M237 371Q237 350 229 331T205 298T170 276T128 268Q105 268 85 276T50 298T27 331T18 371Q18 393 26 412T50 445T85 468T128 476Q150 476 170 468T205 446T228 412T237 371ZM14 -71Q14 -54 23
-45T54 -27Q77 -19 83 -12T90 4Q90 16 78 22T52 41Q38 51 28 67T18 110Q18 149 47 175T123 201Q147 201 167 193T204 170T229 130T238 75Q238 -3 196 -52T69 -112Q43 -115 29 -105T14 -74V-71Z" />
<glyph unicode="&lt;" glyph-name="less" horiz-adv-x="470" d="M88 224Q50 241 35 264T20 322V337Q20 370 35 393T89 435L344 554Q366 564 385 564T417 557T439 534T447 499V479Q447 444 431 423T374 383L254 330V327L374 275Q415 258 431 236T447 179V158Q447
118 418 101T344 103L88 224Z" />
<glyph unicode="=" glyph-name="equal" horiz-adv-x="504" d="M483 407Q483 377 467 356T412 335H93Q55 335 38 356T21 407V420Q21 449 38 470T93 491H412Q450 491 466 470T483 420V407ZM483 197Q483 167 467 146T412 125H93Q55 125 38 146T21 197V210Q21 239
38 260T93 281H412Q450 281 466 260T483 210V197Z" />
<glyph unicode="&gt;" glyph-name="greater" horiz-adv-x="470" d="M126 102Q81 82 52 99T23 157V177Q23 212 39 233T96 273L216 326V329L96 382Q55 400 39 421T23 478V498Q23 538 52 555T126 553L381 433Q419 415 434 392T450 335V321Q450 287 435 264T382 222L126 102Z" />
<glyph unicode="?" glyph-name="question" horiz-adv-x="488" d="M181 231Q147 231 126 245T105 296Q105 327 122 356T167 412Q196 439 218 458T241 503Q241 524 226 535T184 546Q165 546 151 541T125 530T99 518T69 513Q43 513 29 529T14 574V594Q14 628 28 650T81
688Q110 699 144 705T223 711Q344 711 406 662T468 526Q468 473 449 440T403 382Q377 357 348 334T296 277Q282 254 262 243T207 231H181ZM304 96Q304 75 295 56T271 23T236 1T194 -7Q171 -7 151 1T117 23T94 56T85 96Q85 118 93 137T116 170T151 193T194 201Q216
201 236 193T271 171T295 137T304 96Z" />
<glyph unicode="@" glyph-name="at" horiz-adv-x="888" d="M689 -82Q641 -106 576 -120T439 -134Q355 -134 279 -113T145 -46T53 71T18 240Q18 309 37 367T88 473T165 557T259 617T362 654T468 667Q553 667 626 645T754 581T840 478T871 337Q871 267 848 216T787
131T698 81T592 65Q534 65 503 82T459 128Q437 105 406 87T328 69Q274 69 242 104T209 212Q209 258 224 301T268 379T336 433T424 454Q459 454 482 442T523 410Q537 430 552 439T593 449H635Q663 449 673 434T678 395L637 216Q632 193 636 180T657 167Q675 167
694 177T728 208T753 261T763 337Q763 450 686 512T468 575Q405 575 345 555T238 492T161 387T132 240Q132 166 155 113T220 25T317 -26T439 -42Q502 -42 542 -32T610 -10T654 13T689 23Q710 23 721 12T733 -19V-22Q733 -59 689 -82ZM460 338Q443 338 429 329T405
303T390 267T384 226Q384 185 417 185Q438 185 454 199L485 334Q480 336 475 337T460 338Z" />
<glyph unicode="A" glyph-name="A" horiz-adv-x="730" d="M83 0Q47 0 32 25T30 95L206 623Q219 663 246 681T310 700H419Q455 700 481 682T522 623L698 100Q713 55 695 28T642 0H553Q518 0 497 17T465 74L448 134H239L222 73Q202 0 139 0H83ZM283 291H404L345
501H342L283 291Z" />
<glyph unicode="B" glyph-name="B" horiz-adv-x="661" d="M284 141H329Q408 141 408 217Q408 256 388 274T329 292H284V141ZM284 424H326Q397 424 397 490Q397 555 327 555H284V424ZM131 0Q96 0 73 20T50 80V620Q50 660 73 680T131 700H340Q480 700 549 656T618
517Q618 452 584 419T489 369V365Q561 353 602 314T643 201Q643 101 564 51T343 0H131Z" />
<glyph unicode="C" glyph-name="C" horiz-adv-x="654" d="M560 24Q526 8 481 -1T382 -11Q299 -11 233 12T121 80T50 191T25 343Q25 431 51 500T127 615T246 686T403 711Q450 711 487 705T557 686Q588 674 605 653T622 594V567Q622 538 606 520T561 502Q543 502
528 508T495 523T458 537T408 544Q344 544 306 500T268 353Q268 297 276 259T302 197T343 163T400 152Q431 152 454 160T495 177T529 194T563 202Q591 202 608 186T626 140V121Q626 84 609 61T560 24Z" />
<glyph unicode="D" glyph-name="D" horiz-adv-x="731" d="M131 0Q96 0 73 20T50 80V620Q50 660 73 680T131 700H332Q523 700 615 613T707 355Q707 179 614 90T325 0H131ZM288 154H318Q355 154 383 163T430 195T458 255T467 346Q467 454 431 497T318 541H288V154Z" />
<glyph unicode="E" glyph-name="E" horiz-adv-x="604" d="M131 0Q96 0 73 20T50 80V620Q50 660 73 680T131 700H491Q523 700 542 682T562 629V612Q562 576 543 558T491 540H287V428H413Q444 428 464 411T484 358V348Q484 312 464 295T413 277H287V156H500Q532
156 551 138T571 85V71Q571 35 552 18T500 0H131Z" />
<glyph unicode="F" glyph-name="F" horiz-adv-x="595" d="M288 79Q288 40 266 20T210 0H129Q95 0 73 20T50 79V620Q50 660 73 680T131 700H491Q522 700 542 682T562 629V612Q562 576 542 558T491 540H288V407H427Q459 407 478 389T498 336V323Q498 287 479 270T427
252H288V79Z" />
<glyph unicode="G" glyph-name="G" horiz-adv-x="706" d="M584 17Q542 3 491 -4T385 -11Q290 -11 222 13T110 82T45 193T24 343Q24 432 50 501T127 616T249 687T412 711Q459 711 497 706T566 690Q599 679 616 658T633 601V570Q633 538 616 522T571 506Q554 506
540 512T509 524T470 537T413 543Q377 543 350 533T304 499T276 437T266 344Q266 287 273 249T294 187T331 153T384 143Q404 143 418 145T442 150V240H421Q393 240 378 254T363 303V320Q363 353 380 368T430 383H583Q618 383 639 363T661 302V115Q661 73 642 52T584
17Z" />
<glyph unicode="H" glyph-name="H" horiz-adv-x="737" d="M288 79Q288 39 266 20T210 0H129Q95 0 73 19T50 79V621Q50 660 72 680T129 700H210Q244 700 266 680T288 621V439H449V621Q449 660 471 680T528 700H608Q643 700 665 680T687 621V79Q687 39 665 20T608
0H528Q493 0 471 19T449 79V270H288V79Z" />
<glyph unicode="I" glyph-name="I" horiz-adv-x="345" d="M291 79Q291 38 269 19T213 0H132Q99 0 76 19T53 79V621Q53 659 75 679T132 700H213Q248 700 269 680T291 621V79Z" />
<glyph unicode="J" glyph-name="J" horiz-adv-x="526" d="M480 223Q480 106 414 49T203 -9Q135 -9 86 6Q48 19 31 39T14 103V124Q14 155 29 173T75 192Q90 192 101 187T123 177T147 166T179 161Q211 161 227 176T243 218V621Q243 659 264 679T321 700H402Q437
700 458 680T480 621V223Z" />
<glyph unicode="K" glyph-name="K" horiz-adv-x="734" d="M288 441L443 637Q458 656 470 668T495 688T522 697T555 700H612Q633 700 647 691T667 666T670 634T654 600L507 427L685 107Q696 87 697 68T691 34T668 10T632 0H551Q514 0 491 15T445 69L334 266L288
217V79Q288 38 265 19T210 0H129Q96 0 73 19T50 79V621Q50 659 72 679T129 700H210Q245 700 266 680T288 621V441Z" />
<glyph unicode="L" glyph-name="L" horiz-adv-x="576" d="M131 0Q96 0 73 20T50 80V621Q50 659 72 679T129 700H210Q245 700 266 680T288 621V159H476Q513 159 531 139T549 88V71Q549 41 531 21T476 0H131Z" />
<glyph unicode="M" glyph-name="M" horiz-adv-x="918" d="M124 0Q92 0 71 18T50 74V620Q50 659 73 679T131 700H282Q317 700 340 682T376 623L458 348H461L544 623Q556 664 579 682T637 700H787Q822 700 844 680T867 620V78Q867 39 845 20T789 0H715Q681 0 659
19T637 78V434H634L522 67Q511 27 491 11T439 -5H435Q403 -5 383 11T351 67L241 434H238V74Q238 36 217 18T164 0H124Z" />
<glyph unicode="N" glyph-name="N" horiz-adv-x="730" d="M125 0Q93 0 72 18T50 75V620Q50 659 73 679T131 700H226Q263 700 286 684T330 630L484 350H487V625Q487 664 508 682T562 700H605Q637 700 658 682T679 625V76Q679 38 657 19T602 0H526Q491 0 469 15T426
67L245 393H242V75Q242 37 221 19T168 0H125Z" />
<glyph unicode="O" glyph-name="O" horiz-adv-x="763" d="M739 348Q739 261 712 194T636 82T523 13T381 -11Q304 -11 239 12T126 81T51 194T24 348Q24 435 52 502T128 616T242 687T381 711Q456 711 521 687T634 617T711 503T739 348ZM264 347Q264 242 296 196T381
150Q433 150 465 196T498 347Q498 452 466 498T381 544Q328 544 296 498T264 347Z" />
<glyph unicode="P" glyph-name="P" horiz-adv-x="653" d="M129 0Q96 0 73 19T50 79V620Q50 660 73 680T131 700H340Q495 700 565 643T635 467Q635 349 560 293T329 237H288V79Q288 38 265 19T210 0H129ZM285 549V376H325Q370 376 387 400T404 466Q404 508 387
528T325 549H285Z" />
<glyph unicode="Q" glyph-name="Q" horiz-adv-x="763" d="M700 -117Q689 -117 677 -115T644 -108L362 -36Q279 -16 216 15T111 93T46 204T24 353Q24 438 52 504T128 617T242 687T381 711Q456 711 521 687T634 617T711 503T739 349Q739 296 726 254T691 181T637
127T571 89V85L684 72Q722 67 739 50T757 -5V-60Q757 -87 742 -102T700 -117ZM264 347Q264 291 272 253T296 190T333 156T381 145Q407 145 428 155T465 190T489 252T498 347Q498 452 466 498T381 544Q328 544 296 498T264 347Z" />
<glyph unicode="R" glyph-name="R" horiz-adv-x="695" d="M521 0Q488 0 466 16T423 71L339 235H288V79Q288 38 265 19T210 0H129Q96 0 73 19T50 79V620Q50 660 73 680T131 700H348Q502 700 572 643T643 475Q643 413 618 368T550 293L650 106Q661 84 661 65T654
32T632 9T599 0H521ZM283 546V383H326Q371 383 390 403T410 464Q410 506 391 526T326 546H283Z" />
<glyph unicode="S" glyph-name="S" horiz-adv-x="584" d="M562 221Q562 112 486 51T259 -11Q208 -11 164 -4T88 16Q53 30 38 51T22 103V128Q22 160 39 178T86 196Q104 196 118 189T149 174T190 158T250 151Q292 151 315 162T338 198Q338 213 331 222T310 237T274
249T225 260Q177 270 139 286T75 327T34 391T20 485Q20 542 41 584T99 655T189 697T304 711Q352 711 392 706T464 689Q496 678 513 659T531 604V578Q531 548 515 532T472 515Q456 515 441 520T407 532T365 544T309 550Q230 550 230 506Q230 481 254 471T329 450Q396
436 441 418T513 372T551 308T562 221Z" />
<glyph unicode="T" glyph-name="T" horiz-adv-x="623" d="M430 538V79Q430 38 407 19T352 0H271Q238 0 216 19T193 79V538H93Q61 538 41 555T21 609V629Q21 665 41 682T93 700H530Q561 700 581 683T601 629V609Q601 573 581 556T530 538H430Z" />
<glyph unicode="U" glyph-name="U" horiz-adv-x="715" d="M286 263Q286 209 308 185T379 161Q427 161 448 185T470 263V625Q470 663 491 681T544 700H593Q625 700 646 682T667 625V256Q667 125 590 59T364 -8Q206 -8 127 59T48 256V621Q48 659 69 679T126 700H207Q242
700 264 680T286 621V263Z" />
<glyph unicode="V" glyph-name="V" horiz-adv-x="715" d="M480 629Q501 700 563 700H628Q671 700 686 673T686 599L517 89Q500 38 475 19T412 0H303Q265 0 240 19T198 89L30 595Q15 642 31 671T89 700H181Q245 700 266 626L371 266H374L480 629Z" />
<glyph unicode="W" glyph-name="W" horiz-adv-x="980" d="M751 623Q759 665 780 682T840 700H897Q935 700 950 676T955 610L828 83Q817 39 792 20T729 0H649Q612 0 587 18T551 81L487 351H484L420 81Q410 38 385 19T322 0H250Q214 0 189 18T152 81L26 605Q15 650
31 675T86 700H171Q248 700 263 620L325 298H327L400 623Q417 700 491 700H523Q561 700 582 681T613 622L688 298H690L751 623Z" />
<glyph unicode="X" glyph-name="X" horiz-adv-x="714" d="M519 367L668 110Q679 91 680 72T675 36T651 10T610 0H530Q497 0 473 15T429 65L333 232L242 66Q222 30 200 15T141 0H95Q73 0 58 9T36 33T29 66T42 104L194 358L54 590Q42 609 41 628T47 664T71 690T112
700H192Q224 700 248 685T293 635L380 491L458 634Q478 671 500 685T558 700H605Q626 700 641 691T664 667T671 634T658 596L519 367Z" />
<glyph unicode="Y" glyph-name="Y" horiz-adv-x="670" d="M587 700Q609 700 623 692T645 669T652 638T642 603L457 253V79Q457 38 434 19T379 0H298Q265 0 242 19T219 79V247L31 599Q21 617 21 635T29 667T53 691T91 700H158Q196 700 218 683T259 630L350 454H352L443
634Q460 668 482 684T541 700H587Z" />
<glyph unicode="Z" glyph-name="Z" horiz-adv-x="601" d="M312 535V539H117Q81 539 64 559T46 611V629Q46 659 63 679T117 700H496Q533 700 551 680T570 627V601Q570 580 568 564T561 532T546 502T522 467L288 164V160H501Q537 160 554 140T572 89V71Q572 41 555
21T501 0H104Q74 0 52 18T30 73V93Q30 114 32 130T39 162T55 193T80 229L312 535Z" />
<glyph unicode="[" glyph-name="bracketleft" horiz-adv-x="354" d="M133 -49Q100 -49 77 -30T53 31V661Q53 702 76 721T133 741H267Q303 741 319 721T336 672V665Q336 639 321 620T272 601H250V91H272Q306 91 321 72T336 27V20Q336 -9 320 -29T267 -49H133Z" />
<glyph unicode="\" glyph-name="backslash" horiz-adv-x="392" d="M375 38Q386 0 371 -25T318 -51H298Q265 -51 246 -34T216 15L19 654Q7 692 23 717T77 743H97Q129 743 149 726T179 677L375 38Z" />
<glyph unicode="]" glyph-name="bracketright" horiz-adv-x="354" d="M87 -49Q51 -49 35 -29T19 20V27Q19 53 33 72T82 91H105V601H82Q48 601 34 620T19 665V672Q19 701 35 721T87 741H221Q255 741 278 722T301 661V31Q301 -10 278 -29T221 -49H87Z" />
<glyph unicode="^" glyph-name="asciicircum" horiz-adv-x="461" d="M229 535L206 503Q182 470 161 456T116 441H112Q90 441 73 452T47 482T43 528T67 586Q67 586 71 593T82 609T93 624T98 632Q125 673 156 690T227 708H234Q273 708 304 691T363 632Q363 632 368
625T379 609T389 594T394 586Q414 555 418 529T414 483T389 452T349 441H345Q321 441 300 455T255 503L232 535H229Z" />
<glyph unicode="_" glyph-name="underscore" horiz-adv-x="393" d="M400 -98Q400 -124 385 -143T336 -162H58Q24 -162 9 -143T-6 -98V-96Q-6 -70 9 -51T58 -32H336Q370 -32 385 -51T400 -96V-98Z" />
<glyph unicode="`" glyph-name="grave" horiz-adv-x="400" d="M269 623Q277 591 260 571T209 551H202Q174 551 150 561T99 596L72 621Q56 636 52 652T52 681T71 703T105 712H182Q214 712 235 697T263 650L269 623Z" />
<glyph unicode="a" glyph-name="a" horiz-adv-x="576" d="M397 0Q370 0 354 13T329 49Q301 20 264 7T179 -7Q146 -7 117 2T65 31T29 80T15 149Q15 233 71 272T220 311Q248 311 271 310T316 304V323Q316 355 298 368T235 382Q212 382 195 378T163 368T135 359T109
354Q85 354 69 369T52 413V432Q52 467 68 486T120 517Q153 528 195 533T285 538Q415 538 476 492T538 339V78Q538 38 518 19T463 0H397ZM270 114Q282 114 294 118T316 130V213Q306 215 295 216T275 217Q249 217 236 205T222 163Q222 136 236 125T270 114Z" />
<glyph unicode="b" glyph-name="b" horiz-adv-x="631" d="M175 700Q200 700 217 695T244 677T259 641T264 583V471Q292 501 330 519T419 538Q456 538 491 526T553 484T596 404T613 279Q613 205 597 151T551 61T481 8T392 -10Q339 -10 302 6T239 56Q225 30 207
15T167 0H115Q83 0 62 18T41 77V622Q41 661 62 680T117 700H175ZM264 142Q274 136 284 133T310 130Q326 130 340 135T365 155T382 194T388 260Q388 296 382 319T366 355T342 372T311 377Q300 377 288 375T264 368V142Z" />
<glyph unicode="c" glyph-name="c" horiz-adv-x="523" d="M438 10Q412 1 379 -4T308 -9Q171 -9 94 58T16 262Q16 328 37 379T98 465T194 519T322 538Q351 538 381 534T436 522Q466 512 483 494T500 440V416Q500 387 486 373T448 358Q435 358 424 362T400 371T374
381T340 385Q295 385 269 356T242 260Q242 197 266 167T337 137Q358 137 373 142T400 153T424 164T447 169Q476 169 488 153T500 112V92Q500 59 484 40T438 10Z" />
<glyph unicode="d" glyph-name="d" horiz-adv-x="631" d="M590 78Q590 38 570 19T514 0H446Q423 0 407 11T380 51Q357 26 322 8T229 -10Q183 -10 145 5T78 53T34 137T18 260Q18 338 37 391T88 476T157 522T231 536Q282 536 313 522T368 481V622Q368 661 388 680T443
700H505Q529 700 545 695T571 677T585 641T590 583V78ZM322 377Q306 377 292 372T267 355T250 320T243 261Q243 187 262 159T316 130Q332 130 344 134T368 146V367Q348 377 322 377Z" />
<glyph unicode="e" glyph-name="e" horiz-adv-x="580" d="M239 216Q246 166 271 149T343 132Q375 132 396 137T433 148T461 159T489 164Q513 164 527 150T542 109V94Q542 41 488 19Q456 5 412 -2T308 -9Q160 -9 88 63T16 261Q16 324 36 375T93 463T182 518T301
538Q435 538 499 470T564 285Q564 251 545 234T492 216H239ZM302 404Q290 404 280 401T262 388T247 362T238 318H361Q359 368 345 386T302 404Z" />
<glyph unicode="f" glyph-name="f" horiz-adv-x="390" d="M292 77Q292 38 270 19T216 0H147Q114 0 92 19T70 77V392H62Q38 392 24 406T10 453V467Q10 500 24 514T62 528H70V551Q70 640 121 676T264 713Q299 713 328 707Q352 702 365 689T378 649V633Q378 590 330
580Q308 575 300 566T292 544V530H316Q342 529 358 515T374 467V453Q374 420 358 406T316 392H292V77Z" />
<glyph unicode="g" glyph-name="g" horiz-adv-x="631" d="M368 75Q345 55 310 45T231 35Q187 35 149 46T81 86T35 161T18 279Q18 354 37 404T88 483T159 525T238 538Q287 538 321 520T384 468Q395 494 415 511T467 528H517Q549 528 569 510T590 453V55Q590 -2
568 -44T504 -114T404 -156T272 -170Q222 -170 182 -166T111 -153Q79 -144 62 -124T45 -75V-50Q45 -23 61 -7T103 9Q118 9 130 5T157 -5T192 -14T243 -19Q308 -19 338 -1T368 55V75ZM318 164Q345 164 368 177V367Q347 377 321 377Q305 377 291 374T267 360T250
329T243 274Q243 237 248 216T263 183T286 168T318 164Z" />
<glyph unicode="h" glyph-name="h" horiz-adv-x="631" d="M311 372Q298 372 286 370T264 366V77Q264 38 242 19T187 0H118Q85 0 63 19T41 77V622Q41 661 62 680T117 700H175Q199 700 216 695T243 677T259 641T264 583V459Q297 491 341 514T447 538Q478 538 504
531T550 506T581 459T592 385V77Q592 38 570 19T515 0H447Q414 0 392 19T370 77V326Q370 355 356 363T311 372Z" />
<glyph unicode="i" glyph-name="i" horiz-adv-x="306" d="M263 643Q263 600 233 575T153 550Q104 550 74 575T43 643Q43 686 73 711T153 737Q202 737 232 712T263 643ZM264 77Q264 38 242 19T187 0H118Q86 0 64 19T42 77V451Q42 490 62 509T118 528H176Q224 528
244 504T264 420V77Z" />
<glyph unicode="j" glyph-name="j" horiz-adv-x="306" d="M263 643Q263 600 233 575T153 550Q104 550 74 575T43 643Q43 686 73 711T153 737Q202 737 232 712T263 643ZM264 -3Q264 -95 215 -132T70 -170Q56 -170 39 -169T11 -165Q-17 -159 -30 -145T-43 -104V-98Q-43
-73 -33 -59T2 -39Q26 -34 34 -24T42 12V451Q42 490 62 509T118 528H176Q224 528 244 504T264 420V-3Z" />
<glyph unicode="k" glyph-name="k" horiz-adv-x="612" d="M296 183L264 145V77Q264 38 242 19T187 0H118Q85 0 63 19T41 77V622Q41 661 62 680T117 700H175Q199 700 216 695T243 677T259 641T264 583V348L362 473Q384 502 407 515T465 528H506Q526 528 540 519T561
495T565 462T546 425L456 319L577 102Q587 83 588 65T582 33T561 9T526 0H462Q427 0 404 14T361 66L296 183Z" />
<glyph unicode="l" glyph-name="l" horiz-adv-x="309" d="M177 700Q226 700 246 674T266 583V77Q266 38 244 19T189 0H120Q87 0 65 19T43 77V622Q43 661 64 680T119 700H177Z" />
<glyph unicode="m" glyph-name="m" horiz-adv-x="936" d="M301 372Q290 372 281 371T264 368V77Q264 38 242 19T187 0H118Q85 0 63 19T41 77V451Q41 490 62 509T117 528H183Q211 528 230 512T258 450Q291 488 334 513T437 538Q485 538 521 520T572 454Q607 492
652 515T754 538Q784 538 810 531T856 505T886 458T897 385V77Q897 38 875 19T821 0H752Q719 0 697 19T675 77V326Q675 355 662 363T618 372Q599 372 581 367V77Q581 38 559 19T504 0H435Q402 0 380 19T358 77V326Q358 355 345 363T301 372Z" />
<glyph unicode="n" glyph-name="n" horiz-adv-x="631" d="M311 372Q298 372 286 370T264 366V77Q264 38 242 19T187 0H118Q85 0 63 19T41 77V451Q41 490 62 509T117 528H177Q205 528 226 513T257 452Q291 486 337 512T447 538Q478 538 504 531T550 506T581 459T592
385V77Q592 38 570 19T515 0H447Q414 0 392 19T370 77V326Q370 355 356 363T311 372Z" />
<glyph unicode="o" glyph-name="o" horiz-adv-x="622" d="M606 261Q606 198 584 148T523 63T430 10T311 -9Q246 -9 192 9T99 63T38 148T16 261Q16 324 38 375T99 463T192 518T311 538Q375 538 429 519T523 463T584 376T606 261ZM240 260Q240 190 259 159T311 127Q344
127 362 158T381 260Q381 330 363 361T311 392Q278 392 259 361T240 260Z" />
<glyph unicode="p" glyph-name="p" horiz-adv-x="631" d="M264 -85Q264 -124 242 -143T187 -162H118Q85 -162 63 -143T41 -85V451Q41 490 62 509T117 528H183Q212 528 230 516T256 465Q285 497 324 517T419 538Q456 538 491 526T553 484T596 405T613 281Q613 204
595 152T546 66T475 19T390 4Q348 4 318 13T264 39V-85ZM264 150Q273 145 284 142T310 139Q326 139 340 144T365 162T382 200T388 262Q388 297 382 319T366 354T342 372T312 377Q301 377 289 375T264 368V150Z" />
<glyph unicode="q" glyph-name="q" horiz-adv-x="631" d="M444 -162Q412 -162 390 -143T368 -85V44Q319 4 231 4Q187 4 149 18T81 64T35 146T18 268Q18 346 37 398T88 481T159 525T238 538Q288 538 322 520T384 466Q407 528 466 528H517Q549 528 569 510T590 453V-85Q590
-124 568 -143T513 -162H444ZM318 139Q346 139 368 153V367Q347 377 321 377Q305 377 291 373T267 355T250 320T243 264Q243 226 248 202T262 164T286 145T318 139Z" />
<glyph unicode="r" glyph-name="r" horiz-adv-x="447" d="M183 528Q211 528 230 512T257 444Q285 487 318 509T383 532Q408 532 421 520T435 476V413Q435 385 419 366T369 345Q303 342 264 331V77Q264 38 242 19T187 0H118Q85 0 63 19T41 77V451Q41 490 62 509T117
528H183Z" />
<glyph unicode="s" glyph-name="s" horiz-adv-x="491" d="M477 181Q477 90 414 41T221 -8Q135 -8 84 10Q21 31 21 86V103Q21 129 35 146T76 163Q89 163 101 158T129 147T165 135T213 130Q240 130 259 135T278 155Q278 171 260 176T189 190Q148 196 116 206T62
235T28 283T16 358Q16 405 34 439T84 494T160 526T255 537Q298 537 331 534T390 522Q422 512 437 497T453 455V428Q453 403 439 390T403 376Q388 376 375 380T346 389T311 399T266 403Q234 403 221 397T208 378Q208 364 225 359T289 347Q334 342 369 332T428 304T464
256T477 181Z" />
<glyph unicode="t" glyph-name="t" horiz-adv-x="399" d="M62 392Q39 392 25 405T10 453V467Q10 498 24 513T62 528H69V581Q69 619 90 638T146 658H215Q248 658 269 639T291 581V530H322Q351 530 366 513T382 467V453Q382 392 322 392H291V187Q291 155 301 144T337
129Q359 126 370 115T382 79V58Q382 29 368 15T326 -5Q312 -9 295 -10T254 -11Q213 -11 180 -4T121 22T83 71T69 148V392H62Z" />
<glyph unicode="u" glyph-name="u" horiz-adv-x="634" d="M449 0Q418 0 401 14T375 73Q341 41 299 16T195 -9Q163 -9 135 -2T85 25T52 75T40 153V451Q40 489 61 508T117 528H186Q219 528 240 509T262 451V199Q262 170 277 161T324 151Q335 151 347 153T369 158V451Q369
489 390 508T446 528H514Q548 528 569 509T591 451V78Q591 38 571 19T516 0H449Z" />
<glyph unicode="v" glyph-name="v" horiz-adv-x="598" d="M165 528Q200 528 217 511T247 453L313 241H316L379 456Q390 494 407 511T459 528H515Q555 528 569 501T570 434L438 76Q424 36 397 18T335 0H266Q231 0 204 17T163 75L31 428Q14 472 32 500T93 528H165Z" />
<glyph unicode="w" glyph-name="w" horiz-adv-x="849" d="M426 245H423L372 74Q360 32 337 16T278 0H229Q194 0 169 16T132 75L28 429Q14 474 32 501T91 528H156Q192 528 214 510T245 452L289 261H292L346 456Q357 495 378 513T437 531H447Q519 531 537 455L589
261H592L640 457Q649 494 669 511T724 528H765Q803 528 819 502T823 435L715 75Q702 33 678 17T618 0H568Q533 0 509 17T474 76L426 245Z" />
<glyph unicode="x" glyph-name="x" horiz-adv-x="605" d="M150 273L53 426Q41 445 40 463T45 496T66 519T101 528H176Q208 528 231 515T274 465L322 388L368 466Q386 497 407 512T463 528H504Q524 528 538 520T558 497T563 466T550 430L460 284L565 102Q576 82
577 64T573 32T552 9T517 0H441Q409 0 386 14T343 63L289 158L231 62Q213 32 192 16T136 0H85Q65 0 51 8T31 31T26 62T39 98L150 273Z" />
<glyph unicode="y" glyph-name="y" horiz-adv-x="595" d="M360 -95Q345 -133 321 -149T265 -165H182Q150 -165 137 -141T141 -79L191 26L29 429Q13 469 28 498T86 528H155Q190 528 210 511T244 456L311 262H314L378 458Q390 496 409 512T463 528H512Q553 528 567
500T566 429L360 -95Z" />
<glyph unicode="z" glyph-name="z" horiz-adv-x="528" d="M240 378H98Q63 378 46 398T28 448V458Q28 488 45 508T98 528H432Q464 528 485 511T506 457V444Q506 408 494 383T455 329L284 147H435Q470 147 487 127T505 77V70Q505 40 488 20T435 0H93Q61 0 40 18T19
73V81Q19 117 30 142T70 197L240 378Z" />
<glyph unicode="{" glyph-name="braceleft" horiz-adv-x="391" d="M381 16Q381 -49 306 -49H262Q181 -49 139 -11T97 99V219Q97 245 88 257T55 278L50 280Q27 288 18 300T9 340V362Q9 389 18 401T50 422L55 424Q78 432 87 444T97 483V595Q97 664 139 702T265 741H306Q381
741 381 676V662Q381 634 370 618T330 596Q293 590 293 540V464Q293 423 273 395T196 352Q252 337 272 308T293 239V152Q293 102 330 96Q359 91 370 75T381 30V16Z" />
<glyph unicode="|" glyph-name="bar" horiz-adv-x="231" d="M123 745Q153 745 174 728T195 674V19Q195 -18 174 -35T123 -53H108Q78 -53 57 -36T36 19V674Q36 710 57 727T108 745H123Z" />
<glyph unicode="}" glyph-name="braceright" horiz-adv-x="391" d="M10 30Q10 58 21 74T61 96Q98 102 98 152V239Q98 279 118 308T195 352Q139 366 119 394T98 464V540Q98 590 61 596Q32 601 21 617T10 662V676Q10 741 85 741H126Q210 741 252 703T294 595V483Q294
457 303 445T336 424L341 422Q364 414 373 402T382 362V340Q382 313 373 301T341 280L336 278Q313 270 304 258T294 219V99Q294 28 252 -10T129 -49H85Q10 -49 10 16V30Z" />
<glyph unicode="~" glyph-name="asciitilde" horiz-adv-x="425" d="M283 200Q262 200 244 204T211 214T183 223T160 228Q143 228 132 222T111 210T92 197T69 191H67Q41 191 25 211T17 278Q25 328 58 357T141 386Q162 386 180 382T213 373T242 363T265 359Q282
359 293 365T314 377T333 390T356 396H358Q384 396 400 376T408 309Q399 258 367 229T283 200Z" />
<glyph unicode="&#xa1;" glyph-name="exclamdown" horiz-adv-x="326" d="M167 404Q197 404 219 387T246 331Q255 258 263 196Q266 169 269 142T275 92T279 50T281 21Q281 -63 201 -63H125Q45 -63 45 21Q45 31 46 49T50 91T55 142T62 196Q70 258 80 331Q85 369
107 386T159 404H167ZM272 540Q272 518 264 499T240 466T205 444T163 436Q140 436 120 444T86 466T63 499T54 540Q54 562 62 581T85 614T120 636T163 644Q185 644 205 636T240 614T263 581T272 540Z" />
<glyph unicode="&#xa2;" glyph-name="cent" horiz-adv-x="529" d="M378 535Q393 533 407 531T435 524Q474 512 488 492T502 439V415Q502 386 489 373T452 359Q438 359 427 363T403 372T377 381T342 385Q294 385 268 356T241 260Q241 136 339 136Q361 136 376 140T404
151T428 161T453 166Q476 166 489 152T502 112V92Q502 60 488 42T440 10Q412 0 373 -5V-49Q373 -77 358 -92T314 -108H286Q256 -108 242 -93T227 -49V-2Q127 16 71 81T15 262Q15 371 72 439T232 529V556Q232 584 246 599T291 615H319Q348 615 363 600T378 556V535Z"
/>
<glyph unicode="&#xa3;" glyph-name="sterling" horiz-adv-x="570" d="M443 342Q443 315 427 295T376 275H295V267Q295 233 283 209T257 172H476Q514 172 531 151T549 99V73Q549 42 532 21T476 0H86Q53 0 35 18T16 72V78Q16 97 22 110T36 134T55 155T74 179T89
210T95 254Q95 259 95 264T94 275H85Q50 275 34 295T18 342V344Q18 367 29 385T66 409Q61 430 57 451T53 497Q53 601 125 656T325 711Q370 711 408 705T479 686Q516 672 529 650T543 594V562Q543 501 487 501Q472 501 459 506T432 518T401 529T360 535Q326 535
304 520T282 466Q282 452 282 439T284 411H376Q411 411 427 392T443 344V342Z" />
<glyph unicode="&#xa5;" glyph-name="yen" horiz-adv-x="641" d="M166 700Q204 700 227 684T267 631L335 481H338L405 634Q420 669 443 684T504 700H551Q572 700 586 692T607 670T613 639T603 604L489 387H553Q581 387 592 372T604 337V335Q604 314 593 299T553
284H440V246H553Q581 246 592 231T604 196V194Q604 173 593 158T553 143H440V79Q440 38 418 19T362 0H285Q253 0 230 19T207 79V143H94Q66 143 55 158T43 194V196Q43 216 54 231T94 246H207V284H94Q66 284 55 299T43 335V337Q43 357 54 372T94 387H154L42 598Q32
617 32 635T40 668T64 691T102 700H166Z" />
<glyph unicode="&#xa6;" glyph-name="brokenbar" horiz-adv-x="231" d="M36 240Q36 278 57 295T108 312H123Q153 312 174 295T195 240V20Q195 -18 174 -35T123 -52H108Q78 -52 57 -35T36 20V240ZM195 454Q195 416 174 399T123 382H108Q78 382 57 399T36 454V674Q36
712 57 728T108 745H123Q153 745 174 729T195 674V454Z" />
<glyph unicode="&#xa7;" glyph-name="section" horiz-adv-x="588" d="M519 61Q519 17 505 -19T459 -81T381 -121T270 -135Q231 -135 195 -131T129 -115Q97 -104 82 -86T67 -35V-22Q67 3 80 19T120 35Q135 35 148 30T177 18T213 7T263 1Q298 1 313 9T328 33Q328
40 324 45T310 55T283 65T239 77Q182 92 141 108T72 147T32 199T19 271Q19 323 44 356T109 407Q70 447 70 523Q70 566 86 601T133 660T207 698T305 711Q342 711 376 707T437 695Q472 684 485 667T499 620V599Q499 573 486 561T450 548Q435 548 422 553T393 563T358
574T313 579Q251 579 251 550Q251 536 268 527T331 506Q386 492 430 477T505 441T552 388T568 311Q568 263 546 228T475 170Q519 129 519 61ZM297 327Q271 333 249 339T207 352Q197 347 193 339T188 321Q188 310 191 302T204 286T231 272T278 258Q304 250 327 244T371
229Q391 240 391 262Q391 286 371 299T297 327Z" />
<glyph unicode="&#xa8;" glyph-name="dieresis" horiz-adv-x="400" d="M186 640Q186 599 160 576T90 552Q47 552 21 575T-6 640Q-6 680 20 703T90 727Q133 727 159 704T186 640ZM406 640Q406 599 380 576T310 552Q267 552 241 575T214 640Q214 680 240 703T310
727Q353 727 379 704T406 640Z" />
<glyph unicode="&#xa9;" glyph-name="copyright" horiz-adv-x="787" d="M505 164Q485 156 460 152T406 148Q304 148 247 198T190 349Q190 446 250 499T416 553Q433 553 455 551T497 542Q521 534 534 521T548 479V460Q548 440 538 429T509 418Q500 418 492 421T475
427T456 433T430 436Q398 436 380 416T362 347Q362 301 379 281T428 260Q444 260 456 263T477 270T494 277T512 281Q531 281 540 270T549 242V227Q549 181 505 164ZM759 350Q759 263 729 197T648 85T531 16T393 -8Q321 -8 255 15T139 84T58 196T28 350Q28 437 58
503T138 615T255 684T393 708Q465 708 531 685T647 616T728 504T759 350ZM102 350Q102 279 125 225T188 132T281 75T393 55Q453 55 506 74T598 132T661 224T685 350Q685 420 662 475T599 568T506 625T393 645Q334 645 281 626T188 568T125 475T102 350Z" />
<glyph unicode="&#xaa;" glyph-name="ordfeminine" horiz-adv-x="495" d="M343 258Q316 258 302 266T279 297Q237 252 157 252Q130 252 105 260T62 284T32 324T20 382Q20 453 66 485T191 518Q214 518 233 517T270 513V529Q270 554 255 563T203 574Q185 574 172
571T146 564T123 557T100 553Q77 553 64 567T51 605V618Q51 645 63 661T105 688Q133 697 169 702T248 708Q359 708 409 669T460 539V324Q460 289 442 274T394 258H343ZM270 435Q262 436 254 437T239 438Q219 438 208 428T196 394Q196 372 208 364T235 356Q254 356
270 367V435Z" />
<glyph unicode="&#xab;" glyph-name="guillemotleft" horiz-adv-x="551" d="M262 130Q272 112 273 96T268 67T248 47T215 39H194Q158 39 136 53T95 99L40 196Q28 217 24 231T20 259V261Q20 275 24 289T40 324L95 421Q113 453 135 467T194 482H215Q234 482 247
475T267 455T273 426T262 391L189 262V259L262 130ZM500 130Q510 112 511 96T506 67T486 47T453 39H432Q396 39 374 53T333 99L278 196Q266 217 262 231T258 259V261Q258 275 262 289T278 324L333 421Q351 453 373 467T432 482H453Q472 482 485 475T505 455T511
426T500 391L427 262V259L500 130Z" />
<glyph unicode="&#xae;" glyph-name="registered" horiz-adv-x="386" d="M379 529Q379 487 364 454T322 397T263 362T193 350Q157 350 123 362T64 397T23 453T7 529Q7 572 22 605T63 661T123 696T193 708Q229 708 262 696T322 661T363 605T379 529ZM57 529Q57
461 96 427T193 392Q250 392 289 426T329 529Q329 597 290 631T193 666Q136 666 97 632T57 529ZM274 477Q282 460 276 450T250 439H249Q235 439 226 445T208 469L194 498H183V473Q183 453 175 447T150 440H148Q132 440 124 446T115 473V582Q115 604 125 613T156
622H199Q278 622 278 559Q278 530 254 514L274 477ZM181 540H192Q211 540 211 559Q211 579 192 579H181V540Z" />
<glyph unicode="&#xaf;" glyph-name="macron" horiz-adv-x="400" d="M287 694Q319 694 333 677T347 634V632Q347 607 333 590T287 572H113Q81 572 67 589T53 632V634Q53 659 67 676T113 694H287Z" />
<glyph unicode="&#xb0;" glyph-name="degree" horiz-adv-x="358" d="M336 558Q336 524 324 497T289 450T239 419T179 408Q147 408 119 419T69 449T35 496T22 558Q22 591 34 618T69 665T119 695T179 706Q210 706 238 696T289 666T323 619T336 558ZM123 558Q123
531 138 514T179 496Q205 496 220 513T236 558Q236 585 221 601T179 618Q153 618 138 602T123 558Z" />
<glyph unicode="&#xb2;" glyph-name="two.superior" horiz-adv-x="367" d="M283 415Q314 415 327 399T340 359V357Q340 334 327 317T283 300H78Q51 300 36 316T21 360V362Q21 376 22 387T29 409T44 430T70 454L133 506Q155 525 165 537T175 562Q175 573 168 579T144
586Q129 586 119 583T100 577T84 570T64 567Q47 567 37 578T26 611V625Q26 651 37 668T75 694Q96 701 121 704T173 707Q344 707 344 584Q344 539 320 510T254 450L207 415H283Z" />
<glyph unicode="&#xb3;" glyph-name="three.superior" horiz-adv-x="363" d="M183 428Q183 441 174 446T146 454L137 455Q114 457 105 468T95 498V502Q95 521 104 531T137 545L147 546Q182 549 182 571Q182 597 142 597Q118 597 102 589T65 580Q48 580 38 591T27
622V633Q27 654 36 668T69 691Q91 699 118 703T174 707Q244 707 288 681T333 600Q333 558 314 537T252 508V504Q300 499 321 475T342 411Q342 354 295 323T157 292Q102 292 66 305Q40 314 29 329T18 367V374Q18 417 57 417Q66 417 73 414T89 408T109 402T137 399Q183
399 183 428Z" />
<glyph unicode="&#xb4;" glyph-name="acute" horiz-adv-x="400" d="M137 650Q152 712 218 712H295Q315 712 328 704T347 682T349 652T328 621L301 596Q274 572 251 562T198 551H191Q157 551 141 571T131 623L137 650Z" />
<glyph unicode="&#xb6;" glyph-name="paragraph" horiz-adv-x="592" d="M295 -96Q269 -96 251 -82T232 -33V297Q185 297 146 308T78 344T35 406T19 498Q19 555 38 594T92 656T172 690T273 700H461Q495 700 518 681T542 620V-33Q542 -67 524 -81T479 -96H477Q451
-96 433 -82T414 -33V571H359V-33Q359 -67 341 -81T297 -96H295Z" />
<glyph unicode="&#xb7;" glyph-name="periodcentered" horiz-adv-x="253" d="M235 293Q235 271 227 252T203 219T168 197T126 189Q103 189 83 197T49 219T26 252T17 293Q17 315 25 334T48 367T83 389T126 397Q148 397 168 389T203 367T226 334T235 293Z" />
<glyph unicode="&#xb8;" glyph-name="cedilla" horiz-adv-x="400" d="M151 0H237V-25Q318 -30 318 -96Q318 -131 291 -153T197 -175Q166 -175 139 -168Q120 -163 114 -154T107 -128V-125Q107 -111 113 -103T133 -95Q142 -95 151 -99T173 -103Q195 -103 195 -89Q195
-84 190 -81T170 -77H167Q151 -77 151 -62V0Z" />
<glyph unicode="&#xb9;" glyph-name="one.superior" horiz-adv-x="294" d="M252 370Q252 332 231 316T180 299H157Q128 299 107 315T86 370V552L78 546Q68 539 62 536T46 533Q32 533 24 542T15 571V592Q15 628 29 647T78 679Q104 689 130 694T178 700H186Q217
700 234 685T252 637V370Z" />
<glyph unicode="&#xba;" glyph-name="ordmasculine" horiz-adv-x="539" d="M517 477Q517 424 499 382T449 311T371 267T270 251Q215 251 170 266T91 311T40 382T22 477Q22 530 40 572T91 645T169 691T270 708Q325 708 370 692T448 645T499 573T517 477ZM213 476Q213
419 228 393T270 367Q296 367 311 393T326 476Q326 533 311 558T270 583Q244 583 229 558T213 476Z" />
<glyph unicode="&#xbb;" glyph-name="guillemotright" horiz-adv-x="551" d="M123 259V262L50 391Q40 409 39 425T44 454T64 474T97 482H119Q154 482 176 468T217 421L272 324Q284 303 288 289T293 261V259Q293 245 289 231T272 196L217 99Q199 67 177 53T119
39H97Q78 39 65 46T45 66T39 95T50 130L123 259ZM361 259V262L288 391Q278 409 277 425T282 454T302 474T335 482H357Q392 482 414 468T455 421L510 324Q522 303 526 289T531 261V259Q531 245 527 231T510 196L455 99Q437 67 415 53T357 39H335Q316 39 303 46T283
66T277 95T288 130L361 259Z" />
<glyph unicode="&#xbc;" glyph-name="onequarter" horiz-adv-x="838" d="M255 370Q255 332 234 316T183 299H160Q131 299 110 315T89 370V552L81 546Q71 539 65 536T49 533Q35 533 27 542T18 571V592Q18 628 32 647T81 679Q107 689 133 694T181 700H189Q220 700
237 685T255 637V370ZM557 684Q574 712 588 722T620 733H623Q638 733 650 726T668 706T673 677T659 641L251 10Q234 -18 220 -28T188 -39H185Q170 -39 158 -32T140 -12T135 17T149 53L557 684ZM780 64Q780 31 761 16T711 0H686Q655 0 636 15T617 64V79H501Q475
79 461 93T446 136V139Q446 165 454 184T486 231L579 345Q605 377 628 390T690 403H711Q743 403 761 387T780 332V173H784Q806 173 815 162T824 134V118Q824 101 815 90T784 79H780V64ZM555 173V171H626V260H624L555 173Z" />
<glyph unicode="&#xbd;" glyph-name="onehalf" horiz-adv-x="870" d="M255 370Q255 332 234 316T183 299H160Q131 299 110 315T89 370V552L81 546Q71 539 65 536T49 533Q35 533 27 542T18 571V592Q18 628 32 647T81 679Q107 689 133 694T181 700H189Q220 700 237
685T255 637V370ZM554 684Q571 712 585 722T617 733H620Q635 733 647 726T665 706T670 677T656 641L248 10Q231 -18 217 -28T185 -39H182Q167 -39 155 -32T137 -12T132 17T146 53L554 684ZM785 115Q816 115 829 99T842 59V57Q842 34 829 17T785 0H580Q553 0 538
16T523 60V62Q523 76 524 87T531 109T546 130T572 154L635 206Q657 225 667 237T677 262Q677 273 670 279T646 286Q631 286 621 283T602 277T586 270T566 267Q549 267 539 278T528 311V325Q528 351 539 368T577 394Q598 401 623 404T675 407Q846 407 846 284Q846
239 822 210T756 150L709 115H785Z" />
<glyph unicode="&#xbe;" glyph-name="threequarters" horiz-adv-x="866" d="M185 428Q185 441 176 446T148 454L139 455Q116 457 107 468T97 498V502Q97 521 106 531T139 545L149 546Q184 549 184 571Q184 597 144 597Q120 597 104 589T67 580Q50 580 40 591T29
622V633Q29 654 38 668T71 691Q93 699 120 703T176 707Q246 707 290 681T335 600Q335 558 316 537T254 508V504Q302 499 323 475T344 411Q344 354 297 323T159 292Q104 292 68 305Q42 314 31 329T20 367V374Q20 417 59 417Q68 417 75 414T91 408T111 402T139 399Q185
399 185 428ZM599 684Q616 712 630 722T662 733H665Q680 733 692 726T710 706T715 677T701 641L293 10Q276 -18 262 -28T230 -39H227Q212 -39 200 -32T182 -12T177 17T191 53L599 684ZM808 64Q808 31 789 16T739 0H714Q683 0 664 15T645 64V79H529Q503 79 489 93T474
136V139Q474 165 482 184T514 231L607 345Q633 377 656 390T718 403H739Q771 403 789 387T808 332V173H812Q834 173 843 162T852 134V118Q852 101 843 90T812 79H808V64ZM583 173V171H654V260H652L583 173Z" />
<glyph unicode="&#xbf;" glyph-name="questiondown" horiz-adv-x="488" d="M307 406Q341 406 362 392T383 341Q383 310 366 281T321 225Q292 198 270 179T247 134Q247 113 262 102T304 91Q323 91 337 96T363 107T389 119T419 124Q445 124 459 108T474 63V41Q474
7 460 -14T407 -51Q378 -62 344 -68T265 -74Q144 -74 82 -25T20 111Q20 164 39 197T85 255Q111 280 140 303T192 360Q206 383 226 394T281 406H307ZM184 541Q184 562 192 581T216 614T251 636T294 644Q317 644 337 636T371 614T394 581T403 541Q403 519 395 500T372
467T337 444T294 436Q271 436 251 444T216 466T193 500T184 541Z" />
<glyph unicode="&#xc0;" glyph-name="Agrave" horiz-adv-x="730" d="M83 0Q47 0 32 25T30 95L206 623Q219 663 246 681T310 700H419Q455 700 481 682T522 623L698 100Q713 55 695 28T642 0H553Q518 0 497 17T465 74L448 134H239L222 73Q202 0 139 0H83ZM283 291H404L345
501H342L283 291ZM429 797Q439 764 422 745T372 725H362Q336 725 310 735T258 769L231 793Q215 807 210 823T210 852T229 874T265 883H340Q403 883 421 823L429 797Z" />
<glyph unicode="&#xc1;" glyph-name="Aacute" horiz-adv-x="730" d="M83 0Q47 0 32 25T30 95L206 623Q219 663 246 681T310 700H419Q455 700 481 682T522 623L698 100Q713 55 695 28T642 0H553Q518 0 497 17T465 74L448 134H239L222 73Q202 0 139 0H83ZM283 291H404L345
501H342L283 291ZM301 823Q319 883 382 883H457Q479 883 493 875T512 853T512 823T491 793L464 769Q438 746 412 736T360 725H350Q318 725 301 744T293 797L301 823Z" />
<glyph unicode="&#xc2;" glyph-name="Acircumflex" horiz-adv-x="730" d="M83 0Q47 0 32 25T30 95L206 623Q219 663 246 681T310 700H419Q455 700 481 682T522 623L698 100Q713 55 695 28T642 0H553Q518 0 497 17T465 74L448 134H239L222 73Q202 0 139 0H83ZM283
291H404L345 501H342L283 291ZM353 766Q331 744 313 734T274 724H272Q252 724 238 734T218 759T216 793T237 830L246 840Q266 863 294 875T354 887H368Q399 887 427 875T476 840L485 830Q501 812 505 793T505 759T485 734T450 724H448Q428 724 410 734T369 766L361
774L353 766Z" />
<glyph unicode="&#xc3;" glyph-name="Atilde" horiz-adv-x="730" d="M83 0Q47 0 32 25T30 95L206 623Q219 663 246 681T310 700H419Q455 700 481 682T522 623L698 100Q713 55 695 28T642 0H553Q518 0 497 17T465 74L448 134H239L222 73Q202 0 139 0H83ZM283 291H404L345
501H342L283 291ZM423 724Q405 724 389 727T358 735T331 744T310 748Q296 748 287 743T269 731Q261 725 253 720T233 715H231Q208 715 194 733T186 791Q194 834 223 858T296 883Q314 883 330 879T361 871T387 863T408 859Q422 859 432 864T450 875Q458 881 466
886T486 891H488Q511 891 525 874T533 816Q525 773 496 749T423 724Z" />
<glyph unicode="&#xc4;" glyph-name="Adieresis" horiz-adv-x="730" d="M83 0Q47 0 32 25T30 95L206 623Q219 663 246 681T310 700H419Q455 700 481 682T522 623L698 100Q713 55 695 28T642 0H553Q518 0 497 17T465 74L448 134H239L222 73Q202 0 139 0H83ZM283
291H404L345 501H342L283 291ZM347 814Q347 774 321 751T251 727Q208 727 182 750T155 814Q155 854 181 877T251 901Q294 901 320 878T347 814ZM567 814Q567 774 541 751T471 727Q428 727 402 750T375 814Q375 854 401 877T471 901Q514 901 540 878T567 814Z" />
<glyph unicode="&#xc5;" glyph-name="Aring" horiz-adv-x="730" d="M83 0Q47 0 32 25T30 95L206 623Q219 663 246 681T310 700H419Q455 700 481 682T522 623L698 100Q713 55 695 28T642 0H553Q518 0 497 17T465 74L448 134H239L222 73Q202 0 139 0H83ZM283 291H404L345
501H342L283 291ZM470 827Q470 803 461 784T437 752T403 731T361 724Q339 724 320 731T285 751T261 784T252 827Q252 851 261 870T285 902T319 923T361 931Q383 931 402 924T437 903T461 870T470 827ZM331 827Q331 813 339 804T361 795Q375 795 383 804T392 827Q392
842 384 851T361 860Q347 860 339 851T331 827Z" />
<glyph unicode="&#xc6;" glyph-name="AE" horiz-adv-x="984" d="M513 0Q480 0 457 22T433 80V137H245L217 72Q200 34 181 17T129 0H80Q42 0 27 27T30 97L273 627Q290 664 319 682T386 700H872Q904 700 923 682T943 629V612Q943 577 924 559T872 540H669V428H793Q825
428 844 410T863 358V348Q863 313 844 296T793 278H669V156H881Q913 156 932 138T952 85V71Q952 36 933 18T881 0H513ZM312 294H433V539H418L312 294Z" />
<glyph unicode="&#xc7;" glyph-name="Ccedilla" horiz-adv-x="654" d="M322 -8Q182 8 104 97T25 343Q25 431 51 500T127 615T246 686T403 711Q450 711 487 705T557 686Q588 674 605 653T622 594V567Q622 538 606 520T561 502Q543 502 528 508T495 523T458 537T408
544Q344 544 306 500T268 353Q268 297 276 259T302 197T343 163T400 152Q431 152 454 160T495 177T529 194T563 202Q591 202 608 186T626 140V121Q626 84 609 61T560 24Q498 -6 408 -10V-25Q489 -30 489 -96Q489 -131 462 -153T368 -175Q337 -175 310 -168Q291
-163 285 -154T278 -128V-125Q278 -111 284 -103T304 -95Q313 -95 322 -99T344 -103Q366 -103 366 -89Q366 -84 361 -81T341 -77H338Q322 -77 322 -62V-8Z" />
<glyph unicode="&#xc8;" glyph-name="Egrave" horiz-adv-x="604" d="M131 0Q96 0 73 20T50 80V620Q50 660 73 680T131 700H491Q523 700 542 682T562 629V612Q562 576 543 558T491 540H287V428H413Q444 428 464 411T484 358V348Q484 312 464 295T413 277H287V156H500Q532
156 551 138T571 85V71Q571 35 552 18T500 0H131ZM383 797Q393 764 376 745T326 725H316Q290 725 264 735T212 769L185 793Q169 807 164 823T164 852T183 874T219 883H294Q357 883 375 823L383 797Z" />
<glyph unicode="&#xc9;" glyph-name="Eacute" horiz-adv-x="604" d="M131 0Q96 0 73 20T50 80V620Q50 660 73 680T131 700H491Q523 700 542 682T562 629V612Q562 576 543 558T491 540H287V428H413Q444 428 464 411T484 358V348Q484 312 464 295T413 277H287V156H500Q532
156 551 138T571 85V71Q571 35 552 18T500 0H131ZM255 823Q273 883 336 883H411Q433 883 447 875T466 853T466 823T445 793L418 769Q392 746 366 736T314 725H304Q272 725 255 744T247 797L255 823Z" />
<glyph unicode="&#xca;" glyph-name="Ecircumflex" horiz-adv-x="604" d="M131 0Q96 0 73 20T50 80V620Q50 660 73 680T131 700H491Q523 700 542 682T562 629V612Q562 576 543 558T491 540H287V428H413Q444 428 464 411T484 358V348Q484 312 464 295T413 277H287V156H500Q532
156 551 138T571 85V71Q571 35 552 18T500 0H131ZM299 766Q277 744 259 734T220 724H218Q198 724 184 734T164 759T162 793T183 830L192 840Q212 863 240 875T300 887H314Q345 887 373 875T422 840L431 830Q447 812 451 793T451 759T431 734T396 724H394Q374 724
356 734T315 766L307 774L299 766Z" />
<glyph unicode="&#xcb;" glyph-name="Edieresis" horiz-adv-x="604" d="M131 0Q96 0 73 20T50 80V620Q50 660 73 680T131 700H491Q523 700 542 682T562 629V612Q562 576 543 558T491 540H287V428H413Q444 428 464 411T484 358V348Q484 312 464 295T413 277H287V156H500Q532
156 551 138T571 85V71Q571 35 552 18T500 0H131ZM301 811Q301 771 275 748T205 724Q162 724 136 747T109 811Q109 851 135 874T205 898Q248 898 274 875T301 811ZM521 811Q521 771 495 748T425 724Q382 724 356 747T329 811Q329 851 355 874T425 898Q468 898 494
875T521 811Z" />
<glyph unicode="&#xcc;" glyph-name="Igrave" horiz-adv-x="345" d="M291 79Q291 38 269 19T213 0H132Q99 0 76 19T53 79V621Q53 659 75 679T132 700H213Q248 700 269 680T291 621V79ZM499 797Q509 764 492 745T442 725H432Q406 725 380 735T328 769L301 793Q285
807 280 823T280 852T299 874T335 883H410Q473 883 491 823L499 797Z" />
<glyph unicode="&#xcd;" glyph-name="Iacute" horiz-adv-x="345" d="M291 79Q291 38 269 19T213 0H132Q99 0 76 19T53 79V621Q53 659 75 679T132 700H213Q248 700 269 680T291 621V79ZM370 823Q388 883 451 883H526Q548 883 562 875T581 853T581 823T560 793L533
769Q507 746 481 736T429 725H419Q387 725 370 744T362 797L370 823Z" />
<glyph unicode="&#xce;" glyph-name="Icircumflex" horiz-adv-x="345" d="M291 79Q291 38 269 19T213 0H132Q99 0 76 19T53 79V621Q53 659 75 679T132 700H213Q248 700 269 680T291 621V79ZM422 766Q400 744 382 734T343 724H341Q321 724 307 734T287 759T285
793T306 830L315 840Q335 863 363 875T423 887H437Q468 887 496 875T545 840L554 830Q570 812 574 793T574 759T554 734T519 724H517Q497 724 479 734T438 766L430 774L422 766Z" />
<glyph unicode="&#xcf;" glyph-name="Idieresis" horiz-adv-x="345" d="M291 79Q291 38 269 19T213 0H132Q99 0 76 19T53 79V621Q53 659 75 679T132 700H213Q248 700 269 680T291 621V79ZM415 811Q415 771 389 748T319 724Q276 724 250 747T223 811Q223 851 249
874T319 898Q362 898 388 875T415 811ZM635 811Q635 771 609 748T539 724Q496 724 470 747T443 811Q443 851 469 874T539 898Q582 898 608 875T635 811Z" />
<glyph unicode="&#xd0;" glyph-name="Eth" horiz-adv-x="733" d="M133 0Q98 0 76 20T53 80V278Q21 281 7 301T-8 349V353Q-8 380 6 399T53 422V620Q53 660 75 680T133 700H334Q525 700 617 613T710 355Q710 179 617 90T327 0H133ZM290 278V154H321Q358 154 386
163T432 195T460 255T469 346Q469 454 433 497T321 541H290V423H322Q359 423 375 403T392 353V349Q392 319 376 299T322 278H290Z" />
<glyph unicode="&#xd1;" glyph-name="Ntilde" horiz-adv-x="730" d="M125 0Q93 0 72 18T50 75V620Q50 659 73 679T131 700H226Q263 700 286 684T330 630L484 350H487V625Q487 664 508 682T562 700H605Q637 700 658 682T679 625V76Q679 38 657 19T602 0H526Q491
0 469 15T426 67L245 393H242V75Q242 37 221 19T168 0H125ZM446 724Q428 724 412 727T381 735T354 744T333 748Q319 748 310 743T292 731Q284 725 276 720T256 715H254Q231 715 217 733T209 791Q217 834 246 858T319 883Q337 883 353 879T384 871T410 863T431 859Q445
859 455 864T473 875Q481 881 489 886T509 891H511Q534 891 548 874T556 816Q548 773 519 749T446 724Z" />
<glyph unicode="&#xd2;" glyph-name="Ograve" horiz-adv-x="763" d="M739 348Q739 261 712 194T636 82T523 13T381 -11Q304 -11 239 12T126 81T51 194T24 348Q24 435 52 502T128 616T242 687T381 711Q456 711 521 687T634 617T711 503T739 348ZM264 347Q264 242
296 196T381 150Q433 150 465 196T498 347Q498 452 466 498T381 544Q328 544 296 498T264 347ZM449 797Q459 764 442 745T392 725H382Q356 725 330 735T278 769L251 793Q235 807 230 823T230 852T249 874T285 883H360Q423 883 441 823L449 797Z" />
<glyph unicode="&#xd3;" glyph-name="Oacute" horiz-adv-x="763" d="M739 348Q739 261 712 194T636 82T523 13T381 -11Q304 -11 239 12T126 81T51 194T24 348Q24 435 52 502T128 616T242 687T381 711Q456 711 521 687T634 617T711 503T739 348ZM264 347Q264 242
296 196T381 150Q433 150 465 196T498 347Q498 452 466 498T381 544Q328 544 296 498T264 347ZM322 823Q340 883 403 883H478Q500 883 514 875T533 853T533 823T512 793L485 769Q459 746 433 736T381 725H371Q339 725 322 744T314 797L322 823Z" />
<glyph unicode="&#xd4;" glyph-name="Ocircumflex" horiz-adv-x="763" d="M739 348Q739 261 712 194T636 82T523 13T381 -11Q304 -11 239 12T126 81T51 194T24 348Q24 435 52 502T128 616T242 687T381 711Q456 711 521 687T634 617T711 503T739 348ZM264 347Q264
242 296 196T381 150Q433 150 465 196T498 347Q498 452 466 498T381 544Q328 544 296 498T264 347ZM373 766Q351 744 333 734T294 724H292Q272 724 258 734T238 759T236 793T257 830L266 840Q286 863 314 875T374 887H388Q419 887 447 875T496 840L505 830Q521
812 525 793T525 759T505 734T470 724H468Q448 724 430 734T389 766L381 774L373 766Z" />
<glyph unicode="&#xd5;" glyph-name="Otilde" horiz-adv-x="763" d="M739 348Q739 261 712 194T636 82T523 13T381 -11Q304 -11 239 12T126 81T51 194T24 348Q24 435 52 502T128 616T242 687T381 711Q456 711 521 687T634 617T711 503T739 348ZM264 347Q264 242
296 196T381 150Q433 150 465 196T498 347Q498 452 466 498T381 544Q328 544 296 498T264 347ZM444 724Q426 724 410 727T379 735T352 744T331 748Q317 748 308 743T290 731Q282 725 274 720T254 715H252Q229 715 215 733T207 791Q215 834 244 858T317 883Q335
883 351 879T382 871T408 863T429 859Q443 859 453 864T471 875Q479 881 487 886T507 891H509Q532 891 546 874T554 816Q546 773 517 749T444 724Z" />
<glyph unicode="&#xd6;" glyph-name="Odieresis" horiz-adv-x="763" d="M739 348Q739 261 712 194T636 82T523 13T381 -11Q304 -11 239 12T126 81T51 194T24 348Q24 435 52 502T128 616T242 687T381 711Q456 711 521 687T634 617T711 503T739 348ZM264 347Q264
242 296 196T381 150Q433 150 465 196T498 347Q498 452 466 498T381 544Q328 544 296 498T264 347ZM367 811Q367 771 341 748T271 724Q228 724 202 747T175 811Q175 851 201 874T271 898Q314 898 340 875T367 811ZM587 811Q587 771 561 748T491 724Q448 724 422
747T395 811Q395 851 421 874T491 898Q534 898 560 875T587 811Z" />
<glyph unicode="&#xd7;" glyph-name="multiply" horiz-adv-x="546" d="M186 142Q162 118 135 119T86 142L70 158Q49 179 48 206T71 257L157 341L71 425Q46 449 48 476T71 525L87 541Q107 561 134 563T187 541L273 456L359 541Q384 565 412 564T460 540L475 524Q495
502 497 476T475 425L390 342L475 258Q499 234 499 206T476 158L460 143Q439 123 412 121T360 142L273 228L186 142Z" />
<glyph unicode="&#xd8;" glyph-name="Oslash" horiz-adv-x="763" d="M655 595Q694 550 716 488T739 348Q739 261 712 194T636 82T523 13T381 -11Q266 -11 181 39L147 -1Q132 -18 121 -24T99 -30H97Q82 -30 72 -23T57 -5T54 20T68 48L110 97Q68 142 46 205T24 348Q24
435 52 502T128 616T242 687T381 711Q497 711 585 655L617 693Q632 710 643 716T665 722H667Q682 722 692 715T707 697T710 671T696 644L655 595ZM259 347Q259 327 260 310T263 277L463 512Q432 549 381 549Q326 549 293 502T259 347ZM504 347Q504 365 503 381T500
413L301 180Q330 145 381 145Q436 145 470 192T504 347Z" />
<glyph unicode="&#xd9;" glyph-name="Ugrave" horiz-adv-x="715" d="M286 263Q286 209 308 185T379 161Q427 161 448 185T470 263V625Q470 663 491 681T544 700H593Q625 700 646 682T667 625V256Q667 125 590 59T364 -8Q206 -8 127 59T48 256V621Q48 659 69 679T126
700H207Q242 700 264 680T286 621V263ZM443 797Q453 764 436 745T386 725H376Q350 725 324 735T272 769L245 793Q229 807 224 823T224 852T243 874T279 883H354Q417 883 435 823L443 797Z" />
<glyph unicode="&#xda;" glyph-name="Uacute" horiz-adv-x="715" d="M286 263Q286 209 308 185T379 161Q427 161 448 185T470 263V625Q470 663 491 681T544 700H593Q625 700 646 682T667 625V256Q667 125 590 59T364 -8Q206 -8 127 59T48 256V621Q48 659 69 679T126
700H207Q242 700 264 680T286 621V263ZM316 823Q334 883 397 883H472Q494 883 508 875T527 853T527 823T506 793L479 769Q453 746 427 736T375 725H365Q333 725 316 744T308 797L316 823Z" />
<glyph unicode="&#xdb;" glyph-name="Ucircumflex" horiz-adv-x="715" d="M286 263Q286 209 308 185T379 161Q427 161 448 185T470 263V625Q470 663 491 681T544 700H593Q625 700 646 682T667 625V256Q667 125 590 59T364 -8Q206 -8 127 59T48 256V621Q48 659
69 679T126 700H207Q242 700 264 680T286 621V263ZM366 766Q344 744 326 734T287 724H285Q265 724 251 734T231 759T229 793T250 830L259 840Q279 863 307 875T367 887H381Q412 887 440 875T489 840L498 830Q514 812 518 793T518 759T498 734T463 724H461Q441 724
423 734T382 766L374 774L366 766Z" />
<glyph unicode="&#xdc;" glyph-name="Udieresis" horiz-adv-x="715" d="M286 263Q286 209 308 185T379 161Q427 161 448 185T470 263V625Q470 663 491 681T544 700H593Q625 700 646 682T667 625V256Q667 125 590 59T364 -8Q206 -8 127 59T48 256V621Q48 659 69
679T126 700H207Q242 700 264 680T286 621V263ZM361 811Q361 771 335 748T265 724Q222 724 196 747T169 811Q169 851 195 874T265 898Q308 898 334 875T361 811ZM581 811Q581 771 555 748T485 724Q442 724 416 747T389 811Q389 851 415 874T485 898Q528 898 554
875T581 811Z" />
<glyph unicode="&#xdd;" glyph-name="Yacute" horiz-adv-x="670" d="M587 700Q609 700 623 692T645 669T652 638T642 603L457 253V79Q457 38 434 19T379 0H298Q265 0 242 19T219 79V247L31 599Q21 617 21 635T29 667T53 691T91 700H158Q196 700 218 683T259 630L350
454H352L443 634Q460 668 482 684T541 700H587ZM289 823Q307 883 370 883H445Q467 883 481 875T500 853T500 823T479 793L452 769Q426 746 400 736T348 725H338Q306 725 289 744T281 797L289 823Z" />
<glyph unicode="&#xde;" glyph-name="Thorn" horiz-adv-x="653" d="M129 0Q96 0 73 19T50 79V621Q50 659 72 679T129 700H210Q245 700 266 680T288 621V586H340Q495 586 565 530T635 355Q635 239 560 184T329 128H288V79Q288 38 265 19T210 0H129ZM285 435V267H325Q370
267 387 290T404 354Q404 395 387 415T325 435H285Z" />
<glyph unicode="&#xdf;" glyph-name="germandbls" horiz-adv-x="700" d="M446 128Q465 128 476 134T487 152Q487 166 472 172T420 193Q363 213 335 245T306 333Q306 370 320 396T361 453Q381 477 392 491T404 523Q404 541 389 553T344 565Q301 565 283 544T264
484V77Q264 37 242 19T186 0H118Q85 0 63 18T41 77V486Q41 597 116 654T350 711Q487 711 556 672T626 556Q626 518 604 490T550 438Q521 417 511 406T501 383Q501 371 512 364T553 344Q585 330 609 316T651 281T677 234T686 169Q686 89 630 41T457 -8Q431 -8 407
-6T360 3Q328 14 316 31T303 80V98Q303 122 316 136T352 151Q364 151 374 148T396 140T419 132T446 128Z" />
<glyph unicode="&#xe0;" glyph-name="agrave" horiz-adv-x="576" d="M397 0Q370 0 354 13T329 49Q301 20 264 7T179 -7Q146 -7 117 2T65 31T29 80T15 149Q15 233 71 272T220 311Q248 311 271 310T316 304V323Q316 355 298 368T235 382Q212 382 195 378T163 368T135
359T109 354Q85 354 69 369T52 413V432Q52 467 68 486T120 517Q153 528 195 533T285 538Q415 538 476 492T538 339V78Q538 38 518 19T463 0H397ZM270 114Q282 114 294 118T316 130V213Q306 215 295 216T275 217Q249 217 236 205T222 163Q222 136 236 125T270 114ZM353
626Q361 594 344 574T293 554H286Q258 554 234 564T183 599L156 624Q140 639 136 655T136 684T155 706T189 715H266Q298 715 319 700T347 653L353 626Z" />
<glyph unicode="&#xe1;" glyph-name="aacute" horiz-adv-x="576" d="M397 0Q370 0 354 13T329 49Q301 20 264 7T179 -7Q146 -7 117 2T65 31T29 80T15 149Q15 233 71 272T220 311Q248 311 271 310T316 304V323Q316 355 298 368T235 382Q212 382 195 378T163 368T135
359T109 354Q85 354 69 369T52 413V432Q52 467 68 486T120 517Q153 528 195 533T285 538Q415 538 476 492T538 339V78Q538 38 518 19T463 0H397ZM270 114Q282 114 294 118T316 130V213Q306 215 295 216T275 217Q249 217 236 205T222 163Q222 136 236 125T270 114ZM227
653Q242 715 308 715H385Q405 715 418 707T437 685T439 655T418 624L391 599Q364 575 341 565T288 554H281Q247 554 231 574T221 626L227 653Z" />
<glyph unicode="&#xe2;" glyph-name="acircumflex" horiz-adv-x="576" d="M397 0Q370 0 354 13T329 49Q301 20 264 7T179 -7Q146 -7 117 2T65 31T29 80T15 149Q15 233 71 272T220 311Q248 311 271 310T316 304V323Q316 355 298 368T235 382Q212 382 195 378T163
368T135 359T109 354Q85 354 69 369T52 413V432Q52 467 68 486T120 517Q153 528 195 533T285 538Q415 538 476 492T538 339V78Q538 38 518 19T463 0H397ZM270 114Q282 114 294 118T316 130V213Q306 215 295 216T275 217Q249 217 236 205T222 163Q222 136 236 125T270
114ZM177 674Q201 698 228 708T284 719H292Q321 719 348 709T399 674L408 665Q427 646 432 627T432 591T412 564T377 553H374Q336 553 296 595L288 603L280 595Q239 553 202 553H199Q179 553 165 563T145 590T144 626T168 665L177 674Z" />
<glyph unicode="&#xe3;" glyph-name="atilde" horiz-adv-x="576" d="M397 0Q370 0 354 13T329 49Q301 20 264 7T179 -7Q146 -7 117 2T65 31T29 80T15 149Q15 233 71 272T220 311Q248 311 271 310T316 304V323Q316 355 298 368T235 382Q212 382 195 378T163 368T135
359T109 354Q85 354 69 369T52 413V432Q52 467 68 486T120 517Q153 528 195 533T285 538Q415 538 476 492T538 339V78Q538 38 518 19T463 0H397ZM270 114Q282 114 294 118T316 130V213Q306 215 295 216T275 217Q249 217 236 205T222 163Q222 136 236 125T270 114ZM350
559Q332 559 316 562T285 570T258 579T237 583Q223 583 214 578T196 566Q188 560 180 555T160 550H158Q135 550 121 568T113 626Q121 669 150 693T223 718Q241 718 257 714T288 706T314 698T335 694Q349 694 359 699T377 710Q385 716 393 721T413 726H415Q438 726
452 709T460 651Q452 608 423 584T350 559Z" />
<glyph unicode="&#xe4;" glyph-name="adieresis" horiz-adv-x="576" d="M397 0Q370 0 354 13T329 49Q301 20 264 7T179 -7Q146 -7 117 2T65 31T29 80T15 149Q15 233 71 272T220 311Q248 311 271 310T316 304V323Q316 355 298 368T235 382Q212 382 195 378T163
368T135 359T109 354Q85 354 69 369T52 413V432Q52 467 68 486T120 517Q153 528 195 533T285 538Q415 538 476 492T538 339V78Q538 38 518 19T463 0H397ZM270 114Q282 114 294 118T316 130V213Q306 215 295 216T275 217Q249 217 236 205T222 163Q222 136 236 125T270
114ZM271 640Q271 599 245 576T175 552Q132 552 106 575T79 640Q79 680 105 703T175 727Q218 727 244 704T271 640ZM491 640Q491 599 465 576T395 552Q352 552 326 575T299 640Q299 680 325 703T395 727Q438 727 464 704T491 640Z" />
<glyph unicode="&#xe5;" glyph-name="aring" horiz-adv-x="576" d="M397 0Q370 0 354 13T329 49Q301 20 264 7T179 -7Q146 -7 117 2T65 31T29 80T15 149Q15 233 71 272T220 311Q248 311 271 310T316 304V323Q316 355 298 368T235 382Q212 382 195 378T163 368T135
359T109 354Q85 354 69 369T52 413V432Q52 467 68 486T120 517Q153 528 195 533T285 538Q415 538 476 492T538 339V78Q538 38 518 19T463 0H397ZM270 114Q282 114 294 118T316 130V213Q306 215 295 216T275 217Q249 217 236 205T222 163Q222 136 236 125T270 114ZM394
661Q394 637 385 618T361 586T327 565T285 558Q263 558 244 565T209 585T185 618T176 661Q176 685 185 704T209 736T243 757T285 764Q307 764 326 757T361 737T385 704T394 661ZM255 661Q255 647 263 638T285 629Q299 629 307 638T316 661Q316 675 308 684T285
693Q271 693 263 684T255 661Z" />
<glyph unicode="&#xe6;" glyph-name="ae" horiz-adv-x="878" d="M607 -9Q529 -9 473 11T381 70Q349 33 306 13T192 -7Q154 -7 122 2T66 31T29 79T15 149Q15 233 70 273T230 313H316V323Q316 355 298 368T235 382Q212 382 195 378T163 368T135 359T109 354Q85 354
69 369T52 413V432Q52 467 68 486T120 517Q153 528 195 533T285 538Q388 538 434 496Q468 516 509 527T600 538Q667 538 716 521T798 470T847 390T863 285Q863 251 844 234T791 216H537Q545 166 570 149T641 132Q673 132 694 137T731 148T760 159T788 164Q812 164
826 150T841 109V94Q841 42 787 19Q755 5 711 -2T607 -9ZM269 114Q292 114 307 123T335 144Q321 177 317 216H275Q222 216 222 165Q222 137 236 126T269 114ZM601 404Q589 404 579 401T560 388T545 362T536 318H660Q658 368 644 386T601 404Z" />
<glyph unicode="&#xe7;" glyph-name="ccedilla" horiz-adv-x="523" d="M438 10Q414 2 384 -3T319 -9V-25Q400 -30 400 -96Q400 -131 373 -153T279 -175Q248 -175 221 -168Q202 -163 196 -154T189 -128V-125Q189 -111 195 -103T215 -95Q224 -95 233 -99T255 -103Q277
-103 277 -89Q277 -84 272 -81T252 -77H249Q233 -77 233 -62V-3Q130 14 73 79T16 262Q16 328 37 379T98 465T194 519T322 538Q351 538 381 534T436 522Q466 512 483 494T500 440V416Q500 387 486 373T448 358Q435 358 424 362T400 371T374 381T340 385Q295 385
269 356T242 260Q242 197 266 167T337 137Q358 137 373 142T400 153T424 164T447 169Q476 169 488 153T500 112V92Q500 59 484 40T438 10Z" />
<glyph unicode="&#xe8;" glyph-name="egrave" horiz-adv-x="580" d="M239 216Q246 166 271 149T343 132Q375 132 396 137T433 148T461 159T489 164Q513 164 527 150T542 109V94Q542 41 488 19Q456 5 412 -2T308 -9Q160 -9 88 63T16 261Q16 324 36 375T93 463T182
518T301 538Q435 538 499 470T564 285Q564 251 545 234T492 216H239ZM302 404Q290 404 280 401T262 388T247 362T238 318H361Q359 368 345 386T302 404ZM358 626Q366 594 349 574T298 554H291Q263 554 239 564T188 599L161 624Q145 639 141 655T141 684T160 706T194
715H271Q303 715 324 700T352 653L358 626Z" />
<glyph unicode="&#xe9;" glyph-name="eacute" horiz-adv-x="580" d="M239 216Q246 166 271 149T343 132Q375 132 396 137T433 148T461 159T489 164Q513 164 527 150T542 109V94Q542 41 488 19Q456 5 412 -2T308 -9Q160 -9 88 63T16 261Q16 324 36 375T93 463T182
518T301 538Q435 538 499 470T564 285Q564 251 545 234T492 216H239ZM302 404Q290 404 280 401T262 388T247 362T238 318H361Q359 368 345 386T302 404ZM239 653Q254 715 320 715H397Q417 715 430 707T449 685T451 655T430 624L403 599Q376 575 353 565T300 554H293Q259
554 243 574T233 626L239 653Z" />
<glyph unicode="&#xea;" glyph-name="ecircumflex" horiz-adv-x="580" d="M239 216Q246 166 271 149T343 132Q375 132 396 137T433 148T461 159T489 164Q513 164 527 150T542 109V94Q542 41 488 19Q456 5 412 -2T308 -9Q160 -9 88 63T16 261Q16 324 36 375T93
463T182 518T301 538Q435 538 499 470T564 285Q564 251 545 234T492 216H239ZM302 404Q290 404 280 401T262 388T247 362T238 318H361Q359 368 345 386T302 404ZM183 674Q207 698 234 708T290 719H298Q327 719 354 709T405 674L414 665Q433 646 438 627T438 591T418
564T383 553H380Q342 553 302 595L294 603L286 595Q245 553 208 553H205Q185 553 171 563T151 590T150 626T174 665L183 674Z" />
<glyph unicode="&#xeb;" glyph-name="edieresis" horiz-adv-x="580" d="M239 216Q246 166 271 149T343 132Q375 132 396 137T433 148T461 159T489 164Q513 164 527 150T542 109V94Q542 41 488 19Q456 5 412 -2T308 -9Q160 -9 88 63T16 261Q16 324 36 375T93 463T182
518T301 538Q435 538 499 470T564 285Q564 251 545 234T492 216H239ZM302 404Q290 404 280 401T262 388T247 362T238 318H361Q359 368 345 386T302 404ZM280 640Q280 599 254 576T184 552Q141 552 115 575T88 640Q88 680 114 703T184 727Q227 727 253 704T280 640ZM500
640Q500 599 474 576T404 552Q361 552 335 575T308 640Q308 680 334 703T404 727Q447 727 473 704T500 640Z" />
<glyph unicode="&#xec;" glyph-name="igrave" horiz-adv-x="306" d="M264 77Q264 38 242 19T187 0H118Q86 0 64 19T42 77V451Q42 490 62 509T118 528H176Q224 528 244 504T264 420V77ZM476 626Q484 594 467 574T416 554H409Q381 554 357 564T306 599L279 624Q263
639 259 655T259 684T278 706T312 715H389Q421 715 442 700T470 653L476 626Z" />
<glyph unicode="&#xed;" glyph-name="iacute" horiz-adv-x="306" d="M264 77Q264 38 242 19T187 0H118Q86 0 64 19T42 77V451Q42 490 62 509T118 528H176Q224 528 244 504T264 420V77ZM349 653Q364 715 430 715H507Q527 715 540 707T559 685T561 655T540 624L513
599Q486 575 463 565T410 554H403Q369 554 353 574T343 626L349 653Z" />
<glyph unicode="&#xee;" glyph-name="icircumflex" horiz-adv-x="306" d="M264 77Q264 38 242 19T187 0H118Q86 0 64 19T42 77V451Q42 490 62 509T118 528H176Q224 528 244 504T264 420V77ZM300 674Q324 698 351 708T407 719H415Q444 719 471 709T522 674L531
665Q550 646 555 627T555 591T535 564T500 553H497Q459 553 419 595L411 603L403 595Q362 553 325 553H322Q302 553 288 563T268 590T267 626T291 665L300 674Z" />
<glyph unicode="&#xef;" glyph-name="idieresis" horiz-adv-x="306" d="M144 640Q144 599 117 576T48 552Q4 552 -22 575T-49 640Q-49 680 -23 703T48 727Q90 727 117 704T144 640ZM355 640Q355 599 329 576T258 552Q215 552 189 575T162 640Q162 680 188 703T258
727Q302 727 328 704T355 640ZM264 77Q264 38 242 19T187 0H118Q86 0 64 19T42 77V451Q42 490 62 509T118 528H176Q224 528 244 504T264 420V77Z" />
<glyph unicode="&#xf0;" glyph-name="eth" horiz-adv-x="622" d="M127 640Q127 671 148 686T220 699Q247 697 273 693T323 682L345 697Q368 714 385 714H387Q402 713 412 706T428 688T432 665T421 641Q506 592 556 505T606 295Q606 216 584 159T523 65T428 9T306
-9Q242 -9 189 8T98 59T38 140T16 251Q16 313 35 359T86 436T155 482T231 498Q258 498 276 495T309 487T333 473T354 455Q344 483 325 503T279 538L259 524Q236 507 219 507H218Q203 507 192 513T176 530T170 552T180 576Q151 585 139 599T127 636V640ZM240 247Q240
181 259 154T313 126Q346 126 363 153T381 247Q381 315 364 343T313 371Q279 371 260 343T240 247Z" />
<glyph unicode="&#xf1;" glyph-name="ntilde" horiz-adv-x="631" d="M311 372Q298 372 286 370T264 366V77Q264 38 242 19T187 0H118Q85 0 63 19T41 77V451Q41 490 62 509T117 528H177Q205 528 226 513T257 452Q291 486 337 512T447 538Q478 538 504 531T550 506T581
459T592 385V77Q592 38 570 19T515 0H447Q414 0 392 19T370 77V326Q370 355 356 363T311 372ZM383 559Q365 559 349 562T318 570T291 579T270 583Q256 583 247 578T229 566Q221 560 213 555T193 550H191Q168 550 154 568T146 626Q154 669 183 693T256 718Q274 718
290 714T321 706T347 698T368 694Q382 694 392 699T410 710Q418 716 426 721T446 726H448Q471 726 485 709T493 651Q485 608 456 584T383 559Z" />
<glyph unicode="&#xf2;" glyph-name="ograve" horiz-adv-x="622" d="M606 261Q606 198 584 148T523 63T430 10T311 -9Q246 -9 192 9T99 63T38 148T16 261Q16 324 38 375T99 463T192 518T311 538Q375 538 429 519T523 463T584 376T606 261ZM240 260Q240 190 259
159T311 127Q344 127 362 158T381 260Q381 330 363 361T311 392Q278 392 259 361T240 260ZM374 626Q382 594 365 574T314 554H307Q279 554 255 564T204 599L177 624Q161 639 157 655T157 684T176 706T210 715H287Q319 715 340 700T368 653L374 626Z" />
<glyph unicode="&#xf3;" glyph-name="oacute" horiz-adv-x="622" d="M606 261Q606 198 584 148T523 63T430 10T311 -9Q246 -9 192 9T99 63T38 148T16 261Q16 324 38 375T99 463T192 518T311 538Q375 538 429 519T523 463T584 376T606 261ZM240 260Q240 190 259
159T311 127Q344 127 362 158T381 260Q381 330 363 361T311 392Q278 392 259 361T240 260ZM255 653Q270 715 336 715H413Q433 715 446 707T465 685T467 655T446 624L419 599Q392 575 369 565T316 554H309Q275 554 259 574T249 626L255 653Z" />
<glyph unicode="&#xf4;" glyph-name="ocircumflex" horiz-adv-x="622" d="M606 261Q606 198 584 148T523 63T430 10T311 -9Q246 -9 192 9T99 63T38 148T16 261Q16 324 38 375T99 463T192 518T311 538Q375 538 429 519T523 463T584 376T606 261ZM240 260Q240 190
259 159T311 127Q344 127 362 158T381 260Q381 330 363 361T311 392Q278 392 259 361T240 260ZM200 674Q224 698 251 708T307 719H315Q344 719 371 709T422 674L431 665Q450 646 455 627T455 591T435 564T400 553H397Q359 553 319 595L311 603L303 595Q262 553
225 553H222Q202 553 188 563T168 590T167 626T191 665L200 674Z" />
<glyph unicode="&#xf5;" glyph-name="otilde" horiz-adv-x="622" d="M606 261Q606 198 584 148T523 63T430 10T311 -9Q246 -9 192 9T99 63T38 148T16 261Q16 324 38 375T99 463T192 518T311 538Q375 538 429 519T523 463T584 376T606 261ZM240 260Q240 190 259
159T311 127Q344 127 362 158T381 260Q381 330 363 361T311 392Q278 392 259 361T240 260ZM374 559Q356 559 340 562T309 570T282 579T261 583Q247 583 238 578T220 566Q212 560 204 555T184 550H182Q159 550 145 568T137 626Q145 669 174 693T247 718Q265 718
281 714T312 706T338 698T359 694Q373 694 383 699T401 710Q409 716 417 721T437 726H439Q462 726 476 709T484 651Q476 608 447 584T374 559Z" />
<glyph unicode="&#xf6;" glyph-name="odieresis" horiz-adv-x="622" d="M606 261Q606 198 584 148T523 63T430 10T311 -9Q246 -9 192 9T99 63T38 148T16 261Q16 324 38 375T99 463T192 518T311 538Q375 538 429 519T523 463T584 376T606 261ZM240 260Q240 190
259 159T311 127Q344 127 362 158T381 260Q381 330 363 361T311 392Q278 392 259 361T240 260ZM297 640Q297 599 271 576T201 552Q158 552 132 575T105 640Q105 680 131 703T201 727Q244 727 270 704T297 640ZM517 640Q517 599 491 576T421 552Q378 552 352 575T325
640Q325 680 351 703T421 727Q464 727 490 704T517 640Z" />
<glyph unicode="&#xf7;" glyph-name="divide" horiz-adv-x="545" d="M92 261Q54 261 37 282T20 333V359Q20 388 37 409T92 430H454Q492 430 509 409T526 359V333Q526 303 509 282T454 261H92ZM165 135Q165 157 173 175T196 207T230 229T273 237Q295 237 314 229T348
208T371 176T380 135Q380 113 372 95T349 63T315 42T273 34Q250 34 231 41T197 62T174 94T165 135ZM165 555Q165 577 173 595T196 627T230 649T273 657Q295 657 314 649T348 628T371 596T380 555Q380 533 372 515T349 483T315 462T273 454Q250 454 231 461T197
482T174 514T165 555Z" />
<glyph unicode="&#xf8;" glyph-name="oslash" horiz-adv-x="622" d="M532 453Q567 418 586 370T606 261Q606 198 584 148T523 63T430 10T311 -9Q221 -9 154 26L122 -10Q111 -23 102 -27T84 -32H83Q70 -32 61 -26T48 -11T46 10T60 34L91 70Q56 105 36 153T16 261Q16
324 38 375T99 463T192 518T311 538Q357 538 397 528T472 499L500 531Q511 544 520 548T538 553H539Q551 553 560 547T574 532T576 511T562 487L532 453ZM388 260Q388 268 388 275T387 289L259 145Q278 120 311 120Q346 120 367 153T388 260ZM233 260Q233 252 233
245T234 231L361 374Q342 397 311 397Q276 397 255 365T233 260Z" />
<glyph unicode="&#xf9;" glyph-name="ugrave" horiz-adv-x="634" d="M449 0Q418 0 401 14T375 73Q341 41 299 16T195 -9Q163 -9 135 -2T85 25T52 75T40 153V451Q40 489 61 508T117 528H186Q219 528 240 509T262 451V199Q262 170 277 161T324 151Q335 151 347 153T369
158V451Q369 489 390 508T446 528H514Q548 528 569 509T591 451V78Q591 38 571 19T516 0H449ZM381 626Q389 594 372 574T321 554H314Q286 554 262 564T211 599L184 624Q168 639 164 655T164 684T183 706T217 715H294Q326 715 347 700T375 653L381 626Z" />
<glyph unicode="&#xfa;" glyph-name="uacute" horiz-adv-x="634" d="M449 0Q418 0 401 14T375 73Q341 41 299 16T195 -9Q163 -9 135 -2T85 25T52 75T40 153V451Q40 489 61 508T117 528H186Q219 528 240 509T262 451V199Q262 170 277 161T324 151Q335 151 347 153T369
158V451Q369 489 390 508T446 528H514Q548 528 569 509T591 451V78Q591 38 571 19T516 0H449ZM261 653Q276 715 342 715H419Q439 715 452 707T471 685T473 655T452 624L425 599Q398 575 375 565T322 554H315Q281 554 265 574T255 626L261 653Z" />
<glyph unicode="&#xfb;" glyph-name="ucircumflex" horiz-adv-x="634" d="M449 0Q418 0 401 14T375 73Q341 41 299 16T195 -9Q163 -9 135 -2T85 25T52 75T40 153V451Q40 489 61 508T117 528H186Q219 528 240 509T262 451V199Q262 170 277 161T324 151Q335 151
347 153T369 158V451Q369 489 390 508T446 528H514Q548 528 569 509T591 451V78Q591 38 571 19T516 0H449ZM206 674Q230 698 257 708T313 719H321Q350 719 377 709T428 674L437 665Q456 646 461 627T461 591T441 564T406 553H403Q365 553 325 595L317 603L309 595Q268
553 231 553H228Q208 553 194 563T174 590T173 626T197 665L206 674Z" />
<glyph unicode="&#xfc;" glyph-name="udieresis" horiz-adv-x="634" d="M449 0Q418 0 401 14T375 73Q341 41 299 16T195 -9Q163 -9 135 -2T85 25T52 75T40 153V451Q40 489 61 508T117 528H186Q219 528 240 509T262 451V199Q262 170 277 161T324 151Q335 151 347
153T369 158V451Q369 489 390 508T446 528H514Q548 528 569 509T591 451V78Q591 38 571 19T516 0H449ZM303 640Q303 599 277 576T207 552Q164 552 138 575T111 640Q111 680 137 703T207 727Q250 727 276 704T303 640ZM523 640Q523 599 497 576T427 552Q384 552
358 575T331 640Q331 680 357 703T427 727Q470 727 496 704T523 640Z" />
<glyph unicode="&#xfd;" glyph-name="yacute" horiz-adv-x="595" d="M360 -95Q345 -133 321 -149T265 -165H182Q150 -165 137 -141T141 -79L191 26L29 429Q13 469 28 498T86 528H155Q190 528 210 511T244 456L311 262H314L378 458Q390 496 409 512T463 528H512Q553
528 567 500T566 429L360 -95ZM256 653Q271 715 337 715H414Q434 715 447 707T466 685T468 655T447 624L420 599Q393 575 370 565T317 554H310Q276 554 260 574T250 626L256 653Z" />
<glyph unicode="&#xfe;" glyph-name="thorn" horiz-adv-x="630" d="M175 700Q224 700 244 674T264 583V473Q292 502 329 520T419 538Q456 538 491 525T553 482T596 402T613 279Q613 205 598 152T554 63T486 11T397 -6Q315 -6 264 36V-85Q264 -124 242 -143T187
-162H118Q85 -162 63 -143T41 -85V622Q41 661 62 680T117 700H175ZM312 377Q301 377 289 375T264 368V145Q273 140 284 137T310 134Q326 134 340 139T365 159T382 198T388 262Q388 297 382 319T366 354T342 372T312 377Z" />
<glyph unicode="&#xff;" glyph-name="ydieresis" horiz-adv-x="595" d="M360 -95Q345 -133 321 -149T265 -165H182Q150 -165 137 -141T141 -79L191 26L29 429Q13 469 28 498T86 528H155Q190 528 210 511T244 456L311 262H314L378 458Q390 496 409 512T463 528H512Q553
528 567 500T566 429L360 -95ZM295 640Q295 599 269 576T199 552Q156 552 130 575T103 640Q103 680 129 703T199 727Q242 727 268 704T295 640ZM515 640Q515 599 489 576T419 552Q376 552 350 575T323 640Q323 680 349 703T419 727Q462 727 488 704T515 640Z" />
<glyph unicode="&#x100;" glyph-name="Amacron" horiz-adv-x="730" d="M448 854Q480 854 494 837T508 794V792Q508 767 494 750T448 732H272Q240 732 226 749T212 792V794Q212 819 226 836T272 854H448ZM83 0Q47 0 32 25T30 95L206 623Q219 663 246 681T310 700H419Q455
700 481 682T522 623L698 100Q713 55 695 28T642 0H553Q518 0 497 17T465 74L448 134H239L222 73Q202 0 139 0H83ZM283 291H404L345 501H342L283 291Z" />
<glyph unicode="&#x101;" glyph-name="amacron" horiz-adv-x="576" d="M397 0Q370 0 354 13T329 49Q301 20 264 7T179 -7Q146 -7 117 2T65 31T29 80T15 149Q15 233 71 272T220 311Q248 311 271 310T316 304V323Q316 355 298 368T235 382Q212 382 195 378T163 368T135
359T109 354Q85 354 69 369T52 413V432Q52 467 68 486T120 517Q153 528 195 533T285 538Q415 538 476 492T538 339V78Q538 38 518 19T463 0H397ZM270 114Q282 114 294 118T316 130V213Q306 215 295 216T275 217Q249 217 236 205T222 163Q222 136 236 125T270 114ZM372
694Q404 694 418 677T432 634V632Q432 607 418 590T372 572H198Q166 572 152 589T138 632V634Q138 659 152 676T198 694H372Z" />
<glyph unicode="&#x102;" glyph-name="Abreve" horiz-adv-x="730" d="M83 0Q47 0 32 25T30 95L206 623Q219 663 246 681T310 700H419Q455 700 481 682T522 623L698 100Q713 55 695 28T642 0H553Q518 0 497 17T465 74L448 134H239L222 73Q202 0 139 0H83ZM283 291H404L345
501H342L283 291ZM360 725Q327 725 299 733T251 756T219 788T203 826Q199 850 211 866T250 883H253Q267 883 279 876T303 861Q314 853 327 846T360 839Q379 839 392 846T417 861Q429 869 441 876T467 883H470Q496 883 508 867T517 826Q514 806 502 788T469 756T421
734T360 725Z" />
<glyph unicode="&#x103;" glyph-name="abreve" horiz-adv-x="576" d="M397 0Q370 0 354 13T329 49Q301 20 264 7T179 -7Q146 -7 117 2T65 31T29 80T15 149Q15 233 71 272T220 311Q248 311 271 310T316 304V323Q316 355 298 368T235 382Q212 382 195 378T163 368T135
359T109 354Q85 354 69 369T52 413V432Q52 467 68 486T120 517Q153 528 195 533T285 538Q415 538 476 492T538 339V78Q538 38 518 19T463 0H397ZM270 114Q282 114 294 118T316 130V213Q306 215 295 216T275 217Q249 217 236 205T222 163Q222 136 236 125T270 114ZM285
556Q252 556 224 564T175 588T142 623T126 665Q123 691 134 708T172 726H175Q190 726 202 719T226 702Q238 693 252 686T285 678Q304 678 317 685T344 702Q356 711 368 718T395 726H398Q424 726 436 709T444 665Q440 643 427 623T394 588T346 565T285 556Z" />
<glyph unicode="&#x104;" glyph-name="Aogonek" horiz-adv-x="730" d="M671 4Q654 -7 647 -17T639 -36Q639 -52 664 -63Q684 -73 691 -83T698 -111V-113Q698 -138 675 -154T602 -170Q581 -170 558 -167T516 -155T485 -131T473 -90Q473 -57 495 -35T550 1Q511 3
493 20T465 72L447 134H239L222 73Q202 0 139 0H83Q47 0 32 25T30 95L206 623Q219 663 246 681T310 700H419Q455 700 481 682T522 623L698 98Q709 63 702 41T671 4ZM283 291H403L345 501H342L283 291Z" />
<glyph unicode="&#x105;" glyph-name="aogonek" horiz-adv-x="576" d="M506 8Q487 -6 481 -14T474 -34Q474 -42 479 -49T500 -63Q520 -72 527 -83T535 -111V-113Q535 -138 512 -154T439 -170Q418 -170 395 -167T353 -155T322 -131T310 -90Q310 -57 332 -34T386
2Q363 5 350 18T328 48Q276 -7 179 -7Q146 -7 117 2T65 31T29 80T15 149Q15 233 71 272T220 311Q248 311 271 310T316 304V323Q316 355 298 368T235 382Q212 382 195 378T163 368T135 359T109 354Q86 354 69 369T52 413V432Q52 467 68 486T120 517Q153 528 195
533T285 538Q415 538 476 492T538 339V76Q538 49 531 36T506 8ZM270 114Q282 114 294 118T316 130V213Q306 215 295 216T275 217Q249 217 236 205T222 163Q222 136 236 125T270 114Z" />
<glyph unicode="&#x106;" glyph-name="Cacute" horiz-adv-x="654" d="M560 24Q526 8 481 -1T382 -11Q299 -11 233 12T121 80T50 191T25 343Q25 431 51 500T127 615T246 686T403 711Q450 711 487 705T557 686Q588 674 605 653T622 594V567Q622 538 606 520T561
502Q543 502 528 508T495 523T458 537T408 544Q344 544 306 500T268 353Q268 297 276 259T302 197T343 163T400 152Q431 152 454 160T495 177T529 194T563 202Q591 202 608 186T626 140V121Q626 84 609 61T560 24ZM316 823Q334 883 397 883H472Q494 883 508 875T527
853T527 823T506 793L479 769Q453 746 427 736T375 725H365Q333 725 316 744T308 797L316 823Z" />
<glyph unicode="&#x107;" glyph-name="cacute" horiz-adv-x="523" d="M438 10Q412 1 379 -4T308 -9Q171 -9 94 58T16 262Q16 328 37 379T98 465T194 519T322 538Q351 538 381 534T436 522Q466 512 483 494T500 440V416Q500 387 486 373T448 358Q435 358 424 362T400
371T374 381T340 385Q295 385 269 356T242 260Q242 197 266 167T337 137Q358 137 373 142T400 153T424 164T447 169Q476 169 488 153T500 112V92Q500 59 484 40T438 10ZM236 653Q251 715 317 715H394Q414 715 427 707T446 685T448 655T427 624L400 599Q373 575
350 565T297 554H290Q256 554 240 574T230 626L236 653Z" />
<glyph unicode="&#x108;" glyph-name="Ccircumflex" horiz-adv-x="654" d="M560 24Q526 8 481 -1T382 -11Q299 -11 233 12T121 80T50 191T25 343Q25 431 51 500T127 615T246 686T403 711Q450 711 487 705T557 686Q588 674 605 653T622 594V567Q622 538 606 520T561
502Q543 502 528 508T495 523T458 537T408 544Q344 544 306 500T268 353Q268 297 276 259T302 197T343 163T400 152Q431 152 454 160T495 177T529 194T563 202Q591 202 608 186T626 140V121Q626 84 609 61T560 24ZM367 766Q345 744 327 734T288 724H286Q266 724
252 734T232 759T230 793T251 830L260 840Q280 863 308 875T368 887H382Q413 887 441 875T490 840L499 830Q515 812 519 793T519 759T499 734T464 724H462Q442 724 424 734T383 766L375 774L367 766Z" />
<glyph unicode="&#x109;" glyph-name="ccircumflex" horiz-adv-x="523" d="M438 10Q412 1 379 -4T308 -9Q171 -9 94 58T16 262Q16 328 37 379T98 465T194 519T322 538Q351 538 381 534T436 522Q466 512 483 494T500 440V416Q500 387 486 373T448 358Q435 358 424
362T400 371T374 381T340 385Q295 385 269 356T242 260Q242 197 266 167T337 137Q358 137 373 142T400 153T424 164T447 169Q476 169 488 153T500 112V92Q500 59 484 40T438 10ZM180 674Q204 698 231 708T287 719H295Q324 719 351 709T402 674L411 665Q430 646
435 627T435 591T415 564T380 553H377Q339 553 299 595L291 603L283 595Q242 553 205 553H202Q182 553 168 563T148 590T147 626T171 665L180 674Z" />
<glyph unicode="&#x10a;" glyph-name="Cdotaccent" horiz-adv-x="654" d="M560 24Q526 8 481 -1T382 -11Q299 -11 233 12T121 80T50 191T25 343Q25 431 51 500T127 615T246 686T403 711Q450 711 487 705T557 686Q588 674 605 653T622 594V567Q622 538 606 520T561
502Q543 502 528 508T495 523T458 537T408 544Q344 544 306 500T268 353Q268 297 276 259T302 197T343 163T400 152Q431 152 454 160T495 177T529 194T563 202Q591 202 608 186T626 140V121Q626 84 609 61T560 24ZM481 817Q481 775 452 751T375 727Q327 727 298
751T269 817Q269 859 298 884T375 909Q423 909 452 884T481 817Z" />
<glyph unicode="&#x10b;" glyph-name="cdotaccent" horiz-adv-x="523" d="M438 10Q412 1 379 -4T308 -9Q171 -9 94 58T16 262Q16 328 37 379T98 465T194 519T322 538Q351 538 381 534T436 522Q466 512 483 494T500 440V416Q500 387 486 373T448 358Q435 358 424
362T400 371T374 381T340 385Q295 385 269 356T242 260Q242 197 266 167T337 137Q358 137 373 142T400 153T424 164T447 169Q476 169 488 153T500 112V92Q500 59 484 40T438 10ZM398 645Q398 603 369 579T292 554Q244 554 215 578T186 645Q186 687 215 712T292
737Q340 737 369 712T398 645Z" />
<glyph unicode="&#x10c;" glyph-name="Ccaron" horiz-adv-x="654" d="M560 24Q526 8 481 -1T382 -11Q299 -11 233 12T121 80T50 191T25 343Q25 431 51 500T127 615T246 686T403 711Q450 711 487 705T557 686Q588 674 605 653T622 594V567Q622 538 606 520T561
502Q543 502 528 508T495 523T458 537T408 544Q344 544 306 500T268 353Q268 297 276 259T302 197T343 163T400 152Q431 152 454 160T495 177T529 194T563 202Q591 202 608 186T626 140V121Q626 84 609 61T560 24ZM376 838L384 846Q406 868 424 878T463 888H465Q485
888 499 878T519 853T521 819T500 782L491 772Q471 749 443 737T383 725H369Q338 725 310 737T261 772L252 782Q235 800 231 819T232 853T252 878T287 888H289Q309 888 327 878T368 846L376 838Z" />
<glyph unicode="&#x10d;" glyph-name="ccaron" horiz-adv-x="523" d="M438 10Q412 1 379 -4T308 -9Q171 -9 94 58T16 262Q16 328 37 379T98 465T194 519T322 538Q351 538 381 534T436 522Q466 512 483 494T500 440V416Q500 387 486 373T448 358Q435 358 424 362T400
371T374 381T340 385Q295 385 269 356T242 260Q242 197 266 167T337 137Q358 137 373 142T400 153T424 164T447 169Q476 169 488 153T500 112V92Q500 59 484 40T438 10ZM173 608Q154 627 149 646T149 682T169 709T204 720H207Q244 720 285 678L293 670L301 678Q341
720 379 720H382Q402 720 416 710T436 683T437 647T413 608L404 599Q380 575 353 565T297 554H289Q260 554 233 564T182 599L173 608Z" />
<glyph unicode="&#x10e;" glyph-name="Dcaron" horiz-adv-x="731" d="M131 0Q96 0 73 20T50 80V620Q50 660 73 680T131 700H332Q523 700 615 613T707 355Q707 179 614 90T325 0H131ZM288 154H318Q355 154 383 163T430 195T458 255T467 346Q467 454 431 497T318
541H288V154ZM332 838L340 846Q362 868 380 878T419 888H421Q441 888 455 878T475 853T477 819T456 782L447 772Q427 749 399 737T339 725H325Q294 725 266 737T217 772L208 782Q191 800 187 819T188 853T208 878T243 888H245Q265 888 283 878T324 846L332 838Z"
/>
<glyph unicode="&#x10f;" glyph-name="dcaron" horiz-adv-x="631" d="M590 78Q590 38 570 19T514 0H446Q423 0 407 11T380 51Q357 26 322 8T229 -10Q183 -10 145 5T78 53T34 137T18 260Q18 338 37 391T88 477T157 524T231 538Q282 538 313 523T368 481V622Q368
661 388 680T443 700H505Q529 700 545 695T571 677T585 641T590 583V78ZM322 377Q306 377 292 372T267 355T250 320T243 261Q243 187 262 159T316 130Q332 130 344 134T368 146V367Q348 377 322 377ZM743 580Q726 552 709 541T671 529H668Q646 529 631 542T616
585V631Q616 661 632 681T689 702H714Q755 702 770 677T765 618L743 580Z" />
<glyph unicode="&#x110;" glyph-name="Dcroat" horiz-adv-x="731" d="M133 0Q98 0 76 20T53 80V278Q21 281 7 301T-8 349V353Q-8 380 6 399T53 422V620Q53 660 75 680T133 700H334Q525 700 617 613T710 355Q710 179 617 90T327 0H133ZM290 278V154H321Q358 154
386 163T432 195T460 255T469 346Q469 454 433 497T321 541H290V423H322Q359 423 375 403T392 353V349Q392 319 376 299T322 278H290Z" />
<glyph unicode="&#x111;" glyph-name="dcroat" horiz-adv-x="631" d="M590 78Q590 38 570 19T514 0H446Q423 0 407 11T380 52Q357 27 322 9T229 -10Q183 -10 145 5T78 53T34 137T18 260Q18 338 37 391T88 477T157 524T231 538Q282 538 313 523T368 481V557H295Q270
557 259 571T248 604V606Q248 626 259 639T295 653H372Q380 676 398 688T443 700H505Q537 700 555 690T582 653H591Q616 653 627 640T639 606V604Q639 585 628 571T591 557H590V78ZM322 377Q306 377 292 372T267 355T250 320T243 261Q243 187 262 159T316 130Q332
130 344 134T368 146V367Q348 377 322 377Z" />
<glyph unicode="&#x112;" glyph-name="Emacron" horiz-adv-x="604" d="M131 0Q96 0 73 20T50 80V620Q50 660 73 680T131 700H491Q523 700 542 682T562 629V612Q562 576 543 558T491 540H287V428H413Q444 428 464 411T484 358V348Q484 312 464 295T413 277H287V156H500Q532
156 551 138T571 85V71Q571 35 552 18T500 0H131ZM403 1110Q435 1110 449 1093T463 1050V1048Q463 1023 449 1006T403 988H227Q195 988 181 1005T167 1048V1050Q167 1075 181 1092T227 1110H403Z" />
<glyph unicode="&#x113;" glyph-name="emacron" horiz-adv-x="580" d="M239 216Q246 166 271 149T343 132Q375 132 396 137T433 148T461 159T489 164Q513 164 527 150T542 109V94Q542 41 488 19Q456 5 412 -2T308 -9Q160 -9 88 63T16 261Q16 324 36 375T93 463T182
518T301 538Q435 538 499 470T564 285Q564 251 545 234T492 216H239ZM302 404Q290 404 280 401T262 388T247 362T238 318H361Q359 368 345 386T302 404ZM381 694Q413 694 427 677T441 634V632Q441 607 427 590T381 572H207Q175 572 161 589T147 632V634Q147 659
161 676T207 694H381Z" />
<glyph unicode="&#x114;" glyph-name="Ebreve" horiz-adv-x="604" d="M131 0Q96 0 73 20T50 80V620Q50 660 73 680T131 700H491Q523 700 542 682T562 629V612Q562 576 543 558T491 540H287V428H413Q444 428 464 411T484 358V348Q484 312 464 295T413 277H287V156H500Q532
156 551 138T571 85V71Q571 35 552 18T500 0H131ZM315 725Q282 725 254 733T206 756T174 788T158 826Q154 850 166 866T205 883H208Q222 883 234 876T258 861Q269 853 282 846T315 839Q334 839 347 846T372 861Q384 869 396 876T422 883H425Q451 883 463 867T472
826Q469 806 457 788T424 756T376 734T315 725Z" />
<glyph unicode="&#x115;" glyph-name="ebreve" horiz-adv-x="580" d="M239 216Q246 166 271 149T343 132Q375 132 396 137T433 148T461 159T489 164Q513 164 527 150T542 109V94Q542 41 488 19Q456 5 412 -2T308 -9Q160 -9 88 63T16 261Q16 324 36 375T93 463T182
518T301 538Q435 538 499 470T564 285Q564 251 545 234T492 216H239ZM302 404Q290 404 280 401T262 388T247 362T238 318H361Q359 368 345 386T302 404ZM294 556Q261 556 233 564T184 588T151 623T135 665Q132 691 143 708T181 726H184Q199 726 211 719T235 702Q247
693 261 686T294 678Q313 678 326 685T353 702Q365 711 377 718T404 726H407Q433 726 445 709T453 665Q449 643 436 623T403 588T355 565T294 556Z" />
<glyph unicode="&#x116;" glyph-name="Edotaccent" horiz-adv-x="604" d="M131 0Q96 0 73 20T50 80V620Q50 660 73 680T131 700H491Q523 700 542 682T562 629V612Q562 576 543 558T491 540H287V428H413Q444 428 464 411T484 358V348Q484 312 464 295T413 277H287V156H500Q532
156 551 138T571 85V71Q571 35 552 18T500 0H131ZM421 817Q421 775 392 751T315 727Q267 727 238 751T209 817Q209 859 238 884T315 909Q363 909 392 884T421 817Z" />
<glyph unicode="&#x117;" glyph-name="edotaccent" horiz-adv-x="580" d="M239 216Q246 166 271 149T343 132Q375 132 396 137T433 148T461 159T489 164Q513 164 527 150T542 109V94Q542 41 488 19Q456 5 412 -2T308 -9Q160 -9 88 63T16 261Q16 324 36 375T93
463T182 518T301 538Q435 538 499 470T564 285Q564 251 545 234T492 216H239ZM302 404Q290 404 280 401T262 388T247 362T238 318H361Q359 368 345 386T302 404ZM402 645Q402 603 373 579T296 554Q248 554 219 578T190 645Q190 687 219 712T296 737Q344 737 373
712T402 645Z" />
<glyph unicode="&#x118;" glyph-name="Eogonek" horiz-adv-x="604" d="M520 -2Q504 -11 499 -19T493 -36Q493 -45 498 -51T518 -63Q538 -73 545 -83T552 -111V-113Q552 -138 529 -154T456 -170Q435 -170 412 -167T370 -155T339 -131T327 -90Q327 -57 352 -34T416
0H131Q96 0 73 20T50 80V620Q50 660 73 680T131 700H491Q523 700 542 682T562 629V612Q562 576 543 558T491 540H287V428H413Q444 428 464 411T484 358V348Q484 312 464 295T413 277H287V156H500Q532 156 551 138T571 85V71Q571 44 560 29T520 -2Z" />
<glyph unicode="&#x119;" glyph-name="eogonek" horiz-adv-x="580" d="M449 -35Q449 -48 473 -61Q492 -71 499 -81T506 -111V-113Q506 -138 483 -154T410 -170Q389 -170 366 -167T324 -155T293 -131T281 -90Q281 -61 298 -41T339 -8Q336 -9 325 -9T308 -9Q234
-9 179 9T88 63T34 148T16 261Q16 324 36 375T93 463T182 518T301 538Q368 538 417 521T499 470T548 390T564 285Q564 251 545 234T492 216H239Q246 166 271 149T343 132Q375 132 396 137T433 148T461 159T489 164Q513 164 527 150T542 109V91Q542 64 531 46T490
8Q472 -5 461 -14T449 -35ZM302 404Q278 404 261 388T238 318H361Q359 368 345 386T302 404Z" />
<glyph unicode="&#x11a;" glyph-name="Ecaron" horiz-adv-x="604" d="M131 0Q96 0 73 20T50 80V620Q50 660 73 680T131 700H491Q523 700 542 682T562 629V612Q562 576 543 558T491 540H287V428H413Q444 428 464 411T484 358V348Q484 312 464 295T413 277H287V156H500Q532
156 551 138T571 85V71Q571 35 552 18T500 0H131ZM315 838L323 846Q345 868 363 878T402 888H404Q424 888 438 878T458 853T460 819T439 782L430 772Q410 749 382 737T322 725H308Q277 725 249 737T200 772L191 782Q174 800 170 819T171 853T191 878T226 888H228Q248
888 266 878T307 846L315 838Z" />
<glyph unicode="&#x11b;" glyph-name="ecaron" horiz-adv-x="580" d="M239 216Q246 166 271 149T343 132Q375 132 396 137T433 148T461 159T489 164Q513 164 527 150T542 109V94Q542 41 488 19Q456 5 412 -2T308 -9Q160 -9 88 63T16 261Q16 324 36 375T93 463T182
518T301 538Q435 538 499 470T564 285Q564 251 545 234T492 216H239ZM302 404Q290 404 280 401T262 388T247 362T238 318H361Q359 368 345 386T302 404ZM177 608Q158 627 153 646T153 682T173 709T208 720H211Q248 720 289 678L297 670L305 678Q345 720 383 720H386Q406
720 420 710T440 683T441 647T417 608L408 599Q384 575 357 565T301 554H293Q264 554 237 564T186 599L177 608Z" />
<glyph unicode="&#x11c;" glyph-name="Gcircumflex" horiz-adv-x="706" d="M584 17Q542 3 491 -4T385 -11Q290 -11 222 13T110 82T45 193T24 343Q24 432 50 501T127 616T249 687T412 711Q459 711 497 706T566 690Q599 679 616 658T633 601V570Q633 538 616 522T571
506Q554 506 540 512T509 524T470 537T413 543Q377 543 350 533T304 499T276 437T266 344Q266 287 273 249T294 187T331 153T384 143Q404 143 418 145T442 150V240H421Q393 240 378 254T363 303V320Q363 353 380 368T430 383H583Q618 383 639 363T661 302V115Q661
73 642 52T584 17ZM368 766Q346 744 328 734T289 724H287Q267 724 253 734T233 759T231 793T252 830L261 840Q281 863 309 875T369 887H383Q414 887 442 875T491 840L500 830Q516 812 520 793T520 759T500 734T465 724H463Q443 724 425 734T384 766L376 774L368
766Z" />
<glyph unicode="&#x11d;" glyph-name="gcircumflex" horiz-adv-x="631" d="M368 75Q345 55 310 45T231 35Q187 35 149 46T81 86T35 161T18 279Q18 354 37 404T88 483T159 525T238 538Q287 538 321 520T384 468Q395 494 415 511T467 528H517Q549 528 569 510T590
453V55Q590 -2 568 -44T504 -114T404 -156T272 -170Q222 -170 182 -166T111 -153Q79 -144 62 -124T45 -75V-50Q45 -23 61 -7T103 9Q118 9 130 5T157 -5T192 -14T243 -19Q308 -19 338 -1T368 55V75ZM318 164Q345 164 368 177V367Q347 377 321 377Q305 377 291 374T267
360T250 329T243 274Q243 237 248 216T263 183T286 168T318 164ZM210 674Q234 698 261 708T317 719H325Q354 719 381 709T432 674L441 665Q460 646 465 627T465 591T445 564T410 553H407Q369 553 329 595L321 603L313 595Q272 553 235 553H232Q212 553 198 563T178
590T177 626T201 665L210 674Z" />
<glyph unicode="&#x11e;" glyph-name="Gbreve" horiz-adv-x="706" d="M584 17Q542 3 491 -4T385 -11Q290 -11 222 13T110 82T45 193T24 343Q24 432 50 501T127 616T249 687T412 711Q459 711 497 706T566 690Q599 679 616 658T633 601V570Q633 538 616 522T571
506Q554 506 540 512T509 524T470 537T413 543Q377 543 350 533T304 499T276 437T266 344Q266 287 273 249T294 187T331 153T384 143Q404 143 418 145T442 150V240H421Q393 240 378 254T363 303V320Q363 353 380 368T430 383H583Q618 383 639 363T661 302V115Q661
73 642 52T584 17ZM377 725Q344 725 316 733T268 756T236 788T220 826Q216 850 228 866T267 883H270Q284 883 296 876T320 861Q331 853 344 846T377 839Q396 839 409 846T434 861Q446 869 458 876T484 883H487Q513 883 525 867T534 826Q531 806 519 788T486 756T438
734T377 725Z" />
<glyph unicode="&#x11f;" glyph-name="gbreve" horiz-adv-x="631" d="M368 75Q345 55 310 45T231 35Q187 35 149 46T81 86T35 161T18 279Q18 354 37 404T88 483T159 525T238 538Q287 538 321 520T384 468Q395 494 415 511T467 528H517Q549 528 569 510T590 453V55Q590
-2 568 -44T504 -114T404 -156T272 -170Q222 -170 182 -166T111 -153Q79 -144 62 -124T45 -75V-50Q45 -23 61 -7T103 9Q118 9 130 5T157 -5T192 -14T243 -19Q308 -19 338 -1T368 55V75ZM318 164Q345 164 368 177V367Q347 377 321 377Q305 377 291 374T267 360T250
329T243 274Q243 237 248 216T263 183T286 168T318 164ZM321 556Q288 556 260 564T211 588T178 623T162 665Q159 691 170 708T208 726H211Q226 726 238 719T262 702Q274 693 288 686T321 678Q340 678 353 685T380 702Q392 711 404 718T431 726H434Q460 726 472
709T480 665Q476 643 463 623T430 588T382 565T321 556Z" />
<glyph unicode="&#x120;" glyph-name="Gdotaccent" horiz-adv-x="706" d="M584 17Q542 3 491 -4T385 -11Q290 -11 222 13T110 82T45 193T24 343Q24 432 50 501T127 616T249 687T412 711Q459 711 497 706T566 690Q599 679 616 658T633 601V570Q633 538 616 522T571
506Q554 506 540 512T509 524T470 537T413 543Q377 543 350 533T304 499T276 437T266 344Q266 287 273 249T294 187T331 153T384 143Q404 143 418 145T442 150V240H421Q393 240 378 254T363 303V320Q363 353 380 368T430 383H583Q618 383 639 363T661 302V115Q661
73 642 52T584 17ZM483 817Q483 775 454 751T377 727Q329 727 300 751T271 817Q271 859 300 884T377 909Q425 909 454 884T483 817Z" />
<glyph unicode="&#x121;" glyph-name="gdotaccent" horiz-adv-x="631" d="M368 75Q345 55 310 45T231 35Q187 35 149 46T81 86T35 161T18 279Q18 354 37 404T88 483T159 525T238 538Q287 538 321 520T384 468Q395 494 415 511T467 528H517Q549 528 569 510T590
453V55Q590 -2 568 -44T504 -114T404 -156T272 -170Q222 -170 182 -166T111 -153Q79 -144 62 -124T45 -75V-50Q45 -23 61 -7T103 9Q118 9 130 5T157 -5T192 -14T243 -19Q308 -19 338 -1T368 55V75ZM318 164Q345 164 368 177V367Q347 377 321 377Q305 377 291 374T267
360T250 329T243 274Q243 237 248 216T263 183T286 168T318 164ZM423 645Q423 603 394 579T317 554Q269 554 240 578T211 645Q211 687 240 712T317 737Q365 737 394 712T423 645Z" />
<glyph unicode="&#x122;" glyph-name="Gcommaaccent" horiz-adv-x="706" d="M584 17Q542 3 491 -4T385 -11Q290 -11 222 13T110 82T45 193T24 343Q24 432 50 501T127 616T249 687T412 711Q459 711 497 706T566 690Q599 679 616 658T633 601V570Q633 538 616 522T571
506Q554 506 540 512T509 524T470 537T413 543Q377 543 350 533T304 499T276 437T266 344Q266 287 273 249T294 187T331 153T384 143Q404 143 418 145T442 150V240H421Q393 240 378 254T363 303V320Q363 353 380 368T430 383H583Q618 383 639 363T661 302V115Q661
73 642 52T584 17ZM289 -210Q289 -199 295 -191T319 -177Q337 -172 343 -168T349 -157Q349 -151 343 -147T322 -135Q305 -126 298 -115T290 -85Q290 -58 312 -41T375 -23Q416 -23 440 -45T464 -111Q464 -167 430 -201T336 -241Q289 -245 289 -212V-210Z" />
<glyph unicode="&#x123;" glyph-name="gcommaaccent" horiz-adv-x="631" d="M368 75Q345 55 310 45T231 35Q187 35 149 46T81 86T35 161T18 279Q18 354 37 404T88 483T159 525T238 538Q287 538 321 520T384 468Q395 494 415 511T467 528H517Q549 528 569 510T590
453V55Q590 -2 568 -44T504 -114T404 -156T272 -170Q222 -170 182 -166T111 -153Q79 -144 62 -124T45 -75V-50Q45 -23 61 -7T103 9Q118 9 130 5T157 -5T192 -14T243 -19Q308 -19 338 -1T368 55V75ZM398 745Q398 734 392 726T368 712Q350 707 344 703T338 692Q338
686 344 682T365 670Q382 661 389 650T397 620Q397 593 375 576T312 558Q271 558 247 580T223 646Q223 702 257 736T351 776Q398 780 398 747V745ZM318 164Q345 164 368 177V367Q347 377 321 377Q305 377 291 374T267 360T250 329T243 274Q243 237 248 216T263
183T286 168T318 164Z" />
<glyph unicode="&#x124;" glyph-name="Hcircumflex" horiz-adv-x="737" d="M288 79Q288 39 266 20T210 0H129Q95 0 73 19T50 79V621Q50 660 72 680T129 700H210Q244 700 266 680T288 621V439H449V621Q449 660 471 680T528 700H608Q643 700 665 680T687 621V79Q687
39 665 20T608 0H528Q493 0 471 19T449 79V270H288V79ZM360 766Q338 744 320 734T281 724H279Q259 724 245 734T225 759T223 793T244 830L253 840Q273 863 301 875T361 887H375Q406 887 434 875T483 840L492 830Q508 812 512 793T512 759T492 734T457 724H455Q435
724 417 734T376 766L368 774L360 766Z" />
<glyph unicode="&#x125;" glyph-name="hcircumflex" horiz-adv-x="631" d="M311 372Q298 372 286 370T264 366V77Q264 38 242 19T187 0H118Q85 0 63 19T41 77V622Q41 661 62 680T117 700H175Q199 700 216 695T243 677T259 641T264 583V459Q297 491 341 514T447
538Q478 538 504 531T550 506T581 459T592 385V77Q592 38 570 19T515 0H447Q414 0 392 19T370 77V326Q370 355 356 363T311 372ZM302 766Q280 744 262 734T223 724H221Q201 724 187 734T167 759T165 793T186 830L195 840Q215 863 243 875T303 887H317Q348 887 376
875T425 840L434 830Q450 812 454 793T454 759T434 734T399 724H397Q377 724 359 734T318 766L310 774L302 766Z" />
<glyph unicode="&#x126;" glyph-name="Hbar" horiz-adv-x="737" d="M687 503V79Q687 39 665 20T608 0H528Q493 0 471 19T449 79V270H288V79Q288 39 266 20T210 0H129Q95 0 73 19T50 79V503H49Q17 503 4 520T-10 562V564Q-10 589 3 606T49 624H50Q51 662 73 681T129
700H210Q243 700 264 681T288 624H449Q450 662 472 681T528 700H608Q642 700 663 681T687 624H688Q720 624 733 607T747 564V562Q747 538 734 521T688 503H687ZM449 434V503H288V434H449Z" />
<glyph unicode="&#x127;" glyph-name="hbar" horiz-adv-x="631" d="M175 700Q208 700 227 690T256 653H335Q360 653 371 640T382 606V604Q382 585 371 571T335 557H264V459Q297 491 341 514T447 538Q478 538 504 531T550 506T581 459T592 385V77Q592 38 570 19T515
0H447Q414 0 392 19T370 77V326Q370 355 356 363T311 372Q298 372 286 370T264 366V77Q264 38 242 19T187 0H118Q85 0 63 19T41 77V557Q16 557 5 571T-7 604V606Q-7 626 4 639T41 653H45Q53 676 72 688T117 700H175V700Z" />
<glyph unicode="&#x12a;" glyph-name="Imacron" horiz-adv-x="345" d="M257 854Q289 854 303 836T317 794V792Q317 767 303 749T257 731H88Q56 731 42 749T28 792V794Q28 818 42 836T88 854H257ZM291 79Q291 38 269 19T213 0H132Q99 0 76 19T53 79V621Q53 659
75 679T132 700H213Q248 700 269 680T291 621V79Z" />
<glyph unicode="&#x12b;" glyph-name="imacron" horiz-adv-x="306" d="M230 694Q262 694 276 677T290 634V632Q290 607 276 590T230 572H76Q44 572 30 589T15 632V634Q15 659 29 676T76 694H230ZM264 77Q264 38 242 19T187 0H118Q86 0 64 19T42 77V451Q42 490
62 509T118 528H176Q224 528 244 504T264 420V77Z" />
<glyph unicode="&#x12e;" glyph-name="Iogonek" horiz-adv-x="345" d="M259 9Q242 -4 233 -13T224 -34Q224 -45 229 -50T249 -63Q268 -72 275 -82T283 -111V-113Q283 -138 260 -154T187 -170Q166 -170 143 -167T101 -155T70 -131T58 -90Q58 -57 78 -34T127 2Q53
7 53 77V621Q53 659 75 679T132 700H213Q248 700 269 680T291 621V77Q291 51 284 36T259 9Z" />
<glyph unicode="&#x12f;" glyph-name="iogonek" horiz-adv-x="306" d="M263 643Q263 600 233 575T153 550Q104 550 74 575T43 643Q43 686 73 711T153 737Q202 737 232 712T263 643ZM202 -34Q202 -50 229 -63Q248 -72 255 -82T263 -111V-113Q263 -138 240 -154T167
-170Q146 -170 123 -167T81 -155T50 -131T38 -90Q38 -57 56 -34T107 4Q76 7 59 25T42 75V452Q42 491 62 510T118 529H176Q224 529 244 505T264 421V75Q264 50 257 37T235 12Q216 -3 209 -12T202 -34Z" />
<glyph unicode="&#x130;" glyph-name="Idotaccent" horiz-adv-x="345" d="M291 79Q291 38 269 19T213 0H132Q99 0 76 19T53 79V621Q53 659 75 679T132 700H213Q248 700 269 680T291 621V79ZM536 817Q536 775 507 751T430 727Q382 727 353 751T324 817Q324 859
353 884T430 909Q478 909 507 884T536 817Z" />
<glyph unicode="&#x131;" glyph-name="dotlessi" horiz-adv-x="306" d="M264 77Q264 38 242 19T187 0H118Q86 0 64 19T42 77V451Q42 490 62 509T118 528H176Q224 528 244 504T264 420V77Z" />
<glyph unicode="&#x134;" glyph-name="Jcircumflex" horiz-adv-x="526" d="M480 223Q480 106 414 49T203 -9Q135 -9 86 6Q48 19 31 39T14 103V124Q14 155 29 173T75 192Q90 192 101 187T123 177T147 166T179 161Q211 161 227 176T243 218V621Q243 659 264 679T321
700H402Q437 700 458 680T480 621V223ZM351 766Q329 744 311 734T272 724H270Q250 724 236 734T216 759T214 793T235 830L244 840Q264 863 292 875T352 887H366Q397 887 425 875T474 840L483 830Q499 812 503 793T503 759T483 734T448 724H446Q426 724 408 734T367
766L359 774L351 766Z" />
<glyph unicode="&#x135;" glyph-name="jcircumflex" horiz-adv-x="306" d="M264 -3Q264 -95 215 -132T70 -170Q55 -170 38 -169T9 -165Q-17 -160 -30 -146T-43 -104V-98Q-43 -73 -33 -59T2 -39Q25 -34 33 -24T42 12V451Q42 490 62 509T118 528H176Q224 528 244
504T264 420V-3ZM298 674Q322 698 349 708T405 719H413Q442 719 469 709T520 674L529 665Q548 646 553 627T553 591T533 564T498 553H495Q457 553 417 595L409 603L401 595Q360 553 323 553H320Q300 553 286 563T266 590T265 626T289 665L298 674Z" />
<glyph unicode="&#x136;" glyph-name="Kcommaaccent" horiz-adv-x="734" d="M288 441L443 637Q458 656 470 668T495 688T522 697T555 700H612Q633 700 647 691T667 666T670 634T654 600L507 427L685 107Q696 87 697 68T691 34T668 10T632 0H551Q514 0 491 15T445
69L334 266L288 217V79Q288 38 265 19T210 0H129Q96 0 73 19T50 79V621Q50 659 72 679T129 700H210Q245 700 266 680T288 621V441ZM288 -210Q288 -199 294 -191T318 -177Q336 -172 342 -168T348 -157Q348 -151 342 -147T321 -135Q304 -126 297 -115T289 -85Q289
-58 311 -41T374 -23Q415 -23 439 -45T463 -111Q463 -167 429 -201T335 -241Q288 -245 288 -212V-210Z" />
<glyph unicode="&#x137;" glyph-name="kcommaaccent" horiz-adv-x="612" d="M296 183L264 145V77Q264 38 242 19T187 0H118Q85 0 63 19T41 77V622Q41 661 62 680T117 700H175Q199 700 216 695T243 677T259 641T264 583V348L362 473Q384 502 407 515T465 528H506Q526
528 540 519T561 495T565 462T546 425L456 319L577 102Q587 83 588 65T582 33T561 9T526 0H462Q427 0 404 14T361 66L296 183ZM234 46Q234 57 240 65T264 79Q282 84 288 88T294 99Q294 105 288 109T267 121Q250 130 243 141T235 171Q235 198 257 215T320 233Q361
233 385 211T409 145Q409 89 375 55T281 15Q234 11 234 44V46Z" />
<glyph unicode="&#x139;" glyph-name="Lacute" horiz-adv-x="576" d="M131 0Q96 0 73 20T50 80V621Q50 659 72 679T129 700H210Q245 700 266 680T288 621V159H476Q513 159 531 139T549 88V71Q549 41 531 21T476 0H131ZM371 823Q389 883 452 883H527Q549 883 563
875T582 853T582 823T561 793L534 769Q508 746 482 736T430 725H420Q388 725 371 744T363 797L371 823Z" />
<glyph unicode="&#x13a;" glyph-name="lacute" horiz-adv-x="309" d="M177 700Q226 700 246 674T266 583V77Q266 38 244 19T189 0H120Q87 0 65 19T43 77V622Q43 661 64 680T119 700H177ZM347 1075Q365 1135 428 1135H503Q525 1135 539 1127T558 1105T558 1075T537
1045L510 1021Q484 998 458 988T406 977H396Q364 977 347 996T339 1049L347 1075Z" />
<glyph unicode="&#x13b;" glyph-name="Lcommaaccent" horiz-adv-x="576" d="M131 0Q96 0 73 20T50 80V621Q50 659 72 679T129 700H210Q245 700 266 680T288 621V159H476Q513 159 531 139T549 88V71Q549 41 531 21T476 0H131ZM209 46Q209 57 215 65T239 79Q257
84 263 88T269 99Q269 105 263 109T242 121Q225 130 218 141T210 171Q210 198 232 215T295 233Q336 233 360 211T384 145Q384 89 350 55T256 15Q209 11 209 44V46Z" />
<glyph unicode="&#x13c;" glyph-name="lcommaaccent" horiz-adv-x="309" d="M177 700Q226 700 246 674T266 583V77Q266 38 244 19T189 0H120Q87 0 65 19T43 77V622Q43 661 64 680T119 700H177ZM325 46Q325 57 331 65T355 79Q373 84 379 88T385 99Q385 105 379
109T358 121Q341 130 334 141T326 171Q326 198 348 215T411 233Q452 233 476 211T500 145Q500 89 466 55T372 15Q325 11 325 44V46Z" />
<glyph unicode="&#x13d;" glyph-name="Lcaron" horiz-adv-x="576" d="M466 580Q449 552 432 541T394 529H392Q369 529 354 542T339 585V631Q339 661 355 681T413 702H438Q478 702 493 677T488 618L466 580ZM131 0Q96 0 73 20T50 80V623Q50 661 72 681T129 702H210Q245
702 266 682T288 623V159H476Q513 159 531 139T549 88V71Q549 41 531 21T476 0H131Z" />
<glyph unicode="&#x13e;" glyph-name="lcaron" horiz-adv-x="309" d="M43 622Q43 661 64 680T119 700H177Q226 700 246 674T266 583V77Q266 38 244 19T189 0H120Q87 0 65 19T43 77V622ZM419 580Q402 552 384 541T346 529H344Q322 529 307 542T291 585V631Q291
661 307 681T365 702H390Q431 702 446 677T441 618L419 580Z" />
<glyph unicode="&#x141;" glyph-name="Lslash" horiz-adv-x="582" d="M135 0Q100 0 78 20T55 80V213Q30 210 13 222T-12 259Q-23 288 -13 311T28 346L55 355V621Q55 659 77 679T134 700H214Q249 700 271 680T293 621V439L371 467Q404 478 427 467T460 428Q471
399 460 375T417 340L293 296V159H481Q517 159 535 139T554 88V71Q554 41 536 21T481 0H135Z" />
<glyph unicode="&#x142;" glyph-name="lslash" horiz-adv-x="324" d="M274 495Q317 504 338 463Q349 439 343 417T310 381L274 363V77Q274 38 252 19T197 0H128Q96 0 74 19T52 77V261Q15 258 -2 296Q-14 319 -8 341T25 376L52 389V622Q52 661 72 680T127 700H185Q234
700 254 674T274 583V495Z" />
<glyph unicode="&#x143;" glyph-name="Nacute" horiz-adv-x="730" d="M125 0Q93 0 72 18T50 75V620Q50 659 73 679T131 700H226Q263 700 286 684T330 630L484 350H487V625Q487 664 508 682T562 700H605Q637 700 658 682T679 625V76Q679 38 657 19T602 0H526Q491
0 469 15T426 67L245 393H242V75Q242 37 221 19T168 0H125ZM323 823Q341 883 404 883H479Q501 883 515 875T534 853T534 823T513 793L486 769Q460 746 434 736T382 725H372Q340 725 323 744T315 797L323 823Z" />
<glyph unicode="&#x144;" glyph-name="nacute" horiz-adv-x="631" d="M311 372Q298 372 286 370T264 366V77Q264 38 242 19T187 0H118Q85 0 63 19T41 77V451Q41 490 62 509T117 528H177Q205 528 226 513T257 452Q291 486 337 512T447 538Q478 538 504 531T550
506T581 459T592 385V77Q592 38 570 19T515 0H447Q414 0 392 19T370 77V326Q370 355 356 363T311 372ZM262 653Q277 715 343 715H420Q440 715 453 707T472 685T474 655T453 624L426 599Q399 575 376 565T323 554H316Q282 554 266 574T256 626L262 653Z" />
<glyph unicode="&#x145;" glyph-name="Ncommaaccent" horiz-adv-x="730" d="M125 0Q93 0 72 18T50 75V620Q50 659 73 679T131 700H226Q263 700 286 684T330 630L484 350H487V625Q487 664 508 682T562 700H605Q637 700 658 682T679 625V76Q679 38 657 19T602 0H526Q491
0 469 15T426 67L245 393H242V75Q242 37 221 19T168 0H125ZM267 -210Q267 -199 273 -191T297 -177Q315 -172 321 -168T327 -157Q327 -151 321 -147T300 -135Q283 -126 276 -115T268 -85Q268 -58 290 -41T353 -23Q394 -23 418 -45T442 -111Q442 -167 408 -201T314
-241Q267 -245 267 -212V-210Z" />
<glyph unicode="&#x146;" glyph-name="ncommaaccent" horiz-adv-x="631" d="M311 372Q298 372 286 370T264 366V77Q264 38 242 19T187 0H118Q85 0 63 19T41 77V451Q41 490 62 509T117 528H177Q205 528 226 513T257 452Q291 486 337 512T447 538Q478 538 504 531T550
506T581 459T592 385V77Q592 38 570 19T515 0H447Q414 0 392 19T370 77V326Q370 355 356 363T311 372ZM231 46Q231 57 237 65T261 79Q279 84 285 88T291 99Q291 105 285 109T264 121Q247 130 240 141T232 171Q232 198 254 215T317 233Q358 233 382 211T406 145Q406
89 372 55T278 15Q231 11 231 44V46Z" />
<glyph unicode="&#x147;" glyph-name="Ncaron" horiz-adv-x="730" d="M125 0Q93 0 72 18T50 75V620Q50 659 73 679T131 700H226Q263 700 286 684T330 630L484 350H487V625Q487 664 508 682T562 700H605Q637 700 658 682T679 625V76Q679 38 657 19T602 0H526Q491
0 469 15T426 67L245 393H242V75Q242 37 221 19T168 0H125ZM382 838L390 846Q412 868 430 878T469 888H471Q491 888 505 878T525 853T527 819T506 782L497 772Q477 749 449 737T389 725H375Q344 725 316 737T267 772L258 782Q241 800 237 819T238 853T258 878T293
888H295Q315 888 333 878T374 846L382 838Z" />
<glyph unicode="&#x148;" glyph-name="ncaron" horiz-adv-x="631" d="M311 372Q298 372 286 370T264 366V77Q264 38 242 19T187 0H118Q85 0 63 19T41 77V451Q41 490 62 509T117 528H177Q205 528 226 513T257 452Q291 486 337 512T447 538Q478 538 504 531T550
506T581 459T592 385V77Q592 38 570 19T515 0H447Q414 0 392 19T370 77V326Q370 355 356 363T311 372ZM199 608Q180 627 175 646T175 682T195 709T230 720H233Q270 720 311 678L319 670L327 678Q367 720 405 720H408Q428 720 442 710T462 683T463 647T439 608L430
599Q406 575 379 565T323 554H315Q286 554 259 564T208 599L199 608Z" />
<glyph unicode="&#x14c;" glyph-name="Omacron" horiz-adv-x="763" d="M739 348Q739 261 712 194T636 82T523 13T381 -11Q304 -11 239 12T126 81T51 194T24 348Q24 435 52 502T128 616T242 687T381 711Q456 711 521 687T634 617T711 503T739 348ZM264 347Q264
242 296 196T381 150Q433 150 465 196T498 347Q498 452 466 498T381 544Q328 544 296 498T264 347ZM469 854Q501 854 515 837T529 794V792Q529 767 515 750T469 732H293Q261 732 247 749T233 792V794Q233 819 247 836T293 854H469Z" />
<glyph unicode="&#x14d;" glyph-name="omacron" horiz-adv-x="622" d="M606 261Q606 198 584 148T523 63T430 10T311 -9Q246 -9 192 9T99 63T38 148T16 261Q16 324 38 375T99 463T192 518T311 538Q375 538 429 519T523 463T584 376T606 261ZM240 260Q240 190 259
159T311 127Q344 127 362 158T381 260Q381 330 363 361T311 392Q278 392 259 361T240 260ZM398 694Q430 694 444 677T458 634V632Q458 607 444 590T398 572H224Q192 572 178 589T164 632V634Q164 659 178 676T224 694H398Z" />
<glyph unicode="&#x150;" glyph-name="Ohungarumlaut" horiz-adv-x="763" d="M739 348Q739 261 712 194T636 82T523 13T381 -11Q304 -11 239 12T126 81T51 194T24 348Q24 435 52 502T128 616T242 687T381 711Q456 711 521 687T634 617T711 503T739 348ZM264 347Q264
242 296 196T381 150Q433 150 465 196T498 347Q498 452 466 498T381 544Q328 544 296 498T264 347ZM432 820Q445 881 512 881H557Q597 881 608 855T591 793L574 772Q552 746 531 735T481 723H477Q449 723 434 740T426 793L432 820ZM232 820Q248 881 312 881H357Q376
881 389 874T407 854T408 826T390 793L373 772Q351 746 331 735T281 723H277Q249 723 233 740T225 793L232 820Z" />
<glyph unicode="&#x151;" glyph-name="ohungarumlaut" horiz-adv-x="622" d="M606 261Q606 198 584 148T523 63T430 10T311 -9Q246 -9 192 9T99 63T38 148T16 261Q16 324 38 375T99 463T192 518T311 538Q375 538 429 519T523 463T584 376T606 261ZM240 260Q240
190 259 159T311 127Q344 127 362 158T381 260Q381 330 363 361T311 392Q278 392 259 361T240 260ZM165 653Q180 715 245 715H284Q304 715 317 708T335 688T336 660T318 626L301 604Q278 575 257 565T210 554H207Q180 554 165 572T158 625L165 653ZM358 653Q373
715 438 715H477Q497 715 510 708T528 688T529 660T511 626L494 604Q471 575 451 565T403 554H400Q373 554 358 572T351 625L358 653Z" />
<glyph unicode="&#x152;" glyph-name="OE" horiz-adv-x="992" d="M399 0Q208 0 116 87T24 345Q24 520 117 610T406 700H879Q911 700 930 682T950 629V612Q950 577 931 559T879 540H678V428H800Q832 428 851 410T871 358V348Q871 313 852 296T800 278H678V156H888Q920
156 939 138T959 85V71Q959 36 940 18T888 0H399ZM443 546H413Q375 546 348 536T301 504T273 445T264 354Q264 246 300 202T413 158H443V546Z" />
<glyph unicode="&#x153;" glyph-name="oe" horiz-adv-x="943" d="M304 538Q360 538 407 521T489 470Q521 502 567 520T671 538Q799 538 863 471T927 285Q927 251 908 234T855 216H601Q609 166 634 149T705 132Q737 132 758 137T795 148T824 159T852 164Q876 164
890 150T905 109V94Q905 66 892 49T851 19Q783 -9 681 -9Q615 -9 567 7T486 54Q415 -9 304 -9Q242 -9 189 9T98 63T38 148T16 261Q16 324 37 375T97 463T189 518T304 538ZM240 260Q240 190 259 158T311 126Q344 126 362 158T381 260Q381 330 363 360T311 391Q278
391 259 361T240 260ZM665 404Q653 404 643 401T624 388T609 362T600 318H724Q722 368 708 386T665 404Z" />
<glyph unicode="&#x154;" glyph-name="Racute" horiz-adv-x="695" d="M521 0Q488 0 466 16T423 71L339 235H288V79Q288 38 265 19T210 0H129Q96 0 73 19T50 79V620Q50 660 73 680T131 700H348Q502 700 572 643T643 475Q643 413 618 368T550 293L650 106Q661 84
661 65T654 32T632 9T599 0H521ZM283 546V383H326Q371 383 390 403T410 464Q410 506 391 526T326 546H283ZM274 823Q292 883 355 883H430Q452 883 466 875T485 853T485 823T464 793L437 769Q411 746 385 736T333 725H323Q291 725 274 744T266 797L274 823Z" />
<glyph unicode="&#x155;" glyph-name="racute" horiz-adv-x="447" d="M183 528Q211 528 230 512T257 444Q285 487 318 509T383 532Q408 532 421 520T435 476V413Q435 385 419 366T369 345Q303 342 264 331V77Q264 38 242 19T187 0H118Q85 0 63 19T41 77V451Q41
490 62 509T117 528H183ZM197 653Q212 715 278 715H355Q375 715 388 707T407 685T409 655T388 624L361 599Q334 575 311 565T258 554H251Q217 554 201 574T191 626L197 653Z" />
<glyph unicode="&#x156;" glyph-name="Rcommaaccent" horiz-adv-x="695" d="M521 0Q488 0 466 16T423 71L339 235H288V79Q288 38 265 19T210 0H129Q96 0 73 19T50 79V620Q50 660 73 680T131 700H348Q502 700 572 643T643 475Q643 413 618 368T550 293L650 106Q661
84 661 65T654 32T632 9T599 0H521ZM283 546V383H326Q371 383 390 403T410 464Q410 506 391 526T326 546H283ZM272 -210Q272 -199 278 -191T302 -177Q320 -172 326 -168T332 -157Q332 -151 326 -147T305 -135Q288 -126 281 -115T273 -85Q273 -58 295 -41T358 -23Q399
-23 423 -45T447 -111Q447 -167 413 -201T319 -241Q272 -245 272 -212V-210Z" />
<glyph unicode="&#x157;" glyph-name="rcommaaccent" horiz-adv-x="447" d="M183 528Q211 528 230 512T257 444Q285 487 318 509T383 532Q408 532 421 520T435 476V413Q435 385 419 366T369 345Q303 342 264 331V77Q264 38 242 19T187 0H118Q85 0 63 19T41 77V451Q41
490 62 509T117 528H183ZM318 46Q318 57 324 65T348 79Q366 84 372 88T378 99Q378 105 372 109T351 121Q334 130 327 141T319 171Q319 198 341 215T404 233Q445 233 469 211T493 145Q493 89 459 55T365 15Q318 11 318 44V46Z" />
<glyph unicode="&#x158;" glyph-name="Rcaron" horiz-adv-x="695" d="M521 0Q488 0 466 16T423 71L339 235H288V79Q288 38 265 19T210 0H129Q96 0 73 19T50 79V620Q50 660 73 680T131 700H348Q502 700 572 643T643 475Q643 413 618 368T550 293L650 106Q661 84
661 65T654 32T632 9T599 0H521ZM283 546V383H326Q371 383 390 403T410 464Q410 506 391 526T326 546H283ZM333 838L341 846Q363 868 381 878T420 888H422Q442 888 456 878T476 853T478 819T457 782L448 772Q428 749 400 737T340 725H326Q295 725 267 737T218 772L209
782Q192 800 188 819T189 853T209 878T244 888H246Q266 888 284 878T325 846L333 838Z" />
<glyph unicode="&#x159;" glyph-name="rcaron" horiz-adv-x="447" d="M183 528Q211 528 230 512T257 444Q285 487 318 509T383 532Q408 532 421 520T435 476V413Q435 385 419 366T369 345Q303 342 264 331V77Q264 38 242 19T187 0H118Q85 0 63 19T41 77V451Q41
490 62 509T117 528H183ZM132 608Q113 627 108 646T108 682T128 709T163 720H166Q203 720 244 678L252 670L260 678Q300 720 338 720H341Q361 720 375 710T395 683T396 647T372 608L363 599Q339 575 312 565T256 554H248Q219 554 192 564T141 599L132 608Z" />
<glyph unicode="&#x15a;" glyph-name="Sacute" horiz-adv-x="584" d="M562 221Q562 112 486 51T259 -11Q208 -11 164 -4T88 16Q53 30 38 51T22 103V128Q22 160 39 178T86 196Q104 196 118 189T149 174T190 158T250 151Q292 151 315 162T338 198Q338 213 331 222T310
237T274 249T225 260Q177 270 139 286T75 327T34 391T20 485Q20 542 41 584T99 655T189 697T304 711Q352 711 392 706T464 689Q496 678 513 659T531 604V578Q531 548 515 532T472 515Q456 515 441 520T407 532T365 544T309 550Q230 550 230 506Q230 481 254 471T329
450Q396 436 441 418T513 372T551 308T562 221ZM235 823Q253 883 316 883H391Q413 883 427 875T446 853T446 823T425 793L398 769Q372 746 346 736T294 725H284Q252 725 235 744T227 797L235 823Z" />
<glyph unicode="&#x15b;" glyph-name="sacute" horiz-adv-x="491" d="M477 181Q477 90 414 41T221 -8Q135 -8 84 10Q21 31 21 86V103Q21 129 35 146T76 163Q89 163 101 158T129 147T165 135T213 130Q240 130 259 135T278 155Q278 171 260 176T189 190Q148 196
116 206T62 235T28 283T16 358Q16 405 34 439T84 494T160 526T255 537Q298 537 331 534T390 522Q422 512 437 497T453 455V428Q453 403 439 390T403 376Q388 376 375 380T346 389T311 399T266 403Q234 403 221 397T208 378Q208 364 225 359T289 347Q334 342 369
332T428 304T464 256T477 181ZM195 653Q210 715 276 715H353Q373 715 386 707T405 685T407 655T386 624L359 599Q332 575 309 565T256 554H249Q215 554 199 574T189 626L195 653Z" />
<glyph unicode="&#x15c;" glyph-name="Scircumflex" horiz-adv-x="584" d="M562 221Q562 112 486 51T259 -11Q208 -11 164 -4T88 16Q53 30 38 51T22 103V128Q22 160 39 178T86 196Q104 196 118 189T149 174T190 158T250 151Q292 151 315 162T338 198Q338 213 331
222T310 237T274 249T225 260Q177 270 139 286T75 327T34 391T20 485Q20 542 41 584T99 655T189 697T304 711Q352 711 392 706T464 689Q496 678 513 659T531 604V578Q531 548 515 532T472 515Q456 515 441 520T407 532T365 544T309 550Q230 550 230 506Q230 481
254 471T329 450Q396 436 441 418T513 372T551 308T562 221ZM285 766Q263 744 245 734T206 724H204Q184 724 170 734T150 759T148 793T169 830L178 840Q198 863 226 875T286 887H300Q331 887 359 875T408 840L417 830Q433 812 437 793T437 759T417 734T382 724H380Q360
724 342 734T301 766L293 774L285 766Z" />
<glyph unicode="&#x15d;" glyph-name="scircumflex" horiz-adv-x="491" d="M477 181Q477 90 414 41T221 -8Q135 -8 84 10Q21 31 21 86V103Q21 129 35 146T76 163Q89 163 101 158T129 147T165 135T213 130Q240 130 259 135T278 155Q278 171 260 176T189 190Q148
196 116 206T62 235T28 283T16 358Q16 405 34 439T84 494T160 526T255 537Q298 537 331 534T390 522Q422 512 437 497T453 455V428Q453 403 439 390T403 376Q388 376 375 380T346 389T311 399T266 403Q234 403 221 397T208 378Q208 364 225 359T289 347Q334 342
369 332T428 304T464 256T477 181ZM138 674Q162 698 189 708T245 719H253Q282 719 309 709T360 674L369 665Q388 646 393 627T393 591T373 564T338 553H335Q297 553 257 595L249 603L241 595Q200 553 163 553H160Q140 553 126 563T106 590T105 626T129 665L138
674Z" />
<glyph unicode="&#x15e;" glyph-name="Scedilla" horiz-adv-x="584" d="M562 221Q562 122 500 63T316 -8V-25Q397 -30 397 -96Q397 -131 370 -153T276 -175Q245 -175 218 -168Q199 -163 193 -154T186 -128V-125Q186 -111 192 -103T212 -95Q221 -95 230 -99T252
-103Q274 -103 274 -89Q274 -84 269 -81T249 -77H246Q230 -77 230 -62V-10Q145 -7 88 16Q53 30 38 50T22 101V128Q22 160 39 178T86 196Q104 196 118 189T149 174T190 158T250 151Q292 151 315 162T338 198Q338 213 331 222T310 237T274 249T225 260Q177 270 139
286T75 327T34 391T20 485Q20 542 41 584T99 655T189 697T304 711Q352 711 392 706T464 689Q496 678 513 659T531 604V578Q531 548 515 532T472 515Q456 515 441 520T407 532T365 544T309 550Q230 550 230 506Q230 481 254 471T329 450Q396 436 441 418T513 372T551
308T562 221Z" />
<glyph unicode="&#x15f;" glyph-name="scedilla" horiz-adv-x="491" d="M477 181Q477 102 429 55T284 -4V-25Q365 -30 365 -96Q365 -131 338 -153T244 -175Q213 -175 186 -168Q167 -163 161 -154T154 -128V-125Q154 -111 160 -103T180 -95Q189 -95 198 -99T220
-103Q242 -103 242 -89Q242 -84 237 -81T217 -77H214Q198 -77 198 -62V-8Q128 -5 84 10Q21 31 21 86V103Q21 129 35 146T76 163Q89 163 101 158T129 147T165 135T213 130Q240 130 259 135T278 155Q278 171 260 176T189 190Q148 196 116 206T62 235T28 283T16 358Q16
405 34 439T84 494T160 526T255 537Q298 537 331 534T390 522Q422 512 437 497T453 455V428Q453 403 439 390T403 376Q388 376 375 380T346 389T311 399T266 403Q234 403 221 397T208 378Q208 364 225 359T289 347Q334 342 369 332T428 304T464 256T477 181Z" />
<glyph unicode="&#x160;" glyph-name="Scaron" horiz-adv-x="584" d="M562 221Q562 112 486 51T259 -11Q208 -11 164 -4T88 16Q53 30 38 51T22 103V128Q22 160 39 178T86 196Q104 196 118 189T149 174T190 158T250 151Q292 151 315 162T338 198Q338 213 331 222T310
237T274 249T225 260Q177 270 139 286T75 327T34 391T20 485Q20 542 41 584T99 655T189 697T304 711Q352 711 392 706T464 689Q496 678 513 659T531 604V578Q531 548 515 532T472 515Q456 515 441 520T407 532T365 544T309 550Q230 550 230 506Q230 481 254 471T329
450Q396 436 441 418T513 372T551 308T562 221ZM292 837L300 845Q322 867 340 877T379 887H381Q401 887 415 877T435 852T437 818T416 781L407 771Q387 748 359 736T299 724H285Q254 724 226 736T177 771L168 781Q151 799 147 818T148 852T168 877T203 887H205Q225
887 243 877T284 845L292 837Z" />
<glyph unicode="&#x161;" glyph-name="scaron" horiz-adv-x="491" d="M477 181Q477 90 414 41T221 -8Q135 -8 84 10Q21 31 21 86V103Q21 129 35 146T76 163Q89 163 101 158T129 147T165 135T213 130Q240 130 259 135T278 155Q278 171 260 176T189 190Q148 196
116 206T62 235T28 283T16 358Q16 405 34 439T84 494T160 526T255 537Q298 537 331 534T390 522Q422 512 437 497T453 455V428Q453 403 439 390T403 376Q388 376 375 380T346 389T311 399T266 403Q234 403 221 397T208 378Q208 364 225 359T289 347Q334 342 369
332T428 304T464 256T477 181ZM131 608Q112 627 107 646T107 682T127 709T162 720H165Q202 720 243 678L251 670L259 678Q299 720 337 720H340Q360 720 374 710T394 683T395 647T371 608L362 599Q338 575 311 565T255 554H247Q218 554 191 564T140 599L131 608Z"
/>
<glyph unicode="&#x162;" glyph-name="Tcommaaccent" horiz-adv-x="623" d="M430 538V79Q430 38 407 19T352 0H271Q238 0 216 19T193 79V538H93Q61 538 41 555T21 609V629Q21 665 41 682T93 700H530Q561 700 581 683T601 629V609Q601 573 581 556T530 538H430ZM223
46Q223 57 229 65T253 79Q271 84 277 88T283 99Q283 105 277 109T256 121Q239 130 232 141T224 171Q224 198 246 215T309 233Q350 233 374 211T398 145Q398 89 364 55T270 15Q223 11 223 44V46Z" />
<glyph unicode="&#x163;" glyph-name="tcommaaccent" horiz-adv-x="399" d="M62 392Q39 392 25 405T10 453V467Q10 498 24 513T62 528H69V581Q69 619 90 638T146 658H215Q248 658 269 639T291 581V530H322Q351 530 366 513T382 467V453Q382 392 322 392H291V187Q291
155 301 144T337 129Q359 126 370 115T382 79V58Q382 29 368 15T326 -5Q312 -9 295 -10T254 -11Q213 -11 180 -4T121 22T83 71T69 148V392H62ZM134 46Q134 57 140 65T164 79Q182 84 188 88T194 99Q194 105 188 109T167 121Q150 130 143 141T135 171Q135 198 157
215T220 233Q261 233 285 211T309 145Q309 89 275 55T181 15Q134 11 134 44V46Z" />
<glyph unicode="&#x164;" glyph-name="Tcaron" horiz-adv-x="623" d="M430 538V79Q430 38 407 19T352 0H271Q238 0 216 19T193 79V538H93Q61 538 41 555T21 609V629Q21 665 41 682T93 700H530Q561 700 581 683T601 629V609Q601 573 581 556T530 538H430ZM312 838L320
846Q342 868 360 878T399 888H401Q421 888 435 878T455 853T457 819T436 782L427 772Q407 749 379 737T319 725H305Q274 725 246 737T197 772L188 782Q171 800 167 819T168 853T188 878T223 888H225Q245 888 263 878T304 846L312 838Z" />
<glyph unicode="&#x165;" glyph-name="tcaron" horiz-adv-x="399" d="M62 392Q39 392 25 405T10 453V467Q10 498 24 513T62 528H69V581Q69 619 90 638T146 658H215Q248 658 269 639T291 581V530H322Q351 530 366 513T382 467V453Q382 392 322 392H291V187Q291
155 301 144T337 129Q359 126 372 115Q382 104 382 79V58Q382 29 368 15T326 -5Q312 -9 295 -10T254 -11Q213 -11 180 -4T121 22T83 71T69 148V392H62ZM441 588Q426 562 410 551T374 540H371Q351 540 337 553T322 593V635Q322 663 337 682T391 702H414Q452 702
465 678T460 622L441 588Z" />
<glyph unicode="&#x16a;" glyph-name="Umacron" horiz-adv-x="715" d="M286 264Q286 210 308 186T379 162Q427 162 448 186T470 264V626Q470 664 491 682T544 701H593Q625 701 646 683T667 626V257Q667 126 590 60T364 -7Q206 -7 127 60T48 257V622Q48 660 69
680T126 701H207Q242 701 264 681T286 622V264ZM463 854Q495 854 509 837T523 794V792Q523 767 509 750T463 732H287Q255 732 241 749T227 792V794Q227 819 241 836T287 854H463Z" />
<glyph unicode="&#x16b;" glyph-name="umacron" horiz-adv-x="634" d="M449 0Q418 0 401 14T375 73Q341 41 299 16T195 -9Q163 -9 135 -2T85 25T52 75T40 153V451Q40 489 61 508T117 528H186Q219 528 240 509T262 451V199Q262 170 277 161T324 151Q335 151 347
153T369 158V451Q369 489 390 508T446 528H514Q548 528 569 509T591 451V78Q591 38 571 19T516 0H449ZM404 694Q436 694 450 677T464 634V632Q464 607 450 590T404 572H230Q198 572 184 589T170 632V634Q170 659 184 676T230 694H404Z" />
<glyph unicode="&#x16c;" glyph-name="Ubreve" horiz-adv-x="715" d="M286 263Q286 209 308 185T379 161Q427 161 448 185T470 263V625Q470 663 491 681T544 700H593Q625 700 646 682T667 625V256Q667 125 590 59T364 -8Q206 -8 127 59T48 256V621Q48 659 69 679T126
700H207Q242 700 264 680T286 621V263ZM375 725Q342 725 314 733T266 756T234 788T218 826Q214 850 226 866T265 883H268Q282 883 294 876T318 861Q329 853 342 846T375 839Q394 839 407 846T432 861Q444 869 456 876T482 883H485Q511 883 523 867T532 826Q529
806 517 788T484 756T436 734T375 725Z" />
<glyph unicode="&#x16d;" glyph-name="ubreve" horiz-adv-x="634" d="M449 0Q418 0 401 14T375 73Q341 41 299 16T195 -9Q163 -9 135 -2T85 25T52 75T40 153V451Q40 489 61 508T117 528H186Q219 528 240 509T262 451V199Q262 170 277 161T324 151Q335 151 347
153T369 158V451Q369 489 390 508T446 528H514Q548 528 569 509T591 451V78Q591 38 571 19T516 0H449ZM316 556Q283 556 255 564T206 588T173 623T157 665Q154 691 165 708T203 726H206Q221 726 233 719T257 702Q269 693 283 686T316 678Q335 678 348 685T375 702Q387
711 399 718T426 726H429Q455 726 467 709T475 665Q471 643 458 623T425 588T377 565T316 556Z" />
<glyph unicode="&#x16e;" glyph-name="Uring" horiz-adv-x="715" d="M286 263Q286 209 308 185T379 161Q427 161 448 185T470 263V625Q470 663 491 681T544 700H593Q625 700 646 682T667 625V256Q667 125 590 59T364 -8Q206 -8 127 59T48 256V621Q48 659 69 679T126
700H207Q242 700 264 680T286 621V263ZM487 805Q487 781 478 762T454 730T420 709T378 702Q356 702 337 709T302 729T278 762T269 805Q269 829 278 848T302 880T336 901T378 909Q400 909 419 902T454 881T478 848T487 805ZM348 805Q348 791 356 782T378 773Q392
773 400 782T409 805Q409 820 401 829T378 838Q364 838 356 829T348 805Z" />
<glyph unicode="&#x16f;" glyph-name="uring" horiz-adv-x="634" d="M449 0Q418 0 401 14T375 73Q341 41 299 16T195 -9Q163 -9 135 -2T85 25T52 75T40 153V451Q40 489 61 508T117 528H186Q219 528 240 509T262 451V199Q262 170 277 161T324 151Q335 151 347 153T369
158V451Q369 489 390 508T446 528H514Q548 528 569 509T591 451V78Q591 38 571 19T516 0H449ZM426 661Q426 637 417 618T393 586T359 565T317 558Q295 558 276 565T241 585T217 618T208 661Q208 685 217 704T241 736T275 757T317 764Q339 764 358 757T393 737T417
704T426 661ZM287 661Q287 647 295 638T317 629Q331 629 339 638T348 661Q348 675 340 684T317 693Q303 693 295 684T287 661Z" />
<glyph unicode="&#x170;" glyph-name="Uhungarumlaut" horiz-adv-x="715" d="M286 263Q286 209 308 185T379 161Q427 161 448 185T470 263V625Q470 663 491 681T544 700H593Q625 700 646 682T667 625V256Q667 125 590 59T364 -8Q206 -8 127 59T48 256V621Q48 659
69 679T126 700H207Q242 700 264 680T286 621V263ZM426 820Q439 881 506 881H551Q591 881 602 855T585 793L568 772Q546 746 525 735T475 723H471Q443 723 428 740T420 793L426 820ZM226 820Q242 881 306 881H351Q370 881 383 874T401 854T402 826T384 793L367
772Q345 746 325 735T275 723H271Q243 723 227 740T219 793L226 820Z" />
<glyph unicode="&#x171;" glyph-name="uhungarumlaut" horiz-adv-x="634" d="M449 0Q418 0 401 14T375 73Q341 41 299 16T195 -9Q163 -9 135 -2T85 25T52 75T40 153V451Q40 489 61 508T117 528H186Q219 528 240 509T262 451V199Q262 170 277 161T324 151Q335 151
347 153T369 158V451Q369 489 390 508T446 528H514Q548 528 569 509T591 451V78Q591 38 571 19T516 0H449ZM170 653Q185 715 250 715H289Q309 715 322 708T340 688T341 660T323 626L306 604Q283 575 262 565T215 554H212Q185 554 170 572T163 625L170 653ZM363
653Q378 715 443 715H482Q502 715 515 708T533 688T534 660T516 626L499 604Q476 575 456 565T408 554H405Q378 554 363 572T356 625L363 653Z" />
<glyph unicode="&#x172;" glyph-name="Uogonek" horiz-adv-x="715" d="M448 -34Q448 -49 473 -61Q493 -71 500 -82T507 -111V-113Q507 -138 483 -154T411 -170Q390 -170 368 -167T326 -155T294 -131T281 -90Q281 -63 297 -43T342 -7Q325 -6 310 -5T278 -2Q164
15 106 80T48 256V621Q48 659 69 679T126 700H207Q242 700 264 680T286 621V263Q286 209 308 185T379 161Q427 161 448 185T470 263V625Q470 663 491 681T544 700H593Q625 700 646 682T667 625V256Q667 171 636 115T541 27Q522 17 505 11T476 -2T456 -16T448 -34Z"
/>
<glyph unicode="&#x173;" glyph-name="uogonek" horiz-adv-x="634" d="M558 8Q537 -7 532 -16T526 -34Q526 -44 532 -50T553 -63Q573 -72 580 -82T587 -111V-113Q587 -138 564 -154T491 -170Q470 -170 447 -167T405 -155T374 -131T362 -90Q362 -55 385 -33T440
3Q412 5 397 20T375 73Q358 57 339 42T299 16T251 -2T195 -9Q163 -9 135 -2T85 25T52 75T40 153V451Q40 489 61 508T117 528H186Q219 528 240 509T262 451V199Q262 170 277 161T324 151Q335 151 347 153T369 158V451Q369 489 390 508T446 528H514Q548 528 569 509T591
451V76Q591 49 584 35T558 8Z" />
<glyph unicode="&#x178;" glyph-name="Ydieresis" horiz-adv-x="670" d="M587 700Q609 700 623 692T645 669T652 638T642 603L457 253V79Q457 38 434 19T379 0H298Q265 0 242 19T219 79V247L31 599Q21 617 21 635T29 667T53 691T91 700H158Q196 700 218 683T259
630L350 454H352L443 634Q460 668 482 684T541 700H587ZM336 811Q336 771 310 748T240 724Q197 724 171 747T144 811Q144 851 170 874T240 898Q283 898 309 875T336 811ZM556 811Q556 771 530 748T460 724Q417 724 391 747T364 811Q364 851 390 874T460 898Q503
898 529 875T556 811Z" />
<glyph unicode="&#x179;" glyph-name="Zacute" horiz-adv-x="601" d="M312 535V539H117Q81 539 64 559T46 611V629Q46 659 63 679T117 700H496Q533 700 551 680T570 627V601Q570 580 568 564T561 532T546 502T522 467L288 164V160H501Q537 160 554 140T572 89V71Q572
41 555 21T501 0H104Q74 0 52 18T30 73V93Q30 114 32 130T39 162T55 193T80 229L312 535ZM249 823Q267 883 330 883H405Q427 883 441 875T460 853T460 823T439 793L412 769Q386 746 360 736T308 725H298Q266 725 249 744T241 797L249 823Z" />
<glyph unicode="&#x17a;" glyph-name="zacute" horiz-adv-x="528" d="M240 378H98Q63 378 46 398T28 448V458Q28 488 45 508T98 528H432Q464 528 485 511T506 457V444Q506 408 494 383T455 329L284 147H435Q470 147 487 127T505 77V70Q505 40 488 20T435 0H93Q61
0 40 18T19 73V81Q19 117 30 142T70 197L240 378ZM210 653Q225 715 291 715H368Q388 715 401 707T420 685T422 655T401 624L374 599Q347 575 324 565T271 554H264Q230 554 214 574T204 626L210 653Z" />
<glyph unicode="&#x17b;" glyph-name="Zdotaccent" horiz-adv-x="601" d="M312 535V539H117Q81 539 64 559T46 611V629Q46 659 63 679T117 700H496Q533 700 551 680T570 627V601Q570 580 568 564T561 532T546 502T522 467L288 164V160H501Q537 160 554 140T572
89V71Q572 41 555 21T501 0H104Q74 0 52 18T30 73V93Q30 114 32 130T39 162T55 193T80 229L312 535ZM416 817Q416 775 387 751T310 727Q262 727 233 751T204 817Q204 859 233 884T310 909Q358 909 387 884T416 817Z" />
<glyph unicode="&#x17c;" glyph-name="zdotaccent" horiz-adv-x="528" d="M240 378H98Q63 378 46 398T28 448V458Q28 488 45 508T98 528H432Q464 528 485 511T506 457V444Q506 408 494 383T455 329L284 147H435Q470 147 487 127T505 77V70Q505 40 488 20T435 0H93Q61
0 40 18T19 73V81Q19 117 30 142T70 197L240 378ZM372 645Q372 603 343 579T266 554Q218 554 189 578T160 645Q160 687 189 712T266 737Q314 737 343 712T372 645Z" />
<glyph unicode="&#x17d;" glyph-name="Zcaron" horiz-adv-x="601" d="M312 535V539H117Q81 539 64 559T46 611V629Q46 659 63 679T117 700H496Q533 700 551 680T570 627V601Q570 580 568 564T561 532T546 502T522 467L288 164V160H501Q537 160 554 140T572 89V71Q572
41 555 21T501 0H104Q74 0 52 18T30 73V93Q30 114 32 130T39 162T55 193T80 229L312 535ZM312 838L320 846Q342 868 360 878T399 888H401Q421 888 435 878T455 853T457 819T436 782L427 772Q407 749 379 737T319 725H305Q274 725 246 737T197 772L188 782Q171 800
167 819T168 853T188 878T223 888H225Q245 888 263 878T304 846L312 838Z" />
<glyph unicode="&#x17e;" glyph-name="zcaron" horiz-adv-x="528" d="M240 378H98Q63 378 46 398T28 448V458Q28 488 45 508T98 528H432Q464 528 485 511T506 457V444Q506 408 494 383T455 329L284 147H435Q470 147 487 127T505 77V70Q505 40 488 20T435 0H93Q61
0 40 18T19 73V81Q19 117 30 142T70 197L240 378ZM149 608Q130 627 125 646T125 682T145 709T180 720H183Q220 720 261 678L269 670L277 678Q317 720 355 720H358Q378 720 392 710T412 683T413 647T389 608L380 599Q356 575 329 565T273 554H265Q236 554 209 564T158
599L149 608Z" />
<glyph unicode="&#x192;" glyph-name="florin" horiz-adv-x="436" d="M321 444H337Q373 444 388 425T404 376V374Q404 345 389 326T337 306H304L265 -20Q260 -62 237 -81T179 -100H115Q100 -100 87 -95T63 -81T49 -57T46 -23L84 306Q53 309 40 328T26 374V376Q26
405 42 424T95 444H99L111 543Q121 627 171 670T319 714Q331 714 344 713T372 710Q425 700 425 651V634Q425 610 414 595T376 574Q356 569 345 559T331 526L321 444Z" />
<glyph unicode="&#x218;" glyph-name="Scommaaccent" horiz-adv-x="584" d="M562 221Q562 112 486 51T259 -11Q208 -11 164 -4T88 16Q53 30 38 51T22 103V128Q22 160 39 178T86 196Q104 196 118 189T149 174T190 158T250 151Q292 151 315 162T338 198Q338 213
331 222T310 237T274 249T225 260Q177 270 139 286T75 327T34 391T20 485Q20 542 41 584T99 655T189 697T304 711Q352 711 392 706T464 689Q496 678 513 659T531 604V578Q531 548 515 532T472 515Q456 515 441 520T407 532T365 544T309 550Q230 550 230 506Q230
481 254 471T329 450Q396 436 441 418T513 372T551 308T562 221ZM198 46Q198 57 204 65T228 79Q246 84 252 88T258 99Q258 105 252 109T231 121Q214 130 207 141T199 171Q199 198 221 215T284 233Q325 233 349 211T373 145Q373 89 339 55T245 15Q198 11 198 44V46Z"
/>
<glyph unicode="&#x219;" glyph-name="scommaaccent" horiz-adv-x="491" d="M477 181Q477 90 414 41T221 -8Q135 -8 84 10Q21 31 21 86V103Q21 129 35 146T76 163Q89 163 101 158T129 147T165 135T213 130Q240 130 259 135T278 155Q278 171 260 176T189 190Q148
196 116 206T62 235T28 283T16 358Q16 405 34 439T84 494T160 526T255 537Q298 537 331 534T390 522Q422 512 437 497T453 455V428Q453 403 439 390T403 376Q388 376 375 380T346 389T311 399T266 403Q234 403 221 397T208 378Q208 364 225 359T289 347Q334 342
369 332T428 304T464 256T477 181ZM163 46Q163 57 169 65T193 79Q211 84 217 88T223 99Q223 105 217 109T196 121Q179 130 172 141T164 171Q164 198 186 215T249 233Q290 233 314 211T338 145Q338 89 304 55T210 15Q163 11 163 44V46Z" />
<glyph unicode="&#x237;" glyph-name="uni0237" horiz-adv-x="306" d="M264 -3Q264 -95 215 -132T70 -170Q55 -170 38 -169T9 -165Q-17 -160 -30 -146T-43 -104V-98Q-43 -73 -33 -59T2 -39Q25 -34 33 -24T42 12V451Q42 490 62 509T118 528H176Q224 528 244 504T264
420V-3Z" />
<glyph unicode="&#x2c6;" glyph-name="circumflex" horiz-adv-x="400" d="M89 671Q113 695 140 705T196 716H204Q233 716 260 706T311 671L320 662Q339 643 344 624T344 588T324 561T289 550H286Q248 550 208 592L200 600L192 592Q151 550 114 550H111Q91 550
77 560T57 587T56 623T80 662L89 671Z" />
<glyph unicode="&#x2c7;" glyph-name="caron" horiz-adv-x="400" d="M80 605Q61 624 56 643T56 679T76 706T111 717H114Q151 717 192 675L200 667L208 675Q248 717 286 717H289Q309 717 323 707T343 680T344 644T320 605L311 596Q287 572 260 562T204 551H196Q167
551 140 561T89 596L80 605Z" />
<glyph unicode="&#x2d8;" glyph-name="breve" horiz-adv-x="400" d="M200 556Q167 556 139 564T90 588T57 623T41 665Q38 691 49 708T87 726H90Q105 726 117 719T141 702Q153 693 167 686T200 678Q219 678 232 685T259 702Q271 711 283 718T310 726H313Q339 726
351 709T359 665Q355 643 342 623T309 588T261 565T200 556Z" />
<glyph unicode="&#x2d9;" glyph-name="dotaccent" horiz-adv-x="400" d="M306 643Q306 601 277 577T200 552Q152 552 123 576T94 643Q94 685 123 710T200 735Q248 735 277 710T306 643Z" />
<glyph unicode="&#x2da;" glyph-name="ring" horiz-adv-x="400" d="M309 661Q309 637 300 618T276 586T242 565T200 558Q178 558 159 565T124 585T100 618T91 661Q91 685 100 704T124 736T158 757T200 764Q222 764 241 757T276 737T300 704T309 661ZM170 661Q170
647 178 638T200 629Q214 629 222 638T231 661Q231 675 223 684T200 693Q186 693 178 684T170 661Z" />
<glyph unicode="&#x2db;" glyph-name="ogonek" horiz-adv-x="400" d="M79 -90Q79 -57 103 -35T158 0H278Q263 -14 256 -23T248 -42Q248 -50 255 -54T270 -63Q290 -73 297 -83T304 -111V-113Q304 -138 281 -154T208 -170Q187 -170 164 -167T122 -155T91 -131T79 -90Z" />
<glyph unicode="&#x2dc;" glyph-name="tilde" horiz-adv-x="400" d="M261 559Q243 559 227 562T196 570T169 579T148 583Q134 583 125 578T107 566Q99 560 91 555T71 550H69Q46 550 32 568T24 626Q32 669 61 693T134 718Q152 718 168 714T199 706T225 698T246
694Q260 694 270 699T288 710Q296 716 304 721T324 726H326Q349 726 363 709T371 651Q363 608 334 584T261 559Z" />
<glyph unicode="&#x2dd;" glyph-name="hungarumlaut" horiz-adv-x="400" d="M60 650Q75 712 140 712H179Q199 712 212 705T230 685T231 657T213 623L196 601Q173 572 152 562T105 551H102Q75 551 60 569T53 622L60 650ZM253 650Q268 712 333 712H372Q392 712 405
705T423 685T424 657T406 623L389 601Q366 572 346 562T298 551H295Q268 551 253 569T246 622L253 650Z" />
</font>
</defs>
</svg>
