<?xml version="1.0" standalone="no"?> <!DOCTYPE svg PUBLIC "-//W3C//DTD SVG 1.0//EN" "http://www.w3.org/TR/2001/REC-SVG-20010904/DTD/svg10.dtd" > <svg xmlns="http://www.w3.org/2000/svg" width="100%" height="100%">
<defs >
<font horiz-adv-x="484" ><font-face
    font-family=""
    units-per-em="1000"
    panose-1="2 11 3 3 4 0 0 2 0 4"
    ascent="838"
    descent="-162"
    alphabetic="0" />
<missing-glyph horiz-adv-x="500" />
<glyph unicode=" " glyph-name="space" horiz-adv-x="196" />
<glyph unicode="!" glyph-name="exclam" horiz-adv-x="215" d="M64 167Q89 285 112 387Q121 430 131 474T149 558T165 628T176 677Q178 688 184 695T203 703H204Q218 703 224 693T228 669Q224 651 217 620T200 550T179 466T158 379Q133 277 104 160Q99 141 83
141H82Q71 141 67 148T64 167ZM93 34Q93 17 82 7T54 -4Q37 -4 27 6T16 34Q16 50 26 61T54 73Q71 73 82 62T93 34Z" />
<glyph unicode="&quot;" glyph-name="quotedbl" horiz-adv-x="218" d="M107 547Q111 572 115 597Q118 617 122 639T128 677Q131 703 154 703H155Q171 703 177 693T180 670Q175 653 169 631T156 589Q149 565 142 542Q137 525 124 525H123Q104 525 107 547ZM214
547Q218 572 222 597Q225 617 229 639T235 677Q238 703 261 703H262Q278 703 284 693T287 670Q282 653 276 631T263 589Q256 565 249 542Q244 525 231 525H230Q211 525 214 547Z" />
<glyph unicode="#" glyph-name="numbersign" horiz-adv-x="442" d="M162 300H291L325 427H196L162 300ZM48 254Q35 254 30 260T25 276V278Q25 287 30 293T48 300H117L151 427H95Q82 427 77 433T72 449V451Q72 459 77 465T95 472H164L221 682Q224 693 230 698T242
703H243Q255 703 261 695T264 675L209 472H338L395 682Q398 693 404 698T416 703H417Q429 703 435 695T438 675L383 472H441Q453 472 458 466T463 451V449Q463 440 458 434T441 427H370L336 300H393Q406 300 411 294T416 278V276Q416 267 411 261T393 254H323L259
18Q256 7 250 2T238 -3H237Q225 -3 219 5T216 25L277 254H148L85 18Q82 7 76 2T64 -3H63Q51 -3 45 5T42 25L104 254H48Z" />
<glyph unicode="$" glyph-name="dollar" horiz-adv-x="492" d="M450 215Q450 160 432 119T383 51T308 10T212 -4H198L180 -85Q175 -105 160 -105H159Q134 -105 140 -76L157 0Q111 6 70 23T0 67Q-16 82 -16 97V98Q-16 108 -10 115T9 122Q21 122 31 112T58 87T99
60T167 41L238 348Q204 360 177 374T131 406T101 449T90 509Q90 552 105 588T150 650T221 690T313 704H322L332 747Q337 767 352 767H353Q378 767 372 738L363 701Q437 691 487 647Q503 632 503 618V617Q503 606 497 600T480 593Q468 593 459 601T438 621T406 643T353
659L289 380Q323 367 352 353T403 319T437 275T450 215ZM399 211Q399 236 390 254T365 287T326 313T277 334L208 38H213Q253 38 287 48T346 81T385 135T399 211ZM139 513Q139 487 147 469T170 437T205 413T249 394L312 662H311Q235 662 187 624T139 513Z" />
<glyph unicode="%" glyph-name="percent" horiz-adv-x="717" d="M120 490Q120 446 142 420T207 393Q235 393 259 407T302 445T330 501T341 570Q341 613 319 640T254 668Q225 668 201 654T158 616T130 560T120 490ZM387 568Q387 524 373 486T334 419T276 374T205
357Q145 357 110 393T74 492Q74 536 88 574T128 642T186 687T256 704Q317 704 352 668T387 568ZM93 -22Q85 -31 80 -34T70 -37H69Q58 -37 53 -27T58 -4L652 717Q660 726 665 729T675 732H676Q687 732 692 722T687 699L93 -22ZM405 129Q405 85 427 59T492 32Q520
32 544 46T587 84T615 140T626 209Q626 252 604 279T539 307Q510 307 486 293T443 255T415 199T405 129ZM672 207Q672 163 658 125T619 58T561 13T490 -4Q430 -4 395 32T359 131Q359 175 373 213T413 281T471 326T541 343Q602 343 637 307T672 207Z" />
<glyph unicode="&amp;" glyph-name="ampersand" horiz-adv-x="638" d="M442 88Q397 45 342 20T221 -5Q174 -5 138 8T76 46T37 103T23 174Q23 223 41 261T88 329T156 378T234 411Q222 435 215 460T208 516Q208 554 222 588T263 648T328 689T413 704Q455 704 485
694T537 666Q552 652 552 639V638Q552 630 546 624T530 617Q519 617 512 624T493 639T464 655T413 662Q378 662 350 651T301 621T271 576T260 519Q260 488 268 459T303 390L455 158Q489 203 513 258T554 370Q557 379 562 385T577 391H578Q592 391 598 382T600 358Q582
297 551 237T477 125L535 37Q546 21 539 9T517 -3H516Q509 -3 503 0T490 15L442 88ZM77 179Q77 150 86 124T114 79T161 47T227 35Q287 35 335 58T422 119L251 378Q217 367 186 351T130 310T92 254T77 179Z" />
<glyph unicode="&apos;" glyph-name="quotesingle" horiz-adv-x="117" d="M107 547Q111 572 115 597Q118 617 122 639T128 677Q131 703 154 703H155Q171 703 177 693T180 670Q175 653 169 631T156 589Q149 565 142 542Q137 525 124 525H123Q104 525 107 547Z" />
<glyph unicode="(" glyph-name="parenleft" horiz-adv-x="302" d="M56 225Q56 302 74 378T130 521T222 643T351 736Q363 742 371 738T380 724V723Q380 715 375 711T360 701Q297 666 250 615T170 501T122 369T106 226Q106 176 113 138T133 72T162 25T194 -7Q205
-16 209 -22T213 -33V-34Q213 -46 202 -49T177 -45Q155 -31 134 -9T95 45T67 121T56 225Z" />
<glyph unicode=")" glyph-name="parenright" horiz-adv-x="302" d="M286 467Q286 390 268 314T212 171T120 49T-9 -44Q-21 -50 -29 -46T-38 -32V-31Q-38 -23 -33 -19T-18 -9Q45 25 92 77T172 191T220 323T236 466Q236 516 229 554T209 620T180 667T148 699Q137
708 133 714T129 725V726Q129 738 140 741T165 737Q187 723 208 701T247 647T275 571T286 467Z" />
<glyph unicode="*" glyph-name="asterisk" horiz-adv-x="353" d="M241 679Q244 703 264 703H265Q274 703 282 697T286 673L259 559L363 588Q380 593 388 586T396 568V567Q396 546 370 543L263 531L322 434Q330 420 324 409T304 397H303Q289 397 281 414L236 520L156
430Q147 421 138 421H137Q131 421 126 424T119 434T117 447T126 461L215 538L111 582Q103 585 98 590T93 604V605Q93 618 104 626T130 625L229 562L241 679V679Z" />
<glyph unicode="+" glyph-name="plus" horiz-adv-x="462" d="M221 323H69Q57 323 52 329T47 345V347Q47 355 52 361T69 368H231L270 533Q272 544 278 551T295 559H296Q307 559 314 551T317 524L280 368H432Q443 368 448 362T453 347V345Q453 336 448 330T432 323H270L232
158Q230 147 224 140T207 132H206Q195 132 188 140T185 167L221 323Z" />
<glyph unicode="," glyph-name="comma" horiz-adv-x="143" d="M67 22Q67 -19 43 -43T-24 -76Q-47 -81 -47 -64V-63Q-47 -51 -29 -45Q-11 -39 1 -32T13 -11Q13 -4 10 0T1 9Q-13 21 -13 37Q-13 53 -2 63T26 73Q46 73 56 60T67 22Z" />
<glyph unicode="-" glyph-name="hyphen" horiz-adv-x="226" d="M50 276Q39 276 34 282T29 297V299Q29 307 34 313T50 320H192Q203 320 208 314T213 299V297Q213 289 208 283T192 276H50Z" />
<glyph unicode="." glyph-name="period" horiz-adv-x="143" d="M64 36Q64 19 53 8T24 -4Q7 -4 -3 6T-13 33Q-13 50 -2 61T27 73Q44 73 54 63T64 36Z" />
<glyph unicode="/" glyph-name="slash" horiz-adv-x="300" d="M-14 -34Q-20 -45 -25 -48T-37 -52H-38Q-50 -52 -56 -42T-55 -17L351 726Q357 737 362 740T374 744H375Q387 744 393 734T392 709L-14 -34Z" />
<glyph unicode="0" glyph-name="zero" horiz-adv-x="651" d="M109 249Q109 149 155 94T291 38Q355 38 408 70T500 159T560 290T582 452Q582 549 536 605T402 662Q339 662 286 628T193 536T131 404T109 249ZM635 451Q635 349 608 265T534 122T424 29T290 -4Q236
-4 193 13T120 64T73 144T56 251Q56 347 83 430T158 573T268 669T403 704Q510 704 572 638T635 451Z" />
<glyph unicode="1" glyph-name="one" horiz-adv-x="307" d="M153 22Q148 -3 127 -3H125Q111 -3 104 7T102 35L242 641L125 582Q119 579 116 578T107 576Q90 576 90 595V596Q90 604 95 609T115 621L254 691Q266 697 271 699T282 701H283Q295 701 300 693T303 674L153 22Z" />
<glyph unicode="2" glyph-name="two" horiz-adv-x="511" d="M-9 0Q-21 0 -25 6T-30 20V23Q-30 34 -25 41T-4 60L238 250Q275 280 314 312T386 379T438 455T459 540Q459 602 420 631T315 660Q270 660 241 650T193 626T160 603T135 592Q124 592 118 598T111 614V615Q111
623 117 631T137 650Q172 675 222 689T322 704Q362 704 396 695T456 665T497 615T512 542Q512 492 491 449T435 366T358 292T273 223L45 45H393Q404 45 409 39T414 23V22Q414 13 409 7T393 0H-9Z" />
<glyph unicode="3" glyph-name="three" horiz-adv-x="500" d="M445 542Q445 573 434 596T404 633T359 654T305 661Q259 661 232 652T187 633T160 613T138 604Q128 604 122 610T116 625V626Q116 643 142 660Q167 677 210 690T310 704Q346 704 380 695T439 667T480
617T496 544Q496 470 453 423T335 363V361Q385 347 416 308T447 212Q447 164 430 125T383 57T309 12T211 -4Q146 -4 93 15T4 73Q-9 87 -9 101V102Q-9 110 -3 117T14 124Q25 124 36 111T68 82T122 53T209 39Q294 39 344 85T395 214Q395 274 357 308T241 342H214Q202
342 197 348T192 363V365Q192 373 197 379T214 386H257Q297 386 331 395T390 423T430 471T445 542Z" />
<glyph unicode="4" glyph-name="four" horiz-adv-x="551" d="M68 223H374L467 625H465L68 225V223ZM365 181H31Q19 181 14 187T9 203V204Q9 214 14 222T35 247L466 682Q476 692 484 696T503 701H507Q538 701 530 669L427 223H497Q508 223 512 217T517 203V201Q517
193 513 187T497 181H418L381 22Q376 -3 355 -3H354Q340 -3 334 7T331 35L365 181Z" />
<glyph unicode="5" glyph-name="five" horiz-adv-x="518" d="M511 700Q523 700 528 694T533 678V676Q533 667 528 661T511 654H193L133 391H135Q158 412 199 431T299 451Q384 451 432 403T480 275Q480 214 458 163T397 74T305 17T191 -4Q137 -4 92 9T14 50Q3 59
0 66T-4 81V82Q-4 91 2 98T20 105Q33 105 42 95T68 72T113 49T190 38Q240 38 283 55T357 103T407 177T425 274Q425 337 390 372T285 408Q243 408 215 396T167 370T133 343T104 331Q90 331 84 339T80 362L151 674Q157 700 186 700H511Z" />
<glyph unicode="6" glyph-name="six" horiz-adv-x="581" d="M236 576Q188 529 158 467T115 337Q160 377 217 401T341 426Q383 426 418 415T480 382T520 327T535 251Q535 197 515 150T461 69T379 16T279 -4Q173 -4 113 61T53 241Q53 290 63 341T93 440T142 532T209
611Q256 654 314 679T446 704Q487 704 518 697T573 677Q595 665 595 646V645Q595 634 589 628T572 621Q561 621 552 627T530 641T497 655T444 662Q379 662 328 639T236 576ZM326 384Q266 384 209 358T109 292Q106 265 106 240Q106 195 116 158T148 95T202 53T280
38Q323 38 360 53T424 96T466 163T482 249Q482 317 440 350T326 384Z" />
<glyph unicode="7" glyph-name="seven" horiz-adv-x="506" d="M129 15Q124 7 117 2T101 -4H100Q84 -4 78 9T82 40L503 652V654H131Q119 654 114 660T109 676V678Q109 687 114 693T131 700H537Q548 700 553 694T559 679V678Q559 667 554 657T536 628L129 15Z" />
<glyph unicode="8" glyph-name="eight" horiz-adv-x="565" d="M514 209Q514 159 494 120T439 53T355 11T250 -4Q210 -4 170 5T96 37T43 93T22 177Q22 218 37 252T80 312T145 355T227 379V381Q182 399 156 432T130 515Q130 558 148 593T198 652T270 690T358 704Q398
704 433 694T496 664T539 613T555 542Q555 504 543 475T510 424T459 389T395 369V367Q455 348 484 307T514 209ZM75 180Q75 142 89 115T127 71T183 45T251 37Q296 37 334 48T401 81T445 135T461 210Q461 249 446 276T407 320T351 345T286 353Q239 353 200 340T133
303T90 249T75 180ZM182 514Q182 481 195 459T229 422T276 402T331 395Q409 395 456 431T503 540Q503 573 492 596T461 634T414 656T357 663Q321 663 289 654T234 625T196 578T182 514Z" />
<glyph unicode="9" glyph-name="nine" horiz-adv-x="579" d="M277 275Q235 275 200 286T138 319T97 373T82 449Q82 502 102 548T158 629T240 684T341 704Q394 704 435 687T505 638T548 565T563 472Q563 414 553 357T523 249T473 153T403 75Q358 37 302 16T177
-5Q135 -5 99 3T33 30Q16 41 16 57V58Q16 69 22 75T40 82Q50 82 57 75T78 60T115 45T178 38Q239 38 289 57T377 111Q428 156 458 221T501 361Q459 325 401 300T277 275ZM292 316Q352 316 408 342T507 408Q509 425 510 441T511 475Q511 515 501 549T469 608T416
647T340 662Q296 662 259 647T194 604T151 537T135 451Q135 383 177 350T292 316Z" />
<glyph unicode=":" glyph-name="colon" horiz-adv-x="148" d="M67 36Q67 19 56 8T27 -4Q10 -4 0 6T-10 33Q-10 50 1 61T30 73Q47 73 57 63T67 36ZM141 347Q141 330 130 319T101 307Q84 307 74 317T64 344Q64 361 75 372T104 384Q121 384 131 374T141 347Z" />
<glyph unicode=";" glyph-name="semicolon" horiz-adv-x="148" d="M141 347Q141 330 130 319T101 307Q84 307 74 317T64 344Q64 361 75 372T104 384Q121 384 131 374T141 347ZM70 22Q70 -19 46 -43T-21 -76Q-44 -81 -44 -64V-63Q-44 -51 -26 -45Q-8 -39 4 -32T16
-11Q16 -4 13 0T4 9Q-10 21 -10 37Q-10 53 1 63T29 73Q49 73 59 60T70 22Z" />
<glyph unicode="&lt;" glyph-name="less" horiz-adv-x="444" d="M443 537Q460 545 469 539T478 522V521Q478 514 473 508T453 496L100 337V336L373 161Q388 151 388 139V138Q388 127 377 120T348 123L57 313Q48 319 45 325T42 337V338Q42 348 46 354T63 366L443 537Z" />
<glyph unicode="=" glyph-name="equal" horiz-adv-x="472" d="M459 420Q470 420 475 414T480 399V397Q480 389 475 383T459 376H77Q66 376 61 382T56 397V399Q56 407 61 413T77 420H459ZM421 253Q432 253 437 247T442 232V230Q442 222 437 216T421 209H39Q28 209
23 215T18 230V232Q18 240 23 246T39 253H421Z" />
<glyph unicode="&gt;" glyph-name="greater" horiz-adv-x="444" d="M33 122Q16 114 7 120T-2 137V138Q-2 145 3 151T23 163L376 322V323L103 498Q88 508 88 520V521Q88 532 99 539T128 536L419 346Q428 340 431 334T434 322V321Q434 311 430 305T413 293L33 122Z" />
<glyph unicode="?" glyph-name="question" horiz-adv-x="428" d="M135 141Q124 141 119 148T115 168Q117 202 127 230T154 282T196 327T251 372Q274 389 301 406T351 445T389 496T405 565Q405 593 395 611T369 641T331 657T288 662Q242 662 217 654T177 635T153
617T132 608Q123 608 117 614T111 629V630Q111 639 117 648T137 666Q163 683 202 693T292 704Q323 704 353 696T406 672T444 629T459 565Q459 523 445 492T408 436T355 390T296 348Q267 328 244 311T203 272T175 225T158 163Q156 141 136 141H135ZM156 34Q156 17
145 7T117 -4Q100 -4 90 6T79 34Q79 50 89 61T117 73Q134 73 145 62T156 34Z" />
<glyph unicode="@" glyph-name="at" horiz-adv-x="867" d="M621 72Q593 72 574 79T544 99T528 126T524 159Q510 143 493 127T455 99T411 78T360 70Q310 70 278 102T246 198Q246 245 264 293T313 379T389 442T485 467Q525 467 548 457T588 432Q593 449 598 458T616
468H617Q626 468 630 462T632 444L574 199Q564 157 575 133T629 109Q659 109 688 121T742 160T781 230T796 335Q796 404 772 457T705 546T602 600T470 619Q402 619 335 596T215 525T128 408T94 245Q94 157 121 95T195 -6T305 -64T440 -82Q510 -82 554 -71T626 -45T669
-20T695 -8Q703 -8 708 -13T713 -25V-26Q713 -41 696 -53Q652 -85 584 -102T440 -119Q363 -119 293 -99T168 -35T82 78T49 245Q49 345 87 422T185 551T321 630T470 657Q546 657 613 636T731 575T811 474T840 335Q840 266 821 216T770 134T699 87T621 72ZM292 198Q292
150 314 129T367 108Q393 108 415 116T456 139T494 172T529 208L574 400Q558 412 539 420T486 428Q446 428 411 408T349 356T308 282T292 198Z" />
<glyph unicode="A" glyph-name="A" horiz-adv-x="616" d="M365 676Q371 686 379 693T404 700H410Q428 700 434 691T443 669L526 29Q528 14 522 6T501 -3H500Q478 -3 475 23L450 219H147L32 21Q24 8 18 2T3 -4H2Q-10 -4 -15 7T-13 33L365 676ZM173 263H444L396
641H394L173 263Z" />
<glyph unicode="B" glyph-name="B" horiz-adv-x="589" d="M63 0Q50 0 44 9T40 33L188 672Q191 684 199 692T222 700H375Q458 700 509 662T561 546Q561 507 549 477T515 425T464 389T399 368V366Q457 355 494 319T531 213Q531 157 509 117T448 51T359 13T251 0H63ZM95
43H254Q300 43 340 52T411 83T459 136T477 215Q477 281 434 313T312 346H165L95 43ZM174 389H315Q354 389 389 397T450 425T492 472T508 542Q508 601 470 629T373 657H237L174 389Z" />
<glyph unicode="C" glyph-name="C" horiz-adv-x="625" d="M525 48Q488 23 440 10T330 -4Q268 -4 219 13T134 65T81 151T62 268Q62 347 88 425T165 565T290 665T462 704Q518 704 557 694T623 664Q645 648 645 631V630Q645 619 639 613T621 606Q608 606 600 614T576
633T534 652T458 661Q374 661 310 626T203 535T138 409T116 268Q116 158 171 99T332 39Q386 39 419 50T473 73T506 97T529 108Q540 108 546 102T553 85V84Q553 66 525 48Z" />
<glyph unicode="D" glyph-name="D" horiz-adv-x="682" d="M388 700Q453 700 503 682T589 628T642 543T660 430Q660 347 634 270T559 132T438 36T275 0H63Q49 0 44 10T41 35L188 673Q191 685 199 692T222 700H388ZM95 43H274Q355 43 417 76T521 163T584 287T606
430Q606 479 593 521T553 593T485 640T386 657H236L95 43Z" />
<glyph unicode="E" glyph-name="E" horiz-adv-x="557" d="M164 340L96 43H449Q457 43 463 38T470 22V21Q470 10 464 5T449 0H63Q49 0 44 10T41 35L188 673Q191 685 199 692T222 700H579Q587 700 593 695T600 679V677Q600 666 594 661T579 656H237L173 383H423Q431
383 437 378T444 362V361Q444 350 438 345T423 340H164Z" />
<glyph unicode="F" glyph-name="F" horiz-adv-x="540" d="M91 21Q86 -3 65 -3H64Q50 -3 44 7T41 34L188 674Q194 700 222 700H580Q588 700 594 695T601 679V677Q601 666 595 661T580 656H237L170 364H417Q425 364 431 359T438 343V342Q438 331 432 326T417 321H160L91
21Z" />
<glyph unicode="G" glyph-name="G" horiz-adv-x="667" d="M580 343Q598 343 605 333T609 308L556 76Q552 59 544 50T518 31Q488 16 441 6T334 -4Q277 -4 228 11T142 58T84 141T62 264Q62 316 73 368T107 470T162 561T238 636T333 686T449 704Q506 704 551 693T632
657Q653 642 653 625V624Q653 613 646 606T627 598Q614 598 604 608T577 629T529 651T445 661Q364 661 303 625T199 532T136 403T115 263Q115 147 175 93T337 39Q400 39 439 50T504 76L554 300H428Q417 300 412 306T407 321V322Q407 330 412 336T428 343H580Z"
/>
<glyph unicode="H" glyph-name="H" horiz-adv-x="687" d="M543 22Q538 -3 517 -3H516Q502 -3 496 7T493 35L563 339H164L91 22Q86 -3 65 -3H64Q50 -3 44 7T41 35L189 678Q194 703 215 703H216Q230 703 236 693T239 665L174 383H573L641 678Q646 703 667 703H668Q682
703 688 693T691 665L543 22Z" />
<glyph unicode="I" glyph-name="I" horiz-adv-x="238" d="M191 678Q196 703 217 703H218Q232 703 238 693T241 665L93 22Q88 -3 67 -3H66Q52 -3 46 7T43 35L191 678Z" />
<glyph unicode="J" glyph-name="J" horiz-adv-x="414" d="M302 146Q285 75 239 35T106 -5Q31 -5 -15 26Q-31 37 -31 53V54Q-31 65 -25 71T-7 78Q2 78 9 72T27 58T57 44T107 38Q172 38 205 68T252 156L372 678Q377 703 398 703H399Q413 703 419 693T422 665L302 146Z" />
<glyph unicode="K" glyph-name="K" horiz-adv-x="617" d="M189 678Q194 703 215 703H216Q230 703 236 693T239 666L155 302L602 691Q615 703 626 703H627Q640 703 645 690T637 664L343 410L523 35Q530 21 523 9T501 -3H500Q483 -3 473 19L303 376L140 235L91 22Q86
-3 65 -3H64Q50 -3 44 7T41 34L189 678Z" />
<glyph unicode="L" glyph-name="L" horiz-adv-x="543" d="M63 0Q49 0 44 10T41 34L189 678Q194 703 215 703H216Q230 703 236 693T239 666L96 43H433Q441 43 447 38T454 22V21Q454 10 448 5T433 0H63Z" />
<glyph unicode="M" glyph-name="M" horiz-adv-x="807" d="M663 22Q658 -3 637 -3H636Q622 -3 616 7T613 34L753 645H748L374 18Q366 6 361 2T346 -3H344Q325 -3 322 22L236 645H232L88 22Q86 11 80 4T62 -3H61Q50 -3 43 5T40 31L187 670Q190 684 197 692T221 700H246Q264
700 271 693T280 671L362 79H363L715 673Q722 685 732 692T759 700H783Q802 700 808 690T811 665L663 22Z" />
<glyph unicode="N" glyph-name="N" horiz-adv-x="682" d="M540 26Q534 -2 510 -2H509Q495 -2 488 4T473 28L231 639H229L87 22Q82 -3 63 -3H62Q50 -3 43 5T40 31L187 670Q190 684 198 692T222 700H234Q251 700 258 693T270 674L503 87H505L641 678Q646 703 665
703H666Q678 703 685 695T688 669L540 26Z" />
<glyph unicode="O" glyph-name="O" horiz-adv-x="716" d="M115 272Q115 221 128 178T167 104T233 56T330 38Q403 38 461 73T559 164T620 289T641 429Q641 478 629 521T590 595T524 644T427 662Q355 662 297 627T199 537T137 412T115 272ZM694 429Q694 349 669
271T596 132T480 34T328 -4Q264 -4 215 16T131 72T80 160T62 273Q62 352 88 429T161 568T276 666T428 704Q492 704 541 684T625 628T676 542T694 429Z" />
<glyph unicode="P" glyph-name="P" horiz-adv-x="577" d="M163 335H292Q343 335 386 345T460 378T508 439T526 534Q526 602 482 629T361 656H237L163 335ZM365 700Q465 700 521 661T578 532Q578 468 557 423T497 349T405 307T289 293H153L91 21Q86 -3 65 -3H64Q50
-3 44 7T41 34L188 673Q191 685 199 692T222 700H365Z" />
<glyph unicode="Q" glyph-name="Q" horiz-adv-x="716" d="M589 -94Q581 -94 573 -92T553 -87L275 -9Q62 51 62 273Q62 352 88 429T161 568T276 666T428 704Q492 704 541 684T625 628T676 542T694 429Q694 352 671 279T606 147T505 50T374 6V4L590 -43Q613 -47
613 -67V-68Q613 -94 589 -94ZM116 272Q116 221 128 178T167 104T234 56T330 38Q403 38 460 73T557 164T618 289T639 429Q639 478 627 521T590 595T524 644T427 662Q355 662 298 627T200 537T138 412T116 272Z" />
<glyph unicode="R" glyph-name="R" horiz-adv-x="602" d="M91 21Q86 -3 64 -3H63Q50 -3 44 7T41 34L188 673Q191 685 199 692T222 700H371Q468 700 520 660T572 539Q572 446 524 395T391 326L503 36Q509 20 502 9T481 -3H480Q470 -3 465 3T455 18L341 319Q331
318 321 318T301 318H160L91 21ZM169 360H300Q351 360 391 369T460 400T504 456T519 541Q519 603 479 629T367 656H237L169 360Z" />
<glyph unicode="S" glyph-name="S" horiz-adv-x="527" d="M467 215Q467 160 449 119T400 51T325 10T229 -4Q166 -4 111 14T18 64Q1 78 1 95V96Q1 107 7 114T27 122Q41 122 53 109T85 81T139 52T230 39Q270 39 304 49T363 81T401 135T415 211Q415 239 404 259T374
293T328 319T270 342Q233 355 203 368T152 401T119 445T107 509Q107 552 123 588T169 650T240 690T330 704Q383 704 425 691T499 654Q522 637 522 617V616Q522 605 516 598T497 591Q483 591 473 602T446 626T402 650T328 661Q293 661 262 651T207 623T171 577T157
513Q157 483 168 463T198 429T242 405T298 384Q334 371 364 357T418 324T454 278T467 215Z" />
<glyph unicode="T" glyph-name="T" horiz-adv-x="556" d="M253 22Q248 -3 227 -3H226Q212 -3 206 7T203 34L347 657H144Q136 657 130 662T123 678V679Q123 690 129 695T144 700H609Q617 700 623 695T630 679V678Q630 667 624 662T609 657H400L253 22Z" />
<glyph unicode="U" glyph-name="U" horiz-adv-x="679" d="M579 205Q553 92 485 44T316 -4Q252 -4 203 11T123 59T83 140T88 257L185 678Q190 703 211 703H212Q226 703 232 693T235 665L140 252Q115 143 162 92T317 40Q357 40 391 48T453 75T500 126T531 209L639
678Q644 703 663 703H664Q675 703 682 695T686 669L579 205Z" />
<glyph unicode="V" glyph-name="V" horiz-adv-x="603" d="M249 -3Q233 -3 227 4T219 22L132 670Q130 685 136 694T157 703H158Q180 703 183 677L263 70H265L619 686Q629 703 642 703H643Q657 703 663 691T661 665L286 19Q280 9 273 3T251 -3H249Z" />
<glyph unicode="W" glyph-name="W" horiz-adv-x="891" d="M607 81H610L902 683Q912 703 927 703H928Q945 703 950 691T949 664L631 20Q625 8 618 3T596 -3H591Q577 -3 570 4T562 23L527 607H526L230 20Q224 8 217 3T195 -3H190Q176 -3 169 4T161 23L134 671Q133
687 140 695T160 703H161Q184 703 186 673L207 81H210L514 680Q519 691 526 696T545 702H548Q571 702 572 677L607 81Z" />
<glyph unicode="X" glyph-name="X" horiz-adv-x="604" d="M40 12Q32 3 27 0T16 -3H15Q1 -3 -5 10T0 35L291 366L161 665Q155 679 162 691T184 703H185Q202 703 210 682L333 395L589 688Q597 697 602 700T613 703H614Q628 703 634 690T629 665L360 359L501 35Q507
21 500 9T478 -3H477Q468 -3 463 2T452 18L317 330L40 12Z" />
<glyph unicode="Y" glyph-name="Y" horiz-adv-x="552" d="M255 22Q250 -3 228 -3H227Q213 -3 207 7T204 34L264 295L129 666Q124 681 130 692T152 703H153Q171 703 179 681L302 343H303L574 686Q587 703 598 703H599Q614 703 620 690T615 663L317 291L255 22Z" />
<glyph unicode="Z" glyph-name="Z" horiz-adv-x="581" d="M562 655V657H190Q179 657 175 663T170 678V680Q170 688 174 694T191 700H613Q625 700 629 694T634 680V678Q634 668 629 661T613 641L62 44V42H450Q461 42 465 36T470 22V20Q470 12 466 6T450 0H13Q1
0 -3 6T-8 20V22Q-8 32 -3 39T13 59L562 655Z" />
<glyph unicode="[" glyph-name="bracketleft" horiz-adv-x="292" d="M45 -49Q32 -49 26 -40T22 -16L192 713Q194 725 202 733T226 741H351Q359 741 364 737T370 722V721Q370 710 365 706T351 701H238L74 -9H178Q186 -9 191 -13T197 -28V-29Q197 -40 192 -44T178 -49H45Z" />
<glyph unicode="\" glyph-name="backslash" horiz-adv-x="312" d="M112 716Q110 728 116 736T134 744H135Q155 744 158 719L246 -24Q248 -36 242 -44T224 -52H223Q203 -52 200 -27L112 716Z" />
<glyph unicode="]" glyph-name="bracketright" horiz-adv-x="292" d="M290 741Q303 741 309 732T313 708L143 -21Q141 -33 133 -41T109 -49H-16Q-24 -49 -29 -45T-35 -30V-29Q-35 -18 -30 -14T-16 -9H97L261 701H157Q149 701 144 705T138 720V721Q138 732 143
736T157 741H290Z" />
<glyph unicode="^" glyph-name="asciicircum" horiz-adv-x="391" d="M104 465Q92 465 87 476T92 498L263 687Q269 694 276 698T294 702H296Q316 702 324 684L408 495Q413 485 408 475T389 465H388Q374 465 367 481L289 654H288L126 478Q115 465 105 465H104Z" />
<glyph unicode="_" glyph-name="underscore" horiz-adv-x="327" d="M-79 -162Q-88 -162 -92 -157T-96 -145V-144Q-96 -138 -92 -133T-79 -127H223Q232 -127 236 -132T240 -144V-145Q240 -151 236 -156T223 -162H-79Z" />
<glyph unicode="`" glyph-name="grave" horiz-adv-x="412" d="M297 601Q305 588 301 579T286 570H285Q275 570 265 584L208 662Q197 677 204 690T225 703H226Q241 703 252 682L297 601Z" />
<glyph unicode="a" glyph-name="a" horiz-adv-x="479" d="M154 -4Q89 -4 50 30T11 127Q11 169 27 201T73 255T144 288T237 299Q277 299 308 292T365 275L382 347Q391 385 387 412T368 455T330 479T279 487Q237 487 211 480T169 464T143 448T123 441Q102 441 102
461V462Q102 482 137 499Q163 511 198 519T282 527Q321 527 353 517T407 484T435 427T431 343L357 22Q354 11 349 4T332 -3H331Q317 -3 311 5T309 30L318 70Q288 38 247 17T154 -4ZM162 33Q216 33 256 58T330 122L357 240Q332 250 303 256T238 263Q154 263 107
229T59 129Q59 81 86 57T162 33Z" />
<glyph unicode="b" glyph-name="b" horiz-adv-x="556" d="M238 -4Q206 -4 181 2T136 17T102 37T77 60L68 22Q63 -3 42 -3H41Q29 -3 23 5T20 31L169 678Q175 703 195 703H196Q208 703 214 695T217 669L160 421Q179 440 202 459T252 493T309 517T372 527Q403 527
430 517T477 486T508 432T520 353Q520 283 500 219T444 105T355 26T238 -4ZM361 486Q328 486 300 476T245 450T194 414T148 371L86 102Q106 78 140 57T231 35Q288 35 332 61T407 132T453 232T469 350Q469 387 461 412T439 454T404 478T361 486Z" />
<glyph unicode="c" glyph-name="c" horiz-adv-x="482" d="M390 42Q365 25 326 11T229 -4Q180 -4 144 11T83 54T47 118T35 200Q35 266 57 325T119 429T213 500T334 527Q385 527 418 514T470 484Q483 471 483 458V457Q483 447 477 441T462 435Q452 435 444 443T424
461T391 479T335 487Q278 487 232 464T154 400T104 309T86 201Q86 126 121 81T232 36Q277 36 304 45T347 65T373 85T393 94Q404 94 409 88T414 75V74Q414 64 408 57T390 42Z" />
<glyph unicode="d" glyph-name="d" horiz-adv-x="559" d="M427 22Q422 -3 402 -3H401Q386 -3 381 6T379 33L394 99Q352 56 301 26T186 -4Q155 -4 128 6T81 37T48 91T36 172Q36 238 57 301T118 415T211 496T332 527Q362 527 385 522T425 507T456 487T479 465L528
678Q534 703 553 703H554Q567 703 573 695T576 669L427 22ZM200 35Q231 35 258 44T311 70T360 107T406 150L469 424Q459 436 448 447T420 468T384 482T337 488Q278 488 232 461T153 389T104 287T87 172Q87 98 117 67T200 35Z" />
<glyph unicode="e" glyph-name="e" horiz-adv-x="502" d="M85 198Q85 123 121 80T235 37Q280 37 307 46T350 65T377 85T399 94Q410 94 415 88T420 75V74Q420 64 415 57T396 41Q364 21 323 9T231 -4Q182 -4 146 11T85 53T48 117T35 198Q35 262 55 321T113 427T203
500T317 527Q399 526 439 482T480 363Q480 345 478 326T471 287Q469 275 461 267T437 259H90Q87 244 86 229T85 198ZM425 297Q434 331 434 363Q434 427 403 458T315 489Q275 489 240 474T178 434T130 373T98 297H425Z" />
<glyph unicode="f" glyph-name="f" horiz-adv-x="282" d="M140 483H94Q83 483 79 488T74 501V503Q74 511 78 516T94 521H149L162 580Q178 648 215 675T303 703Q327 703 347 699Q369 695 369 679V678Q369 660 348 660Q341 660 330 661T305 662Q274 662 249 645T213
579L200 521H300Q311 521 315 516T320 503V501Q320 493 316 488T300 483H190L85 22Q80 -3 59 -3H58Q46 -3 40 5T37 31L140 483Z" />
<glyph unicode="g" glyph-name="g" horiz-adv-x="552" d="M423 12Q411 -39 389 -73T336 -128T264 -157T177 -166Q132 -166 92 -157T23 -129Q3 -117 3 -101V-100Q3 -90 9 -84T26 -77Q35 -77 45 -84T71 -101T112 -118T178 -126Q215 -126 246 -120T303 -97T346 -54T373
13L395 111Q375 91 352 72T302 37T245 13T183 4Q153 4 126 13T79 43T47 96T35 175Q35 240 56 303T115 416T208 496T331 527Q386 527 420 508T476 465L485 501Q491 524 511 524H512Q523 524 530 516T534 490L423 12ZM197 43Q228 43 256 53T311 81T361 119T407 162L467
425Q457 436 445 447T417 467T381 482T336 488Q276 488 230 461T151 389T103 288T86 175Q86 103 116 73T197 43Z" />
<glyph unicode="h" glyph-name="h" horiz-adv-x="545" d="M160 422Q213 464 275 495T404 527Q432 527 454 518T489 489T506 440T501 371L420 22Q417 11 412 4T395 -3H394Q383 -3 376 5T372 30L450 369Q464 431 446 458T385 485Q328 485 269 454T149 373L68 22Q63
-3 42 -3H41Q29 -3 23 5T20 31L169 678Q175 703 195 703H196Q208 703 214 695T217 669L160 422Z" />
<glyph unicode="i" glyph-name="i" horiz-adv-x="202" d="M220 635Q220 621 210 611T186 601Q172 601 162 611T152 635Q152 649 162 659T186 669Q200 669 210 659T220 635ZM70 22Q65 -3 44 -3H43Q31 -3 25 5T22 31L130 499Q133 510 138 517T155 524H156Q167 524
174 516T177 489L70 22Z" />
<glyph unicode="j" glyph-name="j" horiz-adv-x="201" d="M221 635Q221 621 211 611T187 601Q173 601 163 611T153 635Q153 649 163 659T187 669Q201 669 211 659T221 635ZM-80 -125Q-44 -124 -25 -110T2 -61L131 499Q136 524 156 524H157Q169 524 175 515T178
488L51 -66Q40 -114 11 -139T-68 -164Q-72 -164 -77 -164T-88 -163Q-110 -160 -110 -145V-144Q-110 -136 -105 -131T-80 -125Z" />
<glyph unicode="k" glyph-name="k" horiz-adv-x="466" d="M433 510Q442 518 447 521T458 524H459Q472 524 476 511T467 485L252 297L393 35Q401 20 395 9T374 -3H373Q360 -3 351 13L215 264L100 162L68 22Q63 -3 42 -3H41Q29 -3 23 5T20 31L169 679Q175 703 195
703H196Q208 703 214 695T217 669L115 226L433 510Z" />
<glyph unicode="l" glyph-name="l" horiz-adv-x="203" d="M70 22Q65 -3 44 -3H43Q31 -3 25 5T22 31L171 678Q177 703 197 703H198Q210 703 216 695T219 669L70 22Z" />
<glyph unicode="m" glyph-name="m" horiz-adv-x="842" d="M704 527Q759 527 787 488T797 371L716 21Q714 10 708 4T691 -3H690Q678 -3 671 5T668 30L746 369Q760 430 743 457T685 485Q638 485 586 457T476 381L474 371L393 22Q388 -3 367 -3H366Q355 -3 348 5T345
31L422 369Q436 431 419 458T361 485Q313 485 260 455T150 377L68 22Q63 -3 42 -3H41Q30 -3 23 5T20 31L128 499Q133 524 154 524H155Q166 524 173 516T176 490L161 425Q185 445 211 463T265 496T322 518T380 527Q424 527 451 502T480 426Q531 468 588 497T704
527Z" />
<glyph unicode="n" glyph-name="n" horiz-adv-x="545" d="M128 499Q131 510 137 517T154 524H155Q167 524 173 516T176 490L160 422Q213 464 275 495T404 527Q432 527 454 518T489 489T506 440T501 371L420 22Q417 11 412 4T395 -3H394Q383 -3 376 5T372 30L450
369Q464 431 446 458T385 485Q328 485 269 454T149 373L68 22Q63 -3 42 -3H41Q29 -3 23 5T20 31L128 499Z" />
<glyph unicode="o" glyph-name="o" horiz-adv-x="555" d="M85 201Q85 118 125 77T239 35Q292 35 334 59T407 123T453 215T470 324Q470 404 430 446T317 488Q265 488 223 465T150 403T102 311T85 201ZM520 323Q520 257 500 198T442 93T353 22T238 -4Q142 -4 89
50T35 201Q35 268 56 327T115 430T204 501T318 527Q413 527 466 472T520 323Z" />
<glyph unicode="p" glyph-name="p" horiz-adv-x="555" d="M127 494Q133 521 153 521H154Q166 521 172 512T175 485L160 422Q202 465 255 496T374 527Q404 527 430 517T477 486T508 432T520 351Q520 282 501 218T445 106T355 28T235 -1Q203 -1 178 4T134 19T101
39T77 61L31 -140Q26 -165 5 -165H4Q-8 -165 -14 -157T-17 -131L127 494ZM357 486Q327 486 299 477T245 451T195 415T149 373L87 103Q96 91 108 80T137 59T177 45T230 39Q289 39 333 65T408 134T453 234T469 350Q469 389 460 415T436 457T401 479T357 486Z" />
<glyph unicode="q" glyph-name="q" horiz-adv-x="559" d="M395 103Q376 83 353 65T304 32T248 8T186 -1Q155 -1 128 8T81 39T48 92T36 171Q36 238 57 302T118 416T211 496T333 527Q362 527 384 522T424 508T455 489T479 467L485 493Q491 521 511 521H512Q524 521
532 513T535 486L390 -140Q385 -165 364 -165H363Q350 -165 344 -157T341 -131L395 103ZM197 39Q228 39 256 49T311 75T361 112T407 155L469 426Q460 437 449 448T422 468T385 482T336 488Q277 488 231 461T153 389T104 288T87 174Q87 99 118 69T197 39Z" />
<glyph unicode="r" glyph-name="r" horiz-adv-x="340" d="M341 482Q284 476 239 448T147 365L68 22Q63 -3 42 -3H41Q29 -3 23 5T20 31L128 499Q131 510 136 517T153 524H154Q165 524 172 516T176 490L160 421Q197 464 244 494T345 525Q369 525 369 506V505Q369
485 341 482Z" />
<glyph unicode="s" glyph-name="s" horiz-adv-x="407" d="M347 161Q347 126 335 96T299 44T237 9T150 -4Q96 -4 59 10T0 42Q-7 47 -11 54T-16 70V71Q-16 81 -10 87T7 94Q17 94 26 85T50 65T88 44T150 35Q228 35 263 69T298 154Q298 173 292 187T272 212T239 231T194
248Q164 258 140 268T98 293T72 328T62 376Q62 443 109 485T245 527Q293 527 325 516T375 493Q383 488 388 481T394 464V463Q394 454 389 448T373 442Q363 442 355 449T333 465T299 481T243 488Q177 488 144 459T110 381Q110 343 136 325T214 290Q244 281 268 271T310
245T337 210T347 161Z" />
<glyph unicode="t" glyph-name="t" horiz-adv-x="306" d="M302 521Q313 521 317 516T322 503V501Q322 493 318 488T302 483H188L108 134Q96 81 112 59T171 37Q181 37 193 38T211 39Q233 39 233 21V20Q233 4 212 0Q200 -2 187 -3T158 -4Q90 -4 67 32T59 138L138
483H93Q82 483 78 488T73 501V503Q73 511 77 516T93 521H147L175 644Q178 655 184 662T201 669H202Q214 669 220 661T223 635L197 521H302Z" />
<glyph unicode="u" glyph-name="u" horiz-adv-x="543" d="M410 22Q407 11 402 4T384 -3H383Q372 -3 364 5T361 31L376 98Q351 78 324 59T268 26T208 3T145 -6Q116 -6 93 3T55 32T36 81T41 150L122 499Q125 510 130 517T148 524H149Q160 524 168 516T171 490L93
153Q79 90 98 63T159 35Q214 35 271 66T387 145L469 499Q471 510 477 517T495 524H496Q507 524 515 516T518 490L410 22Z" />
<glyph unicode="v" glyph-name="v" horiz-adv-x="482" d="M189 -3Q164 -3 160 24L81 486Q77 501 83 512T106 524H107Q118 524 123 516T131 496L201 68H203L458 507Q467 524 481 524H482Q494 524 501 514T499 487L223 17Q215 5 208 1T190 -3H189Z" />
<glyph unicode="w" glyph-name="w" horiz-adv-x="708" d="M177 16Q172 7 166 2T148 -3H144Q130 -3 125 4T119 23L80 496Q79 508 85 516T104 524H105Q117 524 122 517T129 499L163 80H165L379 503Q384 514 390 518T407 523H410Q430 523 432 501L474 80H476L684
508Q691 524 704 524H705Q719 524 725 514T725 491L490 16Q485 7 480 2T462 -3H459Q446 -3 441 4T434 20L394 440H393L177 16V16Z" />
<glyph unicode="x" glyph-name="x" horiz-adv-x="489" d="M391 34Q398 20 392 9T371 -3H370Q356 -3 346 17L241 238L30 12Q17 -3 6 -3H5Q-9 -3 -13 10T-7 35L217 274L114 487Q107 501 113 512T134 524H135Q149 524 159 504L255 305L445 509Q458 524 469 524H470Q485
524 489 511T482 486L279 270L391 34Z" />
<glyph unicode="y" glyph-name="y" horiz-adv-x="485" d="M89 -148Q82 -159 77 -162T64 -166H63Q49 -166 43 -154T46 -128L162 46L78 492Q76 506 81 515T102 524H103Q122 524 126 502L200 101H201L462 507Q473 524 486 524H487Q501 524 506 512T504 488L89 -148Z" />
<glyph unicode="z" glyph-name="z" horiz-adv-x="459" d="M43 39H348Q358 39 362 34T366 21V19Q366 0 348 0H-3Q-23 0 -23 19V20Q-23 29 -18 36T-2 55L415 482H129Q110 482 110 501V503Q110 511 114 516T129 521H462Q482 521 482 502V501Q482 492 477 485T461 466L43 39Z" />
<glyph unicode="{" glyph-name="braceleft" horiz-adv-x="321" d="M172 -49Q50 -49 77 68L125 276Q131 303 120 318T77 334H67Q57 334 53 339T48 353V355Q48 363 52 368T67 374H83Q117 374 135 389T160 433L206 628Q220 686 249 713T336 741H380Q390 741 394 736T399
722V720Q399 712 395 707T380 701H339Q302 701 283 684T255 628L210 433Q202 396 183 377T134 353V352Q158 344 170 326T174 273L126 65Q117 26 128 9T179 -9H206Q216 -9 220 -14T225 -28V-30Q225 -38 221 -43T206 -49H172Z" />
<glyph unicode="|" glyph-name="bar" horiz-adv-x="233" d="M116 721Q116 732 122 736T137 741H139Q147 741 153 737T159 721V-32Q159 -43 153 -47T139 -52H137Q128 -52 122 -48T116 -32V721V721Z" />
<glyph unicode="}" glyph-name="braceright" horiz-adv-x="321" d="M192 741Q314 741 287 624L239 416Q233 389 244 374T287 358H297Q307 358 311 353T316 339V337Q316 329 312 324T297 318H281Q247 318 229 303T204 259L158 64Q144 6 115 -21T28 -49H-16Q-26
-49 -30 -44T-35 -30V-28Q-35 -20 -31 -15T-16 -9H25Q62 -9 81 8T109 64L154 259Q162 296 181 315T230 339V340Q206 348 194 366T190 419L238 627Q247 666 236 683T185 701H158Q148 701 144 706T139 720V722Q139 730 143 735T158 741H192Z" />
<glyph unicode="~" glyph-name="asciitilde" horiz-adv-x="326" d="M226 243Q209 243 193 249T162 263T132 277T106 284Q91 284 83 277T70 260T60 243T46 235H45Q34 235 29 243T28 266Q34 292 55 310T108 329Q126 329 142 323T174 309T202 295T228 288Q243 288
251 295T264 312T273 329T287 337H288Q300 337 304 329T306 306Q299 276 277 260T226 243Z" />
<glyph unicode="&#xa1;" glyph-name="exclamdown" horiz-adv-x="215" d="M172 457Q145 338 123 236Q113 192 104 148T86 65T71 -5T60 -53Q58 -64 52 -71T33 -79H32Q18 -79 12 -69T8 -45Q12 -27 19 4T36 74T56 157T78 245Q103 346 132 464Q137 483 153 483H154Q165
483 169 476T172 457ZM143 590Q143 607 154 617T182 628Q199 628 209 618T220 590Q220 574 210 563T182 551Q165 551 154 562T143 590Z" />
<glyph unicode="&#xa2;" glyph-name="cent" horiz-adv-x="490" d="M359 526Q398 523 426 512T473 485Q489 472 489 456V455Q489 446 483 440T468 434Q458 434 450 441T430 458T400 475T350 486L247 36Q286 38 311 47T352 66T378 85T400 93Q409 93 414 88T419 75V74Q419
58 396 43Q371 26 332 12T237 -4L218 -85Q213 -105 198 -105H197Q186 -105 181 -98T179 -76L196 -2Q115 8 75 63T35 200Q35 264 55 322T113 424T203 495T318 526L328 568Q333 588 348 588H349Q360 588 365 581T367 559L359 526ZM86 201Q86 133 114 90T205 38L309
485Q258 480 217 455T146 390T102 302T86 201Z" />
<glyph unicode="&#xa3;" glyph-name="sterling" horiz-adv-x="493" d="M168 324Q168 290 166 255T155 183Q143 130 116 98T56 43H404Q414 43 419 37T424 22V21Q424 13 419 7T404 0H-4Q-16 0 -20 6T-25 20V21Q-25 32 -20 36T-4 47Q37 70 66 103T107 186Q115 221
117 255T118 324H72Q62 324 58 329T53 343V345Q53 353 57 358T72 364H117Q115 409 114 451T123 536Q141 615 197 659T354 704Q402 704 441 692T507 659Q525 644 525 629V628Q525 617 519 611T502 605Q490 605 480 613T455 632T415 651T351 660Q275 660 233 627T175
528Q166 492 166 451T168 364H356Q366 364 370 359T375 345V343Q375 335 371 330T356 324H168Z" />
<glyph unicode="&#xa5;" glyph-name="yen" horiz-adv-x="524" d="M274 196L234 22Q229 -3 208 -3H207Q193 -3 187 7T184 34L220 196H70Q52 196 52 215V216Q52 235 70 235H229L245 303H94Q76 303 76 322V323Q76 342 94 342H244L128 668Q123 682 131 692T153 703H154Q170
703 177 683L286 373H287L539 686Q547 696 552 699T564 703H565Q580 703 585 689T579 661L318 342H457Q475 342 475 323V322Q475 303 457 303H298L283 235H433Q451 235 451 216V215Q451 196 433 196H274Z" />
<glyph unicode="&#xa6;" glyph-name="brokenbar" horiz-adv-x="233" d="M116 293Q116 304 122 309T137 314H140Q148 314 154 309T161 293V-28Q161 -39 155 -44T140 -49H137Q129 -49 123 -44T116 -28V293ZM161 402Q161 391 155 386T140 381H137Q129 381 123 386T116
402V723Q116 734 122 739T137 744H140Q148 744 154 739T161 723V402Z" />
<glyph unicode="&#xa7;" glyph-name="section" horiz-adv-x="505" d="M481 276Q481 243 468 217T433 172T380 141T314 123Q340 103 354 79T368 20Q368 -16 354 -44T315 -92T254 -121T176 -131Q119 -131 78 -115T15 -80Q7 -73 4 -66T0 -53V-52Q0 -43 6 -37T23 -30Q33
-30 42 -39T67 -60T109 -81T179 -91Q240 -91 278 -64T317 17Q317 37 310 53T287 84T246 113T184 145Q146 162 119 178T73 213T47 251T38 296Q38 359 84 395T211 442Q156 483 156 551Q156 586 169 614T208 663T267 693T344 704Q389 704 423 693T481 664Q497 652
497 637V636Q497 625 491 620T476 614Q466 614 458 622T436 639T400 656T340 664Q280 664 242 635T204 555Q204 535 210 519T229 488T264 461T318 435Q352 421 382 406T434 372T468 330T481 276ZM206 184Q224 175 240 167T271 151Q304 155 333 163T384 186T419
221T432 271Q432 293 424 310T399 341T357 369T298 396Q287 401 277 404T258 413Q174 406 131 379T87 303Q87 283 93 268T113 240T149 213T206 184Z" />
<glyph unicode="&#xa8;" glyph-name="dieresis" horiz-adv-x="412" d="M256 635Q256 621 246 611T222 601Q208 601 198 611T188 635Q188 649 198 659T222 669Q236 669 246 659T256 635ZM400 635Q400 621 390 611T366 601Q352 601 342 611T332 635Q332 649 342
659T366 669Q380 669 390 659T400 635Z" />
<glyph unicode="&#xa9;" glyph-name="copyright" horiz-adv-x="795" d="M776 350Q776 264 747 198T670 86T557 18T421 -6Q350 -6 286 17T172 86T95 197T66 350Q66 436 94 502T172 614T285 682T421 706Q492 706 556 683T669 614T747 503T776 350ZM109 350Q109 273
133 214T200 114T299 52T421 31Q485 31 542 52T642 113T709 213T734 350Q734 427 710 486T642 587T542 649T421 670Q356 670 300 649T201 587T134 487T109 350ZM544 190Q526 176 498 166T429 156Q339 156 290 208T241 351Q241 396 255 432T294 493T354 531T431
545Q470 545 497 538T540 519Q557 507 557 493V492Q557 481 551 476T537 470Q528 470 521 475T504 487T477 499T431 505Q370 505 332 466T293 351Q293 274 329 236T431 197Q461 197 478 203T505 218T523 232T540 239Q548 239 554 234T560 219V218Q560 209 556 202T544
190Z" />
<glyph unicode="&#xaa;" glyph-name="ordfeminine" horiz-adv-x="415" d="M361 274Q356 254 338 254H337Q325 254 319 262T316 283L324 319Q295 288 262 271T186 254Q127 254 93 283T58 367Q58 405 73 432T114 478T175 504T249 513Q281 513 310 508T364 493L374
534Q390 602 365 633T282 665Q246 665 225 659T192 647T172 634T154 628Q145 628 140 633T135 647V648Q135 656 141 663T162 679Q188 691 217 697T286 704Q364 704 401 662T419 529L361 274ZM193 290Q234 290 268 309T335 364L357 460Q334 468 307 473T250 478Q219
478 193 472T147 452T117 417T106 368Q106 327 130 309T193 290Z" />
<glyph unicode="&#xab;" glyph-name="guillemotleft" horiz-adv-x="442" d="M168 45Q155 45 146 62L43 239Q39 246 38 250T37 258V259Q37 271 47 281L231 463Q239 471 244 473T254 476H255Q269 476 273 464T267 440L86 259V256L188 78Q195 66 189 56T169 45H168ZM335
45Q322 45 313 62L210 239Q206 246 205 250T204 258V259Q204 271 214 281L398 463Q406 471 411 473T421 476H422Q436 476 440 464T434 440L253 259V256L355 78Q362 66 356 56T336 45H335Z" />
<glyph unicode="&#xae;" glyph-name="registered" horiz-adv-x="414" d="M84 529Q84 569 97 602T135 658T193 695T266 708Q305 708 338 695T396 659T434 602T448 529Q448 489 435 456T397 400T339 363T266 350Q226 350 193 363T135 399T98 456T84 529ZM116 529Q116
462 157 421T266 379Q333 379 374 420T416 529Q416 596 375 637T266 679Q199 679 158 638T116 529ZM198 603Q198 617 205 623T224 629H273Q344 629 344 571Q344 532 308 518L343 462Q350 451 344 442T328 433H327Q320 433 316 437T308 447L270 512H237V452Q237
441 232 437T219 433H217Q198 433 198 452V603ZM237 539H270Q290 539 298 547T306 571Q306 585 298 593T270 601H237V539Z" />
<glyph unicode="&#xaf;" glyph-name="macron" horiz-adv-x="412" d="M198 611Q188 611 184 616T180 629V631Q180 638 184 643T198 648H389Q398 648 402 643T406 631V629Q406 621 402 616T389 611H198Z" />
<glyph unicode="&#xb0;" glyph-name="degree" horiz-adv-x="310" d="M144 576Q144 538 166 514T225 489Q263 489 288 515T313 583Q313 622 291 646T231 670Q193 670 169 644T144 576ZM354 583Q354 554 344 530T316 489T275 463T224 453Q198 453 176 461T138 486T113
524T103 575Q103 605 113 629T141 670T182 696T232 706Q284 706 319 673T354 583Z" />
<glyph unicode="&#xb2;" glyph-name="two.superior" horiz-adv-x="301" d="M63 327Q54 327 50 332T45 345V346Q45 355 49 361T67 377L187 466Q213 485 234 502T270 535T293 568T301 607Q301 635 283 651T229 667Q205 667 190 662T166 650T149 638T134 632Q118
632 118 648V649Q118 655 122 662T140 677Q157 688 181 695T235 703Q289 703 318 678T347 611Q347 586 339 566T314 526T273 487T216 443L110 365H281Q291 365 295 360T299 347V345Q299 337 295 332T281 327H63Z" />
<glyph unicode="&#xb3;" glyph-name="three.superior" horiz-adv-x="291" d="M201 537Q237 537 261 554T286 607Q286 667 211 667Q191 667 179 663T158 653T143 644T129 639Q113 639 113 655V656Q113 672 133 683Q148 692 170 697T219 703Q270 703 300 680T330
612Q330 570 305 549T245 520V518Q271 511 288 490T306 438Q306 410 295 389T266 354T222 332T169 324Q131 324 102 335T55 360Q41 371 41 385V386Q41 394 46 399T60 404Q68 404 75 397T94 382T122 367T168 360Q206 360 233 380T260 438Q260 473 239 488T188 504H170Q154
504 154 520V522Q154 528 158 532T170 537H201Z" />
<glyph unicode="&#xb4;" glyph-name="acute" horiz-adv-x="412" d="M339 685Q345 693 351 698T366 703H367Q382 703 387 689T378 660L297 581Q286 570 278 570H277Q267 570 263 579T269 600L339 685V685Z" />
<glyph unicode="&#xb6;" glyph-name="paragraph" horiz-adv-x="537" d="M519 700Q532 700 538 691T542 667L370 -73Q365 -94 347 -94H346Q334 -94 329 -85T327 -60L493 656H406L237 -73Q232 -94 214 -94H213Q201 -94 196 -85T194 -60L287 338H280Q237 338 201
347T138 376T96 424T81 493Q81 604 151 652T356 700H519Z" />
<glyph unicode="&#xb7;" glyph-name="periodcentered" horiz-adv-x="143" d="M121 316Q121 299 110 288T81 276Q64 276 54 286T44 313Q44 330 55 341T84 353Q101 353 111 343T121 316Z" />
<glyph unicode="&#xb8;" glyph-name="cedilla" horiz-adv-x="412" d="M136 -42Q168 -44 183 -61T198 -104Q198 -141 172 -157T112 -174Q72 -174 49 -159Q37 -151 37 -138V-137Q37 -120 54 -120Q60 -120 64 -123T75 -129T89 -135T110 -138Q130 -138 142 -130T155
-103Q155 -89 144 -81T109 -73H108Q101 -73 98 -69T96 -56L111 9H147L136 -42Z" />
<glyph unicode="&#xb9;" glyph-name="one.superior" horiz-adv-x="221" d="M235 702Q246 702 250 695T252 678L175 347Q170 324 151 324H150Q139 324 133 332T130 356L199 650L118 610Q112 607 107 607Q92 607 92 623V624Q92 630 96 635T112 646L210 694Q226 702
234 702H235Z" />
<glyph unicode="&#xba;" glyph-name="ordmasculine" horiz-adv-x="474" d="M127 428Q127 362 160 328T252 293Q294 293 329 312T389 363T429 439T443 532Q443 594 410 630T318 666Q277 666 242 648T182 599T142 523T127 428ZM493 531Q493 474 475 424T424 336T348
276T251 254Q169 254 123 301T77 430Q77 487 95 537T145 624T221 683T318 705Q398 705 445 659T493 531Z" />
<glyph unicode="&#xbb;" glyph-name="guillemotright" horiz-adv-x="442" d="M108 476Q121 476 130 459L233 282Q237 275 238 271T239 263V262Q239 250 229 240L45 58Q32 45 22 45H21Q7 45 3 57T9 81L190 262V265L88 443Q81 455 87 465T107 476H108ZM275 476Q288
476 297 459L400 282Q404 275 405 271T406 263V262Q406 250 396 240L212 58Q199 45 189 45H188Q174 45 170 57T176 81L357 262V265L255 443Q248 455 254 465T274 476H275Z" />
<glyph unicode="&#xbc;" glyph-name="onequarter" horiz-adv-x="656" d="M233 702Q244 702 248 695T250 678L173 347Q168 324 149 324H148Q137 324 131 332T128 356L197 650L116 610Q110 607 105 607Q90 607 90 623V624Q90 630 94 635T110 646L208 694Q224 702
232 702H233ZM359 126H503L546 314H544L359 128V126ZM541 357Q552 368 558 371T573 374H577Q589 374 595 367T598 347L547 126H584Q600 126 600 110V108Q600 92 584 92H539L523 19Q518 -3 501 -3H500Q490 -3 484 4T481 27L495 92H325Q316 92 312 97T307 110V111Q307
119 312 126T328 144L541 357ZM44 -23Q37 -31 33 -34T23 -37H22Q11 -37 6 -27T10 -4L607 718Q614 726 618 729T628 732H629Q640 732 645 722T641 699L44 -23Z" />
<glyph unicode="&#xbd;" glyph-name="onehalf" horiz-adv-x="694" d="M230 702Q241 702 245 695T247 678L170 347Q165 324 146 324H145Q134 324 128 332T125 356L194 650L113 610Q107 607 102 607Q87 607 87 623V624Q87 630 91 635T107 646L205 694Q221 702 229
702H230ZM377 0Q368 0 364 5T359 18V19Q359 28 363 34T381 50L501 139Q527 158 548 175T584 208T607 241T615 280Q615 308 597 324T543 340Q519 340 504 335T480 323T463 311T448 305Q432 305 432 321V322Q432 328 436 335T454 350Q471 361 495 368T549 376Q603
376 632 351T661 284Q661 259 653 239T628 199T587 160T530 116L424 38H595Q605 38 609 33T613 20V18Q613 10 609 5T595 0H377ZM36 -23Q29 -31 25 -34T15 -37H14Q3 -37 -2 -27T2 -4L599 718Q606 726 610 729T620 732H621Q632 732 637 722T633 699L36 -23Z" />
<glyph unicode="&#xbe;" glyph-name="threequarters" horiz-adv-x="698" d="M207 537Q243 537 267 554T292 607Q292 667 217 667Q197 667 185 663T164 653T149 644T135 639Q119 639 119 655V656Q119 672 139 683Q154 692 176 697T225 703Q276 703 306 680T336
612Q336 570 311 549T251 520V518Q277 511 294 490T312 438Q312 410 301 389T272 354T228 332T175 324Q137 324 108 335T61 360Q47 371 47 385V386Q47 394 52 399T66 404Q74 404 81 397T100 382T128 367T174 360Q212 360 239 380T266 438Q266 473 245 488T194 504H176Q160
504 160 520V522Q160 528 164 532T176 537H207ZM407 126H551L594 314H592L407 128V126ZM589 357Q600 368 606 371T621 374H625Q637 374 643 367T646 347L595 126H632Q648 126 648 110V108Q648 92 632 92H587L571 19Q566 -3 549 -3H548Q538 -3 532 4T529 27L543
92H373Q364 92 360 97T355 110V111Q355 119 360 126T376 144L589 357ZM103 -23Q96 -31 92 -34T82 -37H81Q70 -37 65 -27T69 -4L666 718Q673 726 677 729T687 732H688Q699 732 704 722T700 699L103 -23Z" />
<glyph unicode="&#xbf;" glyph-name="questiondown" horiz-adv-x="428" d="M342 483Q353 483 358 476T362 456Q360 421 350 394T323 342T281 297T226 252Q203 235 176 218T126 179T88 128T72 59Q72 31 82 13T108 -17T146 -33T189 -38Q235 -38 260 -30T300 -11T324
7T345 16Q354 16 360 10T366 -5V-6Q366 -15 360 -24T340 -42Q314 -59 275 -69T185 -80Q154 -80 124 -72T71 -48T33 -5T18 59Q18 101 32 132T69 188T122 234T181 276Q210 296 233 313T274 352T302 399T319 461Q321 483 341 483H342ZM321 590Q321 607 332 617T360
628Q377 628 387 618T398 590Q398 574 388 563T360 551Q343 551 332 562T321 590Z" />
<glyph unicode="&#xc0;" glyph-name="Agrave" horiz-adv-x="616" d="M365 676Q371 686 379 693T404 700H410Q428 700 434 691T443 669L526 29Q528 14 522 6T501 -3H500Q478 -3 475 23L450 219H147L32 21Q24 8 18 2T3 -4H2Q-10 -4 -15 7T-13 33L365 676ZM173 263H444L396
641H394L173 263ZM419 748Q425 737 421 729T406 720H405Q395 720 387 731L339 795Q328 809 334 822T355 836H356Q371 836 382 815L419 748Z" />
<glyph unicode="&#xc1;" glyph-name="Aacute" horiz-adv-x="616" d="M365 676Q371 686 379 693T404 700H410Q428 700 434 691T443 669L526 29Q528 14 522 6T501 -3H500Q478 -3 475 23L450 219H147L32 21Q24 8 18 2T3 -4H2Q-10 -4 -15 7T-13 33L365 676ZM173 263H444L396
641H394L173 263ZM461 820Q469 829 474 832T486 836H487Q504 836 508 822T501 796L432 731Q421 720 413 720H412Q402 720 398 729T402 748L461 820Z" />
<glyph unicode="&#xc2;" glyph-name="Acircumflex" horiz-adv-x="616" d="M365 676Q371 686 379 693T404 700H410Q428 700 434 691T443 669L526 29Q528 14 522 6T501 -3H500Q478 -3 475 23L450 219H147L32 21Q24 8 18 2T3 -4H2Q-10 -4 -15 7T-13 33L365 676ZM173
263H444L396 641H394L173 263ZM422 791L338 729Q327 721 320 721H319Q309 721 305 731T312 752L392 821Q410 836 424 836H425Q434 836 441 833T456 819L507 751Q517 738 511 729T496 720H495Q486 720 477 731L422 791Z" />
<glyph unicode="&#xc3;" glyph-name="Atilde" horiz-adv-x="616" d="M365 676Q371 686 379 693T404 700H410Q428 700 434 691T443 669L526 29Q528 14 522 6T501 -3H500Q478 -3 475 23L450 219H147L32 21Q24 8 18 2T3 -4H2Q-10 -4 -15 7T-13 33L365 676ZM173 263H444L396
641H394L173 263ZM470 734Q454 734 440 740T413 753T388 767T365 774Q338 774 327 747Q324 740 321 734T307 728H306Q298 728 293 734T291 755Q296 778 315 796T365 815Q381 815 395 809T422 796T447 782T471 776Q496 776 507 803Q510 810 513 816T527 822H528Q539
822 542 814T543 793Q537 769 518 752T470 734Z" />
<glyph unicode="&#xc4;" glyph-name="Adieresis" horiz-adv-x="616" d="M365 676Q371 686 379 693T404 700H410Q428 700 434 691T443 669L526 29Q528 14 522 6T501 -3H500Q478 -3 475 23L450 219H147L32 21Q24 8 18 2T3 -4H2Q-10 -4 -15 7T-13 33L365 676ZM173
263H444L396 641H394L173 263ZM373 767Q373 753 363 743T339 733Q325 733 315 743T305 767Q305 781 315 791T339 801Q353 801 363 791T373 767ZM517 767Q517 753 507 743T483 733Q469 733 459 743T449 767Q449 781 459 791T483 801Q497 801 507 791T517 767Z" />
<glyph unicode="&#xc5;" glyph-name="Aring" horiz-adv-x="616" d="M365 676Q371 686 379 693T404 700H410Q428 700 434 691T443 669L526 29Q528 14 522 6T501 -3H500Q478 -3 475 23L450 219H147L32 21Q24 8 18 2T3 -4H2Q-10 -4 -15 7T-13 33L365 676ZM173 263H444L396
641H394L173 263ZM504 815Q504 794 496 778T475 751T446 733T413 727Q379 727 354 747T329 808Q329 828 336 844T357 873T386 891T420 898Q454 898 479 876T504 815ZM365 808Q365 785 379 772T413 759Q435 759 451 774T468 816Q468 837 454 851T419 866Q396 866
381 850T365 808Z" />
<glyph unicode="&#xc6;" glyph-name="AE" horiz-adv-x="923" d="M456 219H179L27 15Q15 -3 0 -3H-1Q-14 -3 -20 9T-16 36L469 677Q477 688 486 694T512 700H944Q952 700 958 695T965 679V677Q965 666 959 661T944 656H610L546 383H788Q796 383 802 378T809 362V361Q809
350 803 345T788 340H537L469 43H814Q822 43 828 38T835 22V21Q835 10 829 5T814 0H436Q423 0 417 9T413 33L456 219ZM212 263H466L557 656H506L212 263Z" />
<glyph unicode="&#xc7;" glyph-name="Ccedilla" horiz-adv-x="625" d="M525 48Q488 23 440 10T330 -4Q322 -4 314 -4T297 -3L289 -42Q321 -44 336 -61T351 -104Q351 -141 325 -157T265 -174Q225 -174 202 -159Q190 -151 190 -138V-137Q190 -120 207 -120Q213 -120
217 -123T228 -129T242 -135T263 -138Q283 -138 295 -130T308 -103Q308 -89 297 -81T262 -73H261Q254 -73 251 -69T249 -56L262 2Q168 19 115 86T62 268Q62 347 88 425T165 565T290 665T462 704Q518 704 557 694T623 664Q645 648 645 631V630Q645 619 639 613T621
606Q608 606 600 614T576 633T534 652T458 661Q374 661 310 626T203 535T138 409T116 268Q116 158 171 99T332 39Q386 39 419 50T473 73T506 97T529 108Q540 108 546 102T553 85V84Q553 66 525 48Z" />
<glyph unicode="&#xc8;" glyph-name="Egrave" horiz-adv-x="557" d="M164 340L96 43H449Q457 43 463 38T470 22V21Q470 10 464 5T449 0H63Q49 0 44 10T41 35L188 673Q191 685 199 692T222 700H579Q587 700 593 695T600 679V677Q600 666 594 661T579 656H237L173
383H423Q431 383 437 378T444 362V361Q444 350 438 345T423 340H164ZM422 748Q428 737 424 729T409 720H408Q398 720 390 731L342 795Q331 809 337 822T358 836H359Q374 836 385 815L422 748Z" />
<glyph unicode="&#xc9;" glyph-name="Eacute" horiz-adv-x="557" d="M164 340L96 43H449Q457 43 463 38T470 22V21Q470 10 464 5T449 0H63Q49 0 44 10T41 35L188 673Q191 685 199 692T222 700H579Q587 700 593 695T600 679V677Q600 666 594 661T579 656H237L173
383H423Q431 383 437 378T444 362V361Q444 350 438 345T423 340H164ZM449 820Q457 829 462 832T474 836H475Q492 836 496 822T489 796L420 731Q409 720 401 720H400Q390 720 386 729T390 748L449 820Z" />
<glyph unicode="&#xca;" glyph-name="Ecircumflex" horiz-adv-x="557" d="M164 340L96 43H449Q457 43 463 38T470 22V21Q470 10 464 5T449 0H63Q49 0 44 10T41 35L188 673Q191 685 199 692T222 700H579Q587 700 593 695T600 679V677Q600 666 594 661T579 656H237L173
383H423Q431 383 437 378T444 362V361Q444 350 438 345T423 340H164ZM424 791L340 729Q329 721 322 721H321Q311 721 307 731T314 752L394 821Q412 836 426 836H427Q436 836 443 833T458 819L509 751Q519 738 513 729T498 720H497Q488 720 479 731L424 791Z" />
<glyph unicode="&#xcb;" glyph-name="Edieresis" horiz-adv-x="557" d="M164 340L96 43H449Q457 43 463 38T470 22V21Q470 10 464 5T449 0H63Q49 0 44 10T41 35L188 673Q191 685 199 692T222 700H579Q587 700 593 695T600 679V677Q600 666 594 661T579 656H237L173
383H423Q431 383 437 378T444 362V361Q444 350 438 345T423 340H164ZM367 767Q367 753 357 743T333 733Q319 733 309 743T299 767Q299 781 309 791T333 801Q347 801 357 791T367 767ZM511 767Q511 753 501 743T477 733Q463 733 453 743T443 767Q443 781 453 791T477
801Q491 801 501 791T511 767Z" />
<glyph unicode="&#xcc;" glyph-name="Igrave" horiz-adv-x="238" d="M191 678Q196 703 217 703H218Q232 703 238 693T241 665L93 22Q88 -3 67 -3H66Q52 -3 46 7T43 35L191 678ZM497 748Q503 737 499 729T484 720H483Q473 720 465 731L417 795Q406 809 412 822T433
836H434Q449 836 460 815L497 748Z" />
<glyph unicode="&#xcd;" glyph-name="Iacute" horiz-adv-x="238" d="M191 678Q196 703 217 703H218Q232 703 238 693T241 665L93 22Q88 -3 67 -3H66Q52 -3 46 7T43 35L191 678ZM534 820Q542 829 547 832T559 836H560Q577 836 581 822T574 796L505 731Q494 720
486 720H485Q475 720 471 729T475 748L534 820Z" />
<glyph unicode="&#xce;" glyph-name="Icircumflex" horiz-adv-x="238" d="M191 678Q196 703 217 703H218Q232 703 238 693T241 665L93 22Q88 -3 67 -3H66Q52 -3 46 7T43 35L191 678ZM500 791L416 729Q405 721 398 721H397Q387 721 383 731T390 752L470 821Q488
836 502 836H503Q512 836 519 833T534 819L585 751Q595 738 589 729T574 720H573Q564 720 555 731L500 791Z" />
<glyph unicode="&#xcf;" glyph-name="Idieresis" horiz-adv-x="238" d="M191 678Q196 703 217 703H218Q232 703 238 693T241 665L93 22Q88 -3 67 -3H66Q52 -3 46 7T43 35L191 678ZM447 767Q447 753 437 743T413 733Q399 733 389 743T379 767Q379 781 389 791T413
801Q427 801 437 791T447 767ZM591 767Q591 753 581 743T557 733Q543 733 533 743T523 767Q523 781 533 791T557 801Q571 801 581 791T591 767Z" />
<glyph unicode="&#xd0;" glyph-name="Eth" horiz-adv-x="682" d="M388 700Q453 700 503 682T589 628T642 543T660 430Q660 347 634 270T559 132T438 36T275 0H63Q49 0 44 10T41 35L108 329H52Q44 329 38 335T31 350V352Q31 360 36 366T52 373H118L188 673Q191
685 199 692T222 700H388ZM171 373H355Q365 373 370 367T376 352V350Q376 342 371 336T355 329H161L95 43H274Q355 43 417 76T521 163T584 287T606 430Q606 479 593 521T553 593T485 640T386 657H236L171 373Z" />
<glyph unicode="&#xd1;" glyph-name="Ntilde" horiz-adv-x="682" d="M540 26Q534 -2 510 -2H509Q495 -2 488 4T473 28L231 639H229L87 22Q82 -3 63 -3H62Q50 -3 43 5T40 31L187 670Q190 684 198 692T222 700H234Q251 700 258 693T270 674L503 87H505L641 678Q646
703 665 703H666Q678 703 685 695T688 669L540 26ZM519 734Q503 734 489 740T462 753T437 767T414 774Q387 774 376 747Q373 740 370 734T356 728H355Q347 728 342 734T340 755Q345 778 364 796T414 815Q430 815 444 809T471 796T496 782T520 776Q545 776 556 803Q559
810 562 816T576 822H577Q588 822 591 814T592 793Q586 769 567 752T519 734Z" />
<glyph unicode="&#xd2;" glyph-name="Ograve" horiz-adv-x="716" d="M115 272Q115 221 128 178T167 104T233 56T330 38Q403 38 461 73T559 164T620 289T641 429Q641 478 629 521T590 595T524 644T427 662Q355 662 297 627T199 537T137 412T115 272ZM694 429Q694
349 669 271T596 132T480 34T328 -4Q264 -4 215 16T131 72T80 160T62 273Q62 352 88 429T161 568T276 666T428 704Q492 704 541 684T625 628T676 542T694 429ZM458 748Q464 737 460 729T445 720H444Q434 720 426 731L378 795Q367 809 373 822T394 836H395Q410 836
421 815L458 748Z" />
<glyph unicode="&#xd3;" glyph-name="Oacute" horiz-adv-x="716" d="M115 272Q115 221 128 178T167 104T233 56T330 38Q403 38 461 73T559 164T620 289T641 429Q641 478 629 521T590 595T524 644T427 662Q355 662 297 627T199 537T137 412T115 272ZM694 429Q694
349 669 271T596 132T480 34T328 -4Q264 -4 215 16T131 72T80 160T62 273Q62 352 88 429T161 568T276 666T428 704Q492 704 541 684T625 628T676 542T694 429ZM495 820Q503 829 508 832T520 836H521Q538 836 542 822T535 796L466 731Q455 720 447 720H446Q436 720
432 729T436 748L495 820Z" />
<glyph unicode="&#xd4;" glyph-name="Ocircumflex" horiz-adv-x="716" d="M115 272Q115 221 128 178T167 104T233 56T330 38Q403 38 461 73T559 164T620 289T641 429Q641 478 629 521T590 595T524 644T427 662Q355 662 297 627T199 537T137 412T115 272ZM694 429Q694
349 669 271T596 132T480 34T328 -4Q264 -4 215 16T131 72T80 160T62 273Q62 352 88 429T161 568T276 666T428 704Q492 704 541 684T625 628T676 542T694 429ZM462 791L378 729Q367 721 360 721H359Q349 721 345 731T352 752L432 821Q450 836 464 836H465Q474 836
481 833T496 819L547 751Q557 738 551 729T536 720H535Q526 720 517 731L462 791Z" />
<glyph unicode="&#xd5;" glyph-name="Otilde" horiz-adv-x="716" d="M115 272Q115 221 128 178T167 104T233 56T330 38Q403 38 461 73T559 164T620 289T641 429Q641 478 629 521T590 595T524 644T427 662Q355 662 297 627T199 537T137 412T115 272ZM694 429Q694
349 669 271T596 132T480 34T328 -4Q264 -4 215 16T131 72T80 160T62 273Q62 352 88 429T161 568T276 666T428 704Q492 704 541 684T625 628T676 542T694 429ZM509 734Q493 734 479 740T452 753T427 767T404 774Q377 774 366 747Q363 740 360 734T346 728H345Q337
728 332 734T330 755Q335 778 354 796T404 815Q420 815 434 809T461 796T486 782T510 776Q535 776 546 803Q549 810 552 816T566 822H567Q578 822 581 814T582 793Q576 769 557 752T509 734Z" />
<glyph unicode="&#xd6;" glyph-name="Odieresis" horiz-adv-x="716" d="M115 272Q115 221 128 178T167 104T233 56T330 38Q403 38 461 73T559 164T620 289T641 429Q641 478 629 521T590 595T524 644T427 662Q355 662 297 627T199 537T137 412T115 272ZM694 429Q694
349 669 271T596 132T480 34T328 -4Q264 -4 215 16T131 72T80 160T62 273Q62 352 88 429T161 568T276 666T428 704Q492 704 541 684T625 628T676 542T694 429ZM407 767Q407 753 397 743T373 733Q359 733 349 743T339 767Q339 781 349 791T373 801Q387 801 397 791T407
767ZM551 767Q551 753 541 743T517 733Q503 733 493 743T483 767Q483 781 493 791T517 801Q531 801 541 791T551 767Z" />
<glyph unicode="&#xd7;" glyph-name="multiply" horiz-adv-x="458" d="M83 170Q67 157 59 157H58Q45 157 39 170T49 198L216 340L110 480Q99 494 105 507T125 520H126Q138 520 149 506L251 371L411 507Q420 515 425 517T435 520H436Q449 520 455 507T445 479L278
336L384 197Q395 183 389 170T369 157H368Q356 157 345 171L242 306L83 170Z" />
<glyph unicode="&#xd8;" glyph-name="Oslash" horiz-adv-x="716" d="M694 429Q694 349 669 271T596 132T480 34T328 -4Q268 -4 221 13T140 64L65 -18Q53 -30 45 -30H44Q32 -30 28 -19T33 3L115 93Q89 128 76 173T62 273Q62 352 88 429T161 568T276 666T428 704Q487
704 534 687T615 637L682 710Q694 722 702 722H703Q715 722 719 711T714 689L640 609Q666 574 680 529T694 429ZM641 429Q641 470 633 506T607 572L171 98Q197 69 236 54T330 38Q403 38 461 73T559 164T620 289T641 429ZM115 272Q115 230 123 194T148 129L584 603Q558
631 520 647T427 663Q355 663 297 628T199 537T137 412T115 272Z" />
<glyph unicode="&#xd9;" glyph-name="Ugrave" horiz-adv-x="679" d="M579 205Q553 92 485 44T316 -4Q252 -4 203 11T123 59T83 140T88 257L185 678Q190 703 211 703H212Q226 703 232 693T235 665L140 252Q115 143 162 92T317 40Q357 40 391 48T453 75T500 126T531
209L639 678Q644 703 663 703H664Q675 703 682 695T686 669L579 205ZM454 748Q460 737 456 729T441 720H440Q430 720 422 731L374 795Q363 809 369 822T390 836H391Q406 836 417 815L454 748Z" />
<glyph unicode="&#xda;" glyph-name="Uacute" horiz-adv-x="679" d="M579 205Q553 92 485 44T316 -4Q252 -4 203 11T123 59T83 140T88 257L185 678Q190 703 211 703H212Q226 703 232 693T235 665L140 252Q115 143 162 92T317 40Q357 40 391 48T453 75T500 126T531
209L639 678Q644 703 663 703H664Q675 703 682 695T686 669L579 205ZM488 820Q496 829 501 832T513 836H514Q531 836 535 822T528 796L459 731Q448 720 440 720H439Q429 720 425 729T429 748L488 820Z" />
<glyph unicode="&#xdb;" glyph-name="Ucircumflex" horiz-adv-x="679" d="M579 205Q553 92 485 44T316 -4Q252 -4 203 11T123 59T83 140T88 257L185 678Q190 703 211 703H212Q226 703 232 693T235 665L140 252Q115 143 162 92T317 40Q357 40 391 48T453 75T500
126T531 209L639 678Q644 703 663 703H664Q675 703 682 695T686 669L579 205ZM458 791L374 729Q363 721 356 721H355Q345 721 341 731T348 752L428 821Q446 836 460 836H461Q470 836 477 833T492 819L543 751Q553 738 547 729T532 720H531Q522 720 513 731L458
791Z" />
<glyph unicode="&#xdc;" glyph-name="Udieresis" horiz-adv-x="679" d="M579 205Q553 92 485 44T316 -4Q252 -4 203 11T123 59T83 140T88 257L185 678Q190 703 211 703H212Q226 703 232 693T235 665L140 252Q115 143 162 92T317 40Q357 40 391 48T453 75T500 126T531
209L639 678Q644 703 663 703H664Q675 703 682 695T686 669L579 205ZM409 767Q409 753 399 743T375 733Q361 733 351 743T341 767Q341 781 351 791T375 801Q389 801 399 791T409 767ZM553 767Q553 753 543 743T519 733Q505 733 495 743T485 767Q485 781 495 791T519
801Q533 801 543 791T553 767Z" />
<glyph unicode="&#xdd;" glyph-name="Yacute" horiz-adv-x="552" d="M255 22Q250 -3 228 -3H227Q213 -3 207 7T204 34L264 295L129 666Q124 681 130 692T152 703H153Q171 703 179 681L302 343H303L574 686Q587 703 598 703H599Q614 703 620 690T615 663L317 291L255
22ZM427 820Q435 829 440 832T452 836H453Q470 836 474 822T467 796L398 731Q387 720 379 720H378Q368 720 364 729T368 748L427 820Z" />
<glyph unicode="&#xde;" glyph-name="Thorn" horiz-adv-x="561" d="M133 204H262Q313 204 355 213T428 245T476 303T493 392Q493 457 449 484T328 512H204L133 204ZM214 556H332Q432 556 488 516T545 390Q545 329 524 286T465 216T375 175T259 162H123L91 22Q86
-3 65 -3H64Q49 -3 43 7T41 35L189 678Q194 703 215 703H216Q230 703 236 693T239 665L214 556Z" />
<glyph unicode="&#xdf;" glyph-name="germandbls" horiz-adv-x="549" d="M69 22Q64 -3 44 -3H43Q30 -3 23 6T20 30L128 498Q139 546 159 584T209 649T279 690T372 705Q444 705 488 675T532 591Q532 566 521 546T492 507T450 471T400 436Q365 411 342 393T318 349Q318
329 339 314T393 282Q415 270 435 257T470 228T495 192T504 145Q504 81 457 39T321 -4Q280 -4 248 5T197 28Q184 38 184 51V52Q184 60 189 66T205 72Q214 72 221 66T240 54T270 41T321 35Q390 35 423 66T456 141Q456 161 448 176T427 204T397 227T362 247Q317 270
294 291T271 344Q271 379 300 406T373 464Q391 477 410 491T446 520T472 552T483 589Q483 626 454 646T370 666Q289 666 242 622T177 497L69 22Z" />
<glyph unicode="&#xe0;" glyph-name="agrave" horiz-adv-x="479" d="M154 -4Q89 -4 50 30T11 127Q11 169 27 201T73 255T144 288T237 299Q277 299 308 292T365 275L382 347Q391 385 387 412T368 455T330 479T279 487Q237 487 211 480T169 464T143 448T123 441Q102
441 102 461V462Q102 482 137 499Q163 511 198 519T282 527Q321 527 353 517T407 484T435 427T431 343L357 22Q354 11 349 4T332 -3H331Q317 -3 311 5T309 30L318 70Q288 38 247 17T154 -4ZM162 33Q216 33 256 58T330 122L357 240Q332 250 303 256T238 263Q154
263 107 229T59 129Q59 81 86 57T162 33ZM302 601Q310 588 306 579T291 570H290Q280 570 270 584L213 662Q202 677 209 690T230 703H231Q246 703 257 682L302 601Z" />
<glyph unicode="&#xe1;" glyph-name="aacute" horiz-adv-x="479" d="M154 -4Q89 -4 50 30T11 127Q11 169 27 201T73 255T144 288T237 299Q277 299 308 292T365 275L382 347Q391 385 387 412T368 455T330 479T279 487Q237 487 211 480T169 464T143 448T123 441Q102
441 102 461V462Q102 482 137 499Q163 511 198 519T282 527Q321 527 353 517T407 484T435 427T431 343L357 22Q354 11 349 4T332 -3H331Q317 -3 311 5T309 30L318 70Q288 38 247 17T154 -4ZM162 33Q216 33 256 58T330 122L357 240Q332 250 303 256T238 263Q154
263 107 229T59 129Q59 81 86 57T162 33ZM357 685Q363 693 369 698T384 703H385Q400 703 405 689T396 660L315 581Q304 570 296 570H295Q285 570 281 579T287 600L357 685V685Z" />
<glyph unicode="&#xe2;" glyph-name="acircumflex" horiz-adv-x="479" d="M154 -4Q89 -4 50 30T11 127Q11 169 27 201T73 255T144 288T237 299Q277 299 308 292T365 275L382 347Q391 385 387 412T368 455T330 479T279 487Q237 487 211 480T169 464T143 448T123
441Q102 441 102 461V462Q102 482 137 499Q163 511 198 519T282 527Q321 527 353 517T407 484T435 427T431 343L357 22Q354 11 349 4T332 -3H331Q317 -3 311 5T309 30L318 70Q288 38 247 17T154 -4ZM162 33Q216 33 256 58T330 122L357 240Q332 250 303 256T238
263Q154 263 107 229T59 129Q59 81 86 57T162 33ZM196 570Q185 570 181 580T187 599L280 687Q296 703 312 703H313Q322 703 329 699T343 684L396 599Q403 588 399 579T383 570H382Q373 570 366 580L309 660L215 580Q208 574 204 572T197 570H196Z" />
<glyph unicode="&#xe3;" glyph-name="atilde" horiz-adv-x="479" d="M154 -4Q89 -4 50 30T11 127Q11 169 27 201T73 255T144 288T237 299Q277 299 308 292T365 275L382 347Q391 385 387 412T368 455T330 479T279 487Q237 487 211 480T169 464T143 448T123 441Q102
441 102 461V462Q102 482 137 499Q163 511 198 519T282 527Q321 527 353 517T407 484T435 427T431 343L357 22Q354 11 349 4T332 -3H331Q317 -3 311 5T309 30L318 70Q288 38 247 17T154 -4ZM162 33Q216 33 256 58T330 122L357 240Q332 250 303 256T238 263Q154
263 107 229T59 129Q59 81 86 57T162 33ZM431 648Q425 624 406 607T358 589Q342 589 328 595T301 608T276 622T253 629Q226 629 215 602Q212 595 209 589T195 583H194Q186 583 181 589T179 610Q184 633 203 651T253 670Q269 670 283 664T310 651T335 637T359 631Q384
631 395 658Q398 665 401 671T415 677H416Q427 677 430 669T431 648Z" />
<glyph unicode="&#xe4;" glyph-name="adieresis" horiz-adv-x="479" d="M154 -4Q89 -4 50 30T11 127Q11 169 27 201T73 255T144 288T237 299Q277 299 308 292T365 275L382 347Q391 385 387 412T368 455T330 479T279 487Q237 487 211 480T169 464T143 448T123 441Q102
441 102 461V462Q102 482 137 499Q163 511 198 519T282 527Q321 527 353 517T407 484T435 427T431 343L357 22Q354 11 349 4T332 -3H331Q317 -3 311 5T309 30L318 70Q288 38 247 17T154 -4ZM162 33Q216 33 256 58T330 122L357 240Q332 250 303 256T238 263Q154
263 107 229T59 129Q59 81 86 57T162 33ZM265 635Q265 621 255 611T231 601Q217 601 207 611T197 635Q197 649 207 659T231 669Q245 669 255 659T265 635ZM409 635Q409 621 399 611T375 601Q361 601 351 611T341 635Q341 649 351 659T375 669Q389 669 399 659T409
635Z" />
<glyph unicode="&#xe5;" glyph-name="aring" horiz-adv-x="479" d="M154 -4Q89 -4 50 30T11 127Q11 169 27 201T73 255T144 288T237 299Q277 299 308 292T365 275L382 347Q391 385 387 412T368 455T330 479T279 487Q237 487 211 480T169 464T143 448T123 441Q102
441 102 461V462Q102 482 137 499Q163 511 198 519T282 527Q321 527 353 517T407 484T435 427T431 343L357 22Q354 11 349 4T332 -3H331Q317 -3 311 5T309 30L318 70Q288 38 247 17T154 -4ZM162 33Q216 33 256 58T330 122L357 240Q332 250 303 256T238 263Q154
263 107 229T59 129Q59 81 86 57T162 33ZM253 655Q253 632 267 619T301 606Q323 606 339 621T356 663Q356 684 342 698T307 713Q284 713 269 697T253 655ZM392 662Q392 641 384 625T363 598T334 580T301 574Q267 574 242 594T217 655Q217 675 224 691T245 720T274
738T308 745Q342 745 367 723T392 662Z" />
<glyph unicode="&#xe6;" glyph-name="ae" horiz-adv-x="824" d="M158 -4Q91 -4 51 30T11 127Q11 169 27 201T73 254T144 286T237 297H370L373 306L382 347Q391 385 387 411T368 455T330 479T279 487Q237 487 211 480T169 464T143 448T123 441Q102 441 102 461V462Q102
482 137 499Q163 511 198 519T282 527Q342 527 382 502T430 419Q468 468 521 497T639 527Q721 526 761 482T802 363Q802 345 800 326T793 287Q791 275 783 267T759 259H412Q409 244 408 229T407 198Q407 123 443 80T557 37Q602 37 629 46T672 65T699 85T721 94Q732
94 737 88T742 75V74Q742 64 737 57T718 41Q686 21 645 9T553 -4Q481 -4 436 27T371 111Q356 89 335 69T288 32T229 6T158 -4ZM168 33Q203 33 232 43T284 70T326 109T360 154Q357 175 357 198Q357 203 357 208T358 218Q358 223 358 227T359 237L362 259H237Q153
259 106 227T59 129Q59 82 88 58T168 33ZM637 489Q597 489 562 474T500 434T452 373T420 297H747Q756 331 756 363Q756 427 725 458T637 489Z" />
<glyph unicode="&#xe7;" glyph-name="ccedilla" horiz-adv-x="482" d="M390 42Q365 25 326 11T229 -4Q224 -4 221 -4T210 -3L202 -42Q234 -44 249 -61T264 -104Q264 -141 238 -157T178 -174Q138 -174 115 -159Q103 -151 103 -138V-137Q103 -120 120 -120Q126 -120
130 -123T141 -129T155 -135T176 -138Q196 -138 208 -130T221 -103Q221 -89 210 -81T175 -73H174Q167 -73 164 -69T162 -56L175 1Q104 17 70 70T35 200Q35 266 57 325T119 429T213 500T334 527Q385 527 418 514T470 484Q483 471 483 458V457Q483 447 477 441T462
435Q452 435 444 443T424 461T391 479T335 487Q278 487 232 464T154 400T104 309T86 201Q86 126 121 81T232 36Q277 36 304 45T347 65T373 85T393 94Q404 94 409 88T414 75V74Q414 64 408 57T390 42Z" />
<glyph unicode="&#xe8;" glyph-name="egrave" horiz-adv-x="502" d="M85 198Q85 123 121 80T235 37Q280 37 307 46T350 65T377 85T399 94Q410 94 415 88T420 75V74Q420 64 415 57T396 41Q364 21 323 9T231 -4Q182 -4 146 11T85 53T48 117T35 198Q35 262 55 321T113
427T203 500T317 527Q399 526 439 482T480 363Q480 345 478 326T471 287Q469 275 461 267T437 259H90Q87 244 86 229T85 198ZM425 297Q434 331 434 363Q434 427 403 458T315 489Q275 489 240 474T178 434T130 373T98 297H425ZM334 601Q342 588 338 579T323 570H322Q312
570 302 584L245 662Q234 677 241 690T262 703H263Q278 703 289 682L334 601Z" />
<glyph unicode="&#xe9;" glyph-name="eacute" horiz-adv-x="502" d="M85 198Q85 123 121 80T235 37Q280 37 307 46T350 65T377 85T399 94Q410 94 415 88T420 75V74Q420 64 415 57T396 41Q364 21 323 9T231 -4Q182 -4 146 11T85 53T48 117T35 198Q35 262 55 321T113
427T203 500T317 527Q399 526 439 482T480 363Q480 345 478 326T471 287Q469 275 461 267T437 259H90Q87 244 86 229T85 198ZM425 297Q434 331 434 363Q434 427 403 458T315 489Q275 489 240 474T178 434T130 373T98 297H425ZM387 685Q393 693 399 698T414 703H415Q430
703 435 689T426 660L345 581Q334 570 326 570H325Q315 570 311 579T317 600L387 685V685Z" />
<glyph unicode="&#xea;" glyph-name="ecircumflex" horiz-adv-x="502" d="M85 198Q85 123 121 80T235 37Q280 37 307 46T350 65T377 85T399 94Q410 94 415 88T420 75V74Q420 64 415 57T396 41Q364 21 323 9T231 -4Q182 -4 146 11T85 53T48 117T35 198Q35 262 55
321T113 427T203 500T317 527Q399 526 439 482T480 363Q480 345 478 326T471 287Q469 275 461 267T437 259H90Q87 244 86 229T85 198ZM425 297Q434 331 434 363Q434 427 403 458T315 489Q275 489 240 474T178 434T130 373T98 297H425ZM233 570Q222 570 218 580T224
599L317 687Q333 703 349 703H350Q359 703 366 699T380 684L433 599Q440 588 436 579T420 570H419Q410 570 403 580L346 660L252 580Q245 574 241 572T234 570H233Z" />
<glyph unicode="&#xeb;" glyph-name="edieresis" horiz-adv-x="502" d="M85 198Q85 123 121 80T235 37Q280 37 307 46T350 65T377 85T399 94Q410 94 415 88T420 75V74Q420 64 415 57T396 41Q364 21 323 9T231 -4Q182 -4 146 11T85 53T48 117T35 198Q35 262 55
321T113 427T203 500T317 527Q399 526 439 482T480 363Q480 345 478 326T471 287Q469 275 461 267T437 259H90Q87 244 86 229T85 198ZM425 297Q434 331 434 363Q434 427 403 458T315 489Q275 489 240 474T178 434T130 373T98 297H425ZM297 635Q297 621 287 611T263
601Q249 601 239 611T229 635Q229 649 239 659T263 669Q277 669 287 659T297 635ZM441 635Q441 621 431 611T407 601Q393 601 383 611T373 635Q373 649 383 659T407 669Q421 669 431 659T441 635Z" />
<glyph unicode="&#xec;" glyph-name="igrave" horiz-adv-x="202" d="M70 22Q65 -3 44 -3H43Q31 -3 25 5T22 31L130 499Q133 510 138 517T155 524H156Q167 524 174 516T177 489L70 22ZM434 601Q442 588 438 579T423 570H422Q412 570 402 584L345 662Q334 677 341
690T362 703H363Q378 703 389 682L434 601Z" />
<glyph unicode="&#xed;" glyph-name="iacute" horiz-adv-x="202" d="M70 22Q65 -3 44 -3H43Q31 -3 25 5T22 31L130 499Q133 510 138 517T155 524H156Q167 524 174 516T177 489L70 22ZM488 685Q494 693 500 698T515 703H516Q531 703 536 689T527 660L446 581Q435
570 427 570H426Q416 570 412 579T418 600L488 685V685Z" />
<glyph unicode="&#xee;" glyph-name="icircumflex" horiz-adv-x="202" d="M70 22Q65 -3 44 -3H43Q31 -3 25 5T22 31L130 499Q133 510 138 517T155 524H156Q167 524 174 516T177 489L70 22ZM334 570Q323 570 319 580T325 599L418 687Q434 703 450 703H451Q460 703
467 699T481 684L534 599Q541 588 537 579T521 570H520Q511 570 504 580L447 660L353 580Q346 574 342 572T335 570H334Z" />
<glyph unicode="&#xef;" glyph-name="idieresis" horiz-adv-x="202" d="M70 22Q65 -3 44 -3H43Q31 -3 25 5T22 31L130 499Q133 510 138 517T155 524H156Q167 524 174 516T177 489L70 22ZM398 635Q398 621 388 611T364 601Q350 601 340 611T330 635Q330 649 340
659T364 669Q378 669 388 659T398 635ZM542 635Q542 621 532 611T508 601Q494 601 484 611T474 635Q474 649 484 659T508 669Q522 669 532 659T542 635Z" />
<glyph unicode="&#xf0;" glyph-name="eth" horiz-adv-x="554" d="M388 634Q450 586 483 512T516 331Q516 260 496 199T438 93T349 22T236 -4Q142 -4 89 50T35 201Q35 266 55 325T112 429T199 500T308 527Q353 527 392 510T454 455Q429 552 349 610L267 559Q256
553 251 553H250Q239 553 235 564T244 584L318 630Q284 648 238 661Q227 664 224 669T220 680V681Q220 689 224 694T240 700Q247 700 255 698Q284 690 309 680T358 655L427 697Q437 703 443 703H444Q455 703 459 692T450 672L388 634ZM85 199Q85 120 124 78T238
35Q290 35 332 59T403 123T449 215T465 324Q465 402 425 445T312 488Q261 488 219 465T147 402T101 310T85 199Z" />
<glyph unicode="&#xf1;" glyph-name="ntilde" horiz-adv-x="545" d="M128 499Q131 510 137 517T154 524H155Q167 524 173 516T176 490L160 422Q213 464 275 495T404 527Q432 527 454 518T489 489T506 440T501 371L420 22Q417 11 412 4T395 -3H394Q383 -3 376 5T372
30L450 369Q464 431 446 458T385 485Q328 485 269 454T149 373L68 22Q63 -3 42 -3H41Q29 -3 23 5T20 31L128 499ZM465 648Q459 624 440 607T392 589Q376 589 362 595T335 608T310 622T287 629Q260 629 249 602Q246 595 243 589T229 583H228Q220 583 215 589T213
610Q218 633 237 651T287 670Q303 670 317 664T344 651T369 637T393 631Q418 631 429 658Q432 665 435 671T449 677H450Q461 677 464 669T465 648Z" />
<glyph unicode="&#xf2;" glyph-name="ograve" horiz-adv-x="555" d="M85 201Q85 118 125 77T239 35Q292 35 334 59T407 123T453 215T470 324Q470 404 430 446T317 488Q265 488 223 465T150 403T102 311T85 201ZM520 323Q520 257 500 198T442 93T353 22T238 -4Q142
-4 89 50T35 201Q35 268 56 327T115 430T204 501T318 527Q413 527 466 472T520 323ZM340 601Q348 588 344 579T329 570H328Q318 570 308 584L251 662Q240 677 247 690T268 703H269Q284 703 295 682L340 601Z" />
<glyph unicode="&#xf3;" glyph-name="oacute" horiz-adv-x="555" d="M85 201Q85 118 125 77T239 35Q292 35 334 59T407 123T453 215T470 324Q470 404 430 446T317 488Q265 488 223 465T150 403T102 311T85 201ZM520 323Q520 257 500 198T442 93T353 22T238 -4Q142
-4 89 50T35 201Q35 268 56 327T115 430T204 501T318 527Q413 527 466 472T520 323ZM394 685Q400 693 406 698T421 703H422Q437 703 442 689T433 660L352 581Q341 570 333 570H332Q322 570 318 579T324 600L394 685V685Z" />
<glyph unicode="&#xf4;" glyph-name="ocircumflex" horiz-adv-x="555" d="M85 201Q85 118 125 77T239 35Q292 35 334 59T407 123T453 215T470 324Q470 404 430 446T317 488Q265 488 223 465T150 403T102 311T85 201ZM520 323Q520 257 500 198T442 93T353 22T238
-4Q142 -4 89 50T35 201Q35 268 56 327T115 430T204 501T318 527Q413 527 466 472T520 323ZM244 570Q233 570 229 580T235 599L328 687Q344 703 360 703H361Q370 703 377 699T391 684L444 599Q451 588 447 579T431 570H430Q421 570 414 580L357 660L263 580Q256
574 252 572T245 570H244Z" />
<glyph unicode="&#xf5;" glyph-name="otilde" horiz-adv-x="555" d="M85 201Q85 118 125 77T239 35Q292 35 334 59T407 123T453 215T470 324Q470 404 430 446T317 488Q265 488 223 465T150 403T102 311T85 201ZM520 323Q520 257 500 198T442 93T353 22T238 -4Q142
-4 89 50T35 201Q35 268 56 327T115 430T204 501T318 527Q413 527 466 472T520 323ZM468 648Q462 624 443 607T395 589Q379 589 365 595T338 608T313 622T290 629Q263 629 252 602Q249 595 246 589T232 583H231Q223 583 218 589T216 610Q221 633 240 651T290 670Q306
670 320 664T347 651T372 637T396 631Q421 631 432 658Q435 665 438 671T452 677H453Q464 677 467 669T468 648Z" />
<glyph unicode="&#xf6;" glyph-name="odieresis" horiz-adv-x="555" d="M85 201Q85 118 125 77T239 35Q292 35 334 59T407 123T453 215T470 324Q470 404 430 446T317 488Q265 488 223 465T150 403T102 311T85 201ZM520 323Q520 257 500 198T442 93T353 22T238
-4Q142 -4 89 50T35 201Q35 268 56 327T115 430T204 501T318 527Q413 527 466 472T520 323ZM303 635Q303 621 293 611T269 601Q255 601 245 611T235 635Q235 649 245 659T269 669Q283 669 293 659T303 635ZM447 635Q447 621 437 611T413 601Q399 601 389 611T379
635Q379 649 389 659T413 669Q427 669 437 659T447 635Z" />
<glyph unicode="&#xf7;" glyph-name="divide" horiz-adv-x="462" d="M257 199Q257 182 246 171T217 159Q200 159 190 169T180 196Q180 213 191 224T220 236Q237 236 247 226T257 199ZM320 495Q320 478 309 467T280 455Q263 455 253 465T243 492Q243 509 254 520T283
532Q300 532 310 522T320 495ZM432 368Q443 368 448 362T453 347V345Q453 336 448 330T432 323H69Q58 323 53 329T47 345V347Q47 355 52 361T69 368H432Z" />
<glyph unicode="&#xf8;" glyph-name="oslash" horiz-adv-x="555" d="M478 457Q520 404 520 323Q520 257 500 198T442 93T353 22T238 -4Q148 -4 95 44L39 -16Q29 -27 21 -27H20Q9 -27 4 -17T9 4L71 71Q35 120 35 201Q35 268 56 327T115 430T204 501T318 527Q400
527 453 483L500 533Q510 544 518 544H519Q530 544 535 534T530 513L478 457ZM470 324Q470 384 447 424L124 76Q163 35 239 35Q292 35 334 59T407 123T453 215T470 324ZM85 201Q85 143 104 106L425 452Q386 488 317 488Q265 488 223 465T150 403T102 311T85 201Z"
/>
<glyph unicode="&#xf9;" glyph-name="ugrave" horiz-adv-x="543" d="M410 22Q407 11 402 4T384 -3H383Q372 -3 364 5T361 31L376 98Q351 78 324 59T268 26T208 3T145 -6Q116 -6 93 3T55 32T36 81T41 150L122 499Q125 510 130 517T148 524H149Q160 524 168 516T171
490L93 153Q79 90 98 63T159 35Q214 35 271 66T387 145L469 499Q471 510 477 517T495 524H496Q507 524 515 516T518 490L410 22ZM349 601Q357 588 353 579T338 570H337Q327 570 317 584L260 662Q249 677 256 690T277 703H278Q293 703 304 682L349 601Z" />
<glyph unicode="&#xfa;" glyph-name="uacute" horiz-adv-x="543" d="M410 22Q407 11 402 4T384 -3H383Q372 -3 364 5T361 31L376 98Q351 78 324 59T268 26T208 3T145 -6Q116 -6 93 3T55 32T36 81T41 150L122 499Q125 510 130 517T148 524H149Q160 524 168 516T171
490L93 153Q79 90 98 63T159 35Q214 35 271 66T387 145L469 499Q471 510 477 517T495 524H496Q507 524 515 516T518 490L410 22ZM396 685Q402 693 408 698T423 703H424Q439 703 444 689T435 660L354 581Q343 570 335 570H334Q324 570 320 579T326 600L396 685V685Z"
/>
<glyph unicode="&#xfb;" glyph-name="ucircumflex" horiz-adv-x="543" d="M410 22Q407 11 402 4T384 -3H383Q372 -3 364 5T361 31L376 98Q351 78 324 59T268 26T208 3T145 -6Q116 -6 93 3T55 32T36 81T41 150L122 499Q125 510 130 517T148 524H149Q160 524 168
516T171 490L93 153Q79 90 98 63T159 35Q214 35 271 66T387 145L469 499Q471 510 477 517T495 524H496Q507 524 515 516T518 490L410 22ZM245 570Q234 570 230 580T236 599L329 687Q345 703 361 703H362Q371 703 378 699T392 684L445 599Q452 588 448 579T432 570H431Q422
570 415 580L358 660L264 580Q257 574 253 572T246 570H245Z" />
<glyph unicode="&#xfc;" glyph-name="udieresis" horiz-adv-x="543" d="M410 22Q407 11 402 4T384 -3H383Q372 -3 364 5T361 31L376 98Q351 78 324 59T268 26T208 3T145 -6Q116 -6 93 3T55 32T36 81T41 150L122 499Q125 510 130 517T148 524H149Q160 524 168 516T171
490L93 153Q79 90 98 63T159 35Q214 35 271 66T387 145L469 499Q471 510 477 517T495 524H496Q507 524 515 516T518 490L410 22ZM304 635Q304 621 294 611T270 601Q256 601 246 611T236 635Q236 649 246 659T270 669Q284 669 294 659T304 635ZM448 635Q448 621
438 611T414 601Q400 601 390 611T380 635Q380 649 390 659T414 669Q428 669 438 659T448 635Z" />
<glyph unicode="&#xfd;" glyph-name="yacute" horiz-adv-x="485" d="M89 -148Q82 -159 77 -162T64 -166H63Q49 -166 43 -154T46 -128L162 46L78 492Q76 506 81 515T102 524H103Q122 524 126 502L200 101H201L462 507Q473 524 486 524H487Q501 524 506 512T504
488L89 -148ZM368 685Q374 693 380 698T395 703H396Q411 703 416 689T407 660L326 581Q315 570 307 570H306Q296 570 292 579T298 600L368 685V685Z" />
<glyph unicode="&#xfe;" glyph-name="thorn" horiz-adv-x="556" d="M238 -4Q206 -4 181 2T136 17T102 37T77 60L31 -140Q26 -165 5 -165H4Q-8 -165 -14 -157T-17 -131L169 678Q175 703 195 703H196Q208 703 214 695T217 669L160 421Q179 440 202 459T252 493T309
517T372 527Q403 527 430 517T477 486T508 432T520 353Q520 283 500 219T444 105T355 26T238 -4ZM361 486Q328 486 300 476T245 450T194 414T148 371L86 102Q106 78 140 57T231 35Q288 35 332 61T407 132T453 232T469 350Q469 387 461 412T439 454T404 478T361
486Z" />
<glyph unicode="&#xff;" glyph-name="ydieresis" horiz-adv-x="485" d="M89 -148Q82 -159 77 -162T64 -166H63Q49 -166 43 -154T46 -128L162 46L78 492Q76 506 81 515T102 524H103Q122 524 126 502L200 101H201L462 507Q473 524 486 524H487Q501 524 506 512T504
488L89 -148ZM269 635Q269 621 259 611T235 601Q221 601 211 611T201 635Q201 649 211 659T235 669Q249 669 259 659T269 635ZM413 635Q413 621 403 611T379 601Q365 601 355 611T345 635Q345 649 355 659T379 669Q393 669 403 659T413 635Z" />
<glyph unicode="&#x100;" glyph-name="Amacron" horiz-adv-x="616" d="M365 676Q371 686 379 693T404 700H410Q428 700 434 691T443 669L526 29Q528 14 522 6T501 -3H500Q478 -3 475 23L450 219H147L32 21Q24 8 18 2T3 -4H2Q-10 -4 -15 7T-13 33L365 676ZM173
263H444L396 641H394L173 263ZM319 750Q300 750 300 769V771Q300 779 304 784T319 789H516Q526 789 530 784T534 771V769Q534 750 516 750H319Z" />
<glyph unicode="&#x101;" glyph-name="amacron" horiz-adv-x="479" d="M154 -4Q89 -4 50 30T11 127Q11 169 27 201T73 255T144 288T237 299Q277 299 308 292T365 275L382 347Q391 385 387 412T368 455T330 479T279 487Q237 487 211 480T169 464T143 448T123 441Q102
441 102 461V462Q102 482 137 499Q163 511 198 519T282 527Q321 527 353 517T407 484T435 427T431 343L357 22Q354 11 349 4T332 -3H331Q317 -3 311 5T309 30L318 70Q288 38 247 17T154 -4ZM162 33Q216 33 256 58T330 122L357 240Q332 250 303 256T238 263Q154
263 107 229T59 129Q59 81 86 57T162 33ZM212 611Q202 611 198 616T194 629V631Q194 638 198 643T212 648H403Q412 648 416 643T420 631V629Q420 621 416 616T403 611H212Z" />
<glyph unicode="&#x102;" glyph-name="Abreve" horiz-adv-x="616" d="M365 676Q371 686 379 693T404 700H410Q428 700 434 691T443 669L526 29Q528 14 522 6T501 -3H500Q478 -3 475 23L450 219H147L32 21Q24 8 18 2T3 -4H2Q-10 -4 -15 7T-13 33L365 676ZM173 263H444L396
641H394L173 263ZM533 797Q517 758 484 742T415 725Q374 725 344 746T311 808Q310 819 315 825T330 831H331Q339 831 343 825T351 810Q360 788 376 777T418 766Q444 766 463 776T496 812Q501 820 505 825T518 831H519Q532 831 535 821T533 797Z" />
<glyph unicode="&#x103;" glyph-name="abreve" horiz-adv-x="479" d="M154 -4Q89 -4 50 30T11 127Q11 169 27 201T73 255T144 288T237 299Q277 299 308 292T365 275L382 347Q391 385 387 412T368 455T330 479T279 487Q237 487 211 480T169 464T143 448T123 441Q102
441 102 461V462Q102 482 137 499Q163 511 198 519T282 527Q321 527 353 517T407 484T435 427T431 343L357 22Q354 11 349 4T332 -3H331Q317 -3 311 5T309 30L318 70Q288 38 247 17T154 -4ZM162 33Q216 33 256 58T330 122L357 240Q332 250 303 256T238 263Q154
263 107 229T59 129Q59 81 86 57T162 33ZM413 658Q397 619 366 597T292 575Q243 575 217 602T188 669Q186 691 207 691H208Q216 691 220 685T227 670Q235 643 249 629T293 615Q326 615 344 631T376 673Q380 681 384 686T397 691H398Q410 691 414 682T413 658Z"
/>
<glyph unicode="&#x104;" glyph-name="Aogonek" horiz-adv-x="616" d="M389 -101Q389 -67 413 -41T477 3L449 219H147L32 21Q24 8 18 2T3 -4H2Q-10 -4 -15 7T-13 33L365 676Q371 686 379 693T404 700H410Q427 700 434 692T443 670L526 30Q529 5 510 -9Q498 -18
485 -27T461 -47T443 -68T436 -92Q436 -109 446 -118T481 -128H498Q513 -128 513 -143V-144Q513 -158 498 -161Q491 -163 483 -163T467 -164Q430 -164 410 -146T389 -101ZM173 263H444L396 641H394L173 263Z" />
<glyph unicode="&#x105;" glyph-name="aogonek" horiz-adv-x="479" d="M279 487Q237 487 211 480T169 464T143 448T123 441Q102 441 102 461V462Q102 482 137 499Q163 511 198 519T282 527Q321 527 353 517T407 484T435 427T431 343L357 22Q354 8 350 3T335 -9Q322
-17 309 -26T285 -46T268 -67T261 -92Q261 -109 271 -118T306 -128H323Q338 -128 338 -143V-144Q338 -158 323 -161Q316 -163 308 -163T292 -164Q255 -164 235 -146T214 -101Q214 -66 241 -39T310 7Q308 13 308 19T311 38L318 70Q288 38 247 17T154 -4Q89 -4 50
30T11 127Q11 169 27 201T73 255T144 288T237 299Q277 299 308 292T365 275L382 347Q391 385 387 412T368 455T330 479T279 487ZM238 263Q154 263 107 229T59 129Q59 81 86 57T162 33Q216 33 256 58T330 122L357 240Q332 250 303 256T238 263Z" />
<glyph unicode="&#x106;" glyph-name="Cacute" horiz-adv-x="625" d="M525 48Q488 23 440 10T330 -4Q268 -4 219 13T134 65T81 151T62 268Q62 347 88 425T165 565T290 665T462 704Q518 704 557 694T623 664Q645 648 645 631V630Q645 619 639 613T621 606Q608 606
600 614T576 633T534 652T458 661Q374 661 310 626T203 535T138 409T116 268Q116 158 171 99T332 39Q386 39 419 50T473 73T506 97T529 108Q540 108 546 102T553 85V84Q553 66 525 48ZM501 820Q509 829 514 832T526 836H527Q544 836 548 822T541 796L472 731Q461
720 453 720H452Q442 720 438 729T442 748L501 820Z" />
<glyph unicode="&#x107;" glyph-name="cacute" horiz-adv-x="482" d="M390 42Q365 25 326 11T229 -4Q180 -4 144 11T83 54T47 118T35 200Q35 266 57 325T119 429T213 500T334 527Q385 527 418 514T470 484Q483 471 483 458V457Q483 447 477 441T462 435Q452 435
444 443T424 461T391 479T335 487Q278 487 232 464T154 400T104 309T86 201Q86 126 121 81T232 36Q277 36 304 45T347 65T373 85T393 94Q404 94 409 88T414 75V74Q414 64 408 57T390 42ZM392 685Q398 693 404 698T419 703H420Q435 703 440 689T431 660L350 581Q339
570 331 570H330Q320 570 316 579T322 600L392 685V685Z" />
<glyph unicode="&#x108;" glyph-name="Ccircumflex" horiz-adv-x="625" d="M525 48Q488 23 440 10T330 -4Q268 -4 219 13T134 65T81 151T62 268Q62 347 88 425T165 565T290 665T462 704Q518 704 557 694T623 664Q645 648 645 631V630Q645 619 639 613T621 606Q608
606 600 614T576 633T534 652T458 661Q374 661 310 626T203 535T138 409T116 268Q116 158 171 99T332 39Q386 39 419 50T473 73T506 97T529 108Q540 108 546 102T553 85V84Q553 66 525 48ZM468 791L384 729Q373 721 366 721H365Q355 721 351 731T358 752L438 821Q456
836 470 836H471Q480 836 487 833T502 819L553 751Q563 738 557 729T542 720H541Q532 720 523 731L468 791Z" />
<glyph unicode="&#x109;" glyph-name="ccircumflex" horiz-adv-x="482" d="M390 42Q365 25 326 11T229 -4Q180 -4 144 11T83 54T47 118T35 200Q35 266 57 325T119 429T213 500T334 527Q385 527 418 514T470 484Q483 471 483 458V457Q483 447 477 441T462 435Q452
435 444 443T424 461T391 479T335 487Q278 487 232 464T154 400T104 309T86 201Q86 126 121 81T232 36Q277 36 304 45T347 65T373 85T393 94Q404 94 409 88T414 75V74Q414 64 408 57T390 42ZM237 570Q226 570 222 580T228 599L321 687Q337 703 353 703H354Q363
703 370 699T384 684L437 599Q444 588 440 579T424 570H423Q414 570 407 580L350 660L256 580Q249 574 245 572T238 570H237Z" />
<glyph unicode="&#x10a;" glyph-name="Cdotaccent" horiz-adv-x="625" d="M525 48Q488 23 440 10T330 -4Q268 -4 219 13T134 65T81 151T62 268Q62 347 88 425T165 565T290 665T462 704Q518 704 557 694T623 664Q645 648 645 631V630Q645 619 639 613T621 606Q608
606 600 614T576 633T534 652T458 661Q374 661 310 626T203 535T138 409T116 268Q116 158 171 99T332 39Q386 39 419 50T473 73T506 97T529 108Q540 108 546 102T553 85V84Q553 66 525 48ZM493 768Q493 754 483 744T459 734Q445 734 435 744T425 768Q425 782 435
792T459 802Q473 802 483 792T493 768Z" />
<glyph unicode="&#x10b;" glyph-name="cdotaccent" horiz-adv-x="482" d="M390 42Q365 25 326 11T229 -4Q180 -4 144 11T83 54T47 118T35 200Q35 266 57 325T119 429T213 500T334 527Q385 527 418 514T470 484Q483 471 483 458V457Q483 447 477 441T462 435Q452
435 444 443T424 461T391 479T335 487Q278 487 232 464T154 400T104 309T86 201Q86 126 121 81T232 36Q277 36 304 45T347 65T373 85T393 94Q404 94 409 88T414 75V74Q414 64 408 57T390 42ZM376 635Q376 621 366 611T342 601Q328 601 318 611T308 635Q308 649
318 659T342 669Q356 669 366 659T376 635Z" />
<glyph unicode="&#x10c;" glyph-name="Ccaron" horiz-adv-x="625" d="M525 48Q488 23 440 10T330 -4Q268 -4 219 13T134 65T81 151T62 268Q62 347 88 425T165 565T290 665T462 704Q518 704 557 694T623 664Q645 648 645 631V630Q645 619 639 613T621 606Q608 606
600 614T576 633T534 652T458 661Q374 661 310 626T203 535T138 409T116 268Q116 158 171 99T332 39Q386 39 419 50T473 73T506 97T529 108Q540 108 546 102T553 85V84Q553 66 525 48ZM457 765L541 827Q552 835 559 835H560Q570 835 574 825T567 804L487 735Q469
720 455 720H454Q445 720 438 723T423 737L372 805Q362 818 368 827T383 836H384Q393 836 402 825L457 765Z" />
<glyph unicode="&#x10d;" glyph-name="ccaron" horiz-adv-x="482" d="M390 42Q365 25 326 11T229 -4Q180 -4 144 11T83 54T47 118T35 200Q35 266 57 325T119 429T213 500T334 527Q385 527 418 514T470 484Q483 471 483 458V457Q483 447 477 441T462 435Q452 435
444 443T424 461T391 479T335 487Q278 487 232 464T154 400T104 309T86 201Q86 126 121 81T232 36Q277 36 304 45T347 65T373 85T393 94Q404 94 409 88T414 75V74Q414 64 408 57T390 42ZM448 703Q459 703 463 693T457 674L364 586Q348 570 332 570H331Q322 570
315 574T301 589L248 674Q241 685 245 694T261 703H262Q271 703 278 693L335 613L429 693Q436 699 440 701T447 703H448Z" />
<glyph unicode="&#x10e;" glyph-name="Dcaron" horiz-adv-x="682" d="M388 700Q453 700 503 682T589 628T642 543T660 430Q660 347 634 270T559 132T438 36T275 0H63Q49 0 44 10T41 35L188 673Q191 685 199 692T222 700H388ZM95 43H274Q355 43 417 76T521 163T584
287T606 430Q606 479 593 521T553 593T485 640T386 657H236L95 43ZM408 765L492 827Q503 835 510 835H511Q521 835 525 825T518 804L438 735Q420 720 406 720H405Q396 720 389 723T374 737L323 805Q313 818 319 827T334 836H335Q344 836 353 825L408 765Z" />
<glyph unicode="&#x10f;" glyph-name="dcaron" horiz-adv-x="559" d="M427 22Q422 -3 402 -3H401Q386 -3 381 6T379 33L394 99Q352 56 301 26T186 -4Q155 -4 128 6T81 37T48 91T36 172Q36 238 57 301T118 415T211 496T332 527Q362 527 385 522T425 507T456 487T479
465L528 678Q534 703 553 703H554Q567 703 573 695T576 669L427 22ZM200 35Q231 35 258 44T311 70T360 107T406 150L469 424Q459 436 448 447T420 468T384 482T337 488Q278 488 232 461T153 389T104 287T87 172Q87 98 117 67T200 35ZM638 682Q640 691 646 697T661
703H662Q676 703 682 692T683 668L645 587Q642 580 639 576T627 571H626Q619 571 614 577T613 595L638 682Z" />
<glyph unicode="&#x110;" glyph-name="Dcroat" horiz-adv-x="682" d="M388 700Q453 700 503 682T589 628T642 543T660 430Q660 347 634 270T559 132T438 36T275 0H63Q49 0 44 10T41 35L108 329H52Q44 329 38 335T31 350V352Q31 360 36 366T52 373H118L188 673Q191
685 199 692T222 700H388ZM171 373H355Q365 373 370 367T376 352V350Q376 342 371 336T355 329H161L95 43H274Q355 43 417 76T521 163T584 287T606 430Q606 479 593 521T553 593T485 640T386 657H236L171 373Z" />
<glyph unicode="&#x111;" glyph-name="dcroat" horiz-adv-x="559" d="M564 620H614Q623 620 627 615T631 603V601Q631 593 627 588T614 583H556L427 22Q422 -3 402 -3H401Q386 -3 381 6T379 33L394 99Q352 56 301 26T186 -4Q155 -4 128 6T81 37T48 91T36 172Q36
238 57 301T118 415T211 496T332 527Q362 527 385 522T425 507T456 487T479 465L506 583H370Q360 583 356 588T352 601V603Q352 610 356 615T370 620H514L528 678Q534 703 553 703H554Q567 703 573 695T576 669L564 620ZM200 35Q231 35 258 44T311 70T360 107T406
150L469 424Q459 436 448 447T420 468T384 482T337 488Q278 488 232 461T153 389T104 287T87 172Q87 98 117 67T200 35Z" />
<glyph unicode="&#x112;" glyph-name="Emacron" horiz-adv-x="557" d="M164 340L96 43H449Q457 43 463 38T470 22V21Q470 10 464 5T449 0H63Q49 0 44 10T41 35L188 673Q191 685 199 692T222 700H579Q587 700 593 695T600 679V677Q600 666 594 661T579 656H237L173
383H423Q431 383 437 378T444 362V361Q444 350 438 345T423 340H164ZM313 750Q294 750 294 769V771Q294 779 298 784T313 789H510Q520 789 524 784T528 771V769Q528 750 510 750H313Z" />
<glyph unicode="&#x113;" glyph-name="emacron" horiz-adv-x="502" d="M85 198Q85 123 121 80T235 37Q280 37 307 46T350 65T377 85T399 94Q410 94 415 88T420 75V74Q420 64 415 57T396 41Q364 21 323 9T231 -4Q182 -4 146 11T85 53T48 117T35 198Q35 262 55 321T113
427T203 500T317 527Q399 526 439 482T480 363Q480 345 478 326T471 287Q469 275 461 267T437 259H90Q87 244 86 229T85 198ZM425 297Q434 331 434 363Q434 427 403 458T315 489Q275 489 240 474T178 434T130 373T98 297H425ZM243 611Q233 611 229 616T225 629V631Q225
638 229 643T243 648H434Q443 648 447 643T451 631V629Q451 621 447 616T434 611H243Z" />
<glyph unicode="&#x114;" glyph-name="Ebreve" horiz-adv-x="557" d="M164 340L96 43H449Q457 43 463 38T470 22V21Q470 10 464 5T449 0H63Q49 0 44 10T41 35L188 673Q191 685 199 692T222 700H579Q587 700 593 695T600 679V677Q600 666 594 661T579 656H237L173
383H423Q431 383 437 378T444 362V361Q444 350 438 345T423 340H164ZM524 797Q508 758 475 742T406 725Q365 725 335 746T302 808Q301 819 306 825T321 831H322Q330 831 334 825T342 810Q351 788 367 777T409 766Q435 766 454 776T487 812Q492 820 496 825T509
831H510Q523 831 526 821T524 797Z" />
<glyph unicode="&#x115;" glyph-name="ebreve" horiz-adv-x="502" d="M85 198Q85 123 121 80T235 37Q280 37 307 46T350 65T377 85T399 94Q410 94 415 88T420 75V74Q420 64 415 57T396 41Q364 21 323 9T231 -4Q182 -4 146 11T85 53T48 117T35 198Q35 262 55 321T113
427T203 500T317 527Q399 526 439 482T480 363Q480 345 478 326T471 287Q469 275 461 267T437 259H90Q87 244 86 229T85 198ZM425 297Q434 331 434 363Q434 427 403 458T315 489Q275 489 240 474T178 434T130 373T98 297H425ZM449 658Q433 619 402 597T328 575Q279
575 253 602T224 669Q222 691 243 691H244Q252 691 256 685T263 670Q271 643 285 629T329 615Q362 615 380 631T412 673Q416 681 420 686T433 691H434Q446 691 450 682T449 658Z" />
<glyph unicode="&#x116;" glyph-name="Edotaccent" horiz-adv-x="557" d="M164 340L96 43H449Q457 43 463 38T470 22V21Q470 10 464 5T449 0H63Q49 0 44 10T41 35L188 673Q191 685 199 692T222 700H579Q587 700 593 695T600 679V677Q600 666 594 661T579 656H237L173
383H423Q431 383 437 378T444 362V361Q444 350 438 345T423 340H164ZM441 768Q441 754 431 744T407 734Q393 734 383 744T373 768Q373 782 383 792T407 802Q421 802 431 792T441 768Z" />
<glyph unicode="&#x117;" glyph-name="edotaccent" horiz-adv-x="502" d="M85 198Q85 123 121 80T235 37Q280 37 307 46T350 65T377 85T399 94Q410 94 415 88T420 75V74Q420 64 415 57T396 41Q364 21 323 9T231 -4Q182 -4 146 11T85 53T48 117T35 198Q35 262 55
321T113 427T203 500T317 527Q399 526 439 482T480 363Q480 345 478 326T471 287Q469 275 461 267T437 259H90Q87 244 86 229T85 198ZM425 297Q434 331 434 363Q434 427 403 458T315 489Q275 489 240 474T178 434T130 373T98 297H425ZM372 635Q372 621 362 611T338
601Q324 601 314 611T304 635Q304 649 314 659T338 669Q352 669 362 659T372 635Z" />
<glyph unicode="&#x118;" glyph-name="Eogonek" horiz-adv-x="557" d="M173 383H423Q431 383 437 378T444 362V361Q444 350 438 345T423 340H164L96 43H449Q457 43 463 38T470 22V21Q470 10 464 5T449 0H430Q416 -8 401 -17T371 -38T348 -63T339 -92Q339 -109
349 -118T384 -128H401Q416 -128 416 -143V-144Q416 -158 401 -161Q394 -163 386 -163T370 -164Q333 -164 313 -146T292 -101Q292 -82 300 -67T320 -39T349 -17T381 0H63Q50 0 44 9T40 33L188 672Q190 684 198 692T222 700H579Q587 700 593 695T600 679V677Q600
666 594 661T579 656H237L173 383Z" />
<glyph unicode="&#x119;" glyph-name="eogonek" horiz-adv-x="502" d="M324 3Q310 -5 296 -15T269 -37T250 -63T242 -92Q242 -109 252 -118T287 -128H304Q319 -128 319 -143V-144Q319 -158 304 -161Q297 -163 289 -163T273 -164Q236 -164 216 -146T195 -101Q195
-66 217 -41T269 -2Q258 -4 250 -4T231 -4Q182 -4 146 11T85 53T48 117T35 198Q35 262 55 321T113 427T203 500T317 527Q399 527 439 483T480 363Q480 345 478 326T471 287Q469 275 461 267T437 259H90Q87 244 86 229T85 198Q85 123 121 80T235 37Q280 37 307 46T350
65T377 85T399 94Q410 94 415 88T420 75V74Q420 65 415 58T396 42Q383 34 362 23T324 3ZM425 297Q434 331 434 363Q434 427 403 458T315 489Q275 489 240 474T178 434T130 373T98 297H425Z" />
<glyph unicode="&#x11a;" glyph-name="Ecaron" horiz-adv-x="557" d="M164 340L96 43H449Q457 43 463 38T470 22V21Q470 10 464 5T449 0H63Q49 0 44 10T41 35L188 673Q191 685 199 692T222 700H579Q587 700 593 695T600 679V677Q600 666 594 661T579 656H237L173
383H423Q431 383 437 378T444 362V361Q444 350 438 345T423 340H164ZM405 765L489 827Q500 835 507 835H508Q518 835 522 825T515 804L435 735Q417 720 403 720H402Q393 720 386 723T371 737L320 805Q310 818 316 827T331 836H332Q341 836 350 825L405 765Z" />
<glyph unicode="&#x11b;" glyph-name="ecaron" horiz-adv-x="502" d="M85 198Q85 123 121 80T235 37Q280 37 307 46T350 65T377 85T399 94Q410 94 415 88T420 75V74Q420 64 415 57T396 41Q364 21 323 9T231 -4Q182 -4 146 11T85 53T48 117T35 198Q35 262 55 321T113
427T203 500T317 527Q399 526 439 482T480 363Q480 345 478 326T471 287Q469 275 461 267T437 259H90Q87 244 86 229T85 198ZM425 297Q434 331 434 363Q434 427 403 458T315 489Q275 489 240 474T178 434T130 373T98 297H425ZM444 703Q455 703 459 693T453 674L360
586Q344 570 328 570H327Q318 570 311 574T297 589L244 674Q237 685 241 694T257 703H258Q267 703 274 693L331 613L425 693Q432 699 436 701T443 703H444Z" />
<glyph unicode="&#x11c;" glyph-name="Gcircumflex" horiz-adv-x="667" d="M580 343Q598 343 605 333T609 308L556 76Q552 59 544 50T518 31Q488 16 441 6T334 -4Q277 -4 228 11T142 58T84 141T62 264Q62 316 73 368T107 470T162 561T238 636T333 686T449 704Q506
704 551 693T632 657Q653 642 653 625V624Q653 613 646 606T627 598Q614 598 604 608T577 629T529 651T445 661Q364 661 303 625T199 532T136 403T115 263Q115 147 175 93T337 39Q400 39 439 50T504 76L554 300H428Q417 300 412 306T407 321V322Q407 330 412 336T428
343H580ZM466 791L382 729Q371 721 364 721H363Q353 721 349 731T356 752L436 821Q454 836 468 836H469Q478 836 485 833T500 819L551 751Q561 738 555 729T540 720H539Q530 720 521 731L466 791Z" />
<glyph unicode="&#x11d;" glyph-name="gcircumflex" horiz-adv-x="552" d="M423 12Q411 -39 389 -73T336 -128T264 -157T177 -166Q132 -166 92 -157T23 -129Q3 -117 3 -101V-100Q3 -90 9 -84T26 -77Q35 -77 45 -84T71 -101T112 -118T178 -126Q215 -126 246 -120T303
-97T346 -54T373 13L395 111Q375 91 352 72T302 37T245 13T183 4Q153 4 126 13T79 43T47 96T35 175Q35 240 56 303T115 416T208 496T331 527Q386 527 420 508T476 465L485 501Q491 524 511 524H512Q523 524 530 516T534 490L423 12ZM197 43Q228 43 256 53T311 81T361
119T407 162L467 425Q457 436 445 447T417 467T381 482T336 488Q276 488 230 461T151 389T103 288T86 175Q86 103 116 73T197 43ZM266 570Q255 570 251 580T257 599L350 687Q366 703 382 703H383Q392 703 399 699T413 684L466 599Q473 588 469 579T453 570H452Q443
570 436 580L379 660L285 580Q278 574 274 572T267 570H266Z" />
<glyph unicode="&#x11e;" glyph-name="Gbreve" horiz-adv-x="667" d="M580 343Q598 343 605 333T609 308L556 76Q552 59 544 50T518 31Q488 16 441 6T334 -4Q277 -4 228 11T142 58T84 141T62 264Q62 316 73 368T107 470T162 561T238 636T333 686T449 704Q506 704
551 693T632 657Q653 642 653 625V624Q653 613 646 606T627 598Q614 598 604 608T577 629T529 651T445 661Q364 661 303 625T199 532T136 403T115 263Q115 147 175 93T337 39Q400 39 439 50T504 76L554 300H428Q417 300 412 306T407 321V322Q407 330 412 336T428
343H580ZM565 797Q549 758 516 742T447 725Q406 725 376 746T343 808Q342 819 347 825T362 831H363Q371 831 375 825T383 810Q392 788 408 777T450 766Q476 766 495 776T528 812Q533 820 537 825T550 831H551Q564 831 567 821T565 797Z" />
<glyph unicode="&#x11f;" glyph-name="gbreve" horiz-adv-x="552" d="M423 12Q411 -39 389 -73T336 -128T264 -157T177 -166Q132 -166 92 -157T23 -129Q3 -117 3 -101V-100Q3 -90 9 -84T26 -77Q35 -77 45 -84T71 -101T112 -118T178 -126Q215 -126 246 -120T303
-97T346 -54T373 13L395 111Q375 91 352 72T302 37T245 13T183 4Q153 4 126 13T79 43T47 96T35 175Q35 240 56 303T115 416T208 496T331 527Q386 527 420 508T476 465L485 501Q491 524 511 524H512Q523 524 530 516T534 490L423 12ZM197 43Q228 43 256 53T311 81T361
119T407 162L467 425Q457 436 445 447T417 467T381 482T336 488Q276 488 230 461T151 389T103 288T86 175Q86 103 116 73T197 43ZM478 658Q462 619 431 597T357 575Q308 575 282 602T253 669Q251 691 272 691H273Q281 691 285 685T292 670Q300 643 314 629T358
615Q391 615 409 631T441 673Q445 681 449 686T462 691H463Q475 691 479 682T478 658Z" />
<glyph unicode="&#x120;" glyph-name="Gdotaccent" horiz-adv-x="667" d="M580 343Q598 343 605 333T609 308L556 76Q552 59 544 50T518 31Q488 16 441 6T334 -4Q277 -4 228 11T142 58T84 141T62 264Q62 316 73 368T107 470T162 561T238 636T333 686T449 704Q506
704 551 693T632 657Q653 642 653 625V624Q653 613 646 606T627 598Q614 598 604 608T577 629T529 651T445 661Q364 661 303 625T199 532T136 403T115 263Q115 147 175 93T337 39Q400 39 439 50T504 76L554 300H428Q417 300 412 306T407 321V322Q407 330 412 336T428
343H580ZM490 768Q490 754 480 744T456 734Q442 734 432 744T422 768Q422 782 432 792T456 802Q470 802 480 792T490 768Z" />
<glyph unicode="&#x121;" glyph-name="gdotaccent" horiz-adv-x="552" d="M423 12Q411 -39 389 -73T336 -128T264 -157T177 -166Q132 -166 92 -157T23 -129Q3 -117 3 -101V-100Q3 -90 9 -84T26 -77Q35 -77 45 -84T71 -101T112 -118T178 -126Q215 -126 246 -120T303
-97T346 -54T373 13L395 111Q375 91 352 72T302 37T245 13T183 4Q153 4 126 13T79 43T47 96T35 175Q35 240 56 303T115 416T208 496T331 527Q386 527 420 508T476 465L485 501Q491 524 511 524H512Q523 524 530 516T534 490L423 12ZM197 43Q228 43 256 53T311 81T361
119T407 162L467 425Q457 436 445 447T417 467T381 482T336 488Q276 488 230 461T151 389T103 288T86 175Q86 103 116 73T197 43ZM405 635Q405 621 395 611T371 601Q357 601 347 611T337 635Q337 649 347 659T371 669Q385 669 395 659T405 635Z" />
<glyph unicode="&#x122;" glyph-name="Gcommaaccent" horiz-adv-x="667" d="M580 343Q598 343 605 333T609 308L556 76Q552 59 544 50T518 31Q488 16 441 6T334 -4Q277 -4 228 11T142 58T84 141T62 264Q62 316 73 368T107 470T162 561T238 636T333 686T449 704Q506
704 551 693T632 657Q653 642 653 625V624Q653 613 646 606T627 598Q614 598 604 608T577 629T529 651T445 661Q364 661 303 625T199 532T136 403T115 263Q115 147 175 93T337 39Q400 39 439 50T504 76L554 300H428Q417 300 412 306T407 321V322Q407 330 412 336T428
343H580ZM323 -79Q323 -111 306 -137T242 -171Q225 -174 225 -159V-158Q225 -148 243 -142Q260 -137 268 -130T276 -114Q276 -107 273 -104T264 -96Q258 -91 254 -85T250 -70Q250 -53 261 -44T286 -34Q300 -34 311 -45T323 -79Z" />
<glyph unicode="&#x123;" glyph-name="gcommaaccent" horiz-adv-x="552" d="M423 12Q411 -39 389 -73T336 -128T264 -157T177 -166Q132 -166 92 -157T23 -129Q3 -117 3 -101V-100Q3 -90 9 -84T26 -77Q35 -77 45 -84T71 -101T112 -118T178 -126Q215 -126 246 -120T303
-97T346 -54T373 13L395 111Q375 91 352 72T302 37T245 13T183 4Q153 4 126 13T79 43T47 96T35 175Q35 240 56 303T115 416T208 496T331 527Q386 527 420 508T476 465L485 501Q491 524 511 524H512Q523 524 530 516T534 490L423 12ZM197 43Q228 43 256 53T311 81T361
119T407 162L467 425Q457 436 445 447T417 467T381 482T336 488Q276 488 230 461T151 389T103 288T86 175Q86 103 116 73T197 43ZM311 633Q311 649 315 664T328 691T352 712T392 725Q409 728 409 713V712Q409 702 391 696Q374 691 366 684T358 668Q358 661 361
658T370 650Q376 645 380 639T384 624Q384 607 373 598T348 588Q334 588 323 599T311 633Z" />
<glyph unicode="&#x124;" glyph-name="Hcircumflex" horiz-adv-x="687" d="M543 22Q538 -3 517 -3H516Q502 -3 496 7T493 35L563 339H164L91 22Q86 -3 65 -3H64Q50 -3 44 7T41 35L189 678Q194 703 215 703H216Q230 703 236 693T239 665L174 383H573L641 678Q646
703 667 703H668Q682 703 688 693T691 665L543 22ZM461 791L377 729Q366 721 359 721H358Q348 721 344 731T351 752L431 821Q449 836 463 836H464Q473 836 480 833T495 819L546 751Q556 738 550 729T535 720H534Q525 720 516 731L461 791Z" />
<glyph unicode="&#x125;" glyph-name="hcircumflex" horiz-adv-x="545" d="M160 422Q213 464 275 495T404 527Q432 527 454 518T489 489T506 440T501 371L420 22Q417 11 412 4T395 -3H394Q383 -3 376 5T372 30L450 369Q464 431 446 458T385 485Q328 485 269 454T149
373L68 22Q63 -3 42 -3H41Q29 -3 23 5T20 31L169 678Q175 703 195 703H196Q208 703 214 695T217 669L160 422ZM386 791L302 729Q291 721 284 721H283Q273 721 269 731T276 752L356 821Q374 836 388 836H389Q398 836 405 833T420 819L471 751Q481 738 475 729T460
720H459Q450 720 441 731L386 791Z" />
<glyph unicode="&#x126;" glyph-name="Hbar" horiz-adv-x="687" d="M666 559H727Q736 559 741 554T746 540V538Q746 530 741 524T727 518H657L543 22Q538 -3 517 -3H516Q502 -3 496 7T493 35L563 339H164L91 22Q86 -3 65 -3H64Q50 -3 44 7T41 35L152 518H93Q83
518 78 524T73 538V540Q73 548 78 553T93 559H161L189 678Q194 703 215 703H216Q230 703 236 693T239 665L214 559H613L641 678Q646 703 667 703H668Q682 703 688 693T691 665L666 559ZM573 383L604 518H205L174 383H573Z" />
<glyph unicode="&#x127;" glyph-name="hbar" horiz-adv-x="545" d="M420 22Q417 11 412 4T395 -3H394Q383 -3 376 5T372 30L450 369Q464 431 446 458T385 485Q328 485 269 454T149 373L68 22Q63 -3 42 -3H41Q29 -3 23 5T20 31L147 583H99Q89 583 85 588T81 601V603Q81
610 85 615T99 620H155L169 678Q175 703 195 703H196Q208 703 214 695T217 669L205 620H343Q352 620 356 615T360 603V601Q360 593 356 588T343 583H197L160 422Q213 464 274 495T404 527Q432 527 454 518T489 489T506 440T501 371L420 22Z" />
<glyph unicode="&#x12a;" glyph-name="Imacron" horiz-adv-x="238" d="M191 678Q196 703 217 703H218Q232 703 238 693T241 665L93 22Q88 -3 67 -3H66Q52 -3 46 7T43 35L191 678ZM140 750Q121 750 121 769V771Q121 779 125 784T140 789H337Q347 789 351 784T355
771V769Q355 750 337 750H140Z" />
<glyph unicode="&#x12b;" glyph-name="imacron" horiz-adv-x="202" d="M95 611Q85 611 81 616T77 629V631Q77 638 81 643T95 648H270Q279 648 283 643T287 631V629Q287 621 283 616T270 611H95ZM70 22Q65 -3 44 -3H43Q31 -3 25 5T22 31L130 499Q133 510 138 517T155
524H156Q167 524 174 516T177 489L70 22Z" />
<glyph unicode="&#x12e;" glyph-name="Iogonek" horiz-adv-x="238" d="M-50 -101Q-50 -68 -27 -44T35 -1L191 678Q196 703 217 703H218Q232 703 238 693T241 666L93 22Q90 9 86 4T71 -9Q58 -17 45 -26T21 -46T4 -67T-3 -92Q-3 -109 7 -118T42 -128H59Q74 -128
74 -143V-144Q74 -158 59 -161Q52 -163 44 -163T28 -164Q-9 -164 -29 -146T-50 -101Z" />
<glyph unicode="&#x12f;" glyph-name="iogonek" horiz-adv-x="202" d="M220 635Q220 621 210 611T186 601Q172 601 162 611T152 635Q152 649 162 659T186 669Q200 669 210 659T220 635ZM70 22Q67 9 63 4T48 -9Q35 -17 22 -26T-2 -46T-19 -67T-26 -92Q-26 -109
-16 -118T19 -128H36Q51 -128 51 -143V-144Q51 -158 36 -161Q29 -163 21 -163T5 -164Q-32 -164 -52 -146T-73 -101Q-73 -66 -47 -40T22 6Q20 11 20 17T22 31L130 499Q135 524 155 524H156Q167 524 174 516T177 489L70 22Z" />
<glyph unicode="&#x130;" glyph-name="Idotaccent" horiz-adv-x="238" d="M191 678Q196 703 217 703H218Q232 703 238 693T241 665L93 22Q88 -3 67 -3H66Q52 -3 46 7T43 35L191 678ZM526 768Q526 754 516 744T492 734Q478 734 468 744T458 768Q458 782 468 792T492
802Q506 802 516 792T526 768Z" />
<glyph unicode="&#x131;" glyph-name="dotlessi" horiz-adv-x="202" d="M70 22Q65 -3 44 -3H43Q31 -3 25 5T22 31L130 499Q133 510 138 517T155 524H156Q167 524 174 516T177 489L70 22Z" />
<glyph unicode="&#x134;" glyph-name="Jcircumflex" horiz-adv-x="414" d="M302 146Q285 75 239 35T106 -5Q31 -5 -15 26Q-31 37 -31 53V54Q-31 65 -25 71T-7 78Q2 78 9 72T27 58T57 44T107 38Q172 38 205 68T252 156L372 678Q377 703 398 703H399Q413 703 419
693T422 665L302 146ZM421 791L337 729Q326 721 319 721H318Q308 721 304 731T311 752L391 821Q409 836 423 836H424Q433 836 440 833T455 819L506 751Q516 738 510 729T495 720H494Q485 720 476 731L421 791Z" />
<glyph unicode="&#x135;" glyph-name="jcircumflex" horiz-adv-x="201" d="M51 -64Q40 -112 11 -137T-68 -162Q-72 -162 -77 -162T-88 -161Q-110 -158 -110 -143V-142Q-110 -134 -105 -129T-80 -123Q-44 -122 -25 -108T2 -59L131 501Q136 526 156 526H157Q169
526 175 517T178 490L51 -64ZM328 570Q317 570 313 580T319 599L412 687Q428 703 444 703H445Q454 703 461 699T475 684L528 599Q535 588 531 579T515 570H514Q505 570 498 580L441 660L347 580Q340 574 336 572T329 570H328Z" />
<glyph unicode="&#x136;" glyph-name="Kcommaaccent" horiz-adv-x="617" d="M189 678Q194 703 215 703H216Q230 703 236 693T239 666L155 302L602 691Q615 703 626 703H627Q640 703 645 690T637 664L343 410L523 35Q530 21 523 9T501 -3H500Q483 -3 473 19L303
376L140 235L91 22Q86 -3 65 -3H64Q50 -3 44 7T41 34L189 678ZM295 -79Q295 -111 278 -137T214 -171Q197 -174 197 -159V-158Q197 -148 215 -142Q232 -137 240 -130T248 -114Q248 -107 245 -104T236 -96Q230 -91 226 -85T222 -70Q222 -53 233 -44T258 -34Q272 -34
283 -45T295 -79Z" />
<glyph unicode="&#x137;" glyph-name="kcommaaccent" horiz-adv-x="466" d="M433 510Q442 518 447 521T458 524H459Q472 524 476 511T467 485L252 297L393 35Q401 20 395 9T374 -3H373Q360 -3 351 13L215 264L100 162L68 22Q63 -3 42 -3H41Q29 -3 23 5T20 31L169
679Q175 703 195 703H196Q208 703 214 695T217 669L115 226L433 510ZM221 -79Q221 -111 204 -137T140 -171Q123 -174 123 -159V-158Q123 -148 141 -142Q158 -137 166 -130T174 -114Q174 -107 171 -104T162 -96Q156 -91 152 -85T148 -70Q148 -53 159 -44T184 -34Q198
-34 209 -45T221 -79Z" />
<glyph unicode="&#x139;" glyph-name="Lacute" horiz-adv-x="543" d="M63 0Q49 0 44 10T41 34L189 678Q194 703 215 703H216Q230 703 236 693T239 666L96 43H433Q441 43 447 38T454 22V21Q454 10 448 5T433 0H63ZM534 820Q542 829 547 832T559 836H560Q577 836
581 822T574 796L505 731Q494 720 486 720H485Q475 720 471 729T475 748L534 820Z" />
<glyph unicode="&#x13a;" glyph-name="lacute" horiz-adv-x="203" d="M70 22Q65 -3 44 -3H43Q31 -3 25 5T22 31L171 678Q177 703 197 703H198Q210 703 216 695T219 669L70 22ZM517 820Q525 829 530 832T542 836H543Q560 836 564 822T557 796L488 731Q477 720 469
720H468Q458 720 454 729T458 748L517 820Z" />
<glyph unicode="&#x13b;" glyph-name="Lcommaaccent" horiz-adv-x="543" d="M63 0Q49 0 44 10T41 34L189 678Q194 703 215 703H216Q230 703 236 693T239 666L96 43H433Q441 43 447 38T454 22V21Q454 10 448 5T433 0H63ZM265 -79Q265 -111 248 -137T184 -171Q167
-174 167 -159V-158Q167 -148 185 -142Q202 -137 210 -130T218 -114Q218 -107 215 -104T206 -96Q200 -91 196 -85T192 -70Q192 -53 203 -44T228 -34Q242 -34 253 -45T265 -79Z" />
<glyph unicode="&#x13c;" glyph-name="lcommaaccent" horiz-adv-x="203" d="M70 22Q65 -3 44 -3H43Q31 -3 25 5T22 31L171 678Q177 703 197 703H198Q210 703 216 695T219 669L70 22ZM59 -79Q59 -111 42 -137T-22 -171Q-39 -174 -39 -159V-158Q-39 -148 -21 -142Q-4
-137 4 -130T12 -114Q12 -107 9 -104T0 -96Q-6 -91 -10 -85T-14 -70Q-14 -53 -3 -44T22 -34Q36 -34 47 -45T59 -79Z" />
<glyph unicode="&#x13d;" glyph-name="Lcaron" horiz-adv-x="543" d="M424 587Q421 580 418 576T406 571H405Q398 571 393 577T392 595L417 682Q419 691 425 697T440 703H441Q455 703 461 692T462 668L424 587ZM63 0Q49 0 44 10T41 34L189 678Q194 703 215 703H216Q230
703 236 693T239 666L96 43H433Q441 43 447 38T454 22V21Q454 10 448 5T433 0H63Z" />
<glyph unicode="&#x13e;" glyph-name="lcaron" horiz-adv-x="203" d="M289 587Q286 580 283 576T271 571H270Q263 571 258 577T257 595L282 682Q284 691 290 697T305 703H306Q320 703 326 692T327 668L289 587ZM70 22Q65 -3 44 -3H43Q31 -3 25 5T22 31L171 678Q177
703 197 703H198Q210 703 216 695T219 669L70 22Z" />
<glyph unicode="&#x141;" glyph-name="Lslash" horiz-adv-x="543" d="M63 0Q49 0 44 10T41 34L93 262L39 242Q28 238 20 240T8 253Q2 273 22 281L105 312L189 678Q194 703 215 703H216Q230 703 236 693T239 666L163 333L384 416Q395 420 403 418T415 405Q419 395
414 388T401 377L151 284L96 43H433Q441 43 447 38T454 22V21Q454 10 448 5T433 0H63Z" />
<glyph unicode="&#x142;" glyph-name="lslash" horiz-adv-x="210" d="M165 414L75 22Q70 -3 49 -3H48Q36 -3 30 5T27 31L108 383L58 357Q38 345 30 362Q26 369 28 376T39 388L119 430L176 678Q182 703 202 703H203Q215 703 221 695T224 669L175 460L228 488Q248
498 256 483Q260 476 258 469T247 457L165 414Z" />
<glyph unicode="&#x143;" glyph-name="Nacute" horiz-adv-x="682" d="M540 26Q534 -2 510 -2H509Q495 -2 488 4T473 28L231 639H229L87 22Q82 -3 63 -3H62Q50 -3 43 5T40 31L187 670Q190 684 198 692T222 700H234Q251 700 258 693T270 674L503 87H505L641 678Q646
703 665 703H666Q678 703 685 695T688 669L540 26ZM505 820Q513 829 518 832T530 836H531Q548 836 552 822T545 796L476 731Q465 720 457 720H456Q446 720 442 729T446 748L505 820Z" />
<glyph unicode="&#x144;" glyph-name="nacute" horiz-adv-x="545" d="M128 499Q131 510 137 517T154 524H155Q167 524 173 516T176 490L160 422Q213 464 275 495T404 527Q432 527 454 518T489 489T506 440T501 371L420 22Q417 11 412 4T395 -3H394Q383 -3 376
5T372 30L450 369Q464 431 446 458T385 485Q328 485 269 454T149 373L68 22Q63 -3 42 -3H41Q29 -3 23 5T20 31L128 499ZM394 685Q400 693 406 698T421 703H422Q437 703 442 689T433 660L352 581Q341 570 333 570H332Q322 570 318 579T324 600L394 685V685Z" />
<glyph unicode="&#x145;" glyph-name="Ncommaaccent" horiz-adv-x="682" d="M540 26Q534 -2 510 -2H509Q495 -2 488 4T473 28L231 639H229L87 22Q82 -3 63 -3H62Q50 -3 43 5T40 31L187 670Q190 684 198 692T222 700H234Q251 700 258 693T270 674L503 87H505L641
678Q646 703 665 703H666Q678 703 685 695T688 669L540 26ZM307 -79Q307 -111 290 -137T226 -171Q209 -174 209 -159V-158Q209 -148 227 -142Q244 -137 252 -130T260 -114Q260 -107 257 -104T248 -96Q242 -91 238 -85T234 -70Q234 -53 245 -44T270 -34Q284 -34
295 -45T307 -79Z" />
<glyph unicode="&#x146;" glyph-name="ncommaaccent" horiz-adv-x="545" d="M128 499Q131 510 137 517T154 524H155Q167 524 173 516T176 490L160 422Q213 464 275 495T404 527Q432 527 454 518T489 489T506 440T501 371L420 22Q417 11 412 4T395 -3H394Q383 -3
376 5T372 30L450 369Q464 431 446 458T385 485Q328 485 269 454T149 373L68 22Q63 -3 42 -3H41Q29 -3 23 5T20 31L128 499ZM226 -79Q226 -111 209 -137T145 -171Q128 -174 128 -159V-158Q128 -148 146 -142Q163 -137 171 -130T179 -114Q179 -107 176 -104T167
-96Q161 -91 157 -85T153 -70Q153 -53 164 -44T189 -34Q203 -34 214 -45T226 -79Z" />
<glyph unicode="&#x147;" glyph-name="Ncaron" horiz-adv-x="682" d="M540 26Q534 -2 510 -2H509Q495 -2 488 4T473 28L231 639H229L87 22Q82 -3 63 -3H62Q50 -3 43 5T40 31L187 670Q190 684 198 692T222 700H234Q251 700 258 693T270 674L503 87H505L641 678Q646
703 665 703H666Q678 703 685 695T688 669L540 26ZM461 765L545 827Q556 835 563 835H564Q574 835 578 825T571 804L491 735Q473 720 459 720H458Q449 720 442 723T427 737L376 805Q366 818 372 827T387 836H388Q397 836 406 825L461 765Z" />
<glyph unicode="&#x148;" glyph-name="ncaron" horiz-adv-x="545" d="M128 499Q131 510 137 517T154 524H155Q167 524 173 516T176 490L160 422Q213 464 275 495T404 527Q432 527 454 518T489 489T506 440T501 371L420 22Q417 11 412 4T395 -3H394Q383 -3 376
5T372 30L450 369Q464 431 446 458T385 485Q328 485 269 454T149 373L68 22Q63 -3 42 -3H41Q29 -3 23 5T20 31L128 499ZM450 703Q461 703 465 693T459 674L366 586Q350 570 334 570H333Q324 570 317 574T303 589L250 674Q243 685 247 694T263 703H264Q273 703 280
693L337 613L431 693Q438 699 442 701T449 703H450Z" />
<glyph unicode="&#x14c;" glyph-name="Omacron" horiz-adv-x="716" d="M115 272Q115 221 128 178T167 104T233 56T330 38Q403 38 461 73T559 164T620 289T641 429Q641 478 629 521T590 595T524 644T427 662Q355 662 297 627T199 537T137 412T115 272ZM694 429Q694
349 669 271T596 132T480 34T328 -4Q264 -4 215 16T131 72T80 160T62 273Q62 352 88 429T161 568T276 666T428 704Q492 704 541 684T625 628T676 542T694 429ZM359 750Q340 750 340 769V771Q340 779 344 784T359 789H556Q566 789 570 784T574 771V769Q574 750 556
750H359Z" />
<glyph unicode="&#x14d;" glyph-name="omacron" horiz-adv-x="555" d="M85 201Q85 118 125 77T239 35Q292 35 334 59T407 123T453 215T470 324Q470 404 430 446T317 488Q265 488 223 465T150 403T102 311T85 201ZM520 323Q520 257 500 198T442 93T353 22T238 -4Q142
-4 89 50T35 201Q35 268 56 327T115 430T204 501T318 527Q413 527 466 472T520 323ZM249 611Q239 611 235 616T231 629V631Q231 638 235 643T249 648H440Q449 648 453 643T457 631V629Q457 621 453 616T440 611H249Z" />
<glyph unicode="&#x150;" glyph-name="Ohungarumlaut" horiz-adv-x="716" d="M115 272Q115 221 128 178T167 104T233 56T330 38Q403 38 461 73T559 164T620 289T641 429Q641 478 629 521T590 595T524 644T427 662Q355 662 297 627T199 537T137 412T115 272ZM694
429Q694 349 669 271T596 132T480 34T328 -4Q264 -4 215 16T131 72T80 160T62 273Q62 352 88 429T161 568T276 666T428 704Q492 704 541 684T625 628T676 542T694 429ZM413 816Q424 835 438 835H439Q452 835 458 823T454 797L402 732Q393 720 384 720H383Q375 720
370 727T371 745L413 816ZM531 816Q542 835 556 835H557Q570 835 576 823T572 797L520 732Q511 720 502 720H501Q493 720 488 727T489 745L531 816Z" />
<glyph unicode="&#x151;" glyph-name="ohungarumlaut" horiz-adv-x="555" d="M85 201Q85 118 125 77T239 35Q292 35 334 59T407 123T453 215T470 324Q470 404 430 446T317 488Q265 488 223 465T150 403T102 311T85 201ZM520 323Q520 257 500 198T442 93T353 22T238
-4Q142 -4 89 50T35 201Q35 268 56 327T115 430T204 501T318 527Q413 527 466 472T520 323ZM313 687Q322 703 336 703H337Q351 703 356 691T353 666L289 582Q280 570 271 570H270Q261 570 256 578T258 597L313 687ZM431 687Q440 703 454 703H455Q469 703 474 691T471
666L407 582Q398 570 389 570H388Q379 570 374 578T376 597L431 687Z" />
<glyph unicode="&#x152;" glyph-name="OE" horiz-adv-x="972" d="M657 656L593 383H837Q845 383 851 378T858 362V361Q858 350 852 345T837 340H584L516 43H863Q871 43 877 38T884 22V21Q884 10 878 5T863 0H336Q201 0 132 71T62 269Q62 351 88 429T163 567T283
663T447 700H993Q1001 700 1007 695T1014 679V677Q1014 666 1008 661T993 656H657ZM449 657Q368 657 306 624T202 536T139 411T117 269Q117 219 129 178T169 106T237 60T337 43H463L604 657H449Z" />
<glyph unicode="&#x153;" glyph-name="oe" horiz-adv-x="926" d="M318 527Q401 527 449 486T509 372Q543 441 602 484T741 527Q823 526 863 482T904 363Q904 345 902 326T895 287Q893 275 885 267T861 259H514Q511 244 510 229T509 198Q509 123 545 80T659 37Q704
37 731 46T774 65T801 85T823 94Q834 94 839 88T844 75V74Q844 64 839 57T820 41Q788 21 747 9T655 -4Q570 -4 526 38T471 147Q436 78 377 37T238 -4Q142 -4 89 50T35 201Q35 268 56 327T115 430T204 501T318 527ZM85 201Q85 118 125 77T239 35Q292 35 334 59T407
123T453 215T470 324Q470 404 430 446T317 488Q265 488 223 465T150 403T102 311T85 201ZM849 297Q858 331 858 363Q858 427 827 458T739 489Q699 489 664 474T602 434T554 373T522 297H849Z" />
<glyph unicode="&#x154;" glyph-name="Racute" horiz-adv-x="602" d="M91 21Q86 -3 64 -3H63Q50 -3 44 7T41 34L188 673Q191 685 199 692T222 700H371Q468 700 520 660T572 539Q572 446 524 395T391 326L503 36Q509 20 502 9T481 -3H480Q470 -3 465 3T455 18L341
319Q331 318 321 318T301 318H160L91 21ZM169 360H300Q351 360 391 369T460 400T504 456T519 541Q519 603 479 629T367 656H237L169 360ZM420 820Q428 829 433 832T445 836H446Q463 836 467 822T460 796L391 731Q380 720 372 720H371Q361 720 357 729T361 748L420
820Z" />
<glyph unicode="&#x155;" glyph-name="racute" horiz-adv-x="340" d="M341 482Q284 476 239 448T147 365L68 22Q63 -3 42 -3H41Q29 -3 23 5T20 31L128 499Q131 510 136 517T153 524H154Q165 524 172 516T176 490L160 421Q197 464 244 494T345 525Q369 525 369
506V505Q369 485 341 482ZM575 685Q581 693 587 698T602 703H603Q618 703 623 689T614 660L533 581Q522 570 514 570H513Q503 570 499 579T505 600L575 685V685Z" />
<glyph unicode="&#x156;" glyph-name="Rcommaaccent" horiz-adv-x="602" d="M91 21Q86 -3 64 -3H63Q50 -3 44 7T41 34L188 673Q191 685 199 692T222 700H371Q468 700 520 660T572 539Q572 446 524 395T391 326L503 36Q509 20 502 9T481 -3H480Q470 -3 465 3T455
18L341 319Q331 318 321 318T301 318H160L91 21ZM169 360H300Q351 360 391 369T460 400T504 456T519 541Q519 603 479 629T367 656H237L169 360ZM292 -79Q292 -111 275 -137T211 -171Q194 -174 194 -159V-158Q194 -148 212 -142Q229 -137 237 -130T245 -114Q245
-107 242 -104T233 -96Q227 -91 223 -85T219 -70Q219 -53 230 -44T255 -34Q269 -34 280 -45T292 -79Z" />
<glyph unicode="&#x157;" glyph-name="rcommaaccent" horiz-adv-x="340" d="M341 482Q284 476 239 448T147 365L68 22Q63 -3 42 -3H41Q29 -3 23 5T20 31L128 499Q131 510 136 517T153 524H154Q165 524 172 516T176 490L160 421Q197 464 244 494T345 525Q369 525
369 506V505Q369 485 341 482ZM65 -79Q65 -111 48 -137T-16 -171Q-33 -174 -33 -159V-158Q-33 -148 -15 -142Q2 -137 10 -130T18 -114Q18 -107 15 -104T6 -96Q0 -91 -4 -85T-8 -70Q-8 -53 3 -44T28 -34Q42 -34 53 -45T65 -79Z" />
<glyph unicode="&#x158;" glyph-name="Rcaron" horiz-adv-x="602" d="M91 21Q86 -3 64 -3H63Q50 -3 44 7T41 34L188 673Q191 685 199 692T222 700H371Q468 700 520 660T572 539Q572 446 524 395T391 326L503 36Q509 20 502 9T481 -3H480Q470 -3 465 3T455 18L341
319Q331 318 321 318T301 318H160L91 21ZM169 360H300Q351 360 391 369T460 400T504 456T519 541Q519 603 479 629T367 656H237L169 360ZM376 765L460 827Q471 835 478 835H479Q489 835 493 825T486 804L406 735Q388 720 374 720H373Q364 720 357 723T342 737L291
805Q281 818 287 827T302 836H303Q312 836 321 825L376 765Z" />
<glyph unicode="&#x159;" glyph-name="rcaron" horiz-adv-x="340" d="M341 482Q284 476 239 448T147 365L68 22Q63 -3 42 -3H41Q29 -3 23 5T20 31L128 499Q131 510 136 517T153 524H154Q165 524 172 516T176 490L160 421Q197 464 244 494T345 525Q369 525 369
506V505Q369 485 341 482ZM631 703Q642 703 646 693T640 674L547 586Q531 570 515 570H514Q505 570 498 574T484 589L431 674Q424 685 428 694T444 703H445Q454 703 461 693L518 613L612 693Q619 699 623 701T630 703H631Z" />
<glyph unicode="&#x15a;" glyph-name="Sacute" horiz-adv-x="527" d="M720 215Q720 160 702 119T653 51T578 10T482 -4Q419 -4 364 14T271 64Q254 78 254 95V96Q254 107 260 114T280 122Q294 122 306 109T338 81T392 52T483 39Q523 39 557 49T616 81T654 135T668
211Q668 239 657 259T627 293T581 319T523 342Q486 355 456 368T405 401T372 445T360 509Q360 552 376 588T422 650T493 690T583 704Q636 704 678 691T752 654Q775 637 775 617V616Q775 605 769 598T750 591Q736 591 726 602T699 626T655 650T581 661Q546 661 515
651T460 623T424 577T410 513Q410 483 421 463T451 429T495 405T551 384Q587 371 617 357T671 324T707 278T720 215ZM398 820Q406 829 411 832T423 836H424Q441 836 445 822T438 796L369 731Q358 720 350 720H349Q339 720 335 729T339 748L398 820Z" />
<glyph unicode="&#x15b;" glyph-name="sacute" horiz-adv-x="407" d="M347 161Q347 126 335 96T299 44T237 9T150 -4Q96 -4 59 10T0 42Q-7 47 -11 54T-16 70V71Q-16 81 -10 87T7 94Q17 94 26 85T50 65T88 44T150 35Q228 35 263 69T298 154Q298 173 292 187T272
212T239 231T194 248Q164 258 140 268T98 293T72 328T62 376Q62 443 109 485T245 527Q293 527 325 516T375 493Q383 488 388 481T394 464V463Q394 454 389 448T373 442Q363 442 355 449T333 465T299 481T243 488Q177 488 144 459T110 381Q110 343 136 325T214 290Q244
281 268 271T310 245T337 210T347 161ZM585 685Q591 693 597 698T612 703H613Q628 703 633 689T624 660L543 581Q532 570 524 570H523Q513 570 509 579T515 600L585 685V685Z" />
<glyph unicode="&#x15c;" glyph-name="Scircumflex" horiz-adv-x="527" d="M720 215Q720 160 702 119T653 51T578 10T482 -4Q419 -4 364 14T271 64Q254 78 254 95V96Q254 107 260 114T280 122Q294 122 306 109T338 81T392 52T483 39Q523 39 557 49T616 81T654
135T668 211Q668 239 657 259T627 293T581 319T523 342Q486 355 456 368T405 401T372 445T360 509Q360 552 376 588T422 650T493 690T583 704Q636 704 678 691T752 654Q775 637 775 617V616Q775 605 769 598T750 591Q736 591 726 602T699 626T655 650T581 661Q546
661 515 651T460 623T424 577T410 513Q410 483 421 463T451 429T495 405T551 384Q587 371 617 357T671 324T707 278T720 215ZM365 791L281 729Q270 721 263 721H262Q252 721 248 731T255 752L335 821Q353 836 367 836H368Q377 836 384 833T399 819L450 751Q460
738 454 729T439 720H438Q429 720 420 731L365 791Z" />
<glyph unicode="&#x15d;" glyph-name="scircumflex" horiz-adv-x="407" d="M347 161Q347 126 335 96T299 44T237 9T150 -4Q96 -4 59 10T0 42Q-7 47 -11 54T-16 70V71Q-16 81 -10 87T7 94Q17 94 26 85T50 65T88 44T150 35Q228 35 263 69T298 154Q298 173 292 187T272
212T239 231T194 248Q164 258 140 268T98 293T72 328T62 376Q62 443 109 485T245 527Q293 527 325 516T375 493Q383 488 388 481T394 464V463Q394 454 389 448T373 442Q363 442 355 449T333 465T299 481T243 488Q177 488 144 459T110 381Q110 343 136 325T214 290Q244
281 268 271T310 245T337 210T347 161ZM430 570Q419 570 415 580T421 599L514 687Q530 703 546 703H547Q556 703 563 699T577 684L630 599Q637 588 633 579T617 570H616Q607 570 600 580L543 660L449 580Q442 574 438 572T431 570H430Z" />
<glyph unicode="&#x15e;" glyph-name="Scedilla" horiz-adv-x="527" d="M463 215Q463 160 445 119T396 51T321 10T225 -4H213L205 -42Q237 -44 252 -61T267 -104Q267 -141 241 -157T181 -174Q141 -174 118 -159Q106 -151 106 -138V-137Q106 -120 123 -120Q129
-120 133 -123T144 -129T158 -135T179 -138Q199 -138 211 -130T224 -103Q224 -89 213 -81T178 -73H177Q170 -73 167 -69T165 -56L177 -1Q128 4 86 21T14 64Q-3 78 -3 95V96Q-3 107 3 114T23 122Q37 122 49 109T81 81T135 52T226 39Q266 39 300 49T359 81T397 135T411
211Q411 239 400 259T370 293T324 319T266 342Q229 355 199 368T148 401T115 445T103 509Q103 552 119 588T165 650T236 690T326 704Q379 704 421 691T495 654Q518 637 518 617V616Q518 605 512 598T493 591Q479 591 469 602T442 626T398 650T324 661Q289 661 258
651T203 623T167 577T153 513Q153 483 164 463T194 429T238 405T294 384Q330 371 360 357T414 324T450 278T463 215Z" />
<glyph unicode="&#x15f;" glyph-name="scedilla" horiz-adv-x="407" d="M347 161Q347 127 336 98T301 46T241 10T157 -4L149 -42Q181 -44 196 -61T211 -104Q211 -141 185 -157T125 -174Q85 -174 62 -159Q50 -151 50 -138V-137Q50 -120 67 -120Q73 -120 77 -123T88
-129T102 -135T123 -138Q143 -138 155 -130T168 -103Q168 -89 157 -81T122 -73H121Q114 -73 111 -69T109 -56L121 -2Q79 1 49 14T0 42Q-7 47 -11 54T-16 70V71Q-16 81 -10 87T7 94Q17 94 26 85T50 65T88 44T150 35Q228 35 263 69T298 154Q298 173 292 187T272 212T239
231T194 248Q164 258 140 268T98 293T72 328T62 376Q62 443 109 485T245 527Q293 527 325 516T375 493Q383 488 388 481T394 464V463Q394 454 389 448T373 442Q363 442 355 449T333 465T299 481T243 488Q177 488 144 459T110 381Q110 343 136 325T214 290Q244 281
268 271T310 245T337 210T347 161Z" />
<glyph unicode="&#x160;" glyph-name="Scaron" horiz-adv-x="527" d="M716 215Q716 160 698 119T649 51T574 10T478 -4Q415 -4 360 14T267 64Q250 78 250 95V96Q250 107 256 114T276 122Q290 122 302 109T334 81T388 52T479 39Q519 39 553 49T612 81T650 135T664
211Q664 239 653 259T623 293T577 319T519 342Q482 355 452 368T401 401T368 445T356 509Q356 552 372 588T418 650T489 690T579 704Q632 704 674 691T748 654Q771 637 771 617V616Q771 605 765 598T746 591Q732 591 722 602T695 626T651 650T577 661Q542 661 511
651T456 623T420 577T406 513Q406 483 417 463T447 429T491 405T547 384Q583 371 613 357T667 324T703 278T716 215ZM343 765L427 827Q438 835 445 835H446Q456 835 460 825T453 804L373 735Q355 720 341 720H340Q331 720 324 723T309 737L258 805Q248 818 254
827T269 836H270Q279 836 288 825L343 765Z" />
<glyph unicode="&#x161;" glyph-name="scaron" horiz-adv-x="407" d="M347 161Q347 126 335 96T299 44T237 9T150 -4Q96 -4 59 10T0 42Q-7 47 -11 54T-16 70V71Q-16 81 -10 87T7 94Q17 94 26 85T50 65T88 44T150 35Q228 35 263 69T298 154Q298 173 292 187T272
212T239 231T194 248Q164 258 140 268T98 293T72 328T62 376Q62 443 109 485T245 527Q293 527 325 516T375 493Q383 488 388 481T394 464V463Q394 454 389 448T373 442Q363 442 355 449T333 465T299 481T243 488Q177 488 144 459T110 381Q110 343 136 325T214 290Q244
281 268 271T310 245T337 210T347 161ZM640 703Q651 703 655 693T649 674L556 586Q540 570 524 570H523Q514 570 507 574T493 589L440 674Q433 685 437 694T453 703H454Q463 703 470 693L527 613L621 693Q628 699 632 701T639 703H640Z" />
<glyph unicode="&#x162;" glyph-name="Tcommaaccent" horiz-adv-x="556" d="M253 22Q248 -3 227 -3H226Q212 -3 206 7T203 34L347 657H144Q136 657 130 662T123 678V679Q123 690 129 695T144 700H609Q617 700 623 695T630 679V678Q630 667 624 662T609 657H400L253
22ZM239 -79Q239 -111 222 -137T158 -171Q141 -174 141 -159V-158Q141 -148 159 -142Q176 -137 184 -130T192 -114Q192 -107 189 -104T180 -96Q174 -91 170 -85T166 -70Q166 -53 177 -44T202 -34Q216 -34 227 -45T239 -79Z" />
<glyph unicode="&#x163;" glyph-name="tcommaaccent" horiz-adv-x="306" d="M302 521Q313 521 317 516T322 503V501Q322 493 318 488T302 483H188L108 134Q96 81 112 59T171 37Q181 37 193 38T211 39Q233 39 233 21V20Q233 4 212 0Q200 -2 187 -3T158 -4Q90 -4
67 32T59 138L138 483H93Q82 483 78 488T73 501V503Q73 511 77 516T93 521H147L175 644Q178 655 184 662T201 669H202Q214 669 220 661T223 635L197 521H302ZM393 -79Q393 -111 376 -137T312 -171Q295 -174 295 -159V-158Q295 -148 313 -142Q330 -137 338 -130T346
-114Q346 -107 343 -104T334 -96Q328 -91 324 -85T320 -70Q320 -53 331 -44T356 -34Q370 -34 381 -45T393 -79Z" />
<glyph unicode="&#x164;" glyph-name="Tcaron" horiz-adv-x="556" d="M253 22Q248 -3 227 -3H226Q212 -3 206 7T203 34L347 657H144Q136 657 130 662T123 678V679Q123 690 129 695T144 700H609Q617 700 623 695T630 679V678Q630 667 624 662T609 657H400L253 22ZM383
765L467 827Q478 835 485 835H486Q496 835 500 825T493 804L413 735Q395 720 381 720H380Q371 720 364 723T349 737L298 805Q288 818 294 827T309 836H310Q319 836 328 825L383 765Z" />
<glyph unicode="&#x165;" glyph-name="tcaron" horiz-adv-x="306" d="M310 587Q307 580 304 576T292 571H291Q284 571 279 577T278 595L303 682Q305 691 311 697T326 703H327Q341 703 347 692T348 668L310 587ZM302 521Q313 521 317 516T322 503V501Q322 493 318
488T302 483H188L108 134Q96 81 112 59T171 37Q181 37 193 38T211 39Q233 39 233 21V20Q233 4 212 0Q200 -2 187 -3T158 -4Q90 -4 67 32T59 138L138 483H93Q82 483 78 488T73 501V503Q73 511 77 516T93 521H147L175 644Q178 655 184 662T201 669H202Q214 669 220
661T223 635L197 521H302Z" />
<glyph unicode="&#x16a;" glyph-name="Umacron" horiz-adv-x="679" d="M579 205Q553 92 485 44T316 -4Q252 -4 203 11T123 59T83 140T88 257L185 678Q190 703 211 703H212Q226 703 232 693T235 665L140 252Q115 143 162 92T317 40Q357 40 391 48T453 75T500 126T531
209L639 678Q644 703 663 703H664Q675 703 682 695T686 669L579 205ZM356 750Q337 750 337 769V771Q337 779 341 784T356 789H553Q563 789 567 784T571 771V769Q571 750 553 750H356Z" />
<glyph unicode="&#x16b;" glyph-name="umacron" horiz-adv-x="543" d="M410 22Q407 11 402 4T384 -3H383Q372 -3 364 5T361 31L376 98Q351 78 324 59T268 26T208 3T145 -6Q116 -6 93 3T55 32T36 81T41 150L122 499Q125 510 130 517T148 524H149Q160 524 168 516T171
490L93 153Q79 90 98 63T159 35Q214 35 271 66T387 145L469 499Q471 510 477 517T495 524H496Q507 524 515 516T518 490L410 22ZM252 611Q242 611 238 616T234 629V631Q234 638 238 643T252 648H443Q452 648 456 643T460 631V629Q460 621 456 616T443 611H252Z"
/>
<glyph unicode="&#x16c;" glyph-name="Ubreve" horiz-adv-x="679" d="M579 205Q553 92 485 44T316 -4Q252 -4 203 11T123 59T83 140T88 257L185 678Q190 703 211 703H212Q226 703 232 693T235 665L140 252Q115 143 162 92T317 40Q357 40 391 48T453 75T500 126T531
209L639 678Q644 703 663 703H664Q675 703 682 695T686 669L579 205ZM566 797Q550 758 517 742T448 725Q407 725 377 746T344 808Q343 819 348 825T363 831H364Q372 831 376 825T384 810Q393 788 409 777T451 766Q477 766 496 776T529 812Q534 820 538 825T551
831H552Q565 831 568 821T566 797Z" />
<glyph unicode="&#x16d;" glyph-name="ubreve" horiz-adv-x="543" d="M410 22Q407 11 402 4T384 -3H383Q372 -3 364 5T361 31L376 98Q351 78 324 59T268 26T208 3T145 -6Q116 -6 93 3T55 32T36 81T41 150L122 499Q125 510 130 517T148 524H149Q160 524 168 516T171
490L93 153Q79 90 98 63T159 35Q214 35 271 66T387 145L469 499Q471 510 477 517T495 524H496Q507 524 515 516T518 490L410 22ZM450 658Q434 619 403 597T329 575Q280 575 254 602T225 669Q223 691 244 691H245Q253 691 257 685T264 670Q272 643 286 629T330 615Q363
615 381 631T413 673Q417 681 421 686T434 691H435Q447 691 451 682T450 658Z" />
<glyph unicode="&#x16e;" glyph-name="Uring" horiz-adv-x="679" d="M579 205Q553 92 485 44T316 -4Q252 -4 203 11T123 59T83 140T88 257L185 678Q190 703 211 703H212Q226 703 232 693T235 665L140 252Q115 143 162 92T317 40Q357 40 391 48T453 75T500 126T531
209L639 678Q644 703 663 703H664Q675 703 682 695T686 669L579 205ZM542 1042Q542 1021 534 1005T513 978T484 960T451 954Q417 954 392 974T367 1035Q367 1055 374 1071T395 1100T424 1118T458 1125Q492 1125 517 1103T542 1042ZM403 1035Q403 1012 417 999T451
986Q473 986 489 1001T506 1043Q506 1064 492 1078T457 1093Q434 1093 419 1077T403 1035Z" />
<glyph unicode="&#x16f;" glyph-name="uring" horiz-adv-x="543" d="M410 22Q407 11 402 4T384 -3H383Q372 -3 364 5T361 31L376 98Q351 78 324 59T268 26T208 3T145 -6Q116 -6 93 3T55 32T36 81T41 150L122 499Q125 510 130 517T148 524H149Q160 524 168 516T171
490L93 153Q79 90 98 63T159 35Q214 35 271 66T387 145L469 499Q471 510 477 517T495 524H496Q507 524 515 516T518 490L410 22ZM283 655Q283 632 297 619T331 606Q353 606 369 621T386 663Q386 684 372 698T337 713Q314 713 299 697T283 655ZM422 662Q422 641
414 625T393 598T364 580T331 574Q297 574 272 594T247 655Q247 675 254 691T275 720T304 738T338 745Q372 745 397 723T422 662Z" />
<glyph unicode="&#x170;" glyph-name="Uhungarumlaut" horiz-adv-x="679" d="M579 205Q553 92 485 44T316 -4Q252 -4 203 11T123 59T83 140T88 257L185 678Q190 703 211 703H212Q226 703 232 693T235 665L140 252Q115 143 162 92T317 40Q357 40 391 48T453 75T500
126T531 209L639 678Q644 703 663 703H664Q675 703 682 695T686 669L579 205ZM409 816Q420 835 434 835H435Q448 835 454 823T450 797L398 732Q389 720 380 720H379Q371 720 366 727T367 745L409 816ZM527 816Q538 835 552 835H553Q566 835 572 823T568 797L516
732Q507 720 498 720H497Q489 720 484 727T485 745L527 816Z" />
<glyph unicode="&#x171;" glyph-name="uhungarumlaut" horiz-adv-x="543" d="M410 22Q407 11 402 4T384 -3H383Q372 -3 364 5T361 31L376 98Q351 78 324 59T268 26T208 3T145 -6Q116 -6 93 3T55 32T36 81T41 150L122 499Q125 510 130 517T148 524H149Q160 524
168 516T171 490L93 153Q79 90 98 63T159 35Q214 35 271 66T387 145L469 499Q471 510 477 517T495 524H496Q507 524 515 516T518 490L410 22ZM319 687Q328 703 342 703H343Q357 703 362 691T359 666L295 582Q286 570 277 570H276Q267 570 262 578T264 597L319 687ZM437
687Q446 703 460 703H461Q475 703 480 691T477 666L413 582Q404 570 395 570H394Q385 570 380 578T382 597L437 687Z" />
<glyph unicode="&#x172;" glyph-name="Uogonek" horiz-adv-x="679" d="M185 678Q190 703 211 703H212Q226 703 232 693T235 666L140 252Q115 143 162 92T317 40Q357 40 391 48T453 75T500 126T531 209L639 678Q644 703 663 703H665Q676 703 683 695T687 669L580
205Q563 133 530 88T446 21Q434 16 417 11T381 0T343 -14T308 -33Q292 -44 280 -59T268 -93Q268 -109 278 -118T313 -128H330Q345 -128 345 -143V-144Q345 -158 330 -161Q323 -163 315 -163T299 -164Q262 -164 242 -146T221 -101Q221 -65 246 -42T301 -4Q241 -3
195 13T120 62T82 143T88 257L185 678Z" />
<glyph unicode="&#x173;" glyph-name="uogonek" horiz-adv-x="543" d="M410 21Q407 8 403 3T388 -9Q375 -17 362 -26T338 -46T321 -67T314 -92Q314 -109 324 -118T359 -128H376Q391 -128 391 -143V-144Q391 -158 376 -161Q369 -163 361 -163T345 -164Q308 -164
288 -146T267 -101Q267 -66 294 -40T362 6Q359 11 359 18T364 42L377 98Q352 78 325 59T268 26T208 3T145 -6Q116 -6 93 3T55 32T36 81T41 150L122 499Q125 510 130 517T148 524H149Q160 524 168 516T171 490L93 153Q79 90 98 63T159 35Q214 35 271 66T388 146L469
499Q471 510 477 517T495 524H496Q507 524 515 516T518 490L410 21Z" />
<glyph unicode="&#x178;" glyph-name="Ydieresis" horiz-adv-x="552" d="M255 22Q250 -3 228 -3H227Q213 -3 207 7T204 34L264 295L129 666Q124 681 130 692T152 703H153Q171 703 179 681L302 343H303L574 686Q587 703 598 703H599Q614 703 620 690T615 663L317
291L255 22ZM344 767Q344 753 334 743T310 733Q296 733 286 743T276 767Q276 781 286 791T310 801Q324 801 334 791T344 767ZM488 767Q488 753 478 743T454 733Q440 733 430 743T420 767Q420 781 430 791T454 801Q468 801 478 791T488 767Z" />
<glyph unicode="&#x179;" glyph-name="Zacute" horiz-adv-x="581" d="M562 655V657H190Q179 657 175 663T170 678V680Q170 688 174 694T191 700H613Q625 700 629 694T634 680V678Q634 668 629 661T613 641L62 44V42H450Q461 42 465 36T470 22V20Q470 12 466 6T450
0H13Q1 0 -3 6T-8 20V22Q-8 32 -3 39T13 59L562 655ZM455 820Q463 829 468 832T480 836H481Q498 836 502 822T495 796L426 731Q415 720 407 720H406Q396 720 392 729T396 748L455 820Z" />
<glyph unicode="&#x17a;" glyph-name="zacute" horiz-adv-x="459" d="M43 39H348Q358 39 362 34T366 21V19Q366 0 348 0H-3Q-23 0 -23 19V20Q-23 29 -18 36T-2 55L415 482H129Q110 482 110 501V503Q110 511 114 516T129 521H462Q482 521 482 502V501Q482 492 477
485T461 466L43 39ZM360 685Q366 693 372 698T387 703H388Q403 703 408 689T399 660L318 581Q307 570 299 570H298Q288 570 284 579T290 600L360 685V685Z" />
<glyph unicode="&#x17b;" glyph-name="Zdotaccent" horiz-adv-x="581" d="M562 655V657H190Q179 657 175 663T170 678V680Q170 688 174 694T191 700H613Q625 700 629 694T634 680V678Q634 668 629 661T613 641L62 44V42H450Q461 42 465 36T470 22V20Q470 12 466
6T450 0H13Q1 0 -3 6T-8 20V22Q-8 32 -3 39T13 59L562 655ZM449 768Q449 754 439 744T415 734Q401 734 391 744T381 768Q381 782 391 792T415 802Q429 802 439 792T449 768Z" />
<glyph unicode="&#x17c;" glyph-name="zdotaccent" horiz-adv-x="459" d="M43 39H348Q358 39 362 34T366 21V19Q366 0 348 0H-3Q-23 0 -23 19V20Q-23 29 -18 36T-2 55L415 482H129Q110 482 110 501V503Q110 511 114 516T129 521H462Q482 521 482 502V501Q482 492
477 485T461 466L43 39ZM342 635Q342 621 332 611T308 601Q294 601 284 611T274 635Q274 649 284 659T308 669Q322 669 332 659T342 635Z" />
<glyph unicode="&#x17d;" glyph-name="Zcaron" horiz-adv-x="581" d="M562 655V657H190Q179 657 175 663T170 678V680Q170 688 174 694T191 700H613Q625 700 629 694T634 680V678Q634 668 629 661T613 641L62 44V42H450Q461 42 465 36T470 22V20Q470 12 466 6T450
0H13Q1 0 -3 6T-8 20V22Q-8 32 -3 39T13 59L562 655ZM404 765L488 827Q499 835 506 835H507Q517 835 521 825T514 804L434 735Q416 720 402 720H401Q392 720 385 723T370 737L319 805Q309 818 315 827T330 836H331Q340 836 349 825L404 765Z" />
<glyph unicode="&#x17e;" glyph-name="zcaron" horiz-adv-x="459" d="M43 39H348Q358 39 362 34T366 21V19Q366 0 348 0H-3Q-23 0 -23 19V20Q-23 29 -18 36T-2 55L415 482H129Q110 482 110 501V503Q110 511 114 516T129 521H462Q482 521 482 502V501Q482 492 477
485T461 466L43 39ZM420 703Q431 703 435 693T429 674L336 586Q320 570 304 570H303Q294 570 287 574T273 589L220 674Q213 685 217 694T233 703H234Q243 703 250 693L307 613L401 693Q408 699 412 701T419 703H420Z" />
<glyph unicode="&#x192;" glyph-name="florin" horiz-adv-x="322" d="M186 387L82 -62Q79 -74 73 -81T55 -88H54Q41 -88 35 -79T32 -53L133 387H79Q58 387 58 406V408Q58 427 79 427H142L176 573Q185 612 200 637T234 677T277 697T327 703Q338 703 348 702T366
699Q383 694 383 681V680Q383 662 363 662H336Q315 662 299 659T269 646T245 618T228 570L195 427H285Q306 427 306 408V406Q306 387 285 387H186Z" />
<glyph unicode="&#x218;" glyph-name="Scommaaccent" horiz-adv-x="527" d="M720 215Q720 160 702 119T653 51T578 10T482 -4Q419 -4 364 14T271 64Q254 78 254 95V96Q254 107 260 114T280 122Q294 122 306 109T338 81T392 52T483 39Q523 39 557 49T616 81T654
135T668 211Q668 239 657 259T627 293T581 319T523 342Q486 355 456 368T405 401T372 445T360 509Q360 552 376 588T422 650T493 690T583 704Q636 704 678 691T752 654Q775 637 775 617V616Q775 605 769 598T750 591Q736 591 726 602T699 626T655 650T581 661Q546
661 515 651T460 623T424 577T410 513Q410 483 421 463T451 429T495 405T551 384Q587 371 617 357T671 324T707 278T720 215ZM224 -79Q224 -111 207 -137T143 -171Q126 -174 126 -159V-158Q126 -148 144 -142Q161 -137 169 -130T177 -114Q177 -107 174 -104T165
-96Q159 -91 155 -85T151 -70Q151 -53 162 -44T187 -34Q201 -34 212 -45T224 -79Z" />
<glyph unicode="&#x219;" glyph-name="scommaaccent" horiz-adv-x="407" d="M347 161Q347 126 335 96T299 44T237 9T150 -4Q96 -4 59 10T0 42Q-7 47 -11 54T-16 70V71Q-16 81 -10 87T7 94Q17 94 26 85T50 65T88 44T150 35Q228 35 263 69T298 154Q298 173 292 187T272
212T239 231T194 248Q164 258 140 268T98 293T72 328T62 376Q62 443 109 485T245 527Q293 527 325 516T375 493Q383 488 388 481T394 464V463Q394 454 389 448T373 442Q363 442 355 449T333 465T299 481T243 488Q177 488 144 459T110 381Q110 343 136 325T214 290Q244
281 268 271T310 245T337 210T347 161ZM410 -79Q410 -111 393 -137T329 -171Q312 -174 312 -159V-158Q312 -148 330 -142Q347 -137 355 -130T363 -114Q363 -107 360 -104T351 -96Q345 -91 341 -85T337 -70Q337 -53 348 -44T373 -34Q387 -34 398 -45T410 -79Z" />
<glyph unicode="&#x237;" glyph-name="uni0237" horiz-adv-x="201" d="M51 -64Q40 -112 11 -137T-68 -162Q-72 -162 -77 -162T-88 -161Q-110 -158 -110 -143V-142Q-110 -134 -105 -129T-80 -123Q-44 -122 -25 -108T2 -59L131 501Q136 526 156 526H157Q169 526
175 517T178 490L51 -64Z" />
<glyph unicode="&#x2c6;" glyph-name="circumflex" horiz-adv-x="412" d="M190 570Q179 570 175 580T181 599L274 687Q290 703 306 703H307Q316 703 323 699T337 684L390 599Q397 588 393 579T377 570H376Q367 570 360 580L303 660L209 580Q202 574 198 572T191 570H190Z" />
<glyph unicode="&#x2c7;" glyph-name="caron" horiz-adv-x="412" d="M399 703Q410 703 414 693T408 674L315 586Q299 570 283 570H282Q273 570 266 574T252 589L199 674Q192 685 196 694T212 703H213Q222 703 229 693L286 613L380 693Q387 699 391 701T398 703H399Z" />
<glyph unicode="&#x2d8;" glyph-name="breve" horiz-adv-x="412" d="M409 658Q393 619 362 597T288 575Q239 575 213 602T184 669Q182 691 203 691H204Q212 691 216 685T223 670Q231 643 245 629T289 615Q322 615 340 631T372 673Q376 681 380 686T393 691H394Q406
691 410 682T409 658Z" />
<glyph unicode="&#x2d9;" glyph-name="dotaccent" horiz-adv-x="412" d="M328 635Q328 621 318 611T294 601Q280 601 270 611T260 635Q260 649 270 659T294 669Q308 669 318 659T328 635Z" />
<glyph unicode="&#x2da;" glyph-name="ring" horiz-adv-x="412" d="M247 655Q247 632 261 619T295 606Q317 606 333 621T350 663Q350 684 336 698T301 713Q278 713 263 697T247 655ZM386 662Q386 641 378 625T357 598T328 580T295 574Q261 574 236 594T211 655Q211
675 218 691T239 720T268 738T302 745Q336 745 361 723T386 662Z" />
<glyph unicode="&#x2db;" glyph-name="ogonek" horiz-adv-x="400" d="M198 0Q184 -8 169 -17T139 -38T116 -63T107 -92Q107 -109 117 -118T152 -128H169Q184 -128 184 -143V-144Q184 -158 169 -161Q162 -163 154 -163T138 -164Q101 -164 81 -146T60 -101Q60 -82
68 -67T88 -39T117 -17T149 0H198V0Z" />
<glyph unicode="&#x2dc;" glyph-name="tilde" horiz-adv-x="412" d="M416 648Q410 624 391 607T343 589Q327 589 313 595T286 608T261 622T238 629Q211 629 200 602Q197 595 194 589T180 583H179Q171 583 166 589T164 610Q169 633 188 651T238 670Q254 670 268
664T295 651T320 637T344 631Q369 631 380 658Q383 665 386 671T400 677H401Q412 677 415 669T416 648Z" />
<glyph unicode="&#x2dd;" glyph-name="hungarumlaut" horiz-adv-x="412" d="M272 687Q281 703 295 703H296Q310 703 315 691T312 666L248 582Q239 570 230 570H229Q220 570 215 578T217 597L272 687ZM390 687Q399 703 413 703H414Q428 703 433 691T430 666L366
582Q357 570 348 570H347Q338 570 333 578T335 597L390 687Z" />
</font>
</defs>
</svg>
