<?xml version="1.0" standalone="no"?> <!DOCTYPE svg PUBLIC "-//W3C//DTD SVG 1.0//EN" "http://www.w3.org/TR/2001/REC-SVG-20010904/DTD/svg10.dtd" > <svg xmlns="http://www.w3.org/2000/svg" width="100%" height="100%">
<defs >
<font id="StagSans-MediumItalic" horiz-adv-x="1063" ><font-face
    font-family=""
    units-per-em="2048"
    panose-1="2 11 6 3 4 0 0 2 0 4"
    ascent="1638"
    descent="-410"
    alphabetic="0" />
<missing-glyph horiz-adv-x="1024" />
<glyph unicode=" " glyph-name="space" horiz-adv-x="389" />
<glyph unicode="!" glyph-name="exclam" horiz-adv-x="541" d="M279 1257L319 1434H639L598 1257L330 422H141L279 1257ZM172 -12Q137 -12 108 0T57 34T24 85T12 147Q12 183 26 214T65 268T122 304T190 317Q226 317 256 304T307 270T340 219T352 158Q352 121 337
90T297 36T240 1T172 -12Z" />
<glyph unicode="&quot;" glyph-name="quotedbl" horiz-adv-x="756" d="M229 1284L264 1434H543L508 1284L383 975H207L229 1284ZM600 1284L635 1434H913L879 1284L754 975H578L600 1284Z" />
<glyph unicode="#" glyph-name="numbersign" horiz-adv-x="1229" d="M264 410H111L162 633H328L385 850H227L281 1073H446L543 1434H745L649 1073H856L952 1434H1155L1059 1073H1219L1165 850H997L940 633H1100L1049 410H877L766 0H563L674 410H467L356 0H154L264
410ZM737 633L795 850H588L530 633H737Z" />
<glyph unicode="$" glyph-name="dollar" horiz-adv-x="1229" d="M381 -2Q325 7 278 22T192 57T120 99T63 143L111 350H217Q254 301 305 264T430 209L526 627Q458 654 404 689T311 771T252 875T231 1006Q231 1109 269 1191T374 1331T535 1418T739 1450L766 1565H948L918
1432Q995 1416 1060 1387T1178 1315L1133 1122H1028Q993 1159 955 1185T868 1225L776 825Q842 798 900 765T1001 687T1070 583T1096 442Q1096 335 1058 251T949 108T779 18T559 -16L516 -209H334L381 -2ZM809 412Q809 465 781 497T692 559L610 203Q651 210 687
225T750 265T793 326T809 412ZM498 1044Q498 992 524 959T610 895L690 1239Q653 1234 619 1220T557 1182T514 1124T498 1044Z" />
<glyph unicode="%" glyph-name="percent" horiz-adv-x="1638" d="M449 852Q494 851 526 881T580 957T611 1053T621 1147Q621 1173 616 1197T599 1240T566 1270T516 1282Q470 1282 437 1251T383 1174T352 1077T342 983Q342 957 347 934T364 892T397 864T449 852ZM430
684Q359 684 301 706T201 769T136 865T113 989Q113 1080 144 1163T230 1310T363 1412T532 1450Q603 1450 661 1428T762 1366T827 1269T850 1141Q850 1052 819 970T732 824T599 722T430 684ZM1391 1493H1614L326 -70H102L1391 1493ZM1208 152Q1253 152 1285 182T1339
258T1370 354T1380 446Q1380 472 1375 496T1358 540T1326 570T1276 582Q1246 582 1221 568T1177 529T1144 474T1120 410T1107 343T1102 283Q1102 257 1107 233T1124 191T1156 163T1208 152ZM1190 -16Q1119 -16 1061 6T960 67T895 163T872 287Q872 377 903 461T990
609T1123 711T1292 750Q1363 750 1421 728T1520 666T1585 568T1608 440Q1608 352 1577 270T1491 124T1358 22T1190 -16Z" />
<glyph unicode="&amp;" glyph-name="ampersand" horiz-adv-x="1393" d="M496 -18Q404 -18 318 4T165 75T58 200T18 383Q18 461 46 530T126 656T247 758T399 829Q384 870 376 910T367 999Q367 1093 402 1175T503 1319T665 1415T883 1450Q985 1450 1061 1431T1206
1366L1161 1137H1051Q1017 1174 975 1195T870 1217Q826 1217 790 1203T727 1163T685 1100T670 1016Q670 993 674 972T687 927T711 878T750 821L975 512Q995 548 1016 589T1056 673T1089 760T1112 848H1362V782Q1343 714 1316 650T1256 527T1189 413T1120 313L1284
82L1290 0H981L901 111Q858 81 815 57T723 17T619 -9T496 -18ZM565 207Q639 207 690 229T776 279L489 670Q421 631 381 569T340 412Q340 363 356 325T403 261T474 221T565 207Z" />
<glyph unicode="&apos;" glyph-name="quotesingle" horiz-adv-x="385" d="M229 1284L264 1434H543L508 1284L385 975H209L229 1284Z" />
<glyph unicode="(" glyph-name="parenleft" horiz-adv-x="690" d="M440 -100Q370 -73 307 -22T195 105T117 285T88 522Q88 634 109 743T172 954T275 1146T414 1309T589 1436T797 1518H879L829 1313Q726 1275 641 1199T495 1018T401 785T367 516Q367 418 382 347T422
225T481 144T549 96L504 -100H440V-100Z" />
<glyph unicode=")" glyph-name="parenright" horiz-adv-x="690" d="M-51 104Q52 142 137 218T283 399T378 632T412 901Q412 999 397 1070T357 1192T298 1273T229 1321L274 1518H338Q408 1490 471 1439T583 1312T661 1132T690 895Q690 784 669 675T606 464T503
272T364 108T189 -19T-18 -100H-100L-51 104Z" />
<glyph unicode="*" glyph-name="asterisk" horiz-adv-x="782" d="M514 836L494 993L395 836L324 766L176 926L250 993L397 1069L252 1087L168 1124L276 1329L360 1292L471 1186L457 1339L479 1434H711L684 1323L604 1171L752 1249L844 1268L870 1049L774 1030L623
1047L729 940L766 860L553 754L514 836Z" />
<glyph unicode="+" glyph-name="plus" horiz-adv-x="1229" d="M504 590H139L195 825H559L647 1210H897L809 825H1171L1116 590H754L666 205H416L504 590Z" />
<glyph unicode="," glyph-name="comma" horiz-adv-x="614" d="M-6 -94Q28 -91 56 -83T104 -63T135 -37T147 -6Q147 13 136 20T102 43Q78 60 65 85T51 145Q51 184 65 215T102 269T157 304T223 317Q257 317 288 305T341 271T377 217T391 147Q391 60 360 -7T273 -122T139
-195T-35 -225L-6 -94Z" />
<glyph unicode="-" glyph-name="hyphen" horiz-adv-x="580" d="M100 731H573L516 487H43L100 731Z" />
<glyph unicode="." glyph-name="period" horiz-adv-x="614" d="M215 -12Q180 -12 151 0T100 34T67 85T55 147Q55 183 69 214T108 268T165 304T233 317Q269 317 299 304T350 270T383 219T395 158Q395 121 380 90T340 36T283 1T215 -12Z" />
<glyph unicode="/" glyph-name="slash" horiz-adv-x="721" d="M-109 -39L690 1518H913V1456L113 -100H-109V-39Z" />
<glyph unicode="0" glyph-name="zero" horiz-adv-x="1229" d="M553 -16Q426 -16 338 23T193 128T112 285T86 477Q86 580 103 692T155 913T245 1118T373 1289T541 1406T752 1450Q872 1450 960 1415T1106 1312T1192 1148T1219 928Q1219 832 1202 725T1151 512T1064
312T937 143T768 27T553 -16ZM391 465Q392 402 400 354T427 272T479 222T559 205Q615 205 662 242T748 339T816 477T866 636T896 794T907 932Q907 1000 900 1054T874 1147T823 1205T743 1225Q687 1225 639 1187T551 1087T481 944T431 780T400 613T391 465Z" />
<glyph unicode="1" glyph-name="one" horiz-adv-x="1229" d="M649 1090L375 952H293L344 1174L836 1434H1049L719 0H399L649 1090Z" />
<glyph unicode="2" glyph-name="two" horiz-adv-x="1229" d="M47 252L543 629Q604 675 662 726T767 831T841 942T870 1059Q870 1136 824 1174T678 1212Q633 1212 591 1204T510 1183T434 1152T367 1116H266L319 1348Q404 1396 508 1423T731 1450Q828 1450 912 1428T1058
1360T1156 1242T1192 1069Q1192 982 1160 907T1069 763T928 625T743 483L420 250H1036L979 0H-10L47 252Z" />
<glyph unicode="3" glyph-name="three" horiz-adv-x="1229" d="M504 -16Q352 -16 239 26T51 137L100 348H215Q260 285 334 250T494 213Q551 212 599 225T682 265T738 331T758 422Q758 463 747 499T710 561T639 603T528 618H432L483 842H606Q661 842 709 854T793
892T849 958T870 1055Q870 1102 855 1134T814 1186T755 1215T686 1225Q644 1226 605 1219T531 1201T466 1174T412 1143H295L344 1358Q381 1379 422 1396T510 1425T612 1445T731 1452Q809 1452 887 1435T1026 1375T1126 1261T1165 1081Q1165 1008 1142 949T1076
844T976 767T848 721V713Q897 700 937 673T1005 608T1049 522T1065 416Q1065 314 1021 234T901 98T723 13T504 -16Z" />
<glyph unicode="4" glyph-name="four" horiz-adv-x="1229" d="M651 303H41L102 569L922 1434H1225L1016 526H1167L1116 303H965L895 0H582L651 303ZM702 526L821 1042H813L338 535V526H702Z" />
<glyph unicode="5" glyph-name="five" horiz-adv-x="1229" d="M485 -16Q404 -16 337 -6T216 22T119 65T41 121L90 330H211Q256 270 321 241T479 211Q540 211 596 231T696 289T765 383T791 508Q791 553 777 587T737 645T678 680T604 692Q562 692 528 684T465 662T414
631T375 596H193L385 1434H1231L1174 1184H557L479 850H485Q523 878 580 899T723 920Q807 920 878 894T1002 818T1083 695T1112 526Q1112 397 1062 296T926 126T726 21T485 -16Z" />
<glyph unicode="6" glyph-name="six" horiz-adv-x="1229" d="M592 -16Q478 -16 384 17T224 115T121 275T84 494Q84 569 94 647T124 803T176 953T250 1092Q302 1172 369 1237T519 1350T697 1422T905 1448Q966 1448 1017 1442T1112 1425T1194 1396T1266 1354L1214
1143H1098Q1064 1180 1012 1201T895 1223Q827 1223 772 1207T671 1162T589 1092T522 1001Q493 953 472 899T436 786Q502 840 587 873T774 907Q857 907 928 883T1053 808T1136 683T1167 508Q1167 402 1127 307T1012 140T831 26T592 -16ZM657 696Q622 696 587 690T520
672T458 647T406 618Q401 580 399 541T397 467Q397 408 406 358T439 270T503 212T604 190Q663 190 711 212T792 276T844 375T862 502Q862 591 812 643T657 696Z" />
<glyph unicode="7" glyph-name="seven" horiz-adv-x="1229" d="M217 125L997 1176V1184H276L334 1434H1303L1239 1161L532 0H217V125Z" />
<glyph unicode="8" glyph-name="eight" horiz-adv-x="1229" d="M555 -18Q504 -18 447 -11T333 13T225 58T134 129T71 232T47 371Q47 458 75 525T153 641T269 723T410 772V780Q334 817 291 883T248 1026Q248 1128 289 1207T399 1340T562 1422T760 1450Q863 1450
945 1425T1086 1352T1176 1236T1208 1083Q1208 1012 1186 957T1126 861T1036 794T924 752V743Q1018 703 1074 628T1130 440Q1130 330 1088 245T969 102T787 13T555 -18ZM565 190Q629 190 677 210T757 266T805 349T821 451Q821 495 810 533T774 600T710 645T614
662Q552 662 504 641T423 583T373 496T356 389Q356 341 372 304T417 241T484 203T565 190ZM711 862Q754 862 790 875T852 915T894 979T909 1069Q909 1144 869 1189T748 1235Q704 1235 668 1221T605 1180T564 1113T549 1022Q549 981 562 951T597 901T648 872T711
862Z" />
<glyph unicode="9" glyph-name="nine" horiz-adv-x="1229" d="M401 -18Q336 -18 283 -12T186 6T103 35T31 74L80 281H197Q234 245 285 226T410 207Q519 207 608 246T754 354Q800 410 832 480T883 633Q817 580 732 551T537 522Q448 522 376 546T252 618T172 734T143
891Q143 1010 187 1111T310 1287T495 1404T729 1446Q840 1446 932 1413T1091 1317T1195 1161T1233 950Q1233 740 1180 565T1020 254Q917 124 762 53T401 -18ZM651 737Q685 737 721 742T791 757T856 778T911 805Q916 847 918 889T920 977Q920 1030 910 1077T876
1161T814 1218T719 1239Q658 1239 607 1217T519 1153T461 1054T440 922Q440 737 651 737Z" />
<glyph unicode=":" glyph-name="colon" horiz-adv-x="614" d="M211 -12Q176 -12 147 0T96 34T63 85T51 147Q51 183 65 214T104 268T161 304T229 317Q265 317 295 304T346 270T379 219T391 158Q391 121 376 90T336 36T279 1T211 -12ZM346 582Q311 582 282 594T231
628T198 679T186 741Q186 777 200 808T240 862T297 898T365 911Q401 911 430 898T481 864T514 813T526 752Q526 715 511 684T471 630T414 595T346 582Z" />
<glyph unicode=";" glyph-name="semicolon" horiz-adv-x="614" d="M-8 -94Q26 -91 54 -83T102 -63T133 -37T145 -6Q145 13 134 20T100 43Q76 60 63 85T49 145Q49 184 63 215T101 269T156 304T223 317Q257 317 287 305T340 271T376 217T389 147Q389 60 358 -7T271
-122T137 -195T-37 -225L-8 -94ZM346 582Q311 582 282 594T231 628T198 679T186 741Q186 777 200 808T240 862T297 898T365 911Q401 911 430 898T481 864T514 813T526 752Q526 715 511 684T471 630T414 595T346 582Z" />
<glyph unicode="&lt;" glyph-name="less" horiz-adv-x="1229" d="M213 582L258 780L1098 1169H1167L1112 936L532 670V664L987 393L938 180H868L213 582Z" />
<glyph unicode="=" glyph-name="equal" horiz-adv-x="1229" d="M162 547H1077L1022 311H106L162 547ZM260 977H1176L1122 741H207L260 977Z" />
<glyph unicode="&gt;" glyph-name="greater" horiz-adv-x="1229" d="M180 414L760 680V686L307 956L356 1169H426L1081 768L1036 569L197 180H127L180 414Z" />
<glyph unicode="?" glyph-name="question" horiz-adv-x="920" d="M225 422Q231 486 241 537T275 635T339 726T444 819Q480 846 521 874T596 935T653 1007T676 1096Q676 1160 633 1189T524 1219Q456 1219 401 1199T301 1147H184L236 1370Q299 1407 384 1429T578
1452Q658 1452 732 1435T864 1379T956 1276T991 1116Q991 1051 969 994T908 886T816 791T698 709Q643 677 599 648T522 587T468 515T438 422H225ZM276 -12Q241 -12 212 0T161 34T129 85T117 147Q117 183 131 214T170 268T227 304T295 317Q331 317 361 304T412 270T445
219T457 158Q457 121 442 90T402 36T345 1T276 -12Z" />
<glyph unicode="@" glyph-name="at" horiz-adv-x="1776" d="M889 -274Q782 -274 679 -256T482 -199T310 -100T174 44T84 235T51 477Q51 619 89 740T194 959T350 1134T542 1261T753 1339T969 1366Q1131 1366 1273 1323T1522 1194T1689 984T1751 696Q1751 552 1710
447T1599 272T1440 169T1253 135Q1191 135 1145 144T1067 170T1014 211T983 264Q962 239 935 216T876 174T804 146T717 135Q658 135 611 153T530 208T478 300T459 428Q459 488 473 549T513 667T579 774T670 860T783 918T918 940Q958 940 988 934T1044 917T1088
891T1126 858Q1154 892 1187 910T1274 928H1368L1255 430Q1250 406 1249 385T1254 347T1276 322T1317 313Q1365 313 1406 336T1476 406T1521 525T1538 696Q1538 812 1499 903T1387 1056T1208 1151T969 1184Q883 1184 799 1165T638 1106T496 1007T382 870T307 693T279
477Q279 321 325 213T452 37T646 -61T889 -92Q1042 -92 1170 -58T1413 45H1485L1442 -145Q1337 -207 1202 -240T889 -274ZM809 322Q852 322 896 342T975 401L1053 735Q1036 741 1015 746T954 752Q902 752 860 726T787 654T740 551T723 428Q723 374 746 348T809
322Z" />
<glyph unicode="A" glyph-name="A" horiz-adv-x="1362" d="M-70 84L692 1434H1034L1212 84V0H899L858 379H381L182 0H-70V84ZM496 598H834L778 1126H774L496 598Z" />
<glyph unicode="B" glyph-name="B" horiz-adv-x="1245" d="M338 1434H760Q871 1434 958 1412T1107 1345T1200 1235T1233 1083Q1233 1011 1211 955T1148 856T1051 786T926 741V733Q1033 710 1096 641T1159 449Q1159 331 1111 246T981 107T789 26T557 0H321H8L338
1434ZM578 225Q636 225 684 239T768 282T822 356T842 463Q842 544 793 592T645 641H469L373 225H578ZM674 852Q725 852 770 862T850 895T905 958T926 1057Q926 1126 881 1167T739 1208H600L520 852H674Z" />
<glyph unicode="C" glyph-name="C" horiz-adv-x="1264" d="M715 -16Q578 -16 464 18T267 124T138 303T92 561Q92 672 116 781T187 988T304 1171T465 1318T669 1415T913 1450Q1041 1450 1138 1425T1311 1348L1262 1135H1149Q1104 1175 1044 1197T899 1219Q810 1219
740 1189T617 1107T525 988T464 847T429 698T418 557Q418 465 439 399T501 291T599 229T731 209Q818 209 887 234T1016 301H1137L1083 70Q1052 52 1015 37T932 10T833 -9T715 -16Z" />
<glyph unicode="D" glyph-name="D" horiz-adv-x="1417" d="M588 225Q682 225 754 253T880 329T970 440T1029 572T1061 712T1071 848Q1071 921 1057 986T1008 1099T916 1176T772 1204H604L379 225H588ZM338 1434H778Q924 1434 1039 1396T1234 1283T1356 1099T1399
848Q1399 742 1377 638T1311 439T1199 265T1043 125T843 33T598 0H323H8L338 1434Z" />
<glyph unicode="E" glyph-name="E" horiz-adv-x="1153" d="M338 1434H1251L1198 1202H604L520 838H958L907 618H469L379 225H1020L969 0H327H8L338 1434Z" />
<glyph unicode="F" glyph-name="F" horiz-adv-x="1116" d="M338 1434H1270L1217 1202H604L512 807H995L946 588H463L328 0H8L338 1434Z" />
<glyph unicode="G" glyph-name="G" horiz-adv-x="1368" d="M721 -16Q588 -16 473 16T274 116T141 291T92 547Q92 660 116 771T187 983T304 1168T466 1316T671 1414T920 1450Q1048 1450 1152 1425T1341 1343L1290 1124H1182Q1129 1172 1063 1195T899 1219Q811 1219
742 1189T619 1108T527 989T464 846T428 691T416 539Q416 460 433 398T489 292T588 226T735 203Q817 203 874 221L948 541H750L797 748H994H1309L1155 78Q1123 59 1078 42T977 12T857 -8T721 -16Z" />
<glyph unicode="H" glyph-name="H" horiz-adv-x="1419" d="M338 1434H657L522 844H1049L1184 1434H1503L1174 0H854L997 618H469L328 0H8L338 1434Z" />
<glyph unicode="I" glyph-name="I" horiz-adv-x="588" d="M344 1434H666L336 0H14L344 1434Z" />
<glyph unicode="J" glyph-name="J" horiz-adv-x="936" d="M289 -16Q224 -16 172 -8T76 13T0 43T-57 78L-8 291H96Q108 276 124 262T163 237T213 220T274 213Q359 213 402 256T465 381L707 1434H1028L774 334Q756 256 719 192T622 81T480 10T289 -16Z" />
<glyph unicode="K" glyph-name="K" horiz-adv-x="1337" d="M338 1434H657L506 774L1157 1434H1427V1348L895 829L1196 86V0H897L653 614L418 389L328 0H8L338 1434Z" />
<glyph unicode="L" glyph-name="L" horiz-adv-x="1094" d="M338 1434H657L379 225H956L905 0H327H8L338 1434Z" />
<glyph unicode="M" glyph-name="M" horiz-adv-x="1710" d="M338 1434H754L834 481H840L1354 1434H1794L1464 0H1149L1399 1085H1393L801 0H608L522 1085H516L266 0H8L338 1434Z" />
<glyph unicode="N" glyph-name="N" horiz-adv-x="1405" d="M338 1434H700L1001 516H1008L1221 1434H1489L1159 0H868L520 1042H514L274 0H8L338 1434Z" />
<glyph unicode="O" glyph-name="O" horiz-adv-x="1495" d="M717 205Q793 205 855 234T965 313T1048 428T1106 565T1140 710T1151 850Q1151 921 1137 989T1089 1110T997 1196T854 1229Q777 1229 715 1199T604 1118T520 1001T463 863T429 718T418 582Q418 503 434
434T486 314T579 234T717 205ZM707 -16Q565 -16 451 28T258 151T135 343T92 590Q92 701 116 808T186 1011T299 1187T451 1326T639 1417T860 1450Q1001 1450 1115 1406T1310 1281T1433 1090T1477 844Q1477 738 1454 633T1387 432T1277 254T1126 112T935 18T707 -16Z"
/>
<glyph unicode="P" glyph-name="P" horiz-adv-x="1221" d="M338 1434H762Q1011 1434 1136 1331T1262 1028Q1262 898 1218 802T1092 643T891 549T625 518H446L328 0H8L338 1434ZM641 733Q716 733 774 750T873 804T933 899T954 1038Q954 1077 943 1107T907 1159T841
1192T739 1204H604L496 733H641Z" />
<glyph unicode="Q" glyph-name="Q" horiz-adv-x="1495" d="M631 -55Q497 -12 396 47T228 185T126 364T92 590Q92 701 116 808T186 1011T299 1187T451 1326T639 1417T860 1450Q1001 1450 1115 1406T1310 1281T1433 1090T1477 844Q1477 706 1445 583T1350 360T1193
185T975 72V66L1397 -6L1341 -248H1219L631 -55ZM721 203Q798 203 859 232T969 312T1051 427T1108 565T1140 710T1151 850Q1151 921 1137 989T1089 1110T997 1196T854 1229Q777 1229 715 1199T604 1118T520 1001T463 863T429 718T418 582Q418 503 433 434T483 314T577
233T721 203Z" />
<glyph unicode="R" glyph-name="R" horiz-adv-x="1286" d="M629 561H457L328 0H8L338 1434H772Q1024 1434 1147 1327T1270 1022Q1270 943 1245 876T1175 755T1065 661T924 596L1139 84V0H850L629 561ZM670 776Q812 776 887 840T963 1038Q963 1076 953 1106T917
1159T851 1192T750 1204H604L506 776H670Z" />
<glyph unicode="S" glyph-name="S" horiz-adv-x="1085" d="M455 -16Q368 -16 296 -4T166 30T62 79T-16 137L33 356H139Q164 324 195 298T266 252T355 222T467 211Q513 211 557 221T637 254T693 315T715 410Q715 450 699 477T652 525T574 566T469 608Q397 636 340
671T244 752T185 857T164 991Q164 1100 201 1185T306 1329T469 1419T682 1450Q818 1450 924 1413T1110 1313L1061 1106H956Q927 1134 897 1155T831 1192T755 1215T664 1223Q622 1223 584 1213T515 1181T467 1126T449 1044Q449 1006 461 980T501 932T574 891T686
846Q758 818 818 786T922 708T990 603T1014 459Q1014 343 974 255T861 106T685 15T455 -16Z" />
<glyph unicode="T" glyph-name="T" horiz-adv-x="1169" d="M582 1208H199L250 1434H1335L1284 1208H901L623 0H303L582 1208Z" />
<glyph unicode="U" glyph-name="U" horiz-adv-x="1364" d="M635 -16Q492 -16 383 24T207 140T118 327T129 580L326 1434H645L438 541Q423 475 425 417T452 314T528 245T662 219Q727 219 778 236T867 289T933 381T979 518L1190 1434H1456L1241 500Q1214 385 1168
290T1049 127T874 22T635 -16Z" />
<glyph unicode="V" glyph-name="V" horiz-adv-x="1307" d="M231 1350V1434H537L631 369H635L1208 1434H1458V1350L702 0H375L231 1350Z" />
<glyph unicode="W" glyph-name="W" horiz-adv-x="1878" d="M238 1350V1434H537L545 393H549L1022 1434H1292L1298 393H1303L1757 1434H2021V1350L1389 0H1034L1042 938H1038L623 0H266L238 1350Z" />
<glyph unicode="X" glyph-name="X" horiz-adv-x="1331" d="M-31 90L508 748L264 1343V1434H567L760 926L1145 1434H1403V1343L907 725L1165 90V0H862L653 549L227 0H-31V90Z" />
<glyph unicode="Y" glyph-name="Y" horiz-adv-x="1212" d="M473 575L219 1343V1434H516L696 840H700L1130 1434H1374V1343L784 545L659 0H340L473 575Z" />
<glyph unicode="Z" glyph-name="Z" horiz-adv-x="1143" d="M-8 242L862 1198V1206H266L319 1434H1286L1229 1186L356 229V221H1006L956 0H-63L-8 242Z" />
<glyph unicode="[" glyph-name="bracketleft" horiz-adv-x="692" d="M375 1518H860L813 1321H606L324 96H530L485 -100H279H0L375 1518Z" />
<glyph unicode="\" glyph-name="backslash" horiz-adv-x="721" d="M197 1456V1518H424L610 -39V-100H383L197 1456Z" />
<glyph unicode="]" glyph-name="bracketright" horiz-adv-x="692" d="M-35 96H172L455 1321H248L295 1518H780L406 -100H126H-80L-35 96Z" />
<glyph unicode="^" glyph-name="asciicircum" horiz-adv-x="862" d="M139 995L518 1434H733L928 995V926H707L586 1190H580L352 926H139V995Z" />
<glyph unicode="_" glyph-name="underscore" horiz-adv-x="764" d="M-154 -141H616L571 -332H-199L-154 -141Z" />
<glyph unicode="`" glyph-name="grave" horiz-adv-x="819" d="M301 1348V1434H584L662 1214V1151H481L301 1348Z" />
<glyph unicode="a" glyph-name="a" horiz-adv-x="1042" d="M719 0Q669 0 629 24T571 102Q522 51 454 20T297 -12Q233 -12 180 6T88 61T28 151T6 276Q6 364 39 433T133 549T280 622T473 647Q542 647 584 641T659 623L668 662Q692 768 659 822T526 877Q445 877 382
860T262 811H176L225 1024Q260 1039 297 1051T378 1073T470 1087T578 1092Q691 1092 775 1065T909 982T974 839T961 631L815 0H719ZM406 174Q460 174 499 196T575 254L621 459Q596 465 565 470T492 475Q390 475 339 425T287 297Q287 238 317 206T406 174Z" />
<glyph unicode="b" glyph-name="b" horiz-adv-x="1190" d="M319 1434H502Q531 1434 552 1428T583 1404T594 1353T582 1266L510 954Q570 1014 652 1053T831 1092Q892 1092 947 1070T1045 1001T1112 881T1137 707Q1137 539 1096 405T980 178T802 36T575 -14Q521
-14 476 -3T394 27T330 67T283 113Q266 90 245 70T199 34T143 9T76 0H-8L319 1434ZM705 870Q645 870 589 845T471 778L350 248Q361 236 375 224T409 203T455 187T518 180Q599 180 659 220T760 330T820 491T840 688Q840 779 803 824T705 870Z" />
<glyph unicode="c" glyph-name="c" horiz-adv-x="991" d="M539 -14Q416 -14 325 17T174 107T85 246T55 428Q55 575 105 697T242 907T447 1043T702 1092Q809 1092 885 1069T1018 1001L973 809H864Q841 837 799 855T694 874Q616 874 553 840T444 746T375 605T350
430Q350 312 403 256T561 199Q632 199 680 216T770 262H881L834 59Q783 27 711 7T539 -14Z" />
<glyph unicode="d" glyph-name="d" horiz-adv-x="1190" d="M872 0Q831 0 801 10T750 37T717 79T700 131Q643 62 566 23T395 -16Q323 -16 260 5T150 74T76 196T49 379Q49 529 92 658T211 884T392 1035T621 1090Q713 1090 773 1062T872 989L975 1434H1155Q1184 1434
1205 1428T1236 1404T1247 1353T1235 1266L946 0H872ZM500 190Q548 190 603 213T711 276L829 803Q818 813 803 824T769 845T724 860T668 866Q592 866 532 830T431 729T368 578T346 391Q346 289 381 240T500 190Z" />
<glyph unicode="e" glyph-name="e" horiz-adv-x="1055" d="M514 -14Q291 -14 170 97T49 426Q49 513 66 596T118 753T201 889T314 997T455 1067T623 1092Q720 1092 793 1065T914 986T987 864T1010 705Q1010 651 1001 592T975 471H340V430Q340 365 353 321T393 248T457
208T547 195Q622 195 687 214T811 270H907L860 63Q801 31 717 9T514 -14ZM604 901Q559 901 522 884T454 833T402 754T365 651H743Q748 673 750 693T752 731Q752 818 712 859T604 901Z" />
<glyph unicode="f" glyph-name="f" horiz-adv-x="686" d="M236 874H109L152 1075H279L297 1157Q332 1311 426 1382T672 1454Q737 1454 782 1446T856 1425L817 1247H754Q720 1247 694 1243T647 1229T614 1198T594 1147L578 1075H762L719 874H532L336 0H45L236 874Z" />
<glyph unicode="g" glyph-name="g" horiz-adv-x="1178" d="M375 -352Q297 -352 236 -344T126 -321T43 -290T-20 -254L29 -47H119Q157 -89 220 -112T371 -135Q425 -135 471 -125T555 -91T619 -28T659 70L686 186Q626 123 545 84T371 45Q306 45 248 66T145 131T75
242T49 403Q49 548 91 674T210 893T391 1039T623 1092Q672 1092 715 1081T793 1053T857 1014T905 971Q921 992 941 1010T987 1043T1041 1066T1106 1075H1190L956 63Q929 -55 878 -134T753 -262T584 -331T375 -352ZM479 254Q539 254 601 280T725 356L831 825Q820
837 806 849T771 871T725 888T664 895Q582 895 522 854T423 745T365 591T346 416Q346 332 379 293T479 254Z" />
<glyph unicode="h" glyph-name="h" horiz-adv-x="1171" d="M319 1434H500Q529 1434 550 1428T581 1404T592 1353T580 1266L508 948Q548 979 590 1005T678 1050T777 1081T891 1092Q954 1092 1003 1067T1083 995T1122 881T1112 729L944 0H745Q719 0 702 6T677 27T668
68T678 133L811 729Q825 794 806 824T737 854Q680 854 613 831T463 756L291 0H-8L319 1434Z" />
<glyph unicode="i" glyph-name="i" horiz-adv-x="532" d="M240 1075H403Q439 1075 463 1069T498 1042T509 982T494 879L293 0H-6L240 1075ZM426 1161Q392 1161 364 1173T316 1205T285 1253T274 1313Q274 1347 288 1377T325 1428T379 1462T444 1475Q478 1475 506
1463T555 1430T586 1382T598 1323Q598 1288 584 1258T546 1207T491 1173T426 1161Z" />
<glyph unicode="j" glyph-name="j" horiz-adv-x="528" d="M-63 -344Q-98 -344 -124 -342T-170 -336T-208 -327T-242 -315L-203 -150H-166Q-129 -150 -103 -145T-60 -127T-32 -89T-12 -27L240 1075H403Q439 1075 463 1069T498 1042T509 982T494 879L283 -45Q263
-129 232 -186T158 -279T60 -329T-63 -344ZM426 1161Q392 1161 364 1173T316 1205T285 1253T274 1313Q274 1347 288 1377T325 1428T379 1462T444 1475Q478 1475 506 1463T555 1430T586 1382T598 1323Q598 1288 584 1258T546 1207T491 1173T426 1161Z" />
<glyph unicode="k" glyph-name="k" horiz-adv-x="1073" d="M319 1434H500Q529 1434 550 1428T581 1404T592 1353T580 1266L442 668L856 1075H1116V997L709 623L956 82V0H680L481 434L365 324L291 0H-8L319 1434Z" />
<glyph unicode="l" glyph-name="l" horiz-adv-x="539" d="M322 1434H502Q531 1434 552 1428T583 1404T594 1353T582 1266L293 0H-6L322 1434Z" />
<glyph unicode="m" glyph-name="m" horiz-adv-x="1737" d="M238 1075H332Q417 1075 453 1035T492 928Q530 961 571 990T656 1042T750 1078T854 1092Q939 1092 997 1049T1075 926Q1165 1000 1260 1046T1462 1092Q1526 1092 1575 1067T1654 996T1690 882T1677 729L1507
0H1309Q1283 0 1266 6T1240 27T1231 68T1241 133L1374 729Q1388 794 1372 824T1309 854Q1265 854 1210 832T1075 762L1069 729L899 0H602L766 729Q780 794 764 824T700 854Q657 854 601 832T467 760L293 0H-8L238 1075Z" />
<glyph unicode="n" glyph-name="n" horiz-adv-x="1171" d="M238 1075H336Q378 1075 407 1065T454 1037T481 993T492 936Q533 969 576 997T669 1047T772 1080T891 1092Q954 1092 1003 1067T1083 995T1122 881T1112 729L944 0H745Q719 0 702 6T677 27T668 68T678
133L811 729Q825 794 806 824T737 854Q680 854 613 831T463 756L291 0H-8L238 1075Z" />
<glyph unicode="o" glyph-name="o" horiz-adv-x="1165" d="M537 195Q605 195 657 232T745 330T799 471T817 637Q817 701 804 747T766 822T708 865T633 879Q567 879 514 841T425 740T368 597T348 432Q348 367 361 322T399 249T459 208T537 195ZM526 -12Q414 -12
327 19T179 109T87 251T55 438Q55 587 102 708T230 914T417 1046T641 1092Q753 1092 840 1059T988 965T1079 819T1110 631Q1110 482 1065 363T942 160T757 33T526 -12Z" />
<glyph unicode="p" glyph-name="p" horiz-adv-x="1180" d="M238 1075H336Q418 1075 454 1038T496 938Q526 971 562 999T640 1048T727 1080T819 1092Q884 1092 942 1070T1043 999T1112 876T1137 694Q1137 530 1096 403T981 189T806 57T584 12Q487 12 424 38T319
102L221 -332H-82L238 1075ZM705 870Q646 870 592 848T475 782L358 270Q370 259 386 249T422 230T468 217T526 211Q604 211 663 246T761 345T820 496T840 688Q840 779 803 824T705 870Z" />
<glyph unicode="q" glyph-name="q" horiz-adv-x="1190" d="M678 133Q619 74 541 43T379 12Q314 12 255 32T150 96T77 208T49 375Q49 535 94 666T219 892T405 1038T633 1090Q680 1090 720 1081T795 1055T858 1016T907 969Q924 990 944 1009T990 1043T1045 1066T1110
1075H1194L872 -332H571L678 133ZM485 215Q597 215 719 315L834 817Q811 837 771 854T659 872Q588 872 530 834T431 730T368 579T346 395Q346 344 356 310T384 254T427 224T485 215Z" />
<glyph unicode="r" glyph-name="r" horiz-adv-x="795" d="M238 1075H332Q380 1075 412 1062T462 1026T487 970T492 897Q522 939 557 973T631 1032T714 1071T803 1085Q820 1085 835 1083T864 1075L809 823H772Q666 823 587 792T457 717L293 0H-8L238 1075Z" />
<glyph unicode="s" glyph-name="s" horiz-adv-x="889" d="M336 -12Q265 -12 207 -3T103 20T23 53T-37 90L10 293H106Q141 253 200 226T344 199Q379 199 410 205T465 223T502 256T516 305Q516 326 508 342T482 371T439 395T375 420Q307 444 255 471T168 533T115
614T96 723Q96 807 126 874T212 988T350 1060T532 1085Q593 1085 644 1077T737 1055T814 1023T877 985L831 797H741Q707 828 651 852T520 877Q442 877 404 851T365 774Q365 756 372 742T397 714T442 689T512 662Q573 640 624 616T713 557T772 477T793 367Q793 279
761 209T670 90T527 15T336 -12Z" />
<glyph unicode="t" glyph-name="t" horiz-adv-x="711" d="M371 -16Q286 -16 227 8T135 77T95 188T106 334L231 874H115L158 1075H276L342 1362H641L575 1075H768L725 874H528L403 328Q388 260 414 224T524 188H575L537 10Q505 -2 468 -9T371 -16Z" />
<glyph unicode="u" glyph-name="u" horiz-adv-x="1165" d="M840 0Q796 0 765 10T714 39T684 84T670 141Q629 108 588 80T501 30T404 -4T295 -16Q225 -16 172 8T88 78T48 191T61 346L231 1075H430Q456 1075 473 1069T499 1048T508 1007T498 942L365 346Q351 281
370 250T438 219Q492 219 554 242T690 311L864 1075H1163L918 0H840V0Z" />
<glyph unicode="v" glyph-name="v" horiz-adv-x="1061" d="M127 997V1075H412L498 346H502L868 1075H1114V997L569 0H270L127 997Z" />
<glyph unicode="w" glyph-name="w" horiz-adv-x="1577" d="M133 997V1075H414L455 397H459L776 1075H1006L1071 397H1075L1376 1075H1616V997L1128 0H870L799 670H795L481 0H215L133 997Z" />
<glyph unicode="x" glyph-name="x" horiz-adv-x="1069" d="M-51 78L358 563L174 997V1075H459L588 748L856 1075H1102V997L719 553L932 78V0H647L492 367L195 0H-51V78Z" />
<glyph unicode="y" glyph-name="y" horiz-adv-x="1061" d="M35 -252L283 115L127 997V1075H408L506 434H510L868 1075H1114V997L307 -332H35V-252Z" />
<glyph unicode="z" glyph-name="z" horiz-adv-x="971" d="M-23 207L623 864H160L209 1075H1026L979 866L328 211H813L764 0H-70L-23 207Z" />
<glyph unicode="{" glyph-name="braceleft" horiz-adv-x="752" d="M395 -100Q228 -100 161 -27T125 184L203 518Q215 569 196 600T123 631H66L113 827H160Q222 827 254 856T299 940L373 1255Q388 1318 410 1367T469 1449T559 1500T688 1518H920L872 1321H721Q692
1321 676 1305T651 1257L580 942Q570 900 553 865T508 802T440 754T344 723V717Q392 703 422 681T467 628T482 561T473 479L399 160Q391 129 401 113T444 96H590L545 -100H395V-100Z" />
<glyph unicode="|" glyph-name="bar" horiz-adv-x="512" d="M186 1518H422L420 -100H184L186 1518Z" />
<glyph unicode="}" glyph-name="braceright" horiz-adv-x="752" d="M-33 96H119Q148 96 164 112T188 160L264 496Q274 537 291 572T336 636T404 684T500 715V721Q452 735 422 757T377 810T362 877T371 958L440 1257Q457 1321 395 1321H250L295 1518H444Q612 1518
679 1444T715 1233L641 920Q629 869 648 838T721 807H778L731 610H684Q622 610 590 581T545 498L467 162Q452 99 430 50T370 -32T280 -82T152 -100H-80L-33 96Z" />
<glyph unicode="~" glyph-name="asciitilde" horiz-adv-x="807" d="M49 532Q62 580 84 620T138 689T210 734T299 750Q340 750 376 741T444 722T501 703T545 694Q576 694 594 709T625 756H791V664Q765 565 702 506T541 446Q505 446 469 454T400 473T341 493T295
502Q264 502 246 487T215 440H49V532Z" />
<glyph unicode="&#xa0;" glyph-name="uni00A0" horiz-adv-x="389" />
<glyph unicode="&#xa1;" glyph-name="exclamdown" horiz-adv-x="541" d="M313 29L272 -147H-47L-6 29L262 864H451L313 29ZM420 1298Q455 1298 484 1286T535 1252T568 1201T580 1139Q580 1103 566 1072T526 1018T469 982T401 969Q365 969 336 981T285 1016T252
1067T240 1128Q240 1165 255 1196T295 1250T352 1285T420 1298Z" />
<glyph unicode="&#xa2;" glyph-name="cent" horiz-adv-x="1229" d="M508 -2Q416 15 347 53T232 148T164 278T141 436Q141 573 189 689T320 892T517 1030T762 1090L788 1206H971L942 1083Q1014 1074 1063 1053T1155 1001L1110 809H1001Q984 828 958 843T893 866L739
203Q796 209 835 224T907 262H1018L971 59Q924 30 857 11T688 -14L643 -211H461L508 -2ZM436 442Q436 354 467 298T559 217L709 860Q642 842 591 802T506 707T454 584T436 442Z" />
<glyph unicode="&#xa3;" glyph-name="sterling" horiz-adv-x="1229" d="M213 821H303Q300 880 302 939T319 1057Q342 1156 392 1230T514 1352T678 1425T877 1450Q992 1450 1087 1423T1251 1333L1204 1120H1096Q1054 1160 1001 1185T866 1210Q828 1210 791 1200T721
1167T665 1112T631 1032Q618 981 615 929T610 821H952L905 612H606Q603 577 599 542T586 471Q569 403 535 346T455 250H1067L1010 0H27L74 211Q112 224 147 247T212 301T262 370T295 453Q304 493 307 532T311 612H166L213 821Z" />
<glyph unicode="&#xa5;" glyph-name="yen" horiz-adv-x="1229" d="M190 791H451L266 1343V1434H555L713 885H717L1098 1434H1343V1343L928 791H1194L1153 612H807L782 500H1126L1085 322H741L668 0H352L426 322H82L123 500H467L492 612H150L190 791Z" />
<glyph unicode="&#xa6;" glyph-name="brokenbar" horiz-adv-x="510" d="M184 631H420V-100H184V631ZM184 1518H420V805H184V1518Z" />
<glyph unicode="&#xa7;" glyph-name="section" horiz-adv-x="1073" d="M369 -268Q296 -268 238 -258T133 -232T50 -197T-16 -158L31 43H131Q150 24 175 6T230 -26T297 -48T375 -57Q468 -57 511 -30T555 49Q555 75 544 96T507 138T440 177T338 219Q187 273 116
349T45 543Q45 608 66 659T124 747T213 811T324 852Q283 892 266 944T248 1069Q248 1151 281 1221T376 1342T525 1421T719 1450Q789 1450 842 1442T938 1421T1012 1392T1073 1358L1028 1157H922Q904 1171 884 1184T838 1207T783 1224T715 1231Q627 1231 575 1200T522
1114Q522 1089 529 1069T558 1031T618 995T719 956Q801 929 863 899T967 829T1030 740T1051 623Q1051 577 1037 530T989 440T902 363T770 307Q812 269 833 222T854 111Q854 25 823 -44T731 -164T579 -241T369 -268ZM483 459Q517 445 548 434T608 408Q687 429 726
464T766 557Q766 585 756 606T723 646T669 680T592 711Q563 720 537 729T487 750Q404 737 365 697T326 606Q326 562 361 527T483 459Z" />
<glyph unicode="&#xa8;" glyph-name="dieresis" horiz-adv-x="819" d="M385 1159Q353 1159 327 1170T281 1202T252 1248T242 1305Q242 1338 255 1366T290 1415T341 1448T403 1460Q435 1460 462 1449T508 1417T538 1371T549 1315Q549 1281 536 1253T500 1203T447
1171T385 1159ZM778 1159Q746 1159 720 1170T674 1202T645 1248T635 1305Q635 1338 648 1366T683 1415T735 1448T797 1460Q829 1460 856 1449T902 1417T931 1371T942 1315Q942 1281 929 1253T893 1203T840 1171T778 1159Z" />
<glyph unicode="&#xa9;" glyph-name="copyright" horiz-adv-x="1597" d="M866 315Q770 315 695 342T567 422T487 549T459 719Q459 813 491 888T579 1017T711 1098T877 1126Q970 1126 1027 1109T1122 1073V901H1030Q1007 923 971 940T877 958Q792 958 742 897T692
717Q692 594 740 539T872 483Q907 483 933 488T980 502T1016 521T1042 543H1124V387Q1106 375 1081 363T1024 340T952 322T866 315ZM844 88Q971 88 1081 129T1274 251T1404 449T1452 717Q1452 867 1405 984T1275 1182T1082 1304T844 1346Q717 1346 607 1304T414
1182T284 985T236 717Q236 566 283 449T413 252T606 130T844 88ZM844 -16Q697 -16 564 32T330 173T169 403T109 717Q109 894 169 1031T330 1261T564 1402T844 1450Q991 1450 1124 1402T1358 1261T1519 1031T1579 717Q1579 540 1519 403T1358 173T1124 32T844 -16Z"
/>
<glyph unicode="&#xaa;" glyph-name="ordfeminine" horiz-adv-x="915" d="M770 528Q714 528 678 552T629 629Q581 572 515 545T371 518Q311 518 264 535T185 585T136 662T119 764Q119 843 149 902T235 1000T365 1058T530 1077Q577 1077 621 1072T702 1057L709
1079Q719 1127 715 1159T694 1212T648 1242T580 1251Q517 1251 456 1236T344 1192H262L309 1389Q374 1416 455 1433T635 1450Q733 1450 807 1428T927 1357T987 1234T977 1055L856 528H770ZM477 690Q524 690 562 710T635 756L670 907Q616 924 553 924Q472 924 429
888T385 784Q385 736 409 713T477 690Z" />
<glyph unicode="&#xab;" glyph-name="guillemotleft" horiz-adv-x="1055" d="M61 489L88 606L414 983H655V918L324 520V514L463 147V82H225L61 489ZM494 489L520 606L846 983H1087V918L756 520V514L895 147V82H657L494 489Z" />
<glyph unicode="&#xae;" glyph-name="registered" horiz-adv-x="791" d="M520 717Q446 717 378 741T258 813T175 928T143 1083Q143 1171 174 1239T258 1354T378 1425T520 1450Q593 1450 661 1426T781 1354T865 1239T897 1083Q897 996 866 928T782 813T661 742T520
717ZM520 791Q581 791 634 809T726 864T788 955T811 1083Q811 1156 789 1211T727 1302T634 1357T520 1376Q459 1376 406 1358T314 1303T252 1211T229 1083Q229 1010 251 956T313 865T406 810T520 791ZM520 1032H485V903H369V1282H532Q688 1282 688 1157Q688 1123
673 1098T629 1057L696 940V903H586L520 1032ZM522 1108Q550 1108 560 1121T571 1159Q571 1181 561 1193T522 1206H485V1108H522Z" />
<glyph unicode="&#xaf;" glyph-name="macron" horiz-adv-x="819" d="M346 1397H879L831 1196H299L346 1397Z" />
<glyph unicode="&#xb0;" glyph-name="degree" horiz-adv-x="713" d="M483 1006Q514 1006 542 1017T590 1048T623 1099T635 1167Q635 1228 599 1268T500 1308Q468 1308 441 1297T395 1265T364 1215T352 1147Q352 1085 386 1046T483 1006ZM475 868Q413 868 361 889T271
946T212 1034T190 1145Q190 1215 216 1271T287 1366T389 1425T508 1446Q569 1446 621 1425T712 1368T771 1280T793 1169Q793 1098 767 1042T696 948T594 889T475 868Z" />
<glyph unicode="&#xb2;" glyph-name="two.superior" horiz-adv-x="688" d="M121 823L365 999Q438 1053 488 1101T539 1200Q539 1272 451 1272Q403 1272 366 1257T299 1219H221L260 1389Q309 1417 367 1431T500 1446Q641 1446 710 1386T780 1227Q780 1130 713 1058T516
901L385 817H696L655 645H80L121 823Z" />
<glyph unicode="&#xb3;" glyph-name="three.superior" horiz-adv-x="678" d="M367 633Q283 633 212 655T88 721L121 864H201Q219 842 259 817T358 791Q410 791 444 814T479 881Q479 967 367 967H301L336 1114H424Q479 1114 509 1138T539 1200Q539 1280 436 1280Q393
1280 360 1267T301 1239H223L258 1393Q295 1415 355 1431T483 1448Q604 1448 681 1398T758 1235Q758 1151 708 1103T565 1036V1032Q625 1018 662 977T700 868Q700 813 675 769T605 695T500 649T367 633Z" />
<glyph unicode="&#xb4;" glyph-name="acute" horiz-adv-x="819" d="M471 1214L578 1434H868V1348L633 1151H471V1214Z" />
<glyph unicode="&#xb6;" glyph-name="paragraph" horiz-adv-x="1212" d="M537 621H530Q451 621 383 644T264 710T185 817T156 963Q156 1055 180 1126T248 1249T350 1337T478 1394T624 1425T780 1434H1296L922 -186H709L1036 1225H891L563 -186H350L537 621Z" />
<glyph unicode="&#xb7;" glyph-name="periodcentered" horiz-adv-x="416" d="M215 440Q180 440 151 452T100 487T67 538T55 600Q55 636 69 667T108 721T165 757T233 770Q269 770 299 757T350 722T383 671T395 610Q395 573 380 542T340 489T283 453T215 440Z" />
<glyph unicode="&#xb8;" glyph-name="cedilla" horiz-adv-x="819" d="M231 -358Q197 -358 172 -356T127 -348T92 -335T61 -317L88 -203H147Q155 -215 171 -223T219 -231Q245 -231 264 -223T283 -193Q283 -176 269 -166T217 -156H164L201 0H342L330 -49Q364 -51
389 -61T430 -90T455 -131T463 -182Q463 -233 443 -267T390 -321T316 -350T231 -358Z" />
<glyph unicode="&#xb9;" glyph-name="one.superior" horiz-adv-x="539" d="M354 1198L236 1143H190L231 1319L475 1434H649L467 645H227L354 1198Z" />
<glyph unicode="&#xba;" glyph-name="ordmasculine" horiz-adv-x="1065" d="M590 711Q635 711 678 735T756 805T812 917T834 1069Q834 1111 824 1146T794 1207T743 1247T672 1262Q629 1262 586 1240T507 1171T450 1057T428 897Q428 803 473 757T590 711ZM580 516Q484
516 405 544T270 623T183 746T152 905Q152 1032 196 1133T313 1304T481 1412T678 1450Q767 1450 845 1425T983 1350T1076 1228T1110 1061Q1110 976 1090 903T1033 769T946 661T837 582T713 533T580 516Z" />
<glyph unicode="&#xbb;" glyph-name="guillemotright" horiz-adv-x="1055" d="M-27 147L305 545V551L166 918V983H403L567 575L541 459L215 82H-27V147ZM406 147L737 545V551L598 918V983H836L999 575L973 459L647 82H406V147Z" />
<glyph unicode="&#xbc;" glyph-name="onequarter" horiz-adv-x="1487" d="M352 1198L233 1143H188L229 1319L473 1434H647L465 645H225L352 1198ZM1303 1493H1526L238 -70H14L1303 1493ZM1063 162H705L745 336L1208 788H1425L1315 311H1397L1362 162H1280L1243
0H1026L1063 162ZM1100 311L1157 555H1151L905 315V311H1100Z" />
<glyph unicode="&#xbd;" glyph-name="onehalf" horiz-adv-x="1583" d="M352 1198L233 1143H188L229 1319L473 1434H647L465 645H225L352 1198ZM1303 1493H1526L238 -70H14L1303 1493ZM866 178L1110 354Q1147 380 1178 405T1233 455T1270 504T1284 555Q1284 589
1263 608T1196 627Q1150 627 1111 611T1044 573H967L1006 743Q1055 771 1113 786T1245 801Q1315 801 1367 785T1455 741T1508 672T1526 582Q1526 534 1509 493T1457 413T1372 336T1257 256L1126 172H1442L1401 0H825L866 178Z" />
<glyph unicode="&#xbe;" glyph-name="threequarters" horiz-adv-x="1581" d="M377 633Q293 633 222 655T98 721L131 864H211Q220 853 234 841T268 817T312 799T367 791Q418 791 449 814T481 881Q481 923 456 945T373 967H311L346 1114H430Q486 1114 513 1138T541
1200Q541 1242 519 1261T446 1280Q403 1280 370 1267T311 1239H233L268 1393Q305 1414 365 1431T494 1448Q554 1448 604 1436T690 1397T747 1331T768 1235Q768 1151 717 1103T575 1036V1032Q634 1018 672 977T711 868Q711 812 686 769T615 695T509 649T377 633ZM1409
1493H1632L344 -70H121L1409 1493ZM1157 162H799L840 336L1303 788H1520L1409 311H1491L1456 162H1374L1337 0H1120L1157 162ZM1194 311L1251 555H1245L999 315V311H1194Z" />
<glyph unicode="&#xbf;" glyph-name="questiondown" horiz-adv-x="920" d="M756 864Q750 800 740 749T706 651T642 560T537 467Q501 440 460 412T385 351T328 279T305 190Q305 158 316 135T348 97T396 75T457 68Q525 68 580 88T680 139H797L745 -84Q682 -121 597
-143T403 -166Q323 -166 249 -149T117 -93T25 10T-10 170Q-10 234 12 292T73 401T165 496T283 578Q338 610 382 639T459 700T513 772T543 864H756ZM705 1298Q740 1298 769 1286T820 1252T852 1201T864 1139Q864 1103 850 1072T811 1018T754 982T686 969Q650 969
620 981T569 1016T536 1067T524 1128Q524 1165 539 1196T579 1250T636 1285T705 1298Z" />
<glyph unicode="&#xc0;" glyph-name="Agrave" horiz-adv-x="1362" d="M-70 84L692 1434H1034L1212 84V0H899L858 379H381L182 0H-70V84ZM496 598H834L778 1126H774L496 598ZM786 1479L614 1655V1741H897L966 1542V1479H786Z" />
<glyph unicode="&#xc1;" glyph-name="Aacute" horiz-adv-x="1362" d="M-70 84L692 1434H1034L1212 84V0H899L858 379H381L182 0H-70V84ZM496 598H834L778 1126H774L496 598ZM766 1542L862 1741H1153V1655L928 1479H766V1542Z" />
<glyph unicode="&#xc2;" glyph-name="Acircumflex" horiz-adv-x="1362" d="M-70 84L692 1434H1034L1212 84V0H899L858 379H381L182 0H-70V84ZM496 598H834L778 1126H774L496 598ZM569 1554L784 1749H989L1139 1554V1479H971L864 1565L721 1479H569V1554Z" />
<glyph unicode="&#xc3;" glyph-name="Atilde" horiz-adv-x="1362" d="M-70 84L692 1434H1034L1212 84V0H899L858 379H381L182 0H-70V84ZM496 598H834L778 1126H774L496 598ZM987 1481Q951 1481 921 1490T864 1509T815 1529T774 1538Q745 1538 728 1523T700 1479H547V1557Q579
1653 634 1701T772 1749Q808 1749 839 1741T896 1723T945 1705T987 1696Q1015 1696 1030 1710T1059 1751H1212V1674Q1147 1481 987 1481Z" />
<glyph unicode="&#xc4;" glyph-name="Adieresis" horiz-adv-x="1362" d="M-70 84L692 1434H1034L1212 84V0H899L858 379H381L182 0H-70V84ZM496 598H834L778 1126H774L496 598ZM676 1478Q644 1478 618 1489T572 1521T543 1567T533 1624Q533 1657 546 1685T581
1734T632 1767T694 1779Q726 1779 753 1768T799 1736T829 1690T840 1634Q840 1600 827 1572T791 1522T738 1490T676 1478ZM1069 1478Q1037 1478 1011 1489T965 1521T936 1567T926 1624Q926 1657 939 1685T974 1734T1026 1767T1088 1779Q1120 1779 1147 1768T1193
1736T1222 1690T1233 1634Q1233 1600 1220 1572T1184 1522T1131 1490T1069 1478Z" />
<glyph unicode="&#xc5;" glyph-name="Aring" horiz-adv-x="1362" d="M-70 84L692 1434H1034L1212 84V0H899L858 379H381L182 0H-70V84ZM496 598H834L778 1126H774L496 598ZM873 1610Q908 1610 931 1634T955 1696Q955 1730 935 1749T883 1768Q848 1768 827 1744T805
1678Q805 1647 823 1629T873 1610ZM871 1483Q828 1483 790 1496T724 1534T680 1595T664 1676Q664 1726 682 1766T732 1835T803 1879T887 1895Q930 1895 968 1882T1034 1843T1078 1781T1094 1698Q1094 1648 1076 1608T1027 1541T956 1498T871 1483Z" />
<glyph unicode="&#xc6;" glyph-name="AE" horiz-adv-x="1909" d="M-88 84L870 1434H2007L1954 1202H1360L1276 838H1714L1663 618H1225L1135 225H1776L1724 0H764L852 383H426L164 0H-88V84ZM578 602H901L1040 1202H991L578 602Z" />
<glyph unicode="&#xc7;" glyph-name="Ccedilla" horiz-adv-x="1264" d="M715 -16Q698 -16 681 -15T647 -14L639 -49Q673 -51 698 -61T739 -90T764 -131T772 -182Q772 -233 752 -267T700 -321T626 -350T541 -358Q507 -358 482 -356T437 -348T402 -335T371 -317L397
-203H457Q465 -215 481 -223T528 -231Q554 -231 573 -223T592 -193Q592 -176 578 -166T526 -156H473L510 4Q415 26 338 71T206 186T122 348T92 561Q92 672 116 781T187 988T304 1171T465 1318T669 1415T913 1450Q1041 1450 1138 1425T1311 1348L1262 1135H1149Q1104
1175 1044 1197T899 1219Q810 1219 740 1189T617 1107T525 988T464 847T429 698T418 557Q418 465 439 399T501 291T599 229T731 209Q818 209 887 234T1016 301H1137L1083 70Q1052 52 1015 37T932 10T833 -9T715 -16Z" />
<glyph unicode="&#xc8;" glyph-name="Egrave" horiz-adv-x="1153" d="M338 1434H1251L1198 1202H604L520 838H958L907 618H469L379 225H1020L969 0H327H8L338 1434ZM721 1479L549 1655V1741H832L901 1542V1479H721Z" />
<glyph unicode="&#xc9;" glyph-name="Eacute" horiz-adv-x="1153" d="M338 1434H1251L1198 1202H604L520 838H958L907 618H469L379 225H1020L969 0H327H8L338 1434ZM701 1542L797 1741H1088V1655L863 1479H701V1542Z" />
<glyph unicode="&#xca;" glyph-name="Ecircumflex" horiz-adv-x="1153" d="M338 1434H1251L1198 1202H604L520 838H958L907 618H469L379 225H1020L969 0H327H8L338 1434ZM504 1554L719 1749H924L1074 1554V1479H906L799 1565L656 1479H504V1554Z" />
<glyph unicode="&#xcb;" glyph-name="Edieresis" horiz-adv-x="1153" d="M338 1434H1251L1198 1202H604L520 838H958L907 618H469L379 225H1020L969 0H327H8L338 1434ZM629 1478Q597 1478 571 1489T525 1521T496 1567T486 1624Q486 1657 499 1685T534 1734T585
1767T647 1779Q679 1779 706 1768T752 1736T782 1690T793 1634Q793 1600 780 1572T744 1522T691 1490T629 1478ZM1022 1478Q990 1478 964 1489T918 1521T889 1567T879 1624Q879 1657 892 1685T927 1734T979 1767T1041 1779Q1073 1779 1100 1768T1146 1736T1175
1690T1186 1634Q1186 1600 1173 1572T1137 1522T1084 1490T1022 1478Z" />
<glyph unicode="&#xcc;" glyph-name="Igrave" horiz-adv-x="588" d="M344 1434H666L336 0H14L344 1434ZM693 1479L521 1655V1741H804L873 1542V1479H693Z" />
<glyph unicode="&#xcd;" glyph-name="Iacute" horiz-adv-x="588" d="M344 1434H666L336 0H14L344 1434ZM417 1542L513 1741H804V1655L579 1479H417V1542Z" />
<glyph unicode="&#xce;" glyph-name="Icircumflex" horiz-adv-x="588" d="M344 1434H666L336 0H14L344 1434ZM220 1554L435 1749H640L790 1554V1479H622L515 1565L372 1479H220V1554Z" />
<glyph unicode="&#xcf;" glyph-name="Idieresis" horiz-adv-x="588" d="M344 1434H666L336 0H14L344 1434ZM329 1478Q297 1478 271 1489T225 1521T196 1567T186 1624Q186 1657 199 1685T234 1734T285 1767T347 1779Q379 1779 406 1768T452 1736T482 1690T493 1634Q493
1600 480 1572T444 1522T391 1490T329 1478ZM722 1478Q690 1478 664 1489T618 1521T589 1567T579 1624Q579 1657 592 1685T627 1734T679 1767T741 1779Q773 1779 800 1768T846 1736T875 1690T886 1634Q886 1600 873 1572T837 1522T784 1490T722 1478Z" />
<glyph unicode="&#xd0;" glyph-name="Eth" horiz-adv-x="1421" d="M72 823H197L338 1434H778Q924 1434 1039 1396T1234 1283T1356 1099T1399 848Q1399 742 1377 638T1311 439T1199 265T1043 125T843 33T598 0H323H8L147 604H23L72 823ZM588 225Q682 225 754 253T880
329T970 440T1029 572T1061 712T1071 848Q1071 921 1057 986T1008 1099T916 1176T772 1204H604L516 823H821L772 604H465L379 225H588Z" />
<glyph unicode="&#xd1;" glyph-name="Ntilde" horiz-adv-x="1405" d="M338 1434H700L1001 516H1008L1221 1434H1489L1159 0H868L520 1042H514L274 0H8L338 1434ZM1088 1481Q1052 1481 1022 1490T965 1509T916 1529T875 1538Q846 1538 829 1523T801 1479H648V1557Q680
1653 735 1701T873 1749Q909 1749 940 1741T997 1723T1046 1705T1088 1696Q1116 1696 1131 1710T1160 1751H1313V1674Q1248 1481 1088 1481Z" />
<glyph unicode="&#xd2;" glyph-name="Ograve" horiz-adv-x="1495" d="M717 205Q793 205 855 234T965 313T1048 428T1106 565T1140 710T1151 850Q1151 921 1137 989T1089 1110T997 1196T854 1229Q777 1229 715 1199T604 1118T520 1001T463 863T429 718T418 582Q418
503 434 434T486 314T579 234T717 205ZM707 -16Q565 -16 451 28T258 151T135 343T92 590Q92 701 116 808T186 1011T299 1187T451 1326T639 1417T860 1450Q1001 1450 1115 1406T1310 1281T1433 1090T1477 844Q1477 738 1454 633T1387 432T1277 254T1126 112T935
18T707 -16ZM817 1479L645 1655V1741H928L997 1542V1479H817Z" />
<glyph unicode="&#xd3;" glyph-name="Oacute" horiz-adv-x="1495" d="M717 205Q793 205 855 234T965 313T1048 428T1106 565T1140 710T1151 850Q1151 921 1137 989T1089 1110T997 1196T854 1229Q777 1229 715 1199T604 1118T520 1001T463 863T429 718T418 582Q418
503 434 434T486 314T579 234T717 205ZM707 -16Q565 -16 451 28T258 151T135 343T92 590Q92 701 116 808T186 1011T299 1187T451 1326T639 1417T860 1450Q1001 1450 1115 1406T1310 1281T1433 1090T1477 844Q1477 738 1454 633T1387 432T1277 254T1126 112T935
18T707 -16ZM797 1542L893 1741H1184V1655L959 1479H797V1542Z" />
<glyph unicode="&#xd4;" glyph-name="Ocircumflex" horiz-adv-x="1495" d="M717 205Q793 205 855 234T965 313T1048 428T1106 565T1140 710T1151 850Q1151 921 1137 989T1089 1110T997 1196T854 1229Q777 1229 715 1199T604 1118T520 1001T463 863T429 718T418
582Q418 503 434 434T486 314T579 234T717 205ZM707 -16Q565 -16 451 28T258 151T135 343T92 590Q92 701 116 808T186 1011T299 1187T451 1326T639 1417T860 1450Q1001 1450 1115 1406T1310 1281T1433 1090T1477 844Q1477 738 1454 633T1387 432T1277 254T1126
112T935 18T707 -16ZM600 1554L815 1749H1020L1170 1554V1479H1002L895 1565L752 1479H600V1554Z" />
<glyph unicode="&#xd5;" glyph-name="Otilde" horiz-adv-x="1495" d="M717 205Q793 205 855 234T965 313T1048 428T1106 565T1140 710T1151 850Q1151 921 1137 989T1089 1110T997 1196T854 1229Q777 1229 715 1199T604 1118T520 1001T463 863T429 718T418 582Q418
503 434 434T486 314T579 234T717 205ZM707 -16Q565 -16 451 28T258 151T135 343T92 590Q92 701 116 808T186 1011T299 1187T451 1326T639 1417T860 1450Q1001 1450 1115 1406T1310 1281T1433 1090T1477 844Q1477 738 1454 633T1387 432T1277 254T1126 112T935
18T707 -16ZM1020 1481Q984 1481 954 1490T897 1509T848 1529T807 1538Q778 1538 761 1523T733 1479H580V1557Q612 1653 667 1701T805 1749Q841 1749 872 1741T929 1723T978 1705T1020 1696Q1048 1696 1063 1710T1092 1751H1245V1674Q1180 1481 1020 1481Z" />
<glyph unicode="&#xd6;" glyph-name="Odieresis" horiz-adv-x="1495" d="M717 205Q793 205 855 234T965 313T1048 428T1106 565T1140 710T1151 850Q1151 921 1137 989T1089 1110T997 1196T854 1229Q777 1229 715 1199T604 1118T520 1001T463 863T429 718T418 582Q418
503 434 434T486 314T579 234T717 205ZM707 -16Q565 -16 451 28T258 151T135 343T92 590Q92 701 116 808T186 1011T299 1187T451 1326T639 1417T860 1450Q1001 1450 1115 1406T1310 1281T1433 1090T1477 844Q1477 738 1454 633T1387 432T1277 254T1126 112T935
18T707 -16ZM718 1478Q686 1478 660 1489T614 1521T585 1567T575 1624Q575 1657 588 1685T623 1734T674 1767T736 1779Q768 1779 795 1768T841 1736T871 1690T882 1634Q882 1600 869 1572T833 1522T780 1490T718 1478ZM1111 1478Q1079 1478 1053 1489T1007 1521T978
1567T968 1624Q968 1657 981 1685T1016 1734T1068 1767T1130 1779Q1162 1779 1189 1768T1235 1736T1264 1690T1275 1634Q1275 1600 1262 1572T1226 1522T1173 1490T1111 1478Z" />
<glyph unicode="&#xd7;" glyph-name="multiply" horiz-adv-x="1229" d="M147 397L502 700L266 1004L449 1151L678 852L1028 1151L1157 991L805 688L1038 385L860 238L629 537L281 238L147 397Z" />
<glyph unicode="&#xd8;" glyph-name="Oslash" horiz-adv-x="1495" d="M707 -16Q600 -16 510 10T348 84L238 -39H39V16L213 209Q154 287 123 383T92 590Q92 701 116 808T186 1011T299 1187T451 1326T639 1417T860 1450Q969 1450 1060 1422T1227 1343L1329 1456H1528V1401L1362
1214Q1418 1139 1447 1045T1477 844Q1477 738 1455 633T1388 432T1278 254T1127 112T936 18T707 -16ZM412 582Q412 544 414 510T422 444L1059 1155Q1025 1189 974 1209T854 1229Q777 1229 714 1199T602 1118T517 1001T458 863T424 718T412 582ZM721 203Q798 203
860 232T970 312T1054 427T1112 565T1146 710T1157 850Q1157 882 1155 913T1147 975L512 266Q547 235 598 219T721 203Z" />
<glyph unicode="&#xd9;" glyph-name="Ugrave" horiz-adv-x="1364" d="M635 -16Q492 -16 383 24T207 140T118 327T129 580L326 1434H645L438 541Q423 475 425 417T452 314T528 245T662 219Q727 219 778 236T867 289T933 381T979 518L1190 1434H1456L1241 500Q1214
385 1168 290T1049 127T874 22T635 -16ZM842 1479L670 1655V1741H953L1022 1542V1479H842Z" />
<glyph unicode="&#xda;" glyph-name="Uacute" horiz-adv-x="1364" d="M635 -16Q492 -16 383 24T207 140T118 327T129 580L326 1434H645L438 541Q423 475 425 417T452 314T528 245T662 219Q727 219 778 236T867 289T933 381T979 518L1190 1434H1456L1241 500Q1214
385 1168 290T1049 127T874 22T635 -16ZM821 1542L917 1741H1208V1655L983 1479H821V1542Z" />
<glyph unicode="&#xdb;" glyph-name="Ucircumflex" horiz-adv-x="1364" d="M635 -16Q492 -16 383 24T207 140T118 327T129 580L326 1434H645L438 541Q423 475 425 417T452 314T528 245T662 219Q727 219 778 236T867 289T933 381T979 518L1190 1434H1456L1241 500Q1214
385 1168 290T1049 127T874 22T635 -16ZM624 1554L839 1749H1044L1194 1554V1479H1026L919 1565L776 1479H624V1554Z" />
<glyph unicode="&#xdc;" glyph-name="Udieresis" horiz-adv-x="1364" d="M635 -16Q492 -16 383 24T207 140T118 327T129 580L326 1434H645L438 541Q423 475 425 417T452 314T528 245T662 219Q727 219 778 236T867 289T933 381T979 518L1190 1434H1456L1241 500Q1214
385 1168 290T1049 127T874 22T635 -16ZM730 1478Q698 1478 672 1489T626 1521T597 1567T587 1624Q587 1657 600 1685T635 1734T686 1767T748 1779Q780 1779 807 1768T853 1736T883 1690T894 1634Q894 1600 881 1572T845 1522T792 1490T730 1478ZM1123 1478Q1091
1478 1065 1489T1019 1521T990 1567T980 1624Q980 1657 993 1685T1028 1734T1080 1767T1142 1779Q1174 1779 1201 1768T1247 1736T1276 1690T1287 1634Q1287 1600 1274 1572T1238 1522T1185 1490T1123 1478Z" />
<glyph unicode="&#xdd;" glyph-name="Yacute" horiz-adv-x="1212" d="M473 575L219 1343V1434H516L696 840H700L1130 1434H1374V1343L784 545L659 0H340L473 575ZM735 1542L831 1741H1122V1655L897 1479H735V1542Z" />
<glyph unicode="&#xde;" glyph-name="Thorn" horiz-adv-x="1210" d="M338 1434H657L596 1169H705Q953 1169 1078 1067T1204 778Q1204 656 1160 564T1034 409T834 315T567 283H391L328 0H8L338 1434ZM584 498Q734 498 815 566T897 788Q897 824 886 852T850 900T784
930T682 940H543L440 498H584Z" />
<glyph unicode="&#xdf;" glyph-name="germandbls" horiz-adv-x="1231" d="M745 -12Q642 -12 570 11T446 70L492 270H582Q594 253 613 241T654 221T702 209T752 205Q787 205 812 212T852 231T875 257T883 285Q883 306 875 321T850 350T810 378T754 410Q706 437
671 463T612 518T578 581T567 655Q567 701 582 741T624 817T686 886T762 954Q801 987 830 1012T877 1058T905 1100T915 1143Q915 1184 878 1214T768 1245Q708 1245 667 1228T598 1183T555 1118T530 1044L291 0H-8L233 1055Q251 1138 291 1210T399 1337T563 1422T788
1454Q876 1454 952 1434T1084 1376T1172 1283T1204 1159Q1204 1111 1193 1074T1157 1003T1097 940T1012 877Q978 854 946 833T889 790T849 750T834 713Q834 699 840 688T859 664T895 638T952 604Q1005 572 1044 541T1108 474T1145 400T1157 313Q1157 238 1129 178T1048
76T919 11T745 -12Z" />
<glyph unicode="&#xe0;" glyph-name="agrave" horiz-adv-x="1042" d="M719 0Q669 0 629 24T571 102Q522 51 454 20T297 -12Q233 -12 180 6T88 61T28 151T6 276Q6 364 39 433T133 549T280 622T473 647Q542 647 584 641T659 623L668 662Q692 768 659 822T526 877Q445
877 382 860T262 811H176L225 1024Q260 1039 297 1051T378 1073T470 1087T578 1092Q691 1092 775 1065T909 982T974 839T961 631L815 0H719ZM406 174Q460 174 499 196T575 254L621 459Q596 465 565 470T492 475Q390 475 339 425T287 297Q287 238 317 206T406 174ZM360
1348V1434H643L721 1214V1151H540L360 1348Z" />
<glyph unicode="&#xe1;" glyph-name="aacute" horiz-adv-x="1042" d="M719 0Q669 0 629 24T571 102Q522 51 454 20T297 -12Q233 -12 180 6T88 61T28 151T6 276Q6 364 39 433T133 549T280 622T473 647Q542 647 584 641T659 623L668 662Q692 768 659 822T526 877Q445
877 382 860T262 811H176L225 1024Q260 1039 297 1051T378 1073T470 1087T578 1092Q691 1092 775 1065T909 982T974 839T961 631L815 0H719ZM406 174Q460 174 499 196T575 254L621 459Q596 465 565 470T492 475Q390 475 339 425T287 297Q287 238 317 206T406 174ZM530
1214L637 1434H927V1348L692 1151H530V1214Z" />
<glyph unicode="&#xe2;" glyph-name="acircumflex" horiz-adv-x="1042" d="M719 0Q669 0 629 24T571 102Q522 51 454 20T297 -12Q233 -12 180 6T88 61T28 151T6 276Q6 364 39 433T133 549T280 622T473 647Q542 647 584 641T659 623L668 662Q692 768 659 822T526
877Q445 877 382 860T262 811H176L225 1024Q260 1039 297 1051T378 1073T470 1087T578 1092Q691 1092 775 1065T909 982T974 839T961 631L815 0H719ZM406 174Q460 174 499 196T575 254L621 459Q596 465 565 470T492 475Q390 475 339 425T287 297Q287 238 317 206T406
174ZM338 1227L555 1434H760L907 1227V1151H739L635 1247L489 1151H338V1227Z" />
<glyph unicode="&#xe3;" glyph-name="atilde" horiz-adv-x="1042" d="M719 0Q669 0 629 24T571 102Q522 51 454 20T297 -12Q233 -12 180 6T88 61T28 151T6 276Q6 364 39 433T133 549T280 622T473 647Q542 647 584 641T659 623L668 662Q692 768 659 822T526 877Q445
877 382 860T262 811H176L225 1024Q260 1039 297 1051T378 1073T470 1087T578 1092Q691 1092 775 1065T909 982T974 839T961 631L815 0H719ZM406 174Q460 174 499 196T575 254L621 459Q596 465 565 470T492 475Q390 475 339 425T287 297Q287 238 317 206T406 174ZM760
1157Q724 1157 694 1166T637 1185T588 1205T547 1214Q518 1214 501 1199T473 1155H320V1233Q352 1329 407 1377T545 1425Q581 1425 612 1417T669 1399T718 1381T760 1372Q788 1372 803 1386T832 1427H985V1350Q920 1157 760 1157Z" />
<glyph unicode="&#xe4;" glyph-name="adieresis" horiz-adv-x="1042" d="M719 0Q669 0 629 24T571 102Q522 51 454 20T297 -12Q233 -12 180 6T88 61T28 151T6 276Q6 364 39 433T133 549T280 622T473 647Q542 647 584 641T659 623L668 662Q692 768 659 822T526
877Q445 877 382 860T262 811H176L225 1024Q260 1039 297 1051T378 1073T470 1087T578 1092Q691 1092 775 1065T909 982T974 839T961 631L815 0H719ZM406 174Q460 174 499 196T575 254L621 459Q596 465 565 470T492 475Q390 475 339 425T287 297Q287 238 317 206T406
174ZM444 1159Q412 1159 386 1170T340 1202T311 1248T301 1305Q301 1338 314 1366T349 1415T400 1448T462 1460Q494 1460 521 1449T567 1417T597 1371T608 1315Q608 1281 595 1253T559 1203T506 1171T444 1159ZM837 1159Q805 1159 779 1170T733 1202T704 1248T694
1305Q694 1338 707 1366T742 1415T794 1448T856 1460Q888 1460 915 1449T961 1417T990 1371T1001 1315Q1001 1281 988 1253T952 1203T899 1171T837 1159Z" />
<glyph unicode="&#xe5;" glyph-name="aring" horiz-adv-x="1042" d="M719 0Q669 0 629 24T571 102Q522 51 454 20T297 -12Q233 -12 180 6T88 61T28 151T6 276Q6 364 39 433T133 549T280 622T473 647Q542 647 584 641T659 623L668 662Q692 768 659 822T526 877Q445
877 382 860T262 811H176L225 1024Q260 1039 297 1051T378 1073T470 1087T578 1092Q691 1092 775 1065T909 982T974 839T961 631L815 0H719ZM406 174Q460 174 499 196T575 254L621 459Q596 465 565 470T492 475Q390 475 339 425T287 297Q287 238 317 206T406 174ZM653
1286Q688 1286 711 1310T735 1372Q735 1406 715 1425T663 1444Q628 1444 607 1420T585 1354Q585 1323 603 1305T653 1286ZM651 1159Q608 1159 570 1172T504 1210T460 1271T444 1352Q444 1402 462 1442T512 1511T583 1555T667 1571Q710 1571 748 1558T814 1519T858
1457T874 1374Q874 1324 856 1284T807 1217T736 1174T651 1159Z" />
<glyph unicode="&#xe6;" glyph-name="ae" horiz-adv-x="1638" d="M324 -12Q250 -12 191 6T91 61T28 151T6 276Q6 364 39 433T133 551T280 625T473 651H666L668 662Q692 768 659 822T526 877Q445 877 382 860T262 811H176L225 1024Q260 1039 297 1051T378 1073T470
1087T578 1092Q690 1092 766 1062T883 969Q952 1026 1038 1059T1223 1092Q1319 1092 1389 1065T1504 986T1572 864T1593 705Q1593 651 1585 592T1559 471H924V430Q924 365 937 321T975 248T1040 208T1130 195Q1206 195 1271 214T1395 270H1491L1446 70Q1417 55
1381 40T1301 13T1207 -6T1098 -14Q960 -14 861 30T705 158Q675 122 638 91T554 37T450 1T324 -12ZM633 426Q633 437 632 448T633 471H492Q389 471 338 423T287 297Q287 238 317 206T406 174Q442 174 476 183T541 210T598 251T645 301Q633 359 633 426ZM1200 901Q1106
901 1043 833T948 651H1327Q1332 673 1333 693T1335 731Q1335 818 1299 859T1200 901Z" />
<glyph unicode="&#xe7;" glyph-name="ccedilla" horiz-adv-x="991" d="M508 -14L500 -49Q534 -51 559 -61T600 -90T625 -131T633 -182Q633 -233 613 -267T560 -321T486 -350T401 -358Q367 -358 342 -356T297 -348T262 -335T231 -317L258 -203H317Q325 -215 341
-223T389 -231Q415 -231 434 -223T453 -193Q453 -176 439 -166T387 -156H334L371 4Q291 23 232 61T133 153T75 277T55 428Q55 575 105 697T242 907T447 1043T702 1092Q809 1092 885 1069T1018 1001L973 809H864Q841 837 799 855T694 874Q616 874 553 840T444 746T375
605T350 430Q350 312 403 256T561 199Q632 199 680 216T770 262H881L834 59Q783 27 711 7T539 -14H508Z" />
<glyph unicode="&#xe8;" glyph-name="egrave" horiz-adv-x="1055" d="M514 -14Q291 -14 170 97T49 426Q49 513 66 596T118 753T201 889T314 997T455 1067T623 1092Q720 1092 793 1065T914 986T987 864T1010 705Q1010 651 1001 592T975 471H340V430Q340 365 353
321T393 248T457 208T547 195Q622 195 687 214T811 270H907L860 63Q801 31 717 9T514 -14ZM604 901Q559 901 522 884T454 833T402 754T365 651H743Q748 673 750 693T752 731Q752 818 712 859T604 901ZM373 1348V1434H656L734 1214V1151H553L373 1348Z" />
<glyph unicode="&#xe9;" glyph-name="eacute" horiz-adv-x="1055" d="M514 -14Q291 -14 170 97T49 426Q49 513 66 596T118 753T201 889T314 997T455 1067T623 1092Q720 1092 793 1065T914 986T987 864T1010 705Q1010 651 1001 592T975 471H340V430Q340 365 353
321T393 248T457 208T547 195Q622 195 687 214T811 270H907L860 63Q801 31 717 9T514 -14ZM604 901Q559 901 522 884T454 833T402 754T365 651H743Q748 673 750 693T752 731Q752 818 712 859T604 901ZM543 1214L650 1434H940V1348L705 1151H543V1214Z" />
<glyph unicode="&#xea;" glyph-name="ecircumflex" horiz-adv-x="1055" d="M514 -14Q291 -14 170 97T49 426Q49 513 66 596T118 753T201 889T314 997T455 1067T623 1092Q720 1092 793 1065T914 986T987 864T1010 705Q1010 651 1001 592T975 471H340V430Q340 365
353 321T393 248T457 208T547 195Q622 195 687 214T811 270H907L860 63Q801 31 717 9T514 -14ZM604 901Q559 901 522 884T454 833T402 754T365 651H743Q748 673 750 693T752 731Q752 818 712 859T604 901ZM357 1227L574 1434H779L926 1227V1151H758L654 1247L508
1151H357V1227Z" />
<glyph unicode="&#xeb;" glyph-name="edieresis" horiz-adv-x="1055" d="M514 -14Q291 -14 170 97T49 426Q49 513 66 596T118 753T201 889T314 997T455 1067T623 1092Q720 1092 793 1065T914 986T987 864T1010 705Q1010 651 1001 592T975 471H340V430Q340 365
353 321T393 248T457 208T547 195Q622 195 687 214T811 270H907L860 63Q801 31 717 9T514 -14ZM604 901Q559 901 522 884T454 833T402 754T365 651H743Q748 673 750 693T752 731Q752 818 712 859T604 901ZM457 1159Q425 1159 399 1170T353 1202T324 1248T314 1305Q314
1338 327 1366T362 1415T413 1448T475 1460Q507 1460 534 1449T580 1417T610 1371T621 1315Q621 1281 608 1253T572 1203T519 1171T457 1159ZM850 1159Q818 1159 792 1170T746 1202T717 1248T707 1305Q707 1338 720 1366T755 1415T807 1448T869 1460Q901 1460 928
1449T974 1417T1003 1371T1014 1315Q1014 1281 1001 1253T965 1203T912 1171T850 1159Z" />
<glyph unicode="&#xec;" glyph-name="igrave" horiz-adv-x="532" d="M240 1075H403Q439 1075 463 1069T498 1042T509 982T494 879L293 0H-6L240 1075ZM126 1348V1434H409L487 1214V1151H306L126 1348Z" />
<glyph unicode="&#xed;" glyph-name="iacute" horiz-adv-x="532" d="M240 1075H403Q439 1075 463 1069T498 1042T509 982T494 879L293 0H-6L240 1075ZM296 1214L403 1434H693V1348L458 1151H296V1214Z" />
<glyph unicode="&#xee;" glyph-name="icircumflex" horiz-adv-x="532" d="M240 1075H403Q439 1075 463 1069T498 1042T509 982T494 879L293 0H-6L240 1075ZM104 1227L321 1434H526L673 1227V1151H505L401 1247L255 1151H104V1227Z" />
<glyph unicode="&#xef;" glyph-name="idieresis" horiz-adv-x="532" d="M240 1075H403Q439 1075 463 1069T498 1042T509 982T494 879L293 0H-6L240 1075ZM210 1159Q178 1159 152 1170T106 1202T77 1248T67 1305Q67 1338 80 1366T115 1415T166 1448T228 1460Q260
1460 287 1449T333 1417T363 1371T374 1315Q374 1281 361 1253T325 1203T272 1171T210 1159ZM603 1159Q571 1159 545 1170T499 1202T470 1248T460 1305Q460 1338 473 1366T508 1415T560 1448T622 1460Q654 1460 681 1449T727 1417T756 1371T767 1315Q767 1281 754
1253T718 1203T665 1171T603 1159Z" />
<glyph unicode="&#xf0;" glyph-name="eth" horiz-adv-x="1167" d="M408 1133L500 1210Q477 1220 453 1228T403 1243L449 1434H549Q589 1423 626 1409T698 1378L760 1432H936V1382L836 1296Q969 1194 1040 1043T1112 696Q1112 519 1068 387T946 166T761 33T526
-12Q412 -12 325 20T177 112T86 254T55 438Q55 573 98 683T211 872T369 993T547 1036Q630 1036 683 1013T772 946Q752 999 718 1044T637 1126L586 1083H408V1133ZM537 195Q607 195 660 232T747 329T799 464T817 614Q817 724 765 779T623 834Q554 834 502 800T416
709T365 578T348 422Q348 316 394 256T537 195Z" />
<glyph unicode="&#xf1;" glyph-name="ntilde" horiz-adv-x="1171" d="M238 1075H336Q378 1075 407 1065T454 1037T481 993T492 936Q533 969 576 997T669 1047T772 1080T891 1092Q954 1092 1003 1067T1083 995T1122 881T1112 729L944 0H745Q719 0 702 6T677 27T668
68T678 133L811 729Q825 794 806 824T737 854Q680 854 613 831T463 756L291 0H-8L238 1075ZM836 1157Q800 1157 770 1166T713 1185T664 1205T623 1214Q594 1214 577 1199T549 1155H396V1233Q428 1329 483 1377T621 1425Q657 1425 688 1417T745 1399T794 1381T836
1372Q864 1372 879 1386T908 1427H1061V1350Q996 1157 836 1157Z" />
<glyph unicode="&#xf2;" glyph-name="ograve" horiz-adv-x="1165" d="M537 195Q605 195 657 232T745 330T799 471T817 637Q817 701 804 747T766 822T708 865T633 879Q567 879 514 841T425 740T368 597T348 432Q348 367 361 322T399 249T459 208T537 195ZM526 -12Q414
-12 327 19T179 109T87 251T55 438Q55 587 102 708T230 914T417 1046T641 1092Q753 1092 840 1059T988 965T1079 819T1110 631Q1110 482 1065 363T942 160T757 33T526 -12ZM410 1348V1434H693L771 1214V1151H590L410 1348Z" />
<glyph unicode="&#xf3;" glyph-name="oacute" horiz-adv-x="1165" d="M537 195Q605 195 657 232T745 330T799 471T817 637Q817 701 804 747T766 822T708 865T633 879Q567 879 514 841T425 740T368 597T348 432Q348 367 361 322T399 249T459 208T537 195ZM526 -12Q414
-12 327 19T179 109T87 251T55 438Q55 587 102 708T230 914T417 1046T641 1092Q753 1092 840 1059T988 965T1079 819T1110 631Q1110 482 1065 363T942 160T757 33T526 -12ZM580 1214L687 1434H977V1348L742 1151H580V1214Z" />
<glyph unicode="&#xf4;" glyph-name="ocircumflex" horiz-adv-x="1165" d="M537 195Q605 195 657 232T745 330T799 471T817 637Q817 701 804 747T766 822T708 865T633 879Q567 879 514 841T425 740T368 597T348 432Q348 367 361 322T399 249T459 208T537 195ZM526
-12Q414 -12 327 19T179 109T87 251T55 438Q55 587 102 708T230 914T417 1046T641 1092Q753 1092 840 1059T988 965T1079 819T1110 631Q1110 482 1065 363T942 160T757 33T526 -12ZM387 1227L604 1434H809L956 1227V1151H788L684 1247L538 1151H387V1227Z" />
<glyph unicode="&#xf5;" glyph-name="otilde" horiz-adv-x="1165" d="M537 195Q605 195 657 232T745 330T799 471T817 637Q817 701 804 747T766 822T708 865T633 879Q567 879 514 841T425 740T368 597T348 432Q348 367 361 322T399 249T459 208T537 195ZM526 -12Q414
-12 327 19T179 109T87 251T55 438Q55 587 102 708T230 914T417 1046T641 1092Q753 1092 840 1059T988 965T1079 819T1110 631Q1110 482 1065 363T942 160T757 33T526 -12ZM809 1157Q773 1157 743 1166T686 1185T637 1205T596 1214Q567 1214 550 1199T522 1155H369V1233Q401
1329 456 1377T594 1425Q630 1425 661 1417T718 1399T767 1381T809 1372Q837 1372 852 1386T881 1427H1034V1350Q969 1157 809 1157Z" />
<glyph unicode="&#xf6;" glyph-name="odieresis" horiz-adv-x="1165" d="M537 195Q605 195 657 232T745 330T799 471T817 637Q817 701 804 747T766 822T708 865T633 879Q567 879 514 841T425 740T368 597T348 432Q348 367 361 322T399 249T459 208T537 195ZM526
-12Q414 -12 327 19T179 109T87 251T55 438Q55 587 102 708T230 914T417 1046T641 1092Q753 1092 840 1059T988 965T1079 819T1110 631Q1110 482 1065 363T942 160T757 33T526 -12ZM494 1159Q462 1159 436 1170T390 1202T361 1248T351 1305Q351 1338 364 1366T399
1415T450 1448T512 1460Q544 1460 571 1449T617 1417T647 1371T658 1315Q658 1281 645 1253T609 1203T556 1171T494 1159ZM887 1159Q855 1159 829 1170T783 1202T754 1248T744 1305Q744 1338 757 1366T792 1415T844 1448T906 1460Q938 1460 965 1449T1011 1417T1040
1371T1051 1315Q1051 1281 1038 1253T1002 1203T949 1171T887 1159Z" />
<glyph unicode="&#xf7;" glyph-name="divide" horiz-adv-x="1229" d="M578 176Q542 176 513 188T462 223T430 274T418 336Q418 372 432 403T471 457T528 493T596 506Q632 506 662 493T713 458T746 407T758 346Q758 309 743 278T703 225T646 189T578 176ZM195 825H1171L1116
590H139L195 825ZM711 909Q675 909 646 921T595 956T563 1007T551 1069Q551 1105 565 1136T604 1190T661 1226T729 1239Q765 1239 795 1226T846 1191T879 1140T891 1079Q891 1042 876 1011T836 958T779 922T711 909Z" />
<glyph unicode="&#xf8;" glyph-name="oslash" horiz-adv-x="1165" d="M526 -12Q374 -12 270 43L188 -51H18V4L143 147Q100 204 78 277T55 438Q55 587 102 708T230 914T417 1046T641 1092Q718 1092 784 1076T903 1028L975 1110H1147V1055L1028 918Q1068 861 1089
789T1110 631Q1110 482 1065 363T942 160T757 33T526 -12ZM338 432Q338 417 338 403T340 377L748 848Q701 881 633 881Q565 881 510 843T417 741T359 597T338 432ZM537 193Q607 193 661 230T751 329T806 471T825 637Q825 649 824 660T823 682L422 219Q467 193 537
193Z" />
<glyph unicode="&#xf9;" glyph-name="ugrave" horiz-adv-x="1165" d="M842 0Q798 0 767 10T716 39T686 84T672 141Q631 108 590 80T503 30T406 -4T297 -16Q227 -16 174 8T90 78T50 191T63 346L233 1075H432Q458 1075 475 1069T501 1048T510 1007T500 942L367 346Q353
281 372 250T440 219Q494 219 556 242T692 311L866 1075H1165L920 0H842V0ZM438 1348V1434H721L799 1214V1151H618L438 1348Z" />
<glyph unicode="&#xfa;" glyph-name="uacute" horiz-adv-x="1165" d="M842 0Q798 0 767 10T716 39T686 84T672 141Q631 108 590 80T503 30T406 -4T297 -16Q227 -16 174 8T90 78T50 191T63 346L233 1075H432Q458 1075 475 1069T501 1048T510 1007T500 942L367 346Q353
281 372 250T440 219Q494 219 556 242T692 311L866 1075H1165L920 0H842V0ZM608 1214L715 1434H1005V1348L770 1151H608V1214Z" />
<glyph unicode="&#xfb;" glyph-name="ucircumflex" horiz-adv-x="1165" d="M842 0Q798 0 767 10T716 39T686 84T672 141Q631 108 590 80T503 30T406 -4T297 -16Q227 -16 174 8T90 78T50 191T63 346L233 1075H432Q458 1075 475 1069T501 1048T510 1007T500 942L367
346Q353 281 372 250T440 219Q494 219 556 242T692 311L866 1075H1165L920 0H842V0ZM416 1227L633 1434H838L985 1227V1151H817L713 1247L567 1151H416V1227Z" />
<glyph unicode="&#xfc;" glyph-name="udieresis" horiz-adv-x="1165" d="M842 0Q798 0 767 10T716 39T686 84T672 141Q631 108 590 80T503 30T406 -4T297 -16Q227 -16 174 8T90 78T50 191T63 346L233 1075H432Q458 1075 475 1069T501 1048T510 1007T500 942L367
346Q353 281 372 250T440 219Q494 219 556 242T692 311L866 1075H1165L920 0H842V0ZM522 1159Q490 1159 464 1170T418 1202T389 1248T379 1305Q379 1338 392 1366T427 1415T478 1448T540 1460Q572 1460 599 1449T645 1417T675 1371T686 1315Q686 1281 673 1253T637
1203T584 1171T522 1159ZM915 1159Q883 1159 857 1170T811 1202T782 1248T772 1305Q772 1338 785 1366T820 1415T872 1448T934 1460Q966 1460 993 1449T1039 1417T1068 1371T1079 1315Q1079 1281 1066 1253T1030 1203T977 1171T915 1159Z" />
<glyph unicode="&#xfd;" glyph-name="yacute" horiz-adv-x="1061" d="M35 -252L283 115L127 997V1075H408L506 434H510L868 1075H1114V997L307 -332H35V-252ZM541 1214L648 1434H938V1348L703 1151H541V1214Z" />
<glyph unicode="&#xfe;" glyph-name="thorn" horiz-adv-x="1180" d="M319 1434H502Q531 1434 552 1428T583 1404T594 1353T582 1266L512 956Q572 1015 655 1053T840 1092Q897 1092 951 1070T1046 999T1112 876T1137 694Q1137 530 1096 403T981 189T806 57T584
12Q487 12 424 38T319 102L221 -332H-82L319 1434ZM705 870Q646 870 590 846T471 778L356 272Q379 251 419 231T526 211Q604 211 663 246T761 345T820 496T840 688Q840 779 803 824T705 870Z" />
<glyph unicode="&#xff;" glyph-name="ydieresis" horiz-adv-x="1061" d="M35 -252L283 115L127 997V1075H408L506 434H510L868 1075H1114V997L307 -332H35V-252ZM455 1159Q423 1159 397 1170T351 1202T322 1248T312 1305Q312 1338 325 1366T360 1415T411 1448T473
1460Q505 1460 532 1449T578 1417T608 1371T619 1315Q619 1281 606 1253T570 1203T517 1171T455 1159ZM848 1159Q816 1159 790 1170T744 1202T715 1248T705 1305Q705 1338 718 1366T753 1415T805 1448T867 1460Q899 1460 926 1449T972 1417T1001 1371T1012 1315Q1012
1281 999 1253T963 1203T910 1171T848 1159Z" />
<glyph unicode="&#x100;" glyph-name="Amacron" horiz-adv-x="1362" d="M-70 84L692 1434H1034L1212 84V0H899L858 379H381L182 0H-70V84ZM496 598H834L778 1126H774L496 598ZM654 1704H1187L1139 1503H607L654 1704Z" />
<glyph unicode="&#x101;" glyph-name="amacron" horiz-adv-x="1042" d="M719 0Q669 0 629 24T571 102Q522 51 454 20T297 -12Q233 -12 180 6T88 61T28 151T6 276Q6 364 39 433T133 549T280 622T473 647Q542 647 584 641T659 623L668 662Q692 768 659 822T526 877Q445
877 382 860T262 811H176L225 1024Q260 1039 297 1051T378 1073T470 1087T578 1092Q691 1092 775 1065T909 982T974 839T961 631L815 0H719ZM406 174Q460 174 499 196T575 254L621 459Q596 465 565 470T492 475Q390 475 339 425T287 297Q287 238 317 206T406 174ZM418
1397H951L903 1196H371L418 1397Z" />
<glyph unicode="&#x102;" glyph-name="Abreve" horiz-adv-x="1362" d="M-70 84L692 1434H1034L1212 84V0H899L858 379H381L182 0H-70V84ZM496 598H834L778 1126H774L496 598ZM884 1481Q822 1481 775 1497T695 1540T644 1600T620 1669V1745H811Q811 1733 815 1721T829
1698T854 1682T891 1675Q934 1675 956 1695T987 1745H1173V1669Q1162 1634 1138 1601T1078 1541T994 1498T884 1481Z" />
<glyph unicode="&#x103;" glyph-name="abreve" horiz-adv-x="1042" d="M719 0Q669 0 629 24T571 102Q522 51 454 20T297 -12Q233 -12 180 6T88 61T28 151T6 276Q6 364 39 433T133 549T280 622T473 647Q542 647 584 641T659 623L668 662Q692 768 659 822T526 877Q445
877 382 860T262 811H176L225 1024Q260 1039 297 1051T378 1073T470 1087T578 1092Q691 1092 775 1065T909 982T974 839T961 631L815 0H719ZM406 174Q460 174 499 196T575 254L621 459Q596 465 565 470T492 475Q390 475 339 425T287 297Q287 238 317 206T406 174ZM641
1153Q579 1153 532 1170T453 1216T402 1282T378 1358V1434H569Q569 1395 586 1372T647 1348Q690 1348 713 1370T745 1434H931V1358Q920 1319 896 1282T836 1217T750 1171T641 1153Z" />
<glyph unicode="&#x104;" glyph-name="Aogonek" horiz-adv-x="1362" d="M1028 -338Q944 -338 898 -296T852 -188Q852 -119 899 -72T999 0H899L858 379H381L182 0H-70V84L692 1434H1034L1212 84V10Q1141 -27 1109 -54T1077 -117Q1077 -141 1094 -153T1153 -166H1192L1159
-303Q1133 -319 1100 -328T1028 -338ZM496 598H834L778 1126H774L496 598Z" />
<glyph unicode="&#x105;" glyph-name="aogonek" horiz-adv-x="1042" d="M655 -338Q571 -338 525 -296T479 -188Q479 -123 525 -71T651 12Q592 39 571 102Q522 51 454 20T297 -12Q168 -12 87 61T6 276Q6 365 39 433T133 549T281 621T473 647Q543 647 585 640T659
623L668 662Q692 768 660 822T526 877Q444 877 382 861T262 811H176L225 1024Q297 1053 379 1072T578 1092Q690 1092 774 1065T909 982T974 839T961 631L815 0Q762 -29 734 -55T705 -117Q705 -141 722 -153T780 -166H819L786 -303Q760 -319 727 -328T655 -338ZM406
174Q459 174 499 196T575 254L621 459Q596 465 564 470T492 475Q389 475 338 425T287 297Q287 238 316 206T406 174Z" />
<glyph unicode="&#x106;" glyph-name="Cacute" horiz-adv-x="1264" d="M715 -16Q578 -16 464 18T267 124T138 303T92 561Q92 672 116 781T187 988T304 1171T465 1318T669 1415T913 1450Q1041 1450 1138 1425T1311 1348L1262 1135H1149Q1104 1175 1044 1197T899
1219Q810 1219 740 1189T617 1107T525 988T464 847T429 698T418 557Q418 465 439 399T501 291T599 229T731 209Q818 209 887 234T1016 301H1137L1083 70Q1052 52 1015 37T932 10T833 -9T715 -16ZM791 1542L887 1741H1178V1655L953 1479H791V1542Z" />
<glyph unicode="&#x107;" glyph-name="cacute" horiz-adv-x="991" d="M539 -14Q416 -14 325 17T174 107T85 246T55 428Q55 575 105 697T242 907T447 1043T702 1092Q809 1092 885 1069T1018 1001L973 809H864Q841 837 799 855T694 874Q616 874 553 840T444 746T375
605T350 430Q350 312 403 256T561 199Q632 199 680 216T770 262H881L834 59Q783 27 711 7T539 -14ZM582 1214L689 1434H979V1348L744 1151H582V1214Z" />
<glyph unicode="&#x108;" glyph-name="Ccircumflex" horiz-adv-x="1264" d="M715 -16Q578 -16 464 18T267 124T138 303T92 561Q92 672 116 781T187 988T304 1171T465 1318T669 1415T913 1450Q1041 1450 1138 1425T1311 1348L1262 1135H1149Q1104 1175 1044 1197T899
1219Q810 1219 740 1189T617 1107T525 988T464 847T429 698T418 557Q418 465 439 399T501 291T599 229T731 209Q818 209 887 234T1016 301H1137L1083 70Q1052 52 1015 37T932 10T833 -9T715 -16ZM594 1554L809 1749H1014L1164 1554V1479H996L889 1565L746 1479H594V1554Z"
/>
<glyph unicode="&#x109;" glyph-name="ccircumflex" horiz-adv-x="991" d="M539 -14Q416 -14 325 17T174 107T85 246T55 428Q55 575 105 697T242 907T447 1043T702 1092Q809 1092 885 1069T1018 1001L973 809H864Q841 837 799 855T694 874Q616 874 553 840T444
746T375 605T350 430Q350 312 403 256T561 199Q632 199 680 216T770 262H881L834 59Q783 27 711 7T539 -14ZM389 1227L606 1434H811L958 1227V1151H790L686 1247L540 1151H389V1227Z" />
<glyph unicode="&#x10a;" glyph-name="Cdotaccent" horiz-adv-x="1264" d="M715 -16Q578 -16 464 18T267 124T138 303T92 561Q92 672 116 781T187 988T304 1171T465 1318T669 1415T913 1450Q1041 1450 1138 1425T1311 1348L1262 1135H1149Q1104 1175 1044 1197T899
1219Q810 1219 740 1189T617 1107T525 988T464 847T429 698T418 557Q418 465 439 399T501 291T599 229T731 209Q818 209 887 234T1016 301H1137L1083 70Q1052 52 1015 37T932 10T833 -9T715 -16ZM902 1483Q868 1483 840 1495T792 1527T761 1575T750 1635Q750 1669
764 1699T801 1750T855 1784T920 1797Q954 1797 982 1785T1030 1752T1062 1704T1074 1645Q1074 1610 1060 1580T1022 1529T967 1495T902 1483Z" />
<glyph unicode="&#x10b;" glyph-name="cdotaccent" horiz-adv-x="991" d="M539 -14Q416 -14 325 17T174 107T85 246T55 428Q55 575 105 697T242 907T447 1043T702 1092Q809 1092 885 1069T1018 1001L973 809H864Q841 837 799 855T694 874Q616 874 553 840T444
746T375 605T350 430Q350 312 403 256T561 199Q632 199 680 216T770 262H881L834 59Q783 27 711 7T539 -14ZM695 1161Q661 1161 633 1173T585 1205T554 1253T543 1313Q543 1347 557 1377T594 1428T648 1462T713 1475Q747 1475 775 1463T823 1430T855 1382T867 1323Q867
1288 853 1258T815 1207T760 1173T695 1161Z" />
<glyph unicode="&#x10c;" glyph-name="Ccaron" horiz-adv-x="1264" d="M715 -16Q578 -16 464 18T267 124T138 303T92 561Q92 672 116 781T187 988T304 1171T465 1318T669 1415T913 1450Q1041 1450 1138 1425T1311 1348L1262 1135H1149Q1104 1175 1044 1197T899
1219Q810 1219 740 1189T617 1107T525 988T464 847T429 698T418 557Q418 465 439 399T501 291T599 229T731 209Q818 209 887 234T1016 301H1137L1083 70Q1052 52 1015 37T932 10T833 -9T715 -16ZM1219 1673L1003 1479H799L649 1673V1749H817L924 1663L1067 1749H1219V1673Z"
/>
<glyph unicode="&#x10d;" glyph-name="ccaron" horiz-adv-x="991" d="M539 -14Q416 -14 325 17T174 107T85 246T55 428Q55 575 105 697T242 907T447 1043T702 1092Q809 1092 885 1069T1018 1001L973 809H864Q841 837 799 855T694 874Q616 874 553 840T444 746T375
605T350 430Q350 312 403 256T561 199Q632 199 680 216T770 262H881L834 59Q783 27 711 7T539 -14ZM434 1358V1434H602L707 1337L852 1434H1004V1358L787 1151H582L434 1358Z" />
<glyph unicode="&#x10e;" glyph-name="Dcaron" horiz-adv-x="1417" d="M588 225Q682 225 754 253T880 329T970 440T1029 572T1061 712T1071 848Q1071 921 1057 986T1008 1099T916 1176T772 1204H604L379 225H588ZM338 1434H778Q924 1434 1039 1396T1234 1283T1356
1099T1399 848Q1399 742 1377 638T1311 439T1199 265T1043 125T843 33T598 0H323H8L338 1434ZM1158 1673L942 1479H738L588 1673V1749H756L863 1663L1006 1749H1158V1673Z" />
<glyph unicode="&#x10f;" glyph-name="dcaron" horiz-adv-x="1190" d="M1343 1434H1577V1348L1427 1153H1278L1343 1434ZM872 0Q831 0 801 10T750 37T717 79T700 131Q643 62 566 23T395 -16Q323 -16 260 5T150 74T76 196T49 379Q49 529 92 658T211 884T392 1035T621
1090Q713 1090 773 1062T872 989L975 1434H1155Q1184 1434 1205 1428T1236 1404T1247 1353T1235 1266L946 0H872ZM500 190Q548 190 603 213T711 276L829 803Q818 813 803 824T769 845T724 860T668 866Q592 866 532 830T431 729T368 578T346 391Q346 289 381 240T500
190Z" />
<glyph unicode="&#x110;" glyph-name="Dcroat" horiz-adv-x="1421" d="M72 823H197L338 1434H778Q1071 1434 1235 1284T1399 848Q1399 688 1349 536T1199 264T950 73T598 0H8L147 604H23L72 823ZM588 225Q729 225 822 286T970 440T1048 642T1071 848Q1071 922
1057 986T1008 1100T916 1176T772 1204H604L516 823H821L772 604H465L379 225H588Z" />
<glyph unicode="&#x111;" glyph-name="dcroat" horiz-adv-x="1190" d="M872 0Q788 0 750 38T700 131Q643 61 563 23T377 -16Q311 -16 252 5T148 74T76 195T49 379Q49 528 91 658T209 883T390 1034T621 1090Q713 1090 773 1062T872 989L909 1149H635L676 1323H948L975
1434H1155Q1208 1434 1232 1410T1247 1323H1358L1317 1149H1208L946 0H872ZM487 190Q545 190 597 211T711 279L829 803Q807 825 769 845T668 866Q590 866 531 830T430 729T368 575T346 381Q346 285 378 238T487 190Z" />
<glyph unicode="&#x112;" glyph-name="Emacron" horiz-adv-x="1153" d="M338 1434H1251L1198 1202H604L520 838H958L907 618H469L379 225H1020L969 0H327H8L338 1434ZM588 1704H1121L1073 1503H541L588 1704Z" />
<glyph unicode="&#x113;" glyph-name="emacron" horiz-adv-x="1055" d="M514 -14Q291 -14 170 97T49 426Q49 513 66 596T118 753T201 889T314 997T455 1067T623 1092Q720 1092 793 1065T914 986T987 864T1010 705Q1010 651 1001 592T975 471H340V430Q340 365 353
321T393 248T457 208T547 195Q622 195 687 214T811 270H907L860 63Q801 31 717 9T514 -14ZM604 901Q559 901 522 884T454 833T402 754T365 651H743Q748 673 750 693T752 731Q752 818 712 859T604 901ZM430 1397H963L915 1196H383L430 1397Z" />
<glyph unicode="&#x114;" glyph-name="Ebreve" horiz-adv-x="1153" d="M338 1434H1251L1198 1202H604L520 838H958L907 618H469L379 225H1020L969 0H327H8L338 1434ZM811 1481Q749 1481 702 1497T622 1540T571 1600T547 1669V1745H738Q738 1733 742 1721T756 1698T781
1682T818 1675Q861 1675 883 1695T914 1745H1100V1669Q1089 1634 1065 1601T1005 1541T921 1498T811 1481Z" />
<glyph unicode="&#x115;" glyph-name="ebreve" horiz-adv-x="1055" d="M514 -14Q291 -14 170 97T49 426Q49 513 66 596T118 753T201 889T314 997T455 1067T623 1092Q720 1092 793 1065T914 986T987 864T1010 705Q1010 651 1001 592T975 471H340V430Q340 365 353
321T393 248T457 208T547 195Q622 195 687 214T811 270H907L860 63Q801 31 717 9T514 -14ZM604 901Q559 901 522 884T454 833T402 754T365 651H743Q748 673 750 693T752 731Q752 818 712 859T604 901ZM654 1153Q592 1153 545 1170T466 1216T415 1282T391 1358V1434H582Q582
1395 599 1372T660 1348Q703 1348 726 1370T758 1434H944V1358Q933 1319 909 1282T849 1217T763 1171T654 1153Z" />
<glyph unicode="&#x116;" glyph-name="Edotaccent" horiz-adv-x="1153" d="M338 1434H1251L1198 1202H604L520 838H958L907 618H469L379 225H1020L969 0H327H8L338 1434ZM812 1483Q778 1483 750 1495T702 1527T671 1575T660 1635Q660 1669 674 1699T711 1750T765
1784T830 1797Q864 1797 892 1785T940 1752T972 1704T984 1645Q984 1610 970 1580T932 1529T877 1495T812 1483Z" />
<glyph unicode="&#x117;" glyph-name="edotaccent" horiz-adv-x="1055" d="M514 -14Q291 -14 170 97T49 426Q49 513 66 596T118 753T201 889T314 997T455 1067T623 1092Q720 1092 793 1065T914 986T987 864T1010 705Q1010 651 1001 592T975 471H340V430Q340 365
353 321T393 248T457 208T547 195Q622 195 687 214T811 270H907L860 63Q801 31 717 9T514 -14ZM604 901Q559 901 522 884T454 833T402 754T365 651H743Q748 673 750 693T752 731Q752 818 712 859T604 901ZM656 1161Q622 1161 594 1173T546 1205T515 1253T504 1313Q504
1347 518 1377T555 1428T609 1462T674 1475Q708 1475 736 1463T784 1430T816 1382T828 1323Q828 1288 814 1258T776 1207T721 1173T656 1161Z" />
<glyph unicode="&#x118;" glyph-name="Eogonek" horiz-adv-x="1153" d="M338 1434H1251L1198 1202H604L520 838H958L907 618H469L379 225H1020L969 0H864Q817 -29 790 -55T762 -117Q762 -141 779 -153T838 -166H877L844 -303Q817 -319 785 -328T713 -338Q629 -338
583 -296T537 -188Q537 -119 584 -72T684 0H8L338 1434Z" />
<glyph unicode="&#x119;" glyph-name="eogonek" horiz-adv-x="1055" d="M860 63Q825 43 795 32T733 4Q686 -23 656 -52T625 -117Q625 -141 642 -153T700 -166H739L707 -303Q680 -319 647 -328T575 -338Q492 -338 446 -296T399 -188Q399 -129 440 -85T528 -14H514Q291
-14 170 97T49 426Q49 557 88 677T200 889T380 1036T623 1092Q819 1092 915 987T1010 705Q1010 598 975 471H340V430Q340 301 392 248T547 195Q623 195 687 214T811 270H907L860 63ZM604 901Q514 901 454 834T365 651H743Q752 690 752 731Q752 817 712 859T604
901Z" />
<glyph unicode="&#x11a;" glyph-name="Ecaron" horiz-adv-x="1153" d="M338 1434H1251L1198 1202H604L520 838H958L907 618H469L379 225H1020L969 0H327H8L338 1434ZM1129 1673L913 1479H709L559 1673V1749H727L834 1663L977 1749H1129V1673Z" />
<glyph unicode="&#x11b;" glyph-name="ecaron" horiz-adv-x="1055" d="M514 -14Q291 -14 170 97T49 426Q49 513 66 596T118 753T201 889T314 997T455 1067T623 1092Q720 1092 793 1065T914 986T987 864T1010 705Q1010 651 1001 592T975 471H340V430Q340 365 353
321T393 248T457 208T547 195Q622 195 687 214T811 270H907L860 63Q801 31 717 9T514 -14ZM604 901Q559 901 522 884T454 833T402 754T365 651H743Q748 673 750 693T752 731Q752 818 712 859T604 901ZM395 1358V1434H563L668 1337L813 1434H965V1358L748 1151H543L395
1358Z" />
<glyph unicode="&#x11c;" glyph-name="Gcircumflex" horiz-adv-x="1368" d="M721 -16Q588 -16 473 16T274 116T141 291T92 547Q92 660 116 771T187 983T304 1168T466 1316T671 1414T920 1450Q1048 1450 1152 1425T1341 1343L1290 1124H1182Q1129 1172 1063 1195T899
1219Q811 1219 742 1189T619 1108T527 989T464 846T428 691T416 539Q416 460 433 398T489 292T588 226T735 203Q817 203 874 221L948 541H750L797 748H994H1309L1155 78Q1123 59 1078 42T977 12T857 -8T721 -16ZM639 1554L854 1749H1059L1209 1554V1479H1041L934
1565L791 1479H639V1554Z" />
<glyph unicode="&#x11d;" glyph-name="gcircumflex" horiz-adv-x="1178" d="M375 -352Q297 -352 236 -344T126 -321T43 -290T-20 -254L29 -47H119Q157 -89 220 -112T371 -135Q425 -135 471 -125T555 -91T619 -28T659 70L686 186Q626 123 545 84T371 45Q306 45
248 66T145 131T75 242T49 403Q49 548 91 674T210 893T391 1039T623 1092Q672 1092 715 1081T793 1053T857 1014T905 971Q921 992 941 1010T987 1043T1041 1066T1106 1075H1190L956 63Q929 -55 878 -134T753 -262T584 -331T375 -352ZM479 254Q539 254 601 280T725
356L831 825Q820 837 806 849T771 871T725 888T664 895Q582 895 522 854T423 745T365 591T346 416Q346 332 379 293T479 254ZM434 1227L651 1434H856L1003 1227V1151H835L731 1247L585 1151H434V1227Z" />
<glyph unicode="&#x11e;" glyph-name="Gbreve" horiz-adv-x="1368" d="M721 -16Q588 -16 473 16T274 116T141 291T92 547Q92 660 116 771T187 983T304 1168T466 1316T671 1414T920 1450Q1048 1450 1152 1425T1341 1343L1290 1124H1182Q1129 1172 1063 1195T899
1219Q811 1219 742 1189T619 1108T527 989T464 846T428 691T416 539Q416 460 433 398T489 292T588 226T735 203Q817 203 874 221L948 541H750L797 748H994H1309L1155 78Q1123 59 1078 42T977 12T857 -8T721 -16ZM954 1481Q892 1481 845 1497T765 1540T714 1600T690
1669V1745H881Q881 1733 885 1721T899 1698T924 1682T961 1675Q1004 1675 1026 1695T1057 1745H1243V1669Q1232 1634 1208 1601T1148 1541T1064 1498T954 1481Z" />
<glyph unicode="&#x11f;" glyph-name="gbreve" horiz-adv-x="1178" d="M375 -352Q297 -352 236 -344T126 -321T43 -290T-20 -254L29 -47H119Q157 -89 220 -112T371 -135Q425 -135 471 -125T555 -91T619 -28T659 70L686 186Q626 123 545 84T371 45Q306 45 248 66T145
131T75 242T49 403Q49 548 91 674T210 893T391 1039T623 1092Q672 1092 715 1081T793 1053T857 1014T905 971Q921 992 941 1010T987 1043T1041 1066T1106 1075H1190L956 63Q929 -55 878 -134T753 -262T584 -331T375 -352ZM479 254Q539 254 601 280T725 356L831
825Q820 837 806 849T771 871T725 888T664 895Q582 895 522 854T423 745T365 591T346 416Q346 332 379 293T479 254ZM738 1153Q676 1153 629 1170T550 1216T499 1282T475 1358V1434H666Q666 1395 683 1372T744 1348Q787 1348 810 1370T842 1434H1028V1358Q1017
1319 993 1282T933 1217T847 1171T738 1153Z" />
<glyph unicode="&#x120;" glyph-name="Gdotaccent" horiz-adv-x="1368" d="M721 -16Q588 -16 473 16T274 116T141 291T92 547Q92 660 116 771T187 983T304 1168T466 1316T671 1414T920 1450Q1048 1450 1152 1425T1341 1343L1290 1124H1182Q1129 1172 1063 1195T899
1219Q811 1219 742 1189T619 1108T527 989T464 846T428 691T416 539Q416 460 433 398T489 292T588 226T735 203Q817 203 874 221L948 541H750L797 748H994H1309L1155 78Q1123 59 1078 42T977 12T857 -8T721 -16ZM947 1483Q913 1483 885 1495T837 1527T806 1575T795
1635Q795 1669 809 1699T846 1750T900 1784T965 1797Q999 1797 1027 1785T1075 1752T1107 1704T1119 1645Q1119 1610 1105 1580T1067 1529T1012 1495T947 1483Z" />
<glyph unicode="&#x121;" glyph-name="gdotaccent" horiz-adv-x="1178" d="M375 -352Q297 -352 236 -344T126 -321T43 -290T-20 -254L29 -47H119Q157 -89 220 -112T371 -135Q425 -135 471 -125T555 -91T619 -28T659 70L686 186Q626 123 545 84T371 45Q306 45 248
66T145 131T75 242T49 403Q49 548 91 674T210 893T391 1039T623 1092Q672 1092 715 1081T793 1053T857 1014T905 971Q921 992 941 1010T987 1043T1041 1066T1106 1075H1190L956 63Q929 -55 878 -134T753 -262T584 -331T375 -352ZM479 254Q539 254 601 280T725 356L831
825Q820 837 806 849T771 871T725 888T664 895Q582 895 522 854T423 745T365 591T346 416Q346 332 379 293T479 254ZM740 1161Q706 1161 678 1173T630 1205T599 1253T588 1313Q588 1347 602 1377T639 1428T693 1462T758 1475Q792 1475 820 1463T868 1430T900 1382T912
1323Q912 1288 898 1258T860 1207T805 1173T740 1161Z" />
<glyph unicode="&#x122;" glyph-name="Gcommaaccent" horiz-adv-x="1368" d="M721 -16Q588 -16 473 16T274 116T141 291T92 547Q92 660 116 771T187 983T304 1168T466 1316T671 1414T920 1450Q1048 1450 1152 1425T1341 1343L1290 1124H1182Q1129 1172 1063 1195T899
1219Q811 1219 742 1189T619 1108T527 989T464 846T428 691T416 539Q416 460 433 398T489 292T588 226T735 203Q817 203 874 221L948 541H750L797 748H994H1309L1155 78Q1123 59 1078 42T977 12T857 -8T721 -16ZM391 -334Q500 -324 500 -283Q500 -266 473 -246Q455
-231 445 -214T434 -168Q434 -109 473 -73T565 -37Q619 -37 656 -73T694 -172Q694 -240 670 -290T601 -376T497 -431T365 -453L391 -334Z" />
<glyph unicode="&#x123;" glyph-name="gcommaaccent" horiz-adv-x="1178" d="M874 1458Q766 1448 766 1407Q766 1391 793 1370Q811 1356 821 1339T831 1292Q831 1233 793 1197T700 1161Q647 1161 609 1197T571 1296Q571 1430 663 1500T901 1577L874 1458ZM375
-352Q297 -352 236 -344T126 -321T43 -290T-20 -254L29 -47H119Q157 -89 220 -112T371 -135Q425 -135 471 -125T555 -91T619 -28T659 70L686 186Q626 123 545 84T371 45Q306 45 248 66T145 131T75 242T49 403Q49 548 91 674T210 893T391 1039T623 1092Q672 1092
715 1081T793 1053T857 1014T905 971Q921 992 941 1010T987 1043T1041 1066T1106 1075H1190L956 63Q929 -55 878 -134T753 -262T584 -331T375 -352ZM479 254Q539 254 601 280T725 356L831 825Q820 837 806 849T771 871T725 888T664 895Q582 895 522 854T423 745T365
591T346 416Q346 332 379 293T479 254Z" />
<glyph unicode="&#x124;" glyph-name="Hcircumflex" horiz-adv-x="1419" d="M338 1434H657L522 844H1049L1184 1434H1503L1174 0H854L997 618H469L328 0H8L338 1434ZM637 1554L852 1749H1057L1207 1554V1479H1039L932 1565L789 1479H637V1554Z" />
<glyph unicode="&#x125;" glyph-name="hcircumflex" horiz-adv-x="1171" d="M319 1434H500Q529 1434 550 1428T581 1404T592 1353T580 1266L508 948Q548 979 590 1005T678 1050T777 1081T891 1092Q954 1092 1003 1067T1083 995T1122 881T1112 729L944 0H745Q719
0 702 6T677 27T668 68T678 133L811 729Q825 794 806 824T737 854Q680 854 613 831T463 756L291 0H-8L319 1434ZM510 1555L727 1762H932L1079 1555V1479H911L807 1575L661 1479H510V1555Z" />
<glyph unicode="&#x126;" glyph-name="Hbar" horiz-adv-x="1419" d="M174 1221H289L338 1434H657L608 1221H1135L1184 1434H1503L1454 1221H1569L1522 1020H1407L1174 0H854L995 621H469L328 0H8L242 1020H127L174 1221ZM1049 844L1087 1020H561L522 844H1049Z" />
<glyph unicode="&#x127;" glyph-name="hbar" horiz-adv-x="1171" d="M186 1323H293L319 1434H500Q553 1434 577 1410T592 1323H868L827 1149H553L508 950Q588 1012 678 1052T891 1092Q954 1092 1003 1067T1083 995T1122 881T1112 729L944 0H745Q692 0 676 27T678
133L811 729Q838 854 737 854Q625 854 463 756L291 0H-8L254 1149H145L186 1323Z" />
<glyph unicode="&#x12a;" glyph-name="Imacron" horiz-adv-x="588" d="M344 1434H666L336 0H14L344 1434ZM560 1704H1093L1045 1503H513L560 1704Z" />
<glyph unicode="&#x12b;" glyph-name="imacron" horiz-adv-x="532" d="M240 1075H403Q438 1075 462 1069T498 1042T509 981T494 879L293 0H-6L240 1075ZM197 1397H705L657 1196H150L197 1397Z" />
<glyph unicode="&#x12e;" glyph-name="Iogonek" horiz-adv-x="588" d="M344 1434H666L336 0H305Q258 -29 231 -55T203 -117Q203 -141 220 -153T279 -166H317L285 -303Q258 -319 226 -328T154 -338Q70 -338 24 -296T-23 -188Q-23 -119 24 -72T125 0H14L344 1434Z" />
<glyph unicode="&#x12f;" glyph-name="iogonek" horiz-adv-x="532" d="M240 1075H403Q438 1075 462 1069T498 1042T509 981T494 879L293 0H262Q215 -29 188 -55T160 -117Q160 -141 177 -153T236 -166H274L242 -303Q215 -319 183 -328T111 -338Q27 -338 -19 -296T-66
-188Q-66 -119 -19 -72T82 0H-6L240 1075ZM426 1161Q358 1161 316 1205T274 1313Q274 1382 325 1428T444 1475Q512 1475 555 1430T598 1323Q598 1251 546 1206T426 1161Z" />
<glyph unicode="&#x130;" glyph-name="Idotaccent" horiz-adv-x="588" d="M344 1434H666L336 0H14L344 1434ZM528 1483Q494 1483 466 1495T418 1527T387 1575T376 1635Q376 1669 390 1699T427 1750T481 1784T546 1797Q580 1797 608 1785T656 1752T688 1704T700
1645Q700 1610 686 1580T648 1529T593 1495T528 1483Z" />
<glyph unicode="&#x131;" glyph-name="dotlessi" horiz-adv-x="532" d="M240 1075H403Q439 1075 463 1069T498 1042T509 982T494 879L293 0H-6L240 1075Z" />
<glyph unicode="&#x134;" glyph-name="Jcircumflex" horiz-adv-x="936" d="M289 -16Q224 -16 172 -8T76 13T0 43T-57 78L-8 291H96Q108 276 124 262T163 237T213 220T274 213Q359 213 402 256T465 381L707 1434H1028L774 334Q756 256 719 192T622 81T480 10T289
-16ZM596 1554L811 1749H1016L1166 1554V1479H998L891 1565L748 1479H596V1554Z" />
<glyph unicode="&#x135;" glyph-name="jcircumflex" horiz-adv-x="528" d="M-63 -344Q-133 -344 -170 -336T-242 -315L-203 -150H-166Q-129 -150 -104 -145T-61 -126T-32 -90T-12 -27L240 1075H403Q438 1075 462 1069T498 1042T509 981T494 879L283 -45Q264 -129
233 -186T158 -278T60 -328T-63 -344ZM108 1227L325 1434H530L677 1227V1151H509L405 1247L259 1151H108V1227Z" />
<glyph unicode="&#x136;" glyph-name="Kcommaaccent" horiz-adv-x="1337" d="M338 1434H657L506 774L1157 1434H1427V1348L895 829L1196 86V0H897L653 614L418 389L328 0H8L338 1434ZM391 -334Q500 -324 500 -283Q500 -266 473 -246Q455 -231 445 -214T434 -168Q434
-109 473 -73T565 -37Q619 -37 656 -73T694 -172Q694 -240 670 -290T601 -376T497 -431T365 -453L391 -334Z" />
<glyph unicode="&#x137;" glyph-name="kcommaaccent" horiz-adv-x="1073" d="M319 1434H500Q529 1434 550 1428T581 1404T592 1353T580 1266L442 668L856 1075H1116V997L709 623L956 82V0H680L481 434L365 324L291 0H-8L319 1434ZM248 -334Q357 -324 357 -283Q357
-266 330 -246Q312 -231 302 -214T291 -168Q291 -109 330 -73T422 -37Q476 -37 513 -73T551 -172Q551 -240 527 -290T458 -376T354 -431T222 -453L248 -334Z" />
<glyph unicode="&#x139;" glyph-name="Lacute" horiz-adv-x="1094" d="M338 1434H657L379 225H956L905 0H327H8L338 1434ZM681 1542L777 1741H1068V1655L843 1479H681V1542Z" />
<glyph unicode="&#x13a;" glyph-name="lacute" horiz-adv-x="539" d="M322 1434H502Q531 1434 552 1428T583 1404T594 1353T582 1266L293 0H-6L322 1434ZM372 1542L479 1762H769V1676L534 1479H372V1542Z" />
<glyph unicode="&#x13b;" glyph-name="Lcommaaccent" horiz-adv-x="1094" d="M338 1434H657L379 225H956L905 0H327H8L338 1434ZM262 -334Q371 -324 371 -283Q371 -266 344 -246Q326 -231 316 -214T305 -168Q305 -109 344 -73T436 -37Q490 -37 527 -73T565 -172Q565
-240 541 -290T472 -376T368 -431T236 -453L262 -334Z" />
<glyph unicode="&#x13c;" glyph-name="lcommaaccent" horiz-adv-x="539" d="M322 1434H502Q531 1434 552 1428T583 1404T594 1353T582 1266L293 0H-6L322 1434ZM-73 -334Q36 -324 36 -283Q36 -266 9 -246Q-9 -231 -19 -214T-30 -168Q-30 -109 9 -73T101 -37Q155
-37 192 -73T230 -172Q230 -240 206 -290T137 -376T33 -431T-99 -453L-73 -334Z" />
<glyph unicode="&#x13d;" glyph-name="Lcaron" horiz-adv-x="1094" d="M813 1434H1047V1348L897 1153H748L813 1434ZM338 1434H657L379 225H956L905 0H327H8L338 1434Z" />
<glyph unicode="&#x13e;" glyph-name="lcaron" horiz-adv-x="539" d="M690 1434H924V1348L774 1153H625L690 1434ZM322 1434H502Q531 1434 552 1428T583 1404T594 1353T582 1266L293 0H-6L322 1434Z" />
<glyph unicode="&#x141;" glyph-name="Lslash" horiz-adv-x="1094" d="M25 643L168 692L338 1434H657L514 815L926 961L874 731L461 586L379 225H956L905 0H327H8L115 463L-27 414L25 643Z" />
<glyph unicode="&#x142;" glyph-name="lslash" horiz-adv-x="539" d="M45 760L182 825L322 1434H502Q531 1434 552 1428T583 1404T594 1353T582 1266L518 985L664 1055L612 836L467 766L293 0H-6L131 606L-4 541L45 760Z" />
<glyph unicode="&#x143;" glyph-name="Nacute" horiz-adv-x="1405" d="M338 1434H700L1001 516H1008L1221 1434H1489L1159 0H868L520 1042H514L274 0H8L338 1434ZM858 1542L954 1741H1245V1655L1020 1479H858V1542Z" />
<glyph unicode="&#x144;" glyph-name="nacute" horiz-adv-x="1171" d="M238 1075H336Q378 1075 407 1065T454 1037T481 993T492 936Q533 969 576 997T669 1047T772 1080T891 1092Q954 1092 1003 1067T1083 995T1122 881T1112 729L944 0H745Q719 0 702 6T677 27T668
68T678 133L811 729Q825 794 806 824T737 854Q680 854 613 831T463 756L291 0H-8L238 1075ZM606 1214L713 1434H1003V1348L768 1151H606V1214Z" />
<glyph unicode="&#x145;" glyph-name="Ncommaaccent" horiz-adv-x="1405" d="M338 1434H700L1001 516H1008L1221 1434H1489L1159 0H868L520 1042H514L274 0H8L338 1434ZM377 -334Q486 -324 486 -283Q486 -266 459 -246Q441 -231 431 -214T420 -168Q420 -109 459
-73T551 -37Q605 -37 642 -73T680 -172Q680 -240 656 -290T587 -376T483 -431T351 -453L377 -334Z" />
<glyph unicode="&#x146;" glyph-name="ncommaaccent" horiz-adv-x="1171" d="M238 1075H336Q378 1075 407 1065T454 1037T481 993T492 936Q533 969 576 997T669 1047T772 1080T891 1092Q954 1092 1003 1067T1083 995T1122 881T1112 729L944 0H745Q719 0 702 6T677
27T668 68T678 133L811 729Q825 794 806 824T737 854Q680 854 613 831T463 756L291 0H-8L238 1075ZM295 -334Q404 -324 404 -283Q404 -266 377 -246Q359 -231 349 -214T338 -168Q338 -109 377 -73T469 -37Q523 -37 560 -73T598 -172Q598 -240 574 -290T505 -376T401
-431T269 -453L295 -334Z" />
<glyph unicode="&#x147;" glyph-name="Ncaron" horiz-adv-x="1405" d="M338 1434H700L1001 516H1008L1221 1434H1489L1159 0H868L520 1042H514L274 0H8L338 1434ZM1287 1673L1071 1479H867L717 1673V1749H885L992 1663L1135 1749H1287V1673Z" />
<glyph unicode="&#x148;" glyph-name="ncaron" horiz-adv-x="1171" d="M238 1075H336Q378 1075 407 1065T454 1037T481 993T492 936Q533 969 576 997T669 1047T772 1080T891 1092Q954 1092 1003 1067T1083 995T1122 881T1112 729L944 0H745Q719 0 702 6T677 27T668
68T678 133L811 729Q825 794 806 824T737 854Q680 854 613 831T463 756L291 0H-8L238 1075ZM446 1358V1434H614L719 1337L864 1434H1016V1358L799 1151H594L446 1358Z" />
<glyph unicode="&#x14c;" glyph-name="Omacron" horiz-adv-x="1495" d="M717 205Q793 205 855 234T965 313T1048 428T1106 565T1140 710T1151 850Q1151 921 1137 989T1089 1110T997 1196T854 1229Q777 1229 715 1199T604 1118T520 1001T463 863T429 718T418 582Q418
503 434 434T486 314T579 234T717 205ZM707 -16Q565 -16 451 28T258 151T135 343T92 590Q92 701 116 808T186 1011T299 1187T451 1326T639 1417T860 1450Q1001 1450 1115 1406T1310 1281T1433 1090T1477 844Q1477 738 1454 633T1387 432T1277 254T1126 112T935
18T707 -16ZM684 1704H1217L1169 1503H637L684 1704Z" />
<glyph unicode="&#x14d;" glyph-name="omacron" horiz-adv-x="1165" d="M537 195Q605 195 657 232T745 330T799 471T817 637Q817 701 804 747T766 822T708 865T633 879Q567 879 514 841T425 740T368 597T348 432Q348 367 361 322T399 249T459 208T537 195ZM526
-12Q414 -12 327 19T179 109T87 251T55 438Q55 587 102 708T230 914T417 1046T641 1092Q753 1092 840 1059T988 965T1079 819T1110 631Q1110 482 1065 363T942 160T757 33T526 -12ZM467 1397H1000L952 1196H420L467 1397Z" />
<glyph unicode="&#x150;" glyph-name="Ohungarumlaut" horiz-adv-x="1495" d="M717 205Q793 205 855 234T965 313T1048 428T1106 565T1140 710T1151 850Q1151 921 1137 989T1089 1110T997 1196T854 1229Q777 1229 715 1199T604 1118T520 1001T463 863T429 718T418
582Q418 503 434 434T486 314T579 234T717 205ZM707 -16Q565 -16 451 28T258 151T135 343T92 590Q92 701 116 808T186 1011T299 1187T451 1326T639 1417T860 1450Q1001 1450 1115 1406T1310 1281T1433 1090T1477 844Q1477 738 1454 633T1387 432T1277 254T1126
112T935 18T707 -16ZM618 1536L700 1741H935V1655L765 1479H618V1536ZM952 1536L1034 1741H1269V1655L1099 1479H952V1536Z" />
<glyph unicode="&#x151;" glyph-name="ohungarumlaut" horiz-adv-x="1165" d="M537 195Q605 195 657 232T745 330T799 471T817 637Q817 701 804 747T766 822T708 865T633 879Q567 879 514 841T425 740T368 597T348 432Q348 367 361 322T399 249T459 208T537 195ZM526
-12Q414 -12 327 19T179 109T87 251T55 438Q55 587 102 708T230 914T417 1046T641 1092Q753 1092 840 1059T988 965T1079 819T1110 631Q1110 482 1065 363T942 160T757 33T526 -12ZM409 1208L504 1434H739V1348L557 1151H409V1208ZM743 1208L837 1434H1073V1348L891
1151H743V1208Z" />
<glyph unicode="&#x152;" glyph-name="OE" horiz-adv-x="1976" d="M92 571Q92 677 114 782T180 984T292 1162T448 1305T648 1399T893 1434H2075L2021 1202H1427L1343 838H1782L1731 618H1292L1202 225H1843L1792 0H735Q568 0 447 36T247 144T130 323T92 571ZM420
571Q420 497 432 434T479 325T577 252T741 225H883L1108 1204H901Q807 1204 735 1175T609 1097T519 984T461 850T430 707T420 571Z" />
<glyph unicode="&#x153;" glyph-name="oe" horiz-adv-x="1804" d="M526 -12Q414 -12 327 19T179 109T87 251T55 438Q55 587 102 708T230 914T417 1046T641 1092Q771 1092 859 1041T995 899Q1063 989 1161 1040T1389 1092Q1485 1092 1555 1065T1670 986T1738 864T1759
705Q1759 596 1724 471H1090V430Q1090 365 1103 321T1141 248T1206 208T1296 195Q1372 195 1437 214T1561 270H1657L1612 70Q1583 55 1547 40T1467 13T1373 -6T1264 -14Q1126 -14 1039 32T905 168Q833 80 736 34T526 -12ZM537 195Q605 195 657 232T745 330T799
471T817 637Q817 701 804 747T766 822T708 865T633 879Q567 879 514 841T425 740T368 597T348 432Q348 367 361 322T399 249T459 208T537 195ZM1366 901Q1272 901 1209 833T1114 651H1493Q1498 673 1499 693T1501 731Q1501 818 1465 859T1366 901Z" />
<glyph unicode="&#x154;" glyph-name="Racute" horiz-adv-x="1286" d="M629 561H457L328 0H8L338 1434H772Q1024 1434 1147 1327T1270 1022Q1270 943 1245 876T1175 755T1065 661T924 596L1139 84V0H850L629 561ZM670 776Q812 776 887 840T963 1038Q963 1076 953
1106T917 1159T851 1192T750 1204H604L506 776H670ZM694 1542L790 1741H1081V1655L856 1479H694V1542Z" />
<glyph unicode="&#x155;" glyph-name="racute" horiz-adv-x="795" d="M238 1075H332Q380 1075 412 1062T462 1026T487 970T492 897Q522 939 557 973T631 1032T714 1071T803 1085Q820 1085 835 1083T864 1075L809 823H772Q666 823 587 792T457 717L293 0H-8L238
1075ZM714 1214L821 1434H1111V1348L876 1151H714V1214Z" />
<glyph unicode="&#x156;" glyph-name="Rcommaaccent" horiz-adv-x="1286" d="M629 561H457L328 0H8L338 1434H772Q1024 1434 1147 1327T1270 1022Q1270 943 1245 876T1175 755T1065 661T924 596L1139 84V0H850L629 561ZM670 776Q812 776 887 840T963 1038Q963
1076 953 1106T917 1159T851 1192T750 1204H604L506 776H670ZM381 -334Q490 -324 490 -283Q490 -266 463 -246Q445 -231 435 -214T424 -168Q424 -109 463 -73T555 -37Q609 -37 646 -73T684 -172Q684 -240 660 -290T591 -376T487 -431T355 -453L381 -334Z" />
<glyph unicode="&#x157;" glyph-name="rcommaaccent" horiz-adv-x="795" d="M238 1075H332Q380 1075 412 1062T462 1026T487 970T492 897Q522 939 557 973T631 1032T714 1071T803 1085Q820 1085 835 1083T864 1075L809 823H772Q666 823 587 792T457 717L293 0H-8L238
1075ZM-65 -334Q44 -324 44 -283Q44 -266 17 -246Q-1 -231 -11 -214T-22 -168Q-22 -109 17 -73T109 -37Q163 -37 200 -73T238 -172Q238 -240 214 -290T145 -376T41 -431T-91 -453L-65 -334Z" />
<glyph unicode="&#x158;" glyph-name="Rcaron" horiz-adv-x="1286" d="M629 561H457L328 0H8L338 1434H772Q1024 1434 1147 1327T1270 1022Q1270 943 1245 876T1175 755T1065 661T924 596L1139 84V0H850L629 561ZM670 776Q812 776 887 840T963 1038Q963 1076 953
1106T917 1159T851 1192T750 1204H604L506 776H670ZM1123 1673L907 1479H703L553 1673V1749H721L828 1663L971 1749H1123V1673Z" />
<glyph unicode="&#x159;" glyph-name="rcaron" horiz-adv-x="795" d="M238 1075H332Q380 1075 412 1062T462 1026T487 970T492 897Q522 939 557 973T631 1032T714 1071T803 1085Q820 1085 835 1083T864 1075L809 823H772Q666 823 587 792T457 717L293 0H-8L238
1075ZM566 1358V1434H734L839 1337L984 1434H1136V1358L919 1151H714L566 1358Z" />
<glyph unicode="&#x15a;" glyph-name="Sacute" horiz-adv-x="1085" d="M455 -16Q368 -16 296 -4T166 30T62 79T-16 137L33 356H139Q164 324 195 298T266 252T355 222T467 211Q513 211 557 221T637 254T693 315T715 410Q715 450 699 477T652 525T574 566T469 608Q397
636 340 671T244 752T185 857T164 991Q164 1100 201 1185T306 1329T469 1419T682 1450Q818 1450 924 1413T1110 1313L1061 1106H956Q927 1134 897 1155T831 1192T755 1215T664 1223Q622 1223 584 1213T515 1181T467 1126T449 1044Q449 1006 461 980T501 932T574
891T686 846Q758 818 818 786T922 708T990 603T1014 459Q1014 343 974 255T861 106T685 15T455 -16ZM615 1542L711 1741H1002V1655L777 1479H615V1542Z" />
<glyph unicode="&#x15b;" glyph-name="sacute" horiz-adv-x="889" d="M336 -12Q265 -12 207 -3T103 20T23 53T-37 90L10 293H106Q141 253 200 226T344 199Q379 199 410 205T465 223T502 256T516 305Q516 326 508 342T482 371T439 395T375 420Q307 444 255 471T168
533T115 614T96 723Q96 807 126 874T212 988T350 1060T532 1085Q593 1085 644 1077T737 1055T814 1023T877 985L831 797H741Q707 828 651 852T520 877Q442 877 404 851T365 774Q365 756 372 742T397 714T442 689T512 662Q573 640 624 616T713 557T772 477T793 367Q793
279 761 209T670 90T527 15T336 -12ZM473 1214L580 1434H870V1348L635 1151H473V1214Z" />
<glyph unicode="&#x15c;" glyph-name="Scircumflex" horiz-adv-x="1085" d="M455 -16Q368 -16 296 -4T166 30T62 79T-16 137L33 356H139Q164 324 195 298T266 252T355 222T467 211Q513 211 557 221T637 254T693 315T715 410Q715 450 699 477T652 525T574 566T469
608Q397 636 340 671T244 752T185 857T164 991Q164 1100 201 1185T306 1329T469 1419T682 1450Q818 1450 924 1413T1110 1313L1061 1106H956Q927 1134 897 1155T831 1192T755 1215T664 1223Q622 1223 584 1213T515 1181T467 1126T449 1044Q449 1006 461 980T501
932T574 891T686 846Q758 818 818 786T922 708T990 603T1014 459Q1014 343 974 255T861 106T685 15T455 -16ZM432 1554L647 1749H852L1002 1554V1479H834L727 1565L584 1479H432V1554Z" />
<glyph unicode="&#x15d;" glyph-name="scircumflex" horiz-adv-x="889" d="M336 -12Q265 -12 207 -3T103 20T23 53T-37 90L10 293H106Q141 253 200 226T344 199Q379 199 410 205T465 223T502 256T516 305Q516 326 508 342T482 371T439 395T375 420Q307 444 255
471T168 533T115 614T96 723Q96 807 126 874T212 988T350 1060T532 1085Q593 1085 644 1077T737 1055T814 1023T877 985L831 797H741Q707 828 651 852T520 877Q442 877 404 851T365 774Q365 756 372 742T397 714T442 689T512 662Q573 640 624 616T713 557T772 477T793
367Q793 279 761 209T670 90T527 15T336 -12ZM538 1227L755 1434H960L1107 1227V1151H939L835 1247L689 1151H538V1227Z" />
<glyph unicode="&#x15e;" glyph-name="Scedilla" horiz-adv-x="1085" d="M375 -358Q307 -358 270 -348T205 -317L231 -203H291Q299 -215 315 -223T362 -231Q389 -231 407 -223T426 -193Q426 -176 412 -166T360 -156H307L340 -10Q213 4 125 46T-16 137L33 356H139Q188
293 266 252T467 211Q512 211 557 221T637 253T693 315T715 410Q715 449 699 476T652 525T575 566T469 608Q324 664 244 752T164 991Q164 1100 201 1186T306 1330T470 1419T682 1450Q817 1450 923 1413T1110 1313L1061 1106H956Q897 1161 831 1192T664 1223Q623
1223 584 1213T515 1181T467 1126T449 1044Q449 1006 461 980T500 933T574 891T686 846Q758 817 818 785T922 708T989 603T1014 459Q1014 346 976 259T869 112T701 19T481 -16L473 -49Q541 -53 573 -91T606 -182Q606 -233 586 -267T534 -321T460 -350T375 -358Z"
/>
<glyph unicode="&#x15f;" glyph-name="scedilla" horiz-adv-x="889" d="M276 -358Q209 -358 172 -348T106 -317L133 -203H193Q201 -215 217 -223T264 -231Q291 -231 309 -223T328 -193Q328 -176 314 -166T262 -156H209L244 -8Q139 2 72 30T-37 90L10 293H106Q141
252 199 226T344 199Q416 199 466 223T516 305Q516 348 483 370T375 420Q307 444 255 471T168 532T115 614T96 723Q96 893 212 989T532 1085Q655 1085 738 1056T877 985L831 797H741Q707 827 651 852T520 877Q365 877 365 774Q365 737 396 714T512 662Q573 639
624 615T713 556T771 476T793 367Q793 201 684 101T383 -10L375 -49Q442 -53 475 -91T508 -182Q508 -233 488 -267T435 -321T361 -350T276 -358Z" />
<glyph unicode="&#x160;" glyph-name="Scaron" horiz-adv-x="1085" d="M455 -16Q368 -16 296 -4T166 30T62 79T-16 137L33 356H139Q164 324 195 298T266 252T355 222T467 211Q513 211 557 221T637 254T693 315T715 410Q715 450 699 477T652 525T574 566T469 608Q397
636 340 671T244 752T185 857T164 991Q164 1100 201 1185T306 1329T469 1419T682 1450Q818 1450 924 1413T1110 1313L1061 1106H956Q927 1134 897 1155T831 1192T755 1215T664 1223Q622 1223 584 1213T515 1181T467 1126T449 1044Q449 1006 461 980T501 932T574
891T686 846Q758 818 818 786T922 708T990 603T1014 459Q1014 343 974 255T861 106T685 15T455 -16ZM1014 1673L798 1479H594L444 1673V1749H612L719 1663L862 1749H1014V1673Z" />
<glyph unicode="&#x161;" glyph-name="scaron" horiz-adv-x="889" d="M336 -12Q265 -12 207 -3T103 20T23 53T-37 90L10 293H106Q141 253 200 226T344 199Q379 199 410 205T465 223T502 256T516 305Q516 326 508 342T482 371T439 395T375 420Q307 444 255 471T168
533T115 614T96 723Q96 807 126 874T212 988T350 1060T532 1085Q593 1085 644 1077T737 1055T814 1023T877 985L831 797H741Q707 828 651 852T520 877Q442 877 404 851T365 774Q365 756 372 742T397 714T442 689T512 662Q573 640 624 616T713 557T772 477T793 367Q793
279 761 209T670 90T527 15T336 -12ZM543 1358V1434H711L816 1337L961 1434H1113V1358L896 1151H691L543 1358Z" />
<glyph unicode="&#x162;" glyph-name="Tcommaaccent" horiz-adv-x="1169" d="M582 1208H199L250 1434H1335L1284 1208H901L623 0H303L582 1208ZM258 -334Q367 -324 367 -283Q367 -266 340 -246Q322 -231 312 -214T301 -168Q301 -109 340 -73T432 -37Q486 -37 523
-73T561 -172Q561 -240 537 -290T468 -376T364 -431T232 -453L258 -334Z" />
<glyph unicode="&#x163;" glyph-name="tcommaaccent" horiz-adv-x="711" d="M371 -16Q286 -16 227 8T135 77T95 188T106 334L231 874H115L158 1075H276L342 1362H641L575 1075H768L725 874H528L403 328Q388 260 414 224T524 188H575L537 10Q505 -2 468 -9T371
-16ZM322 -334Q431 -324 431 -283Q431 -266 404 -246Q386 -231 376 -214T365 -168Q365 -109 404 -73T496 -37Q550 -37 587 -73T625 -172Q625 -240 601 -290T532 -376T428 -431T296 -453L322 -334Z" />
<glyph unicode="&#x164;" glyph-name="Tcaron" horiz-adv-x="1169" d="M582 1208H199L250 1434H1335L1284 1208H901L623 0H303L582 1208ZM1111 1673L895 1479H691L541 1673V1749H709L816 1663L959 1749H1111V1673Z" />
<glyph unicode="&#x165;" glyph-name="tcaron" horiz-adv-x="711" d="M737 1434H971V1348L821 1153H672L737 1434ZM371 -16Q286 -16 227 8T135 77T95 188T106 334L231 874H115L158 1075H276L342 1362H641L575 1075H768L725 874H528L403 328Q388 260 414 224T524
188H575L537 10Q505 -2 468 -9T371 -16Z" />
<glyph unicode="&#x16a;" glyph-name="Umacron" horiz-adv-x="1364" d="M635 -16Q492 -16 383 24T207 140T118 327T129 580L326 1434H645L438 541Q423 475 425 417T452 314T528 245T662 219Q727 219 778 236T867 289T933 381T979 518L1190 1434H1456L1241 500Q1214
385 1168 290T1049 127T874 22T635 -16ZM709 1704H1242L1194 1503H662L709 1704Z" />
<glyph unicode="&#x16b;" glyph-name="umacron" horiz-adv-x="1165" d="M840 0Q796 0 765 10T714 39T684 84T670 141Q629 108 588 80T501 30T404 -4T295 -16Q225 -16 172 8T88 78T48 191T61 346L231 1075H430Q456 1075 473 1069T499 1048T508 1007T498 942L365
346Q351 281 370 250T438 219Q492 219 554 242T690 311L864 1075H1163L918 0H840V0ZM498 1397H1031L983 1196H451L498 1397Z" />
<glyph unicode="&#x16c;" glyph-name="Ubreve" horiz-adv-x="1364" d="M635 -16Q492 -16 383 24T207 140T118 327T129 580L326 1434H645L438 541Q423 475 425 417T452 314T528 245T662 219Q727 219 778 236T867 289T933 381T979 518L1190 1434H1456L1241 500Q1214
385 1168 290T1049 127T874 22T635 -16ZM940 1481Q878 1481 831 1497T751 1540T700 1600T676 1669V1745H867Q867 1733 871 1721T885 1698T910 1682T947 1675Q990 1675 1012 1695T1043 1745H1229V1669Q1218 1634 1194 1601T1134 1541T1050 1498T940 1481Z" />
<glyph unicode="&#x16d;" glyph-name="ubreve" horiz-adv-x="1165" d="M840 0Q796 0 765 10T714 39T684 84T670 141Q629 108 588 80T501 30T404 -4T295 -16Q225 -16 172 8T88 78T48 191T61 346L231 1075H430Q456 1075 473 1069T499 1048T508 1007T498 942L365
346Q351 281 370 250T438 219Q492 219 554 242T690 311L864 1075H1163L918 0H840V0ZM701 1153Q639 1153 592 1170T513 1216T462 1282T438 1358V1434H629Q629 1395 646 1372T707 1348Q750 1348 773 1370T805 1434H991V1358Q980 1319 956 1282T896 1217T810 1171T701
1153Z" />
<glyph unicode="&#x16e;" glyph-name="Uring" horiz-adv-x="1364" d="M635 -16Q492 -16 383 24T207 140T118 327T129 580L326 1434H645L438 541Q423 475 425 417T452 314T528 245T662 219Q727 219 778 236T867 289T933 381T979 518L1190 1434H1456L1241 500Q1214
385 1168 290T1049 127T874 22T635 -16ZM924 1550Q959 1550 982 1574T1006 1636Q1006 1670 986 1689T934 1708Q899 1708 878 1684T856 1618Q856 1587 874 1569T924 1550ZM922 1423Q879 1423 841 1436T775 1474T731 1535T715 1616Q715 1666 733 1706T783 1775T854
1819T938 1835Q981 1835 1019 1822T1085 1783T1129 1721T1145 1638Q1145 1588 1127 1548T1078 1481T1007 1438T922 1423Z" />
<glyph unicode="&#x16f;" glyph-name="uring" horiz-adv-x="1165" d="M840 0Q796 0 765 10T714 39T684 84T670 141Q629 108 588 80T501 30T404 -4T295 -16Q225 -16 172 8T88 78T48 191T61 346L231 1075H430Q456 1075 473 1069T499 1048T508 1007T498 942L365 346Q351
281 370 250T438 219Q492 219 554 242T690 311L864 1075H1163L918 0H840V0ZM704 1286Q739 1286 762 1310T786 1372Q786 1406 766 1425T714 1444Q679 1444 658 1420T636 1354Q636 1323 654 1305T704 1286ZM702 1159Q659 1159 621 1172T555 1210T511 1271T495 1352Q495
1402 513 1442T563 1511T634 1555T718 1571Q761 1571 799 1558T865 1519T909 1457T925 1374Q925 1324 907 1284T858 1217T787 1174T702 1159Z" />
<glyph unicode="&#x170;" glyph-name="Uhungarumlaut" horiz-adv-x="1364" d="M635 -16Q492 -16 383 24T207 140T118 327T129 580L326 1434H645L438 541Q423 475 425 417T452 314T528 245T662 219Q727 219 778 236T867 289T933 381T979 518L1190 1434H1456L1241
500Q1214 385 1168 290T1049 127T874 22T635 -16ZM643 1536L725 1741H960V1655L790 1479H643V1536ZM977 1536L1059 1741H1294V1655L1124 1479H977V1536Z" />
<glyph unicode="&#x171;" glyph-name="uhungarumlaut" horiz-adv-x="1165" d="M840 0Q796 0 765 10T714 39T684 84T670 141Q629 108 588 80T501 30T404 -4T295 -16Q225 -16 172 8T88 78T48 191T61 346L231 1075H430Q456 1075 473 1069T499 1048T508 1007T498 942L365
346Q351 281 370 250T438 219Q492 219 554 242T690 311L864 1075H1163L918 0H840V0ZM438 1208L533 1434H768V1348L586 1151H438V1208ZM772 1208L866 1434H1102V1348L920 1151H772V1208Z" />
<glyph unicode="&#x172;" glyph-name="Uogonek" horiz-adv-x="1364" d="M621 -338Q537 -338 491 -296T444 -188Q444 -127 481 -84T565 -12Q438 -4 343 40T190 158T115 339T129 580L326 1434H645L438 541Q422 475 425 417T452 314T528 245T662 219Q793 219 867
288T979 518L1190 1434H1456L1241 500Q1219 408 1187 330T1107 190T992 81T834 8Q786 -6 755 -18T700 -53Q670 -84 670 -117Q670 -141 687 -153T745 -166H784L752 -303Q725 -319 692 -328T621 -338Z" />
<glyph unicode="&#x173;" glyph-name="uogonek" horiz-adv-x="1165" d="M766 -338Q682 -338 636 -296T590 -188Q590 -123 635 -70T745 18Q709 35 692 67T670 141Q588 76 500 30T295 -16Q154 -16 87 77T61 346L231 1075H430Q483 1075 499 1048T498 942L365 346Q338
219 438 219Q543 219 690 311L864 1075H1163L918 0Q870 -29 843 -55T815 -117Q815 -141 832 -153T891 -166H930L897 -303Q870 -319 838 -328T766 -338Z" />
<glyph unicode="&#x178;" glyph-name="Ydieresis" horiz-adv-x="1212" d="M473 575L219 1343V1434H516L696 840H700L1130 1434H1374V1343L784 545L659 0H340L473 575ZM629 1478Q597 1478 571 1489T525 1521T496 1567T486 1624Q486 1657 499 1685T534 1734T585
1767T647 1779Q679 1779 706 1768T752 1736T782 1690T793 1634Q793 1600 780 1572T744 1522T691 1490T629 1478ZM1022 1478Q990 1478 964 1489T918 1521T889 1567T879 1624Q879 1657 892 1685T927 1734T979 1767T1041 1779Q1073 1779 1100 1768T1146 1736T1175
1690T1186 1634Q1186 1600 1173 1572T1137 1522T1084 1490T1022 1478Z" />
<glyph unicode="&#x179;" glyph-name="Zacute" horiz-adv-x="1143" d="M-8 242L862 1198V1206H266L319 1434H1286L1229 1186L356 229V221H1006L956 0H-63L-8 242ZM699 1542L795 1741H1086V1655L861 1479H699V1542Z" />
<glyph unicode="&#x17a;" glyph-name="zacute" horiz-adv-x="971" d="M-23 207L623 864H160L209 1075H1026L979 866L328 211H813L764 0H-70L-23 207ZM528 1214L635 1434H925V1348L690 1151H528V1214Z" />
<glyph unicode="&#x17b;" glyph-name="Zdotaccent" horiz-adv-x="1143" d="M-8 242L862 1198V1206H266L319 1434H1286L1229 1186L356 229V221H1006L956 0H-63L-8 242ZM810 1483Q776 1483 748 1495T700 1527T669 1575T658 1635Q658 1669 672 1699T709 1750T763
1784T828 1797Q862 1797 890 1785T938 1752T970 1704T982 1645Q982 1610 968 1580T930 1529T875 1495T810 1483Z" />
<glyph unicode="&#x17c;" glyph-name="zdotaccent" horiz-adv-x="971" d="M-23 207L623 864H160L209 1075H1026L979 866L328 211H813L764 0H-70L-23 207ZM641 1161Q607 1161 579 1173T531 1205T500 1253T489 1313Q489 1347 503 1377T540 1428T594 1462T659 1475Q693
1475 721 1463T769 1430T801 1382T813 1323Q813 1288 799 1258T761 1207T706 1173T641 1161Z" />
<glyph unicode="&#x17d;" glyph-name="Zcaron" horiz-adv-x="1143" d="M-8 242L862 1198V1206H266L319 1434H1286L1229 1186L356 229V221H1006L956 0H-63L-8 242ZM1127 1673L911 1479H707L557 1673V1749H725L832 1663L975 1749H1127V1673Z" />
<glyph unicode="&#x17e;" glyph-name="zcaron" horiz-adv-x="971" d="M-23 207L623 864H160L209 1075H1026L979 866L328 211H813L764 0H-70L-23 207ZM380 1358V1434H548L653 1337L798 1434H950V1358L733 1151H528L380 1358Z" />
<glyph unicode="&#x192;" glyph-name="florin" horiz-adv-x="1229" d="M348 909H510L569 1157Q588 1239 624 1295T713 1387T833 1438T985 1454Q1012 1454 1039 1452T1090 1445T1135 1434T1169 1421L1130 1247H1051Q1011 1247 982 1243T932 1229T898 1198T877 1147L819
909H1061L1014 709H772L557 -205H248L463 709H301L348 909Z" />
<glyph unicode="&#x218;" glyph-name="Scommaaccent" horiz-adv-x="1085" d="M455 -16Q368 -16 296 -4T166 30T62 79T-16 137L33 356H139Q164 324 195 298T266 252T355 222T467 211Q513 211 557 221T637 254T693 315T715 410Q715 450 699 477T652 525T574 566T469
608Q397 636 340 671T244 752T185 857T164 991Q164 1100 201 1185T306 1329T469 1419T682 1450Q818 1450 924 1413T1110 1313L1061 1106H956Q927 1134 897 1155T831 1192T755 1215T664 1223Q622 1223 584 1213T515 1181T467 1126T449 1044Q449 1006 461 980T501
932T574 891T686 846Q758 818 818 786T922 708T990 603T1014 459Q1014 343 974 255T861 106T685 15T455 -16ZM260 -334Q369 -324 369 -283Q369 -266 342 -246Q324 -231 314 -214T303 -168Q303 -109 342 -73T434 -37Q488 -37 525 -73T563 -172Q563 -240 539 -290T470
-376T366 -431T234 -453L260 -334Z" />
<glyph unicode="&#x219;" glyph-name="scommaaccent" horiz-adv-x="889" d="M336 -12Q265 -12 207 -3T103 20T23 53T-37 90L10 293H106Q141 253 200 226T344 199Q379 199 410 205T465 223T502 256T516 305Q516 326 508 342T482 371T439 395T375 420Q307 444 255
471T168 533T115 614T96 723Q96 807 126 874T212 988T350 1060T532 1085Q593 1085 644 1077T737 1055T814 1023T877 985L831 797H741Q707 828 651 852T520 877Q442 877 404 851T365 774Q365 756 372 742T397 714T442 689T512 662Q573 640 624 616T713 557T772 477T793
367Q793 279 761 209T670 90T527 15T336 -12ZM102 -334Q211 -324 211 -283Q211 -266 184 -246Q166 -231 156 -214T145 -168Q145 -109 184 -73T276 -37Q330 -37 367 -73T405 -172Q405 -240 381 -290T312 -376T208 -431T76 -453L102 -334Z" />
<glyph unicode="&#x21a;" glyph-name="uni021A" horiz-adv-x="1169" d="M582 1208H199L250 1434H1335L1284 1208H901L623 0H303L582 1208ZM258 -334Q367 -324 367 -283Q367 -266 340 -246Q322 -231 312 -214T301 -168Q301 -109 340 -73T432 -37Q486 -37 523 -73T561
-172Q561 -240 537 -290T468 -376T364 -431T232 -453L258 -334Z" />
<glyph unicode="&#x21b;" glyph-name="uni021B" horiz-adv-x="711" d="M371 -16Q286 -16 227 8T135 77T95 188T106 334L231 874H115L158 1075H276L342 1362H641L575 1075H768L725 874H528L403 328Q388 260 414 224T524 188H575L537 10Q505 -2 468 -9T371 -16ZM322
-334Q431 -324 431 -283Q431 -266 404 -246Q386 -231 376 -214T365 -168Q365 -109 404 -73T496 -37Q550 -37 587 -73T625 -172Q625 -240 601 -290T532 -376T428 -431T296 -453L322 -334Z" />
<glyph unicode="&#x237;" glyph-name="uni0237" horiz-adv-x="528" d="M-63 -344Q-133 -344 -170 -336T-242 -315L-203 -150H-166Q-129 -150 -104 -145T-61 -126T-32 -90T-12 -27L240 1075H403Q438 1075 462 1069T498 1042T509 981T494 879L283 -45Q264 -129 233
-186T158 -278T60 -328T-63 -344Z" />
<glyph unicode="&#x2c6;" glyph-name="circumflex" horiz-adv-x="819" d="M287 1227L504 1434H709L856 1227V1151H688L584 1247L438 1151H287V1227Z" />
<glyph unicode="&#x2c7;" glyph-name="caron" horiz-adv-x="819" d="M317 1358V1434H485L590 1337L735 1434H887V1358L670 1151H465L317 1358Z" />
<glyph unicode="&#x2d8;" glyph-name="breve" horiz-adv-x="819" d="M580 1153Q518 1153 471 1170T392 1216T341 1282T317 1358V1434H508Q508 1395 525 1372T586 1348Q629 1348 652 1370T684 1434H870V1358Q859 1319 835 1282T775 1217T689 1171T580 1153Z" />
<glyph unicode="&#x2d9;" glyph-name="dotaccent" horiz-adv-x="819" d="M582 1161Q548 1161 520 1173T472 1205T441 1253T430 1313Q430 1347 444 1377T481 1428T535 1462T600 1475Q634 1475 662 1463T710 1430T742 1382T754 1323Q754 1288 740 1258T702 1207T647
1173T582 1161Z" />
<glyph unicode="&#x2da;" glyph-name="ring" horiz-adv-x="819" d="M598 1286Q633 1286 656 1310T680 1372Q680 1406 660 1425T608 1444Q573 1444 552 1420T530 1354Q530 1323 548 1305T598 1286ZM596 1159Q553 1159 515 1172T449 1210T405 1271T389 1352Q389
1402 407 1442T457 1511T528 1555T612 1571Q655 1571 693 1558T759 1519T803 1457T819 1374Q819 1324 801 1284T752 1217T681 1174T596 1159Z" />
<glyph unicode="&#x2db;" glyph-name="ogonek" horiz-adv-x="819" d="M274 -338Q191 -338 145 -296T98 -188Q98 -154 111 -125T145 -72T192 -30T246 0H426Q380 -29 352 -56T324 -117Q324 -142 340 -154T399 -166H438L406 -303Q380 -319 347 -328T274 -338Z" />
<glyph unicode="&#x2dc;" glyph-name="tilde" horiz-adv-x="819" d="M678 1157Q642 1157 612 1166T555 1185T506 1205T465 1214Q436 1214 419 1199T391 1155H238V1233Q270 1329 325 1377T463 1425Q499 1425 530 1417T587 1399T636 1381T678 1372Q706 1372 721
1386T750 1427H903V1350Q838 1157 678 1157Z" />
<glyph unicode="&#x2dd;" glyph-name="hungarumlaut" horiz-adv-x="819" d="M313 1208L408 1434H643V1348L461 1151H313V1208ZM647 1208L741 1434H977V1348L795 1151H647V1208Z" />
</font>
</defs>
</svg>
