<?xml version="1.0" encoding="utf-8"?>
<!-- Generator: Adobe Illustrator 23.0.1, SVG Export Plug-In . SVG Version: 6.00 Build 0)  -->
<svg version="1.1" id="Layer_1" focusable="false" xmlns="http://www.w3.org/2000/svg" xmlns:xlink="http://www.w3.org/1999/xlink"
	 x="0px" y="0px" viewBox="0 0 448 512" style="enable-background:new 0 0 448 512;" xml:space="preserve">
<style type="text/css">
	.st0{fill:#A70050;}
</style>
<path class="st0" d="M224.1,193c72.1,0,144.3,0,216.4,0c0.9,0,1.9,0.1,2.8,0c3-0.4,3.8,1,3.8,3.9c-0.1,40.8,0,81.5,0,122.3
	c0,42.3,0,84.7,0,127c0,7.5-1.4,14.4-5.9,20.5c-6.3,8.4-14.6,13.2-25.1,13.2c-32.1,0.1-64.2,0.1-96.2,0.1c-74.4,0-148.8,0-223.2,0
	c-21.4,0-42.8,0.1-64.3,0C15.3,479.9,1,465.6,1,448.6c0-63.6,0-127.3,0-190.9c0-20.1,0-40.2,0-60.2c0-4.4,0-4.4,4.2-4.4
	C78.1,193,151.1,193,224.1,193C224.1,193,224.1,193,224.1,193z M178,257c-1.5,0.2-3.8,0.4-6.1,0.6c-27.8,2.9-48,29.6-42.4,58.6
	c2.2,11.1,8.1,20,16,27.8c22.8,22.4,45.6,44.8,68.4,67.3c6.7,6.6,13.5,6.6,20.1,0.1c10.9-10.7,21.7-21.3,32.5-32
	c13.8-13.7,27.9-27.2,41.2-41.3c13-13.7,15.3-37.8,6.2-54.3c-15-27.3-47.3-33.9-72.5-18.4c-5.6,3.5-10.4,8.5-15.4,13
	c-1.6,1.4-2.6,1.6-4,0c-1.6-1.8-3.3-3.4-5-5.1C206.4,262.7,193.5,257.6,178,257z"/>
<path class="st0" d="M105,161.4c-32.5,0-65,0-97.5,0c-0.9,0-1.9,0-2.8,0c-3.1-0.1-3.6-0.8-2.2-3.6c3.5-6.7,7.1-13.3,10.7-20
	c14.2-26.5,28.5-53,42.8-79.5c2.5-4.7,4.9-9.6,8.2-13.8c5.3-6.8,12.7-10.1,21.3-10.5c6.6-0.3,13.2-0.2,19.9-0.2
	c32.7,0,65.4,0,98.1,0c4.6,0,4.6,0,4.6,4.7c0,39.4,0,78.8,0,118.3c0,4.6,0,4.6-4.6,4.6C170.6,161.4,137.8,161.4,105,161.4z"/>
<path class="st0" d="M342.9,161.4c-32.8,0-65.6,0-98.4,0c-4.5,0-4.5,0-4.5-4.4c0-39.6,0-79.3,0-118.9c0-4.2,0-4.2,4.1-4.2
	c38.3,0,76.6,0,114.9,0c14.9,0,24.9,7.2,31.4,20.6c7,14.5,15.1,28.5,22.7,42.8c10.7,19.9,21.4,39.7,32,59.6c2.1,4,1.8,4.5-2.8,4.5
	C409.1,161.4,376,161.4,342.9,161.4z"/>
</svg>
