<?xml version="1.0" standalone="no"?> <!DOCTYPE svg PUBLIC "-//W3C//DTD SVG 1.0//EN" "http://www.w3.org/TR/2001/REC-SVG-20010904/DTD/svg10.dtd" > <svg xmlns="http://www.w3.org/2000/svg" width="100%" height="100%">
<defs >
<font horiz-adv-x="535" ><font-face
    font-family=""
    units-per-em="1000"
    panose-1="2 11 7 3 4 0 0 2 0 4"
    ascent="838"
    descent="-162"
    alphabetic="0" />
<missing-glyph horiz-adv-x="154" />
<glyph unicode=" " glyph-name="space" horiz-adv-x="154" />
<glyph unicode="!" glyph-name="exclam" horiz-adv-x="303" d="M149 218Q125 218 107 232T86 279Q77 363 71 433Q68 463 66 492T61 547T57 592T56 619Q56 657 75 678T133 700H169Q208 700 227 679T247 619Q247 611 246 592T242 548T238 493T232 433Q225 363 217
279Q214 247 196 233T154 218H149ZM245 84Q245 65 238 49T218 20T188 0T151 -7Q131 -7 114 0T85 19T65 48T57 84Q57 103 64 119T84 148T114 168T151 175Q170 175 187 168T217 149T237 120T245 84Z" />
<glyph unicode="&quot;" glyph-name="quotedbl" horiz-adv-x="407" d="M103 452Q81 452 64 465T43 509Q38 535 34 560Q30 581 28 604T25 645Q25 700 80 700H130Q159 700 171 687T183 645Q183 628 180 605T174 560Q170 535 166 509Q161 479 145 466T105 452H103ZM302
452Q280 452 263 465T241 509Q236 535 232 560Q229 581 227 604T224 645Q224 674 236 687T278 700H328Q357 700 369 687T382 645Q382 628 379 605T373 560Q369 535 365 509Q360 479 343 466T304 452H302Z" />
<glyph unicode="#" glyph-name="numbersign" horiz-adv-x="554" d="M242 409L229 315H312L325 409H242ZM391 52Q382 -5 332 -5H330Q302 -5 286 11T275 60L294 191H210L190 52Q182 -5 131 -5H130Q102 -5 86 11T75 60L93 191H74Q42 191 30 208T18 249V255Q18 280
31 297T79 315H112L125 409H106Q74 409 62 426T50 467V473Q50 498 63 515T111 533H143L160 648Q169 705 219 705H221Q249 705 265 689T276 640L260 533H344L361 648Q369 705 420 705H421Q449 705 465 689T476 640L461 533H480Q512 533 524 516T536 476V470Q536
444 523 427T475 409H442L429 315H448Q480 315 492 298T504 258V252Q504 226 491 209T443 191H411L391 52Z" />
<glyph unicode="$" glyph-name="dollar" horiz-adv-x="556" d="M218 -5Q177 -3 144 3T82 22Q51 35 38 54T24 103V120Q24 146 37 162T78 178Q94 178 107 171T136 153T170 134T218 121V284Q171 297 134 313T72 354T32 412T18 495Q18 542 33 578T77 641T145 683T233
704V726Q233 751 246 760T277 769H281Q298 769 311 760T324 726V706Q387 701 433 684Q464 673 477 653T491 604V589Q491 562 477 549T443 536Q429 536 417 541T391 554T362 569T324 580V425Q381 410 420 392T484 350T520 293T532 213Q532 120 475 64T309 -3V-64Q309
-89 296 -98T266 -107H262Q244 -107 231 -98T218 -64V-5ZM175 513Q175 490 189 477T233 452V576Q175 561 175 513ZM363 191Q363 219 350 233T309 257V126Q363 142 363 191Z" />
<glyph unicode="%" glyph-name="percent" horiz-adv-x="867" d="M267 0Q253 -22 241 -30T214 -39H212Q196 -39 185 -32T168 -14T164 13T176 44L597 695Q611 717 623 725T650 734H652Q668 734 679 727T696 709T700 682T688 651L267 0ZM392 520Q392 472 377 436T335
376T275 341T205 329Q169 329 135 340T75 376T34 436T18 520Q18 568 33 604T75 663T135 697T205 709Q241 709 275 698T335 663T376 604T392 520ZM151 518Q151 467 165 445T205 422Q231 422 245 444T259 518Q259 571 245 593T205 615Q179 615 165 593T151 518ZM849
183Q849 135 834 99T792 39T733 3T663 -9Q627 -9 593 3T533 39T492 99T476 183Q476 231 491 266T533 325T593 360T663 371Q699 371 732 360T792 326T833 267T849 183ZM608 181Q608 129 622 107T663 84Q689 84 703 106T717 181Q717 233 703 255T663 278Q637 278
623 256T608 181Z" />
<glyph unicode="&amp;" glyph-name="ampersand" horiz-adv-x="714" d="M563 0Q537 0 520 7T480 41L473 49Q434 21 387 7T282 -8Q152 -8 87 48T21 200Q21 236 32 266T64 321T110 364T166 397Q150 423 142 452T133 516Q133 559 148 594T195 655T271 695T375 709Q439
709 485 692Q514 681 527 662T541 609V599Q541 573 527 559T490 544Q476 544 465 549T442 560T417 571T384 576Q353 576 335 560T316 515Q316 491 328 472T366 424L493 280Q501 299 507 319T519 360Q531 398 549 413T601 428H608Q692 428 663 334Q651 291 631 248T590
169L647 105Q662 88 664 70T659 36T637 10T603 0H563ZM200 221Q200 176 227 147T311 118Q333 118 352 125T388 144L239 310Q222 294 211 273T200 221Z" />
<glyph unicode="&apos;" glyph-name="quotesingle" horiz-adv-x="208" d="M103 452Q81 452 64 465T43 509Q38 535 34 560Q30 581 28 604T25 645Q25 700 80 700H130Q159 700 171 687T183 645Q183 628 180 605T174 560Q170 535 166 509Q161 479 145 466T105 452H103Z" />
<glyph unicode="(" glyph-name="parenleft" horiz-adv-x="354" d="M344 5Q344 -20 329 -35T285 -50Q250 -50 210 -27Q171 -3 138 31T81 112T43 218T29 350Q29 420 42 477T80 580T137 660T209 719Q249 742 284 742Q314 742 329 727T344 687Q344 671 339 659T323
635Q308 617 287 597T246 545T212 467T198 350Q198 278 212 230T245 150T286 97T323 57Q333 46 338 34T344 5Z" />
<glyph unicode=")" glyph-name="parenright" horiz-adv-x="354" d="M325 350Q325 278 312 219T274 113T216 32T143 -27Q105 -50 69 -50Q39 -50 25 -35T10 5Q10 21 15 33T30 57Q45 76 66 97T107 150T141 230T155 350Q155 420 141 466T108 544T67 596T30 635Q21
646 16 658T10 687Q10 712 25 727T70 742Q104 742 144 719Q183 695 216 661T273 581T311 478T325 350Z" />
<glyph unicode="*" glyph-name="asterisk" horiz-adv-x="404" d="M150 507Q122 502 99 502T61 505Q39 512 30 530T29 575L31 582Q39 608 57 617T98 620Q112 615 130 601T171 567Q158 593 151 615T143 652Q143 675 157 689T199 704H207Q234 704 248 690T263 652Q263
638 256 616T235 567Q256 587 274 601T307 620Q329 627 348 618T375 582L377 575Q385 549 376 531T344 505Q315 497 255 506Q280 493 300 480T328 456Q342 438 339 417T314 380L307 375Q286 360 266 362T232 384Q214 408 203 467Q198 438 190 417T174 384Q160 365
140 362T99 374L91 380Q70 396 67 417T77 456Q85 467 105 480T150 507Z" />
<glyph unicode="+" glyph-name="plus" horiz-adv-x="536" d="M516 340Q516 313 502 295T453 276H343V157Q343 122 324 107T277 92H260Q233 92 214 107T194 157V276H84Q49 276 35 294T20 340V352Q20 378 34 396T84 415H194V534Q194 569 213 584T260 599H277Q305
599 324 584T343 534V415H453Q487 415 501 397T516 352V340Z" />
<glyph unicode="," glyph-name="comma" horiz-adv-x="237" d="M20 -73Q20 -58 27 -50T56 -34Q77 -26 84 -19T91 -2Q91 8 83 14T59 31Q45 41 35 55T24 96Q24 131 50 153T115 175Q155 175 184 148T214 66Q214 -9 176 -54T67 -107Q20 -112 20 -75V-73Z" />
<glyph unicode="-" glyph-name="hyphen" horiz-adv-x="308" d="M92 224Q61 224 44 243T27 289V297Q27 323 44 342T92 361H216Q247 361 264 342T281 297V289Q281 262 264 243T216 224H92Z" />
<glyph unicode="." glyph-name="period" horiz-adv-x="237" d="M212 84Q212 65 205 49T185 20T155 0T118 -7Q98 -7 81 0T52 19T32 48T24 84Q24 103 31 119T51 148T81 168T118 175Q137 175 154 168T184 149T204 120T212 84Z" />
<glyph unicode="/" glyph-name="slash" horiz-adv-x="370" d="M217 684Q236 745 286 745H297Q332 745 346 721T350 660L150 8Q131 -53 81 -53H70Q35 -53 21 -29T17 32L217 684Z" />
<glyph unicode="0" glyph-name="zero" horiz-adv-x="684" d="M342 -9Q277 -9 220 13T121 80T53 192T28 350Q28 440 53 507T122 619T222 686T342 709Q405 709 462 687T562 620T630 508T656 350Q656 260 631 193T563 81T463 14T342 -9ZM342 121Q400 121 431 172T463
346Q463 408 455 451T432 522T394 561T342 573Q313 573 291 561T253 522T229 452T221 346Q221 223 252 172T342 121Z" />
<glyph unicode="1" glyph-name="one" horiz-adv-x="400" d="M328 78Q328 39 306 20T251 0H214Q182 0 159 19T136 78V505L115 491Q92 476 81 472T59 467Q41 467 30 479T19 515V553Q19 585 33 602T77 635Q98 646 123 658T172 680T218 697T255 704H268Q295 704 311
689T328 639V78Z" />
<glyph unicode="2" glyph-name="two" horiz-adv-x="551" d="M457 144Q492 144 507 125T522 78V66Q522 38 507 19T457 0H87Q52 0 37 20T21 69V82Q21 101 23 115T33 143T50 170T78 199L215 328Q275 384 300 421T326 494Q326 528 305 547T241 566Q211 566 191 559T156
542T126 526T93 518Q69 518 54 534T38 578V593Q38 621 51 641T103 679Q135 693 177 701T263 709Q385 709 452 660T520 504Q520 467 509 435T476 372T423 310T353 245L238 144H457Z" />
<glyph unicode="3" glyph-name="three" horiz-adv-x="541" d="M210 124Q259 124 291 145T324 210Q324 246 302 265T224 290L214 291Q152 297 152 348V359Q152 411 208 417L218 418Q268 423 294 439T321 495Q321 571 234 571Q205 571 186 565T151 551T122 537T92
530Q69 530 54 544T38 586V600Q38 630 51 648T98 680Q132 694 172 701T257 709Q312 709 358 698T436 664T486 606T504 521Q504 452 469 416T373 362V358Q442 347 479 308T516 199Q516 149 495 110T436 45T345 5T227 -9Q130 -9 75 14Q46 26 31 43T15 92V108Q15 134
30 151T73 169Q90 169 102 162T129 146T162 131T210 124Z" />
<glyph unicode="4" glyph-name="four" horiz-adv-x="607" d="M512 77Q512 38 491 19T436 0H401Q368 0 346 19T324 77V146H86Q53 146 35 164T17 214V231Q17 246 19 260T27 288T43 319T71 358L283 632Q297 650 310 663T337 685T367 698T405 702H437Q469 702 490
684T512 627V271H542Q571 271 583 256T595 218V200Q595 177 583 162T542 146H512V77ZM156 271H327V495H323L156 275V271Z" />
<glyph unicode="5" glyph-name="five" horiz-adv-x="552" d="M228 -9Q190 -9 155 -5T94 9Q54 23 37 43T20 96V107Q20 136 35 153T78 170Q94 170 107 163T136 148T170 132T217 125Q271 125 303 151T336 227Q336 276 311 299T246 322Q223 322 206 316T174 303T142
289T104 283Q43 283 43 344V618Q43 660 66 680T125 700H426Q461 700 476 681T492 634V622Q492 595 477 576T426 556H178V413H181Q199 427 230 438T309 449Q355 449 395 436T464 396T510 328T527 229Q527 173 506 129T446 54T352 7T228 -9Z" />
<glyph unicode="6" glyph-name="six" horiz-adv-x="624" d="M381 445Q429 445 469 432T539 391T584 324T600 232Q600 178 581 134T526 58T439 9T324 -9Q259 -9 205 11T111 74T50 181T28 335Q28 425 52 494T122 611T235 684T388 709Q427 709 457 704T508 691Q534
681 547 665T560 619V603Q560 571 545 556T507 540Q493 540 481 545T456 555T426 566T385 571Q309 571 271 528T222 397Q253 422 294 433T381 445ZM320 325Q291 325 264 317T219 297Q220 245 227 210T247 153T278 122T320 112Q371 112 392 142T413 224Q413 325
320 325Z" />
<glyph unicode="7" glyph-name="seven" d="M169 -4Q149 -4 134 4T111 26T104 59T117 102L357 548V552H83Q48 552 33 571T18 618V634Q18 662 33 681T83 700H438Q470 700 489 683T508 631V610Q508 573 501 540T479 473L317 79Q298 34 274 15T215 -4H169Z" />
<glyph unicode="8" glyph-name="eight" horiz-adv-x="616" d="M308 -9Q168 -9 95 46T22 199Q22 266 56 308T156 372V376Q50 412 50 522Q50 566 69 600T122 659T204 696T308 709Q365 709 412 696T493 659T547 601T566 522Q566 411 461 376V372Q527 351 560 309T594
199Q594 102 521 47T308 -9ZM308 112Q360 112 385 141T411 213Q411 256 386 285T308 314Q255 314 230 285T205 213Q205 170 230 141T308 112ZM308 427Q346 427 368 447T390 506Q390 544 368 565T308 586Q269 586 248 565T226 506Q226 468 247 448T308 427Z" />
<glyph unicode="9" glyph-name="nine" horiz-adv-x="624" d="M247 253Q197 253 156 266T86 307T41 374T24 466Q24 520 43 564T99 641T186 691T300 709Q365 709 419 689T513 626T575 518T597 364Q597 186 506 89T234 -9Q171 -9 127 2Q90 12 74 33T57 84V98Q57 127
73 142T116 158Q129 158 140 153T165 143T196 132T236 127Q279 127 309 138T358 170T388 223T402 297Q370 274 329 264T247 253ZM304 374Q333 374 359 382T405 401Q403 454 396 489T376 546T345 577T304 586Q253 586 232 555T211 472Q211 374 304 374Z" />
<glyph unicode=":" glyph-name="colon" horiz-adv-x="238" d="M213 84Q213 65 206 49T186 20T156 0T119 -7Q99 -7 82 0T52 19T32 48T25 84Q25 103 32 119T52 148T82 168T119 175Q138 175 155 168T185 149T205 120T213 84ZM213 367Q213 348 206 332T186 303T156
284T119 277Q79 277 52 303T25 367Q25 386 32 403T52 432T82 452T119 459Q138 459 155 452T185 433T205 403T213 367Z" />
<glyph unicode=";" glyph-name="semicolon" horiz-adv-x="238" d="M213 367Q213 348 206 332T186 303T156 284T119 277Q79 277 52 303T25 367Q25 386 32 403T52 432T82 452T119 459Q138 459 155 452T185 433T205 403T213 367ZM19 -73Q19 -58 26 -50T55 -34Q76
-26 83 -19T90 -2Q90 8 82 14T59 31Q44 41 34 55T24 96Q24 131 49 153T114 175Q154 175 183 148T213 66Q213 -9 175 -54T66 -107Q44 -109 32 -101T19 -75V-73Z" />
<glyph unicode="&lt;" glyph-name="less" horiz-adv-x="473" d="M78 243Q46 259 33 278T20 326V334Q20 361 32 380T78 415L356 550Q394 568 421 554T449 502V492Q449 467 436 449T386 414L209 332V329L386 246Q421 229 435 211T449 168V157Q449 119 422 105T356
108L78 243Z" />
<glyph unicode="=" glyph-name="equal" horiz-adv-x="506" d="M483 414Q483 387 469 369T420 350H87Q52 350 38 368T23 414V420Q23 446 37 464T87 483H420Q454 483 468 465T483 420V414ZM483 204Q483 177 469 159T420 140H87Q52 140 38 158T23 204V210Q23 236
37 254T87 273H420Q454 273 468 255T483 210V204Z" />
<glyph unicode="&gt;" glyph-name="greater" horiz-adv-x="473" d="M117 105Q79 88 52 102T24 154V165Q24 190 38 208T87 243L264 326V329L87 411Q52 427 38 445T24 489V499Q24 537 51 551T117 548L395 413Q428 396 440 377T453 331V323Q453 296 440 277T395 241L117
105Z" />
<glyph unicode="?" glyph-name="question" horiz-adv-x="466" d="M178 215Q147 215 130 230T112 277Q112 306 128 338T179 403Q195 418 208 431T232 457T249 485T255 516Q255 544 237 558T188 573Q166 573 151 567T122 553T95 539T64 532Q42 532 30 546T17 589V604Q17
631 29 651T74 685Q102 697 136 703T210 709Q322 709 381 662T441 527Q441 473 421 439T371 378Q344 352 315 326T268 265Q254 237 238 226T191 215H178ZM279 84Q279 65 272 49T252 20T222 0T185 -7Q165 -7 148 0T119 19T99 48T91 84Q91 103 98 119T118 148T148
168T185 175Q204 175 221 168T251 149T271 120T279 84Z" />
<glyph unicode="@" glyph-name="at" horiz-adv-x="884" d="M692 -82Q644 -108 578 -121T443 -134Q362 -134 287 -113T152 -46T58 71T22 240Q22 344 62 423T166 557T308 639T465 667Q547 667 619 645T745 581T830 477T862 336Q862 266 841 215T783 131T701 82T603
66Q543 66 513 83T471 129Q449 105 418 86T340 67Q285 67 251 103T217 210Q217 255 232 299T276 378T345 435T437 457Q475 457 498 445T538 415Q552 435 567 444T606 453H627Q653 453 662 440T667 403L624 213Q619 190 623 175T649 159Q670 159 689 169T724 201T747
256T756 336Q756 393 736 437T678 513T586 560T465 577Q402 577 343 557T237 494T162 389T134 240Q134 165 158 111T224 23T322 -28T443 -44Q508 -44 548 -34T615 -11T659 11T694 22Q735 22 735 -20V-22Q735 -60 692 -82ZM463 354Q441 354 424 343T394 312T374
269T367 217Q367 169 405 169Q421 169 437 176T466 197L501 348Q495 350 487 352T463 354Z" />
<glyph unicode="A" glyph-name="A" horiz-adv-x="696" d="M87 0Q53 0 37 24T35 91L217 622Q231 662 258 681T323 700H375Q451 700 478 620L659 97Q667 75 666 57T656 27T633 7T602 0H559Q524 0 503 16T471 70L443 159H219L192 69Q171 0 114 0H87ZM258 288H404L331
524H329L258 288Z" />
<glyph unicode="B" glyph-name="B" horiz-adv-x="629" d="M245 124H316Q365 124 388 147T412 214Q412 303 316 303H245V124ZM245 420H310Q396 420 396 498Q396 575 311 575H245V420ZM139 0Q102 0 80 21T57 82V618Q57 657 79 678T139 700H319Q450 700 514 656T579
517Q579 452 545 418T453 370V366Q523 353 564 315T605 203Q605 103 532 52T324 0H139Z" />
<glyph unicode="C" glyph-name="C" horiz-adv-x="632" d="M541 24Q510 9 466 0T372 -9Q293 -9 230 14T121 83T52 195T28 346Q28 432 54 499T127 613T240 684T388 709Q480 709 540 684Q569 671 584 652T600 601V587Q600 558 584 542T542 525Q524 525 510 532T479
549T441 565T388 573Q312 573 268 519T224 353Q224 233 264 179T384 125Q421 125 444 134T485 155T516 176T549 186Q576 186 591 170T607 128V117Q607 85 591 63T541 24Z" />
<glyph unicode="D" glyph-name="D" horiz-adv-x="703" d="M139 0Q102 0 80 21T57 82V618Q57 657 79 678T139 700H305Q486 700 581 615T676 354Q676 176 582 88T299 0H139ZM249 129H296Q390 129 435 179T480 349Q480 409 469 450T436 518T379 555T296 567H249V129Z" />
<glyph unicode="E" glyph-name="E" horiz-adv-x="583" d="M139 0Q102 0 80 21T57 82V618Q57 657 79 678T139 700H478Q507 700 523 684T540 638V629Q540 599 524 583T478 566H248V418H401Q430 418 446 403T463 357V352Q463 321 447 306T401 291H248V130H489Q518
130 534 115T551 69V62Q551 31 535 16T489 0H139Z" />
<glyph unicode="F" glyph-name="F" horiz-adv-x="573" d="M249 78Q249 41 228 21T171 0H135Q100 0 79 20T57 78V618Q57 657 79 678T139 700H481Q510 700 526 684T543 638V629Q543 599 527 583T481 566H249V402H414Q443 402 459 386T475 340V334Q475 302 459 287T414
271H249V78Z" />
<glyph unicode="G" glyph-name="G" horiz-adv-x="684" d="M552 15Q517 4 470 -2T372 -9Q200 -9 114 83T27 346Q27 433 52 501T124 615T239 685T394 709Q491 709 549 686Q577 675 591 657T605 608V589Q605 557 590 543T551 528Q534 528 521 534T492 549T452 564T393
571Q353 571 322 559T269 521T236 453T225 350Q225 227 261 173T371 119Q399 119 417 121T451 129V247H410Q354 247 354 306V314Q354 373 414 373H555Q593 373 613 351T633 291V116Q633 74 614 52T552 15Z" />
<glyph unicode="H" glyph-name="H" horiz-adv-x="713" d="M249 78Q249 40 228 20T171 0H135Q100 0 79 20T57 78V622Q57 658 78 679T135 700H171Q207 700 228 679T249 622V424H464V622Q464 658 485 679T541 700H578Q613 700 634 679T656 622V78Q656 40 635 20T578
0H541Q506 0 485 20T464 78V289H249V78Z" />
<glyph unicode="I" glyph-name="I" horiz-adv-x="313" d="M253 79Q253 39 230 20T175 0H138Q106 0 83 19T60 79V622Q60 657 80 678T138 700H175Q213 700 233 679T253 622V79Z" />
<glyph unicode="J" glyph-name="J" horiz-adv-x="492" d="M439 201Q439 98 378 45T188 -9Q159 -9 132 -6T82 5Q50 16 33 34T16 88V104Q16 131 30 147T73 164Q87 164 98 159T119 147T142 135T173 129Q247 129 247 201V622Q247 658 267 679T325 700H362Q399 700
419 679T439 622V201Z" />
<glyph unicode="K" glyph-name="K" horiz-adv-x="697" d="M249 411L449 649Q475 680 495 690T542 700H569Q588 700 602 691T621 668T623 635T604 600L450 424L635 111Q647 90 649 71T645 35T622 10T583 0H543Q512 0 492 13T450 63L314 290L249 219V79Q249 39 227
20T171 0H135Q102 0 80 19T57 79V622Q57 657 77 678T135 700H171Q209 700 229 679T249 622V411Z" />
<glyph unicode="L" glyph-name="L" horiz-adv-x="554" d="M139 0Q102 0 80 21T57 82V622Q57 657 77 678T135 700H171Q209 700 229 679T249 622V132H464Q495 132 512 114T529 70V62Q529 36 512 18T464 0H139Z" />
<glyph unicode="M" glyph-name="M" horiz-adv-x="883" d="M124 0Q94 0 76 17T57 68V618Q57 656 79 678T139 700H237Q272 700 295 682T332 622L441 284H444L553 622Q567 664 590 682T648 700H744Q782 700 804 678T826 618V77Q826 39 805 20T749 0H715Q681 0 660
19T638 77V483H635L495 54Q484 21 467 8T424 -5H422Q397 -5 380 8T351 55L213 483H210V68Q210 34 192 17T143 0H124Z" />
<glyph unicode="N" glyph-name="N" horiz-adv-x="709" d="M125 0Q96 0 77 17T57 69V618Q57 656 79 678T139 700H195Q233 700 257 683T303 628L491 295H494V631Q494 667 514 683T564 700H584Q613 700 632 684T652 631V73Q652 38 631 19T576 0H539Q505 0 484 14T442
63L217 459H214V69Q214 34 195 17T146 0H125Z" />
<glyph unicode="O" glyph-name="O" horiz-adv-x="744" d="M718 349Q718 262 691 196T616 84T506 15T372 -9Q301 -9 238 14T128 83T54 195T27 349Q27 436 54 503T129 615T239 685T372 709Q442 709 505 685T615 616T690 503T718 349ZM222 347Q222 229 264 176T372
122Q438 122 480 175T522 347Q522 465 480 519T372 574Q306 574 264 520T222 347Z" />
<glyph unicode="P" glyph-name="P" horiz-adv-x="621" d="M135 0Q102 0 80 19T57 79V618Q57 657 79 678T139 700H314Q457 700 528 645T600 473Q600 357 526 302T307 246H249V79Q249 39 227 20T171 0H135ZM248 571V366H306Q365 366 387 394T410 471Q410 521 389
546T306 571H248Z" />
<glyph unicode="Q" glyph-name="Q" horiz-adv-x="744" d="M690 -121Q680 -121 669 -119T640 -112L353 -31Q276 -10 216 21T113 97T49 205T27 352Q27 437 54 503T129 616T239 685T372 709Q443 709 506 685T616 616T690 503T718 350Q718 237 668 165T534 60V57L675
37Q711 32 726 16T741 -35V-69Q741 -95 727 -108T690 -121ZM222 347Q222 287 233 244T264 173T311 132T372 119Q405 119 432 132T480 172T511 243T522 347Q522 465 480 519T372 574Q306 574 264 520T222 347Z" />
<glyph unicode="R" glyph-name="R" horiz-adv-x="660" d="M512 0Q483 0 462 15T421 67L320 257H249V78Q249 39 227 20T171 0H135Q102 0 80 19T57 78V618Q57 657 79 678T139 700H320Q460 700 530 646T600 486Q600 420 573 374T496 299L602 106Q614 85 615 66T609
32T586 9T550 0H512ZM247 570V382H308Q362 382 386 405T410 476Q410 523 386 546T308 570H247Z" />
<glyph unicode="S" glyph-name="S" horiz-adv-x="556" d="M531 212Q531 106 460 49T250 -9Q196 -9 152 -1T78 20Q48 34 35 53T21 102V116Q21 145 35 162T77 179Q95 179 108 171T139 152T180 133T243 124Q297 124 325 142T354 193Q354 215 344 228T316 250T274
265T220 279Q172 292 136 309T74 351T37 411T24 496Q24 550 43 590T98 656T181 696T287 709Q378 709 438 686Q497 664 497 608V595Q497 567 483 552T445 536Q429 536 416 542T385 555T346 569T289 576Q192 576 192 511Q192 478 221 463T308 434Q369 419 412 401T481
358T519 297T531 212Z" />
<glyph unicode="T" glyph-name="T" horiz-adv-x="603" d="M397 567V79Q397 39 375 20T320 0H283Q250 0 228 19T205 79V567H83Q54 567 38 582T21 628V639Q21 669 37 684T83 700H519Q548 700 565 685T582 639V628Q582 598 565 583T519 567H397Z" />
<glyph unicode="U" glyph-name="U" horiz-adv-x="695" d="M246 267Q246 228 254 202T277 160T314 138T367 131Q395 131 416 137T452 159T474 201T481 267V631Q481 665 499 682T549 700H572Q603 700 621 683T640 631V266Q640 132 572 62T355 -8Q206 -8 130 62T54
266V622Q54 657 74 678T132 700H169Q206 700 226 679T246 622V267Z" />
<glyph unicode="V" glyph-name="V" horiz-adv-x="685" d="M486 635Q506 700 563 700H593Q633 700 649 674T651 605L473 86Q456 36 431 18T368 0H317Q279 0 253 18T210 86L37 597Q22 642 40 671T101 700H144Q202 700 225 628L353 220H355L486 635Z" />
<glyph unicode="W" glyph-name="W" horiz-adv-x="945" d="M750 630Q763 700 827 700H854Q892 700 907 675T915 611L789 87Q777 39 752 20T687 0H648Q610 0 584 19T547 87L471 411H469L393 86Q382 38 357 19T292 0H257Q219 0 193 19T156 86L33 602Q22 645 39 672T97
700H137Q170 700 191 682T221 625L299 241H301L391 627Q408 704 478 704H493Q528 704 548 686T578 626L671 241H673L750 630Z" />
<glyph unicode="X" glyph-name="X" horiz-adv-x="679" d="M204 60Q184 27 166 14T117 0H96Q74 0 60 9T39 34T35 67T49 104L210 362L60 588Q46 608 44 628T49 664T72 690T112 700H155Q180 700 200 687T242 642L355 471L456 640Q476 673 494 686T543 700H564Q586
700 600 691T621 668T625 635T611 597L464 360L623 113Q636 92 638 72T634 36T610 10T571 0H530Q505 0 484 13T442 58L318 251L204 60Z" />
<glyph unicode="Y" glyph-name="Y" horiz-adv-x="635" d="M555 700Q576 700 589 692T609 671T614 640T602 605L419 265V79Q419 39 397 20T341 0H305Q272 0 250 19T227 79V261L38 599Q27 618 27 636T34 668T57 691T95 700H131Q163 700 183 683T224 628L333 427H335L444
636Q461 668 480 684T528 700H555Z" />
<glyph unicode="Z" glyph-name="Z" horiz-adv-x="574" d="M338 563V567H110Q80 567 64 584T48 629V639Q48 666 64 683T110 700H476Q508 700 526 683T544 635V616Q544 599 542 585T536 559T523 533T503 502L233 135V131H483Q514 131 529 114T545 71V62Q545 34 530
17T483 0H94Q67 0 47 18T27 66V80Q27 96 29 110T36 137T49 166T72 199L338 563Z" />
<glyph unicode="[" glyph-name="bracketleft" horiz-adv-x="345" d="M144 -49Q110 -49 87 -29T63 33V659Q63 701 86 721T144 741H266Q297 741 310 725T323 684V680Q323 657 311 642T268 626H225V66H268Q298 66 310 51T323 12V8Q323 -16 310 -32T266 -49H144Z" />
<glyph unicode="\" glyph-name="backslash" horiz-adv-x="370" d="M353 32Q364 -4 349 -28T299 -53H289Q237 -53 220 8L20 660Q9 696 23 720T73 745H84Q134 745 153 684L353 32Z" />
<glyph unicode="]" glyph-name="bracketright" horiz-adv-x="345" d="M79 -49Q48 -49 36 -33T23 8V12Q23 35 35 50T77 66H120V626H77Q47 626 35 641T23 680V684Q23 708 35 724T79 741H201Q235 741 259 721T283 659V33Q283 -9 259 -29T201 -49H79Z" />
<glyph unicode="^" glyph-name="asciicircum" horiz-adv-x="444" d="M224 707Q256 707 280 693T327 644L390 550Q399 537 402 525T406 502Q406 476 389 460T347 444H344Q322 444 305 457T266 499L223 561H220L178 499Q158 469 140 457T100 444H97Q72 444 55 459T37
501Q37 524 53 550L116 644Q139 678 163 692T219 707H224Z" />
<glyph unicode="_" glyph-name="underscore" horiz-adv-x="382" d="M389 -109Q389 -130 377 -146T335 -162H47Q18 -162 6 -146T-7 -109V-107Q-7 -84 5 -69T47 -53H335Q364 -53 376 -68T389 -107V-109Z" />
<glyph unicode="`" glyph-name="grave" horiz-adv-x="400" d="M253 618Q261 589 247 572T205 554H199Q158 554 118 591L81 626Q67 639 64 653T64 680T81 700T111 708H166Q228 708 244 650L253 618Z" />
<glyph unicode="a" glyph-name="a" horiz-adv-x="555" d="M409 0Q383 0 366 13T340 51Q311 20 274 7T189 -7Q154 -7 123 3T70 32T34 82T21 151Q21 192 36 222T78 273T144 304T228 314Q286 314 329 304V341Q329 375 309 391T240 407Q213 407 194 402T161 390T135
378T108 372Q87 372 73 387T59 426V436Q59 463 72 482T117 512Q181 535 275 535Q393 535 451 493T509 353V76Q509 0 440 0H409ZM259 98Q279 98 297 106T329 127V220Q315 222 300 223T270 225Q234 225 213 211T192 162Q192 128 211 113T259 98Z" />
<glyph unicode="b" glyph-name="b" horiz-adv-x="609" d="M148 700Q192 700 210 676T229 590V474Q258 500 296 517T386 535Q423 535 459 522T523 479T568 398T585 274Q585 199 567 146T519 58T448 8T362 -8Q310 -8 273 6T208 49Q196 26 179 13T141 0H117Q86 0
68 18T49 76V624Q49 700 121 700H148ZM229 132Q244 121 261 116T302 110Q322 110 340 116T372 138T394 183T403 258Q403 303 396 331T375 374T343 396T304 402Q287 402 267 397T229 384V132Z" />
<glyph unicode="c" glyph-name="c" horiz-adv-x="510" d="M426 10Q401 0 369 -4T302 -8Q169 -8 96 61T22 262Q22 326 43 376T103 462T194 516T313 535Q380 535 427 519Q456 509 470 492T485 444V432Q485 403 472 390T437 376Q424 376 413 381T389 392T360 403T321
408Q269 408 237 372T204 260Q204 185 234 151T317 116Q342 116 359 121T390 134T413 146T436 152Q461 152 472 138T484 97V88Q484 59 470 41T426 10Z" />
<glyph unicode="d" glyph-name="d" horiz-adv-x="609" d="M560 76Q560 0 488 0H457Q405 0 389 56Q365 29 327 10T235 -9Q190 -9 152 7T85 55T40 138T24 256Q24 334 43 387T94 473T164 520T243 535Q294 535 325 522T380 485V624Q380 700 452 700H481Q524 700 542
676T560 590V76ZM309 402Q289 402 271 396T238 375T215 331T206 260Q206 177 229 144T297 110Q322 110 341 117T380 142V383Q350 402 309 402Z" />
<glyph unicode="e" glyph-name="e" horiz-adv-x="559" d="M203 224Q206 191 215 169T241 135T278 117T327 112Q359 112 380 118T417 131T445 144T471 150Q494 150 506 137T519 98V90Q519 65 507 49T470 21Q440 7 399 0T299 -8Q161 -8 92 63T22 260Q22 323 41 374T96
461T181 516T290 535Q354 535 400 518T477 468T523 390T538 291Q538 224 467 224H203ZM291 425Q275 425 261 421T236 404T216 371T204 318H368Q366 379 347 402T291 425Z" />
<glyph unicode="f" glyph-name="f" horiz-adv-x="365" d="M254 75Q254 38 233 19T180 0H148Q116 0 95 19T74 75V411H61Q39 411 25 423T10 465V473Q10 502 24 514T61 527H74V559Q74 640 121 675T253 711Q269 711 283 710T311 706Q353 697 353 653V645Q353 622 341
612T303 597Q279 593 267 584T254 553V527H295Q317 527 332 515T347 473V465Q347 436 332 424T295 411H254V75Z" />
<glyph unicode="g" glyph-name="g" horiz-adv-x="609" d="M380 72Q355 51 319 39T239 26Q195 26 156 39T88 81T41 156T24 270Q24 344 43 394T95 476T167 521T250 535Q299 535 333 520T395 476Q406 499 423 513T467 528H491Q523 528 541 510T560 453V40Q560 -65
483 -117T269 -170Q219 -170 175 -164T102 -146Q76 -136 63 -120T49 -77V-67Q49 -42 62 -26T102 -10Q117 -10 128 -15T154 -27T190 -39T246 -45Q315 -45 347 -24T380 45V72ZM301 140Q323 140 343 147T380 167V381Q365 392 348 397T307 402Q287 402 269 397T237
378T215 339T206 275Q206 234 212 208T230 167T259 146T301 140Z" />
<glyph unicode="h" glyph-name="h" horiz-adv-x="604" d="M316 397Q291 397 270 392T229 380V75Q229 38 208 19T155 0H123Q91 0 70 19T49 75V624Q49 700 121 700H148Q191 700 210 676T229 590V466Q264 495 311 515T415 535Q445 535 471 528T516 504T547 459T558
386V75Q558 38 537 19T484 0H453Q420 0 399 19T378 75V339Q378 374 363 385T316 397Z" />
<glyph unicode="i" glyph-name="i" horiz-adv-x="280" d="M233 643Q233 606 207 583T140 559Q100 559 74 582T47 643Q47 680 73 704T140 728Q181 728 207 704T233 643ZM229 75Q229 38 209 19T155 0H124Q92 0 71 19T50 75V452Q50 527 122 527H149Q191 527 210 503T229
421V75Z" />
<glyph unicode="j" glyph-name="j" horiz-adv-x="280" d="M233 643Q233 606 207 583T140 559Q100 559 74 582T47 643Q47 680 73 704T140 728Q181 728 207 704T233 643ZM229 -7Q229 -94 185 -131T54 -169Q40 -169 27 -168T1 -164Q-43 -154 -43 -111V-106Q-43 -86
-34 -75T-4 -58Q13 -55 23 -51T40 -40T48 -23T50 4V452Q50 527 122 527H149Q192 527 210 503T229 421V-7Z" />
<glyph unicode="k" glyph-name="k" horiz-adv-x="578" d="M274 206L229 156V75Q229 38 208 19T155 0H123Q91 0 70 19T49 75V624Q49 700 121 700H148Q191 700 210 676T229 590V327L362 482Q382 505 400 516T442 527H468Q486 527 499 518T516 494T517 461T496 425L400
319L535 98Q546 80 547 62T541 31T520 9T486 0H449Q423 0 404 12T362 61L274 206Z" />
<glyph unicode="l" glyph-name="l" horiz-adv-x="282" d="M150 700Q193 700 212 675T231 590V75Q231 38 210 19T157 0H125Q93 0 72 19T51 75V624Q51 700 123 700H150Z" />
<glyph unicode="m" glyph-name="m" horiz-adv-x="911" d="M308 397Q286 397 266 392T229 382V75Q229 38 208 19T155 0H123Q91 0 70 19T49 75V452Q49 527 121 527H152Q179 527 197 513T224 460Q259 492 305 513T407 535Q451 535 485 519T536 460Q574 494 622 514T725
535Q754 535 779 528T824 503T854 458T865 386V75Q865 38 844 19T791 0H759Q727 0 706 19T685 75V339Q685 372 672 384T626 397Q604 397 584 392T547 381V75Q547 38 526 19T473 0H441Q409 0 388 19T367 75V339Q367 372 354 384T308 397Z" />
<glyph unicode="n" glyph-name="n" horiz-adv-x="604" d="M316 397Q291 397 270 392T229 380V75Q229 38 208 19T155 0H123Q91 0 70 19T49 75V452Q49 527 121 527H149Q177 527 196 514T223 461Q258 491 307 513T415 535Q445 535 471 528T516 504T547 459T558 386V75Q558
38 537 19T484 0H453Q420 0 399 19T378 75V339Q378 374 363 385T316 397Z" />
<glyph unicode="o" glyph-name="o" horiz-adv-x="603" d="M582 261Q582 198 561 148T502 64T413 11T302 -8Q242 -8 191 10T103 63T44 148T22 261Q22 324 43 375T102 461T191 516T302 535Q361 535 412 516T501 462T560 375T582 261ZM203 259Q203 181 230 146T302
110Q347 110 373 145T400 259Q400 338 374 375T302 413Q257 413 230 376T203 259Z" />
<glyph unicode="p" glyph-name="p" horiz-adv-x="609" d="M229 -88Q229 -125 208 -143T155 -162H123Q91 -162 70 -144T49 -88V452Q49 527 121 527H152Q179 527 196 515T222 469Q251 498 290 516T386 535Q423 535 459 522T523 479T568 399T585 278Q585 203 566
151T516 66T443 20T358 5Q315 5 284 14T229 42V-88ZM305 402Q288 402 268 397T229 384V142Q259 121 302 121Q323 121 341 126T373 148T395 191T403 262Q403 304 396 331T375 374T343 396T305 402Z" />
<glyph unicode="q" glyph-name="q" horiz-adv-x="609" d="M454 -162Q422 -162 401 -144T380 -88V51Q355 30 319 18T239 5Q195 5 156 19T88 65T41 145T24 261Q24 338 43 390T95 475T167 521T250 535Q300 535 334 519T395 474Q415 527 467 527H491Q523 527 541 509T560
452V-88Q560 -125 539 -143T486 -162H454ZM301 122Q323 122 343 129T380 149V381Q365 392 348 397T307 402Q287 402 269 396T237 375T215 333T206 267Q206 225 211 197T228 153T258 129T301 122Z" />
<glyph unicode="r" glyph-name="r" horiz-adv-x="418" d="M152 527Q178 527 196 511T223 453Q236 471 252 485T285 510T320 526T353 532Q377 532 391 519T405 474V444Q405 382 341 378Q305 375 277 370T229 358V75Q229 38 208 19T155 0H123Q91 0 70 19T49 75V452Q49
527 121 527H152Z" />
<glyph unicode="s" glyph-name="s" horiz-adv-x="471" d="M451 172Q451 87 394 40T216 -7Q133 -7 83 12Q24 34 24 87V95Q24 121 37 136T74 152Q87 152 99 146T125 133T159 120T209 114Q245 114 266 123T288 152Q288 162 284 169T270 182T241 191T196 199Q154 204
122 215T68 245T35 292T23 362Q23 405 39 437T84 491T153 523T244 534Q322 534 369 518Q400 508 413 492T426 451V437Q426 411 413 398T379 384Q365 384 353 389T326 399T293 410T250 415Q212 415 196 406T180 377Q180 360 199 351T269 336Q315 330 349 320T406
291T440 243T451 172Z" />
<glyph unicode="t" glyph-name="t" horiz-adv-x="373" d="M61 411Q37 411 24 424T10 465V473Q10 499 23 513T61 527H73V591Q73 626 93 645T148 665H180Q214 665 233 646T253 591V527H302Q328 527 341 513T355 473V465Q355 439 342 425T302 411H253V171Q253 136
265 124T306 109Q329 107 341 98T355 64V52Q355 5 305 -5Q282 -9 244 -9Q206 -9 175 -2T121 24T86 71T73 144V411H61Z" />
<glyph unicode="u" glyph-name="u" horiz-adv-x="612" d="M457 0Q429 0 412 14T387 62Q351 33 305 13T204 -8Q171 -8 143 -1T95 24T62 71T50 143V453Q50 488 70 507T124 527H156Q190 527 210 508T230 453V184Q230 149 246 137T298 124Q319 124 340 129T380 141V453Q380
488 399 507T454 527H485Q520 527 539 508T559 453V76Q559 0 488 0H457Z" />
<glyph unicode="v" glyph-name="v" horiz-adv-x="575" d="M135 527Q163 527 180 509T212 453L300 198H303L386 459Q397 494 413 510T458 527H488Q528 527 541 499T540 433L407 74Q393 35 366 18T307 0H274Q242 0 215 17T173 74L39 425Q22 471 39 499T94 527H135Z" />
<glyph unicode="w" glyph-name="w" horiz-adv-x="818" d="M410 288H407L340 73Q326 31 305 16T252 0H228Q196 0 175 15T140 74L33 431Q20 475 36 501T92 527H125Q189 527 208 453L266 225H269L339 458Q350 496 369 512T421 529H428Q459 529 477 512T507 457L573
225H576L639 462Q656 527 714 527H738Q771 527 785 503T788 442L676 74Q663 31 641 16T587 0H562Q530 0 509 16T474 74L410 288Z" />
<glyph unicode="x" glyph-name="x" horiz-adv-x="567" d="M163 269L59 424Q46 443 44 462T47 495T69 518T105 527H141Q167 527 186 514T228 469L297 365L363 472Q381 501 398 514T443 527H456Q477 527 492 518T513 495T518 462T502 424L407 279L518 105Q531 85
533 66T529 33T510 9T477 0H435Q409 0 389 12T349 58L273 179L193 56Q174 27 157 14T113 0H84Q66 0 53 8T34 29T29 60T45 98L163 269Z" />
<glyph unicode="y" glyph-name="y" horiz-adv-x="567" d="M319 -97Q305 -132 285 -147T234 -162H202Q185 -162 172 -155T151 -136T144 -108T154 -71L202 29L34 428Q16 470 32 498T86 527H124Q154 527 173 510T207 455L295 228H298L383 460Q396 495 412 511T458
527H482Q524 527 538 500T535 430L319 -97Z" />
<glyph unicode="z" glyph-name="z" horiz-adv-x="503" d="M269 403H93Q64 403 49 419T34 462V467Q34 493 49 510T93 527H412Q444 527 462 511T480 464V457Q480 429 470 408T437 360L229 122H415Q443 122 458 106T474 64V59Q474 33 459 17T415 0H88Q56 0 38 17T20
65V70Q20 96 29 117T63 166L269 403Z" />
<glyph unicode="{" glyph-name="braceleft" horiz-adv-x="378" d="M301 619Q279 619 270 605T261 568V462Q261 421 241 394T168 352Q222 337 241 310T261 241V124Q261 101 270 87T301 73H307Q338 73 351 59T365 19V5Q365 -20 352 -34T307 -49H251Q98 -49 98 88V229Q98
258 88 271T52 290L47 291Q27 295 18 306T9 342V360Q9 385 18 396T47 411L52 412Q78 417 88 431T98 474V605Q98 741 253 741H307Q338 741 351 727T365 687V673Q365 648 352 634T307 619H301Z" />
<glyph unicode="|" glyph-name="bar" horiz-adv-x="200" d="M105 746Q131 746 149 731T167 683V10Q167 -22 148 -38T103 -54H96Q69 -54 51 -38T33 10V683Q33 715 51 730T97 746H105Z" />
<glyph unicode="}" glyph-name="braceright" horiz-adv-x="378" d="M70 619Q39 619 26 633T12 673V687Q12 712 25 726T70 741H124Q279 741 279 605V474Q279 445 289 431T325 412L330 411Q350 407 359 396T368 360V342Q368 318 359 307T330 291L325 290Q299 285
289 272T279 229V88Q279 -49 126 -49H70Q39 -49 26 -35T12 5V19Q12 44 25 58T70 73H76Q98 73 107 87T116 124V241Q116 282 135 309T209 352Q156 366 136 393T116 462V568Q116 591 107 605T76 619H70Z" />
<glyph unicode="~" glyph-name="asciitilde" horiz-adv-x="408" d="M272 210Q252 210 235 215T202 225T174 236T150 241Q134 241 124 235T105 222T87 208T65 202H63Q38 202 25 222T20 284Q29 326 59 350T136 375Q155 375 172 370T205 360T234 349T258 344Q274
344 284 350T303 363T321 377T343 383H345Q370 383 383 363T388 301Q378 259 349 235T272 210Z" />
<glyph unicode="&#xa1;" glyph-name="exclamdown" horiz-adv-x="303" d="M154 414Q178 414 196 400T217 353Q225 268 232 197Q235 167 237 137T242 81T245 36T247 9Q247 -29 228 -50T169 -72H133Q94 -72 75 -51T56 9Q56 17 57 36T60 80T65 136T71 197Q77 268 86
353Q89 385 107 399T149 414H154ZM245 548Q245 529 238 513T218 484T188 464T151 457Q131 457 114 464T85 483T65 512T57 548Q57 567 64 583T84 612T114 632T151 639Q170 639 187 632T217 613T237 584T245 548Z" />
<glyph unicode="&#xa2;" glyph-name="cent" horiz-adv-x="522" d="M367 532Q401 529 430 520Q465 509 477 491T489 443V431Q489 377 443 377Q423 377 407 386T367 403V120Q380 124 390 129T409 138T426 146T443 150Q468 150 478 135T489 96V86Q489 58 476 41T430
10Q416 5 400 2T367 -4V-64Q367 -89 354 -98T324 -107H320Q302 -107 289 -98T276 -64V-7Q156 1 89 69T21 262Q21 321 39 368T92 450T172 506T276 533V559Q276 584 289 593T320 602H324Q341 602 354 593T367 559V532ZM203 260Q203 144 276 120V401Q203 373 203 260Z"
/>
<glyph unicode="&#xa3;" glyph-name="sterling" horiz-adv-x="542" d="M414 346Q414 323 401 306T357 289H262Q263 278 263 268T264 247Q264 213 252 187T226 144H458Q493 144 508 125T523 78V66Q523 38 508 19T458 0H79Q50 0 35 16T19 61V65Q19 91 31 106T58
137T85 175T97 239Q97 252 96 264T93 289H76Q45 289 32 306T19 346V348Q19 369 29 385T66 405Q61 427 58 449T54 497Q54 549 73 588T127 655T210 695T316 709Q356 709 390 704T454 687Q487 674 499 656T512 605V587Q512 557 498 543T460 528Q444 528 432 534T406
547T375 560T333 566Q296 566 269 548T241 486Q241 446 247 406H357Q388 406 401 389T414 348V346Z" />
<glyph unicode="&#xa5;" glyph-name="yen" horiz-adv-x="608" d="M142 700Q173 700 193 683T230 629L318 450H321L408 637Q424 670 443 685T492 700H518Q537 700 550 692T569 670T574 639T563 604L449 387H523Q549 387 559 374T570 341V339Q570 319 560 306T523
292H404V245H523Q549 245 559 232T570 199V197Q570 178 560 165T523 151H404V79Q404 39 382 20T327 0H292Q260 0 238 19T215 79V151H93Q67 151 57 164T46 197V199Q46 218 56 231T93 245H215V292H93Q67 292 57 305T46 339V341Q46 360 56 373T93 387H165L51 596Q40
615 40 634T48 667T71 691T108 700H142Z" />
<glyph unicode="&#xa6;" glyph-name="brokenbar" horiz-adv-x="200" d="M33 249Q33 283 51 298T96 313H104Q130 313 149 298T168 249V12Q168 -22 149 -36T104 -50H96Q70 -50 52 -36T33 13V249ZM168 449Q168 415 149 400T104 385H96Q70 385 52 400T33 449V683Q33
717 51 731T96 746H104Q130 746 149 732T168 683V449Z" />
<glyph unicode="&#xa7;" glyph-name="section" horiz-adv-x="552" d="M489 49Q489 9 475 -24T431 -82T357 -120T251 -134Q214 -134 178 -130T112 -114Q82 -103 69 -86T55 -38V-28Q55 -4 67 10T104 24Q118 24 130 18T158 5T195 -9T247 -15Q326 -15 326 29Q326 40
321 48T303 63T269 76T217 92Q166 106 129 122T67 159T32 208T20 274Q20 328 45 360T113 409Q87 430 76 459T64 532Q64 572 79 604T123 660T193 696T286 709Q320 709 351 706T409 694Q444 683 456 666T469 623V607Q469 582 457 571T424 559Q410 559 398 564T372
575T338 586T292 591Q256 591 236 581T215 548Q215 529 236 515T314 487Q367 474 407 459T474 423T515 373T529 300Q529 259 509 224T437 165Q463 145 476 117T489 49ZM280 341Q260 346 243 351T211 361Q187 354 177 341T166 310Q166 286 184 270T258 239Q304 226
338 215Q378 232 378 268Q378 295 356 311T280 341Z" />
<glyph unicode="&#xa8;" glyph-name="dieresis" horiz-adv-x="400" d="M182 639Q182 604 159 582T98 560Q61 560 37 582T13 639Q13 674 37 696T98 719Q135 719 158 697T182 639ZM387 639Q387 604 363 582T302 560Q265 560 242 582T218 639Q218 674 241 696T302
719Q339 719 363 697T387 639Z" />
<glyph unicode="&#xa9;" glyph-name="copyright" horiz-adv-x="783" d="M500 170Q481 161 456 156T403 151Q306 151 252 202T197 350Q197 397 212 434T256 498T324 538T411 552Q429 552 449 550T489 541Q513 533 524 519T536 482V469Q536 450 526 440T500 430Q491
430 483 433T465 441T445 450T417 454Q380 454 358 429T336 349Q336 295 356 271T415 247Q434 247 447 250T469 258T487 267T504 271Q519 271 528 262T537 234V226Q537 205 528 192T500 170ZM754 350Q754 263 725 197T645 85T530 16T392 -8Q320 -8 255 15T139 84T60
196T30 350Q30 437 59 503T139 615T254 684T392 708Q464 708 529 685T645 616T724 504T754 350ZM97 350Q97 278 120 222T184 127T277 68T392 48Q453 48 506 68T600 127T663 222T686 350Q686 422 663 478T600 573T507 632T392 652Q331 652 278 632T184 573T121 478T97
350Z" />
<glyph unicode="&#xaa;" glyph-name="ordfeminine" horiz-adv-x="468" d="M350 258Q321 258 307 267T285 300Q262 274 232 263T160 252Q131 252 106 260T61 284T31 326T20 384Q20 454 68 488T193 522Q243 522 277 515V541Q277 568 261 580T204 594Q183 594 168
590T141 580T119 570T96 565Q76 565 65 578T53 612V619Q53 645 63 660T102 687Q128 697 162 702T236 708Q339 708 387 672T436 551V312Q436 283 422 271T382 258H350ZM277 441Q266 443 255 444T231 445Q203 445 187 433T170 394Q170 367 185 356T223 345Q237 345
251 351T277 367V441Z" />
<glyph unicode="&#xab;" glyph-name="guillemotleft" horiz-adv-x="526" d="M269 196Q256 217 252 231T247 260Q247 274 251 288T269 324L332 426Q349 455 369 469T416 484H427Q445 484 458 477T477 457T482 430T472 399L392 262V260L472 122Q481 106 482 91T477
64T458 45T427 37H416Q389 37 369 51T332 94L269 196ZM46 196Q33 217 29 231T24 260Q24 274 28 288T46 324L109 426Q126 455 146 469T193 484H204Q222 484 235 477T254 457T259 430T249 399L169 262V260L249 122Q258 106 259 91T254 64T235 45T204 37H193Q166 37
146 51T109 94L46 196Z" />
<glyph unicode="&#xae;" glyph-name="registered" horiz-adv-x="386" d="M378 529Q378 487 363 454T322 397T263 362T193 350Q157 350 124 362T65 397T24 453T8 529Q8 572 23 605T64 661T123 696T193 708Q229 708 262 696T321 661T362 605T378 529ZM54 529Q54
494 65 468T94 425T138 398T193 389Q222 389 247 398T291 424T321 468T332 529Q332 564 321 590T292 633T248 660T193 669Q164 669 139 660T95 634T65 590T54 529ZM273 474Q281 460 276 449T253 437H248Q236 437 227 443T210 467L193 501H179V468Q179 451 171 445T149
438H148Q134 438 126 444T117 468V585Q117 608 128 616T157 624H199Q276 624 276 562Q276 533 250 515L273 474ZM178 540H193Q215 540 215 563Q215 585 193 585H178V540Z" />
<glyph unicode="&#xaf;" glyph-name="macron" horiz-adv-x="400" d="M286 687Q315 687 327 672T340 634V632Q340 610 328 595T286 579H114Q85 579 73 594T60 632V634Q60 656 72 671T114 687H286Z" />
<glyph unicode="&#xb0;" glyph-name="degree" horiz-adv-x="352" d="M328 562Q328 529 316 503T283 457T235 428T176 417Q145 417 118 427T70 457T37 502T25 562Q25 595 37 621T69 666T117 695T176 706Q207 706 234 696T283 667T316 622T328 562ZM114 562Q114
531 131 512T176 493Q205 493 222 512T240 562Q240 593 223 611T176 630Q148 630 131 612T114 562Z" />
<glyph unicode="&#xb2;" glyph-name="two.superior" horiz-adv-x="350" d="M275 406Q302 406 312 392T323 358V356Q323 336 313 322T275 308H71Q50 308 37 321T23 360V362Q23 374 24 383T30 401T43 420T66 443L132 502Q158 525 171 541T184 574Q184 588 174 597T144
606Q129 606 120 602T102 594T85 586T66 582Q49 582 40 592T30 622V629Q30 653 40 667T73 691Q93 699 117 703T167 707Q243 707 283 678T323 589Q323 567 317 550T299 516T270 485T232 452L176 406H275Z" />
<glyph unicode="&#xb3;" glyph-name="three.superior" horiz-adv-x="345" d="M189 429Q189 457 145 462L136 463Q113 465 104 474T94 502V507Q94 525 103 534T136 546L145 547Q165 549 176 556T187 579Q187 612 142 612Q129 612 119 609T101 602T84 595T66 591Q50
591 41 601T31 630V637Q31 656 39 667T67 689Q85 697 110 702T165 707Q197 707 224 701T272 681T303 648T314 600Q314 562 293 541T234 511V508Q321 496 321 418Q321 361 276 331T148 301Q125 301 102 304T62 315Q39 323 30 337T20 371V376Q20 414 55 414Q65 414
72 411T88 403T106 396T133 392Q159 392 174 401T189 429Z" />
<glyph unicode="&#xb4;" glyph-name="acute" horiz-adv-x="400" d="M156 650Q172 708 234 708H289Q307 708 319 700T335 680T337 654T319 626L282 591Q242 554 201 554H195Q169 554 154 571T147 618L156 650Z" />
<glyph unicode="&#xb6;" glyph-name="paragraph" horiz-adv-x="592" d="M299 -96Q276 -96 260 -84T243 -40V300Q194 300 154 311T84 347T38 409T22 500Q22 557 41 595T95 657T175 690T276 700H453Q488 700 511 680T535 618V-40Q535 -71 519 -83T479 -96H477Q454
-96 438 -84T421 -40V586H357V-40Q357 -71 341 -83T301 -96H299Z" />
<glyph unicode="&#xb7;" glyph-name="periodcentered" horiz-adv-x="237" d="M212 294Q212 275 205 259T185 230T155 211T118 204Q98 204 81 211T52 230T32 258T24 294Q24 313 31 329T51 358T81 378T118 385Q137 385 154 378T184 359T204 330T212 294Z" />
<glyph unicode="&#xb8;" glyph-name="cedilla" horiz-adv-x="400" d="M154 0H230V-24Q272 -26 291 -45T311 -97Q311 -132 284 -153T199 -175Q186 -175 172 -174T146 -168Q117 -158 117 -130V-126Q117 -113 122 -105T142 -97Q154 -97 162 -103T184 -109Q207 -109
207 -92Q207 -84 201 -80T178 -76H176Q154 -76 154 -55V0Z" />
<glyph unicode="&#xb9;" glyph-name="one.superior" horiz-adv-x="277" d="M232 370Q232 335 214 321T170 307H156Q130 307 112 321T93 370V573L84 565Q74 556 66 553T50 549Q39 549 30 557T21 585V598Q21 627 32 643T74 674Q130 700 169 700H174Q232 700 232 645V370Z" />
<glyph unicode="&#xba;" glyph-name="ordmasculine" horiz-adv-x="524" d="M500 477Q500 424 482 382T433 311T357 267T262 251Q211 251 168 266T92 311T42 382T24 477Q24 530 42 573T92 646T167 692T262 708Q313 708 357 692T432 646T482 573T500 477ZM185 476Q185
412 206 384T262 355Q297 355 318 383T339 476Q339 541 318 570T262 600Q227 600 206 571T185 476Z" />
<glyph unicode="&#xbb;" glyph-name="guillemotright" horiz-adv-x="526" d="M257 324Q270 303 275 289T280 260Q280 246 275 232T257 196L195 94Q177 65 157 51T110 37H99Q81 37 68 44T49 64T44 91T54 122L135 260V262L54 399Q45 415 44 430T49 457T68 476T99
484H110Q137 484 157 470T195 426L257 324ZM480 324Q493 303 498 289T503 260Q503 246 498 232T480 196L418 94Q400 65 380 51T333 37H322Q304 37 291 44T272 64T267 91T277 122L358 260V262L277 399Q268 415 267 430T272 457T291 476T322 484H333Q360 484 380
470T418 426L480 324Z" />
<glyph unicode="&#xbc;" glyph-name="onequarter" horiz-adv-x="775" d="M232 370Q232 335 214 321T170 307H156Q130 307 112 321T93 370V573L84 565Q74 556 66 553T50 549Q39 549 30 557T21 585V598Q21 627 32 643T74 674Q130 700 169 700H174Q232 700 232 645V370ZM716
54Q716 23 699 10T656 -4H644Q618 -4 601 9T584 54V79H459Q437 79 424 92T411 131V133Q411 156 419 173T449 217L550 343Q573 372 593 383T645 395H656Q683 395 699 381T716 333V161H725Q746 161 754 151T762 125V116Q762 100 754 90T725 79H716V54ZM505 162V160H588V264H586L505
162ZM215 7Q198 -19 185 -29T157 -39H155Q140 -39 129 -33T113 -15T109 11T122 43L539 688Q555 713 568 723T597 734H598Q613 734 624 728T640 710T644 684T631 652L215 7Z" />
<glyph unicode="&#xbd;" glyph-name="onehalf" horiz-adv-x="816" d="M232 370Q232 335 214 321T170 307H156Q130 307 112 321T93 370V573L84 565Q74 556 66 553T50 549Q39 549 30 557T21 585V598Q21 627 32 643T74 674Q130 700 169 700H174Q232 700 232 645V370ZM740
98Q767 98 777 84T788 50V48Q788 28 778 14T740 0H536Q515 0 502 13T488 52V54Q488 66 489 75T495 93T508 112T531 135L597 194Q623 217 636 233T649 266Q649 280 639 289T609 298Q594 298 585 294T567 286T550 278T531 274Q514 274 505 284T495 314V321Q495 345
505 359T538 383Q558 391 582 395T632 399Q708 399 748 370T788 281Q788 259 782 242T764 208T735 177T697 144L641 98H740ZM214 7Q197 -19 184 -29T156 -39H154Q139 -39 128 -33T112 -15T108 11T121 43L538 688Q554 713 567 723T596 734H597Q612 734 623 728T639
710T643 684T630 652L214 7Z" />
<glyph unicode="&#xbe;" glyph-name="threequarters" horiz-adv-x="813" d="M192 429Q192 457 148 462L139 463Q116 465 107 474T97 502V507Q97 525 106 534T139 546L148 547Q168 549 179 556T190 579Q190 612 145 612Q132 612 122 609T104 602T87 595T69 591Q53
591 44 601T34 630V637Q34 656 42 667T70 689Q88 697 113 702T168 707Q200 707 227 701T275 681T306 648T317 600Q317 562 296 541T237 511V508Q324 496 324 418Q324 361 279 331T151 301Q128 301 105 304T65 315Q42 323 33 337T23 371V376Q23 414 58 414Q68 414
75 411T91 403T109 396T136 392Q162 392 177 401T192 429ZM755 54Q755 23 738 10T695 -4H683Q657 -4 640 9T623 54V79H498Q476 79 463 92T450 131V133Q450 156 458 173T488 217L589 343Q612 372 632 383T684 395H695Q722 395 738 381T755 333V161H764Q785 161 793
151T801 125V116Q801 100 793 90T764 79H755V54ZM544 162V160H627V264H625L544 162ZM262 7Q245 -19 232 -29T204 -39H202Q187 -39 176 -33T160 -15T156 11T169 43L586 688Q602 713 615 723T644 734H645Q660 734 671 728T687 710T691 684T678 652L262 7Z" />
<glyph unicode="&#xbf;" glyph-name="questiondown" horiz-adv-x="466" d="M289 417Q320 417 337 402T355 355Q355 326 339 294T288 229Q272 214 259 201T235 175T218 147T212 116Q212 88 230 74T279 59Q301 59 316 65T345 79T372 93T403 100Q425 100 437 86T450
43V28Q450 1 438 -19T393 -53Q337 -77 257 -77Q145 -77 86 -30T26 105Q26 159 46 193T96 254Q123 280 152 306T199 367Q213 395 229 406T276 417H289ZM188 548Q188 567 195 583T215 612T245 632T282 639Q301 639 318 632T348 613T368 584T376 548Q376 529 369 513T349
484T319 464T282 457Q262 457 245 464T216 483T196 512T188 548Z" />
<glyph unicode="&#xc0;" glyph-name="Agrave" horiz-adv-x="696" d="M87 0Q53 0 37 24T35 91L217 622Q231 662 258 681T323 700H375Q451 700 478 620L659 97Q667 75 666 57T656 27T633 7T602 0H559Q524 0 503 16T471 70L443 159H219L192 69Q171 0 114 0H87ZM258
288H404L331 524H329L258 288ZM401 787Q410 758 395 741T354 724H347Q328 724 307 732T265 760L232 789Q217 802 213 816T212 843T228 863T262 871H312Q343 871 363 859T392 817L401 787Z" />
<glyph unicode="&#xc1;" glyph-name="Aacute" horiz-adv-x="696" d="M87 0Q53 0 37 24T35 91L217 622Q231 662 258 681T323 700H375Q451 700 478 620L659 97Q667 75 666 57T656 27T633 7T602 0H559Q524 0 503 16T471 70L443 159H219L192 69Q171 0 114 0H87ZM258
288H404L331 524H329L258 288ZM298 817Q307 847 327 859T379 871H428Q449 871 461 863T478 843T478 817T458 789L425 760Q404 741 384 733T343 724H335Q309 724 295 741T289 787L298 817Z" />
<glyph unicode="&#xc2;" glyph-name="Acircumflex" horiz-adv-x="696" d="M87 0Q53 0 37 24T35 91L217 622Q231 662 258 681T323 700H375Q451 700 478 620L659 97Q667 75 666 57T656 27T633 7T602 0H559Q524 0 503 16T471 70L443 159H219L192 69Q171 0 114 0H87ZM258
288H404L331 524H329L258 288ZM350 875Q374 875 397 865T446 829L457 818Q473 802 477 785T477 754T460 731T430 722H428Q400 722 358 761L345 773L333 761Q293 722 263 722H260Q243 722 231 731T215 754T214 785T234 818L245 829Q270 854 293 864T341 875H350Z"
/>
<glyph unicode="&#xc3;" glyph-name="Atilde" horiz-adv-x="696" d="M87 0Q53 0 37 24T35 91L217 622Q231 662 258 681T323 700H375Q451 700 478 620L659 97Q667 75 666 57T656 27T633 7T602 0H559Q524 0 503 16T471 70L443 159H219L192 69Q171 0 114 0H87ZM258
288H404L331 524H329L258 288ZM405 726Q388 726 373 730T343 740T316 749T295 754Q281 754 273 749T256 737Q248 730 240 725T221 720H219Q197 720 185 737T181 791Q189 826 216 848T284 870Q301 870 316 866T346 856T372 847T393 842Q407 842 416 847T433 859Q441
865 448 870T467 876H470Q492 876 504 858T508 804Q499 769 473 748T405 726Z" />
<glyph unicode="&#xc4;" glyph-name="Adieresis" horiz-adv-x="696" d="M87 0Q53 0 37 24T35 91L217 622Q231 662 258 681T323 700H375Q451 700 478 620L659 97Q667 75 666 57T656 27T633 7T602 0H559Q524 0 503 16T471 70L443 159H219L192 69Q171 0 114 0H87ZM258
288H404L331 524H329L258 288ZM328 807Q328 772 305 750T244 727Q207 727 183 749T159 807Q159 841 183 863T244 886Q281 886 304 864T328 807ZM533 807Q533 772 509 750T448 727Q411 727 388 749T364 807Q364 841 387 863T448 886Q485 886 509 864T533 807Z" />
<glyph unicode="&#xc5;" glyph-name="Aring" horiz-adv-x="696" d="M87 0Q53 0 37 24T35 91L217 622Q231 662 258 681T323 700H375Q451 700 478 620L659 97Q667 75 666 57T656 27T633 7T602 0H559Q524 0 503 16T471 70L443 159H219L192 69Q171 0 114 0H87ZM258
288H404L331 524H329L258 288ZM451 828Q451 781 420 754T344 727Q300 727 269 754T237 828Q237 876 268 903T344 930Q388 930 419 903T451 828ZM311 828Q311 812 320 803T344 793Q360 793 369 802T378 828Q378 845 369 854T344 864Q329 864 320 855T311 828Z" />
<glyph unicode="&#xc6;" glyph-name="AE" horiz-adv-x="965" d="M521 0Q487 0 464 21T439 82V165H235L190 67Q173 29 154 15T104 0H79Q42 0 29 27T35 96L292 627Q309 662 338 681T409 700H860Q891 700 906 683T922 638V629Q922 600 907 583T860 566H630V417H781Q810
417 825 401T841 357V352Q841 325 826 308T781 291H630V130H870Q902 130 917 114T932 69V62Q932 33 917 17T870 0H521ZM294 294H439V566H419L294 294Z" />
<glyph unicode="&#xc7;" glyph-name="Ccedilla" horiz-adv-x="632" d="M541 24Q512 10 472 2T386 -9V-24Q428 -26 447 -45T467 -97Q467 -132 440 -153T355 -175Q342 -175 328 -174T302 -168Q273 -158 273 -130V-126Q273 -113 278 -105T298 -97Q310 -97 318 -103T340
-109Q363 -109 363 -92Q363 -84 357 -80T334 -76H332Q310 -76 310 -55V-5Q245 4 193 31T104 103T48 209T28 346Q28 432 54 499T127 613T240 684T388 709Q480 709 540 684Q569 671 584 652T600 601V587Q600 558 584 542T542 525Q524 525 510 532T479 549T441 565T388
573Q312 573 268 519T224 353Q224 233 264 179T384 125Q421 125 444 134T485 155T516 176T549 186Q576 186 591 170T607 128V117Q607 85 591 63T541 24Z" />
<glyph unicode="&#xc8;" glyph-name="Egrave" horiz-adv-x="583" d="M139 0Q102 0 80 21T57 82V618Q57 657 79 678T139 700H478Q507 700 523 684T540 638V629Q540 599 524 583T478 566H248V418H401Q430 418 446 403T463 357V352Q463 321 447 306T401 291H248V130H489Q518
130 534 115T551 69V62Q551 31 535 16T489 0H139ZM366 787Q375 758 360 741T319 724H312Q293 724 272 732T230 760L197 789Q182 802 178 816T177 843T193 863T227 871H277Q308 871 328 859T357 817L366 787Z" />
<glyph unicode="&#xc9;" glyph-name="Eacute" horiz-adv-x="583" d="M139 0Q102 0 80 21T57 82V618Q57 657 79 678T139 700H478Q507 700 523 684T540 638V629Q540 599 524 583T478 566H248V418H401Q430 418 446 403T463 357V352Q463 321 447 306T401 291H248V130H489Q518
130 534 115T551 69V62Q551 31 535 16T489 0H139ZM263 817Q272 847 292 859T344 871H393Q414 871 426 863T443 843T443 817T423 789L390 760Q369 741 349 733T308 724H300Q274 724 260 741T254 787L263 817Z" />
<glyph unicode="&#xca;" glyph-name="Ecircumflex" horiz-adv-x="583" d="M139 0Q102 0 80 21T57 82V618Q57 657 79 678T139 700H478Q507 700 523 684T540 638V629Q540 599 524 583T478 566H248V418H401Q430 418 446 403T463 357V352Q463 321 447 306T401 291H248V130H489Q518
130 534 115T551 69V62Q551 31 535 16T489 0H139ZM307 875Q331 875 354 865T403 829L414 818Q430 802 434 785T434 754T417 731T387 722H385Q357 722 315 761L302 773L290 761Q250 722 220 722H217Q200 722 188 731T172 754T171 785T191 818L202 829Q227 854 250
864T298 875H307Z" />
<glyph unicode="&#xcb;" glyph-name="Edieresis" horiz-adv-x="583" d="M139 0Q102 0 80 21T57 82V618Q57 657 79 678T139 700H478Q507 700 523 684T540 638V629Q540 599 524 583T478 566H248V418H401Q430 418 446 403T463 357V352Q463 321 447 306T401 291H248V130H489Q518
130 534 115T551 69V62Q551 31 535 16T489 0H139ZM286 806Q286 771 263 749T202 726Q165 726 141 748T117 806Q117 840 141 862T202 885Q239 885 262 863T286 806ZM491 806Q491 771 467 749T406 726Q369 726 346 748T322 806Q322 840 345 862T406 885Q443 885 467
863T491 806Z" />
<glyph unicode="&#xcc;" glyph-name="Igrave" horiz-adv-x="313" d="M253 79Q253 39 230 20T175 0H138Q106 0 83 19T60 79V622Q60 657 80 678T138 700H175Q213 700 233 679T253 622V79ZM470 787Q479 758 464 741T423 724H416Q397 724 376 732T334 760L301 789Q286
802 282 816T281 843T297 863T331 871H381Q412 871 432 859T461 817L470 787Z" />
<glyph unicode="&#xcd;" glyph-name="Iacute" horiz-adv-x="313" d="M253 79Q253 39 230 20T175 0H138Q106 0 83 19T60 79V622Q60 657 80 678T138 700H175Q213 700 233 679T253 622V79ZM370 817Q379 847 399 859T451 871H500Q521 871 533 863T550 843T550 817T530
789L497 760Q476 741 456 733T415 724H407Q381 724 367 741T361 787L370 817Z" />
<glyph unicode="&#xce;" glyph-name="Icircumflex" horiz-adv-x="313" d="M253 79Q253 39 230 20T175 0H138Q106 0 83 19T60 79V622Q60 657 80 678T138 700H175Q213 700 233 679T253 622V79ZM419 875Q443 875 466 865T515 829L526 818Q542 802 546 785T546 754T529
731T499 722H497Q469 722 427 761L414 773L402 761Q362 722 332 722H329Q312 722 300 731T284 754T283 785T303 818L314 829Q339 854 362 864T410 875H419Z" />
<glyph unicode="&#xcf;" glyph-name="Idieresis" horiz-adv-x="313" d="M253 79Q253 39 230 20T175 0H138Q106 0 83 19T60 79V622Q60 657 80 678T138 700H175Q213 700 233 679T253 622V79ZM396 806Q396 771 373 749T312 726Q275 726 251 748T227 806Q227 840 251
862T312 885Q349 885 372 863T396 806ZM601 806Q601 771 577 749T516 726Q479 726 456 748T432 806Q432 840 455 862T516 885Q553 885 577 863T601 806Z" />
<glyph unicode="&#xd0;" glyph-name="Eth" horiz-adv-x="707" d="M144 0Q107 0 85 21T62 82V288H61Q28 288 14 305T0 348V351Q0 376 14 393T61 411H62V618Q62 657 84 678T144 700H310Q491 700 586 615T681 354Q681 176 587 88T304 0H144ZM254 288V129H301Q395
129 440 179T485 349Q485 409 474 450T441 518T384 555T301 567H254V411H323Q355 411 369 394T383 351V348Q383 323 369 306T323 288H254Z" />
<glyph unicode="&#xd1;" glyph-name="Ntilde" horiz-adv-x="709" d="M125 0Q96 0 77 17T57 69V618Q57 656 79 678T139 700H195Q233 700 257 683T303 628L491 295H494V631Q494 667 514 683T564 700H584Q613 700 632 684T652 631V73Q652 38 631 19T576 0H539Q505
0 484 14T442 63L217 459H214V69Q214 34 195 17T146 0H125ZM433 726Q416 726 401 730T371 740T344 749T323 754Q309 754 301 749T284 737Q276 730 268 725T249 720H247Q225 720 213 737T209 791Q217 826 244 848T312 870Q329 870 344 866T374 856T400 847T421 842Q435
842 444 847T461 859Q469 865 476 870T495 876H498Q520 876 532 858T536 804Q527 769 501 748T433 726Z" />
<glyph unicode="&#xd2;" glyph-name="Ograve" horiz-adv-x="744" d="M718 349Q718 262 691 196T616 84T506 15T372 -9Q301 -9 238 14T128 83T54 195T27 349Q27 436 54 503T129 615T239 685T372 709Q442 709 505 685T615 616T690 503T718 349ZM222 347Q222 229
264 176T372 122Q438 122 480 175T522 347Q522 465 480 519T372 574Q306 574 264 520T222 347ZM428 787Q437 758 422 741T381 724H374Q355 724 334 732T292 760L259 789Q244 802 240 816T239 843T255 863T289 871H339Q370 871 390 859T419 817L428 787Z" />
<glyph unicode="&#xd3;" glyph-name="Oacute" horiz-adv-x="744" d="M718 349Q718 262 691 196T616 84T506 15T372 -9Q301 -9 238 14T128 83T54 195T27 349Q27 436 54 503T129 615T239 685T372 709Q442 709 505 685T615 616T690 503T718 349ZM222 347Q222 229
264 176T372 122Q438 122 480 175T522 347Q522 465 480 519T372 574Q306 574 264 520T222 347ZM329 817Q338 847 358 859T410 871H459Q480 871 492 863T509 843T509 817T489 789L456 760Q435 741 415 733T374 724H366Q340 724 326 741T320 787L329 817Z" />
<glyph unicode="&#xd4;" glyph-name="Ocircumflex" horiz-adv-x="744" d="M718 349Q718 262 691 196T616 84T506 15T372 -9Q301 -9 238 14T128 83T54 195T27 349Q27 436 54 503T129 615T239 685T372 709Q442 709 505 685T615 616T690 503T718 349ZM222 347Q222
229 264 176T372 122Q438 122 480 175T522 347Q522 465 480 519T372 574Q306 574 264 520T222 347ZM377 875Q401 875 424 865T473 829L484 818Q500 802 504 785T504 754T487 731T457 722H455Q427 722 385 761L372 773L360 761Q320 722 290 722H287Q270 722 258
731T242 754T241 785T261 818L272 829Q297 854 320 864T368 875H377Z" />
<glyph unicode="&#xd5;" glyph-name="Otilde" horiz-adv-x="744" d="M718 349Q718 262 691 196T616 84T506 15T372 -9Q301 -9 238 14T128 83T54 195T27 349Q27 436 54 503T129 615T239 685T372 709Q442 709 505 685T615 616T690 503T718 349ZM222 347Q222 229
264 176T372 122Q438 122 480 175T522 347Q522 465 480 519T372 574Q306 574 264 520T222 347ZM433 726Q416 726 401 730T371 740T344 749T323 754Q309 754 301 749T284 737Q276 730 268 725T249 720H247Q225 720 213 737T209 791Q217 826 244 848T312 870Q329
870 344 866T374 856T400 847T421 842Q435 842 444 847T461 859Q469 865 476 870T495 876H498Q520 876 532 858T536 804Q527 769 501 748T433 726Z" />
<glyph unicode="&#xd6;" glyph-name="Odieresis" horiz-adv-x="744" d="M718 349Q718 262 691 196T616 84T506 15T372 -9Q301 -9 238 14T128 83T54 195T27 349Q27 436 54 503T129 615T239 685T372 709Q442 709 505 685T615 616T690 503T718 349ZM222 347Q222 229
264 176T372 122Q438 122 480 175T522 347Q522 465 480 519T372 574Q306 574 264 520T222 347ZM354 806Q354 771 331 749T270 726Q233 726 209 748T185 806Q185 840 209 862T270 885Q307 885 330 863T354 806ZM559 806Q559 771 535 749T474 726Q437 726 414 748T390
806Q390 840 413 862T474 885Q511 885 535 863T559 806Z" />
<glyph unicode="&#xd7;" glyph-name="multiply" horiz-adv-x="527" d="M163 146Q141 124 118 126T77 146L69 154Q51 172 49 195T69 240L169 340L69 440Q47 461 49 484T69 526L77 534Q95 552 118 554T164 534L264 434L365 534Q387 556 411 555T452 534L459 526Q476
506 478 484T459 440L359 340L459 241Q481 219 479 196T459 154L452 146Q435 127 411 126T365 146L264 246L163 146Z" />
<glyph unicode="&#xd8;" glyph-name="Oslash" horiz-adv-x="744" d="M640 588Q676 543 697 484T718 349Q718 262 691 196T616 84T506 15T372 -9Q262 -9 176 46L141 5Q126 -12 114 -18T92 -25H90Q75 -25 64 -18T49 -1T46 23T60 51L107 106Q69 151 48 211T27 349Q27
436 54 503T129 615T239 685T372 709Q428 709 479 694T573 650L605 687Q620 704 632 710T654 717H656Q671 717 682 710T698 693T701 668T686 641L640 588ZM219 347Q219 290 228 248L474 534Q435 576 372 576Q304 576 262 521T219 347ZM526 347Q526 375 524 399T516
443L272 159Q310 120 372 120Q405 120 433 133T482 174T514 244T526 347Z" />
<glyph unicode="&#xd9;" glyph-name="Ugrave" horiz-adv-x="695" d="M246 267Q246 228 254 202T277 160T314 138T367 131Q395 131 416 137T452 159T474 201T481 267V631Q481 665 499 682T549 700H572Q603 700 621 683T640 631V266Q640 132 572 62T355 -8Q206 -8
130 62T54 266V622Q54 657 74 678T132 700H169Q206 700 226 679T246 622V267ZM418 787Q427 758 412 741T371 724H364Q345 724 324 732T282 760L249 789Q234 802 230 816T229 843T245 863T279 871H329Q360 871 380 859T409 817L418 787Z" />
<glyph unicode="&#xda;" glyph-name="Uacute" horiz-adv-x="695" d="M246 267Q246 228 254 202T277 160T314 138T367 131Q395 131 416 137T452 159T474 201T481 267V631Q481 665 499 682T549 700H572Q603 700 621 683T640 631V266Q640 132 572 62T355 -8Q206 -8
130 62T54 266V622Q54 657 74 678T132 700H169Q206 700 226 679T246 622V267ZM319 817Q328 847 348 859T400 871H449Q470 871 482 863T499 843T499 817T479 789L446 760Q425 741 405 733T364 724H356Q330 724 316 741T310 787L319 817Z" />
<glyph unicode="&#xdb;" glyph-name="Ucircumflex" horiz-adv-x="695" d="M246 267Q246 228 254 202T277 160T314 138T367 131Q395 131 416 137T452 159T474 201T481 267V631Q481 665 499 682T549 700H572Q603 700 621 683T640 631V266Q640 132 572 62T355 -8Q206
-8 130 62T54 266V622Q54 657 74 678T132 700H169Q206 700 226 679T246 622V267ZM366 875Q390 875 413 865T462 829L473 818Q489 802 493 785T493 754T476 731T446 722H444Q416 722 374 761L361 773L349 761Q309 722 279 722H276Q259 722 247 731T231 754T230 785T250
818L261 829Q286 854 309 864T357 875H366Z" />
<glyph unicode="&#xdc;" glyph-name="Udieresis" horiz-adv-x="695" d="M246 267Q246 228 254 202T277 160T314 138T367 131Q395 131 416 137T452 159T474 201T481 267V631Q481 665 499 682T549 700H572Q603 700 621 683T640 631V266Q640 132 572 62T355 -8Q206
-8 130 62T54 266V622Q54 657 74 678T132 700H169Q206 700 226 679T246 622V267ZM344 806Q344 771 321 749T260 726Q223 726 199 748T175 806Q175 840 199 862T260 885Q297 885 320 863T344 806ZM549 806Q549 771 525 749T464 726Q427 726 404 748T380 806Q380
840 403 862T464 885Q501 885 525 863T549 806Z" />
<glyph unicode="&#xdd;" glyph-name="Yacute" horiz-adv-x="635" d="M556 700Q577 700 590 692T610 671T615 640T603 605L420 265V79Q420 39 398 20T342 0H306Q273 0 251 19T228 79V261L39 599Q28 618 28 636T35 668T58 691T96 700H132Q164 700 184 683T225 628L334
427H336L445 636Q462 668 481 684T529 700H556ZM286 817Q295 847 315 859T367 871H416Q437 871 449 863T466 843T466 817T446 789L413 760Q392 741 372 733T331 724H323Q297 724 283 741T277 787L286 817Z" />
<glyph unicode="&#xde;" glyph-name="Thorn" horiz-adv-x="621" d="M135 0Q102 0 80 19T57 79V622Q57 657 77 678T135 700H171Q209 700 229 679T249 622V578H314Q457 578 528 524T600 355Q600 242 526 188T307 134H249V79Q249 39 227 20T171 0H135ZM248 449V254H306Q365
254 387 280T410 354Q410 402 389 425T306 449H248Z" />
<glyph unicode="&#xdf;" glyph-name="germandbls" horiz-adv-x="654" d="M422 112Q448 112 460 121T472 144Q472 160 455 170T393 197Q339 217 310 249T281 335Q281 357 286 374T300 406T321 435T348 464Q370 488 382 503T395 539Q395 561 378 574T325 588Q273
588 251 563T229 494V71Q229 32 208 14T154 -4H122Q90 -4 70 14T49 71V498Q49 598 118 654T330 711Q445 711 509 673T573 556Q573 518 550 488T493 433Q461 409 451 397T440 372Q440 360 451 351T500 327Q533 313 558 299T600 265T626 220T635 158Q635 85 582 39T421
-8Q367 -8 329 5Q299 16 287 32T275 79V93Q275 116 287 128T322 141Q334 141 344 137T366 127T391 117T422 112Z" />
<glyph unicode="&#xe0;" glyph-name="agrave" horiz-adv-x="555" d="M409 0Q383 0 366 13T340 51Q311 20 274 7T189 -7Q154 -7 123 3T70 32T34 82T21 151Q21 192 36 222T78 273T144 304T228 314Q286 314 329 304V341Q329 375 309 391T240 407Q213 407 194 402T161
390T135 378T108 372Q87 372 73 387T59 426V436Q59 463 72 482T117 512Q181 535 275 535Q393 535 451 493T509 353V76Q509 0 440 0H409ZM259 98Q279 98 297 106T329 127V220Q315 222 300 223T270 225Q234 225 213 211T192 162Q192 128 211 113T259 98ZM336 619Q344
590 330 573T288 555H282Q241 555 201 592L164 627Q150 640 147 654T147 681T164 701T194 709H249Q311 709 327 651L336 619Z" />
<glyph unicode="&#xe1;" glyph-name="aacute" horiz-adv-x="555" d="M409 0Q383 0 366 13T340 51Q311 20 274 7T189 -7Q154 -7 123 3T70 32T34 82T21 151Q21 192 36 222T78 273T144 304T228 314Q286 314 329 304V341Q329 375 309 391T240 407Q213 407 194 402T161
390T135 378T108 372Q87 372 73 387T59 426V436Q59 463 72 482T117 512Q181 535 275 535Q393 535 451 493T509 353V76Q509 0 440 0H409ZM259 98Q279 98 297 106T329 127V220Q315 222 300 223T270 225Q234 225 213 211T192 162Q192 128 211 113T259 98ZM234 651Q250
709 312 709H367Q385 709 397 701T413 681T415 655T397 627L360 592Q320 555 279 555H273Q247 555 232 572T225 619L234 651Z" />
<glyph unicode="&#xe2;" glyph-name="acircumflex" horiz-adv-x="555" d="M409 0Q383 0 366 13T340 51Q311 20 274 7T189 -7Q154 -7 123 3T70 32T34 82T21 151Q21 192 36 222T78 273T144 304T228 314Q286 314 329 304V341Q329 375 309 391T240 407Q213 407 194
402T161 390T135 378T108 372Q87 372 73 387T59 426V436Q59 463 72 482T117 512Q181 535 275 535Q393 535 451 493T509 353V76Q509 0 440 0H409ZM259 98Q279 98 297 106T329 127V220Q315 222 300 223T270 225Q234 225 213 211T192 162Q192 128 211 113T259 98ZM190
671Q213 694 234 703T282 713H288Q314 713 335 704T380 671L389 662Q409 642 414 623T416 589T398 565T369 555H366Q349 555 333 564T297 593L285 607L273 593Q253 573 237 564T204 555H201Q184 555 172 564T155 589T155 623T181 662L190 671Z" />
<glyph unicode="&#xe3;" glyph-name="atilde" horiz-adv-x="555" d="M409 0Q383 0 366 13T340 51Q311 20 274 7T189 -7Q154 -7 123 3T70 32T34 82T21 151Q21 192 36 222T78 273T144 304T228 314Q286 314 329 304V341Q329 375 309 391T240 407Q213 407 194 402T161
390T135 378T108 372Q87 372 73 387T59 426V436Q59 463 72 482T117 512Q181 535 275 535Q393 535 451 493T509 353V76Q509 0 440 0H409ZM259 98Q279 98 297 106T329 127V220Q315 222 300 223T270 225Q234 225 213 211T192 162Q192 128 211 113T259 98ZM348 562Q331
562 316 566T286 576T259 585T238 590Q224 590 216 585T199 572Q191 566 184 561T165 555H162Q140 555 128 573T124 627Q132 662 159 684T227 706Q244 706 259 702T289 692T315 683T336 678Q350 678 359 683T376 696Q384 702 391 707T410 713H412Q435 713 447 695T451
641Q442 605 416 584T348 562Z" />
<glyph unicode="&#xe4;" glyph-name="adieresis" horiz-adv-x="555" d="M409 0Q383 0 366 13T340 51Q311 20 274 7T189 -7Q154 -7 123 3T70 32T34 82T21 151Q21 192 36 222T78 273T144 304T228 314Q286 314 329 304V341Q329 375 309 391T240 407Q213 407 194 402T161
390T135 378T108 372Q87 372 73 387T59 426V436Q59 463 72 482T117 512Q181 535 275 535Q393 535 451 493T509 353V76Q509 0 440 0H409ZM259 98Q279 98 297 106T329 127V220Q315 222 300 223T270 225Q234 225 213 211T192 162Q192 128 211 113T259 98ZM264 639Q264
604 241 582T180 560Q143 560 119 582T95 639Q95 674 119 696T180 719Q217 719 240 697T264 639ZM469 639Q469 604 445 582T384 560Q347 560 324 582T300 639Q300 674 323 696T384 719Q421 719 445 697T469 639Z" />
<glyph unicode="&#xe5;" glyph-name="aring" horiz-adv-x="555" d="M409 0Q383 0 366 13T340 51Q311 20 274 7T189 -7Q154 -7 123 3T70 32T34 82T21 151Q21 192 36 222T78 273T144 304T228 314Q286 314 329 304V341Q329 375 309 391T240 407Q213 407 194 402T161
390T135 378T108 372Q87 372 73 387T59 426V436Q59 463 72 482T117 512Q181 535 275 535Q393 535 451 493T509 353V76Q509 0 440 0H409ZM259 98Q279 98 297 106T329 127V220Q315 222 300 223T270 225Q234 225 213 211T192 162Q192 128 211 113T259 98ZM395 664Q395
616 364 589T288 562Q244 562 213 589T181 664Q181 711 212 738T288 766Q332 766 363 739T395 664ZM255 664Q255 647 264 638T288 628Q304 628 313 637T322 664Q322 681 313 690T288 700Q273 700 264 691T255 664Z" />
<glyph unicode="&#xe6;" glyph-name="ae" horiz-adv-x="865" d="M605 -8Q460 -8 389 72Q357 36 313 15T203 -7Q122 -7 72 32T21 152Q21 233 79 274T238 316H329V341Q329 375 309 391T240 407Q213 407 194 402T161 390T135 378T108 372Q87 372 73 387T59 426V436Q59
492 117 512Q181 535 275 535Q386 535 433 488Q466 511 507 523T596 535Q660 535 706 518T783 468T828 390T843 291Q843 224 772 224H509Q512 191 521 169T546 135T583 117T632 112Q665 112 686 118T723 131T751 144T777 150Q799 150 812 137T825 98V90Q825 43
776 21Q745 7 704 0T605 -8ZM256 98Q290 98 311 110T348 139Q332 180 328 224H268Q233 224 213 210T192 162Q192 128 210 113T256 98ZM597 425Q581 425 567 421T542 404T522 371T510 318H674Q671 379 652 402T597 425Z" />
<glyph unicode="&#xe7;" glyph-name="ccedilla" horiz-adv-x="510" d="M426 10Q401 0 370 -4T304 -8V-24Q346 -26 365 -45T385 -97Q385 -132 358 -153T273 -175Q260 -175 246 -174T220 -168Q191 -158 191 -130V-126Q191 -113 196 -105T216 -97Q228 -97 236 -103T258
-109Q281 -109 281 -92Q281 -84 275 -80T252 -76H250Q228 -76 228 -55V-1Q129 16 76 83T22 262Q22 326 43 376T103 462T194 516T313 535Q380 535 427 519Q456 509 470 492T485 444V432Q485 403 472 390T437 376Q424 376 413 381T389 392T360 403T321 408Q269 408
237 372T204 260Q204 185 234 151T317 116Q342 116 359 121T390 134T413 146T436 152Q461 152 472 138T484 97V88Q484 59 470 41T426 10Z" />
<glyph unicode="&#xe8;" glyph-name="egrave" horiz-adv-x="559" d="M203 224Q206 191 215 169T241 135T278 117T327 112Q359 112 380 118T417 131T445 144T471 150Q494 150 506 137T519 98V90Q519 65 507 49T470 21Q440 7 399 0T299 -8Q161 -8 92 63T22 260Q22
323 41 374T96 461T181 516T290 535Q354 535 400 518T477 468T523 390T538 291Q538 224 467 224H203ZM291 425Q275 425 261 421T236 404T216 371T204 318H368Q366 379 347 402T291 425ZM338 619Q346 590 332 573T290 555H284Q243 555 203 592L166 627Q152 640 149
654T149 681T166 701T196 709H251Q313 709 329 651L338 619Z" />
<glyph unicode="&#xe9;" glyph-name="eacute" horiz-adv-x="559" d="M203 224Q206 191 215 169T241 135T278 117T327 112Q359 112 380 118T417 131T445 144T471 150Q494 150 506 137T519 98V90Q519 65 507 49T470 21Q440 7 399 0T299 -8Q161 -8 92 63T22 260Q22
323 41 374T96 461T181 516T290 535Q354 535 400 518T477 468T523 390T538 291Q538 224 467 224H203ZM291 425Q275 425 261 421T236 404T216 371T204 318H368Q366 379 347 402T291 425ZM248 651Q264 709 326 709H381Q399 709 411 701T427 681T429 655T411 627L374
592Q334 555 293 555H287Q261 555 246 572T239 619L248 651Z" />
<glyph unicode="&#xea;" glyph-name="ecircumflex" horiz-adv-x="559" d="M203 224Q206 191 215 169T241 135T278 117T327 112Q359 112 380 118T417 131T445 144T471 150Q494 150 506 137T519 98V90Q519 65 507 49T470 21Q440 7 399 0T299 -8Q161 -8 92 63T22
260Q22 323 41 374T96 461T181 516T290 535Q354 535 400 518T477 468T523 390T538 291Q538 224 467 224H203ZM291 425Q275 425 261 421T236 404T216 371T204 318H368Q366 379 347 402T291 425ZM194 671Q217 694 238 703T286 713H292Q318 713 339 704T384 671L393
662Q413 642 418 623T420 589T402 565T373 555H370Q353 555 337 564T301 593L289 607L277 593Q257 573 241 564T208 555H205Q188 555 176 564T159 589T159 623T185 662L194 671Z" />
<glyph unicode="&#xeb;" glyph-name="edieresis" horiz-adv-x="559" d="M203 224Q206 191 215 169T241 135T278 117T327 112Q359 112 380 118T417 131T445 144T471 150Q494 150 506 137T519 98V90Q519 65 507 49T470 21Q440 7 399 0T299 -8Q161 -8 92 63T22 260Q22
323 41 374T96 461T181 516T290 535Q354 535 400 518T477 468T523 390T538 291Q538 224 467 224H203ZM291 425Q275 425 261 421T236 404T216 371T204 318H368Q366 379 347 402T291 425ZM268 639Q268 604 245 582T184 560Q147 560 123 582T99 639Q99 674 123 696T184
719Q221 719 244 697T268 639ZM473 639Q473 604 449 582T388 560Q351 560 328 582T304 639Q304 674 327 696T388 719Q425 719 449 697T473 639Z" />
<glyph unicode="&#xec;" glyph-name="igrave" horiz-adv-x="280" d="M229 75Q229 38 209 19T155 0H124Q92 0 71 19T50 75V452Q50 527 122 527H149Q191 527 210 503T229 421V75ZM453 619Q461 590 447 573T405 555H399Q358 555 318 592L281 627Q267 640 264 654T264
681T281 701T311 709H366Q428 709 444 651L453 619Z" />
<glyph unicode="&#xed;" glyph-name="iacute" horiz-adv-x="280" d="M229 75Q229 38 209 19T155 0H124Q92 0 71 19T50 75V452Q50 527 122 527H149Q191 527 210 503T229 421V75ZM348 651Q364 709 426 709H481Q499 709 511 701T527 681T529 655T511 627L474 592Q434
555 393 555H387Q361 555 346 572T339 619L348 651Z" />
<glyph unicode="&#xee;" glyph-name="icircumflex" horiz-adv-x="280" d="M229 75Q229 38 209 19T155 0H124Q92 0 71 19T50 75V452Q50 527 122 527H149Q191 527 210 503T229 421V75ZM304 671Q327 694 348 703T396 713H402Q428 713 449 704T494 671L503 662Q523
642 528 623T530 589T512 565T483 555H480Q463 555 447 564T411 593L399 607L387 593Q367 573 351 564T318 555H315Q298 555 286 564T269 589T269 623T295 662L304 671Z" />
<glyph unicode="&#xef;" glyph-name="idieresis" horiz-adv-x="280" d="M127 639Q127 604 103 582T42 560Q5 560 -18 582T-42 639Q-42 674 -19 696T42 719Q79 719 103 697T127 639ZM321 639Q321 604 298 582T237 560Q200 560 177 582T153 639Q153 674 176 696T237
719Q274 719 297 697T321 639ZM229 75Q229 38 209 19T155 0H124Q92 0 71 19T50 75V452Q50 527 122 527H149Q191 527 210 503T229 421V75Z" />
<glyph unicode="&#xf0;" glyph-name="eth" horiz-adv-x="603" d="M145 649Q145 678 165 691T233 697Q256 694 277 689T319 678L332 688Q362 712 381 712H383Q398 712 408 704T421 685T422 661T406 638Q489 587 535 500T582 287Q582 210 561 155T501 63T410 10T297
-8Q237 -8 187 9T100 60T43 142T22 251Q22 312 40 359T90 437T163 485T250 502Q275 502 293 499T326 489T353 473T376 453Q362 485 341 508T290 549L278 540Q248 516 229 516H228Q213 516 203 523T189 540T187 563T200 586Q171 594 158 607T145 645V649ZM203 249Q203
177 231 144T305 110Q350 110 375 143T400 249Q400 322 375 356T305 390Q260 390 232 356T203 249Z" />
<glyph unicode="&#xf1;" glyph-name="ntilde" horiz-adv-x="604" d="M316 397Q291 397 270 392T229 380V75Q229 38 208 19T155 0H123Q91 0 70 19T49 75V452Q49 527 121 527H149Q177 527 196 514T223 461Q258 491 307 513T415 535Q445 535 471 528T516 504T547
459T558 386V75Q558 38 537 19T484 0H453Q420 0 399 19T378 75V339Q378 374 363 385T316 397ZM377 562Q360 562 345 566T315 576T288 585T267 590Q253 590 245 585T228 572Q220 566 213 561T194 555H191Q169 555 157 573T153 627Q161 662 188 684T256 706Q273 706
288 702T318 692T344 683T365 678Q379 678 388 683T405 696Q413 702 420 707T439 713H441Q464 713 476 695T480 641Q471 605 445 584T377 562Z" />
<glyph unicode="&#xf2;" glyph-name="ograve" horiz-adv-x="603" d="M582 261Q582 198 561 148T502 64T413 11T302 -8Q242 -8 191 10T103 63T44 148T22 261Q22 324 43 375T102 461T191 516T302 535Q361 535 412 516T501 462T560 375T582 261ZM203 259Q203 181
230 146T302 110Q347 110 373 145T400 259Q400 338 374 375T302 413Q257 413 230 376T203 259ZM350 619Q358 590 344 573T302 555H296Q255 555 215 592L178 627Q164 640 161 654T161 681T178 701T208 709H263Q325 709 341 651L350 619Z" />
<glyph unicode="&#xf3;" glyph-name="oacute" horiz-adv-x="603" d="M582 261Q582 198 561 148T502 64T413 11T302 -8Q242 -8 191 10T103 63T44 148T22 261Q22 324 43 375T102 461T191 516T302 535Q361 535 412 516T501 462T560 375T582 261ZM203 259Q203 181
230 146T302 110Q347 110 373 145T400 259Q400 338 374 375T302 413Q257 413 230 376T203 259ZM264 651Q280 709 342 709H397Q415 709 427 701T443 681T445 655T427 627L390 592Q350 555 309 555H303Q277 555 262 572T255 619L264 651Z" />
<glyph unicode="&#xf4;" glyph-name="ocircumflex" horiz-adv-x="603" d="M582 261Q582 198 561 148T502 64T413 11T302 -8Q242 -8 191 10T103 63T44 148T22 261Q22 324 43 375T102 461T191 516T302 535Q361 535 412 516T501 462T560 375T582 261ZM203 259Q203
181 230 146T302 110Q347 110 373 145T400 259Q400 338 374 375T302 413Q257 413 230 376T203 259ZM207 671Q230 694 251 703T299 713H305Q331 713 352 704T397 671L406 662Q426 642 431 623T433 589T415 565T386 555H383Q366 555 350 564T314 593L302 607L290
593Q270 573 254 564T221 555H218Q201 555 189 564T172 589T172 623T198 662L207 671Z" />
<glyph unicode="&#xf5;" glyph-name="otilde" horiz-adv-x="603" d="M582 261Q582 198 561 148T502 64T413 11T302 -8Q242 -8 191 10T103 63T44 148T22 261Q22 324 43 375T102 461T191 516T302 535Q361 535 412 516T501 462T560 375T582 261ZM203 259Q203 181
230 146T302 110Q347 110 373 145T400 259Q400 338 374 375T302 413Q257 413 230 376T203 259ZM363 562Q346 562 331 566T301 576T274 585T253 590Q239 590 231 585T214 572Q206 566 199 561T180 555H177Q155 555 143 573T139 627Q147 662 174 684T242 706Q259
706 274 702T304 692T330 683T351 678Q365 678 374 683T391 696Q399 702 406 707T425 713H427Q450 713 462 695T466 641Q457 605 431 584T363 562Z" />
<glyph unicode="&#xf6;" glyph-name="odieresis" horiz-adv-x="603" d="M582 261Q582 198 561 148T502 64T413 11T302 -8Q242 -8 191 10T103 63T44 148T22 261Q22 324 43 375T102 461T191 516T302 535Q361 535 412 516T501 462T560 375T582 261ZM203 259Q203 181
230 146T302 110Q347 110 373 145T400 259Q400 338 374 375T302 413Q257 413 230 376T203 259ZM284 639Q284 604 261 582T200 560Q163 560 139 582T115 639Q115 674 139 696T200 719Q237 719 260 697T284 639ZM489 639Q489 604 465 582T404 560Q367 560 344 582T320
639Q320 674 343 696T404 719Q441 719 465 697T489 639Z" />
<glyph unicode="&#xf7;" glyph-name="divide" horiz-adv-x="536" d="M84 276Q49 276 35 294T20 340V352Q20 378 34 396T84 415H453Q487 415 501 397T516 352V340Q516 313 502 295T453 276H84ZM175 152Q175 171 182 187T202 216T232 236T269 243Q288 243 305 236T334
217T354 188T361 152Q361 133 354 117T335 89T305 70T269 63Q229 63 202 88T175 152ZM175 538Q175 576 202 602T269 628Q288 628 305 621T334 602T354 574T361 538Q361 500 334 474T269 448Q249 448 232 455T202 474T182 502T175 538Z" />
<glyph unicode="&#xf8;" glyph-name="oslash" horiz-adv-x="603" d="M516 446Q547 411 564 365T582 261Q582 198 561 148T502 64T413 11T302 -8Q260 -8 222 1T151 28L124 -3Q100 -31 81 -31H79Q65 -31 56 -25T43 -10T41 12T54 36L89 76Q57 111 40 157T22 261Q22
324 43 375T102 461T191 516T302 535Q387 535 455 495L478 522Q491 537 501 543T522 549H523Q550 549 559 528T548 483L516 446ZM198 259Q198 244 199 231T202 205L365 393Q352 405 336 410T302 416Q256 416 227 378T198 259ZM404 259Q404 274 403 288T400 314L237
127Q263 104 302 104Q347 104 375 142T404 259Z" />
<glyph unicode="&#xf9;" glyph-name="ugrave" horiz-adv-x="612" d="M457 0Q429 0 412 14T387 62Q351 33 305 13T204 -8Q171 -8 143 -1T95 24T62 71T50 143V453Q50 488 70 507T124 527H156Q190 527 210 508T230 453V184Q230 149 246 137T298 124Q319 124 340 129T380
141V453Q380 488 399 507T454 527H485Q520 527 539 508T559 453V76Q559 0 488 0H457ZM355 619Q363 590 349 573T307 555H301Q260 555 220 592L183 627Q169 640 166 654T166 681T183 701T213 709H268Q330 709 346 651L355 619Z" />
<glyph unicode="&#xfa;" glyph-name="uacute" horiz-adv-x="612" d="M457 0Q429 0 412 14T387 62Q351 33 305 13T204 -8Q171 -8 143 -1T95 24T62 71T50 143V453Q50 488 70 507T124 527H156Q190 527 210 508T230 453V184Q230 149 246 137T298 124Q319 124 340 129T380
141V453Q380 488 399 507T454 527H485Q520 527 539 508T559 453V76Q559 0 488 0H457ZM268 651Q284 709 346 709H401Q419 709 431 701T447 681T449 655T431 627L394 592Q354 555 313 555H307Q281 555 266 572T259 619L268 651Z" />
<glyph unicode="&#xfb;" glyph-name="ucircumflex" horiz-adv-x="612" d="M457 0Q429 0 412 14T387 62Q351 33 305 13T204 -8Q171 -8 143 -1T95 24T62 71T50 143V453Q50 488 70 507T124 527H156Q190 527 210 508T230 453V184Q230 149 246 137T298 124Q319 124
340 129T380 141V453Q380 488 399 507T454 527H485Q520 527 539 508T559 453V76Q559 0 488 0H457ZM215 671Q238 694 259 703T307 713H313Q339 713 360 704T405 671L414 662Q434 642 439 623T441 589T423 565T394 555H391Q374 555 358 564T322 593L310 607L298 593Q278
573 262 564T229 555H226Q209 555 197 564T180 589T180 623T206 662L215 671Z" />
<glyph unicode="&#xfc;" glyph-name="udieresis" horiz-adv-x="612" d="M457 0Q429 0 412 14T387 62Q351 33 305 13T204 -8Q171 -8 143 -1T95 24T62 71T50 143V453Q50 488 70 507T124 527H156Q190 527 210 508T230 453V184Q230 149 246 137T298 124Q319 124 340
129T380 141V453Q380 488 399 507T454 527H485Q520 527 539 508T559 453V76Q559 0 488 0H457ZM289 639Q289 604 266 582T205 560Q168 560 144 582T120 639Q120 674 144 696T205 719Q242 719 265 697T289 639ZM494 639Q494 604 470 582T409 560Q372 560 349 582T325
639Q325 674 348 696T409 719Q446 719 470 697T494 639Z" />
<glyph unicode="&#xfd;" glyph-name="yacute" horiz-adv-x="567" d="M320 -97Q306 -132 286 -147T235 -162H203Q186 -162 173 -155T152 -136T145 -108T155 -71L203 29L35 428Q17 470 33 498T87 527H125Q155 527 174 510T208 455L296 228H299L384 460Q397 495 413
511T459 527H483Q525 527 539 500T536 430L320 -97ZM259 651Q275 709 337 709H392Q410 709 422 701T438 681T440 655T422 627L385 592Q345 555 304 555H298Q272 555 257 572T250 619L259 651Z" />
<glyph unicode="&#xfe;" glyph-name="thorn" horiz-adv-x="607" d="M148 700Q191 700 210 675T229 590V476Q258 502 295 518T386 535Q423 535 459 522T523 478T568 398T585 277Q585 203 568 151T520 65T448 17T361 1Q319 1 287 11T229 40V-84Q229 -121 208 -139T155
-158H123Q91 -158 70 -140T49 -84V624Q49 700 121 700H148ZM305 402Q288 402 268 397T229 384V140Q259 119 302 119Q323 119 341 125T373 146T395 190T403 262Q403 304 396 331T375 374T343 396T305 402Z" />
<glyph unicode="&#xff;" glyph-name="ydieresis" horiz-adv-x="567" d="M320 -97Q306 -132 286 -147T235 -162H203Q186 -162 173 -155T152 -136T145 -108T155 -71L203 29L35 428Q17 470 33 498T87 527H125Q155 527 174 510T208 455L296 228H299L384 460Q397 495
413 511T459 527H483Q525 527 539 500T536 430L320 -97ZM278 639Q278 604 255 582T194 560Q157 560 133 582T109 639Q109 674 133 696T194 719Q231 719 254 697T278 639ZM483 639Q483 604 459 582T398 560Q361 560 338 582T314 639Q314 674 337 696T398 719Q435
719 459 697T483 639Z" />
<glyph unicode="&#x100;" glyph-name="Amacron" horiz-adv-x="696" d="M87 0Q53 0 37 24T35 91L217 622Q231 662 258 681T323 700H375Q451 700 478 620L659 97Q667 75 666 57T656 27T633 7T602 0H559Q524 0 503 16T471 70L443 159H219L192 69Q171 0 114 0H87ZM258
288H404L331 524H329L258 288ZM432 843Q461 843 473 828T486 790V788Q486 766 474 750T432 734H254Q225 734 213 750T201 788V790Q201 812 213 827T254 843H432Z" />
<glyph unicode="&#x101;" glyph-name="amacron" horiz-adv-x="555" d="M409 0Q383 0 366 13T340 51Q311 20 274 7T189 -7Q154 -7 123 3T70 32T34 82T21 151Q21 192 36 222T78 273T144 304T228 314Q286 314 329 304V341Q329 375 309 391T240 407Q213 407 194 402T161
390T135 378T108 372Q87 372 73 387T59 426V436Q59 463 72 482T117 512Q181 535 275 535Q393 535 451 493T509 353V76Q509 0 440 0H409ZM259 98Q279 98 297 106T329 127V220Q315 222 300 223T270 225Q234 225 213 211T192 162Q192 128 211 113T259 98ZM367 687Q396
687 408 672T421 634V632Q421 610 409 595T367 579H195Q166 579 154 594T141 632V634Q141 656 153 671T195 687H367Z" />
<glyph unicode="&#x102;" glyph-name="Abreve" horiz-adv-x="696" d="M87 0Q53 0 37 24T35 91L217 622Q231 662 258 681T323 700H375Q451 700 478 620L659 97Q667 75 666 57T656 27T633 7T602 0H559Q524 0 503 16T471 70L443 159H219L192 69Q171 0 114 0H87ZM258
288H404L331 524H329L258 288ZM344 723Q291 723 253 745T203 802Q194 828 205 847T243 867H246Q259 867 269 861T290 846Q301 838 314 832T344 825Q361 825 374 831T398 846Q409 854 419 860T442 867H445Q471 867 482 848T485 802Q474 767 436 745T344 723Z" />
<glyph unicode="&#x103;" glyph-name="abreve" horiz-adv-x="555" d="M409 0Q383 0 366 13T340 51Q311 20 274 7T189 -7Q154 -7 123 3T70 32T34 82T21 151Q21 192 36 222T78 273T144 304T228 314Q286 314 329 304V341Q329 375 309 391T240 407Q213 407 194 402T161
390T135 378T108 372Q87 372 73 387T59 426V436Q59 463 72 482T117 512Q181 535 275 535Q393 535 451 493T509 353V76Q509 0 440 0H409ZM259 98Q279 98 297 106T329 127V220Q315 222 300 223T270 225Q234 225 213 211T192 162Q192 128 211 113T259 98ZM285 561Q231
561 192 586T138 650Q133 663 133 676T139 698T154 714T177 720H180Q195 720 206 713T229 695Q240 686 253 678T285 670Q303 670 316 678T341 695Q353 705 364 712T390 720H393Q406 720 415 714T430 699T436 676T432 650Q418 611 379 586T285 561Z" />
<glyph unicode="&#x104;" glyph-name="Aogonek" horiz-adv-x="696" d="M660 93Q671 60 663 39T635 3Q599 -21 599 -44Q599 -56 607 -61T627 -72Q645 -80 653 -88T661 -114V-116Q661 -139 640 -153T575 -167Q555 -167 535 -164T500 -151T474 -128T464 -90Q464 -58
484 -35T534 2Q508 8 494 24T472 66L443 159H219L192 69Q171 0 114 0H87Q53 0 37 24T35 91L217 622Q231 662 258 681T323 700H375Q451 700 478 620L660 93ZM258 288H403L331 524H329L258 288Z" />
<glyph unicode="&#x105;" glyph-name="aogonek" horiz-adv-x="555" d="M382 5Q365 11 355 23T339 51Q311 20 274 7T189 -7Q154 -7 123 3T70 32T34 82T21 151Q21 192 36 222T78 273T144 304T228 314Q286 314 329 304V341Q329 375 309 391T240 407Q213 407 194 402T161
390T135 378T108 372Q87 372 73 387T59 426V436Q59 463 72 482T117 512Q181 535 275 535Q393 535 451 493T509 353V72Q509 46 502 32T480 5Q447 -22 447 -41Q447 -55 456 -61T477 -72Q495 -80 503 -88T511 -114V-116Q511 -139 490 -153T425 -167Q402 -167 382 -163T346
-150T322 -125T313 -87Q313 -55 333 -33T382 5ZM259 98Q279 98 297 106T329 127V220Q315 222 300 223T270 225Q234 225 213 211T192 162Q192 128 211 113T259 98Z" />
<glyph unicode="&#x106;" glyph-name="Cacute" horiz-adv-x="632" d="M541 24Q510 9 466 0T372 -9Q293 -9 230 14T121 83T52 195T28 346Q28 432 54 499T127 613T240 684T388 709Q480 709 540 684Q569 671 584 652T600 601V587Q600 558 584 542T542 525Q524 525
510 532T479 549T441 565T388 573Q312 573 268 519T224 353Q224 233 264 179T384 125Q421 125 444 134T485 155T516 176T549 186Q576 186 591 170T607 128V117Q607 85 591 63T541 24ZM319 817Q328 847 348 859T400 871H449Q470 871 482 863T499 843T499 817T479
789L446 760Q425 741 405 733T364 724H356Q330 724 316 741T310 787L319 817Z" />
<glyph unicode="&#x107;" glyph-name="cacute" horiz-adv-x="510" d="M426 10Q401 0 369 -4T302 -8Q169 -8 96 61T22 262Q22 326 43 376T103 462T194 516T313 535Q380 535 427 519Q456 509 470 492T485 444V432Q485 403 472 390T437 376Q424 376 413 381T389 392T360
403T321 408Q269 408 237 372T204 260Q204 185 234 151T317 116Q342 116 359 121T390 134T413 146T436 152Q461 152 472 138T484 97V88Q484 59 470 41T426 10ZM248 651Q264 709 326 709H381Q399 709 411 701T427 681T429 655T411 627L374 592Q334 555 293 555H287Q261
555 246 572T239 619L248 651Z" />
<glyph unicode="&#x108;" glyph-name="Ccircumflex" horiz-adv-x="632" d="M541 24Q510 9 466 0T372 -9Q293 -9 230 14T121 83T52 195T28 346Q28 432 54 499T127 613T240 684T388 709Q480 709 540 684Q569 671 584 652T600 601V587Q600 558 584 542T542 525Q524
525 510 532T479 549T441 565T388 573Q312 573 268 519T224 353Q224 233 264 179T384 125Q421 125 444 134T485 155T516 176T549 186Q576 186 591 170T607 128V117Q607 85 591 63T541 24ZM366 875Q390 875 413 865T462 829L473 818Q489 802 493 785T493 754T476
731T446 722H444Q416 722 374 761L361 773L349 761Q309 722 279 722H276Q259 722 247 731T231 754T230 785T250 818L261 829Q286 854 309 864T357 875H366Z" />
<glyph unicode="&#x109;" glyph-name="ccircumflex" horiz-adv-x="510" d="M426 10Q401 0 369 -4T302 -8Q169 -8 96 61T22 262Q22 326 43 376T103 462T194 516T313 535Q380 535 427 519Q456 509 470 492T485 444V432Q485 403 472 390T437 376Q424 376 413 381T389
392T360 403T321 408Q269 408 237 372T204 260Q204 185 234 151T317 116Q342 116 359 121T390 134T413 146T436 152Q461 152 472 138T484 97V88Q484 59 470 41T426 10ZM189 671Q212 694 233 703T281 713H287Q313 713 334 704T379 671L388 662Q408 642 413 623T415
589T397 565T368 555H365Q348 555 332 564T296 593L284 607L272 593Q252 573 236 564T203 555H200Q183 555 171 564T154 589T154 623T180 662L189 671Z" />
<glyph unicode="&#x10a;" glyph-name="Cdotaccent" horiz-adv-x="632" d="M541 24Q510 9 466 0T372 -9Q293 -9 230 14T121 83T52 195T28 346Q28 432 54 499T127 613T240 684T388 709Q480 709 540 684Q569 671 584 652T600 601V587Q600 558 584 542T542 525Q524
525 510 532T479 549T441 565T388 573Q312 573 268 519T224 353Q224 233 264 179T384 125Q421 125 444 134T485 155T516 176T549 186Q576 186 591 170T607 128V117Q607 85 591 63T541 24ZM456 808Q456 772 430 749T365 725Q326 725 300 748T274 808Q274 845 300
868T365 892Q404 892 430 869T456 808Z" />
<glyph unicode="&#x10b;" glyph-name="cdotaccent" horiz-adv-x="510" d="M426 10Q401 0 369 -4T302 -8Q169 -8 96 61T22 262Q22 326 43 376T103 462T194 516T313 535Q380 535 427 519Q456 509 470 492T485 444V432Q485 403 472 390T437 376Q424 376 413 381T389
392T360 403T321 408Q269 408 237 372T204 260Q204 185 234 151T317 116Q342 116 359 121T390 134T413 146T436 152Q461 152 472 138T484 97V88Q484 59 470 41T426 10ZM377 642Q377 606 351 583T286 559Q247 559 221 582T195 642Q195 678 221 702T286 726Q325 726
351 702T377 642Z" />
<glyph unicode="&#x10c;" glyph-name="Ccaron" horiz-adv-x="632" d="M541 24Q510 9 466 0T372 -9Q293 -9 230 14T121 83T52 195T28 346Q28 432 54 499T127 613T240 684T388 709Q480 709 540 684Q569 671 584 652T600 601V587Q600 558 584 542T542 525Q524 525
510 532T479 549T441 565T388 573Q312 573 268 519T224 353Q224 233 264 179T384 125Q421 125 444 134T485 155T516 176T549 186Q576 186 591 170T607 128V117Q607 85 591 63T541 24ZM359 722Q335 722 312 732T263 768L252 779Q236 795 232 812T232 843T249 866T278
875H281Q311 875 351 836L363 824L376 836Q418 875 446 875H448Q465 875 477 866T494 843T495 812T475 779L464 768Q438 742 415 732T368 722H359Z" />
<glyph unicode="&#x10d;" glyph-name="ccaron" horiz-adv-x="510" d="M426 10Q401 0 369 -4T302 -8Q169 -8 96 61T22 262Q22 326 43 376T103 462T194 516T313 535Q380 535 427 519Q456 509 470 492T485 444V432Q485 403 472 390T437 376Q424 376 413 381T389 392T360
403T321 408Q269 408 237 372T204 260Q204 185 234 151T317 116Q342 116 359 121T390 134T413 146T436 152Q461 152 472 138T484 97V88Q484 59 470 41T426 10ZM183 606Q163 625 158 644T156 679T173 703T203 713H206Q223 713 239 704T275 675L287 661L299 675Q319
695 335 704T368 713H371Q387 713 400 704T417 679T417 645T391 606L382 597Q359 574 338 565T290 555H284Q258 555 237 564T192 597L183 606Z" />
<glyph unicode="&#x10e;" glyph-name="Dcaron" horiz-adv-x="703" d="M139 0Q102 0 80 21T57 82V618Q57 657 79 678T139 700H305Q486 700 581 615T676 354Q676 176 582 88T299 0H139ZM249 129H296Q390 129 435 179T480 349Q480 409 469 450T436 518T379 555T296
567H249V129ZM329 722Q305 722 282 732T233 768L222 779Q206 795 202 812T202 843T219 866T248 875H251Q281 875 321 836L333 824L346 836Q388 875 416 875H418Q435 875 447 866T464 843T465 812T445 779L434 768Q408 742 385 732T338 722H329Z" />
<glyph unicode="&#x10f;" glyph-name="dcaron" horiz-adv-x="609" d="M700 585Q686 560 670 550T637 540H634Q616 540 603 551T590 587V639Q590 667 606 685T660 704H678Q715 704 728 680T724 627L700 585ZM560 76Q560 0 488 0H457Q405 0 389 56Q365 29 327 10T235
-9Q190 -9 152 7T85 55T40 138T24 256Q24 334 43 387T94 473T164 520T243 535Q294 535 325 522T380 485V624Q380 700 452 700H481Q524 700 542 676T560 590V76ZM309 402Q289 402 271 396T238 375T215 331T206 260Q206 177 229 144T297 110Q322 110 341 117T380
142V383Q350 402 309 402Z" />
<glyph unicode="&#x110;" glyph-name="Dcroat" horiz-adv-x="707" d="M144 0Q107 0 85 21T62 82V288H61Q28 288 14 305T0 348V351Q0 376 14 393T61 411H62V618Q62 657 84 678T144 700H310Q491 700 586 615T681 354Q681 176 587 88T304 0H144ZM254 288V129H301Q395
129 440 179T485 349Q485 409 474 450T441 518T384 555T301 567H254V411H323Q355 411 369 394T383 351V348Q383 323 369 306T323 288H254Z" />
<glyph unicode="&#x111;" glyph-name="dcroat" horiz-adv-x="609" d="M560 74Q560 -2 488 -2H457Q431 -2 414 11T388 56Q365 29 327 10T235 -9Q190 -9 152 7T85 55T40 138T24 256Q24 334 43 387T94 473T164 520T243 535Q294 535 325 522T380 485V559H295Q272 559
261 572T250 604V606Q250 623 261 636T295 649H382Q394 700 452 700H481Q511 700 528 689T553 649H569Q592 649 602 636T613 606V604Q613 585 603 572T569 559H560V74ZM309 402Q289 402 271 396T238 375T215 331T206 260Q206 177 229 144T297 110Q322 110 341 117T380
142V383Q350 402 309 402Z" />
<glyph unicode="&#x112;" glyph-name="Emacron" horiz-adv-x="583" d="M139 0Q102 0 80 21T57 82V618Q57 657 79 678T139 700H478Q507 700 523 684T540 638V629Q540 599 524 583T478 566H248V418H401Q430 418 446 403T463 357V352Q463 321 447 306T401 291H248V130H489Q518
130 534 115T551 69V62Q551 31 535 16T489 0H139ZM399 1099Q428 1099 440 1084T453 1046V1044Q453 1022 441 1006T399 990H221Q192 990 180 1006T168 1044V1046Q168 1068 180 1083T221 1099H399Z" />
<glyph unicode="&#x113;" glyph-name="emacron" horiz-adv-x="559" d="M203 224Q206 191 215 169T241 135T278 117T327 112Q359 112 380 118T417 131T445 144T471 150Q494 150 506 137T519 98V90Q519 65 507 49T470 21Q440 7 399 0T299 -8Q161 -8 92 63T22 260Q22
323 41 374T96 461T181 516T290 535Q354 535 400 518T477 468T523 390T538 291Q538 224 467 224H203ZM291 425Q275 425 261 421T236 404T216 371T204 318H368Q366 379 347 402T291 425ZM371 687Q400 687 412 672T425 634V632Q425 610 413 595T371 579H199Q170 579
158 594T145 632V634Q145 656 157 671T199 687H371Z" />
<glyph unicode="&#x114;" glyph-name="Ebreve" horiz-adv-x="583" d="M139 0Q102 0 80 21T57 82V618Q57 657 79 678T139 700H478Q507 700 523 684T540 638V629Q540 599 524 583T478 566H248V418H401Q430 418 446 403T463 357V352Q463 321 447 306T401 291H248V130H489Q518
130 534 115T551 69V62Q551 31 535 16T489 0H139ZM311 723Q258 723 220 745T170 802Q161 828 172 847T210 867H213Q226 867 236 861T257 846Q268 838 281 832T311 825Q328 825 341 831T365 846Q376 854 386 860T409 867H412Q438 867 449 848T452 802Q441 767 403
745T311 723Z" />
<glyph unicode="&#x115;" glyph-name="ebreve" horiz-adv-x="559" d="M203 224Q206 191 215 169T241 135T278 117T327 112Q359 112 380 118T417 131T445 144T471 150Q494 150 506 137T519 98V90Q519 65 507 49T470 21Q440 7 399 0T299 -8Q161 -8 92 63T22 260Q22
323 41 374T96 461T181 516T290 535Q354 535 400 518T477 468T523 390T538 291Q538 224 467 224H203ZM291 425Q275 425 261 421T236 404T216 371T204 318H368Q366 379 347 402T291 425ZM287 561Q233 561 194 586T140 650Q135 663 135 676T141 698T156 714T179 720H182Q197
720 208 713T231 695Q242 686 255 678T287 670Q305 670 318 678T343 695Q355 705 366 712T392 720H395Q408 720 417 714T432 699T438 676T434 650Q420 611 381 586T287 561Z" />
<glyph unicode="&#x116;" glyph-name="Edotaccent" horiz-adv-x="583" d="M139 0Q102 0 80 21T57 82V618Q57 657 79 678T139 700H478Q507 700 523 684T540 638V629Q540 599 524 583T478 566H248V418H401Q430 418 446 403T463 357V352Q463 321 447 306T401 291H248V130H489Q518
130 534 115T551 69V62Q551 31 535 16T489 0H139ZM400 808Q400 772 374 749T309 725Q270 725 244 748T218 808Q218 845 244 868T309 892Q348 892 374 869T400 808Z" />
<glyph unicode="&#x117;" glyph-name="edotaccent" horiz-adv-x="559" d="M203 224Q206 191 215 169T241 135T278 117T327 112Q359 112 380 118T417 131T445 144T471 150Q494 150 506 137T519 98V90Q519 65 507 49T470 21Q440 7 399 0T299 -8Q161 -8 92 63T22
260Q22 323 41 374T96 461T181 516T290 535Q354 535 400 518T477 468T523 390T538 291Q538 224 467 224H203ZM291 425Q275 425 261 421T236 404T216 371T204 318H368Q366 379 347 402T291 425ZM376 642Q376 606 350 583T285 559Q246 559 220 582T194 642Q194 678
220 702T285 726Q324 726 350 702T376 642Z" />
<glyph unicode="&#x118;" glyph-name="Eogonek" horiz-adv-x="583" d="M509 -1Q485 -15 476 -25T467 -46Q467 -57 475 -62T494 -72Q512 -80 520 -88T528 -114V-116Q528 -139 507 -153T442 -167Q422 -167 402 -164T367 -151T341 -128T331 -90Q331 -59 352 -37T404
0H139Q102 0 80 21T57 82V618Q57 657 79 678T139 700H478Q507 700 523 684T540 638V629Q540 599 524 583T478 566H248V418H401Q430 418 446 403T463 357V352Q463 321 447 306T401 291H248V130H489Q518 130 534 115T551 69V62Q551 39 541 25T509 -1Z" />
<glyph unicode="&#x119;" glyph-name="eogonek" horiz-adv-x="559" d="M299 -8Q161 -8 92 63T22 260Q22 323 41 374T96 461T181 516T290 535Q354 535 400 518T477 468T523 390T538 291Q538 224 467 224H204Q210 158 241 135T327 112Q359 112 380 118T417 131T445
144T471 150Q494 150 506 137T519 98V89Q519 60 504 42T459 4Q440 -9 431 -19T421 -42Q421 -53 429 -59T449 -71Q469 -79 476 -88T483 -114V-116Q483 -139 462 -153T396 -167Q376 -167 356 -164T320 -151T295 -127T285 -90Q285 -61 301 -41T340 -7Q332 -7 320 -7T299
-8ZM291 425Q275 425 261 421T235 404T216 371T204 318H368Q366 379 347 402T291 425Z" />
<glyph unicode="&#x11a;" glyph-name="Ecaron" horiz-adv-x="583" d="M139 0Q102 0 80 21T57 82V618Q57 657 79 678T139 700H478Q507 700 523 684T540 638V629Q540 599 524 583T478 566H248V418H401Q430 418 446 403T463 357V352Q463 321 447 306T401 291H248V130H489Q518
130 534 115T551 69V62Q551 31 535 16T489 0H139ZM306 722Q282 722 259 732T210 768L199 779Q183 795 179 812T179 843T196 866T225 875H228Q258 875 298 836L310 824L323 836Q365 875 393 875H395Q412 875 424 866T441 843T442 812T422 779L411 768Q385 742 362
732T315 722H306Z" />
<glyph unicode="&#x11b;" glyph-name="ecaron" horiz-adv-x="559" d="M203 224Q206 191 215 169T241 135T278 117T327 112Q359 112 380 118T417 131T445 144T471 150Q494 150 506 137T519 98V90Q519 65 507 49T470 21Q440 7 399 0T299 -8Q161 -8 92 63T22 260Q22
323 41 374T96 461T181 516T290 535Q354 535 400 518T477 468T523 390T538 291Q538 224 467 224H203ZM291 425Q275 425 261 421T236 404T216 371T204 318H368Q366 379 347 402T291 425ZM183 606Q163 625 158 644T156 679T173 703T203 713H206Q223 713 239 704T275
675L287 661L299 675Q319 695 335 704T368 713H371Q387 713 400 704T417 679T417 645T391 606L382 597Q359 574 338 565T290 555H284Q258 555 237 564T192 597L183 606Z" />
<glyph unicode="&#x11c;" glyph-name="Gcircumflex" horiz-adv-x="684" d="M552 15Q517 4 470 -2T372 -9Q200 -9 114 83T27 346Q27 433 52 501T124 615T239 685T394 709Q491 709 549 686Q577 675 591 657T605 608V589Q605 557 590 543T551 528Q534 528 521 534T492
549T452 564T393 571Q353 571 322 559T269 521T236 453T225 350Q225 227 261 173T371 119Q399 119 417 121T451 129V247H410Q354 247 354 306V314Q354 373 414 373H555Q593 373 613 351T633 291V116Q633 74 614 52T552 15ZM366 875Q390 875 413 865T462 829L473
818Q489 802 493 785T493 754T476 731T446 722H444Q416 722 374 761L361 773L349 761Q309 722 279 722H276Q259 722 247 731T231 754T230 785T250 818L261 829Q286 854 309 864T357 875H366Z" />
<glyph unicode="&#x11d;" glyph-name="gcircumflex" horiz-adv-x="609" d="M380 72Q355 51 319 39T239 26Q195 26 156 39T88 81T41 156T24 270Q24 344 43 394T95 476T167 521T250 535Q299 535 333 520T395 476Q406 499 423 513T467 528H491Q523 528 541 510T560
453V40Q560 -65 483 -117T269 -170Q219 -170 175 -164T102 -146Q76 -136 63 -120T49 -77V-67Q49 -42 62 -26T102 -10Q117 -10 128 -15T154 -27T190 -39T246 -45Q315 -45 347 -24T380 45V72ZM301 140Q323 140 343 147T380 167V381Q365 392 348 397T307 402Q287 402
269 397T237 378T215 339T206 275Q206 234 212 208T230 167T259 146T301 140ZM217 671Q240 694 261 703T309 713H315Q341 713 362 704T407 671L416 662Q436 642 441 623T443 589T425 565T396 555H393Q376 555 360 564T324 593L312 607L300 593Q280 573 264 564T231
555H228Q211 555 199 564T182 589T182 623T208 662L217 671Z" />
<glyph unicode="&#x11e;" glyph-name="Gbreve" horiz-adv-x="684" d="M552 15Q517 4 470 -2T372 -9Q200 -9 114 83T27 346Q27 433 52 501T124 615T239 685T394 709Q491 709 549 686Q577 675 591 657T605 608V589Q605 557 590 543T551 528Q534 528 521 534T492
549T452 564T393 571Q353 571 322 559T269 521T236 453T225 350Q225 227 261 173T371 119Q399 119 417 121T451 129V247H410Q354 247 354 306V314Q354 373 414 373H555Q593 373 613 351T633 291V116Q633 74 614 52T552 15ZM364 723Q311 723 273 745T223 802Q214
828 225 847T263 867H266Q279 867 289 861T310 846Q321 838 334 832T364 825Q381 825 394 831T418 846Q429 854 439 860T462 867H465Q491 867 502 848T505 802Q494 767 456 745T364 723Z" />
<glyph unicode="&#x11f;" glyph-name="gbreve" horiz-adv-x="609" d="M380 72Q355 51 319 39T239 26Q195 26 156 39T88 81T41 156T24 270Q24 344 43 394T95 476T167 521T250 535Q299 535 333 520T395 476Q406 499 423 513T467 528H491Q523 528 541 510T560 453V40Q560
-65 483 -117T269 -170Q219 -170 175 -164T102 -146Q76 -136 63 -120T49 -77V-67Q49 -42 62 -26T102 -10Q117 -10 128 -15T154 -27T190 -39T246 -45Q315 -45 347 -24T380 45V72ZM301 140Q323 140 343 147T380 167V381Q365 392 348 397T307 402Q287 402 269 397T237
378T215 339T206 275Q206 234 212 208T230 167T259 146T301 140ZM312 561Q258 561 219 586T165 650Q160 663 160 676T166 698T181 714T204 720H207Q222 720 233 713T256 695Q267 686 280 678T312 670Q330 670 343 678T368 695Q380 705 391 712T417 720H420Q433
720 442 714T457 699T463 676T459 650Q445 611 406 586T312 561Z" />
<glyph unicode="&#x120;" glyph-name="Gdotaccent" horiz-adv-x="684" d="M552 15Q517 4 470 -2T372 -9Q200 -9 114 83T27 346Q27 433 52 501T124 615T239 685T394 709Q491 709 549 686Q577 675 591 657T605 608V589Q605 557 590 543T551 528Q534 528 521 534T492
549T452 564T393 571Q353 571 322 559T269 521T236 453T225 350Q225 227 261 173T371 119Q399 119 417 121T451 129V247H410Q354 247 354 306V314Q354 373 414 373H555Q593 373 613 351T633 291V116Q633 74 614 52T552 15ZM454 808Q454 772 428 749T363 725Q324
725 298 748T272 808Q272 845 298 868T363 892Q402 892 428 869T454 808Z" />
<glyph unicode="&#x121;" glyph-name="gdotaccent" horiz-adv-x="609" d="M380 72Q355 51 319 39T239 26Q195 26 156 39T88 81T41 156T24 270Q24 344 43 394T95 476T167 521T250 535Q299 535 333 520T395 476Q406 499 423 513T467 528H491Q523 528 541 510T560
453V40Q560 -65 483 -117T269 -170Q219 -170 175 -164T102 -146Q76 -136 63 -120T49 -77V-67Q49 -42 62 -26T102 -10Q117 -10 128 -15T154 -27T190 -39T246 -45Q315 -45 347 -24T380 45V72ZM301 140Q323 140 343 147T380 167V381Q365 392 348 397T307 402Q287 402
269 397T237 378T215 339T206 275Q206 234 212 208T230 167T259 146T301 140ZM392 642Q392 606 366 583T301 559Q262 559 236 582T210 642Q210 678 236 702T301 726Q340 726 366 702T392 642Z" />
<glyph unicode="&#x122;" glyph-name="Gcommaaccent" horiz-adv-x="684" d="M552 15Q517 4 470 -2T372 -9Q200 -9 114 83T27 346Q27 433 52 501T124 615T239 685T394 709Q491 709 549 686Q577 675 591 657T605 608V589Q605 557 590 543T551 528Q534 528 521 534T492
549T452 564T393 571Q353 571 322 559T269 521T236 453T225 350Q225 227 261 173T371 119Q399 119 417 121T451 129V247H410Q354 247 354 306V314Q354 373 414 373H555Q593 373 613 351T633 291V116Q633 74 614 52T552 15ZM287 -201Q287 -191 292 -184T314 -171Q330
-166 335 -162T341 -151Q341 -145 337 -141T318 -128Q304 -120 297 -109T289 -80Q289 -56 308 -40T360 -23Q395 -23 416 -43T437 -104Q437 -158 408 -190T329 -229Q309 -232 298 -225T287 -202V-201Z" />
<glyph unicode="&#x123;" glyph-name="gcommaaccent" horiz-adv-x="609" d="M374 742Q374 732 369 725T347 712Q331 707 326 703T320 692Q320 686 324 682T343 669Q357 661 364 650T372 621Q372 597 353 581T301 564Q266 564 245 584T224 645Q224 699 253 731T332
770Q352 773 363 766T374 743V742ZM380 72Q355 51 319 39T239 26Q195 26 156 39T88 81T41 156T24 270Q24 344 43 394T95 476T167 521T250 535Q299 535 333 520T395 476Q406 499 423 513T467 528H491Q523 528 541 510T560 453V40Q560 -65 483 -117T269 -170Q219
-170 175 -164T102 -146Q76 -136 63 -120T49 -77V-67Q49 -42 62 -26T102 -10Q117 -10 128 -15T154 -27T190 -39T246 -45Q315 -45 347 -24T380 45V72ZM301 140Q323 140 343 147T380 167V381Q365 392 348 397T307 402Q287 402 269 397T237 378T215 339T206 275Q206
234 212 208T230 167T259 146T301 140Z" />
<glyph unicode="&#x124;" glyph-name="Hcircumflex" horiz-adv-x="713" d="M249 78Q249 40 228 20T171 0H135Q100 0 79 20T57 78V622Q57 658 78 679T135 700H171Q207 700 228 679T249 622V424H464V622Q464 658 485 679T541 700H578Q613 700 634 679T656 622V78Q656
40 635 20T578 0H541Q506 0 485 20T464 78V289H249V78ZM363 875Q387 875 410 865T459 829L470 818Q486 802 490 785T490 754T473 731T443 722H441Q413 722 371 761L358 773L346 761Q306 722 276 722H273Q256 722 244 731T228 754T227 785T247 818L258 829Q283 854
306 864T354 875H363Z" />
<glyph unicode="&#x125;" glyph-name="hcircumflex" horiz-adv-x="604" d="M316 397Q291 397 270 392T229 380V75Q229 38 208 19T155 0H123Q91 0 70 19T49 75V624Q49 700 121 700H148Q191 700 210 676T229 590V466Q264 495 311 515T415 535Q445 535 471 528T516
504T547 459T558 386V75Q558 38 537 19T484 0H453Q420 0 399 19T378 75V339Q378 374 363 385T316 397ZM306 875Q330 875 353 865T402 829L413 818Q429 802 433 785T433 754T416 731T386 722H384Q356 722 314 761L301 773L289 761Q249 722 219 722H216Q199 722 187
731T171 754T170 785T190 818L201 829Q226 854 249 864T297 875H306Z" />
<glyph unicode="&#x126;" glyph-name="Hbar" horiz-adv-x="713" d="M656 500V78Q656 40 635 20T578 0H541Q506 0 485 20T464 78V289H249V78Q249 40 228 20T171 0H135Q100 0 79 20T57 78V500H50Q21 500 9 515T-3 553V555Q-3 577 9 592T50 608H57V622Q57 658 78
679T135 700H171Q207 700 228 679T249 622V608H464V622Q464 658 485 679T541 700H578Q613 700 634 679T656 622V608H663Q691 608 703 593T716 555V553Q716 531 704 516T663 500H656ZM464 422V500H249V422H464Z" />
<glyph unicode="&#x127;" glyph-name="hbar" horiz-adv-x="604" d="M148 700Q178 700 196 689T222 649H312Q335 649 345 636T356 606V604Q356 585 346 572T312 559H229V466Q264 495 311 515T415 535Q445 535 471 528T516 504T547 459T558 386V75Q558 38 537 19T484
0H453Q420 0 399 19T378 75V339Q378 374 363 385T316 397Q291 397 270 392T229 380V75Q229 38 208 19T155 0H123Q91 0 70 19T49 75V559H40Q17 559 7 572T-4 604V606Q-4 623 6 636T40 649H51Q63 700 121 700H148Z" />
<glyph unicode="&#x12a;" glyph-name="Imacron" horiz-adv-x="313" d="M244 842Q273 842 285 826T298 788V786Q298 764 286 749T244 733H69Q40 733 28 748T16 786V788Q16 810 28 826T69 842H244ZM253 79Q253 39 230 20T175 0H138Q106 0 83 19T60 79V622Q60 657
80 678T138 700H175Q213 700 233 679T253 622V79Z" />
<glyph unicode="&#x12b;" glyph-name="imacron" horiz-adv-x="280" d="M213 687Q242 687 254 672T267 634V632Q267 610 255 595T213 579H66Q37 579 25 594T12 632V634Q12 656 24 671T66 687H213ZM229 75Q229 38 209 19T155 0H124Q92 0 71 19T50 75V452Q50 527
122 527H149Q191 527 210 503T229 421V75Z" />
<glyph unicode="&#x12e;" glyph-name="Iogonek" horiz-adv-x="313" d="M223 9Q203 -9 195 -19T186 -41Q186 -52 195 -59T215 -72Q233 -80 241 -88T249 -114V-116Q249 -139 228 -153T163 -167Q143 -167 123 -164T88 -151T62 -128T52 -90Q52 -58 69 -35T112 4Q86
9 73 29T60 75V622Q60 657 80 678T138 700H175Q213 700 233 679T253 622V75Q253 51 245 37T223 9Z" />
<glyph unicode="&#x12f;" glyph-name="iogonek" horiz-adv-x="280" d="M233 643Q233 606 207 583T140 559Q100 559 74 582T47 643Q47 680 73 704T140 728Q181 728 207 704T233 643ZM206 14Q186 -6 180 -18T173 -41Q173 -52 182 -59T203 -72Q221 -80 229 -88T237
-114V-116Q237 -139 216 -153T151 -167Q131 -167 111 -164T76 -151T50 -128T40 -90Q40 -58 54 -35T94 8Q71 15 61 31T50 71V452Q50 527 122 527H149Q191 527 210 503T229 421V71Q229 52 224 39T206 14Z" />
<glyph unicode="&#x130;" glyph-name="Idotaccent" horiz-adv-x="313" d="M253 79Q253 39 230 20T175 0H138Q106 0 83 19T60 79V622Q60 657 80 678T138 700H175Q213 700 233 679T253 622V79ZM504 808Q504 772 478 749T413 725Q374 725 348 748T322 808Q322 845
348 868T413 892Q452 892 478 869T504 808Z" />
<glyph unicode="&#x131;" glyph-name="dotlessi" horiz-adv-x="280" d="M229 75Q229 38 209 19T155 0H124Q92 0 71 19T50 75V452Q50 527 122 527H149Q191 527 210 503T229 421V75Z" />
<glyph unicode="&#x134;" glyph-name="Jcircumflex" horiz-adv-x="492" d="M439 201Q439 98 378 45T188 -9Q159 -9 132 -6T82 5Q50 16 33 34T16 88V104Q16 131 30 147T73 164Q87 164 98 159T119 147T142 135T173 129Q247 129 247 201V622Q247 658 267 679T325
700H362Q399 700 419 679T439 622V201ZM345 875Q369 875 392 865T441 829L452 818Q468 802 472 785T472 754T455 731T425 722H423Q395 722 353 761L340 773L328 761Q288 722 258 722H255Q238 722 226 731T210 754T209 785T229 818L240 829Q265 854 288 864T336
875H345Z" />
<glyph unicode="&#x135;" glyph-name="jcircumflex" horiz-adv-x="280" d="M229 -7Q229 -94 185 -131T54 -169Q39 -169 24 -168T-3 -164Q-23 -159 -33 -147T-43 -112V-106Q-43 -64 -5 -58Q27 -54 38 -41T50 4V452Q50 527 122 527H149Q192 527 210 503T229 421V-7ZM300
671Q323 694 344 703T392 713H398Q424 713 445 704T490 671L499 662Q519 642 524 623T526 589T508 565T479 555H476Q459 555 443 564T407 593L395 607L383 593Q363 573 347 564T314 555H311Q294 555 282 564T265 589T265 623T291 662L300 671Z" />
<glyph unicode="&#x136;" glyph-name="Kcommaaccent" horiz-adv-x="697" d="M249 411L449 649Q475 680 495 690T542 700H569Q588 700 602 691T621 668T623 635T604 600L450 424L635 111Q647 90 649 71T645 35T622 10T583 0H543Q512 0 492 13T450 63L314 290L249
219V79Q249 39 227 20T171 0H135Q102 0 80 19T57 79V622Q57 657 77 678T135 700H171Q209 700 229 679T249 622V411ZM280 -196Q280 -186 285 -179T307 -166Q323 -161 328 -157T334 -146Q334 -140 330 -136T311 -123Q297 -115 290 -104T282 -75Q282 -51 301 -35T353
-18Q388 -18 409 -38T430 -99Q430 -153 401 -185T322 -224Q302 -227 291 -220T280 -197V-196Z" />
<glyph unicode="&#x137;" glyph-name="kcommaaccent" horiz-adv-x="578" d="M274 206L229 156V75Q229 38 208 19T155 0H123Q91 0 70 19T49 75V624Q49 700 121 700H148Q191 700 210 676T229 590V327L362 482Q382 505 400 516T442 527H468Q486 527 499 518T516 494T517
461T496 425L400 319L535 98Q546 80 547 62T541 31T520 9T486 0H449Q423 0 404 12T362 61L274 206ZM229 -196Q229 -186 234 -179T256 -166Q272 -161 277 -157T283 -146Q283 -140 279 -136T260 -123Q246 -115 239 -104T231 -75Q231 -51 250 -35T302 -18Q337 -18
358 -38T379 -99Q379 -153 350 -185T271 -224Q251 -227 240 -220T229 -197V-196Z" />
<glyph unicode="&#x139;" glyph-name="Lacute" horiz-adv-x="554" d="M139 0Q102 0 80 21T57 82V622Q57 657 77 678T135 700H171Q209 700 229 679T249 622V132H464Q495 132 512 114T529 70V62Q529 36 512 18T464 0H139ZM368 817Q377 847 397 859T449 871H498Q519
871 531 863T548 843T548 817T528 789L495 760Q474 741 454 733T413 724H405Q379 724 365 741T359 787L368 817Z" />
<glyph unicode="&#x13a;" glyph-name="lacute" horiz-adv-x="282" d="M150 700Q193 700 212 675T231 590V75Q231 38 210 19T157 0H125Q93 0 72 19T51 75V624Q51 700 123 700H150ZM350 816Q359 846 379 858T431 870H480Q501 870 513 862T530 842T530 816T510 788L477
759Q456 740 436 732T395 723H387Q361 723 347 740T341 786L350 816Z" />
<glyph unicode="&#x13b;" glyph-name="Lcommaaccent" horiz-adv-x="554" d="M139 0Q102 0 80 21T57 82V622Q57 657 77 678T135 700H171Q209 700 229 679T249 622V132H464Q495 132 512 114T529 70V62Q529 36 512 18T464 0H139ZM220 -196Q220 -186 225 -179T247
-166Q263 -161 268 -157T274 -146Q274 -140 270 -136T251 -123Q237 -115 230 -104T222 -75Q222 -51 241 -35T293 -18Q328 -18 349 -38T370 -99Q370 -153 341 -185T262 -224Q242 -227 231 -220T220 -197V-196Z" />
<glyph unicode="&#x13c;" glyph-name="lcommaaccent" horiz-adv-x="282" d="M150 700Q193 700 212 675T231 590V75Q231 38 210 19T157 0H125Q93 0 72 19T51 75V624Q51 700 123 700H150ZM323 -196Q323 -186 328 -179T350 -166Q366 -161 371 -157T377 -146Q377 -140
373 -136T354 -123Q340 -115 333 -104T325 -75Q325 -51 344 -35T396 -18Q431 -18 452 -38T473 -99Q473 -153 444 -185T365 -224Q345 -227 334 -220T323 -197V-196Z" />
<glyph unicode="&#x13d;" glyph-name="Lcaron" horiz-adv-x="554" d="M424 585Q410 560 394 550T360 540H358Q340 540 327 551T314 587V639Q314 667 330 685T384 704H402Q439 704 452 680T448 627L424 585ZM139 0Q102 0 80 21T57 82V622Q57 657 77 678T135 700H171Q209
700 229 679T249 622V132H464Q495 132 512 114T529 70V62Q529 36 512 18T464 0H139Z" />
<glyph unicode="&#x13e;" glyph-name="lcaron" horiz-adv-x="282" d="M371 585Q357 560 341 550T308 540H305Q287 540 274 551T261 587V639Q261 667 277 685T331 704H349Q386 704 399 680T395 627L371 585ZM150 700Q193 700 212 675T231 590V75Q231 38 210 19T157
0H125Q93 0 72 19T51 75V624Q51 700 123 700H150Z" />
<glyph unicode="&#x141;" glyph-name="Lslash" horiz-adv-x="557" d="M141 0Q104 0 82 21T59 82V223Q35 216 17 227T-8 259Q-16 282 -8 303T26 333L59 345V622Q59 657 79 678T137 700H173Q211 700 231 679T251 622V417L350 454Q378 464 398 455T427 423Q437 399
428 378T393 347L251 294V132H466Q497 132 514 114T531 70V62Q531 36 514 18T466 0H141Z" />
<glyph unicode="&#x142;" glyph-name="lslash" horiz-adv-x="288" d="M234 489Q255 498 273 492T300 467Q311 447 306 427T278 395L234 372V71Q234 34 213 15T160 -4H129Q96 -4 76 15T55 71V282Q18 274 2 309Q-9 329 -4 349T24 381L55 397V624Q55 700 127 700H154Q196
700 215 675T234 590V489Z" />
<glyph unicode="&#x143;" glyph-name="Nacute" horiz-adv-x="709" d="M125 0Q96 0 77 17T57 69V618Q57 656 79 678T139 700H195Q233 700 257 683T303 628L491 295H494V631Q494 667 514 683T564 700H584Q613 700 632 684T652 631V73Q652 38 631 19T576 0H539Q505
0 484 14T442 63L217 459H214V69Q214 34 195 17T146 0H125ZM327 817Q336 847 356 859T408 871H457Q478 871 490 863T507 843T507 817T487 789L454 760Q433 741 413 733T372 724H364Q338 724 324 741T318 787L327 817Z" />
<glyph unicode="&#x144;" glyph-name="nacute" horiz-adv-x="604" d="M316 397Q291 397 270 392T229 380V75Q229 38 208 19T155 0H123Q91 0 70 19T49 75V452Q49 527 121 527H149Q177 527 196 514T223 461Q258 491 307 513T415 535Q445 535 471 528T516 504T547
459T558 386V75Q558 38 537 19T484 0H453Q420 0 399 19T378 75V339Q378 374 363 385T316 397ZM268 651Q284 709 346 709H401Q419 709 431 701T447 681T449 655T431 627L394 592Q354 555 313 555H307Q281 555 266 572T259 619L268 651Z" />
<glyph unicode="&#x145;" glyph-name="Ncommaaccent" horiz-adv-x="709" d="M125 0Q96 0 77 17T57 69V618Q57 656 79 678T139 700H195Q233 700 257 683T303 628L491 295H494V631Q494 667 514 683T564 700H584Q613 700 632 684T652 631V73Q652 38 631 19T576 0H539Q505
0 484 14T442 63L217 459H214V69Q214 34 195 17T146 0H125ZM271 -196Q271 -186 276 -179T298 -166Q314 -161 319 -157T325 -146Q325 -140 321 -136T302 -123Q288 -115 281 -104T273 -75Q273 -51 292 -35T344 -18Q379 -18 400 -38T421 -99Q421 -153 392 -185T313
-224Q293 -227 282 -220T271 -197V-196Z" />
<glyph unicode="&#x146;" glyph-name="ncommaaccent" horiz-adv-x="604" d="M316 397Q291 397 270 392T229 380V75Q229 38 208 19T155 0H123Q91 0 70 19T49 75V452Q49 527 121 527H149Q177 527 196 514T223 461Q258 491 307 513T415 535Q445 535 471 528T516 504T547
459T558 386V75Q558 38 537 19T484 0H453Q420 0 399 19T378 75V339Q378 374 363 385T316 397ZM230 -196Q230 -186 235 -179T257 -166Q273 -161 278 -157T284 -146Q284 -140 280 -136T261 -123Q247 -115 240 -104T232 -75Q232 -51 251 -35T303 -18Q338 -18 359 -38T380
-99Q380 -153 351 -185T272 -224Q252 -227 241 -220T230 -197V-196Z" />
<glyph unicode="&#x147;" glyph-name="Ncaron" horiz-adv-x="709" d="M125 0Q96 0 77 17T57 69V618Q57 656 79 678T139 700H195Q233 700 257 683T303 628L491 295H494V631Q494 667 514 683T564 700H584Q613 700 632 684T652 631V73Q652 38 631 19T576 0H539Q505
0 484 14T442 63L217 459H214V69Q214 34 195 17T146 0H125ZM367 722Q343 722 320 732T271 768L260 779Q244 795 240 812T240 843T257 866T286 875H289Q319 875 359 836L371 824L384 836Q426 875 454 875H456Q473 875 485 866T502 843T503 812T483 779L472 768Q446
742 423 732T376 722H367Z" />
<glyph unicode="&#x148;" glyph-name="ncaron" horiz-adv-x="604" d="M316 397Q291 397 270 392T229 380V75Q229 38 208 19T155 0H123Q91 0 70 19T49 75V452Q49 527 121 527H149Q177 527 196 514T223 461Q258 491 307 513T415 535Q445 535 471 528T516 504T547
459T558 386V75Q558 38 537 19T484 0H453Q420 0 399 19T378 75V339Q378 374 363 385T316 397ZM203 606Q183 625 178 644T176 679T193 703T223 713H226Q243 713 259 704T295 675L307 661L319 675Q339 695 355 704T388 713H391Q407 713 420 704T437 679T437 645T411
606L402 597Q379 574 358 565T310 555H304Q278 555 257 564T212 597L203 606Z" />
<glyph unicode="&#x14c;" glyph-name="Omacron" horiz-adv-x="744" d="M718 349Q718 262 691 196T616 84T506 15T372 -9Q301 -9 238 14T128 83T54 195T27 349Q27 436 54 503T129 615T239 685T372 709Q442 709 505 685T615 616T690 503T718 349ZM222 347Q222 229
264 176T372 122Q438 122 480 175T522 347Q522 465 480 519T372 574Q306 574 264 520T222 347ZM461 843Q490 843 502 828T515 790V788Q515 766 503 750T461 734H283Q254 734 242 750T230 788V790Q230 812 242 827T283 843H461Z" />
<glyph unicode="&#x14d;" glyph-name="omacron" horiz-adv-x="603" d="M582 261Q582 198 561 148T502 64T413 11T302 -8Q242 -8 191 10T103 63T44 148T22 261Q22 324 43 375T102 461T191 516T302 535Q361 535 412 516T501 462T560 375T582 261ZM203 259Q203 181
230 146T302 110Q347 110 373 145T400 259Q400 338 374 375T302 413Q257 413 230 376T203 259ZM387 687Q416 687 428 672T441 634V632Q441 610 429 595T387 579H215Q186 579 174 594T161 632V634Q161 656 173 671T215 687H387Z" />
<glyph unicode="&#x150;" glyph-name="Ohungarumlaut" horiz-adv-x="744" d="M718 349Q718 262 691 196T616 84T506 15T372 -9Q301 -9 238 14T128 83T54 195T27 349Q27 436 54 503T129 615T239 685T372 709Q442 709 505 685T615 616T690 503T718 349ZM222 347Q222
229 264 176T372 122Q438 122 480 175T522 347Q522 465 480 519T372 574Q306 574 264 520T222 347ZM424 814Q432 844 450 857T501 870H530Q565 870 575 847T559 792L535 763Q517 741 500 732T461 723H457Q434 723 421 738T416 783L424 814ZM245 814Q253 844 271
857T321 870H351Q386 870 395 847T379 792L355 763Q322 723 281 723H278Q255 723 242 738T237 783L245 814Z" />
<glyph unicode="&#x151;" glyph-name="ohungarumlaut" horiz-adv-x="603" d="M582 261Q582 198 561 148T502 64T413 11T302 -8Q242 -8 191 10T103 63T44 148T22 261Q22 324 43 375T102 461T191 516T302 535Q361 535 412 516T501 462T560 375T582 261ZM203 259Q203
181 230 146T302 110Q347 110 373 145T400 259Q400 338 374 375T302 413Q257 413 230 376T203 259ZM177 651Q193 709 255 709H280Q296 709 307 703T323 685T325 659T310 628L285 596Q265 572 249 564T212 555H209Q186 555 174 571T169 618L177 651ZM354 651Q370
709 432 709H457Q473 709 484 703T500 685T502 659T487 628L462 596Q442 572 426 564T389 555H386Q363 555 351 571T346 618L354 651Z" />
<glyph unicode="&#x152;" glyph-name="OE" horiz-adv-x="970" d="M398 0Q216 0 122 85T27 346Q27 524 121 612T403 700H865Q896 700 911 683T927 638V629Q927 600 912 583T865 566H641V417H786Q816 417 831 401T846 357V352Q846 325 831 308T786 291H641V130H876Q907
130 922 114T937 69V62Q937 33 922 17T876 0H398ZM450 569H406Q359 569 325 558T267 521T233 453T222 351Q222 231 266 181T406 131H450V569Z" />
<glyph unicode="&#x153;" glyph-name="oe" horiz-adv-x="936" d="M298 535Q356 535 404 515T487 458Q519 495 565 515T671 535Q733 535 779 518T855 468T900 391T915 291Q915 224 844 224H580Q583 191 592 169T618 135T655 117T704 112Q736 112 757 118T794 131T822
144T848 150Q870 150 883 137T896 98V90Q896 45 847 21Q817 7 776 0T680 -8Q613 -8 565 10T485 64Q415 -8 299 -8Q240 -8 190 10T102 63T43 148T22 261Q22 324 43 375T101 461T189 516T298 535ZM203 259Q203 181 230 145T302 109Q347 109 373 145T400 259Q400 338
374 374T302 411Q257 411 230 375T203 259ZM668 425Q652 425 638 421T613 404T593 371T581 318H745Q743 379 724 402T668 425Z" />
<glyph unicode="&#x154;" glyph-name="Racute" horiz-adv-x="660" d="M512 0Q483 0 462 15T421 67L320 257H249V78Q249 39 227 20T171 0H135Q102 0 80 19T57 78V618Q57 657 79 678T139 700H320Q460 700 530 646T600 486Q600 420 573 374T496 299L602 106Q614 85
615 66T609 32T586 9T550 0H512ZM247 570V382H308Q362 382 386 405T410 476Q410 523 386 546T308 570H247ZM271 817Q280 847 300 859T352 871H401Q422 871 434 863T451 843T451 817T431 789L398 760Q377 741 357 733T316 724H308Q282 724 268 741T262 787L271 817Z"
/>
<glyph unicode="&#x155;" glyph-name="racute" horiz-adv-x="418" d="M152 527Q178 527 196 511T223 453Q236 471 252 485T285 510T320 526T353 532Q377 532 391 519T405 474V444Q405 382 341 378Q305 375 277 370T229 358V75Q229 38 208 19T155 0H123Q91 0 70
19T49 75V452Q49 527 121 527H152ZM200 651Q216 709 278 709H333Q351 709 363 701T379 681T381 655T363 627L326 592Q286 555 245 555H239Q213 555 198 572T191 619L200 651Z" />
<glyph unicode="&#x156;" glyph-name="Rcommaaccent" horiz-adv-x="660" d="M512 0Q483 0 462 15T421 67L320 257H249V78Q249 39 227 20T171 0H135Q102 0 80 19T57 78V618Q57 657 79 678T139 700H320Q460 700 530 646T600 486Q600 420 573 374T496 299L602 106Q614
85 615 66T609 32T586 9T550 0H512ZM247 570V382H308Q362 382 386 405T410 476Q410 523 386 546T308 570H247ZM263 -196Q263 -186 268 -179T290 -166Q306 -161 311 -157T317 -146Q317 -140 313 -136T294 -123Q280 -115 273 -104T265 -75Q265 -51 284 -35T336 -18Q371
-18 392 -38T413 -99Q413 -153 384 -185T305 -224Q285 -227 274 -220T263 -197V-196Z" />
<glyph unicode="&#x157;" glyph-name="rcommaaccent" horiz-adv-x="418" d="M152 527Q178 527 196 511T223 453Q236 471 252 485T285 510T320 526T353 532Q377 532 391 519T405 474V444Q405 382 341 378Q305 375 277 370T229 358V75Q229 38 208 19T155 0H123Q91
0 70 19T49 75V452Q49 527 121 527H152ZM317 -196Q317 -186 322 -179T344 -166Q360 -161 365 -157T371 -146Q371 -140 367 -136T348 -123Q334 -115 327 -104T319 -75Q319 -51 338 -35T390 -18Q425 -18 446 -38T467 -99Q467 -153 438 -185T359 -224Q339 -227 328
-220T317 -197V-196Z" />
<glyph unicode="&#x158;" glyph-name="Rcaron" horiz-adv-x="660" d="M512 0Q483 0 462 15T421 67L320 257H249V78Q249 39 227 20T171 0H135Q102 0 80 19T57 78V618Q57 657 79 678T139 700H320Q460 700 530 646T600 486Q600 420 573 374T496 299L602 106Q614 85
615 66T609 32T586 9T550 0H512ZM247 570V382H308Q362 382 386 405T410 476Q410 523 386 546T308 570H247ZM310 722Q286 722 263 732T214 768L203 779Q187 795 183 812T183 843T200 866T229 875H232Q262 875 302 836L314 824L327 836Q369 875 397 875H399Q416 875
428 866T445 843T446 812T426 779L415 768Q389 742 366 732T319 722H310Z" />
<glyph unicode="&#x159;" glyph-name="rcaron" horiz-adv-x="418" d="M152 527Q178 527 196 511T223 453Q236 471 252 485T285 510T320 526T353 532Q377 532 391 519T405 474V444Q405 382 341 378Q305 375 277 370T229 358V75Q229 38 208 19T155 0H123Q91 0 70
19T49 75V452Q49 527 121 527H152ZM134 606Q114 625 109 644T107 679T124 703T154 713H157Q174 713 190 704T226 675L238 661L250 675Q270 695 286 704T319 713H322Q338 713 351 704T368 679T368 645T342 606L333 597Q310 574 289 565T241 555H235Q209 555 188
564T143 597L134 606Z" />
<glyph unicode="&#x15a;" glyph-name="Sacute" horiz-adv-x="556" d="M531 212Q531 106 460 49T250 -9Q196 -9 152 -1T78 20Q48 34 35 53T21 102V116Q21 145 35 162T77 179Q95 179 108 171T139 152T180 133T243 124Q297 124 325 142T354 193Q354 215 344 228T316
250T274 265T220 279Q172 292 136 309T74 351T37 411T24 496Q24 550 43 590T98 656T181 696T287 709Q378 709 438 686Q497 664 497 608V595Q497 567 483 552T445 536Q429 536 416 542T385 555T346 569T289 576Q192 576 192 511Q192 478 221 463T308 434Q369 419
412 401T481 358T519 297T531 212ZM239 817Q248 847 268 859T320 871H369Q390 871 402 863T419 843T419 817T399 789L366 760Q345 741 325 733T284 724H276Q250 724 236 741T230 787L239 817Z" />
<glyph unicode="&#x15b;" glyph-name="sacute" horiz-adv-x="471" d="M451 172Q451 87 394 40T216 -7Q133 -7 83 12Q24 34 24 87V95Q24 121 37 136T74 152Q87 152 99 146T125 133T159 120T209 114Q245 114 266 123T288 152Q288 162 284 169T270 182T241 191T196
199Q154 204 122 215T68 245T35 292T23 362Q23 405 39 437T84 491T153 523T244 534Q322 534 369 518Q400 508 413 492T426 451V437Q426 411 413 398T379 384Q365 384 353 389T326 399T293 410T250 415Q212 415 196 406T180 377Q180 360 199 351T269 336Q315 330
349 320T406 291T440 243T451 172ZM201 651Q217 709 279 709H334Q352 709 364 701T380 681T382 655T364 627L327 592Q287 555 246 555H240Q214 555 199 572T192 619L201 651Z" />
<glyph unicode="&#x15c;" glyph-name="Scircumflex" horiz-adv-x="556" d="M531 212Q531 106 460 49T250 -9Q196 -9 152 -1T78 20Q48 34 35 53T21 102V116Q21 145 35 162T77 179Q95 179 108 171T139 152T180 133T243 124Q297 124 325 142T354 193Q354 215 344
228T316 250T274 265T220 279Q172 292 136 309T74 351T37 411T24 496Q24 550 43 590T98 656T181 696T287 709Q378 709 438 686Q497 664 497 608V595Q497 567 483 552T445 536Q429 536 416 542T385 555T346 569T289 576Q192 576 192 511Q192 478 221 463T308 434Q369
419 412 401T481 358T519 297T531 212ZM285 875Q309 875 332 865T381 829L392 818Q408 802 412 785T412 754T395 731T365 722H363Q335 722 293 761L280 773L268 761Q228 722 198 722H195Q178 722 166 731T150 754T149 785T169 818L180 829Q205 854 228 864T276
875H285Z" />
<glyph unicode="&#x15d;" glyph-name="scircumflex" horiz-adv-x="471" d="M451 172Q451 87 394 40T216 -7Q133 -7 83 12Q24 34 24 87V95Q24 121 37 136T74 152Q87 152 99 146T125 133T159 120T209 114Q245 114 266 123T288 152Q288 162 284 169T270 182T241 191T196
199Q154 204 122 215T68 245T35 292T23 362Q23 405 39 437T84 491T153 523T244 534Q322 534 369 518Q400 508 413 492T426 451V437Q426 411 413 398T379 384Q365 384 353 389T326 399T293 410T250 415Q212 415 196 406T180 377Q180 360 199 351T269 336Q315 330
349 320T406 291T440 243T451 172ZM142 671Q165 694 186 703T234 713H240Q266 713 287 704T332 671L341 662Q361 642 366 623T368 589T350 565T321 555H318Q301 555 285 564T249 593L237 607L225 593Q205 573 189 564T156 555H153Q136 555 124 564T107 589T107
623T133 662L142 671Z" />
<glyph unicode="&#x15e;" glyph-name="Scedilla" horiz-adv-x="556" d="M531 212Q531 115 472 59T297 -7V-24Q339 -26 358 -45T378 -97Q378 -132 351 -153T266 -175Q253 -175 239 -174T213 -168Q184 -158 184 -130V-126Q184 -113 189 -105T209 -97Q221 -97 229
-103T251 -109Q274 -109 274 -92Q274 -84 268 -80T245 -76H243Q221 -76 221 -55V-8Q176 -6 139 1T78 20Q48 34 35 53T21 102V116Q21 145 35 162T77 179Q95 179 108 171T139 152T180 133T243 124Q297 124 325 142T354 193Q354 215 344 228T316 250T274 265T220 279Q172
292 136 309T74 351T37 411T24 496Q24 550 43 590T98 656T181 696T287 709Q378 709 438 686Q497 664 497 608V595Q497 567 483 552T445 536Q429 536 416 542T385 555T346 569T289 576Q192 576 192 511Q192 478 221 463T308 434Q369 419 412 401T481 358T519 297T531
212Z" />
<glyph unicode="&#x15f;" glyph-name="scedilla" horiz-adv-x="471" d="M451 172Q451 97 406 51T265 -4V-24Q307 -26 326 -45T346 -97Q346 -132 319 -153T234 -175Q221 -175 207 -174T181 -168Q152 -158 152 -130V-126Q152 -113 157 -105T177 -97Q189 -97 197
-103T219 -109Q242 -109 242 -92Q242 -84 236 -80T213 -76H211Q189 -76 189 -55V-6Q125 -5 83 12Q24 34 24 87V95Q24 121 37 136T74 152Q87 152 99 146T125 133T159 120T209 114Q245 114 266 123T288 152Q288 162 284 169T270 182T241 191T196 199Q154 204 122
215T68 245T35 292T23 362Q23 405 39 437T84 491T153 523T244 534Q322 534 369 518Q400 508 413 492T426 451V437Q426 411 413 398T379 384Q365 384 353 389T326 399T293 410T250 415Q212 415 196 406T180 377Q180 360 199 351T269 336Q315 330 349 320T406 291T440
243T451 172Z" />
<glyph unicode="&#x160;" glyph-name="Scaron" horiz-adv-x="556" d="M531 212Q531 106 460 49T250 -9Q196 -9 152 -1T78 20Q48 34 35 53T21 102V116Q21 145 35 162T77 179Q95 179 108 171T139 152T180 133T243 124Q297 124 325 142T354 193Q354 215 344 228T316
250T274 265T220 279Q172 292 136 309T74 351T37 411T24 496Q24 550 43 590T98 656T181 696T287 709Q378 709 438 686Q497 664 497 608V595Q497 567 483 552T445 536Q429 536 416 542T385 555T346 569T289 576Q192 576 192 511Q192 478 221 463T308 434Q369 419
412 401T481 358T519 297T531 212ZM278 722Q254 722 231 732T182 768L171 779Q155 795 151 812T151 843T168 866T197 875H200Q230 875 270 836L282 824L295 836Q337 875 365 875H367Q384 875 396 866T413 843T414 812T394 779L383 768Q357 742 334 732T287 722H278Z"
/>
<glyph unicode="&#x161;" glyph-name="scaron" horiz-adv-x="471" d="M451 172Q451 87 394 40T216 -7Q133 -7 83 12Q24 34 24 87V95Q24 121 37 136T74 152Q87 152 99 146T125 133T159 120T209 114Q245 114 266 123T288 152Q288 162 284 169T270 182T241 191T196
199Q154 204 122 215T68 245T35 292T23 362Q23 405 39 437T84 491T153 523T244 534Q322 534 369 518Q400 508 413 492T426 451V437Q426 411 413 398T379 384Q365 384 353 389T326 399T293 410T250 415Q212 415 196 406T180 377Q180 360 199 351T269 336Q315 330
349 320T406 291T440 243T451 172ZM139 606Q119 625 114 644T112 679T129 703T159 713H162Q179 713 195 704T231 675L243 661L255 675Q275 695 291 704T324 713H327Q343 713 356 704T373 679T373 645T347 606L338 597Q315 574 294 565T246 555H240Q214 555 193
564T148 597L139 606Z" />
<glyph unicode="&#x162;" glyph-name="Tcommaaccent" horiz-adv-x="603" d="M397 567V79Q397 39 375 20T320 0H283Q250 0 228 19T205 79V567H83Q54 567 38 582T21 628V639Q21 669 37 684T83 700H519Q548 700 565 685T582 639V628Q582 598 565 583T519 567H397ZM225
-196Q225 -186 230 -179T252 -166Q268 -161 273 -157T279 -146Q279 -140 275 -136T256 -123Q242 -115 235 -104T227 -75Q227 -51 246 -35T298 -18Q333 -18 354 -38T375 -99Q375 -153 346 -185T267 -224Q247 -227 236 -220T225 -197V-196Z" />
<glyph unicode="&#x163;" glyph-name="tcommaaccent" horiz-adv-x="373" d="M61 411Q37 411 24 424T10 465V473Q10 499 23 513T61 527H73V591Q73 626 93 645T148 665H180Q214 665 233 646T253 591V527H302Q328 527 341 513T355 473V465Q355 439 342 425T302 411H253V171Q253
136 265 124T306 109Q329 107 341 98T355 64V52Q355 5 305 -5Q282 -9 244 -9Q206 -9 175 -2T121 24T86 71T73 144V411H61ZM133 -196Q133 -186 138 -179T160 -166Q176 -161 181 -157T187 -146Q187 -140 183 -136T164 -123Q150 -115 143 -104T135 -75Q135 -51 154
-35T206 -18Q241 -18 262 -38T283 -99Q283 -153 254 -185T175 -224Q155 -227 144 -220T133 -197V-196Z" />
<glyph unicode="&#x164;" glyph-name="Tcaron" horiz-adv-x="603" d="M397 567V79Q397 39 375 20T320 0H283Q250 0 228 19T205 79V567H83Q54 567 38 582T21 628V639Q21 669 37 684T83 700H519Q548 700 565 685T582 639V628Q582 598 565 583T519 567H397ZM297 722Q273
722 250 732T201 768L190 779Q174 795 170 812T170 843T187 866T216 875H219Q249 875 289 836L301 824L314 836Q356 875 384 875H386Q403 875 415 866T432 843T433 812T413 779L402 768Q376 742 353 732T306 722H297Z" />
<glyph unicode="&#x165;" glyph-name="tcaron" horiz-adv-x="373" d="M395 588Q381 564 366 554T334 544H332Q315 544 302 555T289 590V641Q289 667 305 685T357 704H374Q410 704 422 681T418 629L395 588ZM61 411Q37 411 24 424T10 465V473Q10 499 23 513T61
527H73V591Q73 626 93 645T148 665H180Q214 665 233 646T253 591V527H302Q328 527 341 513T355 473V465Q355 439 342 425T302 411H253V171Q253 136 265 124T306 109Q329 107 341 98T355 64V52Q355 5 305 -5Q282 -9 244 -9Q206 -9 175 -2T121 24T86 71T73 144V411H61Z"
/>
<glyph unicode="&#x16a;" glyph-name="Umacron" horiz-adv-x="695" d="M451 843Q480 843 492 828T505 790V788Q505 766 493 750T451 734H273Q244 734 232 750T220 788V790Q220 812 232 827T273 843H451ZM246 267Q246 228 254 202T277 160T314 138T367 131Q395
131 416 137T452 159T474 201T481 267V631Q481 665 499 682T549 700H572Q603 700 621 683T640 631V266Q640 132 572 62T355 -8Q206 -8 130 62T54 266V622Q54 657 74 678T132 700H169Q206 700 226 679T246 622V267Z" />
<glyph unicode="&#x16b;" glyph-name="umacron" horiz-adv-x="612" d="M457 0Q429 0 412 14T387 62Q351 33 305 13T204 -8Q171 -8 143 -1T95 24T62 71T50 143V453Q50 488 70 507T124 527H156Q190 527 210 508T230 453V184Q230 149 246 137T298 124Q319 124 340
129T380 141V453Q380 488 399 507T454 527H485Q520 527 539 508T559 453V76Q559 0 488 0H457ZM392 687Q421 687 433 672T446 634V632Q446 610 434 595T392 579H220Q191 579 179 594T166 632V634Q166 656 178 671T220 687H392Z" />
<glyph unicode="&#x16c;" glyph-name="Ubreve" horiz-adv-x="695" d="M246 267Q246 228 254 202T277 160T314 138T367 131Q395 131 416 137T452 159T474 201T481 267V631Q481 665 499 682T549 700H572Q603 700 621 683T640 631V266Q640 132 572 62T355 -8Q206
-8 130 62T54 266V622Q54 657 74 678T132 700H169Q206 700 226 679T246 622V267ZM362 723Q309 723 271 745T221 802Q212 828 223 847T261 867H264Q277 867 287 861T308 846Q319 838 332 832T362 825Q379 825 392 831T416 846Q427 854 437 860T460 867H463Q489 867
500 848T503 802Q492 767 454 745T362 723Z" />
<glyph unicode="&#x16d;" glyph-name="ubreve" horiz-adv-x="612" d="M457 0Q429 0 412 14T387 62Q351 33 305 13T204 -8Q171 -8 143 -1T95 24T62 71T50 143V453Q50 488 70 507T124 527H156Q190 527 210 508T230 453V184Q230 149 246 137T298 124Q319 124 340
129T380 141V453Q380 488 399 507T454 527H485Q520 527 539 508T559 453V76Q559 0 488 0H457ZM305 561Q251 561 212 586T158 650Q153 663 153 676T159 698T174 714T197 720H200Q215 720 226 713T249 695Q260 686 273 678T305 670Q323 670 336 678T361 695Q373 705
384 712T410 720H413Q426 720 435 714T450 699T456 676T452 650Q438 611 399 586T305 561Z" />
<glyph unicode="&#x16e;" glyph-name="Uring" horiz-adv-x="695" d="M246 267Q246 228 254 202T277 160T314 138T367 131Q395 131 416 137T452 159T474 201T481 267V631Q481 665 499 682T549 700H572Q603 700 621 683T640 631V266Q640 132 572 62T355 -8Q206 -8
130 62T54 266V622Q54 657 74 678T132 700H169Q206 700 226 679T246 622V267ZM471 802Q471 755 440 728T364 701Q320 701 289 728T257 802Q257 850 288 877T364 904Q408 904 439 877T471 802ZM331 802Q331 786 340 777T364 767Q380 767 389 776T398 802Q398 819
389 828T364 838Q349 838 340 829T331 802Z" />
<glyph unicode="&#x16f;" glyph-name="uring" horiz-adv-x="612" d="M457 0Q429 0 412 14T387 62Q351 33 305 13T204 -8Q171 -8 143 -1T95 24T62 71T50 143V453Q50 488 70 507T124 527H156Q190 527 210 508T230 453V184Q230 149 246 137T298 124Q319 124 340 129T380
141V453Q380 488 399 507T454 527H485Q520 527 539 508T559 453V76Q559 0 488 0H457ZM413 664Q413 616 382 589T306 562Q262 562 231 589T199 664Q199 711 230 738T306 766Q350 766 381 739T413 664ZM273 664Q273 647 282 638T306 628Q322 628 331 637T340 664Q340
681 331 690T306 700Q291 700 282 691T273 664Z" />
<glyph unicode="&#x170;" glyph-name="Uhungarumlaut" horiz-adv-x="695" d="M246 267Q246 228 254 202T277 160T314 138T367 131Q395 131 416 137T452 159T474 201T481 267V631Q481 665 499 682T549 700H572Q603 700 621 683T640 631V266Q640 132 572 62T355
-8Q206 -8 130 62T54 266V622Q54 657 74 678T132 700H169Q206 700 226 679T246 622V267ZM415 814Q423 844 441 857T492 870H521Q556 870 566 847T550 792L526 763Q508 741 491 732T452 723H448Q425 723 412 738T407 783L415 814ZM236 814Q244 844 262 857T312 870H342Q377
870 386 847T370 792L346 763Q313 723 272 723H269Q246 723 233 738T228 783L236 814Z" />
<glyph unicode="&#x171;" glyph-name="uhungarumlaut" horiz-adv-x="612" d="M457 0Q429 0 412 14T387 62Q351 33 305 13T204 -8Q171 -8 143 -1T95 24T62 71T50 143V453Q50 488 70 507T124 527H156Q190 527 210 508T230 453V184Q230 149 246 137T298 124Q319 124
340 129T380 141V453Q380 488 399 507T454 527H485Q520 527 539 508T559 453V76Q559 0 488 0H457ZM181 651Q197 709 259 709H284Q300 709 311 703T327 685T329 659T314 628L289 596Q269 572 253 564T216 555H213Q190 555 178 571T173 618L181 651ZM358 651Q374
709 436 709H461Q477 709 488 703T504 685T506 659T491 628L466 596Q446 572 430 564T393 555H390Q367 555 355 571T350 618L358 651Z" />
<glyph unicode="&#x172;" glyph-name="Uogonek" horiz-adv-x="695" d="M367 131Q395 131 416 137T452 159T474 201T481 267V631Q481 665 499 682T549 700H572Q603 700 621 683T640 631V266Q640 175 611 116T517 24Q502 16 485 10T454 -3T430 -20T420 -42Q420 -54
429 -60T449 -71Q467 -79 474 -88T482 -114V-116Q482 -139 461 -153T396 -167Q374 -167 354 -163T319 -150T294 -127T285 -90Q285 -62 300 -42T339 -7Q324 -7 310 -6T279 -2Q170 14 112 82T54 266V622Q54 657 74 678T132 700H169Q206 700 226 679T246 622V267Q246
228 254 202T277 160T314 138T367 131Z" />
<glyph unicode="&#x173;" glyph-name="uogonek" horiz-adv-x="612" d="M530 5Q494 -22 494 -41Q494 -55 503 -61T523 -72Q541 -80 549 -88T557 -114V-116Q557 -139 536 -153T471 -167Q451 -167 431 -164T396 -151T370 -128T360 -90Q360 -58 380 -34T430 6Q413
11 403 24T386 61Q350 32 304 12T204 -8Q171 -8 143 -1T95 24T62 71T50 143V453Q50 488 70 507T124 527H156Q190 527 210 508T230 453V184Q230 149 246 137T298 124Q319 124 340 129T380 141V453Q380 488 399 507T454 527H485Q520 527 539 508T559 453V72Q559 46
553 32T530 5Z" />
<glyph unicode="&#x178;" glyph-name="Ydieresis" horiz-adv-x="635" d="M556 700Q577 700 590 692T610 671T615 640T603 605L420 265V79Q420 39 398 20T342 0H306Q273 0 251 19T228 79V261L39 599Q28 618 28 636T35 668T58 691T96 700H132Q164 700 184 683T225
628L334 427H336L445 636Q462 668 481 684T529 700H556ZM315 806Q315 771 292 749T231 726Q194 726 170 748T146 806Q146 840 170 862T231 885Q268 885 291 863T315 806ZM520 806Q520 771 496 749T435 726Q398 726 375 748T351 806Q351 840 374 862T435 885Q472
885 496 863T520 806Z" />
<glyph unicode="&#x179;" glyph-name="Zacute" horiz-adv-x="574" d="M338 563V567H110Q80 567 64 584T48 629V639Q48 666 64 683T110 700H476Q508 700 526 683T544 635V616Q544 599 542 585T536 559T523 533T503 502L233 135V131H483Q514 131 529 114T545 71V62Q545
34 530 17T483 0H94Q67 0 47 18T27 66V80Q27 96 29 110T36 137T49 166T72 199L338 563ZM250 817Q259 847 279 859T331 871H380Q401 871 413 863T430 843T430 817T410 789L377 760Q356 741 336 733T295 724H287Q261 724 247 741T241 787L250 817Z" />
<glyph unicode="&#x17a;" glyph-name="zacute" horiz-adv-x="503" d="M269 403H93Q64 403 49 419T34 462V467Q34 493 49 510T93 527H412Q444 527 462 511T480 464V457Q480 429 470 408T437 360L229 122H415Q443 122 458 106T474 64V59Q474 33 459 17T415 0H88Q56
0 38 17T20 65V70Q20 96 29 117T63 166L269 403ZM218 651Q234 709 296 709H351Q369 709 381 701T397 681T399 655T381 627L344 592Q304 555 263 555H257Q231 555 216 572T209 619L218 651Z" />
<glyph unicode="&#x17b;" glyph-name="Zdotaccent" horiz-adv-x="574" d="M338 563V567H110Q80 567 64 584T48 629V639Q48 666 64 683T110 700H476Q508 700 526 683T544 635V616Q544 599 542 585T536 559T523 533T503 502L233 135V131H483Q514 131 529 114T545
71V62Q545 34 530 17T483 0H94Q67 0 47 18T27 66V80Q27 96 29 110T36 137T49 166T72 199L338 563ZM390 808Q390 772 364 749T299 725Q260 725 234 748T208 808Q208 845 234 868T299 892Q338 892 364 869T390 808Z" />
<glyph unicode="&#x17c;" glyph-name="zdotaccent" horiz-adv-x="503" d="M269 403H93Q64 403 49 419T34 462V467Q34 493 49 510T93 527H412Q444 527 462 511T480 464V457Q480 429 470 408T437 360L229 122H415Q443 122 458 106T474 64V59Q474 33 459 17T415 0H88Q56
0 38 17T20 65V70Q20 96 29 117T63 166L269 403ZM346 642Q346 606 320 583T255 559Q216 559 190 582T164 642Q164 678 190 702T255 726Q294 726 320 702T346 642Z" />
<glyph unicode="&#x17d;" glyph-name="Zcaron" horiz-adv-x="574" d="M338 563V567H110Q80 567 64 584T48 629V639Q48 666 64 683T110 700H476Q508 700 526 683T544 635V616Q544 599 542 585T536 559T523 533T503 502L233 135V131H483Q514 131 529 114T545 71V62Q545
34 530 17T483 0H94Q67 0 47 18T27 66V80Q27 96 29 110T36 137T49 166T72 199L338 563ZM297 722Q273 722 250 732T201 768L190 779Q174 795 170 812T170 843T187 866T216 875H219Q249 875 289 836L301 824L314 836Q356 875 384 875H386Q403 875 415 866T432 843T433
812T413 779L402 768Q376 742 353 732T306 722H297Z" />
<glyph unicode="&#x17e;" glyph-name="zcaron" horiz-adv-x="503" d="M269 403H93Q64 403 49 419T34 462V467Q34 493 49 510T93 527H412Q444 527 462 511T480 464V457Q480 429 470 408T437 360L229 122H415Q443 122 458 106T474 64V59Q474 33 459 17T415 0H88Q56
0 38 17T20 65V70Q20 96 29 117T63 166L269 403ZM155 606Q135 625 130 644T128 679T145 703T175 713H178Q195 713 211 704T247 675L259 661L271 675Q291 695 307 704T340 713H343Q359 713 372 704T389 679T389 645T363 606L354 597Q331 574 310 565T262 555H256Q230
555 209 564T164 597L155 606Z" />
<glyph unicode="&#x192;" glyph-name="florin" horiz-adv-x="403" d="M282 444H312Q344 444 356 428T369 387V385Q369 362 357 345T312 328H268L226 -23Q221 -64 198 -82T141 -100H112Q81 -100 61 -81T45 -25L86 328H83Q51 328 39 345T26 385V387Q26 411 38 427T83
444H100L113 555Q131 712 299 712Q313 712 326 711T352 707Q398 698 398 655V645Q398 624 386 611T347 594Q323 591 311 581T294 545L282 444Z" />
<glyph unicode="&#x218;" glyph-name="Scommaaccent" horiz-adv-x="556" d="M531 212Q531 106 460 49T250 -9Q196 -9 152 -1T78 20Q48 34 35 53T21 102V116Q21 145 35 162T77 179Q95 179 108 171T139 152T180 133T243 124Q297 124 325 142T354 193Q354 215 344
228T316 250T274 265T220 279Q172 292 136 309T74 351T37 411T24 496Q24 550 43 590T98 656T181 696T287 709Q378 709 438 686Q497 664 497 608V595Q497 567 483 552T445 536Q429 536 416 542T385 555T346 569T289 576Q192 576 192 511Q192 478 221 463T308 434Q369
419 412 401T481 358T519 297T531 212ZM197 -196Q197 -186 202 -179T224 -166Q240 -161 245 -157T251 -146Q251 -140 247 -136T228 -123Q214 -115 207 -104T199 -75Q199 -51 218 -35T270 -18Q305 -18 326 -38T347 -99Q347 -153 318 -185T239 -224Q219 -227 208
-220T197 -197V-196Z" />
<glyph unicode="&#x219;" glyph-name="scommaaccent" horiz-adv-x="471" d="M451 172Q451 87 394 40T216 -7Q133 -7 83 12Q24 34 24 87V95Q24 121 37 136T74 152Q87 152 99 146T125 133T159 120T209 114Q245 114 266 123T288 152Q288 162 284 169T270 182T241
191T196 199Q154 204 122 215T68 245T35 292T23 362Q23 405 39 437T84 491T153 523T244 534Q322 534 369 518Q400 508 413 492T426 451V437Q426 411 413 398T379 384Q365 384 353 389T326 399T293 410T250 415Q212 415 196 406T180 377Q180 360 199 351T269 336Q315
330 349 320T406 291T440 243T451 172ZM163 58Q163 68 168 75T190 88Q206 93 211 97T217 108Q217 114 213 118T194 131Q180 139 173 150T165 179Q165 203 184 219T236 236Q271 236 292 216T313 155Q313 101 284 69T205 30Q185 27 174 34T163 57V58Z" />
<glyph unicode="&#x237;" glyph-name="uni0237" horiz-adv-x="280" d="M229 -7Q229 -94 185 -131T54 -169Q39 -169 24 -168T-3 -164Q-23 -159 -33 -147T-43 -112V-106Q-43 -64 -5 -58Q27 -54 38 -41T50 4V452Q50 527 122 527H149Q192 527 210 503T229 421V-7Z" />
<glyph unicode="&#x2c6;" glyph-name="circumflex" horiz-adv-x="400" d="M105 670Q128 693 149 702T197 712H203Q229 712 250 703T295 670L304 661Q324 641 329 622T331 588T313 564T284 554H281Q264 554 248 563T212 592L200 606L188 592Q168 572 152 563T119
554H116Q99 554 87 563T70 588T70 622T96 661L105 670Z" />
<glyph unicode="&#x2c7;" glyph-name="caron" horiz-adv-x="400" d="M96 605Q76 624 71 643T69 678T86 702T116 712H119Q136 712 152 703T188 674L200 660L212 674Q232 694 248 703T281 712H284Q300 712 313 703T330 678T330 644T304 605L295 596Q272 573 251
564T203 554H197Q171 554 150 563T105 596L96 605Z" />
<glyph unicode="&#x2d8;" glyph-name="breve" horiz-adv-x="400" d="M200 561Q146 561 107 586T53 650Q48 663 48 676T54 698T69 714T92 720H95Q110 720 121 713T144 695Q155 686 168 678T200 670Q218 670 231 678T256 695Q268 705 279 712T305 720H308Q321 720
330 714T345 699T351 676T347 650Q333 611 294 586T200 561Z" />
<glyph unicode="&#x2d9;" glyph-name="dotaccent" horiz-adv-x="400" d="M291 641Q291 605 265 582T200 558Q161 558 135 581T109 641Q109 677 135 701T200 725Q239 725 265 701T291 641Z" />
<glyph unicode="&#x2da;" glyph-name="ring" horiz-adv-x="400" d="M307 664Q307 616 276 589T200 562Q156 562 125 589T93 664Q93 711 124 738T200 766Q244 766 275 739T307 664ZM167 664Q167 647 176 638T200 628Q216 628 225 637T234 664Q234 681 225 690T200
700Q185 700 176 691T167 664Z" />
<glyph unicode="&#x2db;" glyph-name="ogonek" horiz-adv-x="400" d="M107 -90Q107 -58 127 -36T175 0H277Q260 -14 252 -24T243 -46Q243 -57 251 -62T270 -72Q288 -80 296 -88T304 -114V-116Q304 -139 283 -153T218 -167Q198 -167 178 -164T143 -151T117 -128T107 -90Z" />
<glyph unicode="&#x2dc;" glyph-name="tilde" horiz-adv-x="400" d="M255 562Q238 562 223 566T193 576T166 585T145 590Q131 590 123 585T106 572Q98 566 91 561T72 555H69Q47 555 35 573T31 627Q39 662 66 684T134 706Q151 706 166 702T196 692T222 683T243
678Q257 678 266 683T283 696Q291 702 298 707T317 713H319Q342 713 354 695T358 641Q349 605 323 584T255 562Z" />
<glyph unicode="&#x2dd;" glyph-name="hungarumlaut" horiz-adv-x="400" d="M77 650Q93 708 155 708H180Q196 708 207 702T223 684T225 658T210 627L185 595Q165 571 149 563T112 554H109Q86 554 74 570T69 617L77 650ZM254 650Q270 708 332 708H357Q373 708 384
702T400 684T402 658T387 627L362 595Q342 571 326 563T289 554H286Q263 554 251 570T246 617L254 650Z" />
</font>
</defs>
</svg>
