<?xml version="1.0" encoding="utf-8"?>
<!-- Generator: Adobe Illustrator 23.0.1, SVG Export Plug-In . SVG Version: 6.00 Build 0)  -->
<svg version="1.1" id="Layer_1" xmlns="http://www.w3.org/2000/svg" xmlns:xlink="http://www.w3.org/1999/xlink" x="0px" y="0px"
	 viewBox="0 0 714.5 109.2" style="enable-background:new 0 0 714.5 109.2;" xml:space="preserve">
<style type="text/css">
	.st0{fill:#A70050;}
	.st1{fill:#1B75BC;}
</style>
<g>
	<path class="st0" d="M556.1,87.3c4.9-2,7.3-5.1,7.3-9.9v-1.1c0-4.3-1.9-6.9-6.1-6.9c-4,0-6.6,4.5-15,4.5c-8.7,0-14.3-5.6-14.3-18.2
		s6.1-18.7,14.8-18.7c7.7,0,10.4,4,14.6,4c3.5,0,6.1-2.3,6.1-7.1v-1.5c0-5.1-2.4-7.8-7.3-9.5c-4-1.4-8.8-2-14.4-2
		c-21.7,0-36.7,12.9-36.7,34.5c0,22,13.1,34.1,35.4,34.1C546.4,89.6,552,89,556.1,87.3L556.1,87.3z M595.7,99.7V83.3
		c3.9,3,9.1,4.7,16.3,4.7c14.8,0,28.7-9.1,28.7-34.5c0-24.2-12.5-32.5-25.1-32.5c-9.3,0-15.8,3.5-20.7,8.3c-1.4-5.7-4.3-7.3-8.8-7.3
		H582c-5.9,0-9.1,3-9.1,9.5v68.2c0,6.2,3.9,9.3,9.3,9.3h4C591.8,109.1,595.7,105.9,595.7,99.7L595.7,99.7z M605.3,37.8
		c6.8,0,12.4,3.4,12.4,17.7c0,14.6-5.8,17.8-12.8,17.8c-3.8,0-6.7-0.9-9.2-2.7V40.1C598.7,38.8,602.5,37.8,605.3,37.8L605.3,37.8z
		 M714.4,14.1c0-10.4-2.8-13.9-10-13.9h-3.7c-5.9,0-9.1,3.3-9.1,9.6v17.6c-4-3.9-8.8-6.3-17.3-6.3c-13.3,0-27.7,9-27.7,35.2
		c0,22.9,11.5,33.5,26.6,33.5c9.1,0,15.4-3.7,19.4-8.2c1.4,4.9,4.3,7.1,8.6,7.1h3.9c6.1,0,9.1-3.2,9.1-9.6V14.1L714.4,14.1z
		 M682.7,37.8c3.7,0,6.6,0.9,9,2.4v30.4c-3.4,2.8-6.3,4-10.5,4c-7.6,0-11.5-5.1-11.5-18.9C669.7,41.1,676,37.8,682.7,37.8
		L682.7,37.8z"/>
	<path class="st1" d="M6.3,22c-4.5,0-7.7,3.5-5.4,9.2l20.3,51.6c1.8,4.4,4.5,6.2,8.3,6.2h0.3c3.8,0,6.6-1.8,8.2-6.2l20.2-52.5
		C60,25.7,58,22,53.3,22h-0.1c-2.9,0-4.4,2-5.8,5.7L30.4,73.8h-0.3L12.8,28.2C11.2,24.1,9.4,22,6.5,22H6.3L6.3,22z M117.5,57.8
		c3.9,0,6.1-2,6.1-5.8c0-19.3-10-30.3-28.4-30.3c-17.7,0-30.8,13.1-30.8,34.1c0,20.7,11.5,33.6,32.2,33.6c10,0,16.7-2.1,21.3-4.9
		c2.5-1.5,4.2-3.7,4.2-5.9v-0.3c0-2.8-1.6-4.7-4.5-4.7c-4.5,0-6.6,6.4-19.2,6.4c-13.1,0-20.5-6.3-21.1-22.2H117.5L117.5,57.8z
		 M95.1,30c9.6,0,15.5,5.2,15.9,19.7H77.4C78.9,35.4,86,30,95.1,30L95.1,30z M137.4,31.3v41.2c0,12.2,6.7,16.9,17.9,16.9
		c2.9,0,5.3-0.1,7.3-0.6c2.5-0.6,3.8-2,3.8-4.4v-0.1c0-2.7-1.6-4.3-5.2-4.3h-1.8c-6.4,0-9.5-1.9-9.5-8.8V31.3h11.6
		c2.9,0,4.3-1.6,4.3-4.2v-0.3c0-2.7-1.4-4.3-4.3-4.3H150V10.2c0-3.9-2.3-6.2-6.1-6.2h-0.3c-3.8,0-6.3,2.3-6.3,6.2v12.4h-4.3
		c-2.9,0-4.3,1.6-4.3,4.3v0.3c0,2.5,1.4,4.2,4.3,4.2H137.4L137.4,31.3z M192.8,31.3v41.2c0,12.2,6.7,16.9,17.9,16.9
		c2.9,0,5.3-0.1,7.3-0.6c2.5-0.6,3.8-2,3.8-4.4v-0.1c0-2.7-1.6-4.3-5.2-4.3h-1.8c-6.4,0-9.5-1.9-9.5-8.8V31.3h11.6
		c2.9,0,4.3-1.6,4.3-4.2v-0.3c0-2.7-1.4-4.3-4.3-4.3h-11.6V10.2c0-3.9-2.3-6.2-6.1-6.2h-0.3c-3.8,0-6.3,2.3-6.3,6.2v12.4h-4.3
		c-2.9,0-4.3,1.6-4.3,4.3v0.3c0,2.5,1.4,4.2,4.3,4.2H192.8L192.8,31.3z M246.4,7.9c0-3.9-3.3-7.2-7.3-7.2c-4,0-7.3,3.3-7.3,7.2
		c0,3.9,3.3,7.1,7.3,7.1C243.1,15,246.4,11.8,246.4,7.9L246.4,7.9z M245.2,31.6c0-7.1-2.1-9.6-6.4-9.6h-0.3c-4,0-5.9,2-5.9,6.3v54.6
		c0,4.2,2.7,6.2,6.2,6.2h0.3c3.7,0,6.2-2,6.2-6.2V31.6L245.2,31.6z M293.4,31.9c6.3,0,9.9,2.4,9.9,10.4v40.7c0,4.2,2.5,6.2,6.2,6.2
		h0.3c3.5,0,6.2-2,6.2-6.2V38.6c5.3-3.4,11.6-6.7,18.7-6.7c6.6,0,10,2.4,10,10.4v40.7c0,4.2,2.5,6.2,6.1,6.2h0.3
		c3.7,0,6.2-2,6.2-6.2V39.1c0-13.1-7.6-17.4-16.8-17.4c-9.5,0-18.7,4.2-25.4,9.6c-2.4-7.2-8.8-9.6-15.8-9.6
		c-9.7,0-18.4,4.5-24.5,9.1c-0.4-6.6-2.7-8.7-6.6-8.7h-0.3c-3.9,0-5.8,2-5.8,6.3v54.6c0,4.2,2.5,6.2,6.2,6.2h0.3
		c3.5,0,6.2-2,6.2-6.2V38.5C280,35.1,286,31.9,293.4,31.9L293.4,31.9z M421.8,57.8c3.9,0,6.1-2,6.1-5.8c0-19.3-10-30.3-28.4-30.3
		c-17.7,0-30.8,13.1-30.8,34.1c0,20.7,11.5,33.6,32.2,33.6c10,0,16.7-2.1,21.3-4.9c2.5-1.5,4.2-3.7,4.2-5.9v-0.3
		c0-2.8-1.6-4.7-4.5-4.7c-4.5,0-6.6,6.4-19.2,6.4c-13.1,0-20.5-6.3-21.1-22.2H421.8L421.8,57.8z M399.4,30c9.6,0,15.5,5.2,15.9,19.7
		h-33.6C383.3,35.4,390.3,30,399.4,30L399.4,30z M484.5,68.6c0-12.5-7.1-17.2-21.8-19.3c-10.9-1.6-14.6-3.9-14.6-9.3
		c0-5.8,4-8.8,13-8.8c10.4,0,11.7,4.8,15.5,4.8c2.9,0,4.8-2,4.8-4.9v-0.3c0-2.7-1.5-4.9-5.3-6.4c-3.9-1.6-9-2.5-15.2-2.5
		c-14.8,0-24.2,6.8-24.2,19.2c0,12.1,7.7,17,21.3,18.9c11.2,1.6,14.6,4.2,14.6,9.8c0,6.6-4.9,10.1-14.5,10.1
		c-12,0-12.6-6.2-16.9-6.2c-3.3,0-5.1,2.4-5.1,5.2v0.3c0,2.7,1.5,5.1,5.2,6.8c4.4,2.1,10,3.3,17.3,3.3
		C476.6,89.2,484.5,81.3,484.5,68.6L484.5,68.6z"/>
</g>
</svg>
