<?xml version="1.0" encoding="utf-8"?>
<!-- Generator: Adobe Illustrator 23.0.1, SVG Export Plug-In . SVG Version: 6.00 Build 0)  -->
<svg version="1.1" id="Layer_1" focusable="false" xmlns="http://www.w3.org/2000/svg" xmlns:xlink="http://www.w3.org/1999/xlink"
	 x="0px" y="0px" viewBox="0 0 448 512" style="enable-background:new 0 0 448 512;" xml:space="preserve">
<style type="text/css">
	.st0{fill:#FFFFFF;}
	.st1{fill:#A70050;}
	.st2{fill:#C24C85;}
</style>
<path class="st0" d="M135.6,306.3c-1.6-3.7-2.5-5.6-3.2-7.7c-10.5-30.4-20.8-60.9-31.6-91.3c-5.9-16.6-11.8-33.3-19.2-49.2
	c-5.9-12.7-17.1-18.8-31.5-18.1c-5.9,0.3-11.8,0-17.7,0.1C10,140.2-2,153.3,0.3,175.5c0.4,4.4,1.5,8.9,3,13.1
	c23.1,61,46.1,122.1,69.7,182.9c6.9,17.9,20.5,29.3,40,32.1c6.6,0.9,13.4,0.5,20.2,0.5c29.2,0,45.3-11.2,55.4-38.4
	c14.5-39.1,29-78.2,43.4-117.4c8.2-22.3,16.8-44.5,24.1-67.2c6.6-20.3-1.2-36.8-18.7-39.8c-10.6-1.8-21.9-1.7-32.5,0.1
	c-6.2,1-12.6,6.1-16.9,11.1c-4.4,5.1-7,12.1-9.3,18.6c-7,20.7-13.4,41.5-20.1,62.4C151.1,257.3,143.7,280.9,135.6,306.3z"/>
<path class="st0" d="M396.8,140.6c0-12.1,0.2-22.8,0-33.4c-0.4-19.9-9.9-31.7-29.4-34.8c-9.3-1.4-19.2-1.6-28.4-0.1
	c-21.3,3.3-30.1,14.6-30.1,36.5c0,7.9-0.3,15.7,0.1,23.6c0.3,6-1.5,8.3-8,8.4c-13.4,0.3-21.7,7.2-23.4,19.7c-0.9,6.8-0.4,14,1,20.8
	c2,9.8,9.3,15.6,19.4,15.1c9.4-0.5,11.1,3.4,11.1,11.8c-0.3,44.6-0.4,89.3,0,133.9c0.2,31.8,18.1,54.3,48.9,62.4
	c21.5,5.6,43.3,5.7,65,2.2c19.4-3.1,25.7-13.2,24.6-36.2c-0.7-13.1-6.3-17.4-25.2-19.5c-17.1-1.9-25.1-9.7-25.2-25.6
	c-0.2-40.4,0-80.8-0.2-121.3c0-5.4,1.6-7.7,7.2-7.5c7.3,0.3,14.7,0.7,21.9-0.2c5-0.7,10.5-2.6,14.4-5.7c8-6.3,10.1-23.7,5.5-35.5
	c-3.7-9.4-11.9-14.4-24.3-14.5C413.5,140.5,405.7,140.6,396.8,140.6z"/>
<path class="st1" d="M135.6,306.3c8.1-25.4,15.5-49.1,23.1-72.7c6.6-20.8,13.1-41.7,20.1-62.4c2.2-6.6,4.9-13.5,9.3-18.6
	c4.3-5,10.7-10.1,16.9-11.1c10.6-1.8,21.9-1.9,32.5-0.1c17.5,3,25.2,19.4,18.7,39.8c-7.3,22.6-15.9,44.8-24.1,67.2
	c-14.4,39.2-29,78.2-43.4,117.4c-10.1,27.2-26.2,38.5-55.4,38.4c-6.7,0-13.5,0.4-20.2-0.5c-19.5-2.8-33.1-14.2-40-32.1
	C49.4,310.6,26.4,249.6,3.3,188.6c-1.6-4.1-2.6-8.6-3-13.1c-2.2-22.2,9.7-35.3,32.1-35.4c5.9,0,11.8,0.2,17.7-0.1
	c14.5-0.7,25.7,5.4,31.5,18.1c7.4,15.9,13.3,32.6,19.2,49.2c10.8,30.3,21.1,60.8,31.6,91.3C133.1,300.7,134,302.6,135.6,306.3z"/>
<path class="st2" d="M396.8,140.6c8.9,0,16.7-0.1,24.5,0c12.4,0.1,20.6,5.1,24.3,14.5c4.6,11.8,2.5,29.2-5.5,35.5
	c-3.9,3.1-9.4,5-14.4,5.7c-7.2,1-14.6,0.5-21.9,0.2c-5.6-0.2-7.2,2.1-7.2,7.5c0.2,40.4,0,80.8,0.2,121.3
	c0.1,15.9,8.2,23.7,25.2,25.6c18.9,2.1,24.5,6.4,25.2,19.5c1.2,22.9-5.2,33-24.6,36.2c-21.7,3.5-43.6,3.4-65-2.2
	c-30.7-8-48.6-30.6-48.9-62.4c-0.3-44.6-0.3-89.3,0-133.9c0.1-8.4-1.7-12.2-11.1-11.8c-10.1,0.5-17.3-5.3-19.4-15.1
	c-1.4-6.7-1.9-14-1-20.8c1.7-12.5,10-19.4,23.4-19.7c6.5-0.2,8.3-2.4,8-8.4c-0.4-7.8-0.1-15.7-0.1-23.6c0-21.9,8.8-33.3,30.1-36.5
	c9.3-1.4,19.2-1.3,28.4,0.1c19.6,3,29.1,14.8,29.4,34.8C396.9,117.8,396.8,128.5,396.8,140.6z"/>
</svg>
