<?xml version="1.0" standalone="no"?> <!DOCTYPE svg PUBLIC "-//W3C//DTD SVG 1.0//EN" "http://www.w3.org/TR/2001/REC-SVG-20010904/DTD/svg10.dtd" > <svg xmlns="http://www.w3.org/2000/svg" width="100%" height="100%">
<defs >
<font horiz-adv-x="567" ><font-face
    font-family=""
    units-per-em="1000"
    panose-1="2 11 10 3 4 0 0 2 0 4"
    ascent="838"
    descent="-162"
    alphabetic="0" />
<missing-glyph horiz-adv-x="120" />
<glyph unicode=" " glyph-name="space" horiz-adv-x="145" />
<glyph unicode="!" glyph-name="exclam" horiz-adv-x="336" d="M86 327Q89 386 93 441Q97 488 102 537T116 621Q125 663 152 681T215 700H317Q357 700 376 672T386 601Q383 588 377 569T362 528T344 481T324 434Q301 379 275 318Q261 285 238 266T175 247H165Q124
247 104 269T86 327ZM263 114Q263 89 253 67T226 28T185 2T134 -8Q84 -8 52 23T19 100Q19 125 28 147T55 186T95 212T147 222Q171 222 192 214T229 191T254 157T263 114Z" />
<glyph unicode="&quot;" glyph-name="quotedbl" horiz-adv-x="486" d="M87 492Q89 517 92 542Q94 563 97 586T104 626Q112 662 133 681T196 700H249Q287 700 302 676T310 617Q306 600 298 577T281 532Q271 506 260 479Q247 447 226 428T164 408H163Q125 408 105
431T87 492ZM327 492Q329 517 332 542Q334 563 337 586T344 626Q352 662 373 681T436 700H489Q527 700 542 676T550 617Q546 600 538 577T521 532Q511 506 500 479Q487 447 466 428T404 408H403Q365 408 345 431T327 492Z" />
<glyph unicode="#" glyph-name="numbersign" horiz-adv-x="560" d="M267 329H322L340 395H285L267 329ZM61 170Q31 170 20 187T14 234L23 276Q28 300 43 314T88 329H115L133 395H120Q90 395 79 412T73 459L82 501Q87 525 102 539T147 554H176L198 635Q206 667
225 686T275 705H276Q299 705 314 697T337 675T346 643T342 606L328 554H383L405 635Q413 667 432 686T482 705H483Q506 705 521 697T544 675T553 643T549 606L535 554H542Q572 554 583 537T589 490L580 448Q575 424 560 410T515 395H492L474 329H481Q511 329 522
312T528 265L519 223Q514 199 499 185T454 170H431L403 65Q395 33 376 14T326 -5H325Q302 -5 287 3T264 25T255 57T259 94L279 170H224L196 65Q188 33 169 14T119 -5H118Q95 -5 80 3T57 25T48 57T52 94L72 170H61Z" />
<glyph unicode="$" glyph-name="dollar" horiz-adv-x="581" d="M572 263Q572 158 505 89T314 3L303 -47Q296 -76 277 -89T233 -102H194Q167 -102 152 -85T144 -37L153 4Q124 9 98 16T47 35Q14 51 1 76T-5 139L-2 154Q3 180 22 196T72 212Q94 212 111 206T148 192T189
178T244 172Q271 172 288 179T306 204Q306 218 285 226T217 246Q180 256 150 270T98 307T64 360T52 434Q52 497 70 543T123 622T203 674T305 699L310 719Q317 748 336 761T380 774H419Q446 774 461 757T469 709L466 696Q509 689 543 675Q583 658 593 632T596 571L592
553Q580 493 514 493Q495 493 479 498T444 511T406 523T360 529Q330 529 318 520T305 497Q305 483 323 475T379 456Q431 442 467 425T527 385T561 332T572 263Z" />
<glyph unicode="%" glyph-name="percent" horiz-adv-x="947" d="M227 469Q227 453 233 444T254 435Q269 435 279 449T297 482T308 522T312 555Q312 590 287 590Q271 590 260 576T242 541T231 501T227 469ZM480 545Q480 493 461 451T410 378T336 332T246 316Q205
316 171 326T112 357T73 409T59 481Q59 534 79 576T132 648T207 693T295 709Q334 709 367 699T426 668T465 616T480 545ZM272 1Q253 -22 240 -30T209 -39H208Q192 -39 180 -30T162 -8T158 23T175 56L717 694Q736 717 749 725T780 734H781Q797 734 809 725T827 703T831
672T814 639L272 1ZM682 143Q682 127 688 118T709 109Q724 109 734 123T752 156T763 196T767 229Q767 264 742 264Q726 264 715 250T697 215T686 175T682 143ZM935 219Q935 167 916 125T865 52T791 6T701 -10Q660 -10 626 0T567 31T528 83T514 155Q514 208 534
250T587 322T662 367T750 383Q789 383 822 373T881 342T920 290T935 219Z" />
<glyph unicode="&amp;" glyph-name="ampersand" horiz-adv-x="775" d="M445 30Q411 14 368 2T263 -10Q197 -10 148 4T65 45T16 107T-1 185Q-1 234 14 270T56 333T119 376T196 403Q191 417 187 435T183 470Q183 524 203 568T262 645T355 694T475 712Q578 712 629
689Q664 673 673 650T677 591L674 574Q665 515 603 515Q589 515 577 518T553 525T528 532T498 535Q478 535 466 524T453 492Q453 475 461 457T485 416L546 323Q551 330 557 337T568 353Q579 369 589 383T611 407T639 422T677 428H679Q730 428 751 404T764 337Q761
318 750 297T723 253T688 209T648 168L688 108Q700 90 701 71T696 36T673 10T638 0H499Q464 0 446 29L445 30ZM247 223Q247 196 265 178T318 159Q340 159 354 166L274 283Q260 272 254 257T247 223Z" />
<glyph unicode="&apos;" glyph-name="quotesingle" horiz-adv-x="246" d="M87 492Q89 517 92 542Q94 563 97 586T104 626Q112 662 133 681T196 700H249Q287 700 302 676T310 617Q306 600 298 577T281 532Q271 506 260 479Q247 447 226 428T164 408H163Q125 408
105 431T87 492Z" />
<glyph unicode="(" glyph-name="parenleft" horiz-adv-x="382" d="M28 253Q28 327 47 397T104 528T196 638T322 721Q365 741 401 741Q439 741 461 721T483 662Q483 633 466 612T423 569Q399 548 371 523T319 459T280 365T264 229Q264 189 272 164T291 118Q305
94 317 74T329 26Q329 -5 307 -29T243 -53Q220 -53 201 -46T161 -24Q133 -5 109 21T67 81T39 157T28 253Z" />
<glyph unicode=")" glyph-name="parenright" horiz-adv-x="382" d="M396 439Q396 365 377 295T320 164T227 54T102 -29Q59 -49 23 -49Q-15 -49 -37 -29T-59 30Q-59 59 -42 80T1 123Q25 144 53 169T105 233T144 327T160 463Q160 503 152 528T133 574Q119 598 107
618T95 666Q95 697 117 721T181 745Q204 745 223 738T263 716Q291 696 315 671T357 611T385 535T396 439Z" />
<glyph unicode="*" glyph-name="asterisk" horiz-adv-x="444" d="M216 633Q216 665 237 685T296 705H309Q346 705 364 688T383 643Q383 619 368 599T333 558Q358 581 377 595T423 609Q446 609 462 593T483 546L485 535Q486 530 486 526T487 517Q487 483 467 466T415
449Q403 449 390 451T362 460Q392 443 408 423T425 379Q425 344 386 320L376 314Q354 300 330 300Q300 300 282 325T264 419Q255 368 234 339T180 309Q153 309 130 335L122 344Q95 374 95 402Q95 428 124 451T209 481Q127 477 103 493T78 540Q78 559 90 580L96
591Q107 612 124 624T159 636Q178 636 199 618T239 567Q216 619 216 633Z" />
<glyph unicode="+" glyph-name="plus" horiz-adv-x="543" d="M164 248H109Q81 248 64 256T38 278T28 309T29 342L33 362Q41 398 66 420T145 443H209L228 526Q238 568 265 586T327 605H367Q405 605 426 580T437 513L421 443H475Q503 443 520 435T546 413T556 382T555
349L551 328Q543 293 518 271T439 248H376L357 165Q347 123 320 105T258 86H218Q180 86 159 111T148 178L164 248Z" />
<glyph unicode="," glyph-name="comma" horiz-adv-x="256" d="M215 97Q215 8 160 -47T-6 -120Q-44 -126 -59 -113T-74 -76V-74Q-74 -54 -60 -41T-10 -18Q10 -13 21 -7T32 11Q32 21 23 28T2 45Q-12 57 -21 73T-30 118Q-30 161 3 191T89 222Q145 222 180 190T215 97Z" />
<glyph unicode="-" glyph-name="hyphen" horiz-adv-x="309" d="M85 191Q59 191 44 199T20 219T10 247T11 277L15 296Q22 329 46 349T118 370H235Q260 370 276 362T300 342T310 314T309 284L305 265Q298 232 274 212T202 191H85Z" />
<glyph unicode="." glyph-name="period" horiz-adv-x="256" d="M218 114Q218 89 208 67T181 28T140 2T89 -8Q39 -8 7 23T-26 100Q-26 125 -17 147T10 186T50 212T102 222Q126 222 147 214T184 191T209 157T218 114Z" />
<glyph unicode="/" glyph-name="slash" horiz-adv-x="401" d="M147 18Q130 -14 104 -33T36 -53H26Q3 -53 -12 -44T-35 -20T-41 15T-27 57L299 674Q316 706 342 725T410 745H420Q443 745 458 736T481 712T487 677T473 635L147 18Z" />
<glyph unicode="0" glyph-name="zero" horiz-adv-x="710" d="M291 250Q291 216 301 193T343 169Q370 169 391 198T428 270T450 359T458 441Q458 484 447 499T412 515Q383 515 361 486T323 416T299 330T291 250ZM724 421Q724 335 698 257T622 119T496 24T324 -12Q262
-12 208 6T114 61T50 151T27 275Q27 362 53 441T131 580T257 675T428 711Q497 711 552 691T645 633T703 541T724 421Z" />
<glyph unicode="1" glyph-name="one" horiz-adv-x="437" d="M355 79Q345 37 318 19T256 0H152Q114 0 93 25T82 92L163 442L160 441Q143 431 132 427T105 422Q81 422 69 439T61 486L72 547Q80 592 102 616T175 658Q241 681 293 690T380 700H392Q439 700 462 671T474
595L355 79Z" />
<glyph unicode="2" glyph-name="two" horiz-adv-x="577" d="M55 0Q8 0 -11 27T-28 90L-27 101Q-25 126 -20 145T-3 181T26 214T71 248L193 332Q254 374 293 405T332 471Q332 493 315 501T276 510Q255 510 238 505T206 493T177 481T147 475Q111 475 97 499T89 558L95
589Q103 631 125 653T195 690Q227 700 266 706T353 712Q399 712 445 703T529 672T590 613T614 518Q614 468 598 429T553 357T488 299T411 248L322 195H440Q468 195 486 186T513 164T525 133T525 99L522 85Q514 46 487 23T409 0H55Z" />
<glyph unicode="3" glyph-name="three" horiz-adv-x="565" d="M321 478Q321 498 305 509T253 520Q233 520 219 516T192 506T168 497T139 492Q107 492 90 513T81 571L87 600Q95 638 117 659T185 695Q215 704 253 708T328 713Q450 713 519 668T588 531Q588 491 576
460T543 407T491 369T423 345V342Q489 327 518 294T547 202Q547 154 526 115T464 47T365 3T233 -13Q104 -13 31 17Q-6 32 -20 55T-26 117L-20 145Q-15 171 4 186T55 201Q73 201 87 196T117 185T150 173T194 168Q229 168 250 183T271 223Q271 240 260 249T214 267L205
269Q175 276 161 293T152 345L154 359Q156 374 160 385T174 405T199 419T237 427L249 428Q321 434 321 478Z" />
<glyph unicode="4" glyph-name="four" horiz-adv-x="641" d="M217 305H320L352 446H348L217 309V305ZM270 140H72Q34 140 14 163T2 230L5 247Q9 268 14 284T30 315T56 348T98 391L354 642Q371 659 385 670T416 688T450 697T493 700H580Q618 700 639 675T650 608L580
305H594Q610 305 619 300T632 285T637 265T636 244L625 194Q620 171 605 156T558 140H542L528 79Q518 37 491 19T429 0H329Q291 0 270 25T259 92L270 140Z" />
<glyph unicode="5" glyph-name="five" horiz-adv-x="577" d="M523 700Q550 700 567 692T593 671T604 642T603 611L598 584Q591 549 566 528T493 506H275L252 404H255Q277 421 310 434T390 448Q476 448 524 400T572 267Q572 195 545 143T471 56T363 5T232 -12Q102
-12 31 17Q-7 33 -20 57T-27 114L-21 146Q-16 171 1 187T51 204Q70 204 85 200T117 189T154 179T204 174Q249 174 270 192T291 240Q291 260 278 272T238 284Q221 284 207 280T180 271T153 262T122 258Q80 258 60 282T48 345L112 621Q122 663 149 681T211 700H523Z"
/>
<glyph unicode="6" glyph-name="six" horiz-adv-x="660" d="M358 462Q336 433 321 401Q355 424 393 436T472 448Q512 448 546 436T604 400T642 342T656 265Q656 200 631 149T561 62T457 7T327 -12Q25 -12 25 268Q25 388 73 480T196 629Q251 671 321 692T487 713Q532
713 569 708T635 692Q666 681 685 657T696 590L688 551Q674 487 609 487Q593 487 580 490T552 498T520 507T482 511Q398 511 358 462ZM325 291Q314 291 304 289T286 284Q280 246 280 210Q280 155 322 155Q346 155 365 178T385 243Q385 270 370 280T325 291Z" />
<glyph unicode="7" glyph-name="seven" horiz-adv-x="554" d="M331 76Q309 41 284 21T212 0H93Q72 0 58 10T39 38T37 75T56 115L353 488V492H162Q135 492 118 500T92 521T81 550T82 581L90 622Q97 657 122 678T195 700H545Q583 700 604 676T617 609L610 570Q607
550 602 534T590 499T571 461T544 416L331 76Z" />
<glyph unicode="8" glyph-name="eight" horiz-adv-x="657" d="M638 217Q638 166 618 124T556 51T453 4T309 -13Q252 -13 196 -2T97 33T26 96T-1 190Q-1 230 10 260T44 313T96 350T165 377V381Q130 400 110 430T89 505Q89 551 110 589T171 654T267 697T393 712Q457
712 510 699T601 660T660 599T681 518Q681 452 642 414T539 359V355Q638 315 638 217ZM265 203Q265 183 276 169T313 154Q344 154 362 182T381 246Q381 268 370 281T333 295Q301 295 283 267T265 203ZM331 475Q331 457 341 446T373 434Q398 434 413 455T428 505Q428
522 418 534T387 546Q361 546 346 525T331 475Z" />
<glyph unicode="9" glyph-name="nine" horiz-adv-x="666" d="M228 247Q189 247 156 259T98 294T60 349T46 424Q46 493 73 546T147 637T255 693T384 712Q521 712 599 642T678 434Q678 328 643 243T548 99Q486 37 407 12T228 -13Q138 -13 74 9Q33 23 20 50T14 118L19
144Q25 173 45 191T100 209Q113 209 125 206T152 198T183 190T223 186Q270 186 300 195T354 235Q373 262 387 301Q355 275 317 261T228 247ZM369 403Q380 403 391 405T410 410Q412 429 413 447T414 484Q414 539 372 539Q348 539 329 516T309 451Q309 424 324 414T369
403Z" />
<glyph unicode=":" glyph-name="colon" horiz-adv-x="260" d="M217 114Q217 89 207 67T180 28T139 2T88 -8Q38 -8 6 23T-27 100Q-27 125 -18 147T9 186T49 212T101 222Q125 222 146 214T183 191T208 157T217 114ZM277 382Q277 357 267 335T240 296T199 270T148
260Q98 260 66 291T33 368Q33 393 42 415T69 454T109 480T161 490Q185 490 206 482T243 459T268 425T277 382Z" />
<glyph unicode=";" glyph-name="semicolon" horiz-adv-x="261" d="M274 382Q274 357 264 335T237 296T196 270T145 260Q95 260 63 291T30 368Q30 393 39 415T66 454T106 480T158 490Q182 490 203 482T240 459T265 425T274 382ZM220 97Q220 8 165 -47T-1 -120Q-39
-126 -54 -113T-69 -76V-74Q-69 -54 -55 -41T-5 -18Q15 -13 26 -7T37 11Q37 21 28 28T7 45Q-7 57 -16 73T-25 118Q-25 161 8 191T94 222Q150 222 185 190T220 97Z" />
<glyph unicode="&lt;" glyph-name="less" horiz-adv-x="457" d="M388 558Q411 567 431 566T465 555T486 528T486 488L477 450Q466 407 443 388T384 357L296 329V326L359 297Q401 278 413 252T417 188L405 136Q400 116 389 105T361 89T327 88T289 102L85 215Q44
237 31 264T26 339L29 354Q33 375 40 390T60 419T91 442T136 463L388 558Z" />
<glyph unicode="=" glyph-name="equal" horiz-adv-x="493" d="M446 498Q471 498 487 490T511 470T521 442T520 412L517 397Q510 364 486 344T414 323H117Q91 323 76 331T52 351T42 379T43 409L46 424Q53 457 77 477T149 498H446ZM398 288Q423 288 439 280T463
260T473 232T472 202L469 187Q462 154 438 134T366 113H69Q43 113 28 121T4 141T-6 169T-5 199L-2 214Q5 247 29 267T101 288H398Z" />
<glyph unicode="&gt;" glyph-name="greater" horiz-adv-x="457" d="M100 100Q77 91 57 92T23 103T2 130T2 170L11 208Q22 251 45 270T104 301L192 329V332L129 361Q87 380 75 406T71 470L83 522Q87 542 99 553T127 569T161 570T199 556L403 443Q444 421 457 394T462
319L459 304Q455 283 448 268T428 239T397 216T352 195L100 100Z" />
<glyph unicode="?" glyph-name="question" horiz-adv-x="496" d="M170 247Q149 247 136 253T116 271T107 296T108 325Q115 357 139 381T191 424Q210 437 226 446T255 462T274 477T281 496Q281 509 271 516T237 523Q220 523 207 519T182 510T158 501T129 497Q103
497 88 515T80 565L88 600Q98 642 120 661T178 693Q206 702 241 707T318 712Q379 712 422 699T494 664T536 611T550 544Q550 486 532 454T484 401T417 362T344 312Q321 292 304 280T271 259Q256 252 240 250T201 247H170ZM296 114Q296 89 286 67T259 28T218 2T167
-8Q117 -8 85 23T52 100Q52 125 61 147T88 186T128 212T180 222Q204 222 225 214T262 191T287 157T296 114Z" />
<glyph unicode="@" glyph-name="at" horiz-adv-x="882" d="M602 65Q566 65 541 70T499 83T470 104T452 130Q429 107 398 89T319 70Q268 70 236 106T204 213Q204 260 220 303T264 380T330 432T414 452Q447 452 471 439T513 406Q527 426 541 435T583 445H644Q673
445 683 428T689 388L651 219Q640 174 666 174Q682 174 700 183T734 212T760 263T771 339Q771 448 698 510T479 573Q416 573 354 552T243 489T163 381T132 229Q132 160 155 110T219 26T316 -24T438 -40Q497 -40 537 -30T604 -8T649 15T683 25Q706 25 718 13T731
-20V-22Q731 -58 685 -81Q638 -104 574 -119T426 -134Q344 -134 270 -113T140 -47T50 65T16 227Q16 336 59 418T171 555T323 639T488 667Q572 667 643 645T767 581T850 479T880 341Q880 268 857 216T795 131T706 81T602 65ZM401 234Q401 217 408 208T430 198Q438
198 446 200L474 322Q468 325 459 325Q446 325 435 317T417 296T405 267T401 234Z" />
<glyph unicode="A" glyph-name="A" horiz-adv-x="744" d="M274 629Q291 661 319 680T393 700H550Q592 700 614 677T639 620L688 95Q693 47 669 24T602 0H515Q462 0 440 23T417 81L416 113H227L207 71Q190 38 166 19T93 0H58Q33 0 16 10T-10 37T-17 75T-4 118L274
629ZM316 294H412L409 477H406L316 294Z" />
<glyph unicode="B" glyph-name="B" horiz-adv-x="675" d="M72 0Q34 0 13 25T2 92L124 621Q134 663 161 681T223 700H432Q501 700 551 688T633 655T680 603T695 537Q695 494 683 464T649 414T599 382T539 363V359Q598 347 629 315T660 228Q660 166 633 123T559
53T448 13T311 0H72ZM288 156H318Q332 156 345 160T369 173T386 199T392 238Q392 282 341 282H317L288 156ZM350 427H369Q403 427 421 443T439 498Q439 517 428 528T394 539H376L350 427Z" />
<glyph unicode="C" glyph-name="C" horiz-adv-x="663" d="M510 9Q475 -3 437 -7T358 -12Q289 -12 229 4T122 54T50 144T23 280Q23 366 53 444T141 582T287 677T489 712Q537 712 578 707T649 690Q692 674 704 646T708 578L702 550Q688 486 624 486Q604 486 588
491T556 503T520 515T473 521Q429 521 397 497T345 436T315 356T305 273Q305 220 331 196T405 172Q430 172 448 178T481 192T512 206T546 213Q581 213 597 191T607 133L601 103Q593 65 573 44T510 9Z" />
<glyph unicode="D" glyph-name="D" horiz-adv-x="750" d="M297 174H322Q361 174 391 194T441 248T471 329T482 428Q482 476 462 497T395 519H376L297 174ZM437 700Q597 700 677 627T758 420Q758 328 730 251T645 118T503 31T305 0H62Q31 0 11 21T-1 79L124 621Q134
663 161 681T223 700H437Z" />
<glyph unicode="E" glyph-name="E" horiz-adv-x="607" d="M318 266L298 177H471Q497 177 513 169T539 148T550 120T549 90L546 76Q540 41 515 21T444 0H62Q31 0 11 21T-1 79L124 621Q134 663 161 681T223 700H572Q599 700 616 692T642 671T653 642T652 611L649
596Q642 561 617 540T544 518H376L357 436H440Q465 436 481 429T505 409T514 382T514 352L512 339Q507 306 483 286T414 266H318Z" />
<glyph unicode="F" glyph-name="F" horiz-adv-x="596" d="M275 79Q265 37 238 19T176 0H72Q34 0 13 25T2 92L124 621Q132 656 156 678T223 700H578Q605 700 622 692T648 671T659 642T658 611L655 596Q648 561 623 540T550 518H376L351 411H451Q477 411 493 403T519
382T530 354T529 324L526 310Q518 276 494 256T423 235H311L275 79Z" />
<glyph unicode="G" glyph-name="G" horiz-adv-x="709" d="M625 391Q663 391 684 366T696 300L650 103Q642 68 617 43T557 9Q517 0 470 -6T371 -12Q295 -12 231 3T121 51T50 137T24 267Q24 359 54 440T143 581T290 677T493 712Q603 712 671 688Q715 673 728 646T733
584L726 554Q717 516 697 501T648 485Q628 485 612 490T577 502T536 514T481 520Q435 520 402 495T347 429T315 342T304 249Q304 201 323 182T377 163Q392 163 401 164T414 167L431 242H430Q409 242 397 249T380 266T374 289T375 312L377 321Q384 353 404 372T467
391H625Z" />
<glyph unicode="H" glyph-name="H" horiz-adv-x="748" d="M667 79Q657 37 630 19T568 0H464Q426 0 405 25T394 92L431 255H315L275 79Q265 37 238 19T176 0H72Q34 0 13 25T2 92L124 621Q134 663 161 681T223 700H327Q365 700 386 675T397 608L361 451H477L516
621Q526 663 553 681T615 700H719Q757 700 778 675T789 608L667 79Z" />
<glyph unicode="I" glyph-name="I" horiz-adv-x="364" d="M128 621Q138 663 165 681T227 700H331Q369 700 390 675T401 608L279 79Q269 37 242 19T180 0H76Q38 0 17 25T6 92L128 621Z" />
<glyph unicode="J" glyph-name="J" horiz-adv-x="545" d="M502 215Q477 107 395 49T167 -10Q81 -10 30 11Q-12 28 -24 54T-28 118L-20 155Q-14 182 4 198T54 215Q68 215 80 211T106 202T134 192T166 188Q194 188 209 199T231 237L320 622Q330 663 357 681T419
700H523Q561 700 582 675T593 608L502 215Z" />
<glyph unicode="K" glyph-name="K" horiz-adv-x="755" d="M124 621Q134 663 161 681T223 700H327Q365 700 386 675T397 608L360 450L532 639Q557 666 585 683T661 700H737Q761 700 776 688T796 658T797 620T773 581L588 397L690 118Q699 94 698 73T686 36T659
10T618 0H521Q476 0 453 21T417 77L357 233L298 179L275 79Q265 37 238 19T176 0H72Q34 0 13 25T2 92L124 621Z" />
<glyph unicode="L" glyph-name="L" horiz-adv-x="574" d="M62 0Q31 0 11 21T-1 79L124 621Q134 663 161 681T223 700H327Q365 700 386 675T397 608L299 182H451Q477 182 493 174T519 154T530 126T529 96L525 76Q518 41 495 21T423 0H62Z" />
<glyph unicode="M" glyph-name="M" horiz-adv-x="933" d="M852 79Q842 37 815 19T753 0H659Q621 0 600 25T589 92L658 393H655L489 66Q472 34 451 16T390 -3H381Q339 -3 323 19T304 73L290 393H287L215 79Q205 37 178 19T116 0H72Q34 0 13 25T2 92L124 621Q132
656 156 678T223 700H387Q434 700 454 678T476 614L484 402H487L598 622Q621 666 648 683T718 700H904Q942 700 963 675T974 608L852 79Z" />
<glyph unicode="N" glyph-name="N" horiz-adv-x="733" d="M652 79Q644 44 620 22T553 0H459Q416 0 391 21T357 78L285 348H282L220 79Q210 37 183 19T121 0H72Q34 0 13 25T2 92L124 621Q132 656 156 678T223 700H337Q380 700 404 678T438 622L499 387H502L556
621Q566 663 593 681T655 700H704Q742 700 763 675T774 608L652 79Z" />
<glyph unicode="O" glyph-name="O" horiz-adv-x="768" d="M298 263Q298 225 313 199T363 172Q401 172 427 200T469 269T493 352T501 427Q501 475 483 497T439 519Q400 519 373 491T330 422T306 337T298 263ZM776 416Q776 332 746 255T661 118T526 23T346 -12Q282
-12 224 4T121 56T50 145T23 276Q23 361 51 439T135 579T269 676T451 713Q529 713 589 692T691 631T754 537T776 416Z" />
<glyph unicode="P" glyph-name="P" horiz-adv-x="671" d="M339 385H373Q391 385 405 393T428 414T442 445T447 482Q447 531 401 531H373L339 385ZM429 700Q575 700 642 653T710 499Q710 361 618 289T361 217H307L275 79Q265 37 238 19T176 0H72Q34 0 13 25T2 92L124
621Q134 663 161 681T223 700H429Z" />
<glyph unicode="Q" glyph-name="Q" horiz-adv-x="768" d="M629 -113Q615 -113 602 -111T575 -105L336 -35Q269 -17 212 7T113 68T47 155T23 276Q23 361 51 439T135 579T269 676T451 713Q529 713 589 692T691 632T754 541T776 424Q776 360 760 308T714 215T643
145T552 100V97L639 88Q687 83 706 56T716 -12L708 -49Q693 -113 629 -113ZM298 263Q298 221 313 194T363 166Q401 166 427 195T469 265T493 351T501 427Q501 475 483 497T439 519Q400 519 373 491T330 422T306 337T298 263Z" />
<glyph unicode="R" glyph-name="R" horiz-adv-x="709" d="M275 79Q265 37 238 19T176 0H72Q34 0 13 25T2 92L124 621Q132 656 156 678T223 700H445Q590 700 658 653T726 500Q726 420 689 364T586 275L651 106Q659 85 658 66T647 32T622 9T583 0H493Q448 0 423
21T387 77L335 231H310L275 79ZM341 384H383Q422 384 440 411T458 477Q458 526 411 526H375L341 384Z" />
<glyph unicode="S" glyph-name="S" horiz-adv-x="598" d="M588 268Q588 203 565 151T497 63T390 8T247 -12Q185 -12 134 -5T48 20Q5 40 -6 67T-6 139L-3 152Q4 180 21 195T69 211Q84 211 101 205T141 192T190 179T251 173Q279 173 295 179T312 203Q312 217 292
225T225 246Q143 268 101 312T59 439Q59 511 83 563T150 648T253 698T385 714Q443 714 488 706T570 684Q644 654 626 577L621 555Q605 494 547 494Q528 494 512 500T476 512T431 525T371 531Q340 531 328 524T316 502Q316 487 334 480T393 461Q500 432 544 385T588
268Z" />
<glyph unicode="T" glyph-name="T" horiz-adv-x="624" d="M415 79Q405 37 378 19T316 0H212Q174 0 153 25T142 92L239 513H174Q147 513 130 521T103 543T91 572T91 604L94 620Q102 656 128 678T203 700H610Q637 700 654 692T681 670T693 641T693 609L690 593Q682
557 656 535T581 513H515L415 79Z" />
<glyph unicode="U" glyph-name="U" horiz-adv-x="723" d="M682 246Q666 176 638 128T569 49T472 6T347 -8Q274 -8 210 5T103 54T44 150T50 307L122 621Q132 663 159 681T221 700H325Q363 700 384 675T395 608L318 271Q307 226 320 206T376 185Q411 185 429 201T457
258L540 621Q550 663 577 681T639 700H696Q734 700 755 675T766 608L682 246Z" />
<glyph unicode="V" glyph-name="V" horiz-adv-x="721" d="M236 0Q194 0 172 23T147 80L96 607Q91 651 113 675T179 700H287Q329 700 349 677T371 619L385 305H388L550 628Q566 660 593 680T668 700H729Q751 700 766 691T789 666T795 631T783 593L496 71Q479 39
451 20T377 0H236Z" />
<glyph unicode="W" glyph-name="W" horiz-adv-x="996" d="M711 347H714L830 625Q844 659 871 679T946 700H1003Q1026 700 1041 691T1064 666T1071 630T1059 589L817 73Q801 39 777 20T707 0H604Q561 0 539 24T516 81L512 301H509L403 73Q387 39 363 20T293 0H194Q151
0 129 24T106 81L94 607Q93 651 115 675T181 700H272Q319 700 342 674T363 599L355 347H358L477 628Q491 662 514 681T583 700H623Q672 700 690 675T709 613L711 347Z" />
<glyph unicode="X" glyph-name="X" horiz-adv-x="727" d="M234 69Q209 35 181 18T106 0H52Q24 0 8 12T-15 43T-17 81T2 119L197 359L119 577Q100 630 124 665T208 700H289Q334 700 358 678T395 619L432 509L524 631Q549 665 577 682T652 700H707Q735 700 751 688T773
657T775 619T756 581L576 364L662 123Q681 70 657 35T575 0H490Q445 0 421 22T384 81L339 211L234 69Z" />
<glyph unicode="Y" glyph-name="Y" horiz-adv-x="682" d="M441 79Q431 37 404 19T342 0H238Q200 0 179 25T168 92L203 244L103 593Q90 638 111 669T183 700H261Q308 700 333 678T368 618L402 482H405L508 632Q529 663 558 681T633 700H682Q708 700 724 689T746
660T749 622T731 582L477 234L441 79Z" />
<glyph unicode="Z" glyph-name="Z" horiz-adv-x="614" d="M329 512V516H198Q172 516 156 524T131 545T120 573T120 603L124 624Q131 658 155 679T226 700H588Q635 700 654 673T671 611L670 599Q668 575 663 557T649 522T624 487T586 446L326 188V184H474Q500 184
516 176T541 155T552 127T552 97L548 76Q541 42 517 21T446 0H71Q23 0 4 27T-12 89L-11 101Q-9 124 -4 141T10 175T35 209T73 250L329 512Z" />
<glyph unicode="[" glyph-name="bracketleft" horiz-adv-x="352" d="M60 -49Q22 -49 1 -25T-10 42L134 662Q144 704 171 722T233 741H391Q426 741 442 719T450 659L449 654Q441 618 418 600T348 581H340L231 111H243Q278 111 294 89T302 29L301 24Q293 -12 270
-30T200 -49H60Z" />
<glyph unicode="\" glyph-name="backslash" horiz-adv-x="421" d="M106 648Q101 693 122 718T185 743H203Q244 743 262 720T285 662L359 44Q364 -1 343 -26T280 -51H262Q221 -51 203 -28T180 30L106 648Z" />
<glyph unicode="]" glyph-name="bracketright" horiz-adv-x="352" d="M333 741Q371 741 392 717T403 650L259 30Q249 -12 222 -30T160 -49H2Q-33 -49 -49 -27T-57 33L-56 38Q-48 74 -25 92T45 111H53L162 581H150Q115 581 99 603T91 663L92 668Q100 704 123 722T193
741H333Z" />
<glyph unicode="^" glyph-name="asciicircum" horiz-adv-x="466" d="M169 435Q141 435 122 450T95 490T94 545T125 606L133 616Q168 660 214 685T313 710H322Q365 710 400 687T459 620L464 611Q483 577 486 546T479 490T448 450T398 435H396Q364 435 343 452T303
501L296 514H293L273 493Q244 462 222 449T171 435H169Z" />
<glyph unicode="_" glyph-name="underscore" horiz-adv-x="393" d="M-19 -162Q-62 -162 -77 -140T-88 -85L-87 -79Q-82 -47 -60 -31T12 -14H262Q305 -14 320 -36T331 -91L330 -97Q325 -129 303 -145T231 -162H-19Z" />
<glyph unicode="`" glyph-name="grave" horiz-adv-x="390" d="M351 635Q361 600 341 578T282 556H274Q240 556 212 568T151 609L134 624Q117 639 113 656T113 688T133 713T170 723H259Q294 723 314 707T344 659L351 635Z" />
<glyph unicode="a" glyph-name="a" horiz-adv-x="596" d="M132 -8Q69 -8 29 26T-11 123Q-11 176 7 211T59 269T137 300T237 309Q260 309 280 307T321 302Q326 332 312 346T259 361Q234 361 217 358T185 351T159 344T130 341Q106 341 91 358T82 409L87 434Q95 474
118 493T186 524Q218 532 258 536T345 540Q484 540 546 486T583 318L528 79Q520 44 497 22T431 0H381Q336 0 314 18T283 61Q251 26 212 9T132 -8ZM260 127Q271 127 282 133L299 207Q288 210 274 210Q254 210 244 195T234 156Q234 127 260 127Z" />
<glyph unicode="b" glyph-name="b" horiz-adv-x="641" d="M361 -11Q263 -11 220 49Q183 0 115 0H70Q25 0 4 25T-7 95L115 622Q123 657 146 678T212 700H292Q337 700 358 674T368 603L336 464Q365 496 403 518T495 540Q525 540 551 530T598 498T630 439T642 352Q642
282 625 217T572 101T484 20T361 -11ZM319 356Q313 356 310 355L262 151Q267 149 274 147T292 145Q311 145 326 157T352 191T368 240T374 301Q374 335 360 345T319 356Z" />
<glyph unicode="c" glyph-name="c" horiz-adv-x="520" d="M376 1Q353 -5 330 -7T281 -10Q141 -10 74 49T7 208Q7 286 35 347T113 452T228 517T370 540Q401 540 428 537T480 526Q522 513 535 487T540 420L535 397Q523 343 473 343Q459 343 449 346T428 354T406
361T378 365Q351 365 331 353T297 321T276 276T269 224Q269 188 284 172T332 155Q345 155 356 160T378 170T399 181T423 186Q452 186 466 168T475 117L472 102Q456 22 376 1Z" />
<glyph unicode="d" glyph-name="d" horiz-adv-x="640" d="M573 79Q565 44 542 22T476 0H423Q374 0 351 21T322 70Q300 39 263 14T171 -11Q140 -11 111 -1T58 32T20 92T5 182Q5 250 23 314T74 429T156 509T267 540Q321 540 353 523T406 477L439 620Q447 655 470
677T537 700H619Q664 700 684 675T694 603L573 79ZM322 152Q324 152 326 152T331 152L378 357Q373 359 368 360T352 361Q331 361 316 346T290 306T275 255T270 203Q270 177 284 165T322 152Z" />
<glyph unicode="e" glyph-name="e" horiz-adv-x="588" d="M344 149Q369 149 389 152T425 160T454 168T481 172Q508 172 522 154T531 107L529 96Q524 65 508 48T459 16Q428 2 385 -4T295 -10Q154 -10 81 47T8 214Q8 287 32 347T100 450T207 516T345 540Q466 540
526 485T587 329Q587 314 587 301T583 271Q579 246 562 228T511 209H261Q264 177 283 163T344 149ZM359 318Q360 323 360 328T361 342Q361 365 356 376T331 388Q309 388 295 368T272 318H359Z" />
<glyph unicode="f" glyph-name="f" horiz-adv-x="380" d="M81 375H80Q54 375 42 392T36 437L45 478Q55 530 108 530H117L120 543Q132 593 153 626T204 680T275 708T365 716Q401 716 424 712Q457 705 468 685T474 633L472 621Q468 597 456 585T412 567Q395 564
388 558T375 534L374 530H379Q411 530 423 513T429 468L420 427Q408 375 352 375H339L271 79Q263 44 240 22T174 0H93Q48 0 27 25T17 95L81 375Z" />
<glyph unicode="g" glyph-name="g" horiz-adv-x="640" d="M566 47Q540 -67 450 -118T208 -170Q152 -170 112 -166T39 -153Q-3 -141 -17 -117T-22 -51L-17 -28Q-12 -4 4 11T49 26Q62 26 75 23T103 15T139 7T187 3Q245 3 274 17T310 60L318 94Q295 71 261 57T177
43Q146 43 117 52T64 83T26 139T12 222Q12 286 30 343T83 444T167 514T276 540Q331 540 365 518T420 462Q440 492 469 511T542 530H579Q624 530 645 505T655 434L566 47ZM339 184L379 356Q369 361 354 361Q333 361 319 349T295 318T282 278T277 238Q277 184 327
184H339Z" />
<glyph unicode="h" glyph-name="h" horiz-adv-x="643" d="M333 452Q371 492 414 516T518 540Q548 540 574 530T618 499T640 442T634 355L570 77Q562 42 538 21T472 0H392Q347 0 326 25T316 97L361 288Q367 314 359 327T317 341H307L247 79Q239 44 216 22T150 0H69Q24
0 3 25T-7 96L115 622Q123 657 146 678T212 700H292Q337 700 358 674T368 603L333 452Z" />
<glyph unicode="i" glyph-name="i" horiz-adv-x="318" d="M367 655Q367 602 330 572T233 542Q181 542 149 564T117 629Q117 683 153 714T250 745Q303 745 335 722T367 655ZM251 79Q243 44 220 22T154 0H73Q28 0 7 25T-3 96L79 451Q87 486 110 508T176 530H256Q301
530 322 505T332 434L251 79Z" />
<glyph unicode="j" glyph-name="j" horiz-adv-x="318" d="M367 655Q367 602 330 572T233 542Q181 542 149 564T117 629Q117 683 153 714T250 745Q303 745 335 722T367 655ZM-71 -23Q-44 -18 -35 -9T-20 24L79 452Q87 487 110 508T176 530H256Q301 530 322 505T332
434L233 1Q222 -49 201 -82T151 -135T85 -163T4 -171Q-42 -171 -70 -165Q-102 -158 -115 -139T-125 -90L-124 -81Q-121 -56 -111 -42T-71 -23Z" />
<glyph unicode="k" glyph-name="k" horiz-adv-x="635" d="M411 470Q436 496 465 513T543 530H596Q621 530 635 519T653 491T653 455T633 422L507 299L584 109Q592 89 591 70T580 35T556 10T519 0H438Q396 0 372 19T331 78L298 157L255 114L247 78Q239 43 215 22T150
0H69Q24 0 3 25T-7 96L114 622Q122 657 146 678T212 700H292Q337 700 358 674T368 603L313 366L411 470Z" />
<glyph unicode="l" glyph-name="l" horiz-adv-x="314" d="M247 79Q239 44 216 22T150 0H69Q24 0 3 25T-7 96L115 621Q123 656 146 678T212 700H292Q337 700 358 675T368 604L247 79Z" />
<glyph unicode="m" glyph-name="m" horiz-adv-x="942" d="M828 540Q857 540 882 530T923 499T944 442T937 355L873 77Q865 42 841 21T775 0H695Q650 0 629 25T619 96L664 288Q670 314 664 327T629 341H621L560 77Q552 42 528 21T462 0H382Q337 0 316 25T306 96L351
288Q357 314 351 327T316 341H307L247 79Q239 44 216 22T150 0H69Q24 0 3 25T-7 95L75 451Q83 486 106 508T172 530H222Q269 530 294 512T320 439Q361 484 405 512T515 540Q561 540 593 515T630 436Q671 482 717 511T828 540Z" />
<glyph unicode="n" glyph-name="n" horiz-adv-x="638" d="M75 451Q83 486 106 508T172 530H222Q269 530 294 512T320 438Q362 484 407 512T518 540Q548 540 574 530T618 499T640 442T634 355L570 77Q562 42 538 21T472 0H392Q347 0 326 25T316 97L361 288Q367
314 359 327T317 341H307L247 79Q239 44 216 22T150 0H69Q24 0 3 25T-7 95L75 451Z" />
<glyph unicode="o" glyph-name="o" horiz-adv-x="617" d="M259 189Q259 166 266 154T290 141Q307 141 320 159T343 206T357 266T362 326Q362 374 333 374Q315 374 301 356T278 309T264 249T259 189ZM616 309Q616 246 595 189T532 87T427 16T279 -10Q217 -10 167
5T82 49T27 121T7 220Q7 283 28 341T91 443T197 513T345 540Q406 540 456 525T542 480T596 407T616 309Z" />
<glyph unicode="p" glyph-name="p" horiz-adv-x="641" d="M75 451Q83 486 106 508T172 530H222Q267 530 292 514T320 448Q349 485 391 512T492 540Q523 540 550 530T598 497T630 438T642 350Q642 282 625 220T572 109T484 32T363 3Q318 3 287 13T237 39L209 -83Q201
-118 178 -140T112 -162H31Q-14 -162 -35 -137T-45 -67L75 451ZM319 356Q313 356 310 355L265 158Q275 153 293 153Q332 153 353 195T374 301Q374 335 360 345T319 356Z" />
<glyph unicode="q" glyph-name="q" horiz-adv-x="640" d="M309 56Q288 33 255 18T174 3Q143 3 113 12T59 44T20 101T5 190Q5 255 23 318T75 430T160 510T276 540Q327 540 360 521T413 471Q430 499 456 514T520 530H579Q624 530 645 505T655 434L535 -83Q527 -118
504 -140T438 -162H357Q312 -162 291 -137T281 -66L309 56ZM331 151L379 356Q369 361 354 361Q331 361 316 346T290 307T275 257T270 205Q270 151 320 151H331Z" />
<glyph unicode="r" glyph-name="r" horiz-adv-x="464" d="M396 318Q368 316 346 313T299 304L247 79Q239 44 216 22T150 0H69Q24 0 3 25T-7 95L75 451Q83 486 106 508T172 530H222Q270 530 296 510T320 431Q400 533 461 533Q492 533 503 514T506 464L488 385Q480
351 457 336T396 318Z" />
<glyph unicode="s" glyph-name="s" horiz-adv-x="497" d="M477 203Q477 149 458 109T403 43T317 4T205 -9Q159 -9 111 -3T29 17Q-6 32 -17 53T-21 106L-16 129Q-11 149 3 162T41 176Q57 176 72 171T105 159T146 148T199 142Q216 142 228 144T240 158Q240 162 238
165T227 170T204 177T165 187Q133 195 108 206T64 235T36 276T26 335Q26 390 46 429T102 492T186 528T291 540Q338 540 378 536T447 521Q482 508 493 486T497 431L493 413Q488 389 472 378T435 366Q419 366 405 370T375 380T340 389T293 394Q255 394 255 378Q255
369 268 365T324 351Q360 343 388 333T436 305T466 264T477 203Z" />
<glyph unicode="t" glyph-name="t" horiz-adv-x="403" d="M387 530Q419 530 431 513T437 468L428 427Q416 375 360 375H339L300 204Q293 175 300 165T329 147Q372 137 360 86L353 56Q348 33 331 17T282 -6Q263 -10 245 -11T209 -12Q163 -12 125 -5T63 24T30 84T36
182L81 375H80Q54 375 42 392T36 437L45 478Q55 530 108 530H117L127 573Q135 608 158 630T224 652H305Q350 652 371 627T381 556L375 530H387Z" />
<glyph unicode="u" glyph-name="u" horiz-adv-x="638" d="M566 79Q558 44 535 22T469 0H419Q393 0 375 7T344 25T326 51T317 81Q282 43 237 17T130 -10Q98 -10 71 0T25 31T1 88T7 175L71 452Q79 487 103 508T169 530H249Q294 530 314 505T324 434L276 225Q270
199 277 186T316 172Q320 172 323 172T330 172L394 451Q402 486 426 508T492 530H573Q618 530 638 505T648 434L566 79Z" />
<glyph unicode="v" glyph-name="v" horiz-adv-x="604" d="M205 0Q163 0 140 22T111 80L59 432Q52 477 72 503T137 530H213Q260 530 282 508T308 444L320 278H323L411 457Q427 489 454 509T528 530H575Q597 530 612 521T635 496T642 462T628 421L420 70Q402 38
374 19T297 0H205Z" />
<glyph unicode="w" glyph-name="w" horiz-adv-x="861" d="M352 72Q336 40 312 20T242 0H170Q127 0 105 23T81 80L56 437Q53 482 74 506T137 530H214Q261 530 282 506T303 440V292H306L384 457Q399 490 422 510T491 530H511Q556 530 575 507T595 449L596 292H599L675
456Q690 489 717 509T792 530H831Q854 530 869 521T892 497T899 462T887 421L701 71Q684 39 661 20T594 0H515Q468 0 449 24T428 81L424 207H421L352 72Z" />
<glyph unicode="x" glyph-name="x" horiz-adv-x="617" d="M554 104Q561 86 561 68T552 34T529 10T490 0H397Q371 0 354 6T325 24T307 51T292 87L275 135L223 66Q212 51 201 39T176 19T145 5T104 0H36Q11 0 -3 11T-22 38T-23 73T-5 109L137 286L77 427Q69 446 69
464T77 497T102 521T145 530H230Q256 530 273 524T302 506T321 479T335 444L349 403L391 463Q401 478 412 490T438 511T469 525T510 530H557Q582 530 596 519T616 492T618 456T600 420L487 275L554 104Z" />
<glyph unicode="y" glyph-name="y" horiz-adv-x="603" d="M312 -90Q300 -110 289 -123T262 -145T228 -158T182 -162H109Q86 -162 71 -153T50 -128T45 -93T62 -55L125 35L60 433Q52 476 73 503T140 530H215Q262 530 284 508T310 444L324 304H328L410 458Q427 490
453 510T527 530H575Q597 530 612 521T635 495T640 460T626 421L312 -90Z" />
<glyph unicode="z" glyph-name="z" horiz-adv-x="534" d="M310 167H421Q463 167 479 143T490 85L488 73Q482 39 460 20T393 0H45Q-1 0 -17 25T-31 82L-30 93Q-28 113 -23 128T-6 158T21 186T61 220L232 358H124Q85 358 70 381T61 437L65 456Q72 490 95 510T164
530H500Q522 530 537 523T561 505T572 478T573 447L571 433Q568 412 563 397T547 367T521 339T482 305L310 167Z" />
<glyph unicode="{" glyph-name="braceleft" horiz-adv-x="392" d="M208 -49Q167 -49 136 -38T85 -4T59 52T62 130L80 208Q86 235 78 249T47 272L44 273Q-7 290 4 351L6 362Q13 397 27 413T72 434L80 435Q96 437 107 440T125 451T138 470T147 498L167 587Q186 670
234 705T371 741H400Q444 741 464 720T479 655L477 640Q472 603 459 589T419 567L415 566Q400 563 391 553T376 519L363 463Q354 422 324 394T236 350L235 347Q264 341 281 330T306 305T314 272T310 234L294 165Q288 140 295 129T321 111L323 110Q341 104 348 89T351
40L349 25Q344 -12 323 -30T252 -49H208Z" />
<glyph unicode="|" glyph-name="bar" horiz-adv-x="307" d="M86 666Q86 707 109 726T165 745H186Q219 745 242 726T265 666V26Q265 -15 242 -34T186 -53H165Q132 -53 109 -34T86 26V666Z" />
<glyph unicode="}" glyph-name="braceright" horiz-adv-x="392" d="M225 741Q265 741 297 730T348 696T374 640T371 562L353 484Q347 457 355 443T386 420L389 419Q440 402 429 341L427 330Q420 295 406 279T361 258L353 257Q321 253 307 241T286 194L266 105Q247
22 199 -13T62 -49H33Q-11 -49 -31 -28T-46 37L-44 52Q-39 89 -26 103T14 125L18 126Q33 129 42 139T57 173L70 229Q79 270 109 298T197 342L198 345Q169 351 152 362T127 387T119 420T123 458L139 527Q145 552 138 563T112 581L110 582Q92 588 85 603T82 652L84
667Q89 704 110 722T181 741H225Z" />
<glyph unicode="~" glyph-name="asciitilde" horiz-adv-x="430" d="M282 189Q262 189 244 192T211 199T182 206T157 210Q142 210 131 205T110 194T89 182T61 177H58Q30 177 12 199T2 273Q12 333 54 366T157 399Q197 399 228 389T282 378Q297 378 308 383T329 394T349
406T372 411H376Q407 411 425 389T434 315Q424 255 383 222T282 189Z" />
<glyph unicode="&#xa1;" glyph-name="exclamdown" horiz-adv-x="336" d="M283 313Q279 254 275 199Q273 176 271 151T266 102T260 57T253 19Q244 -23 217 -41T154 -60H52Q12 -60 -7 -32T-17 39Q-11 65 6 112T44 206Q67 261 94 322Q108 355 131 374T194 393H204Q245
393 265 371T283 313ZM106 526Q106 551 116 573T143 612T184 638T235 648Q285 648 317 617T350 540Q350 514 341 492T314 454T274 428T222 418Q198 418 177 426T140 449T115 483T106 526Z" />
<glyph unicode="&#xa2;" glyph-name="cent" horiz-adv-x="525" d="M444 535L485 526Q530 513 541 489T545 422L542 407Q535 374 518 360T475 345Q461 345 451 348T431 355T409 362T381 365Q354 365 333 353T298 321T276 276T269 224Q269 188 285 172T335 155Q351
155 361 159T381 167T400 176T424 180Q454 180 468 160T478 108L476 94Q471 59 452 39T386 3Q370 -2 351 -5T311 -9L303 -47Q296 -76 277 -89T233 -102H194Q167 -102 152 -85T144 -37L154 7Q79 31 43 82T7 208Q7 274 27 328T85 424T172 492T282 531L287 554Q294
583 313 596T357 609H396Q423 609 438 592T446 544L444 535Z" />
<glyph unicode="&#xa3;" glyph-name="sterling" horiz-adv-x="583" d="M322 264Q311 238 295 221T268 195H456Q483 195 499 187T525 166T535 138T534 107L527 76Q519 41 495 21T425 0H31Q-7 0 -22 25T-32 82L-31 89Q-28 107 -21 119T-3 142T24 166T57 198Q69 211
79 227T95 264Q74 264 61 271T40 289T31 313T32 340L34 350Q39 374 54 391T100 414Q98 438 98 464T106 525Q116 567 139 601T201 660T293 698T414 712Q518 712 576 687Q614 670 625 642T629 567L626 550Q620 517 599 499T545 480Q527 480 513 484T486 494T457 504T421
509Q395 509 377 495T351 449Q346 432 345 416H424Q446 416 460 409T481 391T491 367T490 340L488 330Q482 301 461 283T395 264H322Z" />
<glyph unicode="&#xa5;" glyph-name="yen" horiz-adv-x="659" d="M440 136L427 79Q417 37 390 19T328 0H230Q192 0 171 25T160 92L170 136H64Q50 136 41 141T26 154T19 173T19 193L20 198Q25 221 41 234T89 247H195L202 277H96Q82 277 73 282T58 295T51 314T51
334L52 339Q57 362 73 375T121 388H180L119 583Q103 634 126 667T206 700H276Q319 700 342 678T373 621L395 507H398L473 631Q492 663 521 681T596 700H644Q670 700 687 689T710 661T713 622T694 581L549 388H604Q618 388 627 383T642 369T649 351T649 331L648
326Q643 303 627 290T579 277H472L465 247H572Q586 247 595 242T610 228T617 210T617 190L616 185Q611 162 595 149T547 136H440Z" />
<glyph unicode="&#xa6;" glyph-name="brokenbar" horiz-adv-x="307" d="M86 233Q86 274 109 293T165 312H186Q219 312 242 293T265 233V26Q265 -15 242 -34T186 -53H165Q132 -53 109 -34T86 26V233ZM265 458Q265 417 242 398T186 379H165Q132 379 109 398T86 458V666Q86
707 109 726T165 745H186Q219 745 242 726T265 666V458Z" />
<glyph unicode="&#xa7;" glyph-name="section" horiz-adv-x="608" d="M607 324Q607 261 571 223T478 162Q506 123 506 76Q506 -26 434 -80T237 -135Q124 -135 56 -104Q22 -88 12 -65T8 -12L10 -2Q21 54 80 54Q98 54 113 48T145 33T185 19T239 12Q262 12 271 17T280
32Q280 42 267 48T211 69Q110 101 63 141T15 249Q15 312 48 351T135 414Q111 445 111 494Q111 597 183 654T386 711Q431 711 473 705T543 687Q577 673 589 652T595 597L593 586Q581 528 528 528Q512 528 497 534T465 548T427 562T377 569Q352 569 343 564T334 549Q334
539 347 533T397 516Q447 501 486 484T552 445T593 393T607 324ZM295 272Q319 263 341 255T382 236Q394 245 394 261Q394 278 377 289T315 317Q291 325 270 333T231 349Q219 340 219 324Q219 317 221 312T232 300T255 288T295 272Z" />
<glyph unicode="&#xa8;" glyph-name="dieresis" horiz-adv-x="390" d="M278 656Q278 607 246 579T162 551Q117 551 90 572T63 631Q63 681 94 710T178 739Q223 739 250 718T278 656ZM512 656Q512 607 480 579T396 551Q351 551 324 572T297 631Q297 681 328 710T412
739Q457 739 484 718T512 656Z" />
<glyph unicode="&#xa9;" glyph-name="copyright" horiz-adv-x="780" d="M779 350Q779 263 748 197T666 85T549 16T410 -8Q338 -8 272 15T154 84T72 196T41 350Q41 437 72 503T154 615T271 684T410 708Q482 708 548 685T666 616T748 504T779 350ZM121 350Q121 281
144 227T207 137T299 81T410 61Q468 61 520 80T612 136T675 227T699 350Q699 419 676 473T613 563T521 619T410 639Q352 639 300 620T208 564T145 473T121 350ZM524 160Q483 145 423 145Q319 145 259 194T199 348Q199 448 261 501T436 555Q453 555 476 553T519
544Q543 536 558 522T574 476V455Q574 432 562 421T530 409Q513 409 498 415T457 421Q430 421 415 406T399 346Q399 306 413 289T455 271Q470 271 480 274T499 280T516 287T533 290Q552 290 563 279T574 245V228Q574 201 561 185T524 160Z" />
<glyph unicode="&#xaa;" glyph-name="ordfeminine" horiz-adv-x="494" d="M485 322Q478 293 459 275T401 257H363Q326 257 307 272T281 308Q254 278 222 264T155 250Q103 250 70 279T36 360Q36 404 51 433T94 481T160 508T243 516Q261 516 278 514T312 509Q317
535 305 547T261 559Q244 559 233 557T211 551T191 545T165 542Q139 542 125 560T115 607L116 616Q120 645 136 663T198 694Q225 702 258 705T333 708Q449 708 501 663T531 523L485 322ZM262 363Q272 363 279 367L294 429Q286 432 273 432Q256 432 248 420T240
387Q240 363 262 363Z" />
<glyph unicode="&#xab;" glyph-name="guillemotleft" horiz-adv-x="562" d="M424 36Q379 36 356 57T317 111L276 194Q269 208 265 220T261 247V248Q261 266 267 281T290 320L370 419Q393 448 421 466T496 484H515Q537 484 551 475T570 451T573 419T557 386L452
253V251L504 137Q514 115 514 97T505 65T481 44T445 36H424ZM173 36Q128 36 105 57T66 111L25 194Q18 208 14 220T10 247V248Q10 266 16 281T39 320L119 419Q142 448 170 466T245 484H264Q286 484 300 475T319 451T322 419T306 386L201 253V251L253 137Q263 115
263 97T254 65T230 44T194 36H173Z" />
<glyph unicode="&#xae;" glyph-name="registered" horiz-adv-x="376" d="M64 529Q64 572 79 605T121 661T180 696T251 708Q287 708 321 696T381 661T422 605T438 529Q438 487 423 454T381 397T321 362T251 350Q214 350 181 362T121 397T80 453T64 529ZM118 529Q118
496 128 471T157 429T199 404T251 395Q279 395 303 403T345 428T373 470T384 529Q384 562 374 587T345 629T303 654T251 663Q223 663 199 655T157 629T129 587T118 529ZM171 580Q171 620 213 620H257Q337 620 337 556Q337 529 316 513L334 478Q342 461 336 451T309
440H308Q291 440 282 446T264 470L252 495H244V477Q244 456 235 449T208 442H207Q189 442 180 449T171 477V580ZM242 539H249Q266 539 266 556Q266 574 249 574H242V539Z" />
<glyph unicode="&#xaf;" glyph-name="macron" horiz-adv-x="390" d="M187 571Q153 571 140 592T131 639L132 645Q137 674 156 689T212 705H384Q418 705 431 684T440 637L439 631Q434 602 415 587T359 571H187Z" />
<glyph unicode="&#xb0;" glyph-name="degree" horiz-adv-x="352" d="M193 554Q193 530 206 515T243 499Q266 499 280 514T294 554Q294 579 280 593T243 608Q220 608 207 594T193 554ZM405 554Q405 519 392 491T357 443T305 412T243 401Q211 401 182 412T130 443T94
491T81 554Q81 588 94 616T129 664T181 695T243 706Q275 706 304 695T356 665T392 617T405 554Z" />
<glyph unicode="&#xb2;" glyph-name="two.superior" horiz-adv-x="372" d="M91 293Q29 293 29 349V350Q29 365 32 377T43 400T64 423T99 449L184 507Q205 521 217 532T229 554Q229 570 205 570Q194 570 186 568T170 562T154 556T134 553Q111 553 98 569T89 613L90
621Q94 648 110 666T163 695Q183 701 208 704T259 708Q334 708 379 682T424 596Q424 550 396 515T303 443L268 423H321Q352 423 366 406T375 359L373 347Q368 321 351 307T298 293H91Z" />
<glyph unicode="&#xb3;" glyph-name="three.superior" horiz-adv-x="368" d="M203 541Q225 543 233 549T241 565Q241 574 233 579T205 585Q185 585 173 579T141 573Q117 573 105 588T96 629L97 635Q102 661 116 676T166 699Q202 708 250 708Q328 708 373 682T418
598Q418 554 391 531T323 499V496Q355 488 374 467T394 413Q394 356 347 320T204 283Q167 283 133 289T76 306Q31 329 41 381L42 386Q46 405 59 416T95 428Q107 428 115 425T133 417T153 410T180 406Q200 406 208 413T217 429Q217 437 211 442T185 451L179 452Q160
455 152 467T146 497L147 505Q151 536 192 540L203 541Z" />
<glyph unicode="&#xb4;" glyph-name="acute" horiz-adv-x="390" d="M210 659Q221 688 242 705T302 723H385Q407 723 421 713T440 687T440 654T419 623L403 609Q371 580 342 568T276 556H265Q228 556 209 578T202 636L210 659Z" />
<glyph unicode="&#xb6;" glyph-name="paragraph" horiz-adv-x="582" d="M557 700Q595 700 616 675T627 608L479 -30Q472 -59 457 -77T410 -96H409Q372 -96 354 -73T346 -8L477 558H429L293 -30Q286 -59 271 -77T224 -96H223Q186 -96 169 -73T160 -8L230 294H229Q194
294 164 305T112 338T76 393T63 470Q63 529 85 572T145 643T235 686T346 700H557Z" />
<glyph unicode="&#xb7;" glyph-name="periodcentered" horiz-adv-x="256" d="M257 299Q257 274 247 252T220 213T179 187T128 177Q78 177 46 208T13 285Q13 310 22 332T49 371T89 397T141 407Q165 407 186 399T223 376T248 342T257 299Z" />
<glyph unicode="&#xb8;" glyph-name="cedilla" horiz-adv-x="390" d="M176 -25Q211 -31 227 -46T243 -87Q243 -112 232 -129T203 -156T160 -170T111 -175Q88 -175 69 -173T34 -165Q15 -158 10 -148T7 -122L8 -115Q12 -89 40 -89Q52 -89 59 -93T83 -98Q92 -98 98
-95T104 -86Q104 -77 88 -77H87Q80 -77 76 -73T74 -60L88 0H182L176 -25Z" />
<glyph unicode="&#xb9;" glyph-name="one.superior" horiz-adv-x="304" d="M289 700Q330 700 347 678T357 623L296 359Q289 330 271 312T214 293H172Q134 293 118 315T110 370L146 527L139 524Q134 522 128 520T113 518Q96 518 86 530T79 562L84 594Q89 628 107
648T172 682L185 686Q205 692 231 696T278 700H289Z" />
<glyph unicode="&#xba;" glyph-name="ordmasculine" horiz-adv-x="537" d="M276 416Q276 376 302 376Q316 376 327 391T346 430T358 480T362 530Q362 570 337 570Q322 570 311 555T292 516T280 466T276 416ZM573 516Q573 463 556 415T503 331T416 272T292 250Q189
250 128 299T66 442Q66 494 83 542T136 627T224 686T347 708Q450 708 511 658T573 516Z" />
<glyph unicode="&#xbb;" glyph-name="guillemotright" horiz-adv-x="562" d="M147 484Q192 484 215 463T254 409L295 326Q302 312 306 300T310 273V272Q310 254 304 239T281 200L201 101Q178 72 150 54T75 36H56Q34 36 20 45T1 69T-2 101T14 134L119 267V269L67
383Q57 405 57 423T66 455T90 476T126 484H147ZM398 484Q443 484 466 463T505 409L546 326Q553 312 557 300T561 273V272Q561 254 555 239T532 200L452 101Q429 72 401 54T326 36H307Q285 36 271 45T252 69T249 101T265 134L370 267V269L318 383Q308 405 308 423T317
455T341 476T377 484H398Z" />
<glyph unicode="&#xbc;" glyph-name="onequarter" horiz-adv-x="880" d="M287 700Q328 700 345 678T355 623L294 359Q287 330 269 312T212 293H170Q132 293 116 315T108 370L144 527L137 524Q132 522 126 520T111 518Q94 518 84 530T77 562L82 594Q87 628 105
648T170 682L183 686Q203 692 229 696T276 700H287ZM224 -3Q207 -24 194 -31T164 -39H163Q147 -39 135 -31T117 -9T113 22T131 57L670 698Q687 719 700 726T730 734H731Q747 734 759 726T777 704T781 673T763 638L224 -3ZM580 179H638L656 255H655L580 181V179ZM628
351Q644 367 659 378T689 395T721 404T761 407H782Q823 407 840 385T849 329L815 182H817Q857 182 848 140L843 116Q838 96 828 87T797 77H791L788 64Q781 35 763 18T706 0H665Q629 0 613 20T602 72L603 77H508Q479 77 462 91T445 132V133Q445 146 447 157T457
180T476 204T506 235L628 351Z" />
<glyph unicode="&#xbd;" glyph-name="onehalf" horiz-adv-x="906" d="M287 700Q328 700 345 678T355 623L294 359Q287 330 269 312T212 293H170Q132 293 116 315T108 370L144 527L137 524Q132 522 126 520T111 518Q94 518 84 530T77 562L82 594Q87 628 105 648T170
682L183 686Q203 692 229 696T276 700H287ZM218 -3Q201 -24 188 -31T158 -39H157Q141 -39 129 -31T111 -9T107 22T125 57L664 698Q681 719 694 726T724 734H725Q741 734 753 726T771 704T775 673T757 638L218 -3ZM556 0Q494 0 494 56V57Q494 72 497 84T508 107T529
130T564 156L649 214Q670 228 682 239T694 261Q694 277 670 277Q659 277 651 275T635 269T619 263T599 260Q576 260 563 276T554 320L555 328Q559 355 575 373T628 402Q648 408 673 411T724 415Q799 415 844 389T889 303Q889 257 861 222T768 150L733 130H786Q817
130 831 113T840 66L838 54Q833 28 816 14T763 0H556Z" />
<glyph unicode="&#xbe;" glyph-name="threequarters" horiz-adv-x="900" d="M201 541Q223 543 231 549T239 565Q239 574 231 579T203 585Q183 585 171 579T139 573Q115 573 103 588T94 629L95 635Q100 661 114 676T164 699Q200 708 248 708Q326 708 371 682T416
598Q416 554 389 531T321 499V496Q353 488 372 467T392 413Q392 356 345 320T202 283Q165 283 131 289T74 306Q29 329 39 381L40 386Q44 405 57 416T93 428Q105 428 113 425T131 417T151 410T178 406Q198 406 206 413T215 429Q215 437 209 442T183 451L177 452Q158
455 150 467T144 497L145 505Q149 536 190 540L201 541ZM259 -3Q242 -24 229 -31T199 -39H198Q182 -39 170 -31T152 -9T148 22T166 57L705 698Q722 719 735 726T765 734H766Q782 734 794 726T812 704T816 673T798 638L259 -3ZM600 179H658L676 255H675L600 181V179ZM648
351Q664 367 679 378T709 395T741 404T781 407H802Q843 407 860 385T869 329L835 182H837Q877 182 868 140L863 116Q858 96 848 87T817 77H811L808 64Q801 35 783 18T726 0H685Q649 0 633 20T622 72L623 77H528Q499 77 482 91T465 132V133Q465 146 467 157T477
180T496 204T526 235L648 351Z" />
<glyph unicode="&#xbf;" glyph-name="questiondown" horiz-adv-x="496" d="M356 393Q377 393 390 387T410 369T419 344T418 315Q411 283 387 259T335 216Q315 203 299 194T270 178T252 162T245 144Q245 131 255 124T289 117Q306 117 319 121T344 130T368 139T397
143Q423 143 438 125T446 75L438 40Q428 -2 406 -21T348 -53Q320 -62 285 -67T208 -72Q147 -72 104 -60T32 -25T-10 29T-24 96Q-24 135 -16 161T8 206T43 238T85 265T133 292T182 328Q205 348 222 360T255 381Q270 388 286 390T325 393H356ZM230 526Q230 551 240
573T267 612T308 638T359 648Q409 648 441 617T474 540Q474 514 465 492T438 454T398 428T346 418Q322 418 301 426T264 449T239 483T230 526Z" />
<glyph unicode="&#xc0;" glyph-name="Agrave" horiz-adv-x="744" d="M274 629Q291 661 319 680T393 700H550Q592 700 614 677T639 620L688 95Q693 47 669 24T602 0H515Q462 0 440 23T417 81L416 113H227L207 71Q190 38 166 19T93 0H58Q33 0 16 10T-10 37T-17 75T-4
118L274 629ZM316 294H412L409 477H406L316 294ZM554 812Q565 778 546 755T490 732H478Q445 732 415 743T354 782L333 801Q318 816 315 833T317 865T338 889T375 899H462Q497 899 517 882T547 835L554 812Z" />
<glyph unicode="&#xc1;" glyph-name="Aacute" horiz-adv-x="744" d="M274 629Q291 661 319 680T393 700H550Q592 700 614 677T639 620L688 95Q693 47 669 24T602 0H515Q462 0 440 23T417 81L416 113H227L207 71Q190 38 166 19T93 0H58Q33 0 16 10T-10 37T-17 75T-4
118L274 629ZM316 294H412L409 477H406L316 294ZM404 835Q415 864 437 881T502 899H576Q600 899 615 889T635 863T636 831T615 799L596 782Q566 755 536 744T474 732H459Q441 732 427 738T404 755T393 780T396 812L404 835Z" />
<glyph unicode="&#xc2;" glyph-name="Acircumflex" horiz-adv-x="744" d="M274 629Q291 661 319 680T393 700H550Q592 700 614 677T639 620L688 95Q693 47 669 24T602 0H515Q462 0 440 23T417 81L416 113H227L207 71Q190 38 166 19T93 0H58Q33 0 16 10T-10 37T-17
75T-4 118L274 629ZM316 294H412L409 477H406L316 294ZM475 780L454 764Q428 744 411 737T375 730H374Q353 730 338 742T318 774T321 817T357 860L365 866Q389 884 419 894T481 904H491Q548 904 592 860L598 854Q619 833 624 811T623 771T600 742T560 730H559Q541
730 525 738T488 767L475 780Z" />
<glyph unicode="&#xc3;" glyph-name="Atilde" horiz-adv-x="744" d="M274 629Q291 661 319 680T393 700H550Q592 700 614 677T639 620L688 95Q693 47 669 24T602 0H515Q462 0 440 23T417 81L416 113H227L207 71Q190 38 166 19T93 0H58Q33 0 16 10T-10 37T-17 75T-4
118L274 629ZM316 294H412L409 477H406L316 294ZM533 740Q518 740 502 743T472 751T446 758T425 762Q411 762 401 757T382 746Q372 740 363 735T339 730H336Q313 730 298 747T290 808Q294 832 306 851T337 883T377 902T424 909Q458 909 484 899T529 888Q546 888
557 893T577 904Q586 909 594 914T613 919H616Q641 919 655 901T662 840Q654 791 618 766T533 740Z" />
<glyph unicode="&#xc4;" glyph-name="Adieresis" horiz-adv-x="744" d="M274 629Q291 661 319 680T393 700H550Q592 700 614 677T639 620L688 95Q693 47 669 24T602 0H515Q462 0 440 23T417 81L416 113H227L207 71Q190 38 166 19T93 0H58Q33 0 16 10T-10 37T-17
75T-4 118L274 629ZM316 294H412L409 477H406L316 294ZM486 839Q486 790 454 762T370 734Q325 734 298 755T271 814Q271 864 302 893T386 922Q431 922 458 901T486 839ZM720 839Q720 790 688 762T604 734Q559 734 532 755T505 814Q505 864 536 893T620 922Q665
922 692 901T720 839Z" />
<glyph unicode="&#xc5;" glyph-name="Aring" horiz-adv-x="744" d="M274 629Q291 661 319 680T393 700H550Q592 700 614 677T639 620L688 95Q693 47 669 24T602 0H515Q462 0 440 23T417 81L416 113H227L207 71Q190 38 166 19T93 0H58Q33 0 16 10T-10 37T-17 75T-4
118L274 629ZM316 294H412L409 477H406L316 294ZM607 840Q607 814 597 794T571 759T533 737T488 729Q445 729 415 754T385 825Q385 851 395 872T421 907T459 930T504 938Q547 938 577 912T607 840ZM469 829Q469 804 494 804Q508 804 516 813T524 837Q524 863 498
863Q485 863 477 854T469 829Z" />
<glyph unicode="&#xc6;" glyph-name="AE" horiz-adv-x="990" d="M396 113H214L185 68Q165 37 141 19T71 0H33Q11 0 -4 10T-27 37T-34 74T-18 114L335 633Q356 664 386 682T465 700H961Q988 700 1005 692T1031 671T1042 642T1041 611L1038 596Q1031 561 1006 540T933
518H765L746 436H829Q854 436 870 429T894 409T903 382T903 352L901 339Q896 306 872 286T803 266H707L687 177H860Q886 177 902 169T928 148T939 120T938 90L935 76Q929 41 904 21T833 0H451Q420 0 400 21T388 79L396 113ZM332 294H437L489 517H477L332 294Z"
/>
<glyph unicode="&#xc7;" glyph-name="Ccedilla" horiz-adv-x="663" d="M510 9Q475 -3 437 -7T358 -12H327L324 -25Q359 -31 375 -46T391 -87Q391 -112 380 -129T351 -156T308 -170T259 -175Q236 -175 217 -173T182 -165Q163 -158 158 -148T155 -122L156 -115Q160
-89 188 -89Q200 -89 207 -93T231 -98Q240 -98 246 -95T252 -86Q252 -77 236 -77H235Q228 -77 224 -73T222 -60L236 1Q189 13 150 35T83 91T39 172T23 280Q23 366 53 444T141 582T287 677T489 712Q537 712 578 707T649 690Q692 674 704 646T708 578L702 550Q688
486 624 486Q604 486 588 491T556 503T520 515T473 521Q429 521 397 497T345 436T315 356T305 273Q305 220 331 196T405 172Q430 172 448 178T481 192T512 206T546 213Q581 213 597 191T607 133L601 103Q593 65 573 44T510 9Z" />
<glyph unicode="&#xc8;" glyph-name="Egrave" horiz-adv-x="607" d="M318 266L298 177H471Q497 177 513 169T539 148T550 120T549 90L546 76Q540 41 515 21T444 0H62Q31 0 11 21T-1 79L124 621Q134 663 161 681T223 700H572Q599 700 616 692T642 671T653 642T652
611L649 596Q642 561 617 540T544 518H376L357 436H440Q465 436 481 429T505 409T514 382T514 352L512 339Q507 306 483 286T414 266H318ZM492 812Q503 778 484 755T428 732H416Q383 732 353 743T292 782L271 801Q256 816 253 833T255 865T276 889T313 899H400Q435
899 455 882T485 835L492 812Z" />
<glyph unicode="&#xc9;" glyph-name="Eacute" horiz-adv-x="607" d="M318 266L298 177H471Q497 177 513 169T539 148T550 120T549 90L546 76Q540 41 515 21T444 0H62Q31 0 11 21T-1 79L124 621Q134 663 161 681T223 700H572Q599 700 616 692T642 671T653 642T652
611L649 596Q642 561 617 540T544 518H376L357 436H440Q465 436 481 429T505 409T514 382T514 352L512 339Q507 306 483 286T414 266H318ZM340 835Q351 864 373 881T438 899H512Q536 899 551 889T571 863T572 831T551 799L532 782Q502 755 472 744T410 732H395Q377
732 363 738T340 755T329 780T332 812L340 835Z" />
<glyph unicode="&#xca;" glyph-name="Ecircumflex" horiz-adv-x="607" d="M318 266L298 177H471Q497 177 513 169T539 148T550 120T549 90L546 76Q540 41 515 21T444 0H62Q31 0 11 21T-1 79L124 621Q134 663 161 681T223 700H572Q599 700 616 692T642 671T653
642T652 611L649 596Q642 561 617 540T544 518H376L357 436H440Q465 436 481 429T505 409T514 382T514 352L512 339Q507 306 483 286T414 266H318ZM421 780L400 764Q374 744 357 737T321 730H320Q299 730 284 742T264 774T267 817T303 860L311 866Q335 884 365
894T427 904H437Q494 904 538 860L544 854Q565 833 570 811T569 771T546 742T506 730H505Q487 730 471 738T434 767L421 780Z" />
<glyph unicode="&#xcb;" glyph-name="Edieresis" horiz-adv-x="607" d="M318 266L298 177H471Q497 177 513 169T539 148T550 120T549 90L546 76Q540 41 515 21T444 0H62Q31 0 11 21T-1 79L124 621Q134 663 161 681T223 700H572Q599 700 616 692T642 671T653 642T652
611L649 596Q642 561 617 540T544 518H376L357 436H440Q465 436 481 429T505 409T514 382T514 352L512 339Q507 306 483 286T414 266H318ZM424 839Q424 790 392 762T308 734Q263 734 236 755T209 814Q209 864 240 893T324 922Q369 922 396 901T424 839ZM658 839Q658
790 626 762T542 734Q497 734 470 755T443 814Q443 864 474 893T558 922Q603 922 630 901T658 839Z" />
<glyph unicode="&#xcc;" glyph-name="Igrave" horiz-adv-x="364" d="M128 621Q138 663 165 681T227 700H331Q369 700 390 675T401 608L279 79Q269 37 242 19T180 0H76Q38 0 17 25T6 92L128 621ZM628 812Q639 778 620 755T564 732H552Q519 732 489 743T428 782L407
801Q392 816 389 833T391 865T412 889T449 899H536Q571 899 591 882T621 835L628 812Z" />
<glyph unicode="&#xcd;" glyph-name="Iacute" horiz-adv-x="364" d="M128 621Q138 663 165 681T227 700H331Q369 700 390 675T401 608L279 79Q269 37 242 19T180 0H76Q38 0 17 25T6 92L128 621ZM477 835Q488 864 510 881T575 899H649Q673 899 688 889T708 863T709
831T688 799L669 782Q639 755 609 744T547 732H532Q514 732 500 738T477 755T466 780T469 812L477 835Z" />
<glyph unicode="&#xce;" glyph-name="Icircumflex" horiz-adv-x="364" d="M128 621Q138 663 165 681T227 700H331Q369 700 390 675T401 608L279 79Q269 37 242 19T180 0H76Q38 0 17 25T6 92L128 621ZM558 780L537 764Q511 744 494 737T458 730H457Q436 730 421
742T401 774T404 817T440 860L448 866Q472 884 502 894T564 904H574Q631 904 675 860L681 854Q702 833 707 811T706 771T683 742T643 730H642Q624 730 608 738T571 767L558 780Z" />
<glyph unicode="&#xcf;" glyph-name="Idieresis" horiz-adv-x="364" d="M128 621Q138 663 165 681T227 700H331Q369 700 390 675T401 608L279 79Q269 37 242 19T180 0H76Q38 0 17 25T6 92L128 621ZM559 839Q559 790 527 762T443 734Q398 734 371 755T344 814Q344
864 375 893T459 922Q504 922 531 901T559 839ZM793 839Q793 790 761 762T677 734Q632 734 605 755T578 814Q578 864 609 893T693 922Q738 922 765 901T793 839Z" />
<glyph unicode="&#xd0;" glyph-name="Eth" horiz-adv-x="758" d="M449 700Q609 700 689 627T770 420Q770 328 742 251T657 118T515 31T317 0H74Q43 0 23 21T11 79L55 270Q20 275 8 300T0 354L1 360Q6 393 28 412T92 433L136 621Q146 663 173 681T235 700H449ZM368
433H376Q397 433 411 426T433 407T444 380T444 349L443 343Q437 308 414 289T346 270H331L309 174H334Q373 174 403 194T453 248T483 329T494 428Q494 476 474 497T407 519H388L368 433Z" />
<glyph unicode="&#xd1;" glyph-name="Ntilde" horiz-adv-x="733" d="M652 79Q644 44 620 22T553 0H459Q416 0 391 21T357 78L285 348H282L220 79Q210 37 183 19T121 0H72Q34 0 13 25T2 92L124 621Q132 656 156 678T223 700H337Q380 700 404 678T438 622L499 387H502L556
621Q566 663 593 681T655 700H704Q742 700 763 675T774 608L652 79ZM547 740Q532 740 516 743T486 751T460 758T439 762Q425 762 415 757T396 746Q386 740 377 735T353 730H350Q327 730 312 747T304 808Q308 832 320 851T351 883T391 902T438 909Q472 909 498 899T543
888Q560 888 571 893T591 904Q600 909 608 914T627 919H630Q655 919 669 901T676 840Q668 791 632 766T547 740Z" />
<glyph unicode="&#xd2;" glyph-name="Ograve" horiz-adv-x="768" d="M298 263Q298 225 313 199T363 172Q401 172 427 200T469 269T493 352T501 427Q501 475 483 497T439 519Q400 519 373 491T330 422T306 337T298 263ZM776 416Q776 332 746 255T661 118T526 23T346
-12Q282 -12 224 4T121 56T50 145T23 276Q23 361 51 439T135 579T269 676T451 713Q529 713 589 692T691 631T754 537T776 416ZM561 812Q572 778 553 755T497 732H485Q452 732 422 743T361 782L340 801Q325 816 322 833T324 865T345 889T382 899H469Q504 899 524
882T554 835L561 812Z" />
<glyph unicode="&#xd3;" glyph-name="Oacute" horiz-adv-x="768" d="M298 263Q298 225 313 199T363 172Q401 172 427 200T469 269T493 352T501 427Q501 475 483 497T439 519Q400 519 373 491T330 422T306 337T298 263ZM776 416Q776 332 746 255T661 118T526 23T346
-12Q282 -12 224 4T121 56T50 145T23 276Q23 361 51 439T135 579T269 676T451 713Q529 713 589 692T691 631T754 537T776 416ZM410 835Q421 864 443 881T508 899H582Q606 899 621 889T641 863T642 831T621 799L602 782Q572 755 542 744T480 732H465Q447 732 433
738T410 755T399 780T402 812L410 835Z" />
<glyph unicode="&#xd4;" glyph-name="Ocircumflex" horiz-adv-x="768" d="M298 263Q298 225 313 199T363 172Q401 172 427 200T469 269T493 352T501 427Q501 475 483 497T439 519Q400 519 373 491T330 422T306 337T298 263ZM776 416Q776 332 746 255T661 118T526
23T346 -12Q282 -12 224 4T121 56T50 145T23 276Q23 361 51 439T135 579T269 676T451 713Q529 713 589 692T691 631T754 537T776 416ZM490 780L469 764Q443 744 426 737T390 730H389Q368 730 353 742T333 774T336 817T372 860L380 866Q404 884 434 894T496 904H506Q563
904 607 860L613 854Q634 833 639 811T638 771T615 742T575 730H574Q556 730 540 738T503 767L490 780Z" />
<glyph unicode="&#xd5;" glyph-name="Otilde" horiz-adv-x="768" d="M298 263Q298 225 313 199T363 172Q401 172 427 200T469 269T493 352T501 427Q501 475 483 497T439 519Q400 519 373 491T330 422T306 337T298 263ZM776 416Q776 332 746 255T661 118T526 23T346
-12Q282 -12 224 4T121 56T50 145T23 276Q23 361 51 439T135 579T269 676T451 713Q529 713 589 692T691 631T754 537T776 416ZM550 740Q535 740 519 743T489 751T463 758T442 762Q428 762 418 757T399 746Q389 740 380 735T356 730H353Q330 730 315 747T307 808Q311
832 323 851T354 883T394 902T441 909Q475 909 501 899T546 888Q563 888 574 893T594 904Q603 909 611 914T630 919H633Q658 919 672 901T679 840Q671 791 635 766T550 740Z" />
<glyph unicode="&#xd6;" glyph-name="Odieresis" horiz-adv-x="768" d="M298 263Q298 225 313 199T363 172Q401 172 427 200T469 269T493 352T501 427Q501 475 483 497T439 519Q400 519 373 491T330 422T306 337T298 263ZM776 416Q776 332 746 255T661 118T526
23T346 -12Q282 -12 224 4T121 56T50 145T23 276Q23 361 51 439T135 579T269 676T451 713Q529 713 589 692T691 631T754 537T776 416ZM493 839Q493 790 461 762T377 734Q332 734 305 755T278 814Q278 864 309 893T393 922Q438 922 465 901T493 839ZM727 839Q727
790 695 762T611 734Q566 734 539 755T512 814Q512 864 543 893T627 922Q672 922 699 901T727 839Z" />
<glyph unicode="&#xd7;" glyph-name="multiply" horiz-adv-x="551" d="M484 276Q505 250 504 218T472 161L437 132Q407 107 376 112T325 143L270 213L167 130Q154 120 139 115T108 111T79 120T53 143L47 151Q24 182 28 213T59 264L160 343L107 410Q86 436 87 468T119
525L154 554Q184 579 215 574T266 542L320 473L422 555Q448 575 480 574T536 542L543 533Q566 503 562 472T531 420L431 342L484 276Z" />
<glyph unicode="&#xd8;" glyph-name="Oslash" horiz-adv-x="768" d="M776 416Q776 332 746 255T661 118T526 23T346 -12Q244 -12 163 34L125 -6Q109 -23 99 -28T78 -34H77Q62 -34 52 -26T37 -6T35 20T51 47L92 90Q60 125 42 172T23 276Q23 361 51 439T135 579T269
676T451 713Q508 713 556 700T643 663L677 698Q693 715 703 720T724 726H725Q740 726 750 718T765 698T767 672T751 645L711 604Q742 566 759 519T776 416ZM440 524Q404 524 378 501T333 444T305 370T291 297L487 500Q467 524 440 524ZM362 167Q396 167 421 189T465
245T493 318T507 391L313 189Q330 167 362 167Z" />
<glyph unicode="&#xd9;" glyph-name="Ugrave" horiz-adv-x="723" d="M682 246Q666 176 638 128T569 49T472 6T347 -8Q274 -8 210 5T103 54T44 150T50 307L122 621Q132 663 159 681T221 700H325Q363 700 384 675T395 608L318 271Q307 226 320 206T376 185Q411 185
429 201T457 258L540 621Q550 663 577 681T639 700H696Q734 700 755 675T766 608L682 246ZM565 812Q576 778 557 755T501 732H489Q456 732 426 743T365 782L344 801Q329 816 326 833T328 865T349 889T386 899H473Q508 899 528 882T558 835L565 812Z" />
<glyph unicode="&#xda;" glyph-name="Uacute" horiz-adv-x="723" d="M682 246Q666 176 638 128T569 49T472 6T347 -8Q274 -8 210 5T103 54T44 150T50 307L122 621Q132 663 159 681T221 700H325Q363 700 384 675T395 608L318 271Q307 226 320 206T376 185Q411 185
429 201T457 258L540 621Q550 663 577 681T639 700H696Q734 700 755 675T766 608L682 246ZM414 835Q425 864 447 881T512 899H586Q610 899 625 889T645 863T646 831T625 799L606 782Q576 755 546 744T484 732H469Q451 732 437 738T414 755T403 780T406 812L414
835Z" />
<glyph unicode="&#xdb;" glyph-name="Ucircumflex" horiz-adv-x="723" d="M682 246Q666 176 638 128T569 49T472 6T347 -8Q274 -8 210 5T103 54T44 150T50 307L122 621Q132 663 159 681T221 700H325Q363 700 384 675T395 608L318 271Q307 226 320 206T376 185Q411
185 429 201T457 258L540 621Q550 663 577 681T639 700H696Q734 700 755 675T766 608L682 246ZM494 780L473 764Q447 744 430 737T394 730H393Q372 730 357 742T337 774T340 817T376 860L384 866Q408 884 438 894T500 904H510Q567 904 611 860L617 854Q638 833
643 811T642 771T619 742T579 730H578Q560 730 544 738T507 767L494 780Z" />
<glyph unicode="&#xdc;" glyph-name="Udieresis" horiz-adv-x="723" d="M682 246Q666 176 638 128T569 49T472 6T347 -8Q274 -8 210 5T103 54T44 150T50 307L122 621Q132 663 159 681T221 700H325Q363 700 384 675T395 608L318 271Q307 226 320 206T376 185Q411
185 429 201T457 258L540 621Q550 663 577 681T639 700H696Q734 700 755 675T766 608L682 246ZM476 839Q476 790 444 762T360 734Q315 734 288 755T261 814Q261 864 292 893T376 922Q421 922 448 901T476 839ZM710 839Q710 790 678 762T594 734Q549 734 522 755T495
814Q495 864 526 893T610 922Q655 922 682 901T710 839Z" />
<glyph unicode="&#xdd;" glyph-name="Yacute" horiz-adv-x="682" d="M449 79Q439 37 412 19T350 0H246Q208 0 187 25T176 92L211 244L111 593Q98 638 119 669T191 700H269Q316 700 341 678T376 618L410 482H413L516 632Q537 663 566 681T641 700H690Q716 700 732
689T754 660T757 622T739 582L485 234L449 79ZM390 835Q401 864 423 881T488 899H562Q586 899 601 889T621 863T622 831T601 799L582 782Q552 755 522 744T460 732H445Q427 732 413 738T390 755T379 780T382 812L390 835Z" />
<glyph unicode="&#xde;" glyph-name="Thorn" horiz-adv-x="670" d="M318 278H346Q364 278 378 287T401 310T414 343T419 381Q419 405 407 414T374 424H352L318 278ZM393 593H415Q551 593 619 547T687 398Q687 262 596 193T339 123H285L275 79Q265 37 238 19T176
0H72Q34 0 13 25T2 92L124 621Q134 663 161 681T223 700H327Q365 700 386 676T397 609L393 593Z" />
<glyph unicode="&#xdf;" glyph-name="germandbls" horiz-adv-x="724" d="M247 79Q237 37 210 19T148 0H62Q24 0 3 25T-8 92L82 485Q108 599 191 656T430 713Q505 713 559 701T650 669T703 620T720 561Q720 534 713 514T693 477T663 448T626 422Q609 411 598 404T580
392T571 382T568 372Q568 362 579 356T609 338Q631 325 649 312T680 281T700 242T707 189Q707 144 692 108T647 45T571 5T464 -10Q428 -10 393 -6T334 10Q305 23 291 43T282 97L283 104Q288 134 305 149T350 164Q363 164 374 161T395 153T418 145T446 141Q470 141
470 158Q470 167 459 173T424 190Q335 231 335 309Q335 352 355 382T410 447Q435 472 444 485T454 514Q454 546 410 546Q377 546 362 530T338 478L247 79Z" />
<glyph unicode="&#xe0;" glyph-name="agrave" horiz-adv-x="596" d="M132 -8Q69 -8 29 26T-11 123Q-11 176 7 211T59 269T137 300T237 309Q260 309 280 307T321 302Q326 332 312 346T259 361Q234 361 217 358T185 351T159 344T130 341Q106 341 91 358T82 409L87
434Q95 474 118 493T186 524Q218 532 258 536T345 540Q484 540 546 486T583 318L528 79Q520 44 497 22T431 0H381Q336 0 314 18T283 61Q251 26 212 9T132 -8ZM260 127Q271 127 282 133L299 207Q288 210 274 210Q254 210 244 195T234 156Q234 127 260 127ZM422 635Q432
600 412 578T353 556H345Q311 556 283 568T222 609L205 624Q188 639 184 656T184 688T204 713T241 723H330Q365 723 385 707T415 659L422 635Z" />
<glyph unicode="&#xe1;" glyph-name="aacute" horiz-adv-x="596" d="M132 -8Q69 -8 29 26T-11 123Q-11 176 7 211T59 269T137 300T237 309Q260 309 280 307T321 302Q326 332 312 346T259 361Q234 361 217 358T185 351T159 344T130 341Q106 341 91 358T82 409L87
434Q95 474 118 493T186 524Q218 532 258 536T345 540Q484 540 546 486T583 318L528 79Q520 44 497 22T431 0H381Q336 0 314 18T283 61Q251 26 212 9T132 -8ZM260 127Q271 127 282 133L299 207Q288 210 274 210Q254 210 244 195T234 156Q234 127 260 127ZM281 659Q292
688 313 705T373 723H456Q478 723 492 713T511 687T511 654T490 623L474 609Q442 580 413 568T347 556H336Q299 556 280 578T273 636L281 659Z" />
<glyph unicode="&#xe2;" glyph-name="acircumflex" horiz-adv-x="596" d="M132 -8Q69 -8 29 26T-11 123Q-11 176 7 211T59 269T137 300T237 309Q260 309 280 307T321 302Q326 332 312 346T259 361Q234 361 217 358T185 351T159 344T130 341Q106 341 91 358T82
409L87 434Q95 474 118 493T186 524Q218 532 258 536T345 540Q484 540 546 486T583 318L528 79Q520 44 497 22T431 0H381Q336 0 314 18T283 61Q251 26 212 9T132 -8ZM260 127Q271 127 282 133L299 207Q288 210 274 210Q254 210 244 195T234 156Q234 127 260 127ZM260
554Q239 554 224 567T203 599T206 641T242 684L249 689Q273 706 303 717T366 728H376Q402 728 428 718T478 683L483 678Q503 657 507 635T505 595T482 566T445 554H444Q426 554 410 562T373 591L360 604L339 588Q313 568 296 561T261 554H260Z" />
<glyph unicode="&#xe3;" glyph-name="atilde" horiz-adv-x="596" d="M132 -8Q69 -8 29 26T-11 123Q-11 176 7 211T59 269T137 300T237 309Q260 309 280 307T321 302Q326 332 312 346T259 361Q234 361 217 358T185 351T159 344T130 341Q106 341 91 358T82 409L87
434Q95 474 118 493T186 524Q218 532 258 536T345 540Q484 540 546 486T583 318L528 79Q520 44 497 22T431 0H381Q336 0 314 18T283 61Q251 26 212 9T132 -8ZM260 127Q271 127 282 133L299 207Q288 210 274 210Q254 210 244 195T234 156Q234 127 260 127ZM551 667Q543
618 508 591T424 564Q407 564 391 567T361 575T336 582T316 586Q302 586 292 581T273 570Q263 564 254 559T230 554H227Q204 554 189 572T181 633Q189 682 225 709T310 736Q344 736 372 726T418 715Q432 715 442 720T463 731Q473 736 482 741T502 746H505Q530 746
544 728T551 667Z" />
<glyph unicode="&#xe4;" glyph-name="adieresis" horiz-adv-x="596" d="M132 -8Q69 -8 29 26T-11 123Q-11 176 7 211T59 269T137 300T237 309Q260 309 280 307T321 302Q326 332 312 346T259 361Q234 361 217 358T185 351T159 344T130 341Q106 341 91 358T82 409L87
434Q95 474 118 493T186 524Q218 532 258 536T345 540Q484 540 546 486T583 318L528 79Q520 44 497 22T431 0H381Q336 0 314 18T283 61Q251 26 212 9T132 -8ZM260 127Q271 127 282 133L299 207Q288 210 274 210Q254 210 244 195T234 156Q234 127 260 127ZM363 656Q363
607 331 579T247 551Q202 551 175 572T148 631Q148 681 179 710T263 739Q308 739 335 718T363 656ZM597 656Q597 607 565 579T481 551Q436 551 409 572T382 631Q382 681 413 710T497 739Q542 739 569 718T597 656Z" />
<glyph unicode="&#xe5;" glyph-name="aring" horiz-adv-x="596" d="M132 -8Q69 -8 29 26T-11 123Q-11 176 7 211T59 269T137 300T237 309Q260 309 280 307T321 302Q326 332 312 346T259 361Q234 361 217 358T185 351T159 344T130 341Q106 341 91 358T82 409L87
434Q95 474 118 493T186 524Q218 532 258 536T345 540Q484 540 546 486T583 318L528 79Q520 44 497 22T431 0H381Q336 0 314 18T283 61Q251 26 212 9T132 -8ZM260 127Q271 127 282 133L299 207Q288 210 274 210Q254 210 244 195T234 156Q234 127 260 127ZM348 660Q348
635 373 635Q387 635 395 644T403 668Q403 694 377 694Q364 694 356 685T348 660ZM486 671Q486 645 476 625T450 590T412 568T367 560Q324 560 294 585T264 656Q264 682 274 703T300 738T338 761T383 769Q426 769 456 743T486 671Z" />
<glyph unicode="&#xe6;" glyph-name="ae" horiz-adv-x="883" d="M142 -8Q65 -8 24 27T-17 127Q-17 178 1 213T53 269T131 300T231 310H316Q318 336 304 348T252 361Q227 361 210 358T178 351T152 344T123 341Q99 341 84 358T75 409L80 434Q88 474 111 493T179
524Q211 532 251 536T338 540Q385 540 417 530T470 501Q507 520 550 530T643 540Q764 540 824 485T885 329Q885 314 885 301T881 271Q877 246 860 228T809 209H559Q562 177 581 163T642 149Q667 149 687 152T723 160T752 168T779 172Q806 172 820 154T829 106L827
96Q821 65 805 48T757 16Q726 2 683 -4T593 -10Q423 -10 353 71Q322 37 269 15T142 -8ZM259 127Q284 127 312 152Q306 179 306 209H274Q249 209 239 194T228 156Q228 127 259 127ZM629 388Q607 388 593 368T570 318H657Q658 323 658 328T659 342Q659 365 654 376T629
388Z" />
<glyph unicode="&#xe7;" glyph-name="ccedilla" horiz-adv-x="520" d="M376 1Q353 -5 330 -7T281 -10H259L256 -25Q291 -31 307 -46T323 -87Q323 -112 312 -129T283 -156T240 -170T191 -175Q168 -175 149 -173T114 -165Q95 -158 90 -148T87 -122L88 -115Q92 -89
120 -89Q132 -89 139 -93T163 -98Q172 -98 178 -95T184 -86Q184 -77 168 -77H167Q160 -77 156 -73T154 -60L169 3Q86 24 47 77T7 208Q7 286 35 347T113 452T228 517T370 540Q401 540 428 537T480 526Q522 513 535 487T540 420L535 397Q523 343 473 343Q459 343
449 346T428 354T406 361T378 365Q351 365 331 353T297 321T276 276T269 224Q269 188 284 172T332 155Q345 155 356 160T378 170T399 181T423 186Q452 186 466 168T475 117L472 102Q456 22 376 1Z" />
<glyph unicode="&#xe8;" glyph-name="egrave" horiz-adv-x="588" d="M344 149Q369 149 389 152T425 160T454 168T481 172Q508 172 522 154T531 107L529 96Q524 65 508 48T459 16Q428 2 385 -4T295 -10Q154 -10 81 47T8 214Q8 287 32 347T100 450T207 516T345 540Q466
540 526 485T587 329Q587 314 587 301T583 271Q579 246 562 228T511 209H261Q264 177 283 163T344 149ZM359 318Q360 323 360 328T361 342Q361 365 356 376T331 388Q309 388 295 368T272 318H359ZM417 635Q427 600 407 578T348 556H340Q306 556 278 568T217 609L200
624Q183 639 179 656T179 688T199 713T236 723H325Q360 723 380 707T410 659L417 635Z" />
<glyph unicode="&#xe9;" glyph-name="eacute" horiz-adv-x="588" d="M344 149Q369 149 389 152T425 160T454 168T481 172Q508 172 522 154T531 107L529 96Q524 65 508 48T459 16Q428 2 385 -4T295 -10Q154 -10 81 47T8 214Q8 287 32 347T100 450T207 516T345 540Q466
540 526 485T587 329Q587 314 587 301T583 271Q579 246 562 228T511 209H261Q264 177 283 163T344 149ZM359 318Q360 323 360 328T361 342Q361 365 356 376T331 388Q309 388 295 368T272 318H359ZM276 659Q287 688 308 705T368 723H451Q473 723 487 713T506 687T506
654T485 623L469 609Q437 580 408 568T342 556H331Q294 556 275 578T268 636L276 659Z" />
<glyph unicode="&#xea;" glyph-name="ecircumflex" horiz-adv-x="588" d="M344 149Q369 149 389 152T425 160T454 168T481 172Q508 172 522 154T531 107L529 96Q524 65 508 48T459 16Q428 2 385 -4T295 -10Q154 -10 81 47T8 214Q8 287 32 347T100 450T207 516T345
540Q466 540 526 485T587 329Q587 314 587 301T583 271Q579 246 562 228T511 209H261Q264 177 283 163T344 149ZM359 318Q360 323 360 328T361 342Q361 365 356 376T331 388Q309 388 295 368T272 318H359ZM254 554Q233 554 218 567T197 599T200 641T236 684L243
689Q267 706 297 717T360 728H370Q396 728 422 718T472 683L477 678Q497 657 501 635T499 595T476 566T439 554H438Q420 554 404 562T367 591L354 604L333 588Q307 568 290 561T255 554H254Z" />
<glyph unicode="&#xeb;" glyph-name="edieresis" horiz-adv-x="588" d="M344 149Q369 149 389 152T425 160T454 168T481 172Q508 172 522 154T531 107L529 96Q524 65 508 48T459 16Q428 2 385 -4T295 -10Q154 -10 81 47T8 214Q8 287 32 347T100 450T207 516T345
540Q466 540 526 485T587 329Q587 314 587 301T583 271Q579 246 562 228T511 209H261Q264 177 283 163T344 149ZM359 318Q360 323 360 328T361 342Q361 365 356 376T331 388Q309 388 295 368T272 318H359ZM359 656Q359 607 327 579T243 551Q198 551 171 572T144
631Q144 681 175 710T259 739Q304 739 331 718T359 656ZM593 656Q593 607 561 579T477 551Q432 551 405 572T378 631Q378 681 409 710T493 739Q538 739 565 718T593 656Z" />
<glyph unicode="&#xec;" glyph-name="igrave" horiz-adv-x="318" d="M251 79Q243 44 220 22T154 0H73Q28 0 7 25T-3 96L79 451Q87 486 110 508T176 530H256Q301 530 322 505T332 434L251 79ZM549 635Q559 600 539 578T480 556H472Q438 556 410 568T349 609L332
624Q315 639 311 656T311 688T331 713T368 723H457Q492 723 512 707T542 659L549 635Z" />
<glyph unicode="&#xed;" glyph-name="iacute" horiz-adv-x="318" d="M251 79Q243 44 220 22T154 0H73Q28 0 7 25T-3 96L79 451Q87 486 110 508T176 530H256Q301 530 322 505T332 434L251 79ZM408 659Q419 688 440 705T500 723H583Q605 723 619 713T638 687T638
654T617 623L601 609Q569 580 540 568T474 556H463Q426 556 407 578T400 636L408 659Z" />
<glyph unicode="&#xee;" glyph-name="icircumflex" horiz-adv-x="318" d="M251 79Q243 44 220 22T154 0H73Q28 0 7 25T-3 96L79 451Q87 486 110 508T176 530H256Q301 530 322 505T332 434L251 79ZM387 554Q366 554 351 567T330 599T333 641T369 684L376 689Q400
706 430 717T493 728H503Q529 728 555 718T605 683L610 678Q630 657 634 635T632 595T609 566T572 554H571Q553 554 537 562T500 591L487 604L466 588Q440 568 423 561T388 554H387Z" />
<glyph unicode="&#xef;" glyph-name="idieresis" horiz-adv-x="318" d="M251 79Q243 44 220 22T154 0H73Q28 0 7 25T-3 96L79 451Q87 486 110 508T176 530H256Q301 530 322 505T332 434L251 79ZM234 656Q234 607 202 579T118 551Q73 551 46 572T19 631Q19 681
50 710T134 739Q179 739 206 718T234 656ZM468 656Q468 607 436 579T352 551Q307 551 280 572T253 631Q253 681 284 710T368 739Q413 739 440 718T468 656Z" />
<glyph unicode="&#xf0;" glyph-name="eth" horiz-adv-x="632" d="M633 361Q633 280 610 212T543 94T435 18T288 -10Q225 -10 174 5T86 49T29 120T8 217Q8 278 27 329T80 417T160 474T260 495Q303 495 331 484T382 449Q374 477 354 497T305 534L276 514Q260 503
244 503H243Q231 503 221 509T206 526T201 549T210 573Q175 593 175 631V632Q175 663 197 682T264 702Q287 702 315 699T368 689L396 709Q412 720 428 720H429Q441 720 450 714T465 698T470 676T464 653Q545 611 589 540T633 361ZM259 185Q259 165 266 152T291
139Q307 139 320 156T342 200T356 256T361 312Q361 333 354 346T331 359Q313 359 300 342T277 298T264 241T259 185Z" />
<glyph unicode="&#xf1;" glyph-name="ntilde" horiz-adv-x="638" d="M75 451Q83 486 106 508T172 530H222Q269 530 294 512T320 438Q362 484 407 512T518 540Q548 540 574 530T618 499T640 442T634 355L570 77Q562 42 538 21T472 0H392Q347 0 326 25T316 97L361
288Q367 314 359 327T317 341H307L247 79Q239 44 216 22T150 0H69Q24 0 3 25T-7 95L75 451ZM583 667Q575 618 540 591T456 564Q439 564 423 567T393 575T368 582T348 586Q334 586 324 581T305 570Q295 564 286 559T262 554H259Q236 554 221 572T213 633Q221 682
257 709T342 736Q376 736 404 726T450 715Q464 715 474 720T495 731Q505 736 514 741T534 746H537Q562 746 576 728T583 667Z" />
<glyph unicode="&#xf2;" glyph-name="ograve" horiz-adv-x="617" d="M259 189Q259 166 266 154T290 141Q307 141 320 159T343 206T357 266T362 326Q362 374 333 374Q315 374 301 356T278 309T264 249T259 189ZM616 309Q616 246 595 189T532 87T427 16T279 -10Q217
-10 167 5T82 49T27 121T7 220Q7 283 28 341T91 443T197 513T345 540Q406 540 456 525T542 480T596 407T616 309ZM436 635Q446 600 426 578T367 556H359Q325 556 297 568T236 609L219 624Q202 639 198 656T198 688T218 713T255 723H344Q379 723 399 707T429 659L436
635Z" />
<glyph unicode="&#xf3;" glyph-name="oacute" horiz-adv-x="617" d="M259 189Q259 166 266 154T290 141Q307 141 320 159T343 206T357 266T362 326Q362 374 333 374Q315 374 301 356T278 309T264 249T259 189ZM616 309Q616 246 595 189T532 87T427 16T279 -10Q217
-10 167 5T82 49T27 121T7 220Q7 283 28 341T91 443T197 513T345 540Q406 540 456 525T542 480T596 407T616 309ZM295 659Q306 688 327 705T387 723H470Q492 723 506 713T525 687T525 654T504 623L488 609Q456 580 427 568T361 556H350Q313 556 294 578T287 636L295
659Z" />
<glyph unicode="&#xf4;" glyph-name="ocircumflex" horiz-adv-x="617" d="M259 189Q259 166 266 154T290 141Q307 141 320 159T343 206T357 266T362 326Q362 374 333 374Q315 374 301 356T278 309T264 249T259 189ZM616 309Q616 246 595 189T532 87T427 16T279
-10Q217 -10 167 5T82 49T27 121T7 220Q7 283 28 341T91 443T197 513T345 540Q406 540 456 525T542 480T596 407T616 309ZM274 554Q253 554 238 567T217 599T220 641T256 684L263 689Q287 706 317 717T380 728H390Q416 728 442 718T492 683L497 678Q517 657 521
635T519 595T496 566T459 554H458Q440 554 424 562T387 591L374 604L353 588Q327 568 310 561T275 554H274Z" />
<glyph unicode="&#xf5;" glyph-name="otilde" horiz-adv-x="617" d="M259 189Q259 166 266 154T290 141Q307 141 320 159T343 206T357 266T362 326Q362 374 333 374Q315 374 301 356T278 309T264 249T259 189ZM616 309Q616 246 595 189T532 87T427 16T279 -10Q217
-10 167 5T82 49T27 121T7 220Q7 283 28 341T91 443T197 513T345 540Q406 540 456 525T542 480T596 407T616 309ZM566 667Q558 618 523 591T439 564Q422 564 406 567T376 575T351 582T331 586Q317 586 307 581T288 570Q278 564 269 559T245 554H242Q219 554 204
572T196 633Q204 682 240 709T325 736Q359 736 387 726T433 715Q447 715 457 720T478 731Q488 736 497 741T517 746H520Q545 746 559 728T566 667Z" />
<glyph unicode="&#xf6;" glyph-name="odieresis" horiz-adv-x="617" d="M259 189Q259 166 266 154T290 141Q307 141 320 159T343 206T357 266T362 326Q362 374 333 374Q315 374 301 356T278 309T264 249T259 189ZM616 309Q616 246 595 189T532 87T427 16T279 -10Q217
-10 167 5T82 49T27 121T7 220Q7 283 28 341T91 443T197 513T345 540Q406 540 456 525T542 480T596 407T616 309ZM379 656Q379 607 347 579T263 551Q218 551 191 572T164 631Q164 681 195 710T279 739Q324 739 351 718T379 656ZM613 656Q613 607 581 579T497 551Q452
551 425 572T398 631Q398 681 429 710T513 739Q558 739 585 718T613 656Z" />
<glyph unicode="&#xf7;" glyph-name="divide" horiz-adv-x="543" d="M376 128Q376 103 367 82T340 44T300 19T250 9Q202 9 170 39T138 114Q138 139 147 160T173 198T213 223T263 233Q286 233 306 225T342 203T367 169T376 128ZM446 577Q446 552 437 531T410 493T370
468T320 458Q272 458 240 488T208 563Q208 588 217 609T243 647T283 672T333 682Q356 682 376 674T412 652T437 618T446 577ZM475 443Q503 443 520 435T546 413T556 382T555 349L551 328Q543 293 518 271T439 248H109Q81 248 64 256T38 278T28 309T29 342L33 362Q41
398 66 420T145 443H475Z" />
<glyph unicode="&#xf8;" glyph-name="oslash" horiz-adv-x="617" d="M560 462Q616 403 616 309Q616 246 595 189T532 87T427 16T279 -10Q185 -10 122 23L90 -9Q79 -21 70 -27T51 -34H50Q39 -34 31 -28T19 -13T17 7T29 28L65 64Q7 122 7 220Q7 283 28 341T91 443T197
513T345 540Q392 540 432 531T504 504L533 533Q544 545 553 551T572 558H573Q584 558 592 552T604 537T606 517T594 496L560 462ZM287 133Q302 133 316 146T341 179T360 224T372 273L253 154Q263 133 287 133ZM339 382Q322 382 308 370T283 339T264 297T250 250L366
366Q358 382 339 382Z" />
<glyph unicode="&#xf9;" glyph-name="ugrave" horiz-adv-x="638" d="M566 79Q558 44 535 22T469 0H419Q393 0 375 7T344 25T326 51T317 81Q282 43 237 17T130 -10Q98 -10 71 0T25 31T1 88T7 175L71 452Q79 487 103 508T169 530H249Q294 530 314 505T324 434L276
225Q270 199 277 186T316 172Q320 172 323 172T330 172L394 451Q402 486 426 508T492 530H573Q618 530 638 505T648 434L566 79ZM453 635Q463 600 443 578T384 556H376Q342 556 314 568T253 609L236 624Q219 639 215 656T215 688T235 713T272 723H361Q396 723 416
707T446 659L453 635Z" />
<glyph unicode="&#xfa;" glyph-name="uacute" horiz-adv-x="638" d="M566 79Q558 44 535 22T469 0H419Q393 0 375 7T344 25T326 51T317 81Q282 43 237 17T130 -10Q98 -10 71 0T25 31T1 88T7 175L71 452Q79 487 103 508T169 530H249Q294 530 314 505T324 434L276
225Q270 199 277 186T316 172Q320 172 323 172T330 172L394 451Q402 486 426 508T492 530H573Q618 530 638 505T648 434L566 79ZM312 659Q323 688 344 705T404 723H487Q509 723 523 713T542 687T542 654T521 623L505 609Q473 580 444 568T378 556H367Q330 556 311
578T304 636L312 659Z" />
<glyph unicode="&#xfb;" glyph-name="ucircumflex" horiz-adv-x="638" d="M566 79Q558 44 535 22T469 0H419Q393 0 375 7T344 25T326 51T317 81Q282 43 237 17T130 -10Q98 -10 71 0T25 31T1 88T7 175L71 452Q79 487 103 508T169 530H249Q294 530 314 505T324 434L276
225Q270 199 277 186T316 172Q320 172 323 172T330 172L394 451Q402 486 426 508T492 530H573Q618 530 638 505T648 434L566 79ZM282 554Q261 554 246 567T225 599T228 641T264 684L271 689Q295 706 325 717T388 728H398Q424 728 450 718T500 683L505 678Q525 657
529 635T527 595T504 566T467 554H466Q448 554 432 562T395 591L382 604L361 588Q335 568 318 561T283 554H282Z" />
<glyph unicode="&#xfc;" glyph-name="udieresis" horiz-adv-x="638" d="M566 79Q558 44 535 22T469 0H419Q393 0 375 7T344 25T326 51T317 81Q282 43 237 17T130 -10Q98 -10 71 0T25 31T1 88T7 175L71 452Q79 487 103 508T169 530H249Q294 530 314 505T324 434L276
225Q270 199 277 186T316 172Q320 172 323 172T330 172L394 451Q402 486 426 508T492 530H573Q618 530 638 505T648 434L566 79ZM385 656Q385 607 353 579T269 551Q224 551 197 572T170 631Q170 681 201 710T285 739Q330 739 357 718T385 656ZM619 656Q619 607
587 579T503 551Q458 551 431 572T404 631Q404 681 435 710T519 739Q564 739 591 718T619 656Z" />
<glyph unicode="&#xfd;" glyph-name="yacute" horiz-adv-x="603" d="M316 -90Q304 -110 293 -123T266 -145T232 -158T186 -162H113Q90 -162 75 -153T54 -128T49 -93T66 -55L129 35L64 433Q56 476 77 503T144 530H219Q266 530 288 508T314 444L328 304H332L414
458Q431 490 457 510T531 530H579Q601 530 616 521T639 495T644 460T630 421L316 -90ZM321 659Q332 688 353 705T413 723H496Q518 723 532 713T551 687T551 654T530 623L514 609Q482 580 453 568T387 556H376Q339 556 320 578T313 636L321 659Z" />
<glyph unicode="&#xfe;" glyph-name="thorn" horiz-adv-x="641" d="M361 -11Q316 -11 286 1T236 36L209 -83Q201 -118 178 -140T112 -162H31Q-14 -162 -35 -137T-45 -67L114 622Q122 657 145 678T211 700H291Q336 700 357 674T368 603L336 464Q365 496 403 518T495
540Q525 540 551 530T598 498T630 439T642 352Q642 282 625 217T572 101T484 20T361 -11ZM319 356Q313 356 310 355L263 150Q273 145 292 145Q311 145 326 157T352 191T368 240T374 301Q374 335 360 345T319 356Z" />
<glyph unicode="&#xff;" glyph-name="ydieresis" horiz-adv-x="603" d="M316 -90Q304 -110 293 -123T266 -145T232 -158T186 -162H113Q90 -162 75 -153T54 -128T49 -93T66 -55L129 35L64 433Q56 476 77 503T144 530H219Q266 530 288 508T314 444L328 304H332L414
458Q431 490 457 510T531 530H579Q601 530 616 521T639 495T644 460T630 421L316 -90ZM384 656Q384 607 352 579T268 551Q223 551 196 572T169 631Q169 681 200 710T284 739Q329 739 356 718T384 656ZM618 656Q618 607 586 579T502 551Q457 551 430 572T403 631Q403
681 434 710T518 739Q563 739 590 718T618 656Z" />
<glyph unicode="&#x100;" glyph-name="Amacron" horiz-adv-x="744" d="M274 629Q291 661 319 680T393 700H550Q592 700 614 677T639 620L688 95Q693 47 669 24T602 0H515Q462 0 440 23T417 81L416 113H227L207 71Q190 38 166 19T93 0H58Q33 0 16 10T-10 37T-17
75T-4 118L274 629ZM316 294H412L409 477H406L316 294ZM391 741Q357 741 344 762T335 809L336 815Q341 844 360 859T416 875H589Q623 875 636 854T645 807L644 801Q639 772 620 757T564 741H391Z" />
<glyph unicode="&#x101;" glyph-name="amacron" horiz-adv-x="596" d="M132 -8Q69 -8 29 26T-11 123Q-11 176 7 211T59 269T137 300T237 309Q260 309 280 307T321 302Q326 332 312 346T259 361Q234 361 217 358T185 351T159 344T130 341Q106 341 91 358T82 409L87
434Q95 474 118 493T186 524Q218 532 258 536T345 540Q484 540 546 486T583 318L528 79Q520 44 497 22T431 0H381Q336 0 314 18T283 61Q251 26 212 9T132 -8ZM260 127Q271 127 282 133L299 207Q288 210 274 210Q254 210 244 195T234 156Q234 127 260 127ZM273 571Q239
571 226 592T217 639L218 645Q223 674 242 689T298 705H470Q504 705 517 684T526 637L525 631Q520 602 501 587T445 571H273Z" />
<glyph unicode="&#x102;" glyph-name="Abreve" horiz-adv-x="744" d="M274 629Q291 661 319 680T393 700H550Q592 700 614 677T639 620L688 95Q693 47 669 24T602 0H515Q462 0 440 23T417 81L416 113H227L207 71Q190 38 166 19T93 0H58Q33 0 16 10T-10 37T-17
75T-4 118L274 629ZM316 294H412L409 477H406L316 294ZM657 850Q657 829 646 809T612 772T557 746T482 736Q413 736 373 764T325 828Q321 847 324 861T337 885T358 900T383 905H384Q401 905 412 898T434 882Q445 874 458 867T492 859Q512 859 525 866T550 882Q561
891 573 898T602 905H604Q629 905 643 890T657 850Z" />
<glyph unicode="&#x103;" glyph-name="abreve" horiz-adv-x="596" d="M132 -8Q69 -8 29 26T-11 123Q-11 176 7 211T59 269T137 300T237 309Q260 309 280 307T321 302Q326 332 312 346T259 361Q234 361 217 358T185 351T159 344T130 341Q106 341 91 358T82 409L87
434Q95 474 118 493T186 524Q218 532 258 536T345 540Q484 540 546 486T583 318L528 79Q520 44 497 22T431 0H381Q336 0 314 18T283 61Q251 26 212 9T132 -8ZM260 127Q271 127 282 133L299 207Q288 210 274 210Q254 210 244 195T234 156Q234 127 260 127ZM544 682Q544
658 531 636T494 597T437 569T364 559Q329 559 302 567T256 589T226 621T212 660Q206 698 224 718T270 738H271Q288 738 299 731T321 715Q332 707 345 700T379 692Q399 692 412 699T437 715Q448 724 460 731T489 738H491Q516 738 530 722T544 682Z" />
<glyph unicode="&#x104;" glyph-name="Aogonek" horiz-adv-x="744" d="M434 -95Q434 -59 460 -36T521 0Q492 0 472 6T440 24T423 49T417 81L416 113H227L207 71Q190 38 166 19T93 0H58Q33 0 16 10T-10 37T-17 75T-4 118L274 629Q291 661 319 680T393 700H550Q592
700 614 677T639 620L688 95Q692 56 685 35T666 0Q655 -12 646 -20T637 -38Q637 -46 640 -49T654 -57Q673 -63 679 -75T680 -113L679 -119Q670 -171 566 -171Q500 -171 465 -149Q434 -129 434 -95ZM316 294H412L409 477H406L316 294Z" />
<glyph unicode="&#x105;" glyph-name="aogonek" horiz-adv-x="596" d="M132 -8Q69 -8 29 26T-11 123Q-11 176 7 211T59 269T137 300T237 309Q260 309 280 307T321 302Q326 332 312 346T259 361Q234 361 217 358T185 351T159 344T130 341Q106 341 91 358T82 409L87
434Q95 474 118 493T186 524Q218 532 258 536T345 540Q485 540 547 486T583 318L528 79Q521 48 510 33T477 -1Q465 -12 459 -19T453 -37Q453 -46 461 -50T475 -57Q494 -63 500 -75T501 -113L500 -119Q491 -171 387 -171Q315 -171 280 -144Q255 -124 255 -95Q255
-77 263 -62T286 -36T320 -15T362 1Q327 5 309 21T283 61Q251 26 212 9T132 -8ZM274 210Q254 210 244 195T234 156Q234 127 260 127Q271 127 282 133L299 207Q288 210 274 210Z" />
<glyph unicode="&#x106;" glyph-name="Cacute" horiz-adv-x="663" d="M510 9Q475 -3 437 -7T358 -12Q289 -12 229 4T122 54T50 144T23 280Q23 366 53 444T141 582T287 677T489 712Q537 712 578 707T649 690Q692 674 704 646T708 578L702 550Q688 486 624 486Q604
486 588 491T556 503T520 515T473 521Q429 521 397 497T345 436T315 356T305 273Q305 220 331 196T405 172Q430 172 448 178T481 192T512 206T546 213Q581 213 597 191T607 133L601 103Q593 65 573 44T510 9ZM388 835Q399 864 421 881T486 899H560Q584 899 599
889T619 863T620 831T599 799L580 782Q550 755 520 744T458 732H443Q425 732 411 738T388 755T377 780T380 812L388 835Z" />
<glyph unicode="&#x107;" glyph-name="cacute" horiz-adv-x="520" d="M376 1Q353 -5 330 -7T281 -10Q141 -10 74 49T7 208Q7 286 35 347T113 452T228 517T370 540Q401 540 428 537T480 526Q522 513 535 487T540 420L535 397Q523 343 473 343Q459 343 449 346T428
354T406 361T378 365Q351 365 331 353T297 321T276 276T269 224Q269 188 284 172T332 155Q345 155 356 160T378 170T399 181T423 186Q452 186 466 168T475 117L472 102Q456 22 376 1ZM280 659Q291 688 312 705T372 723H455Q477 723 491 713T510 687T510 654T489
623L473 609Q441 580 412 568T346 556H335Q298 556 279 578T272 636L280 659Z" />
<glyph unicode="&#x108;" glyph-name="Ccircumflex" horiz-adv-x="663" d="M510 9Q475 -3 437 -7T358 -12Q289 -12 229 4T122 54T50 144T23 280Q23 366 53 444T141 582T287 677T489 712Q537 712 578 707T649 690Q692 674 704 646T708 578L702 550Q688 486 624
486Q604 486 588 491T556 503T520 515T473 521Q429 521 397 497T345 436T315 356T305 273Q305 220 331 196T405 172Q430 172 448 178T481 192T512 206T546 213Q581 213 597 191T607 133L601 103Q593 65 573 44T510 9ZM469 780L448 764Q422 744 405 737T369 730H368Q347
730 332 742T312 774T315 817T351 860L359 866Q383 884 413 894T475 904H485Q542 904 586 860L592 854Q613 833 618 811T617 771T594 742T554 730H553Q535 730 519 738T482 767L469 780Z" />
<glyph unicode="&#x109;" glyph-name="ccircumflex" horiz-adv-x="520" d="M376 1Q353 -5 330 -7T281 -10Q141 -10 74 49T7 208Q7 286 35 347T113 452T228 517T370 540Q401 540 428 537T480 526Q522 513 535 487T540 420L535 397Q523 343 473 343Q459 343 449
346T428 354T406 361T378 365Q351 365 331 353T297 321T276 276T269 224Q269 188 284 172T332 155Q345 155 356 160T378 170T399 181T423 186Q452 186 466 168T475 117L472 102Q456 22 376 1ZM258 554Q237 554 222 567T201 599T204 641T240 684L247 689Q271 706
301 717T364 728H374Q400 728 426 718T476 683L481 678Q501 657 505 635T503 595T480 566T443 554H442Q424 554 408 562T371 591L358 604L337 588Q311 568 294 561T259 554H258Z" />
<glyph unicode="&#x10a;" glyph-name="Cdotaccent" horiz-adv-x="663" d="M510 9Q475 -3 437 -7T358 -12Q289 -12 229 4T122 54T50 144T23 280Q23 366 53 444T141 582T287 677T489 712Q537 712 578 707T649 690Q692 674 704 646T708 578L702 550Q688 486 624 486Q604
486 588 491T556 503T520 515T473 521Q429 521 397 497T345 436T315 356T305 273Q305 220 331 196T405 172Q430 172 448 178T481 192T512 206T546 213Q581 213 597 191T607 133L601 103Q593 65 573 44T510 9ZM607 843Q607 790 570 760T473 730Q421 730 389 752T357
817Q357 871 393 902T490 933Q543 933 575 910T607 843Z" />
<glyph unicode="&#x10b;" glyph-name="cdotaccent" horiz-adv-x="520" d="M376 1Q353 -5 330 -7T281 -10Q141 -10 74 49T7 208Q7 286 35 347T113 452T228 517T370 540Q401 540 428 537T480 526Q522 513 535 487T540 420L535 397Q523 343 473 343Q459 343 449 346T428
354T406 361T378 365Q351 365 331 353T297 321T276 276T269 224Q269 188 284 172T332 155Q345 155 356 160T378 170T399 181T423 186Q452 186 466 168T475 117L472 102Q456 22 376 1ZM497 667Q497 614 460 584T363 554Q311 554 279 576T247 641Q247 695 283 726T380
757Q433 757 465 734T497 667Z" />
<glyph unicode="&#x10c;" glyph-name="Ccaron" horiz-adv-x="663" d="M510 9Q475 -3 437 -7T358 -12Q289 -12 229 4T122 54T50 144T23 280Q23 366 53 444T141 582T287 677T489 712Q537 712 578 707T649 690Q692 674 704 646T708 578L702 550Q688 486 624 486Q604
486 588 491T556 503T520 515T473 521Q429 521 397 497T345 436T315 356T305 273Q305 220 331 196T405 172Q430 172 448 178T481 192T512 206T546 213Q581 213 597 191T607 133L601 103Q593 65 573 44T510 9ZM473 856L494 872Q520 892 537 899T573 906H574Q596
906 611 893T631 861T627 819T591 776L580 768Q557 751 528 742T467 732H457Q431 732 406 741T359 773L350 782Q329 803 324 825T325 865T348 894T388 906H389Q407 906 423 898T460 869L473 856Z" />
<glyph unicode="&#x10d;" glyph-name="ccaron" horiz-adv-x="520" d="M376 1Q353 -5 330 -7T281 -10Q141 -10 74 49T7 208Q7 286 35 347T113 452T228 517T370 540Q401 540 428 537T480 526Q522 513 535 487T540 420L535 397Q523 343 473 343Q459 343 449 346T428
354T406 361T378 365Q351 365 331 353T297 321T276 276T269 224Q269 188 284 172T332 155Q345 155 356 160T378 170T399 181T423 186Q452 186 466 168T475 117L472 102Q456 22 376 1ZM466 730Q487 730 502 718T522 686T519 643T483 600L475 594Q451 576 421 566T359
556H349Q321 556 296 566T247 601L242 606Q221 627 216 649T217 689T240 718T280 730H281Q299 730 315 722T352 693L365 680L386 696Q412 716 429 723T465 730H466Z" />
<glyph unicode="&#x10e;" glyph-name="Dcaron" horiz-adv-x="750" d="M297 174H322Q361 174 391 194T441 248T471 329T482 428Q482 476 462 497T395 519H376L297 174ZM437 700Q597 700 677 627T758 420Q758 328 730 251T645 118T503 31T305 0H62Q31 0 11 21T-1
79L124 621Q134 663 161 681T223 700H437ZM458 856L479 872Q505 892 522 899T558 906H559Q581 906 596 893T616 861T612 819T576 776L565 768Q542 751 513 742T452 732H442Q416 732 391 741T344 773L335 782Q314 803 309 825T310 865T333 894T373 906H374Q392 906
408 898T445 869L458 856Z" />
<glyph unicode="&#x10f;" glyph-name="dcaron" horiz-adv-x="640" d="M573 79Q565 44 542 22T476 0H423Q374 0 351 21T322 70Q300 39 263 14T171 -11Q140 -11 111 -1T58 32T20 92T5 182Q5 250 23 314T74 429T156 509T267 540Q321 540 353 523T406 477L439 620Q447
655 470 677T537 700H619Q664 700 684 675T694 603L573 79ZM725 625Q732 656 753 678T821 700H832Q854 700 869 691T891 668T896 637T881 601L863 576Q840 544 822 532T776 520H774Q742 520 727 542T719 599L725 625ZM322 152Q324 152 326 152T331 152L378 357Q373
359 368 360T352 361Q331 361 316 346T290 306T275 255T270 203Q270 177 284 165T322 152Z" />
<glyph unicode="&#x110;" glyph-name="Dcroat" horiz-adv-x="758" d="M449 700Q609 700 689 627T770 420Q770 328 742 251T657 118T515 31T317 0H74Q43 0 23 21T11 79L55 270Q20 274 7 299T-2 354L-1 360Q5 394 27 413T92 433L136 621Q146 663 173 681T235 700H449ZM368
433H374Q395 433 409 426T431 407T442 380T442 349L441 343Q435 308 412 289T344 270H331L309 174H334Q373 174 403 194T453 248T483 329T494 428Q494 476 474 497T407 519H388L368 433Z" />
<glyph unicode="&#x111;" glyph-name="dcroat" horiz-adv-x="644" d="M453 657Q465 677 486 688T537 700H619Q677 700 693 657H704Q729 657 740 642T749 605L748 598Q742 555 686 555H683L573 79Q565 44 542 22T476 0H423Q374 0 351 21T322 70Q300 39 263 14T171
-11Q140 -11 111 -1T58 32T20 92T5 182Q5 250 23 314T74 429T156 509T267 540Q321 540 353 523T406 477L424 555H370Q345 555 334 570T325 607L326 614Q332 657 388 657H453ZM322 152Q324 152 326 152T331 152L378 357Q373 359 368 360T352 361Q331 361 316 346T290
306T275 255T270 203Q270 177 284 165T322 152Z" />
<glyph unicode="&#x112;" glyph-name="Emacron" horiz-adv-x="607" d="M318 266L298 177H471Q497 177 513 169T539 148T550 120T549 90L546 76Q540 41 515 21T444 0H62Q31 0 11 21T-1 79L124 621Q134 663 161 681T223 700H572Q599 700 616 692T642 671T653 642T652
611L649 596Q642 561 617 540T544 518H376L357 436H440Q465 436 481 429T505 409T514 382T514 352L512 339Q507 306 483 286T414 266H318ZM330 741Q296 741 283 762T274 809L275 815Q280 844 299 859T355 875H528Q562 875 575 854T584 807L583 801Q578 772 559
757T503 741H330Z" />
<glyph unicode="&#x113;" glyph-name="emacron" horiz-adv-x="588" d="M344 149Q369 149 389 152T425 160T454 168T481 172Q508 172 522 154T531 107L529 96Q524 65 508 48T459 16Q428 2 385 -4T295 -10Q154 -10 81 47T8 214Q8 287 32 347T100 450T207 516T345
540Q466 540 526 485T587 329Q587 314 587 301T583 271Q579 246 562 228T511 209H261Q264 177 283 163T344 149ZM359 318Q360 323 360 328T361 342Q361 365 356 376T331 388Q309 388 295 368T272 318H359ZM267 571Q233 571 220 592T211 639L212 645Q217 674 236
689T292 705H464Q498 705 511 684T520 637L519 631Q514 602 495 587T439 571H267Z" />
<glyph unicode="&#x114;" glyph-name="Ebreve" horiz-adv-x="607" d="M318 266L298 177H471Q497 177 513 169T539 148T550 120T549 90L546 76Q540 41 515 21T444 0H62Q31 0 11 21T-1 79L124 621Q134 663 161 681T223 700H572Q599 700 616 692T642 671T653 642T652
611L649 596Q642 561 617 540T544 518H376L357 436H440Q465 436 481 429T505 409T514 382T514 352L512 339Q507 306 483 286T414 266H318ZM589 850Q589 829 578 809T544 772T489 746T414 736Q345 736 305 764T257 828Q253 847 256 861T269 885T290 900T315 905H316Q333
905 344 898T366 882Q377 874 390 867T424 859Q444 859 457 866T482 882Q493 891 505 898T534 905H536Q561 905 575 890T589 850Z" />
<glyph unicode="&#x115;" glyph-name="ebreve" horiz-adv-x="588" d="M344 149Q369 149 389 152T425 160T454 168T481 172Q508 172 522 154T531 107L529 96Q524 65 508 48T459 16Q428 2 385 -4T295 -10Q154 -10 81 47T8 214Q8 287 32 347T100 450T207 516T345
540Q466 540 526 485T587 329Q587 314 587 301T583 271Q579 246 562 228T511 209H261Q264 177 283 163T344 149ZM359 318Q360 323 360 328T361 342Q361 365 356 376T331 388Q309 388 295 368T272 318H359ZM530 682Q530 658 517 636T480 597T423 569T350 559Q315
559 288 567T242 589T212 621T198 660Q192 698 210 718T256 738H257Q274 738 285 731T307 715Q318 707 331 700T365 692Q385 692 398 699T423 715Q434 724 446 731T475 738H477Q502 738 516 722T530 682Z" />
<glyph unicode="&#x116;" glyph-name="Edotaccent" horiz-adv-x="607" d="M318 266L298 177H471Q497 177 513 169T539 148T550 120T549 90L546 76Q540 41 515 21T444 0H62Q31 0 11 21T-1 79L124 621Q134 663 161 681T223 700H572Q599 700 616 692T642 671T653
642T652 611L649 596Q642 561 617 540T544 518H376L357 436H440Q465 436 481 429T505 409T514 382T514 352L512 339Q507 306 483 286T414 266H318ZM559 843Q559 790 522 760T425 730Q373 730 341 752T309 817Q309 871 345 902T442 933Q495 933 527 910T559 843Z"
/>
<glyph unicode="&#x117;" glyph-name="edotaccent" horiz-adv-x="588" d="M344 149Q369 149 389 152T425 160T454 168T481 172Q508 172 522 154T531 107L529 96Q524 65 508 48T459 16Q428 2 385 -4T295 -10Q154 -10 81 47T8 214Q8 287 32 347T100 450T207 516T345
540Q466 540 526 485T587 329Q587 314 587 301T583 271Q579 246 562 228T511 209H261Q264 177 283 163T344 149ZM359 318Q360 323 360 328T361 342Q361 365 356 376T331 388Q309 388 295 368T272 318H359ZM493 667Q493 614 456 584T359 554Q307 554 275 576T243
641Q243 695 279 726T376 757Q429 757 461 734T493 667Z" />
<glyph unicode="&#x118;" glyph-name="Eogonek" horiz-adv-x="607" d="M357 436H440Q465 436 481 429T505 409T514 382T514 352L512 339Q507 306 483 286T414 266H318L298 177H471Q497 177 513 169T539 148T550 120T549 90L546 76Q540 47 525 30T477 -6L472 -9Q461
-16 452 -23T442 -40Q442 -51 456 -57Q475 -63 481 -75T482 -113L481 -119Q472 -171 368 -171Q296 -171 262 -145Q236 -125 236 -95Q236 -77 244 -62T266 -35T297 -15T332 0H62Q31 0 11 21T-1 79L124 621Q134 663 161 681T223 700H572Q599 700 616 692T642 671T653
642T652 611L649 596Q642 561 617 540T544 518H376L357 436Z" />
<glyph unicode="&#x119;" glyph-name="eogonek" horiz-adv-x="588" d="M405 -40Q405 -48 409 -51T418 -57Q437 -63 443 -75T444 -113L443 -119Q434 -171 330 -171Q262 -171 228 -148Q198 -129 198 -95Q198 -62 223 -42T280 -10Q146 -7 77 50T8 214Q8 287 32 347T101
450T207 516T345 540Q466 540 526 485T587 329Q587 314 587 301T583 271Q579 246 562 228T511 209H261Q264 177 283 163T344 149Q369 149 389 152T425 160T454 168T481 172Q508 172 522 154T531 106L529 96Q526 80 521 68T506 44T481 22T444 0Q429 -8 417 -18T405
-40ZM359 318Q360 323 360 328T361 342Q361 365 356 376T331 388Q309 388 295 368T272 318H359Z" />
<glyph unicode="&#x11a;" glyph-name="Ecaron" horiz-adv-x="607" d="M318 266L298 177H471Q497 177 513 169T539 148T550 120T549 90L546 76Q540 41 515 21T444 0H62Q31 0 11 21T-1 79L124 621Q134 663 161 681T223 700H572Q599 700 616 692T642 671T653 642T652
611L649 596Q642 561 617 540T544 518H376L357 436H440Q465 436 481 429T505 409T514 382T514 352L512 339Q507 306 483 286T414 266H318ZM426 856L447 872Q473 892 490 899T526 906H527Q549 906 564 893T584 861T580 819T544 776L533 768Q510 751 481 742T420
732H410Q384 732 359 741T312 773L303 782Q282 803 277 825T278 865T301 894T341 906H342Q360 906 376 898T413 869L426 856Z" />
<glyph unicode="&#x11b;" glyph-name="ecaron" horiz-adv-x="588" d="M344 149Q369 149 389 152T425 160T454 168T481 172Q508 172 522 154T531 107L529 96Q524 65 508 48T459 16Q428 2 385 -4T295 -10Q154 -10 81 47T8 214Q8 287 32 347T100 450T207 516T345
540Q466 540 526 485T587 329Q587 314 587 301T583 271Q579 246 562 228T511 209H261Q264 177 283 163T344 149ZM359 318Q360 323 360 328T361 342Q361 365 356 376T331 388Q309 388 295 368T272 318H359ZM461 730Q482 730 497 718T517 686T514 643T478 600L470
594Q446 576 416 566T354 556H344Q316 556 291 566T242 601L237 606Q216 627 211 649T212 689T235 718T275 730H276Q294 730 310 722T347 693L360 680L381 696Q407 716 424 723T460 730H461Z" />
<glyph unicode="&#x11c;" glyph-name="Gcircumflex" horiz-adv-x="709" d="M625 391Q663 391 684 366T696 300L650 103Q642 68 617 43T557 9Q517 0 470 -6T371 -12Q295 -12 231 3T121 51T50 137T24 267Q24 359 54 440T143 581T290 677T493 712Q603 712 671 688Q715
673 728 646T733 584L726 554Q717 516 697 501T648 485Q628 485 612 490T577 502T536 514T481 520Q435 520 402 495T347 429T315 342T304 249Q304 201 323 182T377 163Q392 163 401 164T414 167L431 242H430Q409 242 397 249T380 266T374 289T375 312L377 321Q384
353 404 372T467 391H625ZM495 780L474 764Q448 744 431 737T395 730H394Q373 730 358 742T338 774T341 817T377 860L385 866Q409 884 439 894T501 904H511Q568 904 612 860L618 854Q639 833 644 811T643 771T620 742T580 730H579Q561 730 545 738T508 767L495
780Z" />
<glyph unicode="&#x11d;" glyph-name="gcircumflex" horiz-adv-x="640" d="M566 47Q540 -67 450 -118T208 -170Q152 -170 112 -166T39 -153Q-3 -141 -17 -117T-22 -51L-17 -28Q-12 -4 4 11T49 26Q62 26 75 23T103 15T139 7T187 3Q245 3 274 17T310 60L318 94Q295
71 261 57T177 43Q146 43 117 52T64 83T26 139T12 222Q12 286 30 343T83 444T167 514T276 540Q331 540 365 518T420 462Q440 492 469 511T542 530H579Q624 530 645 505T655 434L566 47ZM339 184L379 356Q369 361 354 361Q333 361 319 349T295 318T282 278T277 238Q277
184 327 184H339ZM310 554Q289 554 274 567T253 599T256 641T292 684L299 689Q323 706 353 717T416 728H426Q452 728 478 718T528 683L533 678Q553 657 557 635T555 595T532 566T495 554H494Q476 554 460 562T423 591L410 604L389 588Q363 568 346 561T311 554H310Z"
/>
<glyph unicode="&#x11e;" glyph-name="Gbreve" horiz-adv-x="709" d="M625 391Q663 391 684 366T696 300L650 103Q642 68 617 43T557 9Q517 0 470 -6T371 -12Q295 -12 231 3T121 51T50 137T24 267Q24 359 54 440T143 581T290 677T493 712Q603 712 671 688Q715
673 728 646T733 584L726 554Q717 516 697 501T648 485Q628 485 612 490T577 502T536 514T481 520Q435 520 402 495T347 429T315 342T304 249Q304 201 323 182T377 163Q392 163 401 164T414 167L431 242H430Q409 242 397 249T380 266T374 289T375 312L377 321Q384
353 404 372T467 391H625ZM668 850Q668 829 657 809T623 772T568 746T493 736Q424 736 384 764T336 828Q332 847 335 861T348 885T369 900T394 905H395Q412 905 423 898T445 882Q456 874 469 867T503 859Q523 859 536 866T561 882Q572 891 584 898T613 905H615Q640
905 654 890T668 850Z" />
<glyph unicode="&#x11f;" glyph-name="gbreve" horiz-adv-x="640" d="M566 47Q540 -67 450 -118T208 -170Q152 -170 112 -166T39 -153Q-3 -141 -17 -117T-22 -51L-17 -28Q-12 -4 4 11T49 26Q62 26 75 23T103 15T139 7T187 3Q245 3 274 17T310 60L318 94Q295 71
261 57T177 43Q146 43 117 52T64 83T26 139T12 222Q12 286 30 343T83 444T167 514T276 540Q331 540 365 518T420 462Q440 492 469 511T542 530H579Q624 530 645 505T655 434L566 47ZM339 184L379 356Q369 361 354 361Q333 361 319 349T295 318T282 278T277 238Q277
184 327 184H339ZM571 682Q571 658 558 636T521 597T464 569T391 559Q356 559 329 567T283 589T253 621T239 660Q233 698 251 718T297 738H298Q315 738 326 731T348 715Q359 707 372 700T406 692Q426 692 439 699T464 715Q475 724 487 731T516 738H518Q543 738
557 722T571 682Z" />
<glyph unicode="&#x120;" glyph-name="Gdotaccent" horiz-adv-x="709" d="M625 391Q663 391 684 366T696 300L650 103Q642 68 617 43T557 9Q517 0 470 -6T371 -12Q295 -12 231 3T121 51T50 137T24 267Q24 359 54 440T143 581T290 677T493 712Q603 712 671 688Q715
673 728 646T733 584L726 554Q717 516 697 501T648 485Q628 485 612 490T577 502T536 514T481 520Q435 520 402 495T347 429T315 342T304 249Q304 201 323 182T377 163Q392 163 401 164T414 167L431 242H430Q409 242 397 249T380 266T374 289T375 312L377 321Q384
353 404 372T467 391H625ZM633 843Q633 790 596 760T499 730Q447 730 415 752T383 817Q383 871 419 902T516 933Q569 933 601 910T633 843Z" />
<glyph unicode="&#x121;" glyph-name="gdotaccent" horiz-adv-x="640" d="M566 47Q540 -67 450 -118T208 -170Q152 -170 112 -166T39 -153Q-3 -141 -17 -117T-22 -51L-17 -28Q-12 -4 4 11T49 26Q62 26 75 23T103 15T139 7T187 3Q245 3 274 17T310 60L318 94Q295
71 261 57T177 43Q146 43 117 52T64 83T26 139T12 222Q12 286 30 343T83 444T167 514T276 540Q331 540 365 518T420 462Q440 492 469 511T542 530H579Q624 530 645 505T655 434L566 47ZM339 184L379 356Q369 361 354 361Q333 361 319 349T295 318T282 278T277 238Q277
184 327 184H339ZM549 667Q549 614 512 584T415 554Q363 554 331 576T299 641Q299 695 335 726T432 757Q485 757 517 734T549 667Z" />
<glyph unicode="&#x122;" glyph-name="Gcommaaccent" horiz-adv-x="709" d="M625 391Q663 391 684 366T696 300L650 103Q642 68 617 43T557 9Q517 0 470 -6T371 -12Q295 -12 231 3T121 51T50 137T24 267Q24 359 54 440T143 581T290 677T493 712Q603 712 671 688Q715
673 728 646T733 584L726 554Q717 516 697 501T648 485Q628 485 612 490T577 502T536 514T481 520Q435 520 402 495T347 429T315 342T304 249Q304 201 323 182T377 163Q392 163 401 164T414 167L431 242H430Q409 242 397 249T380 266T374 289T375 312L377 321Q384
353 404 372T467 391H625ZM394 -102Q394 -165 348 -199T217 -241Q191 -243 182 -234T173 -211V-210Q173 -198 181 -190T215 -174Q229 -170 236 -167T243 -155Q243 -150 239 -146T225 -137Q210 -128 206 -119T201 -93Q201 -74 209 -60T232 -37T264 -24T301 -19Q343
-19 368 -41T394 -102Z" />
<glyph unicode="&#x123;" glyph-name="gcommaaccent" horiz-adv-x="640" d="M566 47Q540 -67 450 -118T208 -170Q152 -170 112 -166T39 -153Q-3 -141 -17 -117T-22 -51L-17 -28Q-12 -4 4 11T49 26Q62 26 75 23T103 15T139 7T187 3Q245 3 274 17T310 60L318 94Q295
71 261 57T177 43Q146 43 117 52T64 83T26 139T12 222Q12 286 30 343T83 444T167 514T276 540Q331 540 365 518T420 462Q440 492 469 511T542 530H579Q624 530 645 505T655 434L566 47ZM293 628Q293 691 339 725T470 767Q496 769 505 760T514 737V736Q514 724 506
716T472 700Q458 696 451 693T444 681Q444 673 462 663Q477 654 481 645T486 619Q486 600 478 586T455 563T423 550T386 545Q344 545 319 567T293 628ZM339 184L379 356Q369 361 354 361Q333 361 319 349T295 318T282 278T277 238Q277 184 327 184H339Z" />
<glyph unicode="&#x124;" glyph-name="Hcircumflex" horiz-adv-x="748" d="M667 79Q657 37 630 19T568 0H464Q426 0 405 25T394 92L431 255H315L275 79Q265 37 238 19T176 0H72Q34 0 13 25T2 92L124 621Q134 663 161 681T223 700H327Q365 700 386 675T397 608L361
451H477L516 621Q526 663 553 681T615 700H719Q757 700 778 675T789 608L667 79ZM486 780L465 764Q439 744 422 737T386 730H385Q364 730 349 742T329 774T332 817T368 860L376 866Q400 884 430 894T492 904H502Q559 904 603 860L609 854Q630 833 635 811T634 771T611
742T571 730H570Q552 730 536 738T499 767L486 780Z" />
<glyph unicode="&#x125;" glyph-name="hcircumflex" horiz-adv-x="643" d="M333 452Q371 492 414 516T518 540Q548 540 574 530T618 499T640 442T634 355L570 77Q562 42 538 21T472 0H392Q347 0 326 25T316 97L361 288Q367 314 359 327T317 341H307L247 79Q239
44 216 22T150 0H69Q24 0 3 25T-7 96L115 622Q123 657 146 678T212 700H292Q337 700 358 674T368 603L333 452ZM419 780L398 764Q372 744 355 737T319 730H318Q297 730 282 742T262 774T265 817T301 860L309 866Q333 884 363 894T425 904H435Q492 904 536 860L542
854Q563 833 568 811T567 771T544 742T504 730H503Q485 730 469 738T432 767L419 780Z" />
<glyph unicode="&#x126;" glyph-name="Hbar" horiz-adv-x="752" d="M767 505L669 79Q659 37 632 19T570 0H466Q428 0 407 25T396 92L433 255H317L277 79Q267 37 240 19T178 0H74Q36 0 15 25T4 92L99 505H96Q62 505 49 526T41 572L42 577Q47 606 66 621T120 637H130Q143
669 168 684T225 700H329Q360 700 380 683T402 637H522Q535 669 560 684T617 700H721Q752 700 772 683T794 637H802Q835 637 848 616T856 569L855 565Q850 536 831 521T777 505H767ZM479 451L491 505H375L363 451H479Z" />
<glyph unicode="&#x127;" glyph-name="hbar" horiz-adv-x="647" d="M574 77Q566 42 542 21T476 0H396Q351 0 330 25T320 97L365 288Q371 314 363 327T321 341H311L251 79Q243 44 220 22T154 0H73Q28 0 7 25T-3 96L103 555H98Q73 555 62 570T53 607L54 614Q60 657
116 657H133Q145 677 165 688T216 700H296Q355 700 371 657H436Q461 657 472 642T481 605L480 598Q474 555 418 555H361L337 452Q375 492 418 516T522 540Q552 540 578 530T622 499T644 442T638 355L574 77Z" />
<glyph unicode="&#x12a;" glyph-name="Imacron" horiz-adv-x="364" d="M128 621Q138 663 165 681T227 700H331Q369 700 390 675T401 608L279 79Q269 37 242 19T180 0H76Q38 0 17 25T6 92L128 621ZM207 741Q173 741 160 762T151 809L152 815Q157 844 176 859T232
875H405Q439 875 452 854T461 807L460 801Q455 772 436 757T380 741H207Z" />
<glyph unicode="&#x12b;" glyph-name="imacron" horiz-adv-x="318" d="M146 571Q112 571 99 592T90 639L91 645Q96 674 115 689T171 705H343Q377 705 390 684T399 637L398 631Q393 602 374 587T318 571H146ZM251 79Q243 44 220 22T154 0H73Q28 0 7 25T-3 96L79
451Q87 486 110 508T176 530H256Q301 530 322 505T332 434L251 79Z" />
<glyph unicode="&#x12e;" glyph-name="Iogonek" horiz-adv-x="364" d="M-2 -95Q-2 -78 6 -64T26 -37T52 -16T79 0Q61 0 46 6T20 25T5 54T6 92L128 621Q138 663 165 681T227 700H331Q369 700 390 675T401 608L279 79Q274 58 267 43T251 18T234 1T218 -12Q209 -19
204 -25T198 -39Q198 -47 205 -51T218 -57Q237 -63 243 -75T244 -113L243 -119Q234 -171 130 -171Q60 -171 26 -146Q-2 -126 -2 -95Z" />
<glyph unicode="&#x12f;" glyph-name="iogonek" horiz-adv-x="318" d="M367 655Q367 602 330 572T233 542Q181 542 149 564T117 629Q117 683 153 714T250 745Q303 745 335 722T367 655ZM251 79Q247 60 243 48T232 27T217 11T196 -3Q183 -11 174 -19T165 -37Q165
-46 172 -50T187 -57Q206 -63 212 -75T213 -113L212 -119Q203 -171 99 -171Q63 -171 37 -164T-7 -145Q-33 -125 -33 -95Q-33 -60 -5 -37T67 0Q25 2 6 27T-3 96L79 451Q87 486 110 508T176 530H256Q301 530 322 505T332 434L251 79Z" />
<glyph unicode="&#x130;" glyph-name="Idotaccent" horiz-adv-x="364" d="M128 621Q138 663 165 681T227 700H331Q369 700 390 675T401 608L279 79Q269 37 242 19T180 0H76Q38 0 17 25T6 92L128 621ZM694 843Q694 790 657 760T560 730Q508 730 476 752T444 817Q444
871 480 902T577 933Q630 933 662 910T694 843Z" />
<glyph unicode="&#x131;" glyph-name="dotlessi" horiz-adv-x="318" d="M251 79Q243 44 220 22T154 0H73Q28 0 7 25T-3 96L79 451Q87 486 110 508T176 530H256Q301 530 322 505T332 434L251 79Z" />
<glyph unicode="&#x134;" glyph-name="Jcircumflex" horiz-adv-x="545" d="M502 215Q477 107 395 49T167 -10Q81 -10 30 11Q-12 28 -24 54T-28 118L-20 155Q-14 182 4 198T54 215Q68 215 80 211T106 202T134 192T166 188Q194 188 209 199T231 237L320 622Q330
663 357 681T419 700H523Q561 700 582 675T593 608L502 215ZM490 780L469 764Q443 744 426 737T390 730H389Q368 730 353 742T333 774T336 817T372 860L380 866Q404 884 434 894T496 904H506Q563 904 607 860L613 854Q634 833 639 811T638 771T615 742T575 730H574Q556
730 540 738T503 767L490 780Z" />
<glyph unicode="&#x135;" glyph-name="jcircumflex" horiz-adv-x="318" d="M233 1Q222 -49 201 -82T151 -135T85 -163T4 -171Q-42 -171 -70 -165Q-102 -158 -115 -139T-125 -90L-124 -81Q-121 -56 -111 -42T-71 -23Q-44 -18 -35 -9T-20 24L79 452Q87 487 110 508T176
530H256Q301 530 322 505T332 434L233 1ZM389 554Q368 554 353 567T332 599T335 641T371 684L378 689Q402 706 432 717T495 728H505Q531 728 557 718T607 683L612 678Q632 657 636 635T634 595T611 566T574 554H573Q555 554 539 562T502 591L489 604L468 588Q442
568 425 561T390 554H389Z" />
<glyph unicode="&#x136;" glyph-name="Kcommaaccent" horiz-adv-x="759" d="M124 621Q134 663 161 681T223 700H327Q365 700 386 675T397 608L360 450L532 639Q557 666 585 683T661 700H737Q761 700 776 688T796 658T797 620T773 581L588 397L690 118Q699 94 698
73T686 36T659 10T618 0H521Q476 0 453 21T417 77L357 233L298 179L275 79Q265 37 238 19T176 0H72Q34 0 13 25T2 92L124 621ZM398 -102Q398 -165 352 -199T221 -241Q195 -243 186 -234T177 -211V-210Q177 -198 185 -190T219 -174Q233 -170 240 -167T247 -155Q247
-150 243 -146T229 -137Q214 -128 210 -119T205 -93Q205 -74 213 -60T236 -37T268 -24T305 -19Q347 -19 372 -41T398 -102Z" />
<glyph unicode="&#x137;" glyph-name="kcommaaccent" horiz-adv-x="639" d="M411 470Q436 496 465 513T543 530H596Q621 530 635 519T653 491T653 455T633 422L507 299L584 109Q592 89 591 70T580 35T556 10T519 0H438Q396 0 372 19T331 78L298 157L255 114L247
78Q239 43 215 22T150 0H69Q24 0 3 25T-7 96L114 622Q122 657 146 678T212 700H292Q337 700 358 674T368 603L313 366L411 470ZM357 -102Q357 -165 311 -199T180 -241Q154 -243 145 -234T136 -211V-210Q136 -198 144 -190T178 -174Q192 -170 199 -167T206 -155Q206
-150 202 -146T188 -137Q173 -128 169 -119T164 -93Q164 -74 172 -60T195 -37T227 -24T264 -19Q306 -19 331 -41T357 -102Z" />
<glyph unicode="&#x139;" glyph-name="Lacute" horiz-adv-x="574" d="M62 0Q31 0 11 21T-1 79L124 621Q134 663 161 681T223 700H327Q365 700 386 675T397 608L299 182H451Q477 182 493 174T519 154T530 126T529 96L525 76Q518 41 495 21T423 0H62ZM498 835Q509
864 531 881T596 899H670Q694 899 709 889T729 863T730 831T709 799L690 782Q660 755 630 744T568 732H553Q535 732 521 738T498 755T487 780T490 812L498 835Z" />
<glyph unicode="&#x13a;" glyph-name="lacute" horiz-adv-x="314" d="M247 79Q239 44 216 22T150 0H69Q24 0 3 25T-7 96L115 621Q123 656 146 678T212 700H292Q337 700 358 675T368 604L247 79ZM451 835Q462 864 484 881T549 899H623Q647 899 662 889T682 863T683
831T662 799L643 782Q613 755 583 744T521 732H506Q488 732 474 738T451 755T440 780T443 812L451 835Z" />
<glyph unicode="&#x13b;" glyph-name="Lcommaaccent" horiz-adv-x="576" d="M62 0Q31 0 11 21T-1 79L124 621Q134 663 161 681T223 700H327Q365 700 386 675T397 608L299 182H451Q477 182 493 174T519 154T530 126T529 96L525 76Q518 41 495 21T423 0H62ZM306
-102Q306 -165 260 -199T129 -241Q103 -243 94 -234T85 -211V-210Q85 -198 93 -190T127 -174Q141 -170 148 -167T155 -155Q155 -150 151 -146T137 -137Q122 -128 118 -119T113 -93Q113 -74 121 -60T144 -37T176 -24T213 -19Q255 -19 280 -41T306 -102Z" />
<glyph unicode="&#x13c;" glyph-name="lcommaaccent" horiz-adv-x="314" d="M247 79Q239 44 216 22T150 0H69Q24 0 3 25T-7 96L115 621Q123 656 146 678T212 700H292Q337 700 358 675T368 604L247 79ZM431 -102Q431 -165 385 -199T254 -241Q228 -243 219 -234T210
-211V-210Q210 -198 218 -190T252 -174Q266 -170 273 -167T280 -155Q280 -150 276 -146T262 -137Q247 -128 243 -119T238 -93Q238 -74 246 -60T269 -37T301 -24T338 -19Q380 -19 405 -41T431 -102Z" />
<glyph unicode="&#x13d;" glyph-name="Lcaron" horiz-adv-x="574" d="M578 576Q555 544 537 532T491 520H489Q457 520 442 542T434 599L440 625Q447 656 468 678T536 700H547Q569 700 584 691T606 668T611 637T596 601L578 576ZM62 0Q31 0 11 21T-1 79L124 621Q134
663 161 681T223 700H327Q365 700 386 675T397 608L299 182H451Q477 182 493 174T519 154T530 126T529 96L525 76Q518 41 495 21T423 0H62Z" />
<glyph unicode="&#x13e;" glyph-name="lcaron" horiz-adv-x="314" d="M537 576Q514 544 496 532T450 520H448Q416 520 401 542T393 599L399 625Q406 656 427 678T495 700H506Q528 700 543 691T565 668T570 637T555 601L537 576ZM247 79Q239 44 216 22T150 0H69Q24
0 3 25T-7 96L115 621Q123 656 146 678T212 700H292Q337 700 358 675T368 604L247 79Z" />
<glyph unicode="&#x141;" glyph-name="Lslash" horiz-adv-x="586" d="M76 0Q45 0 25 21T13 79L45 218Q24 221 10 235T-9 271Q-18 305 -3 329T50 365L81 374L138 621Q148 663 175 681T237 700H341Q379 700 400 675T411 608L376 458L387 461Q424 471 447 457T479
411Q488 377 473 353T420 317L338 294L313 182H465Q491 182 507 174T533 154T544 126T543 96L539 76Q532 41 509 21T437 0H76Z" />
<glyph unicode="&#x142;" glyph-name="lslash" horiz-adv-x="344" d="M325 342L265 79Q257 44 234 22T168 0H87Q42 0 21 25T11 96L51 269Q32 271 20 283T3 314Q-5 343 8 364T53 393L82 401L133 621Q141 656 164 678T230 700H310Q355 700 376 675T386 604L356 477Q378
476 392 464T411 432Q419 403 406 382T361 352L325 342Z" />
<glyph unicode="&#x143;" glyph-name="Nacute" horiz-adv-x="733" d="M652 79Q644 44 620 22T553 0H459Q416 0 391 21T357 78L285 348H282L220 79Q210 37 183 19T121 0H72Q34 0 13 25T2 92L124 621Q132 656 156 678T223 700H337Q380 700 404 678T438 622L499 387H502L556
621Q566 663 593 681T655 700H704Q742 700 763 675T774 608L652 79ZM407 835Q418 864 440 881T505 899H579Q603 899 618 889T638 863T639 831T618 799L599 782Q569 755 539 744T477 732H462Q444 732 430 738T407 755T396 780T399 812L407 835Z" />
<glyph unicode="&#x144;" glyph-name="nacute" horiz-adv-x="638" d="M75 451Q83 486 106 508T172 530H222Q269 530 294 512T320 438Q362 484 407 512T518 540Q548 540 574 530T618 499T640 442T634 355L570 77Q562 42 538 21T472 0H392Q347 0 326 25T316 97L361
288Q367 314 359 327T317 341H307L247 79Q239 44 216 22T150 0H69Q24 0 3 25T-7 95L75 451ZM312 659Q323 688 344 705T404 723H487Q509 723 523 713T542 687T542 654T521 623L505 609Q473 580 444 568T378 556H367Q330 556 311 578T304 636L312 659Z" />
<glyph unicode="&#x145;" glyph-name="Ncommaaccent" horiz-adv-x="733" d="M652 79Q644 44 620 22T553 0H459Q416 0 391 21T357 78L285 348H282L220 79Q210 37 183 19T121 0H72Q34 0 13 25T2 92L124 621Q132 656 156 678T223 700H337Q380 700 404 678T438 622L499
387H502L556 621Q566 663 593 681T655 700H704Q742 700 763 675T774 608L652 79ZM392 -102Q392 -165 346 -199T215 -241Q189 -243 180 -234T171 -211V-210Q171 -198 179 -190T213 -174Q227 -170 234 -167T241 -155Q241 -150 237 -146T223 -137Q208 -128 204 -119T199
-93Q199 -74 207 -60T230 -37T262 -24T299 -19Q341 -19 366 -41T392 -102Z" />
<glyph unicode="&#x146;" glyph-name="ncommaaccent" horiz-adv-x="638" d="M75 451Q83 486 106 508T172 530H222Q269 530 294 512T320 438Q362 484 407 512T518 540Q548 540 574 530T618 499T640 442T634 355L570 77Q562 42 538 21T472 0H392Q347 0 326 25T316
97L361 288Q367 314 359 327T317 341H307L247 79Q239 44 216 22T150 0H69Q24 0 3 25T-7 95L75 451ZM347 -102Q347 -165 301 -199T170 -241Q144 -243 135 -234T126 -211V-210Q126 -198 134 -190T168 -174Q182 -170 189 -167T196 -155Q196 -150 192 -146T178 -137Q163
-128 159 -119T154 -93Q154 -74 162 -60T185 -37T217 -24T254 -19Q296 -19 321 -41T347 -102Z" />
<glyph unicode="&#x147;" glyph-name="Ncaron" horiz-adv-x="733" d="M652 79Q644 44 620 22T553 0H459Q416 0 391 21T357 78L285 348H282L220 79Q210 37 183 19T121 0H72Q34 0 13 25T2 92L124 621Q132 656 156 678T223 700H337Q380 700 404 678T438 622L499 387H502L556
621Q566 663 593 681T655 700H704Q742 700 763 675T774 608L652 79ZM491 856L512 872Q538 892 555 899T591 906H592Q614 906 629 893T649 861T645 819T609 776L598 768Q575 751 546 742T485 732H475Q449 732 424 741T377 773L368 782Q347 803 342 825T343 865T366
894T406 906H407Q425 906 441 898T478 869L491 856Z" />
<glyph unicode="&#x148;" glyph-name="ncaron" horiz-adv-x="638" d="M75 451Q83 486 106 508T172 530H222Q269 530 294 512T320 438Q362 484 407 512T518 540Q548 540 574 530T618 499T640 442T634 355L570 77Q562 42 538 21T472 0H392Q347 0 326 25T316 97L361
288Q367 314 359 327T317 341H307L247 79Q239 44 216 22T150 0H69Q24 0 3 25T-7 95L75 451ZM497 730Q518 730 533 718T553 686T550 643T514 600L506 594Q482 576 452 566T390 556H380Q352 556 327 566T278 601L273 606Q252 627 247 649T248 689T271 718T311 730H312Q330
730 346 722T383 693L396 680L417 696Q443 716 460 723T496 730H497Z" />
<glyph unicode="&#x14c;" glyph-name="Omacron" horiz-adv-x="768" d="M298 263Q298 225 313 199T363 172Q401 172 427 200T469 269T493 352T501 427Q501 475 483 497T439 519Q400 519 373 491T330 422T306 337T298 263ZM776 416Q776 332 746 255T661 118T526
23T346 -12Q282 -12 224 4T121 56T50 145T23 276Q23 361 51 439T135 579T269 676T451 713Q529 713 589 692T691 631T754 537T776 416ZM398 741Q364 741 351 762T342 809L343 815Q348 844 367 859T423 875H596Q630 875 643 854T652 807L651 801Q646 772 627 757T571
741H398Z" />
<glyph unicode="&#x14d;" glyph-name="omacron" horiz-adv-x="617" d="M259 189Q259 166 266 154T290 141Q307 141 320 159T343 206T357 266T362 326Q362 374 333 374Q315 374 301 356T278 309T264 249T259 189ZM616 309Q616 246 595 189T532 87T427 16T279 -10Q217
-10 167 5T82 49T27 121T7 220Q7 283 28 341T91 443T197 513T345 540Q406 540 456 525T542 480T596 407T616 309ZM288 571Q254 571 241 592T232 639L233 645Q238 674 257 689T313 705H485Q519 705 532 684T541 637L540 631Q535 602 516 587T460 571H288Z" />
<glyph unicode="&#x150;" glyph-name="Ohungarumlaut" horiz-adv-x="768" d="M298 263Q298 225 313 199T363 172Q401 172 427 200T469 269T493 352T501 427Q501 475 483 497T439 519Q400 519 373 491T330 422T306 337T298 263ZM776 416Q776 332 746 255T661 118T526
23T346 -12Q282 -12 224 4T121 56T50 145T23 276Q23 361 51 439T135 579T269 676T451 713Q529 713 589 692T691 631T754 537T776 416ZM309 835Q320 866 340 882T400 899H444Q465 899 479 890T498 866T499 834T479 800L463 784Q432 753 410 743T360 732H354Q322
732 305 754T301 811L309 835ZM527 835Q538 866 558 882T618 899H662Q683 899 697 890T716 866T717 834T697 800L681 784Q650 753 628 743T578 732H572Q540 732 523 754T519 811L527 835Z" />
<glyph unicode="&#x151;" glyph-name="ohungarumlaut" horiz-adv-x="617" d="M259 189Q259 166 266 154T290 141Q307 141 320 159T343 206T357 266T362 326Q362 374 333 374Q315 374 301 356T278 309T264 249T259 189ZM616 309Q616 246 595 189T532 87T427 16T279
-10Q217 -10 167 5T82 49T27 121T7 220Q7 283 28 341T91 443T197 513T345 540Q406 540 456 525T542 480T596 407T616 309ZM200 659Q211 690 231 706T291 723H330Q352 723 366 715T385 694T387 663T368 627L357 613Q332 581 308 569T253 556H245Q213 556 196 578T192
635L200 659ZM408 659Q419 690 439 706T499 723H538Q560 723 574 715T593 694T595 663T576 627L565 613Q540 581 516 569T461 556H453Q421 556 404 578T400 635L408 659Z" />
<glyph unicode="&#x152;" glyph-name="OE" horiz-adv-x="995" d="M764 518L745 436H828Q853 436 869 429T893 409T902 382T902 352L900 339Q895 306 871 286T802 266H706L686 177H859Q885 177 901 169T927 148T938 120T937 90L934 76Q928 41 903 21T832 0H344Q184
0 104 73T23 280Q23 369 51 445T134 578T272 667T463 700H960Q987 700 1004 692T1030 671T1041 642T1040 611L1037 596Q1030 561 1005 540T932 518H764ZM459 526Q420 526 390 506T340 452T310 371T299 272Q299 224 319 203T386 181H410L490 526H459Z" />
<glyph unicode="&#x153;" glyph-name="oe" horiz-adv-x="931" d="M345 540Q450 540 510 483Q545 510 590 525T689 541Q814 541 872 485T930 326Q930 311 930 300T926 271Q922 246 905 228T854 209H604Q607 177 626 163T687 149Q712 149 732 152T768 160T797 168T824
172Q851 172 865 154T874 106L872 96Q866 65 850 48T802 16Q771 2 728 -4T638 -10Q516 -10 455 45Q420 19 377 5T279 -10Q217 -10 167 5T82 49T27 121T7 220Q7 283 28 341T91 443T197 513T345 540ZM259 189Q259 166 266 154T290 141Q307 141 320 159T343 206T357
266T362 326Q362 374 333 374Q315 374 301 356T278 309T264 249T259 189ZM702 318Q703 323 703 328T704 342Q704 365 699 376T674 388Q652 388 638 368T615 318H702Z" />
<glyph unicode="&#x154;" glyph-name="Racute" horiz-adv-x="709" d="M275 79Q265 37 238 19T176 0H72Q34 0 13 25T2 92L124 621Q132 656 156 678T223 700H445Q590 700 658 653T726 500Q726 420 689 364T586 275L651 106Q659 85 658 66T647 32T622 9T583 0H493Q448
0 423 21T387 77L335 231H310L275 79ZM341 384H383Q422 384 440 411T458 477Q458 526 411 526H375L341 384ZM354 835Q365 864 387 881T452 899H526Q550 899 565 889T585 863T586 831T565 799L546 782Q516 755 486 744T424 732H409Q391 732 377 738T354 755T343
780T346 812L354 835Z" />
<glyph unicode="&#x155;" glyph-name="racute" horiz-adv-x="464" d="M396 318Q368 316 346 313T299 304L247 79Q239 44 216 22T150 0H69Q24 0 3 25T-7 95L75 451Q83 486 106 508T172 530H222Q270 530 296 510T320 431Q400 533 461 533Q492 533 503 514T506 464L488
385Q480 351 457 336T396 318ZM251 659Q262 688 283 705T343 723H426Q448 723 462 713T481 687T481 654T460 623L444 609Q412 580 383 568T317 556H306Q269 556 250 578T243 636L251 659Z" />
<glyph unicode="&#x156;" glyph-name="Rcommaaccent" horiz-adv-x="709" d="M275 79Q265 37 238 19T176 0H72Q34 0 13 25T2 92L124 621Q132 656 156 678T223 700H445Q590 700 658 653T726 500Q726 420 689 364T586 275L651 106Q659 85 658 66T647 32T622 9T583
0H493Q448 0 423 21T387 77L335 231H310L275 79ZM341 384H383Q422 384 440 411T458 477Q458 526 411 526H375L341 384ZM385 -102Q385 -165 339 -199T208 -241Q182 -243 173 -234T164 -211V-210Q164 -198 172 -190T206 -174Q220 -170 227 -167T234 -155Q234 -150
230 -146T216 -137Q201 -128 197 -119T192 -93Q192 -74 200 -60T223 -37T255 -24T292 -19Q334 -19 359 -41T385 -102Z" />
<glyph unicode="&#x157;" glyph-name="rcommaaccent" horiz-adv-x="464" d="M396 318Q368 316 346 313T299 304L247 79Q239 44 216 22T150 0H69Q24 0 3 25T-7 95L75 451Q83 486 106 508T172 530H222Q270 530 296 510T320 431Q400 533 461 533Q492 533 503 514T506
464L488 385Q480 351 457 336T396 318ZM436 -102Q436 -165 390 -199T259 -241Q233 -243 224 -234T215 -211V-210Q215 -198 223 -190T257 -174Q271 -170 278 -167T285 -155Q285 -150 281 -146T267 -137Q252 -128 248 -119T243 -93Q243 -74 251 -60T274 -37T306 -24T343
-19Q385 -19 410 -41T436 -102Z" />
<glyph unicode="&#x158;" glyph-name="Rcaron" horiz-adv-x="709" d="M275 79Q265 37 238 19T176 0H72Q34 0 13 25T2 92L124 621Q132 656 156 678T223 700H445Q590 700 658 653T726 500Q726 420 689 364T586 275L651 106Q659 85 658 66T647 32T622 9T583 0H493Q448
0 423 21T387 77L335 231H310L275 79ZM341 384H383Q422 384 440 411T458 477Q458 526 411 526H375L341 384ZM440 856L461 872Q487 892 504 899T540 906H541Q563 906 578 893T598 861T594 819T558 776L547 768Q524 751 495 742T434 732H424Q398 732 373 741T326
773L317 782Q296 803 291 825T292 865T315 894T355 906H356Q374 906 390 898T427 869L440 856Z" />
<glyph unicode="&#x159;" glyph-name="rcaron" horiz-adv-x="464" d="M396 318Q368 316 346 313T299 304L247 79Q239 44 216 22T150 0H69Q24 0 3 25T-7 95L75 451Q83 486 106 508T172 530H222Q270 530 296 510T320 431Q400 533 461 533Q492 533 503 514T506 464L488
385Q480 351 457 336T396 318ZM437 730Q458 730 473 718T493 686T490 643T454 600L446 594Q422 576 392 566T330 556H320Q292 556 267 566T218 601L213 606Q192 627 187 649T188 689T211 718T251 730H252Q270 730 286 722T323 693L336 680L357 696Q383 716 400
723T436 730H437Z" />
<glyph unicode="&#x15a;" glyph-name="Sacute" horiz-adv-x="598" d="M588 268Q588 203 565 151T497 63T390 8T247 -12Q185 -12 134 -5T48 20Q5 40 -6 67T-6 139L-3 152Q4 180 21 195T69 211Q84 211 101 205T141 192T190 179T251 173Q279 173 295 179T312 203Q312
217 292 225T225 246Q143 268 101 312T59 439Q59 511 83 563T150 648T253 698T385 714Q443 714 488 706T570 684Q644 654 626 577L621 555Q605 494 547 494Q528 494 512 500T476 512T431 525T371 531Q340 531 328 524T316 502Q316 487 334 480T393 461Q500 432
544 385T588 268ZM333 835Q344 864 366 881T431 899H505Q529 899 544 889T564 863T565 831T544 799L525 782Q495 755 465 744T403 732H388Q370 732 356 738T333 755T322 780T325 812L333 835Z" />
<glyph unicode="&#x15b;" glyph-name="sacute" horiz-adv-x="497" d="M477 203Q477 149 458 109T403 43T317 4T205 -9Q159 -9 111 -3T29 17Q-6 32 -17 53T-21 106L-16 129Q-11 149 3 162T41 176Q57 176 72 171T105 159T146 148T199 142Q216 142 228 144T240 158Q240
162 238 165T227 170T204 177T165 187Q133 195 108 206T64 235T36 276T26 335Q26 390 46 429T102 492T186 528T291 540Q338 540 378 536T447 521Q482 508 493 486T497 431L493 413Q488 389 472 378T435 366Q419 366 405 370T375 380T340 389T293 394Q255 394 255
378Q255 369 268 365T324 351Q360 343 388 333T436 305T466 264T477 203ZM241 659Q252 688 273 705T333 723H416Q438 723 452 713T471 687T471 654T450 623L434 609Q402 580 373 568T307 556H296Q259 556 240 578T233 636L241 659Z" />
<glyph unicode="&#x15c;" glyph-name="Scircumflex" horiz-adv-x="598" d="M588 268Q588 203 565 151T497 63T390 8T247 -12Q185 -12 134 -5T48 20Q5 40 -6 67T-6 139L-3 152Q4 180 21 195T69 211Q84 211 101 205T141 192T190 179T251 173Q279 173 295 179T312
203Q312 217 292 225T225 246Q143 268 101 312T59 439Q59 511 83 563T150 648T253 698T385 714Q443 714 488 706T570 684Q644 654 626 577L621 555Q605 494 547 494Q528 494 512 500T476 512T431 525T371 531Q340 531 328 524T316 502Q316 487 334 480T393 461Q500
432 544 385T588 268ZM413 780L392 764Q366 744 349 737T313 730H312Q291 730 276 742T256 774T259 817T295 860L303 866Q327 884 357 894T419 904H429Q486 904 530 860L536 854Q557 833 562 811T561 771T538 742T498 730H497Q479 730 463 738T426 767L413 780Z"
/>
<glyph unicode="&#x15d;" glyph-name="scircumflex" horiz-adv-x="497" d="M477 203Q477 149 458 109T403 43T317 4T205 -9Q159 -9 111 -3T29 17Q-6 32 -17 53T-21 106L-16 129Q-11 149 3 162T41 176Q57 176 72 171T105 159T146 148T199 142Q216 142 228 144T240
158Q240 162 238 165T227 170T204 177T165 187Q133 195 108 206T64 235T36 276T26 335Q26 390 46 429T102 492T186 528T291 540Q338 540 378 536T447 521Q482 508 493 486T497 431L493 413Q488 389 472 378T435 366Q419 366 405 370T375 380T340 389T293 394Q255
394 255 378Q255 369 268 365T324 351Q360 343 388 333T436 305T466 264T477 203ZM219 554Q198 554 183 567T162 599T165 641T201 684L208 689Q232 706 262 717T325 728H335Q361 728 387 718T437 683L442 678Q462 657 466 635T464 595T441 566T404 554H403Q385
554 369 562T332 591L319 604L298 588Q272 568 255 561T220 554H219Z" />
<glyph unicode="&#x15e;" glyph-name="Scedilla" horiz-adv-x="598" d="M588 268Q588 205 567 155T504 68T404 12T271 -11L268 -25Q303 -31 319 -46T335 -87Q335 -112 324 -129T295 -156T252 -170T203 -175Q180 -175 161 -173T126 -165Q107 -158 102 -148T99 -122L100
-115Q104 -89 132 -89Q144 -89 151 -93T175 -98Q184 -98 190 -95T196 -86Q196 -77 180 -77H179Q172 -77 168 -73T166 -60L178 -9Q139 -6 106 1T48 20Q5 40 -6 67T-6 139L-3 152Q4 180 21 195T69 211Q84 211 101 205T141 192T190 179T251 173Q279 173 295 179T312
203Q312 217 292 225T225 246Q143 268 101 312T59 439Q59 511 83 563T150 648T253 698T385 714Q443 714 488 706T570 684Q644 654 626 577L621 555Q605 494 547 494Q528 494 512 500T476 512T431 525T371 531Q340 531 328 524T316 502Q316 487 334 480T393 461Q500
432 544 385T588 268Z" />
<glyph unicode="&#x15f;" glyph-name="scedilla" horiz-adv-x="497" d="M477 203Q477 150 459 112T408 47T327 7T221 -9L217 -25Q252 -31 268 -46T284 -87Q284 -112 273 -129T244 -156T201 -170T152 -175Q129 -175 110 -173T75 -165Q56 -158 51 -148T48 -122L49
-115Q53 -89 81 -89Q93 -89 100 -93T124 -98Q133 -98 139 -95T145 -86Q145 -77 129 -77H128Q121 -77 117 -73T115 -60L128 -5Q99 -2 74 3T29 17Q-6 32 -17 53T-21 106L-16 129Q-11 149 3 162T41 176Q57 176 72 171T105 159T146 148T199 142Q216 142 228 144T240
158Q240 162 238 165T227 170T204 177T165 187Q133 195 108 206T64 235T36 276T26 335Q26 390 46 429T102 492T186 528T291 540Q338 540 378 536T447 521Q482 508 493 486T497 431L493 413Q488 389 472 378T435 366Q419 366 405 370T375 380T340 389T293 394Q255
394 255 378Q255 369 268 365T324 351Q360 343 388 333T436 305T466 264T477 203Z" />
<glyph unicode="&#x160;" glyph-name="Scaron" horiz-adv-x="598" d="M588 268Q588 203 565 151T497 63T390 8T247 -12Q185 -12 134 -5T48 20Q5 40 -6 67T-6 139L-3 152Q4 180 21 195T69 211Q84 211 101 205T141 192T190 179T251 173Q279 173 295 179T312 203Q312
217 292 225T225 246Q143 268 101 312T59 439Q59 511 83 563T150 648T253 698T385 714Q443 714 488 706T570 684Q644 654 626 577L621 555Q605 494 547 494Q528 494 512 500T476 512T431 525T371 531Q340 531 328 524T316 502Q316 487 334 480T393 461Q500 432
544 385T588 268ZM407 856L428 872Q454 892 471 899T507 906H508Q530 906 545 893T565 861T561 819T525 776L514 768Q491 751 462 742T401 732H391Q365 732 340 741T293 773L284 782Q263 803 258 825T259 865T282 894T322 906H323Q341 906 357 898T394 869L407
856Z" />
<glyph unicode="&#x161;" glyph-name="scaron" horiz-adv-x="497" d="M477 203Q477 149 458 109T403 43T317 4T205 -9Q159 -9 111 -3T29 17Q-6 32 -17 53T-21 106L-16 129Q-11 149 3 162T41 176Q57 176 72 171T105 159T146 148T199 142Q216 142 228 144T240 158Q240
162 238 165T227 170T204 177T165 187Q133 195 108 206T64 235T36 276T26 335Q26 390 46 429T102 492T186 528T291 540Q338 540 378 536T447 521Q482 508 493 486T497 431L493 413Q488 389 472 378T435 366Q419 366 405 370T375 380T340 389T293 394Q255 394 255
378Q255 369 268 365T324 351Q360 343 388 333T436 305T466 264T477 203ZM416 730Q437 730 452 718T472 686T469 643T433 600L425 594Q401 576 371 566T309 556H299Q271 556 246 566T197 601L192 606Q171 627 166 649T167 689T190 718T230 730H231Q249 730 265
722T302 693L315 680L336 696Q362 716 379 723T415 730H416Z" />
<glyph unicode="&#x162;" glyph-name="Tcommaaccent" horiz-adv-x="628" d="M417 79Q407 37 380 19T318 0H214Q176 0 155 25T144 92L241 513H176Q149 513 132 521T105 543T93 572T93 604L96 620Q104 656 130 678T205 700H612Q639 700 656 692T683 670T695 641T695
609L692 593Q684 557 658 535T583 513H517L417 79ZM330 -102Q330 -165 284 -199T153 -241Q127 -243 118 -234T109 -211V-210Q109 -198 117 -190T151 -174Q165 -170 172 -167T179 -155Q179 -150 175 -146T161 -137Q146 -128 142 -119T137 -93Q137 -74 145 -60T168
-37T200 -24T237 -19Q279 -19 304 -41T330 -102Z" />
<glyph unicode="&#x163;" glyph-name="tcommaaccent" horiz-adv-x="403" d="M387 530Q419 530 431 513T437 468L428 427Q416 375 360 375H339L300 204Q293 175 300 165T329 147Q372 137 360 86L353 56Q348 33 331 17T282 -6Q263 -10 245 -11T209 -12Q163 -12 125
-5T63 24T30 84T36 182L81 375H80Q54 375 42 392T36 437L45 478Q55 530 108 530H117L127 573Q135 608 158 630T224 652H305Q350 652 371 627T381 556L375 530H387ZM242 -102Q242 -165 196 -199T65 -241Q39 -243 30 -234T21 -211V-210Q21 -198 29 -190T63 -174Q77
-170 84 -167T91 -155Q91 -150 87 -146T73 -137Q58 -128 54 -119T49 -93Q49 -74 57 -60T80 -37T112 -24T149 -19Q191 -19 216 -41T242 -102Z" />
<glyph unicode="&#x164;" glyph-name="Tcaron" horiz-adv-x="624" d="M417 79Q407 37 380 19T318 0H214Q176 0 155 25T144 92L241 513H176Q149 513 132 521T105 543T93 572T93 604L96 620Q104 656 130 678T205 700H612Q639 700 656 692T683 670T695 641T695 609L692
593Q684 557 658 535T583 513H517L417 79ZM425 856L446 872Q472 892 489 899T525 906H526Q548 906 563 893T583 861T579 819T543 776L532 768Q509 751 480 742T419 732H409Q383 732 358 741T311 773L302 782Q281 803 276 825T277 865T300 894T340 906H341Q359 906
375 898T412 869L425 856Z" />
<glyph unicode="&#x165;" glyph-name="tcaron" horiz-adv-x="403" d="M562 576Q539 544 521 532T475 520H473Q441 520 426 542T418 599L424 625Q431 656 452 678T520 700H531Q553 700 568 691T590 668T595 637T580 601L562 576ZM387 530Q419 530 431 513T437 468L428
427Q416 375 360 375H339L300 204Q293 175 300 165T329 147Q372 137 360 86L353 56Q348 33 331 17T282 -6Q263 -10 245 -11T209 -12Q163 -12 125 -5T63 24T30 84T36 182L81 375H80Q54 375 42 392T36 437L45 478Q55 530 108 530H117L127 573Q135 608 158 630T224
652H305Q350 652 371 627T381 556L375 530H387Z" />
<glyph unicode="&#x16a;" glyph-name="Umacron" horiz-adv-x="723" d="M682 246Q666 176 638 128T569 49T472 6T347 -8Q274 -8 210 5T103 54T44 150T50 307L122 621Q132 663 159 681T221 700H325Q363 700 384 675T395 608L318 271Q307 226 320 206T376 185Q411
185 429 201T457 258L540 621Q550 663 577 681T639 700H696Q734 700 755 675T766 608L682 246ZM402 741Q368 741 355 762T346 809L347 815Q352 844 371 859T427 875H600Q634 875 647 854T656 807L655 801Q650 772 631 757T575 741H402Z" />
<glyph unicode="&#x16b;" glyph-name="umacron" horiz-adv-x="638" d="M566 79Q558 44 535 22T469 0H419Q393 0 375 7T344 25T326 51T317 81Q282 43 237 17T130 -10Q98 -10 71 0T25 31T1 88T7 175L71 452Q79 487 103 508T169 530H249Q294 530 314 505T324 434L276
225Q270 199 277 186T316 172Q320 172 323 172T330 172L394 451Q402 486 426 508T492 530H573Q618 530 638 505T648 434L566 79ZM295 571Q261 571 248 592T239 639L240 645Q245 674 264 689T320 705H492Q526 705 539 684T548 637L547 631Q542 602 523 587T467 571H295Z"
/>
<glyph unicode="&#x16c;" glyph-name="Ubreve" horiz-adv-x="723" d="M682 246Q666 176 638 128T569 49T472 6T347 -8Q274 -8 210 5T103 54T44 150T50 307L122 621Q132 663 159 681T221 700H325Q363 700 384 675T395 608L318 271Q307 226 320 206T376 185Q411
185 429 201T457 258L540 621Q550 663 577 681T639 700H696Q734 700 755 675T766 608L682 246ZM668 850Q668 829 657 809T623 772T568 746T493 736Q424 736 384 764T336 828Q332 847 335 861T348 885T369 900T394 905H395Q412 905 423 898T445 882Q456 874 469
867T503 859Q523 859 536 866T561 882Q572 891 584 898T613 905H615Q640 905 654 890T668 850Z" />
<glyph unicode="&#x16d;" glyph-name="ubreve" horiz-adv-x="638" d="M566 79Q558 44 535 22T469 0H419Q393 0 375 7T344 25T326 51T317 81Q282 43 237 17T130 -10Q98 -10 71 0T25 31T1 88T7 175L71 452Q79 487 103 508T169 530H249Q294 530 314 505T324 434L276
225Q270 199 277 186T316 172Q320 172 323 172T330 172L394 451Q402 486 426 508T492 530H573Q618 530 638 505T648 434L566 79ZM551 682Q551 658 538 636T501 597T444 569T371 559Q336 559 309 567T263 589T233 621T219 660Q213 698 231 718T277 738H278Q295 738
306 731T328 715Q339 707 352 700T386 692Q406 692 419 699T444 715Q455 724 467 731T496 738H498Q523 738 537 722T551 682Z" />
<glyph unicode="&#x16e;" glyph-name="Uring" horiz-adv-x="723" d="M682 246Q666 176 638 128T569 49T472 6T347 -8Q274 -8 210 5T103 54T44 150T50 307L122 621Q132 663 159 681T221 700H325Q363 700 384 675T395 608L318 271Q307 226 320 206T376 185Q411 185
429 201T457 258L540 621Q550 663 577 681T639 700H696Q734 700 755 675T766 608L682 246ZM604 821Q604 795 594 775T568 740T530 718T485 710Q442 710 412 735T382 806Q382 832 392 853T418 888T456 911T501 919Q544 919 574 893T604 821ZM466 810Q466 785 491
785Q505 785 513 794T521 818Q521 844 495 844Q482 844 474 835T466 810Z" />
<glyph unicode="&#x16f;" glyph-name="uring" horiz-adv-x="638" d="M566 79Q558 44 535 22T469 0H419Q393 0 375 7T344 25T326 51T317 81Q282 43 237 17T130 -10Q98 -10 71 0T25 31T1 88T7 175L71 452Q79 487 103 508T169 530H249Q294 530 314 505T324 434L276
225Q270 199 277 186T316 172Q320 172 323 172T330 172L394 451Q402 486 426 508T492 530H573Q618 530 638 505T648 434L566 79ZM358 660Q358 635 383 635Q397 635 405 644T413 668Q413 694 387 694Q374 694 366 685T358 660ZM496 671Q496 645 486 625T460 590T422
568T377 560Q334 560 304 585T274 656Q274 682 284 703T310 738T348 761T393 769Q436 769 466 743T496 671Z" />
<glyph unicode="&#x170;" glyph-name="Uhungarumlaut" horiz-adv-x="723" d="M682 246Q666 176 638 128T569 49T472 6T347 -8Q274 -8 210 5T103 54T44 150T50 307L122 621Q132 663 159 681T221 700H325Q363 700 384 675T395 608L318 271Q307 226 320 206T376 185Q411
185 429 201T457 258L540 621Q550 663 577 681T639 700H696Q734 700 755 675T766 608L682 246ZM311 835Q322 866 342 882T402 899H446Q467 899 481 890T500 866T501 834T481 800L465 784Q434 753 412 743T362 732H356Q324 732 307 754T303 811L311 835ZM529 835Q540
866 560 882T620 899H664Q685 899 699 890T718 866T719 834T699 800L683 784Q652 753 630 743T580 732H574Q542 732 525 754T521 811L529 835Z" />
<glyph unicode="&#x171;" glyph-name="uhungarumlaut" horiz-adv-x="638" d="M566 79Q558 44 535 22T469 0H419Q393 0 375 7T344 25T326 51T317 81Q282 43 237 17T130 -10Q98 -10 71 0T25 31T1 88T7 175L71 452Q79 487 103 508T169 530H249Q294 530 314 505T324
434L276 225Q270 199 277 186T316 172Q320 172 323 172T330 172L394 451Q402 486 426 508T492 530H573Q618 530 638 505T648 434L566 79ZM221 659Q232 690 252 706T312 723H351Q373 723 387 715T406 694T408 663T389 627L378 613Q353 581 329 569T274 556H266Q234
556 217 578T213 635L221 659ZM429 659Q440 690 460 706T520 723H559Q581 723 595 715T614 694T616 663T597 627L586 613Q561 581 537 569T482 556H474Q442 556 425 578T421 635L429 659Z" />
<glyph unicode="&#x172;" glyph-name="Uogonek" horiz-adv-x="723" d="M122 621Q132 663 159 681T221 700H325Q363 700 384 675T395 608L318 271Q307 226 320 206T376 185Q411 185 429 201T457 258L540 621Q550 663 577 681T639 700H696Q734 700 755 675T766 608L682
246Q655 131 598 74T448 0Q434 -3 423 -6T404 -15Q387 -26 387 -39Q387 -52 403 -57Q422 -65 428 -76T429 -113L428 -119Q419 -171 315 -171Q240 -171 206 -143Q183 -123 183 -95Q183 -77 191 -63T213 -37T244 -19T278 -5Q217 0 167 18T84 72T41 165T50 307L122
621Z" />
<glyph unicode="&#x173;" glyph-name="uogonek" horiz-adv-x="638" d="M566 79Q563 64 559 53T549 33T535 16T516 -1Q504 -12 498 -19T492 -37Q492 -46 499 -50T514 -57Q533 -63 539 -75T540 -113L539 -119Q530 -171 426 -171Q355 -171 322 -147Q294 -127 294
-95Q294 -77 302 -62T325 -36T359 -15T401 1Q358 6 340 29T317 82Q282 44 237 17T130 -10Q98 -10 71 0T25 31T1 88T7 175L71 452Q79 487 103 508T169 530H249Q294 530 314 505T324 434L276 225Q270 199 277 186T316 172Q320 172 323 172T330 172L394 451Q402 486
426 508T492 530H573Q618 530 638 505T648 434L566 79Z" />
<glyph unicode="&#x178;" glyph-name="Ydieresis" horiz-adv-x="682" d="M449 79Q439 37 412 19T350 0H246Q208 0 187 25T176 92L211 244L111 593Q98 638 119 669T191 700H269Q316 700 341 678T376 618L410 482H413L516 632Q537 663 566 681T641 700H690Q716 700
732 689T754 660T757 622T739 582L485 234L449 79ZM473 839Q473 790 441 762T357 734Q312 734 285 755T258 814Q258 864 289 893T373 922Q418 922 445 901T473 839ZM707 839Q707 790 675 762T591 734Q546 734 519 755T492 814Q492 864 523 893T607 922Q652 922
679 901T707 839Z" />
<glyph unicode="&#x179;" glyph-name="Zacute" horiz-adv-x="614" d="M329 512V516H198Q172 516 156 524T131 545T120 573T120 603L124 624Q131 658 155 679T226 700H588Q635 700 654 673T671 611L670 599Q668 575 663 557T649 522T624 487T586 446L326 188V184H474Q500
184 516 176T541 155T552 127T552 97L548 76Q541 42 517 21T446 0H71Q23 0 4 27T-12 89L-11 101Q-9 124 -4 141T10 175T35 209T73 250L329 512ZM346 835Q357 864 379 881T444 899H518Q542 899 557 889T577 863T578 831T557 799L538 782Q508 755 478 744T416 732H401Q383
732 369 738T346 755T335 780T338 812L346 835Z" />
<glyph unicode="&#x17a;" glyph-name="zacute" horiz-adv-x="534" d="M310 167H421Q463 167 479 143T490 85L488 73Q482 39 460 20T393 0H45Q-1 0 -17 25T-31 82L-30 93Q-28 113 -23 128T-6 158T21 186T61 220L232 358H124Q85 358 70 381T61 437L65 456Q72 490
95 510T164 530H500Q522 530 537 523T561 505T572 478T573 447L571 433Q568 412 563 397T547 367T521 339T482 305L310 167ZM268 659Q279 688 300 705T360 723H443Q465 723 479 713T498 687T498 654T477 623L461 609Q429 580 400 568T334 556H323Q286 556 267 578T260
636L268 659Z" />
<glyph unicode="&#x17b;" glyph-name="Zdotaccent" horiz-adv-x="614" d="M329 512V516H198Q172 516 156 524T131 545T120 573T120 603L124 624Q131 658 155 679T226 700H588Q635 700 654 673T671 611L670 599Q668 575 663 557T649 522T624 487T586 446L326 188V184H474Q500
184 516 176T541 155T552 127T552 97L548 76Q541 42 517 21T446 0H71Q23 0 4 27T-12 89L-11 101Q-9 124 -4 141T10 175T35 209T73 250L329 512ZM565 843Q565 790 528 760T431 730Q379 730 347 752T315 817Q315 871 351 902T448 933Q501 933 533 910T565 843Z" />
<glyph unicode="&#x17c;" glyph-name="zdotaccent" horiz-adv-x="534" d="M310 167H421Q463 167 479 143T490 85L488 73Q482 39 460 20T393 0H45Q-1 0 -17 25T-31 82L-30 93Q-28 113 -23 128T-6 158T21 186T61 220L232 358H124Q85 358 70 381T61 437L65 456Q72
490 95 510T164 530H500Q522 530 537 523T561 505T572 478T573 447L571 433Q568 412 563 397T547 367T521 339T482 305L310 167ZM484 667Q484 614 447 584T350 554Q298 554 266 576T234 641Q234 695 270 726T367 757Q420 757 452 734T484 667Z" />
<glyph unicode="&#x17d;" glyph-name="Zcaron" horiz-adv-x="614" d="M329 512V516H198Q172 516 156 524T131 545T120 573T120 603L124 624Q131 658 155 679T226 700H588Q635 700 654 673T671 611L670 599Q668 575 663 557T649 522T624 487T586 446L326 188V184H474Q500
184 516 176T541 155T552 127T552 97L548 76Q541 42 517 21T446 0H71Q23 0 4 27T-12 89L-11 101Q-9 124 -4 141T10 175T35 209T73 250L329 512ZM431 856L452 872Q478 892 495 899T531 906H532Q554 906 569 893T589 861T585 819T549 776L538 768Q515 751 486 742T425
732H415Q389 732 364 741T317 773L308 782Q287 803 282 825T283 865T306 894T346 906H347Q365 906 381 898T418 869L431 856Z" />
<glyph unicode="&#x17e;" glyph-name="zcaron" horiz-adv-x="534" d="M310 167H421Q463 167 479 143T490 85L488 73Q482 39 460 20T393 0H45Q-1 0 -17 25T-31 82L-30 93Q-28 113 -23 128T-6 158T21 186T61 220L232 358H124Q85 358 70 381T61 437L65 456Q72 490
95 510T164 530H500Q522 530 537 523T561 505T572 478T573 447L571 433Q568 412 563 397T547 367T521 339T482 305L310 167ZM452 730Q473 730 488 718T508 686T505 643T469 600L461 594Q437 576 407 566T345 556H335Q307 556 282 566T233 601L228 606Q207 627 202
649T203 689T226 718T266 730H267Q285 730 301 722T338 693L351 680L372 696Q398 716 415 723T451 730H452Z" />
<glyph unicode="&#x192;" glyph-name="florin" horiz-adv-x="454" d="M344 287L295 79Q287 44 264 22T198 0H124Q79 0 58 25T48 96L93 287H89Q63 287 51 304T45 349L54 392Q64 444 117 444H130L153 543Q165 593 186 626T237 680T309 708T401 716Q418 716 434 715T463
712Q496 705 508 686T514 635L510 614Q505 591 490 579T443 558Q420 552 412 543T397 510L381 444H405Q437 444 449 427T455 382L446 339Q434 287 378 287H344Z" />
<glyph unicode="&#x218;" glyph-name="Scommaaccent" horiz-adv-x="598" d="M588 268Q588 203 565 151T497 63T390 8T247 -12Q185 -12 134 -5T48 20Q5 40 -6 67T-6 139L-3 152Q4 180 21 195T69 211Q84 211 101 205T141 192T190 179T251 173Q279 173 295 179T312
203Q312 217 292 225T225 246Q143 268 101 312T59 439Q59 511 83 563T150 648T253 698T385 714Q443 714 488 706T570 684Q644 654 626 577L621 555Q605 494 547 494Q528 494 512 500T476 512T431 525T371 531Q340 531 328 524T316 502Q316 487 334 480T393 461Q500
432 544 385T588 268ZM312 -102Q312 -165 266 -199T135 -241Q109 -243 100 -234T91 -211V-210Q91 -198 99 -190T133 -174Q147 -170 154 -167T161 -155Q161 -150 157 -146T143 -137Q128 -128 124 -119T119 -93Q119 -74 127 -60T150 -37T182 -24T219 -19Q261 -19
286 -41T312 -102Z" />
<glyph unicode="&#x219;" glyph-name="scommaaccent" horiz-adv-x="497" d="M477 203Q477 149 458 109T403 43T317 4T205 -9Q159 -9 111 -3T29 17Q-6 32 -17 53T-21 106L-16 129Q-11 149 3 162T41 176Q57 176 72 171T105 159T146 148T199 142Q216 142 228 144T240
158Q240 162 238 165T227 170T204 177T165 187Q133 195 108 206T64 235T36 276T26 335Q26 390 46 429T102 492T186 528T291 540Q338 540 378 536T447 521Q482 508 493 486T497 431L493 413Q488 389 472 378T435 366Q419 366 405 370T375 380T340 389T293 394Q255
394 255 378Q255 369 268 365T324 351Q360 343 388 333T436 305T466 264T477 203ZM261 -102Q261 -165 215 -199T84 -241Q58 -243 49 -234T40 -211V-210Q40 -198 48 -190T82 -174Q96 -170 103 -167T110 -155Q110 -150 106 -146T92 -137Q77 -128 73 -119T68 -93Q68
-74 76 -60T99 -37T131 -24T168 -19Q210 -19 235 -41T261 -102Z" />
<glyph unicode="&#x237;" glyph-name="uni0237" horiz-adv-x="318" d="M233 1Q222 -49 201 -82T151 -135T85 -163T4 -171Q-42 -171 -70 -165Q-102 -158 -115 -139T-125 -90L-124 -81Q-121 -56 -111 -42T-71 -23Q-44 -18 -35 -9T-20 24L79 452Q87 487 110 508T176
530H256Q301 530 322 505T332 434L233 1Z" />
<glyph unicode="&#x2c6;" glyph-name="circumflex" horiz-adv-x="390" d="M183 554Q162 554 147 567T126 599T129 641T165 684L172 689Q196 706 226 717T289 728H299Q325 728 351 718T401 683L406 678Q426 657 430 635T428 595T405 566T368 554H367Q349 554 333
562T296 591L283 604L262 588Q236 568 219 561T184 554H183Z" />
<glyph unicode="&#x2c7;" glyph-name="caron" horiz-adv-x="390" d="M391 730Q412 730 427 718T447 686T444 643T408 600L400 594Q376 576 346 566T284 556H274Q246 556 221 566T172 601L167 606Q146 627 141 649T142 689T165 718T205 730H206Q224 730 240 722T277
693L290 680L311 696Q337 716 354 723T390 730H391Z" />
<glyph unicode="&#x2d8;" glyph-name="breve" horiz-adv-x="390" d="M464 682Q464 658 451 636T414 597T357 569T284 559Q249 559 222 567T176 589T146 621T132 660Q126 698 144 718T190 738H191Q208 738 219 731T241 715Q252 707 265 700T299 692Q319 692 332
699T357 715Q368 724 380 731T409 738H411Q436 738 450 722T464 682Z" />
<glyph unicode="&#x2d9;" glyph-name="dotaccent" horiz-adv-x="390" d="M414 667Q414 614 377 584T280 554Q228 554 196 576T164 641Q164 695 200 726T297 757Q350 757 382 734T414 667Z" />
<glyph unicode="&#x2da;" glyph-name="ring" horiz-adv-x="390" d="M264 660Q264 635 289 635Q303 635 311 644T319 668Q319 694 293 694Q280 694 272 685T264 660ZM402 671Q402 645 392 625T366 590T328 568T283 560Q240 560 210 585T180 656Q180 682 190 703T216
738T254 761T299 769Q342 769 372 743T402 671Z" />
<glyph unicode="&#x2db;" glyph-name="ogonek" horiz-adv-x="390" d="M220 0Q208 -8 195 -19T182 -43Q182 -53 195 -57Q214 -63 220 -75T221 -113L220 -119Q211 -171 107 -171Q42 -171 9 -150Q-25 -131 -25 -95Q-25 -74 -15 -59T12 -32T49 -13T88 0H220Z" />
<glyph unicode="&#x2dc;" glyph-name="tilde" horiz-adv-x="390" d="M471 667Q463 618 428 591T344 564Q327 564 311 567T281 575T256 582T236 586Q222 586 212 581T193 570Q183 564 174 559T150 554H147Q124 554 109 572T101 633Q109 682 145 709T230 736Q264
736 292 726T338 715Q352 715 362 720T383 731Q393 736 402 741T422 746H425Q450 746 464 728T471 667Z" />
<glyph unicode="&#x2dd;" glyph-name="hungarumlaut" horiz-adv-x="390" d="M123 659Q134 690 154 706T214 723H253Q275 723 289 715T308 694T310 663T291 627L280 613Q255 581 231 569T176 556H168Q136 556 119 578T115 635L123 659ZM331 659Q342 690 362 706T422
723H461Q483 723 497 715T516 694T518 663T499 627L488 613Q463 581 439 569T384 556H376Q344 556 327 578T323 635L331 659Z" />
</font>
</defs>
</svg>
