<?xml version="1.0" standalone="no"?> <!DOCTYPE svg PUBLIC "-//W3C//DTD SVG 1.0//EN" "http://www.w3.org/TR/2001/REC-SVG-20010904/DTD/svg10.dtd" > <svg xmlns="http://www.w3.org/2000/svg" width="100%" height="100%">
<defs >
<font horiz-adv-x="535" ><font-face
    font-family=""
    units-per-em="1000"
    panose-1="2 0 6 3 6 0 0 2 0 4"
    ascent="838"
    descent="-162"
    alphabetic="0" />
<missing-glyph horiz-adv-x="500" />
<glyph unicode=" " glyph-name="space" horiz-adv-x="170" />
<glyph unicode="!" glyph-name="exclam" horiz-adv-x="151" d="M137 662L146 700H209L200 662L66 144H28L137 662ZM21 -4Q4 -4 -6 7T-17 35Q-17 52 -4 64T26 77Q43 77 54 66T65 38Q65 21 52 9T21 -4Z" />
<glyph unicode="&quot;" glyph-name="quotedbl" horiz-adv-x="231" d="M123 655L134 700H194L184 655L140 524H106L123 655ZM230 655L241 700H301L290 655L247 524H213L230 655Z" />
<glyph unicode="#" glyph-name="numbersign" horiz-adv-x="463" d="M116 252H31L42 301H129L163 425H78L89 474H177L238 700H282L221 474H350L411 700H455L394 474H480L468 425H381L347 301H432L421 252H333L265 0H220L289 252H160L92 0H47L116 252ZM302 301L336
425H208L174 301H302Z" />
<glyph unicode="$" glyph-name="dollar" horiz-adv-x="504" d="M164 -4Q98 -1 56 13T-12 40L16 161H57Q54 137 54 121T54 95T60 78T69 67Q80 58 103 49T174 37L244 344Q211 360 185 375T141 410T113 455T103 515Q103 552 117 586T159 645T229 686T327 704L341
764H384L370 703Q427 700 464 689T525 668L498 551H459Q464 594 462 610T448 637Q442 641 436 645T420 652T396 658T360 662L296 381Q335 363 364 347T414 311T444 267T455 205Q455 111 392 55T207 -5L185 -102H142L164 -4ZM398 202Q398 225 391 242T369 274T333
300T283 326L217 37Q308 42 353 84T398 202ZM158 520Q158 497 164 480T182 449T212 424T257 399L317 662Q275 660 245 648T196 617T167 573T158 520Z" />
<glyph unicode="%" glyph-name="percent" horiz-adv-x="727" d="M216 356Q159 356 124 391T89 489Q89 535 104 574T145 643T204 688T273 705Q330 705 366 670T402 571Q402 525 387 486T346 418T287 373T216 356ZM220 392Q247 392 270 406T311 444T338 501T348
572Q348 668 270 668Q243 668 220 654T179 615T152 557T142 487Q142 392 220 392ZM674 729H725L93 -34H42L674 729ZM493 -5Q436 -5 401 30T366 128Q366 174 381 213T422 282T481 327T550 344Q607 344 643 309T679 210Q679 164 664 125T623 57T564 12T493 -5ZM497
31Q524 31 547 45T588 83T615 140T625 211Q625 307 547 307Q520 307 497 293T456 254T429 196T419 126Q419 31 497 31Z" />
<glyph unicode="&amp;" glyph-name="ampersand" horiz-adv-x="670" d="M221 -5Q170 -5 132 9T69 47T30 102T17 169Q17 220 35 259T83 327T150 375T227 408Q216 428 209 454T201 511Q201 552 215 587T257 649T323 690T410 705Q455 705 483 697T525 680Q534 680
541 700H582L544 536H501L510 624Q495 642 469 652T410 663Q338 663 300 623T261 517Q261 482 272 452T305 389L453 163Q484 204 507 252T550 355H485L493 391H677L669 355H626Q602 355 591 330Q568 274 541 221T478 124L520 62Q530 48 538 42T557 36H595L587 0H492L438
82Q396 40 344 18T221 -5ZM232 37Q289 37 334 59T414 119L246 375Q214 363 185 347T132 306T95 250T81 176Q81 149 89 124T116 80T163 49T232 37Z" />
<glyph unicode="&apos;" glyph-name="quotesingle" horiz-adv-x="124" d="M123 655L134 700H194L184 655L140 524H106L123 655Z" />
<glyph unicode="(" glyph-name="parenleft" horiz-adv-x="288" d="M167 -49Q146 -34 124 -11T84 47T54 128T42 234Q42 342 72 427T149 576T248 681T348 741H378L370 709Q333 692 287 655T199 558T129 418T101 233Q101 177 110 136T135 64T168 14T202 -18L195 -49H167V-49Z"
/>
<glyph unicode=")" glyph-name="parenright" horiz-adv-x="288" d="M160 741Q181 726 203 703T243 645T273 564T285 458Q285 350 255 265T180 116T82 11T-17 -49H-51L-43 -17Q-6 1 40 38T128 134T197 274T226 459Q226 514 217 556T192 628T159 678T125 710L132
741H160V741Z" />
<glyph unicode="*" glyph-name="asterisk" horiz-adv-x="363" d="M193 425L237 530L135 480L99 478L88 512L120 532L234 544L138 609L118 640L142 666L174 648L243 555L250 671L264 700H303V659L258 552L361 605L398 607L408 573L376 553L260 538L358 476L378
445L355 419L322 437L252 527L246 413L232 385H193V425Z" />
<glyph unicode="+" glyph-name="plus" horiz-adv-x="479" d="M231 324H52L62 367H242L285 557H331L288 367H467L457 324H277L234 134H188L231 324Z" />
<glyph unicode="," glyph-name="comma" horiz-adv-x="151" d="M-51 -62Q-28 -57 -11 -44T7 -11Q7 -5 4 -2T-6 7Q-19 17 -19 34Q-19 54 -7 65T23 77Q40 77 52 66T64 32Q64 3 55 -18T29 -56T-10 -81T-58 -93L-51 -62Z" />
<glyph unicode="-" glyph-name="hyphen" horiz-adv-x="240" d="M43 320H225L214 276H32L43 320Z" />
<glyph unicode="." glyph-name="period" horiz-adv-x="151" d="M21 -4Q4 -4 -6 7T-17 35Q-17 52 -4 64T26 77Q43 77 54 66T65 38Q65 21 52 9T21 -4Z" />
<glyph unicode="/" glyph-name="slash" horiz-adv-x="317" d="M363 741H414L-9 -49H-60L363 741Z" />
<glyph unicode="0" glyph-name="zero" horiz-adv-x="636" d="M281 -5Q171 -5 110 64T48 256Q48 353 75 433T148 573Q197 636 261 670T397 705Q508 705 568 635T629 445Q629 339 601 255T525 113Q476 54 413 25T281 -5ZM282 37Q344 37 394 64T483 143Q524 199 545
278T567 451Q567 549 525 606T396 663Q335 663 285 632T195 546Q153 489 132 412T110 249Q110 149 153 93T282 37Z" />
<glyph unicode="1" glyph-name="one" horiz-adv-x="331" d="M-29 36H53Q66 36 78 46T94 69L226 644L116 593H95L103 631L257 700H300L155 69Q153 57 158 47T177 36H256L248 0H-37L-29 36Z" />
<glyph unicode="2" glyph-name="two" horiz-adv-x="508" d="M-26 37Q-15 84 9 122T66 194T140 255T229 311Q276 338 318 360T393 408T443 466T462 545Q462 598 429 631T324 664Q282 664 258 658T214 640Q194 629 184 608T160 547H118L147 667Q185 685 229 695T327
705Q424 705 474 662T525 547Q525 493 503 454T444 385T360 329T261 277Q221 256 184 232T115 180T62 120T29 48H361L397 163H441L404 0H-34L-26 37Z" />
<glyph unicode="3" glyph-name="three" horiz-adv-x="498" d="M180 -5Q115 -5 67 8T-16 38L9 145H48Q45 112 48 93T62 65Q76 52 105 44T182 36Q235 36 273 50T337 90T374 148T386 219Q386 277 348 309T244 342H189L198 383H253Q337 383 387 425T438 546Q438 603
405 633T304 664Q264 664 243 659T201 642Q187 634 177 615T155 564H114L138 670Q177 686 216 695T308 705Q401 705 449 664T498 553Q498 478 454 426T331 360V358Q386 347 416 309T447 217Q447 170 431 130T381 59T297 12T180 -5Z" />
<glyph unicode="4" glyph-name="four" horiz-adv-x="537" d="M224 36H281Q294 36 306 46T322 69L348 184H6L17 234L473 700H527L418 226H506L497 184H408L382 69Q379 57 385 47T404 36H462L454 0H216L224 36ZM358 226L448 620H446L64 228V226H358Z" />
<glyph unicode="5" glyph-name="five" horiz-adv-x="503" d="M164 -5Q103 -5 59 7T-21 38L3 143H44Q39 109 42 92T56 66Q72 54 96 46T166 37Q217 37 260 51T335 94T383 162T401 256Q401 324 367 358T266 393Q209 393 168 372T102 322H61L149 700H536L507 574H465L473
652H183L121 380H123Q146 400 184 417T277 435Q363 435 413 392T463 262Q463 201 441 152T379 68T285 14T164 -5Z" />
<glyph unicode="6" glyph-name="six" horiz-adv-x="561" d="M262 -5Q213 -5 174 10T106 56T62 131T46 236Q46 354 89 451T203 611Q251 655 312 679T449 704Q505 704 536 696T590 677L579 631H543Q533 642 512 652T444 663Q383 663 333 642T241 580Q193 533 159
474T114 331Q156 372 211 398T333 425Q418 425 469 384T521 259Q521 203 502 155T448 71T366 15T262 -5ZM264 37Q308 37 343 53T404 99T444 168T458 254Q458 317 421 350T318 383Q257 383 204 356T109 284Q106 258 106 227Q106 130 147 84T264 37Z" />
<glyph unicode="7" glyph-name="seven" horiz-adv-x="505" d="M83 29L524 650V652H169L132 534H89L127 700H583L570 646L135 0H77L83 29Z" />
<glyph unicode="8" glyph-name="eight" horiz-adv-x="558" d="M244 -5Q188 -5 147 8T78 45T37 100T23 168Q23 209 38 244T80 307T144 353T225 379V381Q180 398 158 432T135 509Q135 552 152 588T201 650T272 690T360 705Q406 705 441 693T500 660T536 611T548
551Q548 482 504 435T386 372V370Q445 351 474 311T504 216Q504 166 485 126T430 56T348 11T244 -5ZM246 37Q291 37 327 50T389 87T429 144T443 218Q443 247 434 272T406 315T356 343T284 353Q242 353 206 340T142 302T100 245T85 172Q85 114 124 76T246 37ZM322
395Q358 395 388 405T441 436T475 484T488 548Q488 598 457 630T358 663Q322 663 292 652T241 620T207 570T195 504Q195 457 225 426T322 395Z" />
<glyph unicode="9" glyph-name="nine" horiz-adv-x="561" d="M326 705Q375 705 414 690T482 644T526 569T542 464Q542 346 505 247T397 84Q349 40 282 18T139 -5Q83 -5 52 4T-1 24L10 72H46Q52 65 59 59T77 48T105 40T144 37Q205 37 261 55T359 115Q407 162 435
223T474 368Q432 327 377 301T255 275Q170 275 119 319T67 447Q67 501 86 548T140 630T222 685T326 705ZM324 663Q280 663 245 647T184 601T144 534T130 450Q130 317 265 317Q330 317 383 344T479 416Q482 441 482 473Q482 570 441 616T324 663Z" />
<glyph unicode=":" glyph-name="colon" horiz-adv-x="158" d="M96 304Q79 304 69 315T58 343Q58 360 71 372T101 385Q118 385 129 374T140 346Q140 329 127 317T96 304ZM24 -4Q7 -4 -3 7T-14 35Q-14 52 -1 64T29 77Q46 77 57 66T68 38Q68 21 55 9T24 -4Z" />
<glyph unicode=";" glyph-name="semicolon" horiz-adv-x="158" d="M-48 -62Q-25 -57 -8 -44T10 -11Q10 -5 7 -2T-3 7Q-16 17 -16 34Q-16 54 -4 65T26 77Q43 77 55 66T67 32Q67 3 58 -18T32 -56T-7 -81T-55 -93L-48 -62ZM96 304Q79 304 69 315T58 343Q58 360 71
372T101 385Q118 385 129 374T140 346Q140 329 127 317T96 304Z" />
<glyph unicode="&lt;" glyph-name="less" horiz-adv-x="460" d="M47 320L57 361L468 547H489L479 503L111 338V337L397 151L388 112H369L47 320Z" />
<glyph unicode="=" glyph-name="equal" horiz-adv-x="487" d="M33 253H452L441 209H22L33 253ZM71 420H490L480 376H61L71 420Z" />
<glyph unicode="&gt;" glyph-name="greater" horiz-adv-x="460" d="M13 156L381 320V322L95 507L104 547H123L445 339L435 298L24 112H3L13 156Z" />
<glyph unicode="?" glyph-name="question" horiz-adv-x="437" d="M127 144Q130 180 138 209T159 264T193 312T242 359Q269 381 298 401T351 445T390 496T406 565Q406 608 377 636T288 664Q262 664 241 661T203 649Q193 644 186 638T173 623T162 600T151 567H110L133
672Q163 685 202 695T295 705Q377 705 422 669T468 567Q468 523 453 491T412 434T354 385T287 337Q259 316 239 297T204 255T181 206T168 144H127ZM128 -4Q111 -4 101 7T90 35Q90 52 103 64T133 77Q150 77 161 66T172 38Q172 21 159 9T128 -4Z" />
<glyph unicode="@" glyph-name="at" horiz-adv-x="873" d="M626 107Q656 107 686 120T740 160T780 231T796 337Q796 406 772 458T705 546T602 600T470 619Q402 619 336 595T216 524T131 406T98 242Q98 154 124 92T197 -9T306 -65T441 -83Q519 -83 583 -65T691
-15H720V-47Q672 -81 599 -101T441 -122Q363 -122 291 -102T164 -39T77 74T44 242Q44 343 82 420T182 551T319 631T470 659Q547 659 615 638T735 577T816 476T846 337Q846 267 825 217T771 135T697 87T616 71Q557 71 535 94T515 155Q501 140 485 125T448 97T404
78T353 70Q303 70 273 100T242 189Q242 245 265 298T333 397Q364 429 403 447T489 465Q528 465 551 455T590 431Q598 441 609 452T630 463H649L574 190Q564 154 574 131T626 107ZM368 110Q391 110 411 117T450 136T485 163T518 195L574 402Q559 413 541 419T493
425Q456 425 429 412T377 372Q343 337 322 290T301 187Q301 145 320 128T368 110Z" />
<glyph unicode="A" glyph-name="A" horiz-adv-x="697" d="M488 229H195L122 101Q105 70 105 53T135 36H195L187 0H-40L-32 36H-6Q11 36 27 46T54 73L370 627Q379 643 377 653T358 663H298L307 700H496L565 76Q567 59 576 48T601 36H633L625 0H395L403 36H509L488
229ZM218 269H484L443 653H437L218 269Z" />
<glyph unicode="B" glyph-name="B" horiz-adv-x="584" d="M-29 36H17Q31 36 44 46T60 69L188 629Q191 641 186 652T167 663H116L125 700H374Q464 700 517 665T571 555Q571 474 526 428T401 367V365Q462 356 500 323T539 227Q539 122 466 61T260 0H-37L-29 36ZM259
38Q318 38 359 53T426 93T464 154T476 228Q476 347 312 347H185L114 38H259ZM313 386Q366 386 403 398T463 431T497 483T508 550Q509 609 471 634T369 660H257L194 386H313Z" />
<glyph unicode="C" glyph-name="C" horiz-adv-x="620" d="M302 -5Q183 -5 118 64T52 257Q52 349 81 430T164 573T290 669T453 705Q514 705 552 693T605 673Q610 673 616 679T625 700H666L620 503H575L589 617Q572 636 540 649T453 663Q378 663 316 633T209 548T139
420T114 257Q114 151 164 94T305 37Q348 37 380 44T438 64T484 92T522 127H556L545 79Q527 64 504 49T451 22T384 3T302 -5Z" />
<glyph unicode="D" glyph-name="D" horiz-adv-x="678" d="M-29 36H17Q31 36 44 46T60 69L188 629Q191 641 186 652T167 663H116L125 700H373Q517 700 593 634T670 437Q670 342 644 262T566 124T435 33T249 0H-37L-29 36ZM252 39Q344 39 411 68T521 151T586 278T607
441Q607 661 366 661H257L114 39H252Z" />
<glyph unicode="E" glyph-name="E" horiz-adv-x="582" d="M-29 36H17Q31 36 44 46T60 69L188 629Q191 641 186 652T167 663H116L125 700H623L584 532H542L562 661H257L192 381H377L407 470H447L397 252H356L370 342H183L113 39H446L488 180H532L491 0H-37L-29 36Z" />
<glyph unicode="F" glyph-name="F" horiz-adv-x="552" d="M-29 36H17Q31 36 44 46T60 69L188 629Q191 641 186 652T167 663H116L125 700H624L585 530H542L562 661H257L188 362H372L402 455H443L390 228H350L364 323H179L113 36H209L201 0H-37L-29 36Z" />
<glyph unicode="G" glyph-name="G" horiz-adv-x="671" d="M302 -5Q182 -5 117 61T52 255Q52 345 81 426T164 570T291 668T453 705Q516 705 553 694T608 674Q622 674 630 700H670L625 509H581L595 616Q573 636 542 649T454 663Q380 663 318 632T211 546T141 417T116
256Q116 144 164 91T310 37Q341 37 365 41T408 53T444 70T478 91L521 278H420L428 315H661L653 278H616Q603 278 591 267T575 243L519 0H481Q483 15 480 25T468 36Q450 25 409 10T302 -5Z" />
<glyph unicode="H" glyph-name="H" horiz-adv-x="717" d="M-29 36H17Q31 36 44 47T60 70L188 628Q191 640 186 651T167 663H116L125 700H369L360 663H258L193 382H580L645 663H542L551 700H796L787 663H740Q727 663 714 652T699 628L570 70Q567 58 572 47T590
36H642L634 0H389L397 36H500L571 342H184L113 36H216L208 0H-37L-29 36Z" />
<glyph unicode="I" glyph-name="I" horiz-adv-x="286" d="M-29 36H27Q40 36 53 46T69 69L198 629Q200 641 195 652T177 663H116L125 700H365L356 663H301Q288 663 275 652T259 629L131 69Q128 57 133 47T151 36H212L204 0H-37L-29 36Z" />
<glyph unicode="J" glyph-name="J" horiz-adv-x="448" d="M113 -5Q59 -5 23 7T-36 34L-25 81H13Q22 64 45 51T115 37Q179 37 212 67T260 159L369 629Q371 641 366 652T348 663H293L301 700H527L518 663H472Q459 663 446 652T430 629L320 154Q301 74 253 35T113 -5Z" />
<glyph unicode="K" glyph-name="K" horiz-adv-x="664" d="M-29 36H17Q31 36 44 46T60 69L188 629Q191 641 186 652T167 663H116L125 700H366L357 663H258L172 292L547 620Q568 639 566 651T544 663H512L520 700H721L712 663H686Q671 663 656 655T624 633L356 402L504
75Q512 57 524 47T553 36H589L581 0H451L458 32L310 364L159 234L113 36H212L205 0H-37L-29 36Z" />
<glyph unicode="L" glyph-name="L" horiz-adv-x="561" d="M-29 36H17Q31 36 44 46T60 69L188 629Q191 641 186 652T167 663H116L125 700H377L368 663H258L114 39H428L475 194H519L475 0H-37L-29 36Z" />
<glyph unicode="M" glyph-name="M" horiz-adv-x="853" d="M-29 36H17Q31 36 44 47T60 70L188 629Q191 641 186 652T167 663H116L125 700H307L388 97H390L743 700H932L923 663H876Q863 663 850 652T834 629L706 69Q703 57 708 47T726 36H778L770 0H537L545 36H636L780
659H768L382 0H341L256 659H245L101 36H193L185 0H-37L-29 36Z" />
<glyph unicode="N" glyph-name="N" horiz-adv-x="709" d="M-29 36H17Q31 36 44 47T60 70L188 629Q191 641 186 652T167 663H116L125 700H277L522 93H523L654 663H553L562 700H792L783 663H737Q724 663 711 653T696 631L551 0H498L243 631H238L101 36H204L196 0H-37L-29
36Z" />
<glyph unicode="O" glyph-name="O" horiz-adv-x="706" d="M321 -5Q259 -5 210 13T125 66T72 151T53 267Q53 363 84 443T166 582T285 672T425 705Q486 705 536 687T621 633T675 548T694 432Q694 335 663 255T580 117T461 27T321 -5ZM324 37Q386 37 441 66T539 148T606
274T631 435Q631 545 577 604T422 663Q360 663 305 634T207 552T141 426T116 264Q116 153 170 95T324 37Z" />
<glyph unicode="P" glyph-name="P" horiz-adv-x="564" d="M-29 36H17Q31 36 44 46T60 69L188 629Q191 641 184 652T164 663H116L125 700H376Q424 700 464 690T533 660T578 609T594 537Q594 415 516 354T302 292H172L113 36H205L197 0H-37L-29 36ZM305 331Q417
331 474 382T532 536Q532 600 489 629T372 659H257L181 331H305Z" />
<glyph unicode="Q" glyph-name="Q" horiz-adv-x="706" d="M587 -123Q574 -91 550 -71T490 -37T408 -18T304 -6Q188 4 121 71T53 267Q53 363 83 443T164 582T282 672T425 705Q486 705 536 687T621 633T675 548T694 432Q694 348 672 278T612 155T524 67T418 19V18Q510
10 565 -17T646 -88L638 -123H587ZM324 37Q386 37 441 66T539 148T606 274T631 435Q631 545 577 604T422 663Q360 663 305 634T207 552T141 426T116 264Q116 153 170 95T324 37Z" />
<glyph unicode="R" glyph-name="R" horiz-adv-x="641" d="M-29 36H17Q31 36 44 46T60 69L188 629Q191 641 186 652T167 663H116L125 700H376Q421 700 459 691T526 663T569 615T585 547Q585 497 568 461T524 400T462 361T391 340V338Q414 331 431 322T461 296T482
254T496 189L512 65Q515 36 535 36H571L563 0H454L436 188Q432 227 424 253T400 294T360 316T299 323H179L113 36H205L197 0H-37L-29 36ZM310 362Q413 362 467 408T522 543Q522 606 481 634T370 662H257L188 362H310Z" />
<glyph unicode="S" glyph-name="S" horiz-adv-x="516" d="M213 -5Q177 -5 148 -1T98 10T64 22T43 33Q37 33 32 24T23 0H-19L26 196H70L54 90Q64 81 77 72T109 55T153 42T214 37Q257 37 293 47T355 77T397 129T412 201Q412 231 400 251T366 287T317 315T258 343Q229
356 203 371T156 407T125 453T113 517Q113 557 127 591T170 650T241 690T338 705Q400 705 434 693T482 673Q493 673 503 700H544L503 524H460L472 614Q454 631 422 647T335 663Q249 663 208 624T167 521Q167 494 176 475T202 440T242 413T293 388Q330 371 362 355T417
319T454 272T468 206Q468 157 450 118T398 52T317 10T213 -5Z" />
<glyph unicode="T" glyph-name="T" horiz-adv-x="625" d="M144 36H198Q211 36 223 46T239 69L375 661H178L134 509H90L134 700H695L650 509H607L633 661H436L300 69Q297 57 302 47T322 36H378L370 0H136L144 36Z" />
<glyph unicode="U" glyph-name="U" horiz-adv-x="709" d="M323 -5Q264 -5 216 9T135 54T92 131T95 244L183 628Q186 640 181 651T163 663H116L125 700H362L353 663H253L155 238Q142 179 151 141T184 80T246 48T325 39Q369 39 405 47T470 77T520 134T553 224L654
663H555L564 700H788L779 663H736Q722 663 710 651T695 628L601 220Q586 157 562 114T503 45T423 7T323 -5Z" />
<glyph unicode="V" glyph-name="V" horiz-adv-x="691" d="M176 623Q174 639 165 651T141 663H112L121 700H342L333 663H232L305 76H308L619 604Q637 634 634 648T604 663H549L558 700H774L765 663H742Q725 663 709 653T683 625L314 0H255L176 623Z" />
<glyph unicode="W" glyph-name="W" horiz-adv-x="955" d="M173 623Q172 639 163 651T138 663H114L123 700H339L330 663H232L251 93H254L557 700H606L639 93H641L886 601Q902 633 898 648T867 663H817L826 700H1037L1028 663H1009Q992 663 976 653T950 622L649
0H586L553 589H552L258 0H193L173 623Z" />
<glyph unicode="X" glyph-name="X" horiz-adv-x="653" d="M-29 36H-3Q8 36 25 44T53 64L314 360L200 629Q186 663 158 663H116L125 700H345L336 663H252L366 394L552 616Q570 638 567 650T546 663H505L514 700H732L723 663H677Q667 663 649 653T619 629L385 355L506
70Q513 54 525 45T549 36H578L570 0H354L361 36H454L333 322L125 82Q109 63 111 50T131 36H184L177 0H-37L-29 36Z" />
<glyph unicode="Y" glyph-name="Y" horiz-adv-x="637" d="M152 36H205Q218 36 231 46T247 69L299 301L178 624Q172 641 161 652T132 663H114L123 700H332L323 663H227L346 341H347L558 603Q583 632 577 647T544 663H500L508 700H717L708 663H689Q673 663 659 653T630
626L359 292L308 69Q305 57 310 47T329 36H387L379 0H144L152 36Z" />
<glyph unicode="Z" glyph-name="Z" horiz-adv-x="544" d="M41 39H406L446 172H490L451 0H-37L-27 43L537 659V661H188L150 534H107L145 700H617L606 656L41 41V39Z" />
<glyph unicode="[" glyph-name="bracketleft" horiz-adv-x="238" d="M153 741H326L317 702H199L35 -11H153L144 -49H-29L153 741Z" />
<glyph unicode="\" glyph-name="backslash" horiz-adv-x="318" d="M125 741H172L236 -49H189L125 741Z" />
<glyph unicode="]" glyph-name="bracketright" horiz-adv-x="238" d="M125 -49H-48L-39 -10H79L243 703H125L134 741H307L125 -49Z" />
<glyph unicode="^" glyph-name="asciicircum" horiz-adv-x="412" d="M146 557L279 700H329L403 557L399 538H366L297 652H295L179 538H142L146 557Z" />
<glyph unicode="_" glyph-name="underscore" horiz-adv-x="330" d="M-87 -126H249L240 -162H-95L-87 -126Z" />
<glyph unicode="`" glyph-name="grave" horiz-adv-x="414" d="M185 675L191 700H243L305 573H269L185 675Z" />
<glyph unicode="a" glyph-name="a" horiz-adv-x="501" d="M385 -4Q347 -4 330 19T321 80Q289 42 249 19T153 -5Q88 -5 49 30T9 123Q9 168 25 201T70 255T140 288T230 299Q272 299 303 292T362 273L383 361Q390 393 386 416T367 455T330 478T279 486Q222 486 188
474T127 440H98L109 489Q142 505 182 516T288 527Q327 527 359 517T413 485T443 433T441 359L376 81Q371 61 380 48T409 35Q426 35 441 38L434 6Q429 4 415 0T385 -4ZM160 35Q217 35 257 62T329 126L354 237Q328 248 298 254T229 261Q154 261 109 229T64 127Q64
83 90 59T160 35Z" />
<glyph unicode="b" glyph-name="b" horiz-adv-x="544" d="M226 -4Q192 -4 167 1T123 14T91 33T68 53Q59 33 48 17T28 0H4L150 634Q153 646 147 654T130 663H82L91 700H208Q223 700 219 682L156 410Q174 430 197 451T247 489T305 516T373 527Q436 527 477 487T518
358Q518 314 510 273T489 195T456 127T415 73Q377 34 329 15T226 -4ZM222 35Q265 35 305 52T378 104Q414 145 436 209T459 352Q459 390 451 415T429 456T397 477T358 484Q327 484 298 474T242 446T191 408T146 365L81 84Q92 74 104 65T132 50T170 39T222 35Z" />
<glyph unicode="c" glyph-name="c" horiz-adv-x="484" d="M222 -4Q126 -4 78 50T29 192Q29 261 51 322T115 428T213 500T341 527Q395 527 429 518T487 495L465 401H428Q430 433 425 450T398 478Q377 488 337 488Q278 488 232 464T154 398T105 304T88 192Q88 121
120 78T224 34Q256 34 280 40T322 55T353 75T376 97H410L399 53Q387 44 371 34T334 16T285 2T222 -4Z" />
<glyph unicode="d" glyph-name="d" horiz-adv-x="571" d="M183 -4Q112 -4 70 37T27 166Q27 208 35 248T59 324T93 390T135 444Q173 484 224 505T327 527Q385 527 419 511T474 477L518 663H429L438 700H569Q585 700 580 682L441 81Q436 63 447 50T475 36H505L498
6Q493 3 482 0T452 -4Q416 -4 395 16T383 79L390 111Q352 63 301 30T183 -4ZM189 35Q221 35 250 46T305 75T356 115T401 161L467 442Q455 450 443 458T414 472T377 482T328 486Q286 486 248 470T175 417Q137 377 112 313T86 166Q86 131 94 106T116 65T148 42T189
35Z" />
<glyph unicode="e" glyph-name="e" horiz-adv-x="488" d="M220 -4Q172 -4 137 11T77 52T42 116T30 197Q30 266 53 326T118 431T213 501T331 527Q361 527 387 521T433 500T464 463T476 410Q476 320 380 279T90 234Q89 226 89 216T88 196Q88 160 96 131T120 80T162
46T223 34Q254 34 278 39T320 54T351 74T375 97H409L398 53Q386 44 370 34T333 16T283 2T220 -4ZM95 272Q258 275 338 306T419 408Q419 454 393 471T329 489Q280 489 241 471T173 422T124 353T95 272Z" />
<glyph unicode="f" glyph-name="f" horiz-adv-x="289" d="M-49 -128Q-38 -123 -26 -115T-2 -92T19 -59T35 -14L142 484H67L76 522H150L162 575Q178 646 216 675T313 705Q342 705 361 701T391 692L383 653H353Q348 658 339 661T313 665Q276 665 254 646T219 573L208
522H322L313 484H200L91 -15Q77 -79 46 -113T-21 -162H-57L-49 -128Z" />
<glyph unicode="g" glyph-name="g" horiz-adv-x="470" d="M153 -169Q102 -169 65 -160T3 -135T-34 -98T-46 -52Q-46 -25 -36 -5T-8 32T33 61T82 85Q68 91 57 106T45 144Q45 179 68 202T118 239Q74 275 74 340Q74 380 89 414T132 473T195 512T274 527Q297 527 322
522H504L496 484H429Q421 484 415 480T408 466Q433 433 433 390Q433 348 418 314T377 255T314 217T235 203Q206 203 184 208T145 222Q125 211 111 196T96 157Q96 140 109 130T143 120H268Q334 120 369 91T404 5Q404 -32 390 -64T345 -119T267 -155T153 -169ZM154
-129Q206 -129 243 -119T303 -93T338 -54T349 -8Q349 35 324 52T250 69H117Q71 52 41 23T10 -46Q10 -63 17 -78T42 -104T86 -122T154 -129ZM234 241Q299 241 338 281T378 392Q378 434 352 461T272 489Q241 489 215 478T170 446T141 398T130 337Q130 296 155 269T234
241Z" />
<glyph unicode="h" glyph-name="h" horiz-adv-x="581" d="M454 -4Q419 -4 402 19T394 82L464 386Q475 434 459 457T407 480Q377 480 346 471T285 446T227 411T175 370L90 0H53Q44 0 40 7T39 29L178 634Q180 645 175 654T159 663H110L119 700H236Q251 700 247 682L184
411Q207 432 235 453T294 490T359 517T428 527Q485 527 511 493T523 392L452 83Q447 63 457 50T485 36H515L508 6Q503 4 490 0T454 -4Z" />
<glyph unicode="i" glyph-name="i" horiz-adv-x="241" d="M114 -4Q76 -4 59 19T52 84L134 439Q139 458 130 471T102 484H62L69 515Q74 517 91 521T132 526Q170 526 186 505T191 438L109 81Q104 63 115 50T144 36H175L168 6Q162 3 150 0T114 -4ZM202 596Q185 596
175 607T165 633Q165 650 177 662T205 674Q222 674 232 663T243 637Q243 620 230 608T202 596Z" />
<glyph unicode="j" glyph-name="j" horiz-adv-x="242" d="M-53 -165Q-80 -165 -97 -161T-128 -151L-119 -112H-90Q-85 -119 -77 -123T-53 -127Q-18 -127 -3 -109T21 -54L134 439Q139 459 130 471T102 484H62L70 515Q75 517 91 521T132 526Q210 526 191 438L78
-57Q54 -165 -53 -165ZM203 596Q186 596 176 607T165 633Q165 650 177 662T205 674Q222 674 232 663T243 637Q243 620 232 608T203 596Z" />
<glyph unicode="k" glyph-name="k" horiz-adv-x="505" d="M405 -4Q375 -4 360 12T332 58L253 259Q226 242 197 226T135 196L90 0H53Q32 0 38 29L178 634Q180 645 175 654T158 663H110L119 700H236Q251 700 247 682L147 246Q205 274 254 307T344 377T412 450T457
522H514L507 491Q470 438 419 388T298 290L384 79Q391 61 404 49T435 36H462L455 8Q450 5 438 1T405 -4Z" />
<glyph unicode="l" glyph-name="l" horiz-adv-x="248" d="M121 -4Q82 -4 65 19T57 84L184 634Q186 645 179 654T161 663H110L119 700H242Q256 700 253 682L114 81Q109 63 119 50T147 36H183L176 6Q170 4 156 0T121 -4Z" />
<glyph unicode="m" glyph-name="m" horiz-adv-x="890" d="M763 -4Q727 -4 711 21T704 89L771 379Q784 434 768 457T717 480Q687 480 658 471T602 446T550 412T502 374L416 0H379Q370 0 366 7T365 29L445 378Q458 432 442 456T386 480Q358 480 330 471T276 446T224
412T176 375L90 0H53Q44 0 40 7T39 29L133 439Q138 458 129 471T100 484H62L69 515Q74 517 91 521T131 526Q164 526 182 505T191 441L185 415Q206 434 231 454T285 490T347 516T413 527Q463 527 488 497T508 412Q530 433 556 453T611 490T672 517T738 527Q795 527
820 491T832 392L760 81Q755 63 766 50T794 36H825L818 6Q812 4 799 0T763 -4Z" />
<glyph unicode="n" glyph-name="n" horiz-adv-x="581" d="M454 -4Q419 -4 402 19T394 82L464 386Q475 434 459 457T408 480Q377 480 346 471T285 446T227 411T175 370L90 0H53Q44 0 40 7T39 29L133 439Q138 458 129 471T100 484H62L69 515Q74 517 92 521T130 526Q164
526 182 505T190 436L184 411Q207 432 235 453T294 490T359 517T428 527Q485 527 511 493T523 392L452 83Q447 63 457 50T485 36H515L508 6Q503 4 490 0T454 -4Z" />
<glyph unicode="o" glyph-name="o" horiz-adv-x="549" d="M235 -4Q138 -4 84 51T30 204Q30 271 52 329T112 432T203 501T318 527Q365 527 402 513T466 471T507 407T521 323Q521 256 500 197T440 93T350 22T235 -4ZM237 34Q288 34 330 58T401 122T447 216T463 326Q463
403 425 445T315 487Q264 487 223 464T151 402T105 310T88 198Q88 119 126 77T237 34Z" />
<glyph unicode="p" glyph-name="p" horiz-adv-x="574" d="M-66 -128H-24Q-13 -128 -3 -120T10 -100L133 439Q138 458 129 471T100 484H62L69 515Q74 517 92 521T129 526Q163 526 182 505T190 436L184 408Q203 431 226 452T277 490T336 517T403 527Q434 527 461
518T507 488T537 436T548 358Q548 317 541 277T520 200T487 132T446 77Q407 36 359 19T259 1Q194 1 159 17T102 53L61 -128H147L140 -162H-74L-66 -128ZM249 40Q294 40 333 55T406 104Q443 143 466 208T489 352Q489 390 481 415T460 456T427 477T386 484Q355 484
326 473T269 444T218 405T173 362L110 88Q133 68 164 54T249 40Z" />
<glyph unicode="q" glyph-name="q" horiz-adv-x="555" d="M243 -128H335L391 116Q353 65 301 33T179 1Q111 1 69 40T27 169Q27 210 35 249T58 325T92 391T134 444Q173 485 225 506T331 527Q390 527 424 510T480 472Q489 489 500 505T525 522H543L400 -99Q397 -110
403 -119T420 -128H467L460 -162H235L243 -128ZM189 40Q221 40 250 51T306 79T357 119T402 164L466 441Q455 449 444 457T417 471T381 482T333 486Q284 486 246 468T174 415Q136 376 111 312T86 169Q86 131 94 107T116 67T149 46T189 40Z" />
<glyph unicode="r" glyph-name="r" horiz-adv-x="362" d="M53 0Q44 0 40 7T39 29L133 439Q138 458 129 471T100 484H62L69 515Q74 517 92 521T129 526Q164 526 182 504T189 432L183 408Q201 430 221 451T265 488T314 515T369 525Q379 525 385 524T394 522L383
474H376Q373 474 370 474T363 475Q334 475 309 466T260 441T215 404T173 360L90 0H53V0Z" />
<glyph unicode="s" glyph-name="s" horiz-adv-x="416" d="M156 -4Q124 -4 99 -1T54 7T18 20T-15 36L6 125H44Q42 101 44 85T56 58Q71 44 95 39T155 34Q192 34 219 43T265 67T292 103T301 148Q301 169 293 183T271 208T236 228T192 247Q164 258 142 269T104 296T80
331T72 378Q72 447 122 487T262 527Q320 527 353 517T412 492L393 406H357Q358 428 356 444T343 468Q330 479 312 483T258 487Q190 487 157 460T124 386Q124 366 131 353T153 328T186 308T229 290Q259 278 282 266T321 238T346 202T355 153Q355 119 342 90T304
40T241 8T156 -4Z" />
<glyph unicode="t" glyph-name="t" horiz-adv-x="306" d="M158 -5Q92 -5 68 31T57 131L139 484H67L76 522H147L181 666H238L205 522H332L323 484H196L115 131Q104 85 114 60T163 35Q177 35 190 37T213 45H242L234 9Q218 3 200 -1T158 -5Z" />
<glyph unicode="u" glyph-name="u" horiz-adv-x="575" d="M164 -6Q104 -6 75 31T61 138L130 439Q135 458 126 471T98 484H62L70 515Q76 517 92 521T130 526Q166 526 181 502T187 434L120 143Q108 90 126 65T186 39Q215 39 243 48T298 71T350 105T399 145L486 522H524Q544
522 538 493L444 82Q439 63 449 50T476 36H510L503 6Q496 3 483 0T447 -4Q412 -4 395 18T386 81L391 104Q369 82 343 62T289 27T229 3T164 -6Z" />
<glyph unicode="v" glyph-name="v" horiz-adv-x="521" d="M126 443Q123 466 113 475T85 484H56L63 515Q69 517 84 521T122 526Q155 526 166 508T182 458L230 60H232Q271 109 308 163T377 276T435 397T478 522H533L524 485Q480 369 410 244T236 0H185L126 443Z" />
<glyph unicode="w" glyph-name="w" horiz-adv-x="755" d="M127 443Q125 466 114 475T85 484H56L63 515Q69 517 84 521T120 526Q155 526 168 509T183 457L197 79H199L428 522H476L493 68H495Q530 114 563 169T624 282T675 402T712 522H767L759 485Q739 429 713
369T654 246T581 122T492 0H444L429 429H427L202 0H147L127 443Z" />
<glyph unicode="x" glyph-name="x" horiz-adv-x="498" d="M391 -4Q374 -4 362 0T341 14T325 36T309 68L240 227Q177 134 124 76T34 0H-19L-11 36Q31 47 88 102T221 263L142 444Q132 467 120 475T92 484H59L66 515Q70 517 85 521T120 526Q137 526 148 523T167 511T182
490T197 457L261 306Q324 394 376 449T463 522H515L505 484Q469 476 412 423T279 270L363 80Q374 56 387 46T415 36H445L438 6Q433 4 422 0T391 -4Z" />
<glyph unicode="y" glyph-name="y" horiz-adv-x="565" d="M183 -169Q121 -169 82 -159T15 -136L26 -90H61Q93 -131 187 -131Q267 -131 308 -101T363 -10L394 121Q348 78 293 46T173 14Q111 14 80 49T65 154L130 439Q135 458 126 471T98 484H62L69 515Q74 517 91
521T131 526Q163 526 180 503T187 434L124 158Q112 105 131 82T191 59Q220 59 248 67T302 90T354 123T403 163L486 522H524Q533 522 536 514T537 492L420 -13Q401 -94 344 -131T183 -169Z" />
<glyph unicode="z" glyph-name="z" horiz-adv-x="468" d="M-28 41L427 482H146L114 377H74L107 522H502L493 480L39 40H330L361 146H403L369 0H-37L-28 41Z" />
<glyph unicode="{" glyph-name="braceleft" horiz-adv-x="310" d="M162 -49Q103 -49 80 -18T70 70L117 272Q125 303 116 318T72 334H40L49 374H75Q109 374 127 387T153 429L200 632Q214 692 246 716T335 741H398L389 702H334Q299 702 281 686T255 632L208 426Q200
392 178 376T126 353V352Q153 344 166 325T171 264L124 64Q115 26 125 8T169 -11H225L216 -49H162V-49Z" />
<glyph unicode="|" glyph-name="bar" horiz-adv-x="150" d="M71 741H119V-49H71V741Z" />
<glyph unicode="}" glyph-name="braceright" horiz-adv-x="310" d="M188 741Q247 741 270 710T280 622L237 436Q229 405 238 390T282 374H314L305 334H279Q245 334 227 321T201 279L150 60Q136 0 104 -24T15 -49H-48L-39 -10H16Q51 -10 69 6T95 60L146 282Q154
316 176 332T228 355V356Q201 364 188 383T183 444L226 628Q235 666 225 684T181 703H125L134 741H188Z" />
<glyph unicode="~" glyph-name="asciitilde" horiz-adv-x="346" d="M28 270Q39 293 59 310T111 328Q128 328 147 322T184 310T219 297T250 291Q286 291 299 334H337L329 302Q318 279 299 262T248 244Q231 244 212 250T175 262T139 275T109 281Q72 281 60 238H22L28 270Z" />
<glyph unicode="&#xa0;" glyph-name="nbspace" horiz-adv-x="170" />
<glyph unicode="&#xa1;" glyph-name="exclamdown" horiz-adv-x="151" d="M37 -38L28 -76H-35L-26 -38L108 480H146L37 -38ZM153 628Q170 628 180 617T191 589Q191 572 178 560T148 547Q131 547 120 558T109 586Q109 603 122 615T153 628Z" />
<glyph unicode="&#xa2;" glyph-name="cent" horiz-adv-x="489" d="M353 527Q403 525 436 516T492 495L470 401H433Q435 433 431 450T406 478Q395 483 379 485T344 488L240 34Q268 35 290 41T329 57T358 76T381 97H415L404 53Q392 44 376 35T339 17T291 3T231 -4L209
-102H166L189 -1Q110 9 70 61T29 192Q29 257 49 315T106 417T195 490T310 525L324 585H367L353 527ZM88 192Q88 128 114 86T197 36L301 485Q251 477 212 451T145 384T103 295T88 192Z" />
<glyph unicode="&#xa3;" glyph-name="sterling" horiz-adv-x="513" d="M386 0Q292 0 222 12T97 50Q79 36 58 23T10 0H-27L-19 35Q12 44 37 60T82 104T111 171T122 270Q122 281 122 292T121 324H47L56 364H120Q118 395 118 415T117 458Q117 520 135 566T185 643T262
689T363 705Q425 705 466 693T545 662L517 541H477Q483 579 482 599T468 632Q451 648 425 654T360 661Q266 661 224 609T179 461Q178 438 178 415T178 364H375L366 324H178Q177 294 176 263T170 200T156 140T128 85Q180 65 241 57T380 48L415 165H458L421 0H386V0Z"
/>
<glyph unicode="&#xa5;" glyph-name="yen" horiz-adv-x="578" d="M122 36H175Q188 36 201 46T217 69L248 207H63L73 247H258L274 318H89L98 358H265L172 624Q160 663 126 663H111L120 700H324L315 663H223L322 370H324L503 604Q525 633 518 648T486 663H448L457
700H662L653 663H633Q616 663 602 653T575 626L363 358H530L521 318H336L319 247H505L496 207H310L279 69Q276 57 281 47T300 36H357L349 0H114L122 36Z" />
<glyph unicode="&#xa6;" glyph-name="brokenbar" horiz-adv-x="150" d="M71 311H119V-49H71V311ZM71 741H119V383H71V741Z" />
<glyph unicode="&#xa7;" glyph-name="section" horiz-adv-x="516" d="M168 -131Q97 -131 55 -118T-7 -95L16 3H56Q51 -34 53 -49T67 -73Q81 -82 102 -87T168 -93Q207 -93 235 -84T281 -58T307 -21T316 23Q316 45 308 61T282 90T240 116T182 144Q114 174 77 207T40
293Q40 350 85 389T212 442Q187 461 173 485T159 547Q159 580 173 609T212 659T274 693T355 705Q388 705 413 702T456 694T489 683T516 671L496 581H456Q460 612 457 626T443 648Q429 658 410 662T352 667Q283 667 247 634T211 550Q211 512 238 487T330 437Q364
424 393 409T443 376T475 334T487 282Q487 221 442 184T319 130Q343 113 357 90T372 29Q372 -1 360 -30T324 -81T261 -117T168 -131ZM276 157Q307 160 335 168T385 191T420 227T433 276Q433 316 398 342T304 394L251 416Q174 406 134 379T93 300Q93 265 120 239T210
186L276 157Z" />
<glyph unicode="&#xa8;" glyph-name="dieresis" horiz-adv-x="414" d="M218 597Q202 597 192 607T182 633Q182 650 193 661T221 673Q237 673 247 662T257 637Q257 620 246 609T218 597ZM364 597Q348 597 338 607T328 633Q328 650 340 661T367 673Q383 673 393
662T403 637Q403 620 392 609T364 597Z" />
<glyph unicode="&#xa9;" glyph-name="copyright" horiz-adv-x="767" d="M411 157Q370 157 336 169T276 206T238 267T224 352Q224 401 239 437T279 497T337 533T407 545Q448 545 469 536T502 522Q506 522 509 528T514 541H547V414H513L505 470Q487 487 466 498T408
509Q383 509 360 500T319 473T291 425T280 353Q280 272 315 233T411 193Q456 193 483 208T525 245H554V210Q531 188 497 173T411 157ZM404 -5Q333 -5 270 18T158 86T82 197T53 350Q53 436 81 502T158 614T269 682T404 705Q475 705 539 682T651 614T727 503T756
350Q756 264 728 198T651 86T539 18T404 -5ZM404 29Q469 29 526 50T625 112T691 212T716 350Q716 428 692 488T625 588T526 650T404 671Q339 671 283 650T184 589T118 488T93 350Q93 272 117 213T184 112T282 50T404 29Z" />
<glyph unicode="&#xaa;" glyph-name="ordfeminine" horiz-adv-x="432" d="M186 254Q131 254 96 283T60 367Q60 437 111 475T247 513Q285 513 313 508T364 491L380 560Q393 616 368 640T293 665Q244 665 215 655T165 626H136L146 672Q175 686 209 695T300 705Q335
705 363 696T410 669T435 624T433 558L380 328Q376 313 384 303T408 292Q412 292 416 292T424 293Q428 293 432 294L425 262Q420 260 409 257T382 254Q355 254 339 271T327 320Q301 291 268 273T186 254ZM195 292Q240 292 272 312T335 368L356 457Q333 467 309
472T250 478Q186 478 150 451T113 368Q113 328 135 310T195 292Z" />
<glyph unicode="&#xab;" glyph-name="guillemotleft" horiz-adv-x="430" d="M31 245L40 282L238 472H273L266 448L89 258V256L180 72L175 47H146L31 245ZM201 245L210 282L408 472H443L436 448L258 258V256L350 72L345 47H316L201 245Z" />
<glyph unicode="&#xad;" glyph-name="uni00AD" horiz-adv-x="240" d="M43 320H225L214 276H32L43 320Z" />
<glyph unicode="&#xae;" glyph-name="registered" horiz-adv-x="414" d="M274 540Q306 540 306 569Q306 583 300 590T274 598H248V540H274ZM271 350Q235 350 202 362T145 397T105 453T90 529Q90 572 105 605T144 661T202 696T271 708Q307 708 339 696T397 661T437
605T452 529Q452 487 437 454T397 397T340 362T271 350ZM271 377Q302 377 329 387T376 416T409 464T421 529Q421 565 409 593T377 641T329 671T271 681Q240 681 213 671T166 642T133 594T121 529Q121 493 133 465T165 417T213 387T271 377ZM190 464H202Q204 464
207 467T211 473V591Q211 593 208 596T202 600H190V621H276Q345 621 345 571Q345 539 308 530V529Q321 527 327 519T340 493L347 472Q348 469 351 467T357 464H366V443H315L303 493Q300 506 294 512T274 519H249V464H272V443H190V464Z" />
<glyph unicode="&#xaf;" glyph-name="macron" horiz-adv-x="414" d="M181 649H415L405 609H171L181 649Z" />
<glyph unicode="&#xb0;" glyph-name="degree" horiz-adv-x="326" d="M232 452Q206 452 184 460T145 485T119 523T109 573Q109 603 120 627T149 669T191 695T241 705Q267 705 289 697T329 672T356 633T366 582Q366 553 355 529T326 488T283 462T232 452ZM233 487Q270
487 296 513T322 582Q322 622 299 646T240 670Q204 670 179 644T153 574Q153 535 175 511T233 487Z" />
<glyph unicode="&#xb2;" glyph-name="twosuperior" horiz-adv-x="297" d="M44 353Q55 401 90 435T174 498Q197 511 218 522T256 547T281 575T291 613Q291 638 276 653T228 669Q207 669 195 666T173 657Q155 646 143 609H113L130 683Q151 691 175 697T232 703Q287
703 315 681T344 618Q344 589 333 569T303 532T260 503T209 475Q168 453 136 427T93 365H249L267 421H300L278 327H38L44 353Z" />
<glyph unicode="&#xb3;" glyph-name="threesuperior" horiz-adv-x="296" d="M156 324Q120 324 91 331T45 347L60 411H90Q89 396 90 385T99 369Q105 364 118 361T157 357Q205 357 229 381T254 442Q254 472 235 487T183 503H154L161 535H191Q233 535 257 555T281
611Q281 670 217 670Q200 670 189 668T169 661Q161 656 155 646T142 618H111L127 685Q147 693 170 698T223 703Q275 703 303 681T332 619Q332 579 308 554T242 520V518Q271 511 288 491T306 440Q306 416 297 395T268 359T221 334T156 324Z" />
<glyph unicode="&#xb4;" glyph-name="acute" horiz-adv-x="414" d="M337 700H399L393 675L291 573H252L337 700Z" />
<glyph unicode="&#xb6;" glyph-name="paragraph" horiz-adv-x="551" d="M295 337H285Q241 337 205 346T143 375T103 422T88 490Q88 601 156 650T359 700H630L621 663H575Q561 663 549 652T533 629L366 -91H321L494 661H416L242 -91H197L295 337Z" />
<glyph unicode="&#xb7;" glyph-name="periodcentered" horiz-adv-x="151" d="M85 272Q68 272 58 283T47 311Q47 328 60 340T90 353Q107 353 118 342T129 314Q129 297 116 285T85 272Z" />
<glyph unicode="&#xb8;" glyph-name="cedilla" horiz-adv-x="414" d="M108 -174Q79 -174 63 -169T33 -156L41 -124H66Q71 -131 81 -136T108 -142Q158 -142 158 -103Q158 -88 146 -80T107 -71H95L111 0H146L137 -41Q168 -43 186 -59T205 -102Q205 -137 179 -155T108 -174Z" />
<glyph unicode="&#xb9;" glyph-name="onesuperior" horiz-adv-x="238" d="M42 358H98Q106 358 113 364T122 377L187 655L115 623H97L104 656L212 700H248L174 377Q172 370 175 364T187 358H242L235 327H35L42 358Z" />
<glyph unicode="&#xba;" glyph-name="ordmasculine" horiz-adv-x="469" d="M251 254Q168 254 122 301T76 430Q76 487 94 537T146 624T223 683T320 705Q401 705 448 658T495 531Q495 474 477 424T426 336T349 276T251 254ZM252 291Q296 291 330 311T389 364T426
442T439 534Q439 598 408 632T319 666Q276 666 242 647T183 596T145 519T132 425Q132 359 163 325T252 291Z" />
<glyph unicode="&#xbb;" glyph-name="guillemotright" horiz-adv-x="430" d="M399 274L390 237L192 47H157L162 71L341 261V263L249 447L254 472H284L399 274ZM229 274L220 237L22 47H-13L-8 71L172 261V263L79 447L84 472H114L229 274Z" />
<glyph unicode="&#xbc;" glyph-name="onequarter" horiz-adv-x="651" d="M419 31H452Q460 31 466 37T475 50L486 99H302L311 137L552 373H600L545 131H601L593 99H537L526 50Q524 43 527 37T537 31H576L569 0H411L419 31ZM494 131L538 317H536L349 133V131H494ZM45
358H101Q109 358 116 364T125 377L190 655L118 623H100L107 656L215 700H251L177 377Q175 370 178 364T190 358H245L238 327H38L45 358ZM652 729H703L71 -34H20L652 729Z" />
<glyph unicode="&#xbd;" glyph-name="onehalf" horiz-adv-x="685" d="M354 26Q365 74 400 108T484 171Q507 184 528 195T566 220T591 248T601 286Q601 311 586 326T538 342Q517 342 505 339T483 330Q465 319 453 282H423L440 356Q461 364 485 370T542 376Q597
376 625 354T654 291Q654 262 643 242T613 205T570 176T519 148Q478 126 446 100T403 38H559L577 94H610L588 0H348L354 26ZM45 358H101Q109 358 116 364T125 377L190 655L118 623H100L107 656L215 700H251L177 377Q175 370 178 364T190 358H245L238 327H38L45
358ZM637 729H688L56 -34H5L637 729Z" />
<glyph unicode="&#xbe;" glyph-name="threequarters" horiz-adv-x="650" d="M159 324Q123 324 94 331T48 347L63 411H93Q92 396 93 385T102 369Q108 364 121 361T160 357Q208 357 232 381T257 442Q257 472 238 487T186 503H157L164 535H194Q236 535 260 555T284
611Q284 670 220 670Q203 670 192 668T172 661Q164 656 158 646T145 618H114L130 685Q150 693 173 698T226 703Q278 703 306 681T335 619Q335 579 311 554T245 520V518Q274 511 291 491T309 440Q309 416 300 395T271 359T224 334T159 324ZM418 31H451Q459 31 465
37T474 50L485 99H301L310 137L551 373H599L544 131H600L592 99H536L525 50Q523 43 526 37T536 31H575L568 0H410L418 31ZM493 131L537 317H535L348 133V131H493ZM659 729H710L78 -34H27L659 729Z" />
<glyph unicode="&#xbf;" glyph-name="questiondown" horiz-adv-x="437" d="M335 480Q332 444 324 415T303 360T269 312T220 265Q193 242 164 222T111 179T72 128T56 59Q56 16 85 -12T174 -40Q200 -40 221 -37T259 -25Q278 -15 289 2T311 57H352L329 -48Q299 -61
260 -71T167 -81Q85 -81 40 -45T-6 57Q-6 101 9 133T50 190T108 238T175 287Q203 308 223 327T258 369T281 418T294 480H335ZM334 628Q351 628 361 617T372 589Q372 572 359 560T329 547Q312 547 301 558T290 586Q290 603 303 615T334 628Z" />
<glyph unicode="&#xc0;" glyph-name="Agrave" horiz-adv-x="697" d="M488 229H195L122 101Q105 70 105 53T135 36H195L187 0H-40L-32 36H-6Q11 36 27 46T54 73L370 627Q379 643 377 653T358 663H298L307 700H496L565 76Q567 59 576 48T601 36H633L625 0H395L403
36H509L488 229ZM218 269H484L443 653H437L218 269ZM340 843L346 868H398L460 741H424L340 843Z" />
<glyph unicode="&#xc1;" glyph-name="Aacute" horiz-adv-x="697" d="M488 229H195L122 101Q105 70 105 53T135 36H195L187 0H-40L-32 36H-6Q11 36 27 46T54 73L370 627Q379 643 377 653T358 663H298L307 700H496L565 76Q567 59 576 48T601 36H633L625 0H395L403
36H509L488 229ZM218 269H484L443 653H437L218 269ZM493 868H555L549 843L447 741H408L493 868Z" />
<glyph unicode="&#xc2;" glyph-name="Acircumflex" horiz-adv-x="697" d="M488 229H195L122 101Q105 70 105 53T135 36H195L187 0H-40L-32 36H-6Q11 36 27 46T54 73L370 627Q379 643 377 653T358 663H298L307 700H496L565 76Q567 59 576 48T601 36H633L625 0H395L403
36H509L488 229ZM218 269H484L443 653H437L218 269ZM322 761L423 868H480L545 761L540 741H515L448 829L347 741H317L322 761Z" />
<glyph unicode="&#xc3;" glyph-name="Atilde" horiz-adv-x="697" d="M488 229H195L122 101Q105 70 105 53T135 36H195L187 0H-40L-32 36H-6Q11 36 27 46T54 73L370 627Q379 643 377 653T358 663H298L307 700H496L565 76Q567 59 576 48T601 36H633L625 0H395L403
36H509L488 229ZM218 269H484L443 653H437L218 269ZM307 783Q312 793 319 803T335 821T357 835T386 841Q403 841 420 835T453 822T484 808T513 802Q531 802 543 813T561 844H597L590 815Q585 805 578 795T561 777T539 763T510 758Q493 758 476 764T443 777T412
791T384 797Q366 797 354 786T337 754H300L307 783Z" />
<glyph unicode="&#xc4;" glyph-name="Adieresis" horiz-adv-x="697" d="M488 229H195L122 101Q105 70 105 53T135 36H195L187 0H-40L-32 36H-6Q11 36 27 46T54 73L370 627Q379 643 377 653T358 663H298L307 700H496L565 76Q567 59 576 48T601 36H633L625 0H395L403
36H509L488 229ZM218 269H484L443 653H437L218 269ZM371 765Q355 765 345 775T335 801Q335 818 346 829T374 841Q390 841 400 830T410 805Q410 788 399 777T371 765ZM517 765Q501 765 491 775T481 801Q481 818 493 829T520 841Q536 841 546 830T556 805Q556 788
545 777T517 765Z" />
<glyph unicode="&#xc5;" glyph-name="Aring" horiz-adv-x="697" d="M488 229H195L122 101Q105 70 105 53T135 36H195L187 0H-40L-32 36H-6Q11 36 27 46T54 73L370 627Q379 643 377 653T358 663H298L307 700H496L565 76Q567 59 576 48T601 36H633L625 0H395L403
36H509L488 229ZM218 269H484L443 653H437L218 269ZM441 742Q403 742 377 764T350 826Q350 848 358 865T379 895T410 914T446 921Q483 921 508 898T534 836Q534 814 526 797T505 767T475 749T441 742ZM441 773Q464 773 481 789T499 835Q499 859 484 874T445 890Q419
890 402 873T385 826Q385 802 400 788T441 773Z" />
<glyph unicode="&#xc6;" glyph-name="AE" horiz-adv-x="963" d="M358 0L366 36H446L490 229H224L126 98Q104 69 109 53T143 36H192L184 0H-41L-33 36H-8Q9 36 24 46T53 73L469 624Q481 640 478 651T457 663H400L409 700H1004L965 532H923L943 661H653L588 381H758L788
470H828L778 252H737L751 342H579L509 39H827L869 180H913L872 0H358ZM254 269H500L591 661H551L254 269Z" />
<glyph unicode="&#xc7;" glyph-name="Ccedilla" horiz-adv-x="620" d="M244 -174Q215 -174 199 -169T169 -156L177 -124H202Q207 -131 217 -136T244 -142Q294 -142 294 -103Q294 -88 282 -80T243 -71H231L247 0Q153 15 103 82T52 257Q52 349 81 430T164 573T290
669T453 705Q514 705 552 693T605 673Q610 673 616 679T625 700H666L620 503H575L589 617Q572 636 540 649T453 663Q378 663 316 633T209 548T139 420T114 257Q114 151 164 94T305 37Q348 37 380 44T438 64T484 92T522 127H556L545 79Q527 64 504 49T451 22T384
3T302 -5Q297 -5 292 -5T281 -4L273 -41Q304 -43 322 -59T341 -102Q341 -137 315 -155T244 -174Z" />
<glyph unicode="&#xc8;" glyph-name="Egrave" horiz-adv-x="582" d="M-29 36H17Q31 36 44 46T60 69L188 629Q191 641 186 652T167 663H116L125 700H623L584 532H542L562 661H257L192 381H377L407 470H447L397 252H356L370 342H183L113 39H446L488 180H532L491
0H-37L-29 36ZM310 843L316 868H368L430 741H394L310 843Z" />
<glyph unicode="&#xc9;" glyph-name="Eacute" horiz-adv-x="582" d="M463 868H525L519 843L417 741H378L463 868ZM-29 36H17Q31 36 44 46T60 69L188 629Q191 641 186 652T167 663H116L125 700H623L584 532H542L562 661H257L192 381H377L407 470H447L397 252H356L370
342H183L113 39H446L488 180H532L491 0H-37L-29 36Z" />
<glyph unicode="&#xca;" glyph-name="Ecircumflex" horiz-adv-x="582" d="M292 761L393 868H450L515 761L510 741H485L418 829L317 741H287L292 761ZM-29 36H17Q31 36 44 46T60 69L188 629Q191 641 186 652T167 663H116L125 700H623L584 532H542L562 661H257L192
381H377L407 470H447L397 252H356L370 342H183L113 39H446L488 180H532L491 0H-37L-29 36Z" />
<glyph unicode="&#xcb;" glyph-name="Edieresis" horiz-adv-x="582" d="M341 765Q325 765 315 775T305 801Q305 818 316 829T344 841Q360 841 370 830T380 805Q380 788 369 777T341 765ZM487 765Q471 765 461 775T451 801Q451 818 463 829T490 841Q506 841 516
830T526 805Q526 788 515 777T487 765ZM-29 36H17Q31 36 44 46T60 69L188 629Q191 641 186 652T167 663H116L125 700H623L584 532H542L562 661H257L192 381H377L407 470H447L397 252H356L370 342H183L113 39H446L488 180H532L491 0H-37L-29 36Z" />
<glyph unicode="&#xcc;" glyph-name="Igrave" horiz-adv-x="286" d="M-29 36H27Q40 36 53 46T69 69L198 629Q200 641 195 652T177 663H116L125 700H365L356 663H301Q288 663 275 652T259 629L131 69Q128 57 133 47T151 36H212L204 0H-37L-29 36ZM159 843L165 868H217L279
741H243L159 843Z" />
<glyph unicode="&#xcd;" glyph-name="Iacute" horiz-adv-x="286" d="M-29 36H27Q40 36 53 46T69 69L198 629Q200 641 195 652T177 663H116L125 700H365L356 663H301Q288 663 275 652T259 629L131 69Q128 57 133 47T151 36H212L204 0H-37L-29 36ZM312 868H374L368
843L266 741H227L312 868Z" />
<glyph unicode="&#xce;" glyph-name="Icircumflex" horiz-adv-x="286" d="M-29 36H27Q40 36 53 46T69 69L198 629Q200 641 195 652T177 663H116L125 700H365L356 663H301Q288 663 275 652T259 629L131 69Q128 57 133 47T151 36H212L204 0H-37L-29 36ZM148 761L249
868H306L371 761L366 741H341L274 829L173 741H143L148 761Z" />
<glyph unicode="&#xcf;" glyph-name="Idieresis" horiz-adv-x="286" d="M-29 36H27Q40 36 53 46T69 69L198 629Q200 641 195 652T177 663H116L125 700H365L356 663H301Q288 663 275 652T259 629L131 69Q128 57 133 47T151 36H212L204 0H-37L-29 36ZM190 765Q174
765 164 775T154 801Q154 818 165 829T193 841Q209 841 219 830T229 805Q229 788 218 777T190 765ZM336 765Q320 765 310 775T300 801Q300 818 312 829T339 841Q355 841 365 830T375 805Q375 788 364 777T336 765Z" />
<glyph unicode="&#xd0;" glyph-name="Eth" horiz-adv-x="678" d="M-29 36H17Q31 36 44 46T60 69L119 329H39L49 368H128L188 629Q191 641 186 652T167 663H116L125 700H373Q517 700 593 634T670 437Q670 342 644 262T566 124T435 33T249 0H-37L-29 36ZM252 39Q344
39 411 68T521 151T586 278T607 441Q607 661 366 661H257L189 368H392L382 329H180L114 39H252Z" />
<glyph unicode="&#xd1;" glyph-name="Ntilde" horiz-adv-x="709" d="M-29 36H17Q31 36 44 47T60 70L188 629Q191 641 186 652T167 663H116L125 700H277L522 93H523L654 663H553L562 700H792L783 663H737Q724 663 711 653T696 631L551 0H498L243 631H238L101 36H204L196
0H-37L-29 36ZM332 783Q337 793 344 803T360 821T382 835T411 841Q428 841 445 835T478 822T509 808T538 802Q556 802 568 813T586 844H622L615 815Q610 805 603 795T586 777T564 763T535 758Q518 758 501 764T468 777T437 791T409 797Q391 797 379 786T362 754H325L332
783Z" />
<glyph unicode="&#xd2;" glyph-name="Ograve" horiz-adv-x="706" d="M321 -5Q259 -5 210 13T125 66T72 151T53 267Q53 363 84 443T166 582T285 672T425 705Q486 705 536 687T621 633T675 548T694 432Q694 335 663 255T580 117T461 27T321 -5ZM324 37Q386 37 441
66T539 148T606 274T631 435Q631 545 577 604T422 663Q360 663 305 634T207 552T141 426T116 264Q116 153 170 95T324 37ZM350 846L356 871H408L470 744H434L350 846Z" />
<glyph unicode="&#xd3;" glyph-name="Oacute" horiz-adv-x="706" d="M503 871H565L559 846L457 744H418L503 871ZM321 -5Q259 -5 210 13T125 66T72 151T53 267Q53 363 84 443T166 582T285 672T425 705Q486 705 536 687T621 633T675 548T694 432Q694 335 663 255T580
117T461 27T321 -5ZM324 37Q386 37 441 66T539 148T606 274T631 435Q631 545 577 604T422 663Q360 663 305 634T207 552T141 426T116 264Q116 153 170 95T324 37Z" />
<glyph unicode="&#xd4;" glyph-name="Ocircumflex" horiz-adv-x="706" d="M338 764L439 871H496L561 764L556 744H531L464 832L363 744H333L338 764ZM321 -5Q259 -5 210 13T125 66T72 151T53 267Q53 363 84 443T166 582T285 672T425 705Q486 705 536 687T621 633T675
548T694 432Q694 335 663 255T580 117T461 27T321 -5ZM324 37Q386 37 441 66T539 148T606 274T631 435Q631 545 577 604T422 663Q360 663 305 634T207 552T141 426T116 264Q116 153 170 95T324 37Z" />
<glyph unicode="&#xd5;" glyph-name="Otilde" horiz-adv-x="706" d="M321 -5Q259 -5 210 13T125 66T72 151T53 267Q53 363 84 443T166 582T285 672T425 705Q486 705 536 687T621 633T675 548T694 432Q694 335 663 255T580 117T461 27T321 -5ZM324 37Q386 37 441
66T539 148T606 274T631 435Q631 545 577 604T422 663Q360 663 305 634T207 552T141 426T116 264Q116 153 170 95T324 37ZM317 786Q322 796 329 806T345 824T367 838T396 844Q413 844 430 838T463 825T494 811T523 805Q541 805 553 816T571 847H607L600 818Q595
808 588 798T571 780T549 766T520 761Q503 761 486 767T453 780T422 794T394 800Q376 800 364 789T347 757H310L317 786Z" />
<glyph unicode="&#xd6;" glyph-name="Odieresis" horiz-adv-x="706" d="M379 760Q363 760 353 770T343 796Q343 813 354 824T382 836Q398 836 408 825T418 800Q418 783 407 772T379 760ZM525 760Q509 760 499 770T489 796Q489 813 501 824T528 836Q544 836 554
825T564 800Q564 783 553 772T525 760ZM321 -5Q259 -5 210 13T125 66T72 151T53 267Q53 363 84 443T166 582T285 672T425 705Q486 705 536 687T621 633T675 548T694 432Q694 335 663 255T580 117T461 27T321 -5ZM324 37Q386 37 441 66T539 148T606 274T631 435Q631
545 577 604T422 663Q360 663 305 634T207 552T141 426T116 264Q116 153 170 95T324 37Z" />
<glyph unicode="&#xd7;" glyph-name="multiply" horiz-adv-x="476" d="M39 184L226 339L108 494L144 524L261 370L447 524L473 492L286 337L404 182L368 152L250 307L65 152L39 184Z" />
<glyph unicode="&#xd8;" glyph-name="Oslash" horiz-adv-x="706" d="M114 78Q85 113 69 160T53 267Q53 363 84 443T166 582T285 672T425 705Q482 705 528 689T609 644L676 721H725L635 618Q694 547 694 432Q694 335 663 255T580 117T461 27T321 -5Q209 -5 140
52L70 -29H21L114 78ZM116 264Q116 217 124 181T150 118L576 606Q522 663 422 663Q360 663 305 634T207 552T141 426T116 264ZM324 37Q386 37 441 66T539 148T606 274T631 435Q631 522 598 576L173 89Q225 37 324 37Z" />
<glyph unicode="&#xd9;" glyph-name="Ugrave" horiz-adv-x="709" d="M323 -5Q264 -5 216 9T135 54T92 131T95 244L183 628Q186 640 181 651T163 663H116L125 700H362L353 663H253L155 238Q142 179 151 141T184 80T246 48T325 39Q369 39 405 47T470 77T520 134T553
224L654 663H555L564 700H788L779 663H736Q722 663 710 651T695 628L601 220Q586 157 562 114T503 45T423 7T323 -5ZM372 843L378 868H430L492 741H456L372 843Z" />
<glyph unicode="&#xda;" glyph-name="Uacute" horiz-adv-x="709" d="M525 868H587L581 843L479 741H440L525 868ZM323 -5Q264 -5 216 9T135 54T92 131T95 244L183 628Q186 640 181 651T163 663H116L125 700H362L353 663H253L155 238Q142 179 151 141T184 80T246
48T325 39Q369 39 405 47T470 77T520 134T553 224L654 663H555L564 700H788L779 663H736Q722 663 710 651T695 628L601 220Q586 157 562 114T503 45T423 7T323 -5Z" />
<glyph unicode="&#xdb;" glyph-name="Ucircumflex" horiz-adv-x="709" d="M361 761L462 868H519L584 761L579 741H554L487 829L386 741H356L361 761ZM323 -5Q264 -5 216 9T135 54T92 131T95 244L183 628Q186 640 181 651T163 663H116L125 700H362L353 663H253L155
238Q142 179 151 141T184 80T246 48T325 39Q369 39 405 47T470 77T520 134T553 224L654 663H555L564 700H788L779 663H736Q722 663 710 651T695 628L601 220Q586 157 562 114T503 45T423 7T323 -5Z" />
<glyph unicode="&#xdc;" glyph-name="Udieresis" horiz-adv-x="709" d="M403 765Q387 765 377 775T367 801Q367 818 378 829T406 841Q422 841 432 830T442 805Q442 788 431 777T403 765ZM549 765Q533 765 523 775T513 801Q513 818 525 829T552 841Q568 841 578
830T588 805Q588 788 577 777T549 765ZM323 -5Q264 -5 216 9T135 54T92 131T95 244L183 628Q186 640 181 651T163 663H116L125 700H362L353 663H253L155 238Q142 179 151 141T184 80T246 48T325 39Q369 39 405 47T470 77T520 134T553 224L654 663H555L564 700H788L779
663H736Q722 663 710 651T695 628L601 220Q586 157 562 114T503 45T423 7T323 -5Z" />
<glyph unicode="&#xdd;" glyph-name="Yacute" horiz-adv-x="637" d="M152 36H205Q218 36 231 46T247 69L299 301L178 624Q172 641 161 652T132 663H114L123 700H332L323 663H227L346 341H347L558 603Q583 632 577 647T544 663H500L508 700H717L708 663H689Q673
663 659 653T630 626L359 292L308 69Q305 57 310 47T329 36H387L379 0H144L152 36ZM492 868H554L548 843L446 741H407L492 868Z" />
<glyph unicode="&#xde;" glyph-name="Thorn" horiz-adv-x="569" d="M-29 36H17Q31 36 44 46T60 69L188 629Q191 641 186 652T167 663H116L125 700H363L354 663H258L231 544H355Q402 544 441 536T508 511T552 466T568 398Q568 341 548 299T492 228T404 186T288
172H144L113 36H211L203 0H-37L-29 36ZM291 211Q395 211 450 255T505 393Q505 454 463 478T348 503H221L153 211H291Z" />
<glyph unicode="&#xdf;" glyph-name="germandbls" horiz-adv-x="573" d="M-67 -128Q-41 -116 -19 -93T17 -14L131 499Q142 546 162 584T213 649T285 690T380 705Q415 705 445 698T497 676T531 640T544 592Q544 568 534 549T507 513T465 478T410 439Q378 416 356
397T333 355Q333 332 353 318T411 281Q430 270 449 257T484 228T509 192T519 147Q519 113 506 86T469 38T412 7T337 -4Q289 -4 257 5T195 31L216 120H254Q252 97 252 79T265 51Q276 43 294 39T342 34Q399 34 432 64T466 140Q466 158 458 172T436 199T405 221T370
242Q351 253 335 263T306 286T287 312T280 345Q280 379 306 406T382 469Q399 482 418 494T452 521T478 551T488 586Q488 623 459 644T377 665Q297 665 252 620T189 497L73 -15Q59 -78 29 -112T-39 -162H-75L-67 -128Z" />
<glyph unicode="&#xe0;" glyph-name="agrave" horiz-adv-x="501" d="M385 -4Q347 -4 330 19T321 80Q289 42 249 19T153 -5Q88 -5 49 30T9 123Q9 168 25 201T70 255T140 288T230 299Q272 299 303 292T362 273L383 361Q390 393 386 416T367 455T330 478T279 486Q222
486 188 474T127 440H98L109 489Q142 505 182 516T288 527Q327 527 359 517T413 485T443 433T441 359L376 81Q371 61 380 48T409 35Q426 35 441 38L434 6Q429 4 415 0T385 -4ZM160 35Q217 35 257 62T329 126L354 237Q328 248 298 254T229 261Q154 261 109 229T64
127Q64 83 90 59T160 35ZM211 675L217 700H269L331 573H295L211 675Z" />
<glyph unicode="&#xe1;" glyph-name="aacute" horiz-adv-x="501" d="M385 -4Q347 -4 330 19T321 80Q289 42 249 19T153 -5Q88 -5 49 30T9 123Q9 168 25 201T70 255T140 288T230 299Q272 299 303 292T362 273L383 361Q390 393 386 416T367 455T330 478T279 486Q222
486 188 474T127 440H98L109 489Q142 505 182 516T288 527Q327 527 359 517T413 485T443 433T441 359L376 81Q371 61 380 48T409 35Q426 35 441 38L434 6Q429 4 415 0T385 -4ZM160 35Q217 35 257 62T329 126L354 237Q328 248 298 254T229 261Q154 261 109 229T64
127Q64 83 90 59T160 35ZM364 700H426L420 675L318 573H279L364 700Z" />
<glyph unicode="&#xe2;" glyph-name="acircumflex" horiz-adv-x="501" d="M385 -4Q347 -4 330 19T321 80Q289 42 249 19T153 -5Q88 -5 49 30T9 123Q9 168 25 201T70 255T140 288T230 299Q272 299 303 292T362 273L383 361Q390 393 386 416T367 455T330 478T279
486Q222 486 188 474T127 440H98L109 489Q142 505 182 516T288 527Q327 527 359 517T413 485T443 433T441 359L376 81Q371 61 380 48T409 35Q426 35 441 38L434 6Q429 4 415 0T385 -4ZM160 35Q217 35 257 62T329 126L354 237Q328 248 298 254T229 261Q154 261 109
229T64 127Q64 83 90 59T160 35ZM191 593L292 700H349L414 593L409 573H384L317 661L216 573H186L191 593Z" />
<glyph unicode="&#xe3;" glyph-name="atilde" horiz-adv-x="501" d="M385 -4Q347 -4 330 19T321 80Q289 42 249 19T153 -5Q88 -5 49 30T9 123Q9 168 25 201T70 255T140 288T230 299Q272 299 303 292T362 273L383 361Q390 393 386 416T367 455T330 478T279 486Q222
486 188 474T127 440H98L109 489Q142 505 182 516T288 527Q327 527 359 517T413 485T443 433T441 359L376 81Q371 61 380 48T409 35Q426 35 441 38L434 6Q429 4 415 0T385 -4ZM160 35Q217 35 257 62T329 126L354 237Q328 248 298 254T229 261Q154 261 109 229T64
127Q64 83 90 59T160 35ZM160 615Q165 625 172 635T188 653T210 667T239 673Q256 673 273 667T306 654T337 640T366 634Q384 634 396 645T414 676H450L443 647Q438 637 431 627T414 609T392 595T363 590Q346 590 329 596T296 609T265 623T237 629Q219 629 207 618T190
586H153L160 615Z" />
<glyph unicode="&#xe4;" glyph-name="adieresis" horiz-adv-x="501" d="M385 -4Q347 -4 330 19T321 80Q289 42 249 19T153 -5Q88 -5 49 30T9 123Q9 168 25 201T70 255T140 288T230 299Q272 299 303 292T362 273L383 361Q390 393 386 416T367 455T330 478T279 486Q222
486 188 474T127 440H98L109 489Q142 505 182 516T288 527Q327 527 359 517T413 485T443 433T441 359L376 81Q371 61 380 48T409 35Q426 35 441 38L434 6Q429 4 415 0T385 -4ZM160 35Q217 35 257 62T329 126L354 237Q328 248 298 254T229 261Q154 261 109 229T64
127Q64 83 90 59T160 35ZM242 597Q226 597 216 607T206 633Q206 650 217 661T245 673Q261 673 271 662T281 637Q281 620 270 609T242 597ZM388 597Q372 597 362 607T352 633Q352 650 364 661T391 673Q407 673 417 662T427 637Q427 620 416 609T388 597Z" />
<glyph unicode="&#xe5;" glyph-name="aring" horiz-adv-x="501" d="M385 -4Q347 -4 330 19T321 80Q289 42 249 19T153 -5Q88 -5 49 30T9 123Q9 168 25 201T70 255T140 288T230 299Q272 299 303 292T362 273L383 361Q390 393 386 416T367 455T330 478T279 486Q222
486 188 474T127 440H98L109 489Q142 505 182 516T288 527Q327 527 359 517T413 485T443 433T441 359L376 81Q371 61 380 48T409 35Q426 35 441 38L434 6Q429 4 415 0T385 -4ZM160 35Q217 35 257 62T329 126L354 237Q328 248 298 254T229 261Q154 261 109 229T64
127Q64 83 90 59T160 35ZM312 574Q274 574 248 596T221 658Q221 680 229 697T250 727T281 746T317 753Q354 753 379 730T405 668Q405 646 397 629T376 599T346 581T312 574ZM312 605Q335 605 352 621T370 667Q370 691 355 706T316 722Q290 722 273 705T256 658Q256
634 271 620T312 605Z" />
<glyph unicode="&#xe6;" glyph-name="ae" horiz-adv-x="807" d="M539 -4Q473 -4 431 22T369 94Q353 75 332 58T285 26T229 4T163 -5Q89 -5 49 30T9 126Q9 169 25 200T71 250T143 278T239 287Q274 287 302 285T356 277L377 361Q384 393 380 416T361 455T323 478T272
486Q215 486 182 474T121 440H92L103 489Q136 505 176 516T281 527Q345 527 386 500T431 417Q469 468 525 497T650 527Q680 527 706 521T752 500T783 463T795 410Q795 318 698 279T409 236Q407 225 407 216T407 196Q407 122 439 78T542 34Q573 34 597 39T639 54T670
74T694 97H728L717 53Q705 44 689 34T652 16T602 2T539 -4ZM167 35Q224 35 270 59T357 129Q349 163 349 197Q349 211 349 222T351 241Q325 244 297 246T237 249Q156 249 110 223T64 130Q64 84 90 60T167 35ZM414 274Q496 275 557 282T658 304T719 344T739 408Q739
431 732 446T712 471T683 485T648 489Q600 489 561 472T493 425T443 356T414 274Z" />
<glyph unicode="&#xe7;" glyph-name="ccedilla" horiz-adv-x="484" d="M168 -174Q139 -174 123 -169T93 -156L101 -124H126Q131 -131 141 -136T168 -142Q218 -142 218 -103Q218 -88 206 -80T167 -71H155L171 0Q113 12 77 50Q29 105 29 192Q29 261 51 322T115 428T213
500T341 527Q395 527 429 518T487 495L465 401H428Q430 433 425 450T398 478Q377 488 337 488Q278 488 232 464T154 398T105 304T88 192Q88 121 120 78T224 34Q256 34 280 40T322 55T353 75T376 97H410L399 53Q387 44 371 34T334 16T285 2T222 -4Q213 -4 205 -3L197
-41Q228 -43 246 -59T265 -102Q265 -137 239 -155T168 -174Z" />
<glyph unicode="&#xe8;" glyph-name="egrave" horiz-adv-x="488" d="M220 -4Q172 -4 137 11T77 52T42 116T30 197Q30 266 53 326T118 431T213 501T331 527Q361 527 387 521T433 500T464 463T476 410Q476 320 380 279T90 234Q89 226 89 216T88 196Q88 160 96 131T120
80T162 46T223 34Q254 34 278 39T320 54T351 74T375 97H409L398 53Q386 44 370 34T333 16T283 2T220 -4ZM95 272Q258 275 338 306T419 408Q419 454 393 471T329 489Q280 489 241 471T173 422T124 353T95 272ZM230 675L236 700H288L350 573H314L230 675Z" />
<glyph unicode="&#xe9;" glyph-name="eacute" horiz-adv-x="488" d="M372 700H434L428 675L326 573H287L372 700ZM220 -4Q172 -4 137 11T77 52T42 116T30 197Q30 266 53 326T118 431T213 501T331 527Q361 527 387 521T433 500T464 463T476 410Q476 320 380 279T90
234Q89 226 89 216T88 196Q88 160 96 131T120 80T162 46T223 34Q254 34 278 39T320 54T351 74T375 97H409L398 53Q386 44 370 34T333 16T283 2T220 -4ZM95 272Q258 275 338 306T419 408Q419 454 393 471T329 489Q280 489 241 471T173 422T124 353T95 272Z" />
<glyph unicode="&#xea;" glyph-name="ecircumflex" horiz-adv-x="488" d="M218 593L319 700H376L441 593L436 573H411L344 661L243 573H213L218 593ZM220 -4Q172 -4 137 11T77 52T42 116T30 197Q30 266 53 326T118 431T213 501T331 527Q361 527 387 521T433 500T464
463T476 410Q476 320 380 279T90 234Q89 226 89 216T88 196Q88 160 96 131T120 80T162 46T223 34Q254 34 278 39T320 54T351 74T375 97H409L398 53Q386 44 370 34T333 16T283 2T220 -4ZM95 272Q258 275 338 306T419 408Q419 454 393 471T329 489Q280 489 241 471T173
422T124 353T95 272Z" />
<glyph unicode="&#xeb;" glyph-name="edieresis" horiz-adv-x="488" d="M261 597Q245 597 235 607T225 633Q225 650 236 661T264 673Q280 673 290 662T300 637Q300 620 289 609T261 597ZM407 597Q391 597 381 607T371 633Q371 650 383 661T410 673Q426 673 436
662T446 637Q446 620 435 609T407 597ZM220 -4Q172 -4 137 11T77 52T42 116T30 197Q30 266 53 326T118 431T213 501T331 527Q361 527 387 521T433 500T464 463T476 410Q476 320 380 279T90 234Q89 226 89 216T88 196Q88 160 96 131T120 80T162 46T223 34Q254 34
278 39T320 54T351 74T375 97H409L398 53Q386 44 370 34T333 16T283 2T220 -4ZM95 272Q258 275 338 306T419 408Q419 454 393 471T329 489Q280 489 241 471T173 422T124 353T95 272Z" />
<glyph unicode="&#xec;" glyph-name="igrave" horiz-adv-x="241" d="M114 -4Q76 -4 59 19T52 84L134 439Q139 458 130 471T102 484H62L69 515Q74 517 91 521T132 526Q211 526 192 439L109 81Q104 63 115 50T144 36H175L168 6Q162 3 150 0T114 -4ZM338 678L344
703H396L458 576H422L338 678Z" />
<glyph unicode="&#xed;" glyph-name="iacute" horiz-adv-x="241" d="M494 703H556L550 678L448 576H409L494 703ZM114 -4Q76 -4 59 19T52 84L134 439Q139 458 130 471T102 484H62L69 515Q74 517 91 521T132 526Q211 526 192 439L109 81Q104 63 115 50T144 36H175L168
6Q162 3 150 0T114 -4Z" />
<glyph unicode="&#xee;" glyph-name="icircumflex" horiz-adv-x="241" d="M318 596L419 703H476L541 596L536 576H511L444 664L343 576H313L318 596ZM114 -4Q76 -4 59 19T52 84L134 439Q139 458 130 471T102 484H62L69 515Q74 517 91 521T132 526Q211 526 192
439L109 81Q104 63 115 50T144 36H175L168 6Q162 3 150 0T114 -4Z" />
<glyph unicode="&#xef;" glyph-name="idieresis" horiz-adv-x="241" d="M362 600Q346 600 336 610T326 636Q326 653 337 664T365 676Q381 676 391 665T401 640Q401 623 390 612T362 600ZM508 600Q492 600 482 610T472 636Q472 653 484 664T511 676Q527 676 537
665T547 640Q547 623 536 612T508 600ZM114 -4Q76 -4 59 19T52 84L134 439Q139 458 130 471T102 484H62L69 515Q74 517 91 521T132 526Q211 526 192 439L109 81Q104 63 115 50T144 36H175L168 6Q162 3 150 0T114 -4Z" />
<glyph unicode="&#xf0;" glyph-name="eth" horiz-adv-x="550" d="M327 623Q288 646 232 660L242 700H264Q293 691 320 679T372 651L453 700H491L488 685L399 631Q456 586 489 518T522 352Q522 270 501 204T441 92T350 21T235 -4Q187 -4 149 11T85 53T44 120T30
207Q30 271 51 329T110 430T197 500T305 526Q360 526 396 508T459 450Q442 498 418 536T355 604L270 552H231L234 567L327 623ZM237 33Q289 33 331 57T402 123T447 216T463 326Q463 400 424 443T310 487Q261 487 220 464T150 402T105 310T88 201Q88 122 126 78T237
33Z" />
<glyph unicode="&#xf1;" glyph-name="ntilde" horiz-adv-x="581" d="M454 -4Q419 -4 402 19T394 82L464 386Q475 434 459 457T408 480Q377 480 346 471T285 446T227 411T175 370L90 0H53Q44 0 40 7T39 29L133 439Q138 458 129 471T100 484H62L69 515Q74 517 92
521T130 526Q164 526 182 505T190 436L184 411Q207 432 235 453T294 490T359 517T428 527Q485 527 511 493T523 392L452 83Q447 63 457 50T485 36H515L508 6Q503 4 490 0T454 -4ZM219 615Q224 625 231 635T247 653T269 667T298 673Q315 673 332 667T365 654T396
640T425 634Q443 634 455 645T473 676H509L502 647Q497 637 490 627T473 609T451 595T422 590Q405 590 388 596T355 609T324 623T296 629Q278 629 266 618T249 586H212L219 615Z" />
<glyph unicode="&#xf2;" glyph-name="ograve" horiz-adv-x="549" d="M235 -4Q138 -4 84 51T30 204Q30 271 52 329T112 432T203 501T318 527Q365 527 402 513T466 471T507 407T521 323Q521 256 500 197T440 93T350 22T235 -4ZM237 34Q288 34 330 58T401 122T447
216T463 326Q463 403 425 445T315 487Q264 487 223 464T151 402T105 310T88 198Q88 119 126 77T237 34ZM240 675L246 700H298L360 573H324L240 675Z" />
<glyph unicode="&#xf3;" glyph-name="oacute" horiz-adv-x="549" d="M393 700H455L449 675L347 573H308L393 700ZM235 -4Q138 -4 84 51T30 204Q30 271 52 329T112 432T203 501T318 527Q365 527 402 513T466 471T507 407T521 323Q521 256 500 197T440 93T350 22T235
-4ZM237 34Q288 34 330 58T401 122T447 216T463 326Q463 403 425 445T315 487Q264 487 223 464T151 402T105 310T88 198Q88 119 126 77T237 34Z" />
<glyph unicode="&#xf4;" glyph-name="ocircumflex" horiz-adv-x="549" d="M229 593L330 700H387L452 593L447 573H422L355 661L254 573H224L229 593ZM235 -4Q138 -4 84 51T30 204Q30 271 52 329T112 432T203 501T318 527Q365 527 402 513T466 471T507 407T521
323Q521 256 500 197T440 93T350 22T235 -4ZM237 34Q288 34 330 58T401 122T447 216T463 326Q463 403 425 445T315 487Q264 487 223 464T151 402T105 310T88 198Q88 119 126 77T237 34Z" />
<glyph unicode="&#xf5;" glyph-name="otilde" horiz-adv-x="549" d="M235 -4Q138 -4 84 51T30 204Q30 271 52 329T112 432T203 501T318 527Q365 527 402 513T466 471T507 407T521 323Q521 256 500 197T440 93T350 22T235 -4ZM237 34Q288 34 330 58T401 122T447
216T463 326Q463 403 425 445T315 487Q264 487 223 464T151 402T105 310T88 198Q88 119 126 77T237 34ZM207 615Q212 625 219 635T235 653T257 667T286 673Q303 673 320 667T353 654T384 640T413 634Q431 634 443 645T461 676H497L490 647Q485 637 478 627T461
609T439 595T410 590Q393 590 376 596T343 609T312 623T284 629Q266 629 254 618T237 586H200L207 615Z" />
<glyph unicode="&#xf6;" glyph-name="odieresis" horiz-adv-x="549" d="M271 597Q255 597 245 607T235 633Q235 650 246 661T274 673Q290 673 300 662T310 637Q310 620 299 609T271 597ZM417 597Q401 597 391 607T381 633Q381 650 393 661T420 673Q436 673 446
662T456 637Q456 620 445 609T417 597ZM235 -4Q138 -4 84 51T30 204Q30 271 52 329T112 432T203 501T318 527Q365 527 402 513T466 471T507 407T521 323Q521 256 500 197T440 93T350 22T235 -4ZM237 34Q288 34 330 58T401 122T447 216T463 326Q463 403 425 445T315
487Q264 487 223 464T151 402T105 310T88 198Q88 119 126 77T237 34Z" />
<glyph unicode="&#xf7;" glyph-name="divide" horiz-adv-x="479" d="M223 158Q206 158 197 169T188 196Q189 213 202 224T232 236Q249 236 259 225T267 198Q265 181 253 170T223 158ZM286 455Q269 455 259 466T251 493Q253 510 265 521T295 533Q312 533 322 522T330
495Q328 478 316 467T286 455ZM62 367H467L457 324H52L62 367Z" />
<glyph unicode="&#xf8;" glyph-name="oslash" horiz-adv-x="549" d="M235 -4Q153 -4 101 37L47 -25H2L77 60Q30 115 30 204Q30 271 52 329T112 432T203 501T318 527Q398 527 451 485L502 543H547L475 462Q521 408 521 323Q521 256 500 197T440 93T350 22T235 -4ZM88
198Q88 136 109 97L421 451Q383 487 315 487Q264 487 223 464T151 402T105 310T88 198ZM237 34Q288 34 330 58T401 122T447 216T463 326Q463 385 442 424L130 70Q167 34 237 34Z" />
<glyph unicode="&#xf9;" glyph-name="ugrave" horiz-adv-x="575" d="M164 -6Q104 -6 75 31T61 138L130 439Q135 458 126 471T98 484H62L70 515Q76 517 92 521T130 526Q166 526 181 502T187 434L120 143Q108 90 126 65T186 39Q215 39 243 48T298 71T350 105T399
145L486 522H524Q544 522 538 493L444 82Q439 63 449 50T476 36H510L503 6Q496 3 483 0T447 -4Q412 -4 395 18T386 81L391 104Q369 82 343 62T289 27T229 3T164 -6ZM251 678L257 703H309L371 576H335L251 678Z" />
<glyph unicode="&#xfa;" glyph-name="uacute" horiz-adv-x="575" d="M396 703H458L452 678L350 576H311L396 703ZM164 -6Q104 -6 75 31T61 138L130 439Q135 458 126 471T98 484H62L70 515Q76 517 92 521T130 526Q166 526 181 502T187 434L120 143Q108 90 126 65T186
39Q215 39 243 48T298 71T350 105T399 145L486 522H524Q544 522 538 493L444 82Q439 63 449 50T476 36H510L503 6Q496 3 483 0T447 -4Q412 -4 395 18T386 81L391 104Q369 82 343 62T289 27T229 3T164 -6Z" />
<glyph unicode="&#xfb;" glyph-name="ucircumflex" horiz-adv-x="575" d="M236 596L337 703H394L459 596L454 576H429L362 664L261 576H231L236 596ZM164 -6Q104 -6 75 31T61 138L130 439Q135 458 126 471T98 484H62L70 515Q76 517 92 521T130 526Q166 526 181
502T187 434L120 143Q108 90 126 65T186 39Q215 39 243 48T298 71T350 105T399 145L486 522H524Q544 522 538 493L444 82Q439 63 449 50T476 36H510L503 6Q496 3 483 0T447 -4Q412 -4 395 18T386 81L391 104Q369 82 343 62T289 27T229 3T164 -6Z" />
<glyph unicode="&#xfc;" glyph-name="udieresis" horiz-adv-x="575" d="M275 600Q259 600 249 610T239 636Q239 653 250 664T278 676Q294 676 304 665T314 640Q314 623 303 612T275 600ZM421 600Q405 600 395 610T385 636Q385 653 397 664T424 676Q440 676 450
665T460 640Q460 623 449 612T421 600ZM164 -6Q104 -6 75 31T61 138L130 439Q135 458 126 471T98 484H62L70 515Q76 517 92 521T130 526Q166 526 181 502T187 434L120 143Q108 90 126 65T186 39Q215 39 243 48T298 71T350 105T399 145L486 522H524Q544 522 538
493L444 82Q439 63 449 50T476 36H510L503 6Q496 3 483 0T447 -4Q412 -4 395 18T386 81L391 104Q369 82 343 62T289 27T229 3T164 -6Z" />
<glyph unicode="&#xfd;" glyph-name="yacute" horiz-adv-x="565" d="M183 -169Q121 -169 82 -159T15 -136L26 -90H61Q93 -131 187 -131Q267 -131 308 -101T363 -10L394 121Q348 78 293 46T173 14Q111 14 80 49T65 154L130 439Q135 458 126 471T98 484H62L69 515Q74
517 91 521T131 526Q163 526 180 503T187 434L124 158Q112 105 131 82T191 59Q220 59 248 67T302 90T354 123T403 163L486 522H524Q533 522 536 514T537 492L420 -13Q401 -94 344 -131T183 -169ZM400 700H462L456 675L354 573H315L400 700Z" />
<glyph unicode="&#xfe;" glyph-name="thorn" horiz-adv-x="547" d="M157 408Q176 431 199 452T250 490T309 517T376 527Q407 527 434 518T480 488T510 436T521 358Q521 317 514 277T493 200T460 132T419 77Q380 36 332 19T232 1Q167 1 132 17T75 53L34 -128H120L113
-162H-101L-93 -128H-51Q-40 -128 -30 -120T-17 -100L151 634Q154 645 149 654T132 663H83L92 700H209Q224 700 220 682L157 408ZM222 40Q267 40 306 55T379 104Q416 143 439 208T462 352Q462 390 454 415T433 456T400 477T359 484Q328 484 299 473T242 444T191
405T146 362L83 88Q106 68 137 54T222 40Z" />
<glyph unicode="&#xff;" glyph-name="ydieresis" horiz-adv-x="565" d="M183 -169Q121 -169 82 -159T15 -136L26 -90H61Q93 -131 187 -131Q267 -131 308 -101T363 -10L394 121Q348 78 293 46T173 14Q111 14 80 49T65 154L130 439Q135 458 126 471T98 484H62L69
515Q74 517 91 521T131 526Q163 526 180 503T187 434L124 158Q112 105 131 82T191 59Q220 59 248 67T302 90T354 123T403 163L486 522H524Q533 522 536 514T537 492L420 -13Q401 -94 344 -131T183 -169ZM279 597Q263 597 253 607T243 633Q243 650 254 661T282 673Q298
673 308 662T318 637Q318 620 307 609T279 597ZM425 597Q409 597 399 607T389 633Q389 650 401 661T428 673Q444 673 454 662T464 637Q464 620 453 609T425 597Z" />
<glyph unicode="&#x100;" glyph-name="Amacron" horiz-adv-x="697" d="M488 229H195L122 101Q105 70 105 53T135 36H195L187 0H-40L-32 36H-6Q11 36 27 46T54 73L370 627Q379 643 377 653T358 663H298L307 700H496L565 76Q567 59 576 48T601 36H633L625 0H395L403
36H509L488 229ZM218 269H484L443 653H437L218 269ZM332 812H566L556 772H322L332 812Z" />
<glyph unicode="&#x101;" glyph-name="amacron" horiz-adv-x="501" d="M385 -4Q347 -4 330 19T321 80Q289 42 249 19T153 -5Q88 -5 49 30T9 123Q9 168 25 201T70 255T140 288T230 299Q272 299 303 292T362 273L383 361Q390 393 386 416T367 455T330 478T279 486Q222
486 188 474T127 440H98L109 489Q142 505 182 516T288 527Q327 527 359 517T413 485T443 433T441 359L376 81Q371 61 380 48T409 35Q426 35 441 38L434 6Q429 4 415 0T385 -4ZM160 35Q217 35 257 62T329 126L354 237Q328 248 298 254T229 261Q154 261 109 229T64
127Q64 83 90 59T160 35ZM193 649H427L417 609H183L193 649Z" />
<glyph unicode="&#x102;" glyph-name="Abreve" horiz-adv-x="697" d="M488 229H195L122 101Q105 70 105 53T135 36H195L187 0H-40L-32 36H-6Q11 36 27 46T54 73L370 627Q379 643 377 653T358 663H298L307 700H496L565 76Q567 59 576 48T601 36H633L625 0H395L403
36H509L488 229ZM218 269H484L443 653H437L218 269ZM432 743Q381 743 354 769T321 833L326 855H364Q365 822 381 804T434 785Q467 785 489 801T520 855H562L556 830Q544 793 513 768T432 743Z" />
<glyph unicode="&#x103;" glyph-name="abreve" horiz-adv-x="501" d="M385 -4Q347 -4 330 19T321 80Q289 42 249 19T153 -5Q88 -5 49 30T9 123Q9 168 25 201T70 255T140 288T230 299Q272 299 303 292T362 273L383 361Q390 393 386 416T367 455T330 478T279 486Q222
486 188 474T127 440H98L109 489Q142 505 182 516T288 527Q327 527 359 517T413 485T443 433T441 359L376 81Q371 61 380 48T409 35Q426 35 441 38L434 6Q429 4 415 0T385 -4ZM160 35Q217 35 257 62T329 126L354 237Q328 248 298 254T229 261Q154 261 109 229T64
127Q64 83 90 59T160 35ZM294 575Q243 575 216 601T183 665L188 687H226Q227 654 243 636T296 617Q329 617 351 633T382 687H424L418 662Q406 625 375 600T294 575Z" />
<glyph unicode="&#x104;" glyph-name="Aogonek" horiz-adv-x="697" d="M527 -164Q490 -164 471 -148T451 -102Q451 -84 458 -70T478 -42T504 -19T533 0H395L403 36H509L488 229H195L122 101Q105 70 105 53T135 36H195L187 0H-40L-32 36H-6Q11 36 27 46T54 73L370
627Q379 643 377 653T358 663H298L307 700H496L565 76Q567 59 576 48T601 36H633L625 0H578Q542 -24 522 -47T502 -98Q502 -111 510 -120T536 -129Q545 -129 550 -127T561 -122H584L577 -155Q567 -159 554 -161T527 -164ZM218 269H484L443 653H437L218 269Z" />
<glyph unicode="&#x105;" glyph-name="aogonek" horiz-adv-x="501" d="M359 -164Q322 -164 303 -148T283 -102Q283 -85 290 -70T308 -43T333 -20T362 -1Q336 5 325 26T321 80Q289 42 249 19T153 -5Q88 -5 49 30T9 123Q9 168 25 201T70 255T140 288T230 299Q272
299 303 292T362 273L383 361Q390 393 386 416T367 455T330 478T279 486Q222 486 188 474T127 440H98L109 489Q142 505 182 516T288 527Q327 527 359 517T413 485T443 433T441 359L376 81Q371 61 380 48T409 35Q426 35 441 38L434 6Q388 -11 361 -38T334 -98Q334
-111 342 -120T368 -129Q377 -129 382 -127T393 -122H416L409 -155Q399 -159 386 -161T359 -164ZM160 35Q217 35 257 62T329 126L354 237Q328 248 298 254T229 261Q154 261 109 229T64 127Q64 83 90 59T160 35Z" />
<glyph unicode="&#x106;" glyph-name="Cacute" horiz-adv-x="620" d="M513 871H575L569 846L467 744H428L513 871ZM302 -5Q183 -5 118 64T52 257Q52 349 81 430T164 573T290 669T453 705Q514 705 552 693T605 673Q610 673 616 679T625 700H666L620 503H575L589
617Q572 636 540 649T453 663Q378 663 316 633T209 548T139 420T114 257Q114 151 164 94T305 37Q348 37 380 44T438 64T484 92T522 127H556L545 79Q527 64 504 49T451 22T384 3T302 -5Z" />
<glyph unicode="&#x107;" glyph-name="cacute" horiz-adv-x="484" d="M395 700H457L451 675L349 573H310L395 700ZM222 -4Q126 -4 78 50T29 192Q29 261 51 322T115 428T213 500T341 527Q395 527 429 518T487 495L465 401H428Q430 433 425 450T398 478Q377 488
337 488Q278 488 232 464T154 398T105 304T88 192Q88 121 120 78T224 34Q256 34 280 40T322 55T353 75T376 97H410L399 53Q387 44 371 34T334 16T285 2T222 -4Z" />
<glyph unicode="&#x108;" glyph-name="Ccircumflex" horiz-adv-x="620" d="M348 764L449 871H506L571 764L566 744H541L474 832L373 744H343L348 764ZM302 -5Q183 -5 118 64T52 257Q52 349 81 430T164 573T290 669T453 705Q514 705 552 693T605 673Q610 673 616
679T625 700H666L620 503H575L589 617Q572 636 540 649T453 663Q378 663 316 633T209 548T139 420T114 257Q114 151 164 94T305 37Q348 37 380 44T438 64T484 92T522 127H556L545 79Q527 64 504 49T451 22T384 3T302 -5Z" />
<glyph unicode="&#x109;" glyph-name="ccircumflex" horiz-adv-x="484" d="M231 593L332 700H389L454 593L449 573H424L357 661L256 573H226L231 593ZM222 -4Q126 -4 78 50T29 192Q29 261 51 322T115 428T213 500T341 527Q395 527 429 518T487 495L465 401H428Q430
433 425 450T398 478Q377 488 337 488Q278 488 232 464T154 398T105 304T88 192Q88 121 120 78T224 34Q256 34 280 40T322 55T353 75T376 97H410L399 53Q387 44 371 34T334 16T285 2T222 -4Z" />
<glyph unicode="&#x10a;" glyph-name="Cdotaccent" horiz-adv-x="620" d="M302 -5Q183 -5 118 64T52 257Q52 349 81 430T164 573T290 669T453 705Q514 705 552 693T605 673Q610 673 616 679T625 700H666L620 503H575L589 617Q572 636 540 649T453 663Q378 663
316 633T209 548T139 420T114 257Q114 151 164 94T305 37Q348 37 380 44T438 64T484 92T522 127H556L545 79Q527 64 504 49T451 22T384 3T302 -5ZM451 767Q434 767 424 778T413 804Q413 821 425 833T453 845Q470 845 480 834T491 808Q491 791 480 779T451 767Z"
/>
<glyph unicode="&#x10b;" glyph-name="cdotaccent" horiz-adv-x="484" d="M222 -4Q126 -4 78 50T29 192Q29 261 51 322T115 428T213 500T341 527Q395 527 429 518T487 495L465 401H428Q430 433 425 450T398 478Q377 488 337 488Q278 488 232 464T154 398T105 304T88
192Q88 121 120 78T224 34Q256 34 280 40T322 55T353 75T376 97H410L399 53Q387 44 371 34T334 16T285 2T222 -4ZM334 596Q317 596 307 607T296 633Q296 650 308 662T336 674Q353 674 363 663T374 637Q374 620 363 608T334 596Z" />
<glyph unicode="&#x10c;" glyph-name="Ccaron" horiz-adv-x="620" d="M581 851L480 744H423L358 851L363 871H388L455 783L556 871H586L581 851ZM302 -5Q183 -5 118 64T52 257Q52 349 81 430T164 573T290 669T453 705Q514 705 552 693T605 673Q610 673 616 679T625
700H666L620 503H575L589 617Q572 636 540 649T453 663Q378 663 316 633T209 548T139 420T114 257Q114 151 164 94T305 37Q348 37 380 44T438 64T484 92T522 127H556L545 79Q527 64 504 49T451 22T384 3T302 -5Z" />
<glyph unicode="&#x10d;" glyph-name="ccaron" horiz-adv-x="484" d="M463 680L362 573H305L240 680L245 700H270L337 612L438 700H468L463 680ZM222 -4Q126 -4 78 50T29 192Q29 261 51 322T115 428T213 500T341 527Q395 527 429 518T487 495L465 401H428Q430
433 425 450T398 478Q377 488 337 488Q278 488 232 464T154 398T105 304T88 192Q88 121 120 78T224 34Q256 34 280 40T322 55T353 75T376 97H410L399 53Q387 44 371 34T334 16T285 2T222 -4Z" />
<glyph unicode="&#x10e;" glyph-name="Dcaron" horiz-adv-x="678" d="M532 848L431 741H374L309 848L314 868H339L406 780L507 868H537L532 848ZM-29 36H17Q31 36 44 46T60 69L188 629Q191 641 186 652T167 663H116L125 700H373Q517 700 593 634T670 437Q670 342
644 262T566 124T435 33T249 0H-37L-29 36ZM252 39Q344 39 411 68T521 151T586 278T607 441Q607 661 366 661H257L114 39H252Z" />
<glyph unicode="&#x10f;" glyph-name="dcaron" horiz-adv-x="571" d="M647 700H698L692 675L636 571H600L647 700ZM183 -4Q112 -4 70 37T27 166Q27 208 35 248T59 324T93 390T135 444Q173 484 224 505T327 527Q385 527 419 511T474 477L518 663H429L438 700H569Q585
700 580 682L441 81Q436 63 447 50T475 36H505L498 6Q493 3 482 0T452 -4Q416 -4 395 16T383 79L390 111Q352 63 301 30T183 -4ZM189 35Q221 35 250 46T305 75T356 115T401 161L467 442Q455 450 443 458T414 472T377 482T328 486Q286 486 248 470T175 417Q137 377
112 313T86 166Q86 131 94 106T116 65T148 42T189 35Z" />
<glyph unicode="&#x110;" glyph-name="Dcroat" horiz-adv-x="678" d="M-29 36H17Q31 36 44 46T60 69L119 329H39L49 368H128L188 629Q191 641 186 652T167 663H116L125 700H373Q517 700 593 634T670 437Q670 342 644 262T566 124T435 33T249 0H-37L-29 36ZM252
39Q344 39 411 68T521 151T586 278T607 441Q607 661 366 661H257L189 368H392L382 329H180L114 39H252Z" />
<glyph unicode="&#x111;" glyph-name="dcroat" horiz-adv-x="571" d="M347 612H506L518 663H429L438 700H569Q585 700 580 682L563 612H635L628 579H556L441 81Q436 63 447 50T475 36H505L498 6Q493 3 482 0T452 -4Q416 -4 395 16T383 79L390 111Q352 63 301 30T183
-4Q112 -4 70 37T27 166Q27 208 35 248T59 324T93 390T135 444Q173 484 224 505T327 527Q385 527 419 511T474 477L498 579H340L347 612ZM189 35Q221 35 250 46T305 75T356 115T401 161L467 442Q455 450 443 458T414 472T377 482T328 486Q286 486 248 470T175 417Q137
377 112 313T86 166Q86 131 94 106T116 65T148 42T189 35Z" />
<glyph unicode="&#x112;" glyph-name="Emacron" horiz-adv-x="582" d="M-29 36H17Q31 36 44 46T60 69L188 629Q191 641 186 652T167 663H116L125 700H623L584 532H542L562 661H257L192 381H377L407 470H447L397 252H356L370 342H183L113 39H446L488 180H532L491
0H-37L-29 36ZM305 812H539L529 772H295L305 812Z" />
<glyph unicode="&#x113;" glyph-name="emacron" horiz-adv-x="488" d="M220 -4Q172 -4 137 11T77 52T42 116T30 197Q30 266 53 326T118 431T213 501T331 527Q361 527 387 521T433 500T464 463T476 410Q476 320 380 279T90 234Q89 226 89 216T88 196Q88 160 96
131T120 80T162 46T223 34Q254 34 278 39T320 54T351 74T375 97H409L398 53Q386 44 370 34T333 16T283 2T220 -4ZM95 272Q258 275 338 306T419 408Q419 454 393 471T329 489Q280 489 241 471T173 422T124 353T95 272ZM227 649H461L451 609H217L227 649Z" />
<glyph unicode="&#x114;" glyph-name="Ebreve" horiz-adv-x="582" d="M-29 36H17Q31 36 44 46T60 69L188 629Q191 641 186 652T167 663H116L125 700H623L584 532H542L562 661H257L192 381H377L407 470H447L397 252H356L370 342H183L113 39H446L488 180H532L491
0H-37L-29 36ZM398 746Q347 746 320 772T287 836L292 858H330Q331 825 347 807T400 788Q433 788 455 804T486 858H528L522 833Q510 796 479 771T398 746Z" />
<glyph unicode="&#x115;" glyph-name="ebreve" horiz-adv-x="488" d="M220 -4Q172 -4 137 11T77 52T42 116T30 197Q30 266 53 326T118 431T213 501T331 527Q361 527 387 521T433 500T464 463T476 410Q476 320 380 279T90 234Q89 226 89 216T88 196Q88 160 96 131T120
80T162 46T223 34Q254 34 278 39T320 54T351 74T375 97H409L398 53Q386 44 370 34T333 16T283 2T220 -4ZM95 272Q258 275 338 306T419 408Q419 454 393 471T329 489Q280 489 241 471T173 422T124 353T95 272ZM318 575Q267 575 240 601T207 665L212 687H250Q251
654 267 636T320 617Q353 617 375 633T406 687H448L442 662Q430 625 399 600T318 575Z" />
<glyph unicode="&#x116;" glyph-name="Edotaccent" horiz-adv-x="582" d="M-29 36H17Q31 36 44 46T60 69L188 629Q191 641 186 652T167 663H116L125 700H623L584 532H542L562 661H257L192 381H377L407 470H447L397 252H356L370 342H183L113 39H446L488 180H532L491
0H-37L-29 36ZM401 764Q384 764 374 775T363 801Q363 818 375 830T403 842Q420 842 430 831T441 805Q441 788 430 776T401 764Z" />
<glyph unicode="&#x117;" glyph-name="edotaccent" horiz-adv-x="488" d="M220 -4Q172 -4 137 11T77 52T42 116T30 197Q30 266 53 326T118 431T213 501T331 527Q361 527 387 521T433 500T464 463T476 410Q476 320 380 279T90 234Q89 226 89 216T88 196Q88 160
96 131T120 80T162 46T223 34Q254 34 278 39T320 54T351 74T375 97H409L398 53Q386 44 370 34T333 16T283 2T220 -4ZM95 272Q258 275 338 306T419 408Q419 454 393 471T329 489Q280 489 241 471T173 422T124 353T95 272ZM321 596Q304 596 294 607T283 633Q283 650
295 662T323 674Q340 674 350 663T361 637Q361 620 350 608T321 596Z" />
<glyph unicode="&#x118;" glyph-name="Eogonek" horiz-adv-x="582" d="M-29 36H17Q31 36 44 46T60 69L188 629Q191 641 186 652T167 663H116L125 700H623L584 532H542L562 661H257L192 381H377L407 470H447L397 252H356L370 342H183L113 39H446L488 180H532L491
0H450Q414 -24 394 -47T374 -98Q374 -111 382 -120T408 -129Q417 -129 422 -127T433 -122H456L449 -155Q439 -159 426 -161T399 -164Q362 -164 343 -148T323 -102Q323 -84 330 -70T350 -42T376 -19T405 0H-37L-29 36Z" />
<glyph unicode="&#x119;" glyph-name="eogonek" horiz-adv-x="488" d="M398 53Q379 38 354 21T307 -15T269 -55T253 -98Q253 -111 261 -120T287 -129Q296 -129 301 -127T312 -122H335L328 -155Q318 -159 305 -161T278 -164Q241 -164 222 -148T202 -102Q202 -70
226 -45T286 3Q272 0 256 -2T220 -4Q172 -4 137 11T77 52T42 116T30 197Q30 266 53 326T118 431T213 501T331 527Q361 527 387 521T433 500T464 463T476 410Q476 320 380 279T90 234Q89 226 89 216T88 196Q88 160 96 131T120 80T162 46T223 34Q254 34 278 39T320
54T351 74T375 97H409L398 53ZM95 272Q258 275 338 306T419 408Q419 454 393 471T329 489Q280 489 241 471T173 422T124 353T95 272Z" />
<glyph unicode="&#x11a;" glyph-name="Ecaron" horiz-adv-x="582" d="M531 848L430 741H373L308 848L313 868H338L405 780L506 868H536L531 848ZM-29 36H17Q31 36 44 46T60 69L188 629Q191 641 186 652T167 663H116L125 700H623L584 532H542L562 661H257L192 381H377L407
470H447L397 252H356L370 342H183L113 39H446L488 180H532L491 0H-37L-29 36Z" />
<glyph unicode="&#x11b;" glyph-name="ecaron" horiz-adv-x="488" d="M451 680L350 573H293L228 680L233 700H258L325 612L426 700H456L451 680ZM220 -4Q172 -4 137 11T77 52T42 116T30 197Q30 266 53 326T118 431T213 501T331 527Q361 527 387 521T433 500T464
463T476 410Q476 320 380 279T90 234Q89 226 89 216T88 196Q88 160 96 131T120 80T162 46T223 34Q254 34 278 39T320 54T351 74T375 97H409L398 53Q386 44 370 34T333 16T283 2T220 -4ZM95 272Q258 275 338 306T419 408Q419 454 393 471T329 489Q280 489 241 471T173
422T124 353T95 272Z" />
<glyph unicode="&#x11c;" glyph-name="Gcircumflex" horiz-adv-x="671" d="M352 764L453 871H510L575 764L570 744H545L478 832L377 744H347L352 764ZM302 -5Q182 -5 117 61T52 255Q52 345 81 426T164 570T291 668T453 705Q516 705 553 694T608 674Q622 674 630
700H670L625 509H581L595 616Q573 636 542 649T454 663Q380 663 318 632T211 546T141 417T116 256Q116 144 164 91T310 37Q341 37 365 41T408 53T444 70T478 91L521 278H420L428 315H661L653 278H616Q603 278 591 267T575 243L519 0H481Q483 15 480 25T468 36Q450
25 409 10T302 -5Z" />
<glyph unicode="&#x11d;" glyph-name="gcircumflex" horiz-adv-x="470" d="M208 593L309 700H366L431 593L426 573H401L334 661L233 573H203L208 593ZM153 -169Q102 -169 65 -160T3 -135T-34 -98T-46 -52Q-46 -25 -36 -5T-8 32T33 61T82 85Q68 91 57 106T45 144Q45
179 68 202T118 239Q74 275 74 340Q74 380 89 414T132 473T195 512T274 527Q297 527 322 522H504L496 484H429Q421 484 415 480T408 466Q433 433 433 390Q433 348 418 314T377 255T314 217T235 203Q206 203 184 208T145 222Q125 211 111 196T96 157Q96 140 109
130T143 120H268Q334 120 369 91T404 5Q404 -32 390 -64T345 -119T267 -155T153 -169ZM154 -129Q206 -129 243 -119T303 -93T338 -54T349 -8Q349 35 324 52T250 69H117Q71 52 41 23T10 -46Q10 -63 17 -78T42 -104T86 -122T154 -129ZM234 241Q299 241 338 281T378
392Q378 434 352 461T272 489Q241 489 215 478T170 446T141 398T130 337Q130 296 155 269T234 241Z" />
<glyph unicode="&#x11e;" glyph-name="Gbreve" horiz-adv-x="671" d="M302 -5Q182 -5 117 61T52 255Q52 345 81 426T164 570T291 668T453 705Q516 705 553 694T608 674Q622 674 630 700H670L625 509H581L595 616Q573 636 542 649T454 663Q380 663 318 632T211
546T141 417T116 256Q116 144 164 91T310 37Q341 37 365 41T408 53T444 70T478 91L521 278H420L428 315H661L653 278H616Q603 278 591 267T575 243L519 0H481Q483 15 480 25T468 36Q450 25 409 10T302 -5ZM454 746Q403 746 376 772T343 836L348 858H386Q387 825
403 807T456 788Q489 788 511 804T542 858H584L578 833Q566 796 535 771T454 746Z" />
<glyph unicode="&#x11f;" glyph-name="gbreve" horiz-adv-x="470" d="M153 -169Q102 -169 65 -160T3 -135T-34 -98T-46 -52Q-46 -25 -36 -5T-8 32T33 61T82 85Q68 91 57 106T45 144Q45 179 68 202T118 239Q74 275 74 340Q74 380 89 414T132 473T195 512T274 527Q297
527 322 522H504L496 484H429Q421 484 415 480T408 466Q433 433 433 390Q433 348 418 314T377 255T314 217T235 203Q206 203 184 208T145 222Q125 211 111 196T96 157Q96 140 109 130T143 120H268Q334 120 369 91T404 5Q404 -32 390 -64T345 -119T267 -155T153
-169ZM154 -129Q206 -129 243 -119T303 -93T338 -54T349 -8Q349 35 324 52T250 69H117Q71 52 41 23T10 -46Q10 -63 17 -78T42 -104T86 -122T154 -129ZM234 241Q299 241 338 281T378 392Q378 434 352 461T272 489Q241 489 215 478T170 446T141 398T130 337Q130 296
155 269T234 241ZM309 575Q258 575 231 601T198 665L203 687H241Q242 654 258 636T311 617Q344 617 366 633T397 687H439L433 662Q421 625 390 600T309 575Z" />
<glyph unicode="&#x120;" glyph-name="Gdotaccent" horiz-adv-x="671" d="M302 -5Q182 -5 117 61T52 255Q52 345 81 426T164 570T291 668T453 705Q516 705 553 694T608 674Q622 674 630 700H670L625 509H581L595 616Q573 636 542 649T454 663Q380 663 318 632T211
546T141 417T116 256Q116 144 164 91T310 37Q341 37 365 41T408 53T444 70T478 91L521 278H420L428 315H661L653 278H616Q603 278 591 267T575 243L519 0H481Q483 15 480 25T468 36Q450 25 409 10T302 -5ZM455 767Q438 767 428 778T417 804Q417 821 429 833T457
845Q474 845 484 834T495 808Q495 791 484 779T455 767Z" />
<glyph unicode="&#x121;" glyph-name="gdotaccent" horiz-adv-x="470" d="M153 -169Q102 -169 65 -160T3 -135T-34 -98T-46 -52Q-46 -25 -36 -5T-8 32T33 61T82 85Q68 91 57 106T45 144Q45 179 68 202T118 239Q74 275 74 340Q74 380 89 414T132 473T195 512T274
527Q297 527 322 522H504L496 484H429Q421 484 415 480T408 466Q433 433 433 390Q433 348 418 314T377 255T314 217T235 203Q206 203 184 208T145 222Q125 211 111 196T96 157Q96 140 109 130T143 120H268Q334 120 369 91T404 5Q404 -32 390 -64T345 -119T267 -155T153
-169ZM154 -129Q206 -129 243 -119T303 -93T338 -54T349 -8Q349 35 324 52T250 69H117Q71 52 41 23T10 -46Q10 -63 17 -78T42 -104T86 -122T154 -129ZM234 241Q299 241 338 281T378 392Q378 434 352 461T272 489Q241 489 215 478T170 446T141 398T130 337Q130 296
155 269T234 241ZM301 596Q284 596 274 607T263 633Q263 650 275 662T303 674Q320 674 330 663T341 637Q341 620 330 608T301 596Z" />
<glyph unicode="&#x122;" glyph-name="Gcommaaccent" horiz-adv-x="671" d="M208 90Q228 93 244 104T261 135Q261 140 258 144T250 151Q237 161 237 177Q237 194 248 204T275 214Q291 214 302 203T314 168Q314 120 281 94T201 61L208 90ZM302 -5Q182 -5 117 61T52
255Q52 345 81 426T164 570T291 668T453 705Q516 705 553 694T608 674Q622 674 630 700H670L625 509H581L595 616Q573 636 542 649T454 663Q380 663 318 632T211 546T141 417T116 256Q116 144 164 91T310 37Q341 37 365 41T408 53T444 70T478 91L521 278H420L428
315H661L653 278H616Q603 278 591 267T575 243L519 0H481Q483 15 480 25T468 36Q450 25 409 10T302 -5Z" />
<glyph unicode="&#x123;" glyph-name="gcommaaccent" horiz-adv-x="470" d="M380 715Q360 712 344 701T327 670Q327 665 330 661T338 654Q351 644 351 628Q351 611 340 601T313 591Q297 591 286 602T274 637Q274 685 307 711T387 744L380 715ZM153 -169Q102 -169
65 -160T3 -135T-34 -98T-46 -52Q-46 -25 -36 -5T-8 32T33 61T82 85Q68 91 57 106T45 144Q45 179 68 202T118 239Q74 275 74 340Q74 380 89 414T132 473T195 512T274 527Q297 527 322 522H504L496 484H429Q421 484 415 480T408 466Q433 433 433 390Q433 348 418
314T377 255T314 217T235 203Q206 203 184 208T145 222Q125 211 111 196T96 157Q96 140 109 130T143 120H268Q334 120 369 91T404 5Q404 -32 390 -64T345 -119T267 -155T153 -169ZM154 -129Q206 -129 243 -119T303 -93T338 -54T349 -8Q349 35 324 52T250 69H117Q71
52 41 23T10 -46Q10 -63 17 -78T42 -104T86 -122T154 -129ZM234 241Q299 241 338 281T378 392Q378 434 352 461T272 489Q241 489 215 478T170 446T141 398T130 337Q130 296 155 269T234 241Z" />
<glyph unicode="&#x124;" glyph-name="Hcircumflex" horiz-adv-x="717" d="M361 761L462 868H519L584 761L579 741H554L487 829L386 741H356L361 761ZM-29 36H17Q31 36 44 47T60 70L188 628Q191 640 186 651T167 663H116L125 700H369L360 663H258L193 382H580L645
663H542L551 700H796L787 663H740Q727 663 714 652T699 628L570 70Q567 58 572 47T590 36H642L634 0H389L397 36H500L571 342H184L113 36H216L208 0H-37L-29 36Z" />
<glyph unicode="&#x125;" glyph-name="hcircumflex" horiz-adv-x="581" d="M264 749L365 856H422L487 749L482 729H457L390 817L289 729H259L264 749ZM454 -4Q419 -4 402 19T394 82L464 386Q475 434 459 457T407 480Q377 480 346 471T285 446T227 411T175 370L90
0H53Q44 0 40 7T39 29L178 634Q180 645 175 654T159 663H110L119 700H236Q251 700 247 682L184 411Q207 432 235 453T294 490T359 517T428 527Q485 527 511 493T523 392L452 83Q447 63 457 50T485 36H515L508 6Q503 4 490 0T454 -4Z" />
<glyph unicode="&#x126;" glyph-name="Hbar" horiz-adv-x="717" d="M83 528H165L188 628Q191 640 186 651T167 663H116L125 700H369L360 663H258L226 528H613L645 663H542L551 700H796L787 663H740Q727 663 714 652T699 628L676 528H757L749 495H668L570 70Q567
58 572 47T590 36H642L634 0H389L397 36H500L571 342H184L113 36H216L208 0H-37L-29 36H17Q31 36 44 47T60 70L157 495H75L83 528ZM580 382L606 495H219L193 382H580Z" />
<glyph unicode="&#x127;" glyph-name="hbar" horiz-adv-x="581" d="M98 612H173L178 634Q180 645 175 654T159 663H110L119 700H236Q251 700 247 682L230 612H377L370 579H223L184 411Q207 432 235 453T294 490T359 517T428 527Q485 527 511 493T523 392L452 83Q447
63 457 50T485 36H515L508 6Q503 4 490 0T454 -4Q419 -4 402 19T394 82L464 386Q475 434 459 457T407 480Q377 480 346 471T285 446T227 411T175 370L90 0H53Q44 0 40 7T39 29L165 579H91L98 612Z" />
<glyph unicode="&#x12a;" glyph-name="Imacron" horiz-adv-x="286" d="M-29 36H27Q40 36 53 46T69 69L198 629Q200 641 195 652T177 663H116L125 700H365L356 663H301Q288 663 275 652T259 629L131 69Q128 57 133 47T151 36H212L204 0H-37L-29 36ZM155 812H389L379
772H145L155 812Z" />
<glyph unicode="&#x12b;" glyph-name="imacron" horiz-adv-x="241" d="M92 652H274L264 612H82L92 652ZM114 -4Q76 -4 59 19T52 84L134 439Q139 458 130 471T102 484H62L69 515Q74 517 91 521T132 526Q211 526 192 439L109 81Q104 63 115 50T144 36H175L168 6Q162
3 150 0T114 -4Z" />
<glyph unicode="&#x12e;" glyph-name="Iogonek" horiz-adv-x="286" d="M-29 36H27Q40 36 53 46T69 69L198 629Q200 641 195 652T177 663H116L125 700H365L356 663H301Q288 663 275 652T259 629L131 69Q128 57 133 47T151 36H212L204 0H153Q117 -24 97 -47T77 -98Q77
-111 85 -120T111 -129Q120 -129 125 -127T136 -122H159L152 -155Q142 -159 129 -161T102 -164Q65 -164 46 -148T26 -102Q26 -84 33 -69T53 -42T79 -19T108 0H-37L-29 36Z" />
<glyph unicode="&#x12f;" glyph-name="iogonek" horiz-adv-x="241" d="M93 -164Q56 -164 37 -148T17 -102Q17 -85 24 -70T42 -43T68 -20T96 -2Q68 3 56 25T52 84L134 439Q139 458 130 471T102 484H62L69 515Q74 517 91 521T132 526Q211 526 192 439L109 81Q104
63 115 50T144 36H175L168 6Q149 -1 131 -11T99 -35T77 -65T68 -98Q68 -111 76 -120T102 -129Q111 -129 116 -127T127 -122H150L143 -155Q133 -159 120 -161T93 -164ZM204 596Q187 596 177 607T167 633Q167 650 179 662T207 674Q224 674 234 663T245 637Q245 620
232 608T204 596Z" />
<glyph unicode="&#x130;" glyph-name="Idotaccent" horiz-adv-x="286" d="M-29 36H27Q40 36 53 46T69 69L198 629Q200 641 195 652T177 663H116L125 700H365L356 663H301Q288 663 275 652T259 629L131 69Q128 57 133 47T151 36H212L204 0H-37L-29 36ZM262 764Q245
764 235 775T224 801Q224 818 236 830T264 842Q281 842 291 831T302 805Q302 788 291 776T262 764Z" />
<glyph unicode="&#x131;" glyph-name="dotlessi" horiz-adv-x="241" d="M114 -4Q76 -4 59 19T52 84L134 439Q139 458 130 471T102 484H62L69 515Q74 517 91 521T132 526Q211 526 192 439L109 81Q104 63 115 50T144 36H175L168 6Q162 3 150 0T114 -4Z" />
<glyph unicode="&#x134;" glyph-name="Jcircumflex" horiz-adv-x="448" d="M317 761L418 868H475L540 761L535 741H510L443 829L342 741H312L317 761ZM113 -5Q59 -5 23 7T-36 34L-25 81H13Q22 64 45 51T115 37Q179 37 212 67T260 159L369 629Q371 641 366 652T348
663H293L301 700H527L518 663H472Q459 663 446 652T430 629L320 154Q301 74 253 35T113 -5Z" />
<glyph unicode="&#x135;" glyph-name="jcircumflex" horiz-adv-x="242" d="M-53 -165Q-80 -165 -97 -161T-128 -151L-119 -112H-90Q-85 -119 -77 -123T-53 -127Q-18 -127 -3 -109T21 -54L134 439Q139 459 130 471T102 484H62L70 515Q75 517 91 521T132 526Q211
526 192 439L78 -57Q54 -165 -53 -165ZM331 593L432 700H489L554 593L549 573H524L457 661L356 573H326L331 593Z" />
<glyph unicode="&#x136;" glyph-name="Kcommaaccent" horiz-adv-x="664" d="M229 90Q249 93 265 104T282 135Q282 140 279 144T271 151Q258 161 258 177Q258 194 269 204T296 214Q312 214 323 203T335 168Q335 120 302 94T222 61L229 90ZM-29 36H17Q31 36 44 46T60
69L188 629Q191 641 186 652T167 663H116L125 700H366L357 663H258L172 292L547 620Q568 639 566 651T544 663H512L520 700H721L712 663H686Q671 663 656 655T624 633L356 402L504 75Q512 57 524 47T553 36H589L581 0H451L458 32L310 364L159 234L113 36H212L205
0H-37L-29 36Z" />
<glyph unicode="&#x137;" glyph-name="kcommaaccent" horiz-adv-x="505" d="M136 90Q156 93 172 104T189 135Q189 140 186 144T178 151Q165 161 165 177Q165 194 176 204T203 214Q219 214 230 203T242 168Q242 120 209 94T129 61L136 90ZM405 -4Q375 -4 360 12T332
58L253 259Q226 242 197 226T135 196L90 0H53Q32 0 38 29L178 634Q180 645 175 654T158 663H110L119 700H236Q251 700 247 682L147 246Q205 274 254 307T344 377T412 450T457 522H514L507 491Q470 438 419 388T298 290L384 79Q391 61 404 49T435 36H462L455 8Q450
5 438 1T405 -4Z" />
<glyph unicode="&#x139;" glyph-name="Lacute" horiz-adv-x="561" d="M328 868H390L384 843L282 741H243L328 868ZM-29 36H17Q31 36 44 46T60 69L188 629Q191 641 186 652T167 663H116L125 700H377L368 663H258L114 39H428L475 194H519L475 0H-37L-29 36Z" />
<glyph unicode="&#x13a;" glyph-name="lacute" horiz-adv-x="248" d="M281 856H343L337 831L235 729H196L281 856ZM121 -4Q82 -4 65 19T57 84L184 634Q186 645 179 654T161 663H110L119 700H242Q256 700 253 682L114 81Q109 63 119 50T147 36H183L176 6Q170 4
156 0T121 -4Z" />
<glyph unicode="&#x13b;" glyph-name="Lcommaaccent" horiz-adv-x="561" d="M156 90Q176 93 192 104T209 135Q209 140 206 144T198 151Q185 161 185 177Q185 194 196 204T223 214Q239 214 250 203T262 168Q262 120 229 94T149 61L156 90ZM-29 36H17Q31 36 44 46T60
69L188 629Q191 641 186 652T167 663H116L125 700H377L368 663H258L114 39H428L475 194H519L475 0H-37L-29 36Z" />
<glyph unicode="&#x13c;" glyph-name="lcommaaccent" horiz-adv-x="248" d="M255 90Q275 93 291 104T308 135Q308 140 305 144T297 151Q284 161 284 177Q284 194 295 204T322 214Q338 214 349 203T361 168Q361 120 328 94T248 61L255 90ZM121 -4Q82 -4 65 19T57
84L184 634Q186 645 179 654T161 663H110L119 700H242Q256 700 253 682L114 81Q109 63 119 50T147 36H183L176 6Q170 4 156 0T121 -4Z" />
<glyph unicode="&#x13d;" glyph-name="Lcaron" horiz-adv-x="561" d="M476 700H532L527 675L461 557H424L476 700ZM-29 36H17Q31 36 44 46T60 69L188 629Q191 641 186 652T167 663H116L125 700H377L368 663H258L114 39H428L475 194H519L475 0H-37L-29 36Z" />
<glyph unicode="&#x13e;" glyph-name="lcaron" horiz-adv-x="248" d="M121 -4Q82 -4 65 19T57 84L184 634Q186 645 179 654T161 663H110L119 700H242Q256 700 253 682L114 81Q109 63 119 50T147 36H183L176 6Q170 4 156 0T121 -4ZM320 700H371L365 675L309 571H273L320
700Z" />
<glyph unicode="&#x141;" glyph-name="Lslash" horiz-adv-x="561" d="M-29 36H17Q31 36 44 46T60 69L105 268L12 232L22 277L116 313L188 629Q191 641 186 652T167 663H116L125 700H377L368 663H258L183 339L429 434L418 389L173 294L114 39H428L475 194H519L475
0H-37L-29 36Z" />
<glyph unicode="&#x142;" glyph-name="lslash" horiz-adv-x="248" d="M121 -4Q82 -4 65 19T57 84L114 333L26 277L37 323L125 378L184 634Q186 645 179 654T161 663H110L119 700H242Q256 700 253 682L193 421L282 478L271 432L182 376L114 81Q109 63 119 50T147
36H183L176 6Q170 4 156 0T121 -4Z" />
<glyph unicode="&#x143;" glyph-name="Nacute" horiz-adv-x="709" d="M512 868H574L568 843L466 741H427L512 868ZM-29 36H17Q31 36 44 47T60 70L188 629Q191 641 186 652T167 663H116L125 700H277L522 93H523L654 663H553L562 700H792L783 663H737Q724 663 711
653T696 631L551 0H498L243 631H238L101 36H204L196 0H-37L-29 36Z" />
<glyph unicode="&#x144;" glyph-name="nacute" horiz-adv-x="581" d="M405 700H467L461 675L359 573H320L405 700ZM454 -4Q419 -4 402 19T394 82L464 386Q475 434 459 457T408 480Q377 480 346 471T285 446T227 411T175 370L90 0H53Q44 0 40 7T39 29L133 439Q138
458 129 471T100 484H62L69 515Q74 517 92 521T130 526Q164 526 182 505T190 436L184 411Q207 432 235 453T294 490T359 517T428 527Q485 527 511 493T523 392L452 83Q447 63 457 50T485 36H515L508 6Q503 4 490 0T454 -4Z" />
<glyph unicode="&#x145;" glyph-name="Ncommaaccent" horiz-adv-x="709" d="M233 90Q253 93 269 104T286 135Q286 140 283 144T275 151Q262 161 262 177Q262 194 273 204T300 214Q316 214 327 203T339 168Q339 120 306 94T226 61L233 90ZM-29 36H17Q31 36 44 47T60
70L188 629Q191 641 186 652T167 663H116L125 700H277L522 93H523L654 663H553L562 700H792L783 663H737Q724 663 711 653T696 631L551 0H498L243 631H238L101 36H204L196 0H-37L-29 36Z" />
<glyph unicode="&#x146;" glyph-name="ncommaaccent" horiz-adv-x="581" d="M171 90Q191 93 207 104T224 135Q224 140 221 144T213 151Q200 161 200 177Q200 194 211 204T238 214Q254 214 265 203T277 168Q277 120 244 94T164 61L171 90ZM454 -4Q419 -4 402 19T394
82L464 386Q475 434 459 457T408 480Q377 480 346 471T285 446T227 411T175 370L90 0H53Q44 0 40 7T39 29L133 439Q138 458 129 471T100 484H62L69 515Q74 517 92 521T130 526Q164 526 182 505T190 436L184 411Q207 432 235 453T294 490T359 517T428 527Q485 527
511 493T523 392L452 83Q447 63 457 50T485 36H515L508 6Q503 4 490 0T454 -4Z" />
<glyph unicode="&#x147;" glyph-name="Ncaron" horiz-adv-x="709" d="M588 848L487 741H430L365 848L370 868H395L462 780L563 868H593L588 848ZM-29 36H17Q31 36 44 47T60 70L188 629Q191 641 186 652T167 663H116L125 700H277L522 93H523L654 663H553L562 700H792L783
663H737Q724 663 711 653T696 631L551 0H498L243 631H238L101 36H204L196 0H-37L-29 36Z" />
<glyph unicode="&#x148;" glyph-name="ncaron" horiz-adv-x="581" d="M474 680L373 573H316L251 680L256 700H281L348 612L449 700H479L474 680ZM454 -4Q419 -4 402 19T394 82L464 386Q475 434 459 457T408 480Q377 480 346 471T285 446T227 411T175 370L90 0H53Q44
0 40 7T39 29L133 439Q138 458 129 471T100 484H62L69 515Q74 517 92 521T130 526Q164 526 182 505T190 436L184 411Q207 432 235 453T294 490T359 517T428 527Q485 527 511 493T523 392L452 83Q447 63 457 50T485 36H515L508 6Q503 4 490 0T454 -4Z" />
<glyph unicode="&#x14c;" glyph-name="Omacron" horiz-adv-x="706" d="M347 821H581L571 781H337L347 821ZM321 -5Q259 -5 210 13T125 66T72 151T53 267Q53 363 84 443T166 582T285 672T425 705Q486 705 536 687T621 633T675 548T694 432Q694 335 663 255T580
117T461 27T321 -5ZM324 37Q386 37 441 66T539 148T606 274T631 435Q631 545 577 604T422 663Q360 663 305 634T207 552T141 426T116 264Q116 153 170 95T324 37Z" />
<glyph unicode="&#x14d;" glyph-name="omacron" horiz-adv-x="549" d="M237 649H471L461 609H227L237 649ZM235 -4Q138 -4 84 51T30 204Q30 271 52 329T112 432T203 501T318 527Q365 527 402 513T466 471T507 407T521 323Q521 256 500 197T440 93T350 22T235 -4ZM237
34Q288 34 330 58T401 122T447 216T463 326Q463 403 425 445T315 487Q264 487 223 464T151 402T105 310T88 198Q88 119 126 77T237 34Z" />
<glyph unicode="&#x150;" glyph-name="Ohungarumlaut" horiz-adv-x="706" d="M425 878H477L471 853L396 751H359L425 878ZM546 878H598L592 853L517 751H480L546 878ZM321 -5Q259 -5 210 13T125 66T72 151T53 267Q53 363 84 443T166 582T285 672T425 705Q486 705
536 687T621 633T675 548T694 432Q694 335 663 255T580 117T461 27T321 -5ZM324 37Q386 37 441 66T539 148T606 274T631 435Q631 545 577 604T422 663Q360 663 305 634T207 552T141 426T116 264Q116 153 170 95T324 37Z" />
<glyph unicode="&#x151;" glyph-name="ohungarumlaut" horiz-adv-x="549" d="M314 700H366L360 675L285 573H248L314 700ZM435 700H487L481 675L406 573H369L435 700ZM235 -4Q138 -4 84 51T30 204Q30 271 52 329T112 432T203 501T318 527Q365 527 402 513T466
471T507 407T521 323Q521 256 500 197T440 93T350 22T235 -4ZM237 34Q288 34 330 58T401 122T447 216T463 326Q463 403 425 445T315 487Q264 487 223 464T151 402T105 310T88 198Q88 119 126 77T237 34Z" />
<glyph unicode="&#x152;" glyph-name="OE" horiz-adv-x="964" d="M966 532H924L944 661H645L580 381H759L789 470H829L779 252H738L752 342H571L501 39H828L870 180H914L873 0H349Q205 0 129 66T52 263Q52 358 79 438T159 576T291 667T472 700H1005L966 532ZM440
40L583 661H469Q380 661 314 632T204 549T138 421T116 259Q116 147 175 94T356 40H440Z" />
<glyph unicode="&#x153;" glyph-name="oe" horiz-adv-x="909" d="M235 -4Q138 -4 84 51T30 204Q30 271 52 329T112 432T203 501T318 527Q399 527 445 488T504 377Q542 444 606 485T752 527Q782 527 808 521T854 500T885 463T897 410Q897 320 801 279T511 234Q510
224 510 215T509 196Q509 122 541 78T644 34Q675 34 699 39T741 54T772 74T796 97H830L819 53Q807 44 791 34T754 16T704 2T641 -4Q561 -4 519 34T464 138Q429 74 371 35T235 -4ZM237 34Q288 34 330 58T401 122T447 216T463 326Q463 403 425 445T315 487Q264 487
223 464T151 402T105 310T88 198Q88 119 126 77T237 34ZM516 272Q681 275 761 305T841 408Q841 431 834 446T814 471T785 485T750 489Q702 489 664 472T596 426T546 357T516 272Z" />
<glyph unicode="&#x154;" glyph-name="Racute" horiz-adv-x="641" d="M430 868H492L486 843L384 741H345L430 868ZM-29 36H17Q31 36 44 46T60 69L188 629Q191 641 186 652T167 663H116L125 700H376Q421 700 459 691T526 663T569 615T585 547Q585 497 568 461T524
400T462 361T391 340V338Q414 331 431 322T461 296T482 254T496 189L512 65Q515 36 535 36H571L563 0H454L436 188Q432 227 424 253T400 294T360 316T299 323H179L113 36H205L197 0H-37L-29 36ZM310 362Q413 362 467 408T522 543Q522 606 481 634T370 662H257L188
362H310Z" />
<glyph unicode="&#x155;" glyph-name="racute" horiz-adv-x="362" d="M573 700H635L629 675L527 573H488L573 700ZM53 0Q44 0 40 7T39 29L133 439Q138 458 129 471T100 484H62L69 515Q74 517 92 521T129 526Q164 526 182 504T189 432L183 408Q201 430 221 451T265
488T314 515T369 525Q379 525 385 524T394 522L383 474H376Q373 474 370 474T363 475Q334 475 309 466T260 441T215 404T173 360L90 0H53V0Z" />
<glyph unicode="&#x156;" glyph-name="Rcommaaccent" horiz-adv-x="641" d="M226 90Q246 93 262 104T279 135Q279 140 276 144T268 151Q255 161 255 177Q255 194 266 204T293 214Q309 214 320 203T332 168Q332 120 299 94T219 61L226 90ZM-29 36H17Q31 36 44 46T60
69L188 629Q191 641 186 652T167 663H116L125 700H376Q421 700 459 691T526 663T569 615T585 547Q585 497 568 461T524 400T462 361T391 340V338Q414 331 431 322T461 296T482 254T496 189L512 65Q515 36 535 36H571L563 0H454L436 188Q432 227 424 253T400 294T360
316T299 323H179L113 36H205L197 0H-37L-29 36ZM310 362Q413 362 467 408T522 543Q522 606 481 634T370 662H257L188 362H310Z" />
<glyph unicode="&#x157;" glyph-name="rcommaaccent" horiz-adv-x="362" d="M240 90Q260 93 276 104T293 135Q293 140 290 144T282 151Q269 161 269 177Q269 194 280 204T307 214Q323 214 334 203T346 168Q346 120 313 94T233 61L240 90ZM53 0Q44 0 40 7T39 29L133
439Q138 458 129 471T100 484H62L69 515Q74 517 92 521T129 526Q164 526 182 504T189 432L183 408Q201 430 221 451T265 488T314 515T369 525Q379 525 385 524T394 522L383 474H376Q373 474 370 474T363 475Q334 475 309 466T260 441T215 404T173 360L90 0H53V0Z"
/>
<glyph unicode="&#x158;" glyph-name="Rcaron" horiz-adv-x="641" d="M498 848L397 741H340L275 848L280 868H305L372 780L473 868H503L498 848ZM-29 36H17Q31 36 44 46T60 69L188 629Q191 641 186 652T167 663H116L125 700H376Q421 700 459 691T526 663T569 615T585
547Q585 497 568 461T524 400T462 361T391 340V338Q414 331 431 322T461 296T482 254T496 189L512 65Q515 36 535 36H571L563 0H454L436 188Q432 227 424 253T400 294T360 316T299 323H179L113 36H205L197 0H-37L-29 36ZM310 362Q413 362 467 408T522 543Q522 606
481 634T370 662H257L188 362H310Z" />
<glyph unicode="&#x159;" glyph-name="rcaron" horiz-adv-x="362" d="M641 680L540 573H483L418 680L423 700H448L515 612L616 700H646L641 680ZM53 0Q44 0 40 7T39 29L133 439Q138 458 129 471T100 484H62L69 515Q74 517 92 521T129 526Q164 526 182 504T189
432L183 408Q201 430 221 451T265 488T314 515T369 525Q379 525 385 524T394 522L383 474H376Q373 474 370 474T363 475Q334 475 309 466T260 441T215 404T173 360L90 0H53V0Z" />
<glyph unicode="&#x15a;" glyph-name="Sacute" horiz-adv-x="516" d="M417 871H479L473 846L371 744H332L417 871ZM213 -5Q177 -5 148 -1T98 10T64 22T43 33Q37 33 32 24T23 0H-19L26 196H70L54 90Q64 81 77 72T109 55T153 42T214 37Q257 37 293 47T355 77T397
129T412 201Q412 231 400 251T366 287T317 315T258 343Q229 356 203 371T156 407T125 453T113 517Q113 557 127 591T170 650T241 690T338 705Q400 705 434 693T482 673Q493 673 503 700H544L503 524H460L472 614Q454 631 422 647T335 663Q249 663 208 624T167 521Q167
494 176 475T202 440T242 413T293 388Q330 371 362 355T417 319T454 272T468 206Q468 157 450 118T398 52T317 10T213 -5Z" />
<glyph unicode="&#x15b;" glyph-name="sacute" horiz-adv-x="416" d="M337 703H399L393 678L291 576H252L337 703ZM156 -4Q124 -4 99 -1T54 7T18 20T-15 36L6 125H44Q42 101 44 85T56 58Q71 44 95 39T155 34Q192 34 219 43T265 67T292 103T301 148Q301 169 293
183T271 208T236 228T192 247Q164 258 142 269T104 296T80 331T72 378Q72 447 122 487T262 527Q320 527 353 517T412 492L393 406H357Q358 428 356 444T343 468Q330 479 312 483T258 487Q190 487 157 460T124 386Q124 366 131 353T153 328T186 308T229 290Q259
278 282 266T321 238T346 202T355 153Q355 119 342 90T304 40T241 8T156 -4Z" />
<glyph unicode="&#x15c;" glyph-name="Scircumflex" horiz-adv-x="516" d="M253 764L354 871H411L476 764L471 744H446L379 832L278 744H248L253 764ZM213 -5Q177 -5 148 -1T98 10T64 22T43 33Q37 33 32 24T23 0H-19L26 196H70L54 90Q64 81 77 72T109 55T153 42T214
37Q257 37 293 47T355 77T397 129T412 201Q412 231 400 251T366 287T317 315T258 343Q229 356 203 371T156 407T125 453T113 517Q113 557 127 591T170 650T241 690T338 705Q400 705 434 693T482 673Q493 673 503 700H544L503 524H460L472 614Q454 631 422 647T335
663Q249 663 208 624T167 521Q167 494 176 475T202 440T242 413T293 388Q330 371 362 355T417 319T454 272T468 206Q468 157 450 118T398 52T317 10T213 -5Z" />
<glyph unicode="&#x15d;" glyph-name="scircumflex" horiz-adv-x="416" d="M173 596L274 703H331L396 596L391 576H366L299 664L198 576H168L173 596ZM156 -4Q124 -4 99 -1T54 7T18 20T-15 36L6 125H44Q42 101 44 85T56 58Q71 44 95 39T155 34Q192 34 219 43T265
67T292 103T301 148Q301 169 293 183T271 208T236 228T192 247Q164 258 142 269T104 296T80 331T72 378Q72 447 122 487T262 527Q320 527 353 517T412 492L393 406H357Q358 428 356 444T343 468Q330 479 312 483T258 487Q190 487 157 460T124 386Q124 366 131 353T153
328T186 308T229 290Q259 278 282 266T321 238T346 202T355 153Q355 119 342 90T304 40T241 8T156 -4Z" />
<glyph unicode="&#x15e;" glyph-name="Scedilla" horiz-adv-x="516" d="M175 -174Q146 -174 130 -169T100 -156L108 -124H133Q138 -131 148 -136T175 -142Q225 -142 225 -103Q225 -88 213 -80T174 -71H162L177 -4Q120 0 87 13T43 33Q37 33 32 24T23 0H-19L26 196H70L54
90Q64 81 77 72T109 55T153 42T214 37Q257 37 293 47T355 77T397 129T412 201Q412 231 400 251T366 287T317 315T258 343Q229 356 203 371T156 407T125 453T113 517Q113 557 127 591T170 650T241 690T338 705Q400 705 434 693T482 673Q493 673 503 700H544L503
524H460L472 614Q454 631 422 647T335 663Q249 663 208 624T167 521Q167 494 176 475T202 440T242 413T293 388Q330 371 362 355T417 319T454 272T468 206Q468 157 450 118T398 52T317 10T213 -5H212L204 -41Q235 -43 253 -59T272 -102Q272 -137 246 -155T175 -174Z"
/>
<glyph unicode="&#x15f;" glyph-name="scedilla" horiz-adv-x="416" d="M115 -174Q86 -174 70 -169T40 -156L48 -124H73Q78 -131 88 -136T115 -142Q165 -142 165 -103Q165 -88 153 -80T114 -71H102L117 -3Q71 0 41 10T-15 36L6 125H44Q42 101 44 85T56 58Q71 44
95 39T155 34Q192 34 219 43T265 67T292 103T301 148Q301 169 293 183T271 208T236 228T192 247Q164 258 142 269T104 296T80 331T72 378Q72 447 122 487T262 527Q320 527 353 517T412 492L393 406H357Q358 428 356 444T343 468Q330 479 312 483T258 487Q190 487
157 460T124 386Q124 366 131 353T153 328T186 308T229 290Q259 278 282 266T321 238T346 202T355 153Q355 119 342 90T304 40T241 8T156 -4H152L144 -41Q175 -43 193 -59T212 -102Q212 -137 186 -155T115 -174Z" />
<glyph unicode="&#x160;" glyph-name="Scaron" horiz-adv-x="516" d="M485 851L384 744H327L262 851L267 871H292L359 783L460 871H490L485 851ZM213 -5Q177 -5 148 -1T98 10T64 22T43 33Q37 33 32 24T23 0H-19L26 196H70L54 90Q64 81 77 72T109 55T153 42T214
37Q257 37 293 47T355 77T397 129T412 201Q412 231 400 251T366 287T317 315T258 343Q229 356 203 371T156 407T125 453T113 517Q113 557 127 591T170 650T241 690T338 705Q400 705 434 693T482 673Q493 673 503 700H544L503 524H460L472 614Q454 631 422 647T335
663Q249 663 208 624T167 521Q167 494 176 475T202 440T242 413T293 388Q330 371 362 355T417 319T454 272T468 206Q468 157 450 118T398 52T317 10T213 -5Z" />
<glyph unicode="&#x161;" glyph-name="scaron" horiz-adv-x="416" d="M663 683L562 576H505L440 683L445 703H470L537 615L638 703H668L663 683ZM156 -4Q124 -4 99 -1T54 7T18 20T-15 36L6 125H44Q42 101 44 85T56 58Q71 44 95 39T155 34Q192 34 219 43T265 67T292
103T301 148Q301 169 293 183T271 208T236 228T192 247Q164 258 142 269T104 296T80 331T72 378Q72 447 122 487T262 527Q320 527 353 517T412 492L393 406H357Q358 428 356 444T343 468Q330 479 312 483T258 487Q190 487 157 460T124 386Q124 366 131 353T153
328T186 308T229 290Q259 278 282 266T321 238T346 202T355 153Q355 119 342 90T304 40T241 8T156 -4Z" />
<glyph unicode="&#x162;" glyph-name="Tcommaaccent" horiz-adv-x="625" d="M170 90Q190 93 206 104T223 135Q223 140 220 144T212 151Q199 161 199 177Q199 194 210 204T237 214Q253 214 264 203T276 168Q276 120 243 94T163 61L170 90ZM144 36H198Q211 36 223
46T239 69L375 661H178L134 509H90L134 700H695L650 509H607L633 661H436L300 69Q297 57 302 47T322 36H378L370 0H136L144 36Z" />
<glyph unicode="&#x163;" glyph-name="tcommaaccent" horiz-adv-x="306" d="M284 90Q304 93 320 104T337 135Q337 140 334 144T326 151Q313 161 313 177Q313 194 324 204T351 214Q367 214 378 203T390 168Q390 120 357 94T277 61L284 90ZM158 -5Q92 -5 68 31T57
131L139 484H67L76 522H147L181 666H238L205 522H332L323 484H196L115 131Q104 85 114 60T163 35Q177 35 190 37T213 45H242L234 9Q218 3 200 -1T158 -5Z" />
<glyph unicode="&#x164;" glyph-name="Tcaron" horiz-adv-x="625" d="M549 848L448 741H391L326 848L331 868H356L423 780L524 868H554L549 848ZM144 36H198Q211 36 223 46T239 69L375 661H178L134 509H90L134 700H695L650 509H607L633 661H436L300 69Q297 57
302 47T322 36H378L370 0H136L144 36Z" />
<glyph unicode="&#x165;" glyph-name="tcaron" horiz-adv-x="306" d="M313 700H364L358 675L302 571H266L313 700ZM158 -5Q92 -5 68 31T57 131L139 484H67L76 522H147L181 666H238L205 522H332L323 484H196L115 131Q104 85 114 60T163 35Q177 35 190 37T213 45H242L234
9Q218 3 200 -1T158 -5Z" />
<glyph unicode="&#x16a;" glyph-name="Umacron" horiz-adv-x="709" d="M323 -5Q264 -5 216 9T135 54T92 131T95 244L183 628Q186 640 181 651T163 663H116L125 700H362L353 663H253L155 238Q142 179 151 141T184 80T246 48T325 39Q369 39 405 47T470 77T520 134T553
224L654 663H555L564 700H788L779 663H736Q722 663 710 651T695 628L601 220Q586 157 562 114T503 45T423 7T323 -5ZM368 812H602L592 772H358L368 812Z" />
<glyph unicode="&#x16b;" glyph-name="umacron" horiz-adv-x="575" d="M164 -6Q104 -6 75 31T61 138L130 439Q135 458 126 471T98 484H62L70 515Q76 517 92 521T130 526Q166 526 181 502T187 434L120 143Q108 90 126 65T186 39Q215 39 243 48T298 71T350 105T399
145L486 522H524Q544 522 538 493L444 82Q439 63 449 50T476 36H510L503 6Q496 3 483 0T447 -4Q412 -4 395 18T386 81L391 104Q369 82 343 62T289 27T229 3T164 -6ZM239 652H473L463 612H229L239 652Z" />
<glyph unicode="&#x16c;" glyph-name="Ubreve" horiz-adv-x="709" d="M323 -5Q264 -5 216 9T135 54T92 131T95 244L183 628Q186 640 181 651T163 663H116L125 700H362L353 663H253L155 238Q142 179 151 141T184 80T246 48T325 39Q369 39 405 47T470 77T520 134T553
224L654 663H555L564 700H788L779 663H736Q722 663 710 651T695 628L601 220Q586 157 562 114T503 45T423 7T323 -5ZM462 743Q411 743 384 769T351 833L356 855H394Q395 822 411 804T464 785Q497 785 519 801T550 855H592L586 830Q574 793 543 768T462 743Z" />
<glyph unicode="&#x16d;" glyph-name="ubreve" horiz-adv-x="575" d="M164 -6Q104 -6 75 31T61 138L130 439Q135 458 126 471T98 484H62L70 515Q76 517 92 521T130 526Q166 526 181 502T187 434L120 143Q108 90 126 65T186 39Q215 39 243 48T298 71T350 105T399
145L486 522H524Q544 522 538 493L444 82Q439 63 449 50T476 36H510L503 6Q496 3 483 0T447 -4Q412 -4 395 18T386 81L391 104Q369 82 343 62T289 27T229 3T164 -6ZM345 578Q294 578 267 604T234 668L239 690H277Q278 657 294 639T347 620Q380 620 402 636T433
690H475L469 665Q457 628 426 603T345 578Z" />
<glyph unicode="&#x16e;" glyph-name="Uring" horiz-adv-x="709" d="M469 716Q431 716 405 738T378 800Q378 822 386 839T407 869T438 888T474 895Q511 895 536 872T562 810Q562 788 554 771T533 741T503 723T469 716ZM469 747Q492 747 509 763T527 809Q527 833
512 848T473 864Q447 864 430 847T413 800Q413 776 428 762T469 747ZM323 -5Q264 -5 216 9T135 54T92 131T95 244L183 628Q186 640 181 651T163 663H116L125 700H362L353 663H253L155 238Q142 179 151 141T184 80T246 48T325 39Q369 39 405 47T470 77T520 134T553
224L654 663H555L564 700H788L779 663H736Q722 663 710 651T695 628L601 220Q586 157 562 114T503 45T423 7T323 -5Z" />
<glyph unicode="&#x16f;" glyph-name="uring" horiz-adv-x="575" d="M350 577Q312 577 286 599T259 661Q259 683 267 700T288 730T319 749T355 756Q392 756 417 733T443 671Q443 649 435 632T414 602T384 584T350 577ZM350 608Q373 608 390 624T408 670Q408 694
393 709T354 725Q328 725 311 708T294 661Q294 637 309 623T350 608ZM164 -6Q104 -6 75 31T61 138L130 439Q135 458 126 471T98 484H62L70 515Q76 517 92 521T130 526Q166 526 181 502T187 434L120 143Q108 90 126 65T186 39Q215 39 243 48T298 71T350 105T399
145L486 522H524Q544 522 538 493L444 82Q439 63 449 50T476 36H510L503 6Q496 3 483 0T447 -4Q412 -4 395 18T386 81L391 104Q369 82 343 62T289 27T229 3T164 -6Z" />
<glyph unicode="&#x170;" glyph-name="Uhungarumlaut" horiz-adv-x="709" d="M323 -5Q264 -5 216 9T135 54T92 131T95 244L183 628Q186 640 181 651T163 663H116L125 700H362L353 663H253L155 238Q142 179 151 141T184 80T246 48T325 39Q369 39 405 47T470 77T520
134T553 224L654 663H555L564 700H788L779 663H736Q722 663 710 651T695 628L601 220Q586 157 562 114T503 45T423 7T323 -5ZM446 868H498L492 843L417 741H380L446 868ZM567 868H619L613 843L538 741H501L567 868Z" />
<glyph unicode="&#x171;" glyph-name="uhungarumlaut" horiz-adv-x="575" d="M164 -6Q104 -6 75 31T61 138L130 439Q135 458 126 471T98 484H62L70 515Q76 517 92 521T130 526Q166 526 181 502T187 434L120 143Q108 90 126 65T186 39Q215 39 243 48T298 71T350
105T399 145L486 522H524Q544 522 538 493L444 82Q439 63 449 50T476 36H510L503 6Q496 3 483 0T447 -4Q412 -4 395 18T386 81L391 104Q369 82 343 62T289 27T229 3T164 -6ZM328 703H380L374 678L299 576H262L328 703ZM449 703H501L495 678L420 576H383L449 703Z"
/>
<glyph unicode="&#x172;" glyph-name="Uogonek" horiz-adv-x="709" d="M332 -5Q269 -5 218 9T135 53T91 131T95 244L183 628Q186 640 181 651T163 663H116L125 700H362L353 663H253L155 238Q142 179 151 141T184 80T246 48T325 39Q369 39 405 47T470 77T520 134T553
224L654 663H555L564 700H788L779 663H736Q722 663 710 651T695 628L601 220Q583 143 551 96T470 24Q453 16 436 10T402 -2T369 -15T340 -36Q310 -63 310 -97Q310 -111 318 -120T344 -129Q353 -129 358 -127T369 -122H392L385 -155Q375 -159 362 -161T335 -164Q298
-164 279 -148T259 -102Q259 -69 282 -45T332 -5Z" />
<glyph unicode="&#x173;" glyph-name="uogonek" horiz-adv-x="575" d="M164 -6Q104 -6 75 31T61 138L130 439Q135 458 126 471T98 484H62L70 515Q76 517 92 521T130 526Q166 526 181 502T187 434L120 143Q108 90 126 65T186 39Q215 39 243 48T298 71T350 105T399
145L486 522H524Q544 522 538 493L444 82Q439 63 449 50T476 36H510L503 6Q457 -11 430 -38T403 -98Q403 -111 411 -120T437 -129Q446 -129 451 -127T462 -122H485L478 -155Q468 -159 455 -161T428 -164Q391 -164 372 -148T352 -102Q352 -68 376 -44T428 -2Q402
3 390 24T386 81L391 104Q369 82 343 62T289 27T229 3T164 -6Z" />
<glyph unicode="&#x178;" glyph-name="Ydieresis" horiz-adv-x="637" d="M152 36H205Q218 36 231 46T247 69L299 301L178 624Q172 641 161 652T132 663H114L123 700H332L323 663H227L346 341H347L558 603Q583 632 577 647T544 663H500L508 700H717L708 663H689Q673
663 659 653T630 626L359 292L308 69Q305 57 310 47T329 36H387L379 0H144L152 36ZM370 765Q354 765 344 775T334 801Q334 818 345 829T373 841Q389 841 399 830T409 805Q409 788 398 777T370 765ZM516 765Q500 765 490 775T480 801Q480 818 492 829T519 841Q535
841 545 830T555 805Q555 788 544 777T516 765Z" />
<glyph unicode="&#x179;" glyph-name="Zacute" horiz-adv-x="544" d="M448 868H510L504 843L402 741H363L448 868ZM41 39H406L446 172H490L451 0H-37L-27 43L537 659V661H188L150 534H107L145 700H617L606 656L41 41V39Z" />
<glyph unicode="&#x17a;" glyph-name="zacute" horiz-adv-x="468" d="M363 700H425L419 675L317 573H278L363 700ZM-28 41L427 482H146L114 377H74L107 522H502L493 480L39 40H330L361 146H403L369 0H-37L-28 41Z" />
<glyph unicode="&#x17b;" glyph-name="Zdotaccent" horiz-adv-x="544" d="M41 39H406L446 172H490L451 0H-37L-27 43L537 659V661H188L150 534H107L145 700H617L606 656L41 41V39ZM386 764Q369 764 359 775T348 801Q348 818 360 830T388 842Q405 842 415 831T426
805Q426 788 415 776T386 764Z" />
<glyph unicode="&#x17c;" glyph-name="zdotaccent" horiz-adv-x="468" d="M-28 41L427 482H146L114 377H74L107 522H502L493 480L39 40H330L361 146H403L369 0H-37L-28 41ZM301 596Q284 596 274 607T263 633Q263 650 275 662T303 674Q320 674 330 663T341 637Q341
620 330 608T301 596Z" />
<glyph unicode="&#x17d;" glyph-name="Zcaron" horiz-adv-x="544" d="M516 848L415 741H358L293 848L298 868H323L390 780L491 868H521L516 848ZM41 39H406L446 172H490L451 0H-37L-27 43L537 659V661H188L150 534H107L145 700H617L606 656L41 41V39Z" />
<glyph unicode="&#x17e;" glyph-name="zcaron" horiz-adv-x="468" d="M431 680L330 573H273L208 680L213 700H238L305 612L406 700H436L431 680ZM-28 41L427 482H146L114 377H74L107 522H502L493 480L39 40H330L361 146H403L369 0H-37L-28 41Z" />
<glyph unicode="&#x192;" glyph-name="florin" horiz-adv-x="335" d="M-19 -53Q7 -42 29 -20T62 52L139 388H69L77 426H147L181 576Q197 646 237 675T334 705Q363 705 380 701T408 692L399 650H372Q368 654 360 658T332 663Q296 663 275 645T242 574L207 426H322L313
388H199L121 49Q108 -8 78 -40T4 -89H-26L-19 -53Z" />
<glyph unicode="&#x218;" glyph-name="Scommaaccent" horiz-adv-x="516" d="M124 -158Q144 -155 160 -144T177 -113Q177 -108 174 -104T166 -97Q153 -87 153 -71Q153 -54 164 -44T191 -34Q207 -34 218 -45T230 -80Q230 -128 197 -154T117 -187L124 -158ZM213 -5Q177
-5 148 -1T98 10T64 22T43 33Q37 33 32 24T23 0H-19L26 196H70L54 90Q64 81 77 72T109 55T153 42T214 37Q257 37 293 47T355 77T397 129T412 201Q412 231 400 251T366 287T317 315T258 343Q229 356 203 371T156 407T125 453T113 517Q113 557 127 591T170 650T241
690T338 705Q400 705 434 693T482 673Q493 673 503 700H544L503 524H460L472 614Q454 631 422 647T335 663Q249 663 208 624T167 521Q167 494 176 475T202 440T242 413T293 388Q330 371 362 355T417 319T454 272T468 206Q468 157 450 118T398 52T317 10T213 -5Z"
/>
<glyph unicode="&#x219;" glyph-name="scommaaccent" horiz-adv-x="416" d="M339 -158Q359 -155 375 -144T392 -113Q392 -108 389 -104T381 -97Q368 -87 368 -71Q368 -54 379 -44T406 -34Q422 -34 433 -45T445 -80Q445 -128 412 -154T332 -187L339 -158ZM156 -4Q124
-4 99 -1T54 7T18 20T-15 36L6 125H44Q42 101 44 85T56 58Q71 44 95 39T155 34Q192 34 219 43T265 67T292 103T301 148Q301 169 293 183T271 208T236 228T192 247Q164 258 142 269T104 296T80 331T72 378Q72 447 122 487T262 527Q320 527 353 517T412 492L393 406H357Q358
428 356 444T343 468Q330 479 312 483T258 487Q190 487 157 460T124 386Q124 366 131 353T153 328T186 308T229 290Q259 278 282 266T321 238T346 202T355 153Q355 119 342 90T304 40T241 8T156 -4Z" />
<glyph unicode="&#x21a;" glyph-name="uni021A" horiz-adv-x="625" d="M170 90Q190 93 206 104T223 135Q223 140 220 144T212 151Q199 161 199 177Q199 194 210 204T237 214Q253 214 264 203T276 168Q276 120 243 94T163 61L170 90ZM144 36H198Q211 36 223 46T239
69L375 661H178L134 509H90L134 700H695L650 509H607L633 661H436L300 69Q297 57 302 47T322 36H378L370 0H136L144 36Z" />
<glyph unicode="&#x21b;" glyph-name="uni021B" horiz-adv-x="306" d="M284 90Q304 93 320 104T337 135Q337 140 334 144T326 151Q313 161 313 177Q313 194 324 204T351 214Q367 214 378 203T390 168Q390 120 357 94T277 61L284 90ZM158 -5Q92 -5 68 31T57 131L139
484H67L76 522H147L181 666H238L205 522H332L323 484H196L115 131Q104 85 114 60T163 35Q177 35 190 37T213 45H242L234 9Q218 3 200 -1T158 -5Z" />
<glyph unicode="&#x237;" glyph-name="uni0237" horiz-adv-x="224" d="M-53 -165Q-80 -165 -97 -161T-128 -151L-119 -112H-90Q-85 -119 -77 -123T-53 -127Q-18 -127 -3 -109T21 -54L134 439Q139 459 130 471T102 484H62L70 515Q75 517 91 521T132 526Q211 526
192 439L78 -57Q54 -165 -53 -165Z" />
<glyph unicode="&#x2c6;" glyph-name="circumflex" horiz-adv-x="414" d="M172 593L273 700H330L395 593L390 573H365L298 661L197 573H167L172 593Z" />
<glyph unicode="&#x2c7;" glyph-name="caron" horiz-adv-x="414" d="M415 680L314 573H257L192 680L197 700H222L289 612L390 700H420L415 680Z" />
<glyph unicode="&#x2d8;" glyph-name="breve" horiz-adv-x="414" d="M293 575Q242 575 215 601T182 665L187 687H225Q226 654 242 636T295 617Q328 617 350 633T381 687H423L417 662Q405 625 374 600T293 575Z" />
<glyph unicode="&#x2d9;" glyph-name="dotaccent" horiz-adv-x="414" d="M293 596Q276 596 266 607T255 633Q255 650 267 662T295 674Q312 674 322 663T333 637Q333 620 322 608T293 596Z" />
<glyph unicode="&#x2da;" glyph-name="ring" horiz-adv-x="414" d="M298 574Q260 574 234 596T207 658Q207 680 215 697T236 727T267 746T303 753Q340 753 365 730T391 668Q391 646 383 629T362 599T332 581T298 574ZM298 605Q321 605 338 621T356 667Q356 691
341 706T302 722Q276 722 259 705T242 658Q242 634 257 620T298 605Z" />
<glyph unicode="&#x2db;" glyph-name="ogonek" horiz-adv-x="414" d="M146 -164Q109 -164 90 -148T70 -102Q70 -84 77 -70T97 -42T123 -19T152 0H197Q161 -24 141 -47T121 -98Q121 -111 129 -120T155 -129Q164 -129 169 -127T180 -122H203L196 -155Q186 -159 173
-161T146 -164Z" />
<glyph unicode="&#x2dc;" glyph-name="tilde" horiz-adv-x="414" d="M151 615Q156 625 163 635T179 653T201 667T230 673Q247 673 264 667T297 654T328 640T357 634Q375 634 387 645T405 676H441L434 647Q429 637 422 627T405 609T383 595T354 590Q337 590 320
596T287 609T256 623T228 629Q210 629 198 618T181 586H144L151 615Z" />
<glyph unicode="&#x2dd;" glyph-name="hungarumlaut" horiz-adv-x="414" d="M266 700H318L312 675L237 573H200L266 700ZM387 700H439L433 675L358 573H321L387 700Z" />
</font>
</defs>
</svg>
