<?xml version="1.0" standalone="no"?> <!DOCTYPE svg PUBLIC "-//W3C//DTD SVG 1.0//EN" "http://www.w3.org/TR/2001/REC-SVG-20010904/DTD/svg10.dtd" > <svg xmlns="http://www.w3.org/2000/svg" width="100%" height="100%">
<defs >
<font horiz-adv-x="513" ><font-face
    font-family=""
    units-per-em="1000"
    panose-1="2 11 6 3 4 0 0 2 0 4"
    ascent="838"
    descent="-162"
    alphabetic="0" />
<missing-glyph horiz-adv-x="500" />
<glyph unicode=" " glyph-name="space" horiz-adv-x="190" />
<glyph unicode="!" glyph-name="exclam" horiz-adv-x="264" d="M136 614Q143 656 161 678T210 700H212Q239 700 256 691T281 665T289 626T281 580L175 249Q169 230 157 218T125 205H124Q97 205 86 223T80 275L136 614ZM172 77Q172 59 165 44T145 18T117 0T84 -6Q49
-6 28 17T6 72Q6 90 13 105T32 131T60 148T93 155Q128 155 150 132T172 77Z" />
<glyph unicode="&quot;" glyph-name="quotedbl" horiz-adv-x="369" d="M106 532Q107 556 109 579Q111 599 113 619T118 653Q123 676 136 688T179 700H207Q233 700 244 683T251 637Q249 624 241 603T225 561Q215 536 204 510Q196 493 184 482T153 471H152Q129 471
117 486T106 532ZM287 532Q288 556 290 579Q292 599 294 619T299 653Q304 676 317 688T360 700H388Q414 700 425 683T432 637Q430 624 422 603T406 561Q396 536 385 510Q377 493 365 482T334 471H333Q310 471 298 486T287 532Z" />
<glyph unicode="#" glyph-name="numbersign" horiz-adv-x="504" d="M216 309H307L335 415H244L216 309ZM68 200Q42 200 28 212T14 246V247Q14 274 31 291T74 309H117L145 415H125Q99 415 85 427T71 461V462Q71 489 88 506T131 524H175L211 661Q216 681 227 693T257
705H258Q289 705 300 687T304 638L274 524H365L401 661Q406 681 417 693T447 705H448Q479 705 490 687T494 638L464 524H485Q511 524 525 512T539 478V477Q539 450 522 433T479 415H434L406 309H428Q454 309 468 297T482 263V262Q482 235 465 218T422 200H375L332
39Q327 19 316 7T286 -5H285Q254 -5 243 13T239 62L276 200H185L142 39Q137 19 126 7T96 -5H95Q64 -5 53 13T49 62L86 200H68Z" />
<glyph unicode="$" glyph-name="dollar" horiz-adv-x="524" d="M497 216Q497 163 478 122T425 53T342 9T235 -8L223 -63Q213 -107 180 -107H179Q152 -107 142 -91T137 -50L148 -1Q113 5 85 16T34 41Q11 55 4 74T0 115L2 127Q5 145 16 157T48 170Q65 170 76 162T100
143T128 121T172 103L219 306Q153 333 114 376T75 491Q75 542 93 582T145 650T223 693T323 708L327 725Q337 769 370 769H371Q398 769 408 753T413 712L410 699Q459 688 497 667Q520 654 527 637T531 601L529 591Q524 569 512 559T483 549Q471 549 461 554T440
566T417 582T386 597L341 403Q373 390 401 374T451 336T484 285T497 216ZM357 201Q357 227 343 243T300 273L260 99Q300 106 328 129T357 201ZM205 510Q205 484 218 468T260 437L299 605Q263 600 234 577T205 510Z" />
<glyph unicode="%" glyph-name="percent" horiz-adv-x="820" d="M177 480Q177 454 188 436T229 416Q251 416 267 430T293 467T308 514T313 560Q313 586 302 606T262 626Q239 626 223 611T197 574T182 526T177 480ZM425 557Q425 514 410 474T367 402T303 353T220
334Q185 334 157 345T108 375T77 422T65 483Q65 527 80 568T122 640T187 689T270 708Q339 708 382 667T425 557ZM193 -5Q179 -22 170 -28T149 -34H148Q135 -34 125 -28T111 -11T108 13T121 40L669 705Q683 722 692 728T713 734H714Q727 734 737 728T751 711T754
687T741 660L193 -5ZM548 138Q548 112 559 93T600 74Q622 74 638 89T664 126T679 173T684 218Q684 244 673 264T633 284Q611 284 595 269T569 232T553 184T548 138ZM795 215Q795 172 780 132T738 60T674 11T591 -8Q556 -8 528 2T479 32T448 79T436 140Q436 184
451 225T493 297T558 347T641 366Q710 366 752 325T795 215Z" />
<glyph unicode="&amp;" glyph-name="ampersand" horiz-adv-x="680" d="M440 54Q398 25 353 8T242 -9Q197 -9 155 2T81 37T29 98T9 187Q9 225 23 258T62 320T121 369T195 405Q187 425 183 444T179 488Q179 534 196 574T245 644T324 691T431 708Q495 708 539 691Q569
680 578 661T584 616L582 603Q578 580 565 569T532 557Q518 557 508 563T487 575T462 588T425 594Q382 594 355 568T327 496Q327 473 335 453T366 401L476 250Q489 273 503 303T529 361Q539 386 551 402T593 419H597Q639 419 650 397T651 336Q637 289 608 243T547
153L579 109Q593 89 594 69T586 32T560 5T520 -6H519Q498 -6 484 3T454 35L440 54ZM166 201Q166 153 197 127T276 101Q312 101 337 111T379 136L239 327Q206 308 186 278T166 201Z" />
<glyph unicode="&apos;" glyph-name="quotesingle" horiz-adv-x="188" d="M106 532Q107 556 109 579Q111 599 113 619T118 653Q123 676 136 688T179 700H207Q233 700 244 683T251 637Q249 624 241 603T225 561Q215 536 204 510Q196 493 184 482T153 471H152Q129
471 117 486T106 532Z" />
<glyph unicode="(" glyph-name="parenleft" horiz-adv-x="337" d="M43 255Q43 333 64 403T120 533T203 639T301 715Q321 726 344 735T390 745Q413 745 426 732T439 697Q439 686 435 677T422 659T398 638T358 610Q330 591 299 562T241 490T197 389T179 252Q179
213 184 184T199 134T219 97T241 69Q262 46 273 32T285 -3Q285 -24 271 -36T234 -49Q217 -49 201 -43T169 -25Q115 10 79 79T43 255Z" />
<glyph unicode=")" glyph-name="parenright" horiz-adv-x="337" d="M337 441Q337 363 316 292T260 162T177 57T79 -19Q59 -30 36 -39T-10 -49Q-33 -49 -46 -36T-59 -1Q-59 10 -55 19T-42 37T-18 58T22 86Q50 105 81 134T139 206T183 307T201 444Q201 483 196 512T181
562T161 599T139 627Q118 650 107 664T95 699Q95 720 109 732T146 745Q163 745 179 739T211 721Q265 686 301 617T337 441Z" />
<glyph unicode="*" glyph-name="asterisk" horiz-adv-x="382" d="M224 658Q235 705 281 705H285Q313 705 327 686T334 639Q327 608 295 572Q334 603 362 609Q386 614 402 603T422 570L423 563Q426 540 416 523T381 502Q368 500 348 502T304 511Q346 483 357 460Q368
439 360 421T331 392L323 388Q298 375 278 383T250 410Q240 435 241 485Q228 456 219 440T196 409Q179 394 159 394T124 409L118 415Q103 434 104 453T120 487Q140 507 194 522Q173 521 157 522T127 528Q101 538 96 559T101 601L103 605Q114 628 135 635T176 632Q187
627 199 615T230 579Q224 602 222 622T224 658Z" />
<glyph unicode="+" glyph-name="plus" horiz-adv-x="509" d="M200 288H84Q55 288 42 301T28 338V340Q28 367 44 385T92 403H227L258 538Q263 563 277 579T316 596H318Q353 596 368 574T375 516L349 403H463Q492 403 505 390T519 353V351Q519 324 503 306T455 288H322L291
153Q286 128 272 112T233 95H231Q196 95 181 117T174 175L200 288Z" />
<glyph unicode="," glyph-name="comma" horiz-adv-x="204" d="M143 72Q143 0 98 -48T-28 -105Q-45 -107 -55 -101T-66 -78V-77Q-66 -64 -58 -56T-24 -39Q24 -23 24 -3Q24 7 19 10T2 21Q-23 38 -23 71Q-23 109 2 132T61 155Q95 155 119 133T143 72Z" />
<glyph unicode="-" glyph-name="hyphen" horiz-adv-x="283" d="M85 238Q56 238 41 251T26 289V291Q26 320 43 338T90 357H216Q245 357 260 344T275 306V304Q275 275 258 257T211 238H85Z" />
<glyph unicode="." glyph-name="period" horiz-adv-x="203" d="M144 77Q144 59 137 44T117 18T89 0T56 -6Q21 -6 0 17T-22 72Q-22 90 -15 105T4 131T32 148T65 155Q100 155 122 132T144 77Z" />
<glyph unicode="/" glyph-name="slash" horiz-adv-x="352" d="M73 -13Q62 -33 50 -43T21 -54H20Q-17 -54 -31 -29T-27 32L319 705Q330 725 342 735T371 746H372Q409 746 423 721T420 660L73 -13Z" />
<glyph unicode="0" glyph-name="zero" horiz-adv-x="668" d="M199 253Q199 220 204 192T221 144T256 112T312 101Q348 101 377 118T429 165T467 230T493 305T507 380T512 445Q512 477 507 505T490 553T457 586T405 598Q367 598 338 580T285 533T246 466T219 391T204
316T199 253ZM667 441Q667 359 644 279T574 135T460 32T302 -8Q243 -8 195 10T114 63T62 146T44 255Q44 337 68 418T138 563T253 668T412 708Q471 708 518 689T599 635T649 551T667 441Z" />
<glyph unicode="1" glyph-name="one" horiz-adv-x="380" d="M255 71Q246 30 228 13T178 -5H176Q131 -5 112 21T104 94L203 525L148 494Q135 486 127 484T109 481Q93 481 83 492T75 525L76 539Q78 567 90 583T135 616L242 671Q262 681 276 688T300 698T317 703T332
705Q364 705 378 684T382 620L255 71Z" />
<glyph unicode="2" glyph-name="two" horiz-adv-x="535" d="M23 0Q-7 0 -18 17T-30 59V61Q-30 79 -25 92T-11 117T12 140T44 164L232 307Q262 329 290 354T341 405T378 460T392 517Q392 555 370 573T298 592Q264 592 243 585T206 568T177 551T145 543Q125 543
113 557T104 596L105 605Q108 629 123 647T176 681Q206 694 244 701T324 708Q371 708 412 698T483 665T531 607T549 522Q549 480 534 443T489 372T420 305T330 236L172 122H406Q435 122 450 108T466 70V69Q466 39 448 20T398 0H23Z" />
<glyph unicode="3" glyph-name="three" horiz-adv-x="522" d="M386 515Q386 538 379 553T359 579T330 593T296 598Q265 599 245 592T211 577T184 562T156 555Q135 554 122 568T111 606L112 615Q115 639 130 655T177 685Q205 696 240 702T318 709Q356 709 394 701T462
672T511 616T530 528Q530 456 487 412T375 352V348Q423 335 452 297T481 203Q481 153 460 114T401 48T314 7T207 -8Q152 -8 108 3T30 36Q5 53 -2 71T-6 117L-5 124Q-2 144 11 157T47 171Q66 171 79 161T106 139T142 116T202 104Q258 103 294 129T331 206Q331 244
313 264T247 296L237 298Q200 306 188 318T175 353V355Q175 379 187 393T241 413L250 414Q284 418 310 424T352 442T377 471T386 515Z" />
<glyph unicode="4" glyph-name="four" horiz-adv-x="593" d="M147 257H339L398 513H394L147 261V257ZM314 148H67Q32 148 17 162T2 206V208Q2 221 5 232T17 256T40 285T78 325L395 648Q411 664 422 675T445 692T469 702T500 705H506Q547 705 565 682T575 617L492
257H517Q543 257 557 245T571 211V210Q571 182 554 165T511 148H467L449 70Q440 31 422 13T374 -5H372Q327 -5 309 20T301 92L314 148Z" />
<glyph unicode="5" glyph-name="five" horiz-adv-x="545" d="M508 700Q568 700 568 648V647Q568 616 550 597T500 578H244L206 415H209Q227 429 255 439T325 449Q366 449 401 437T461 400T501 339T515 257Q515 194 491 145T424 62T327 10T209 -8Q151 -8 109 2T36
29Q-12 57 -2 108L0 118Q11 162 53 162Q70 162 81 153T108 133T145 112T206 103Q236 103 263 113T312 141T345 187T358 248Q358 293 332 315T267 338Q236 338 217 331T184 314T156 297T125 289Q98 289 86 306T79 347L143 624Q151 657 173 678T238 700H508Z" />
<glyph unicode="6" glyph-name="six" horiz-adv-x="607" d="M258 489Q230 443 216 384Q248 410 289 426T381 443Q421 443 456 431T517 395T558 334T573 248Q573 196 554 150T497 68T408 13T292 -8Q236 -8 191 8T113 56T62 134T44 241Q44 315 63 392T125 533Q176
611 256 659T445 707Q527 707 574 684Q627 658 615 606L613 597Q608 576 595 566T563 556Q549 556 538 562T513 576T482 590T440 597Q373 597 330 568T258 489ZM324 340Q289 340 257 328T201 302Q199 283 198 264T197 228Q197 199 201 175T217 132T248 104T298
93Q356 93 390 135T424 245Q424 289 400 314T324 340Z" />
<glyph unicode="7" glyph-name="seven" horiz-adv-x="522" d="M261 64Q243 35 225 15T172 -5H171Q148 -5 130 6T104 37T98 82T123 136L448 574V578H163Q134 578 119 592T104 631V632Q104 663 122 681T170 700H526Q559 700 574 683T590 639V638Q590 624 588 614T580
591T565 563T540 524L261 64Z" />
<glyph unicode="8" glyph-name="eight" horiz-adv-x="596" d="M560 215Q560 161 539 120T480 50T388 6T269 -9Q230 -9 185 -1T101 28T37 86T11 181Q11 223 25 256T63 313T119 353T188 377V381Q151 399 130 431T109 501Q109 551 129 589T185 654T268 694T369 708Q475
708 536 660T598 529Q598 494 587 467T558 420T514 387T459 367V363Q505 343 532 306T560 215ZM162 190Q162 166 171 148T195 118T231 100T273 93Q306 93 331 103T374 130T400 170T409 220Q409 264 383 293T299 323Q267 323 242 313T199 284T172 242T162 190ZM256
499Q256 459 283 440T345 421Q390 421 421 446T452 522Q452 559 429 581T363 603Q318 603 287 577T256 499Z" />
<glyph unicode="9" glyph-name="nine" horiz-adv-x="607" d="M265 255Q222 255 187 267T126 302T87 358T73 435Q73 493 94 542T154 628T245 685T359 706Q413 706 458 690T536 643T587 567T605 464Q605 361 579 276T501 124Q450 61 375 26T199 -9Q160 -9 125 -4T63
14Q15 37 24 86L26 97Q30 116 42 127T76 139Q89 139 100 133T126 120T158 107T203 101Q257 101 300 120T371 173Q394 200 409 234T434 309Q402 283 361 269T265 255ZM321 360Q354 360 389 369T448 393Q450 413 451 434T452 477Q452 503 447 526T431 566T400 594T354
605Q294 605 256 564T218 450Q218 360 321 360Z" />
<glyph unicode=":" glyph-name="colon" horiz-adv-x="203" d="M142 77Q142 59 135 44T115 18T87 0T54 -6Q19 -6 -2 17T-24 72Q-24 90 -17 105T2 131T30 148T63 155Q98 155 120 132T142 77ZM208 367Q208 349 201 334T181 308T153 290T120 284Q85 284 64 307T42
362Q42 380 49 395T68 421T96 438T129 445Q164 445 186 422T208 367Z" />
<glyph unicode=";" glyph-name="semicolon" horiz-adv-x="203" d="M208 367Q208 349 201 334T181 308T153 290T120 284Q85 284 64 307T42 362Q42 380 49 395T68 421T96 438T129 445Q164 445 186 422T208 367ZM141 72Q141 0 96 -48T-30 -105Q-47 -107 -57 -101T-68
-78V-77Q-68 -64 -60 -56T-26 -39Q22 -23 22 -3Q22 7 17 10T0 21Q-25 38 -25 71Q-25 109 0 132T59 155Q93 155 117 133T141 72Z" />
<glyph unicode="&lt;" glyph-name="less" horiz-adv-x="436" d="M403 547Q423 556 439 556T466 550T483 532T489 507V506Q489 489 479 475T442 448L178 327V324L360 216Q382 203 392 190T402 160V159Q402 142 394 128T373 106T341 98T302 112L64 259Q45 270 35
284T24 321V326Q24 352 40 369T88 401L403 547Z" />
<glyph unicode="=" glyph-name="equal" horiz-adv-x="487" d="M455 477Q484 477 497 464T511 427V425Q511 398 495 380T447 362H105Q76 362 63 375T49 412V414Q49 441 65 459T113 477H455ZM407 267Q436 267 449 254T463 217V215Q463 188 447 170T399 152H57Q28
152 15 165T1 202V204Q1 231 17 249T65 267H407Z" />
<glyph unicode="&gt;" glyph-name="greater" horiz-adv-x="436" d="M64 112Q44 103 28 103T1 109T-16 127T-22 152V153Q-22 170 -12 184T25 211L289 332V335L107 443Q85 456 75 469T65 499V500Q65 516 73 530T94 553T126 561T165 547L403 400Q422 389 432 375T443
338V333Q443 307 427 290T379 258L64 112Z" />
<glyph unicode="?" glyph-name="question" horiz-adv-x="449" d="M164 202Q141 202 128 217T117 263Q120 300 144 331T217 400Q235 413 254 427T291 457T319 492T330 535Q330 567 309 581T256 595Q232 595 217 590T188 577T164 565T137 559Q117 559 105 573T97
613L99 625Q104 654 122 668T163 690Q187 699 217 704T282 709Q321 709 357 701T422 674T467 623T484 545Q484 478 445 428T341 346Q292 321 268 301T229 255Q222 243 217 233T204 216T188 206T165 202H164ZM223 77Q223 59 216 44T196 18T168 0T135 -6Q100 -6 79
17T57 72Q57 90 64 105T83 131T111 148T144 155Q179 155 201 132T223 77Z" />
<glyph unicode="@" glyph-name="at" horiz-adv-x="867" d="M612 66Q551 66 521 83T480 129Q459 104 428 85T350 66Q293 66 259 101T224 209Q224 253 239 297T282 378T353 436T448 459Q487 459 510 448T550 419Q564 439 579 448T617 457H620Q668 457 658 409L613
210Q608 186 612 170T643 153Q690 153 720 198T751 340Q751 397 732 441T677 515T590 562T473 578Q410 578 350 557T242 492T165 384T136 233Q136 157 158 104T221 18T316 -30T436 -45Q502 -45 543 -35T610 -13T653 10T688 20Q726 20 726 -20V-23Q726 -61 684 -83Q636
-109 570 -121T436 -134Q357 -134 283 -114T152 -49T60 65T25 233Q25 302 43 361T94 468T171 554T264 616T367 654T473 667Q552 667 621 646T743 583T825 481T855 340Q855 270 835 219T781 133T704 83T612 66ZM353 209Q353 183 364 170T395 157Q416 157 437 167T476
196L514 359Q506 362 496 364T466 367Q440 367 420 354T384 319T361 269T353 209Z" />
<glyph unicode="A" glyph-name="A" horiz-adv-x="665" d="M300 632Q318 664 345 684T411 705H418Q462 705 486 682T515 623L586 86Q591 43 570 19T506 -5H504Q472 -5 454 16T431 75L419 185H186L117 54Q104 29 89 12T47 -5H45Q27 -5 13 3T-10 25T-18 56T-4 94L300
632ZM242 292H407L380 550H378L242 292Z" />
<glyph unicode="B" glyph-name="B" horiz-adv-x="608" d="M87 0Q47 0 31 24T22 81L148 624Q156 656 178 678T243 700H371Q480 700 541 657T602 529Q602 458 561 418T452 362V358Q505 347 535 313T566 219Q566 162 543 121T479 52T385 13T272 0H87ZM182 110H282Q339
110 375 137T411 226Q411 266 387 289T315 313H229L182 110ZM254 416H329Q354 416 376 421T415 437T442 468T452 516Q452 550 430 570T361 590H293L254 416Z" />
<glyph unicode="C" glyph-name="C" horiz-adv-x="617" d="M479 13Q456 3 422 -2T349 -8Q282 -8 227 9T131 60T68 148T45 274Q45 355 71 433T149 572T274 670T446 708Q491 708 526 702T590 682Q646 656 634 607L632 599Q619 552 578 552Q563 552 552 558T527 573T493
588T439 595Q374 595 329 563T256 483T216 378T204 272Q204 182 244 142T357 102Q393 102 415 109T451 125T477 141T504 149Q528 149 539 132T547 91L546 85Q542 61 527 44T479 13Z" />
<glyph unicode="D" glyph-name="D" horiz-adv-x="692" d="M185 110H287Q356 110 401 140T474 215T512 313T523 414Q523 450 516 481T492 537T447 574T377 588H295L185 110ZM380 700Q523 700 603 627T683 414Q683 336 659 262T586 129T464 36T292 0H87Q47 0 31
24T22 81L148 624Q156 656 178 678T243 700H380Z" />
<glyph unicode="E" glyph-name="E" horiz-adv-x="563" d="M229 302L185 110H433Q460 110 474 98T488 63V62Q488 35 471 18T427 0H82Q52 0 33 20T21 76L148 624Q157 663 183 681T243 700H545Q572 700 586 688T600 652V651Q600 622 583 605T539 587H295L254 409H405Q431
409 444 397T458 364V363Q458 336 442 319T399 302H229Z" />
<glyph unicode="F" glyph-name="F" horiz-adv-x="545" d="M176 71Q167 30 149 13T101 -5H100Q54 -5 34 21T25 94L148 624Q156 657 178 678T243 700H553Q580 700 594 688T608 652V651Q608 622 591 605T547 587H295L250 394H422Q448 394 461 382T475 349V348Q475
321 459 304T416 287H226L176 71Z" />
<glyph unicode="G" glyph-name="G" horiz-adv-x="668" d="M561 365Q599 365 614 342T622 289L578 99Q570 64 552 44T498 12Q466 1 427 -3T352 -8Q287 -8 231 7T134 56T69 142T45 267Q45 350 71 429T148 571T274 670T449 708Q493 708 537 701T613 677Q661 652 648
603L646 595Q640 572 628 560T592 547Q577 547 565 554T537 571T498 587T439 595Q375 595 331 563T258 483T216 376T203 263Q203 186 239 143T359 99Q398 99 427 108L463 264H410Q388 264 377 276T366 305V306Q366 329 381 347T422 365H561Z" />
<glyph unicode="H" glyph-name="H" horiz-adv-x="693" d="M589 71Q580 31 562 13T514 -5H512Q465 -5 447 21T439 96L487 302H229L176 71Q167 31 149 13T101 -5H99Q52 -5 34 21T26 96L149 629Q158 669 176 687T224 705H226Q273 705 291 678T299 603L255 412H512L562
629Q571 669 589 687T637 705H639Q686 705 704 678T712 603L589 71Z" />
<glyph unicode="I" glyph-name="I" horiz-adv-x="287" d="M152 629Q161 669 179 687T227 705H229Q275 705 294 678T303 603L180 72Q163 -5 105 -5H103Q57 -5 37 21T28 94L152 629Z" />
<glyph unicode="J" glyph-name="J" horiz-adv-x="457" d="M378 163Q369 125 351 94T303 40T234 5T141 -8Q68 -8 19 15Q-30 37 -19 87L-17 96Q-12 117 0 129T33 142Q46 142 56 136T77 123T101 110T134 104Q176 104 197 125T227 186L329 629Q338 669 356 687T404
705H406Q452 705 471 678T480 603L378 163Z" />
<glyph unicode="K" glyph-name="K" horiz-adv-x="653" d="M149 629Q158 669 176 687T224 705H226Q271 705 290 678T299 603L246 375L550 667Q572 688 586 696T616 705H617Q638 705 652 694T672 667T673 630T648 592L440 401L563 113Q575 86 574 64T563 27T536
3T498 -5H497Q468 -5 452 13T422 61L321 298L203 189L176 72Q159 -5 100 -5H98Q53 -5 34 21T25 94L149 629Z" />
<glyph unicode="L" glyph-name="L" horiz-adv-x="534" d="M87 0Q47 0 31 24T22 81L149 629Q158 669 176 687T222 705H223Q269 705 289 679T299 604L185 110H406Q433 110 447 98T461 63V62Q461 35 444 18T400 0H87Z" />
<glyph unicode="M" glyph-name="M" horiz-adv-x="835" d="M731 69Q722 29 704 12T656 -5H654Q606 -5 589 22T583 97L683 531H680L412 39Q398 15 385 6T349 -4H346Q326 -4 311 7T294 45L255 531H252L143 57Q137 31 123 14T82 -4H80Q45 -4 29 16T22 79L148 625Q156
658 176 679T241 701H290Q335 701 353 679T375 623L407 236H410L624 632Q641 664 667 682T739 701H795Q836 701 851 678T859 625L731 69Z" />
<glyph unicode="N" glyph-name="N" horiz-adv-x="686" d="M581 64Q574 35 556 17T500 -2H490Q452 -2 433 16T403 63L254 509H251L147 57Q140 29 126 12T85 -5H84Q49 -5 31 16T23 83L148 624Q156 657 176 678T239 700H268Q310 700 332 680T366 626L489 252H492L582
642Q589 670 603 687T644 705H646Q683 705 701 683T708 615L581 64Z" />
<glyph unicode="O" glyph-name="O" horiz-adv-x="730" d="M204 284Q204 245 212 212T237 154T282 115T350 100Q406 100 446 131T512 209T550 311T562 415Q562 450 555 483T532 542T487 584T417 600Q360 600 320 568T254 489T216 386T204 284ZM721 412Q721 334
696 259T623 124T505 29T345 -8Q276 -8 221 13T126 74T66 167T45 288Q45 370 71 445T146 579T264 673T420 708Q489 708 544 687T639 626T700 533T721 412Z" />
<glyph unicode="P" glyph-name="P" horiz-adv-x="596" d="M242 358H313Q387 358 426 392T466 507Q466 544 443 566T361 588H295L242 358ZM372 700Q494 700 555 650T616 502Q616 439 595 392T533 314T435 268T305 253H218L177 75Q167 33 148 14T100 -5H98Q51 -5
33 22T26 97L148 624Q156 657 178 678T243 700H372Z" />
<glyph unicode="Q" glyph-name="Q" horiz-adv-x="730" d="M614 -123Q603 -123 591 -120T567 -113L308 -27Q177 16 111 90T45 288Q45 370 71 445T146 579T264 673T420 708Q489 708 544 687T639 626T700 533T721 412Q721 345 706 285T659 176T583 90T476 35V32L623
7Q655 2 664 -18T669 -61L665 -79Q661 -97 649 -110T614 -123ZM204 284Q204 245 211 212T236 153T281 114T352 99Q408 99 448 130T513 208T550 311T562 415Q562 450 555 483T532 542T487 584T417 600Q360 600 320 568T254 489T216 386T204 284Z" />
<glyph unicode="R" glyph-name="R" horiz-adv-x="628" d="M177 74Q168 32 149 14T100 -5H99Q54 -5 35 21T26 95L148 624Q156 657 178 678T243 700H377Q501 700 560 648T620 499Q620 422 574 369T452 292L537 106Q547 83 546 63T536 28T510 4T471 -5H470Q443 -5
427 12T398 59L307 274H223L177 74ZM247 379H327Q396 379 433 410T470 507Q470 544 448 566T366 588H295L247 379Z" />
<glyph unicode="S" glyph-name="S" horiz-adv-x="530" d="M495 224Q495 167 476 124T421 52T335 7T222 -8Q163 -8 115 4T37 37Q8 56 1 78T0 125L1 129Q12 173 52 173Q70 173 83 162T113 138T157 114T228 103Q250 103 272 108T311 124T338 154T349 200Q349 219
341 232T318 256T281 276T229 297Q158 324 119 367T80 484Q80 537 98 579T149 649T229 693T333 708Q382 708 425 698T502 668Q551 638 534 585L533 582Q528 566 517 553T484 539Q467 539 455 548T426 568T387 588T324 597Q304 597 285 592T252 577T228 550T219
510Q219 491 225 479T244 456T280 435T335 413Q370 399 399 383T450 346T483 294T495 224Z" />
<glyph unicode="T" glyph-name="T" horiz-adv-x="571" d="M320 71Q311 31 293 13T245 -5H243Q196 -5 178 22T170 96L284 590H163Q136 590 122 602T108 637V638Q108 665 125 682T169 700H586Q613 700 627 688T641 653V652Q641 625 624 608T580 590H440L320 71Z" />
<glyph unicode="U" glyph-name="U" horiz-adv-x="666" d="M606 244Q593 188 570 142T512 62T427 11T310 -8Q240 -8 187 11T101 68T58 159T63 283L143 630Q152 670 172 687T217 705H218Q263 705 283 679T293 604L214 264Q206 232 207 204T221 154T258 120T323 107Q387
107 423 141T478 253L568 643Q576 676 592 690T630 705H631Q667 705 684 682T692 618L606 244Z" />
<glyph unicode="V" glyph-name="V" horiz-adv-x="638" d="M264 -5Q223 -5 201 17T175 78L112 612Q107 660 128 682T190 705H191Q224 705 241 684T262 627L308 180H310L575 653Q589 677 603 691T640 705H641Q660 705 674 697T696 675T703 643T690 603L379 65Q356
25 331 10T270 -5H264Z" />
<glyph unicode="W" glyph-name="W" horiz-adv-x="917" d="M634 192H636L843 647Q857 679 872 692T909 705H910Q928 705 943 698T968 677T978 644T968 602L710 69Q695 37 674 18T610 -2H589Q549 -2 528 21T506 76L509 458H507L335 69Q321 37 298 18T232 -2H210Q170
-2 150 21T128 76L112 630Q111 666 130 685T185 705H186Q224 705 241 685T259 630L266 192H268L474 645Q486 671 503 687T556 704H565Q600 704 615 686T631 640L634 192Z" />
<glyph unicode="X" glyph-name="X" horiz-adv-x="674" d="M130 38Q110 13 95 4T62 -5H61Q40 -5 26 5T5 31T2 66T20 102L246 364L141 597Q131 618 132 637T144 672T171 696T210 705H211Q238 705 255 689T284 645L368 455L537 662Q557 687 572 696T605 705H606Q627
705 641 695T662 669T665 634T647 598L441 355L552 103Q561 82 560 63T549 28T522 4T483 -5H482Q455 -5 438 11T409 55L318 265L130 38Z" />
<glyph unicode="Y" glyph-name="Y" horiz-adv-x="592" d="M339 75Q321 -5 263 -5H262Q218 -5 197 20T187 92L231 281L116 603Q108 624 110 642T123 675T150 697T192 705H193Q219 705 235 687T262 639L340 409H343L532 660Q547 680 561 692T594 705H595Q614 705
629 696T651 673T656 639T639 600L383 266L339 75Z" />
<glyph unicode="Z" glyph-name="Z" horiz-adv-x="558" d="M421 585V589H189Q163 589 149 601T135 636V637Q135 665 152 682T195 700H570Q601 700 611 683T622 642V640Q622 614 610 596T580 557L174 112V108H432Q458 108 472 96T486 62V61Q486 35 469 18T426 0H29Q-2
0 -12 17T-23 58V60Q-23 86 -11 104T19 143L421 585Z" />
<glyph unicode="[" glyph-name="bracketleft" horiz-adv-x="338" d="M84 -49Q44 -49 28 -25T19 32L165 665Q173 697 195 719T260 741H369Q416 741 416 700V699Q416 675 402 660T364 645H296L158 47H208Q255 47 255 6V5Q255 -19 241 -34T203 -49H84Z" />
<glyph unicode="\" glyph-name="backslash" horiz-adv-x="352" d="M100 677Q96 710 111 728T158 746H159Q185 746 197 731T212 692L294 15Q298 -18 283 -36T236 -54H235Q209 -54 197 -39T182 0L100 677Z" />
<glyph unicode="]" glyph-name="bracketright" horiz-adv-x="338" d="M296 741Q336 741 353 717T362 660L216 27Q208 -5 185 -27T120 -49H11Q-36 -49 -36 -8V-7Q-36 17 -22 32T16 47H84L222 645H172Q125 645 125 686V687Q125 711 139 726T177 741H296Z" />
<glyph unicode="^" glyph-name="asciicircum" horiz-adv-x="421" d="M133 447Q118 447 106 455T89 477T86 505T102 535L222 664Q240 684 256 693T300 703H306Q335 703 351 691T378 655L441 531Q449 515 449 500T441 473T421 454T391 447H390Q368 447 356 460T333
495L286 581H283L188 481Q172 464 161 456T134 447H133Z" />
<glyph unicode="_" glyph-name="underscore" horiz-adv-x="373" d="M-49 -162Q-73 -162 -84 -151T-95 -121V-120Q-95 -97 -82 -83T-43 -69H253Q299 -69 299 -109V-111Q299 -133 286 -147T247 -162H-49Z" />
<glyph unicode="`" glyph-name="grave" horiz-adv-x="400" d="M318 612Q326 586 314 571T278 555H274Q240 555 211 585L168 629Q156 641 153 654T154 678T169 696T196 704H230Q260 704 279 691T307 648L318 612Z" />
<glyph unicode="a" glyph-name="a" horiz-adv-x="509" d="M145 -6Q82 -6 43 30T3 135Q3 178 19 211T65 268T137 303T231 316Q265 316 285 313T322 304L326 323Q338 375 322 401T257 428Q226 428 207 423T173 411T148 400T125 394Q103 394 92 409T85 449L86 454Q93
492 144 511Q197 533 282 533Q337 533 378 520T444 480T475 410T469 308L413 66Q404 28 386 12T340 -5H338Q312 -5 296 8T275 46Q251 23 219 9T145 -6ZM198 85Q224 85 243 96T281 124L303 224Q291 227 276 229T240 232Q190 232 165 208T140 145Q140 116 154 101T198
85Z" />
<glyph unicode="b" glyph-name="b" horiz-adv-x="581" d="M281 -7Q236 -7 204 8T151 42Q131 -5 82 -5H81Q43 -5 25 19T18 96L141 635Q149 672 168 688T210 705H211Q253 705 273 681T281 605L249 466Q278 495 318 514T406 533Q436 533 463 522T510 489T543 430T555
345Q555 263 535 198T479 87T392 17T281 -7ZM344 425Q315 425 288 413T230 380L171 121Q182 110 200 99T253 88Q293 88 322 107T371 161T400 240T410 336Q410 381 392 403T344 425Z" />
<glyph unicode="c" glyph-name="c" horiz-adv-x="484" d="M364 9Q344 1 317 -3T263 -7Q203 -7 159 8T85 52T42 120T27 209Q27 281 51 340T118 443T218 509T343 533Q378 533 406 528T455 512Q501 491 491 441L490 436Q481 393 443 393Q430 393 421 398T402 410T377
421T339 427Q301 427 270 410T217 364T183 296T171 210Q171 97 274 97Q302 97 318 102T345 114T364 126T386 132Q405 132 415 119T424 83L423 74Q421 49 406 35T364 9Z" />
<glyph unicode="d" glyph-name="d" horiz-adv-x="581" d="M477 66Q461 -5 406 -5H405Q375 -5 357 11T336 57Q308 26 272 9T193 -8Q158 -8 127 2T73 36T37 95T24 185Q24 258 45 321T103 431T191 505T303 532Q348 532 377 519T426 483L461 636Q469 673 488 689T530
705H531Q573 705 592 681T600 604L477 66ZM244 93Q267 93 294 104T347 135L405 392Q394 403 376 413T326 423Q289 423 260 405T211 356T180 283T169 191Q169 141 186 117T244 93Z" />
<glyph unicode="e" glyph-name="e" horiz-adv-x="515" d="M166 210Q166 147 191 121T267 95Q300 95 319 101T350 114T373 128T398 134Q421 134 431 118T437 77L436 72Q432 52 418 39T380 14Q356 3 321 -2T251 -7Q142 -7 83 47T24 208Q24 272 43 330T98 434T186
506T304 533Q400 533 446 482T493 344Q493 330 492 316T488 285Q484 262 470 246T423 230H166V210ZM363 318Q367 337 367 357Q367 399 348 419T295 440Q251 440 222 407T178 318H363Z" />
<glyph unicode="f" glyph-name="f" horiz-adv-x="335" d="M115 427H110Q90 427 76 436T62 468V470Q62 496 76 510T116 525H136L145 565Q162 640 208 675T328 710Q351 710 369 707Q415 698 415 661V659Q415 634 402 622T358 609Q326 607 311 597T290 560L282 525H315Q335
525 349 516T363 484V482Q363 456 349 442T309 427H260L179 68Q171 30 154 13T109 -5H108Q66 -5 50 21T44 100L115 427Z" />
<glyph unicode="g" glyph-name="g" horiz-adv-x="575" d="M467 31Q453 -27 428 -66T367 -128T285 -162T183 -172Q97 -172 36 -146Q-17 -122 -3 -67L-2 -63Q9 -22 49 -22Q63 -22 74 -29T98 -44T131 -59T181 -66Q234 -66 271 -45T322 34L335 91Q306 59 266 41T181
22Q149 22 121 32T71 64T37 119T24 197Q24 268 44 329T102 436T191 507T304 533Q346 533 377 518T429 486Q451 530 491 530H493Q538 530 553 502T557 422L467 31ZM234 124Q263 124 293 137T354 174L406 403Q395 414 377 425T324 437Q284 437 255 417T207 363T179
288T169 203Q169 124 234 124Z" />
<glyph unicode="h" glyph-name="h" horiz-adv-x="572" d="M248 463Q287 493 331 513T435 533Q466 533 490 521T529 486T548 430T543 356L476 65Q468 28 451 12T405 -5H404Q362 -5 344 19T338 96L396 356Q409 417 360 417Q305 417 226 369L157 65Q149 28 132 12T86
-5H85Q43 -5 25 19T18 96L141 635Q149 672 167 688T210 705H211Q253 705 272 681T280 604L248 463Z" />
<glyph unicode="i" glyph-name="i" horiz-adv-x="260" d="M292 646Q292 611 267 589T208 567Q175 567 155 588T134 641Q134 675 159 697T217 720Q250 720 271 698T292 646ZM158 66Q142 -5 86 -5H85Q43 -5 25 20T19 97L102 461Q110 498 128 514T171 530H172Q213
530 233 506T241 429L158 66Z" />
<glyph unicode="j" glyph-name="j" horiz-adv-x="258" d="M292 646Q292 611 267 589T208 567Q175 567 155 588T134 641Q134 675 159 697T217 720Q250 720 271 698T292 646ZM-78 -68Q-60 -64 -48 -60T-27 -49T-13 -32T-4 -4L102 461Q110 498 128 514T171 530H172Q213
530 233 506T241 429L138 -22Q129 -63 114 -91T77 -136T30 -160T-29 -168Q-43 -168 -55 -167T-80 -163Q-100 -158 -108 -147T-117 -118V-114Q-117 -95 -108 -84T-78 -68Z" />
<glyph unicode="k" glyph-name="k" horiz-adv-x="524" d="M412 492Q439 515 454 522T483 530H484Q501 530 514 519T532 493T533 459T508 425L351 303L344 297L449 109Q462 85 463 64T455 28T430 4T392 -5H391Q365 -5 349 12T318 56L230 216L182 178L157 65Q149
28 132 12T86 -5H85Q43 -5 25 19T18 96L141 636Q149 673 167 689T210 705H211Q253 705 272 681T280 605L217 328L412 492Z" />
<glyph unicode="l" glyph-name="l" horiz-adv-x="263" d="M158 66Q150 28 133 12T87 -5H86Q44 -5 26 20T19 97L142 635Q150 672 168 688T211 705H212Q254 705 273 681T281 604L158 66Z" />
<glyph unicode="m" glyph-name="m" horiz-adv-x="848" d="M714 533Q777 533 807 486T819 356L751 64Q743 27 726 11T680 -5H679Q637 -5 619 19T613 96L671 356Q684 417 639 417Q618 417 591 406T525 372L522 356L454 64Q446 27 429 11T383 -5H382Q340 -5 322 19T316
96L374 356Q387 417 342 417Q321 417 294 406T228 371L158 66Q142 -5 87 -5H85Q43 -5 25 19T18 95L101 460Q109 497 128 513T174 530H176Q209 530 225 510T242 455Q280 487 321 510T417 533Q459 533 487 512T525 452Q569 488 615 510T714 533Z" />
<glyph unicode="n" glyph-name="n" horiz-adv-x="572" d="M101 460Q109 497 128 513T174 530H176Q208 530 224 511T242 459Q282 491 327 512T435 533Q466 533 490 521T529 486T548 430T543 356L476 65Q468 28 451 12T405 -5H404Q362 -5 344 19T338 96L396 356Q409
417 360 417Q305 417 226 369L157 65Q149 28 132 12T86 -5H85Q43 -5 25 19T18 95L101 460Z" />
<glyph unicode="o" glyph-name="o" horiz-adv-x="569" d="M170 211Q170 148 195 122T262 95Q295 95 321 113T364 161T390 230T399 311Q399 374 375 401T309 429Q277 429 251 411T207 362T180 292T170 211ZM542 308Q542 235 520 177T460 79T370 16T257 -6Q147 -6
87 53T27 214Q27 287 50 346T112 446T204 510T313 533Q368 533 410 517T482 472T526 401T542 308Z" />
<glyph unicode="p" glyph-name="p" horiz-adv-x="576" d="M101 460Q109 497 128 513T174 530H177Q210 530 226 512T245 461Q274 492 314 512T400 533Q432 533 460 522T509 488T542 428T555 339Q555 259 535 197T479 93T394 28T285 6Q237 6 207 19T156 50L123 -96Q107
-167 53 -167H52Q10 -167 -10 -143T-18 -66L101 460ZM344 425Q315 425 289 414T232 382L175 133Q186 122 205 113T257 103Q295 103 324 120T372 168T400 242T410 336Q410 381 392 403T344 425Z" />
<glyph unicode="q" glyph-name="q" horiz-adv-x="581" d="M331 65Q302 36 264 21T185 6Q153 6 124 16T73 47T38 101T24 183Q24 261 46 325T107 435T198 506T309 532Q349 532 379 519T431 486Q455 530 497 530H498Q539 530 555 503T560 425L441 -97Q433 -134 415
-150T369 -167H368Q329 -167 309 -142T301 -65L331 65ZM237 105Q290 105 351 154L407 399Q396 409 377 417T322 426Q287 426 259 408T211 357T180 283T169 193Q169 143 187 124T237 105Z" />
<glyph unicode="r" glyph-name="r" horiz-adv-x="388" d="M352 400Q304 395 275 382T223 350L158 66Q142 -5 86 -5H85Q43 -5 24 18T17 93L101 460Q109 497 128 513T174 530H176Q213 530 229 506T242 441Q271 481 305 506T376 531Q399 531 412 518T425 480V478Q425
446 410 426T352 400Z" />
<glyph unicode="s" glyph-name="s" horiz-adv-x="434" d="M387 179Q387 93 328 44T164 -6Q124 -6 87 1T24 21Q-2 35 -9 55T-10 102L-9 106Q-4 125 9 134T39 144Q53 144 63 137T87 121T119 105T168 97Q203 97 227 109T252 149Q252 170 236 181T183 205Q150 217
125 230T82 260T56 300T47 353Q47 436 103 483T260 530Q300 530 334 523T391 502Q437 476 423 434L422 431Q416 413 404 401T372 389Q358 389 348 395T326 408T298 422T254 428Q178 428 178 378Q178 360 193 349T250 323Q280 312 305 300T348 272T376 233T387 179Z"
/>
<glyph unicode="t" glyph-name="t" horiz-adv-x="347" d="M327 525Q347 525 361 516T375 484V482Q375 456 361 442T321 427H258L197 160Q190 129 199 115T236 97Q263 93 273 83T284 54V52Q284 26 272 14T230 -5Q222 -7 208 -7T181 -8Q98 -8 66 37T52 163L113 427H104Q84
427 70 436T56 468V470Q56 496 70 510T110 525H135L152 599Q160 636 179 653T223 670H224Q265 670 284 646T291 569L281 525H327Z" />
<glyph unicode="u" glyph-name="u" horiz-adv-x="569" d="M463 67Q454 29 437 12T390 -5H388Q356 -5 340 14T322 66Q284 34 242 13T144 -8Q75 -8 43 37T30 169L99 465Q107 501 123 517T169 533H170Q212 533 230 509T237 434L178 169Q165 107 214 107Q240 107 270
118T337 152L408 463Q416 500 433 516T479 533H480Q522 533 540 509T547 433L463 67Z" />
<glyph unicode="v" glyph-name="v" horiz-adv-x="518" d="M210 -5Q172 -5 150 14T122 69L64 443Q57 485 77 507T136 530H138Q167 530 183 511T205 459L243 169H245L408 477Q423 506 437 518T471 530H472Q490 530 504 523T526 502T534 471T523 433L310 58Q294 29
274 12T216 -5H210Z" />
<glyph unicode="w" glyph-name="w" horiz-adv-x="770" d="M259 52Q251 35 243 24T226 7T206 -2T179 -5H173Q135 -5 119 14T100 60L65 441Q61 483 79 506T137 530H138Q168 530 184 511T202 458L222 194H224L358 480Q369 503 385 516T430 530H435Q467 530 480 514T496
474L523 194H525L659 478Q670 502 683 516T719 530H720Q740 530 754 522T775 501T782 471T773 438L575 50Q562 25 547 10T496 -5H490Q454 -5 438 13T419 57L390 327H388L259 52V52Z" />
<glyph unicode="x" glyph-name="x" horiz-adv-x="518" d="M438 98Q448 79 448 61T439 28T414 4T376 -5H375Q353 -5 337 9T305 52L237 177L113 38Q92 15 77 5T47 -5H46Q25 -5 11 5T-8 30T-9 62T9 95L175 277L97 427Q87 446 87 464T96 497T121 521T159 530H160Q182
530 198 516T230 473L286 367L396 487Q417 510 432 520T462 530H463Q484 530 497 520T516 495T518 463T500 430L347 268L438 98Z" />
<glyph unicode="y" glyph-name="y" horiz-adv-x="518" d="M184 -106Q168 -132 152 -149T106 -167H105Q87 -167 73 -158T51 -134T46 -97T65 -52L138 56L63 446Q55 484 75 507T134 530H135Q167 530 182 512T202 464L247 213H249L407 480Q421 505 435 517T470 530H471Q490
530 504 522T526 499T532 467T520 431L184 -106Z" />
<glyph unicode="z" glyph-name="z" horiz-adv-x="474" d="M160 103H340Q365 103 378 91T391 59V58Q391 32 376 16T334 0H17Q-7 0 -17 15T-28 50V51Q-28 75 -16 92T16 128L304 422H134Q109 422 96 434T83 466V467Q83 493 98 509T140 525H449Q473 525 484 511T495
476V475Q495 450 483 433T451 396L160 103Z" />
<glyph unicode="{" glyph-name="braceleft" horiz-adv-x="367" d="M193 -49Q112 -49 79 -13T61 90L98 249Q103 269 96 282T66 305L64 306Q28 320 34 358L35 364Q39 384 48 393T78 405L84 406Q111 411 125 422T146 459L182 613Q189 644 200 667T229 707T273 732T336
741H397Q448 741 443 692L442 685Q436 645 390 645H352Q326 645 318 614L283 460Q273 419 248 392T168 353V350Q216 336 228 307T231 234L195 78Q187 47 217 47H238Q289 47 284 -2L283 -9Q277 -49 231 -49H193Z" />
<glyph unicode="|" glyph-name="bar" horiz-adv-x="250" d="M91 690Q91 718 108 732T149 746H151Q174 746 190 732T206 690V3Q206 -26 189 -40T149 -54H147Q123 -54 107 -40T91 3V690V690Z" />
<glyph unicode="}" glyph-name="braceright" horiz-adv-x="367" d="M217 741Q298 741 331 705T349 602L312 443Q307 423 314 410T344 387L346 386Q382 372 376 334L375 328Q371 308 362 299T332 287L326 286Q299 281 285 270T264 233L228 79Q214 17 181 -16T74
-49H13Q-38 -49 -33 0L-32 7Q-26 47 20 47H58Q84 47 92 78L127 232Q137 273 162 300T242 339V342Q194 356 182 385T179 458L215 614Q223 645 193 645H172Q121 645 126 694L127 701Q133 741 179 741H217Z" />
<glyph unicode="~" glyph-name="asciitilde" horiz-adv-x="394" d="M269 217Q250 217 234 222T203 234T176 246T152 252Q137 252 128 246T110 232T94 218T72 211H70Q46 211 34 231T33 289Q43 323 70 345T141 367Q160 367 176 362T207 350T234 338T258 332Q273
332 282 338T300 352T316 366T338 373H340Q364 373 376 353T377 295Q367 261 340 239T269 217Z" />
<glyph unicode="&#xa1;" glyph-name="exclamdown" horiz-adv-x="264" d="M153 14Q146 -28 128 -50T79 -72H77Q50 -72 33 -63T8 -37T0 2T8 48L114 379Q120 398 132 410T164 423H165Q192 423 203 405T209 353L153 14ZM117 551Q117 569 124 584T144 610T172 628T205
634Q240 634 261 611T283 556Q283 538 276 523T257 497T229 480T196 473Q161 473 139 496T117 551Z" />
<glyph unicode="&#xa2;" glyph-name="cent" horiz-adv-x="517" d="M418 529Q436 526 451 522T480 512Q507 499 514 483T517 441L515 431Q511 412 500 403T472 394Q460 394 452 397T435 405T416 415T393 423L319 99Q339 102 352 107T375 117T393 127T411 131Q431
131 441 118T450 84L449 75Q446 50 431 35T386 9Q351 -4 294 -7L280 -67Q271 -108 238 -108H237Q212 -108 201 -94T194 -56L206 -1Q115 15 71 72T27 213Q27 280 50 336T114 435T210 503T330 532L335 553Q344 594 377 594H378Q402 594 414 580T421 542L418 529ZM171
216Q171 131 231 106L304 420Q271 411 247 392T205 345T180 285T171 216Z" />
<glyph unicode="&#xa3;" glyph-name="sterling" horiz-adv-x="510" d="M251 299Q249 282 247 265T241 230Q233 197 216 169T177 122H407Q468 122 468 70V69Q468 39 450 20T400 0H29Q6 0 -7 13T-21 48V50Q-21 62 -19 71T-11 87T4 102T27 120Q54 140 72 164T99 221Q104
241 105 260T107 299H90Q66 299 53 310T40 342V343Q40 369 56 385T96 401H103Q101 430 102 458T111 516Q134 613 206 660T383 708Q424 708 459 701T522 679Q548 665 556 648T560 604L557 589Q553 569 541 557T509 545Q492 545 481 552T456 568T425 584T378 591Q340
591 307 570T263 504Q257 479 256 454T253 401H364Q388 401 401 390T414 358V357Q414 331 398 315T358 299H251Z" />
<glyph unicode="&#xa5;" glyph-name="yen" horiz-adv-x="582" d="M353 157L334 74Q325 34 307 15T257 -5H256Q210 -5 193 22T186 98L199 157H78Q55 157 45 167T34 196V198Q34 218 46 231T83 244H219L231 299H111Q88 299 78 309T67 338V340Q67 360 79 373T116 386H208L135
602Q127 624 129 642T141 675T167 697T205 705H207Q255 705 276 638L339 432H341L502 657Q518 679 532 692T566 705H568Q586 705 600 697T622 674T629 642T614 606L447 386H528Q571 386 571 349V347Q571 327 559 313T522 299H385L373 244H495Q538 244 538 207V205Q538
185 526 171T489 157H353Z" />
<glyph unicode="&#xa6;" glyph-name="brokenbar" horiz-adv-x="249" d="M89 256Q89 287 106 300T146 313H148Q171 313 188 300T205 256V6Q205 -25 188 -37T148 -49H146Q122 -49 106 -37T89 8V256ZM205 445Q205 414 188 401T148 388H146Q123 388 106 401T89 445V690Q89
721 105 733T146 746H148Q171 746 188 734T205 690V445Z" />
<glyph unicode="&#xa7;" glyph-name="section" horiz-adv-x="524" d="M513 304Q513 281 506 258T483 215T441 177T376 150Q396 131 406 108T417 54Q417 -30 357 -80T180 -131Q133 -131 95 -122T31 -98Q6 -84 0 -66T-1 -27L1 -17Q6 2 17 11T49 21Q63 21 74 14T100
-3T133 -20T183 -28Q271 -28 271 24Q271 50 248 67T165 107Q91 133 57 170T22 265Q22 297 32 321T61 364T104 395T158 416Q138 436 130 461T121 522Q121 562 137 596T184 655T256 694T351 708Q396 708 426 702T480 685Q509 672 516 656T519 615L517 606Q512 586
500 575T469 563Q452 563 441 569T417 582T390 595T349 601Q306 601 281 586T255 544Q255 532 258 522T272 503T302 486T351 467Q391 453 421 439T472 405T502 362T513 304ZM236 224Q253 217 268 212T297 199Q335 210 354 227T374 272Q374 299 353 315T289 347Q275
352 262 356T238 366Q197 360 178 341T159 296Q159 274 176 257T236 224Z" />
<glyph unicode="&#xa8;" glyph-name="dieresis" horiz-adv-x="400" d="M268 642Q268 609 244 588T188 566Q156 566 137 587T118 637Q118 653 124 667T142 691T167 707T197 713Q229 713 248 692T268 642ZM460 642Q460 609 436 588T380 566Q348 566 329 587T310
637Q310 653 316 667T334 691T359 707T389 713Q421 713 440 692T460 642Z" />
<glyph unicode="&#xa9;" glyph-name="copyright" horiz-adv-x="780" d="M771 350Q771 263 742 197T664 85T549 16T412 -8Q340 -8 275 15T161 84T82 196T53 350Q53 437 82 503T160 615T275 684T412 708Q484 708 549 685T663 616T742 504T771 350ZM115 350Q115 276
138 219T201 123T296 64T412 43Q474 43 528 63T622 123T686 219T709 350Q709 423 686 480T623 577T528 636T412 657Q350 657 296 637T202 577T138 481T115 350ZM518 174Q500 164 475 159T423 154Q329 154 277 205T224 351Q224 397 239 434T282 496T347 536T428
550Q448 550 467 548T505 539Q529 531 538 518T548 484V476Q548 459 538 450T514 440Q503 440 495 444T478 454T457 463T428 468Q386 468 362 438T338 350Q338 290 361 263T426 236Q447 236 460 240T483 249T501 259T518 263Q549 263 549 228V225Q549 206 542 195T518
174Z" />
<glyph unicode="&#xaa;" glyph-name="ordfeminine" horiz-adv-x="447" d="M428 302Q416 253 372 253H371Q346 253 329 266T307 307Q260 253 181 253Q122 253 90 285T58 373Q58 412 73 440T114 488T178 516T259 526Q282 526 303 524T343 516L346 527Q357 574 340
592T283 611Q259 611 243 607T215 596T193 586T170 581Q153 581 143 593T135 626L136 633Q139 655 152 669T197 693Q246 708 310 708Q358 708 394 697T453 663T482 603T477 515L428 302ZM233 337Q256 337 274 346T310 369L327 443Q300 451 270 451Q231 451 210
434T188 383Q188 360 200 349T233 337Z" />
<glyph unicode="&#xab;" glyph-name="guillemotleft" horiz-adv-x="515" d="M159 35Q136 35 123 50T99 88L41 212Q33 229 31 238T29 255V256Q29 268 33 279T50 304L179 444Q197 464 210 474T241 485H242Q261 485 274 476T293 452T297 422T282 393L158 254V251L216
120Q231 86 214 61T161 35H159ZM370 35Q347 35 334 50T310 88L252 212Q244 229 242 238T240 255V256Q240 268 244 279T261 304L390 444Q408 464 421 474T452 485H453Q472 485 485 476T504 452T508 422T493 393L369 254V251L427 120Q442 86 425 61T372 35H370Z"
/>
<glyph unicode="&#xae;" glyph-name="registered" horiz-adv-x="386" d="M70 529Q70 572 85 605T125 661T184 696T254 708Q290 708 323 696T381 661T422 605T438 529Q438 487 423 454T382 397T323 362T254 350Q218 350 185 362T126 397T85 453T70 529ZM112 529Q112
493 123 467T153 422T198 395T254 386Q284 386 309 395T354 422T385 466T396 529Q396 565 385 591T355 636T310 663T254 672Q224 672 199 663T154 636T123 592T112 529ZM180 587Q180 610 191 618T219 626H260Q336 626 336 565Q336 532 307 516L331 475Q340 459
333 448T310 436H308Q286 436 272 466L253 504H237V464Q237 448 229 442T210 436H208Q196 436 188 442T180 464V587ZM237 541H255Q269 541 274 547T279 566Q279 577 274 583T255 589H237V541Z" />
<glyph unicode="&#xaf;" glyph-name="macron" horiz-adv-x="400" d="M200 584Q175 584 164 595T152 627V628Q152 652 166 667T207 682H374Q399 682 410 671T422 640V638Q422 615 408 600T367 584H200Z" />
<glyph unicode="&#xb0;" glyph-name="degree" horiz-adv-x="348" d="M172 560Q172 530 189 511T236 491Q267 491 288 511T310 570Q310 600 292 619T244 639Q213 639 193 619T172 560ZM387 571Q387 536 374 509T340 463T290 434T232 424Q202 424 177 434T133 462T104
505T93 559Q93 593 106 620T140 667T190 696T248 706Q278 706 303 696T347 668T376 625T387 571Z" />
<glyph unicode="&#xb2;" glyph-name="two.superior" horiz-adv-x="336" d="M79 315Q62 315 52 325T41 356V357Q41 384 57 398T94 428L178 488Q214 514 239 537T264 586Q264 621 220 621Q205 621 195 617T177 609T162 600T143 596Q128 596 120 607T114 637L115
643Q118 660 128 672T162 693Q197 706 244 706Q313 706 347 677T381 599Q381 552 347 517T249 440L185 399H294Q335 399 335 362V360Q335 339 323 327T288 315H79Z" />
<glyph unicode="&#xb3;" glyph-name="three.superior" horiz-adv-x="331" d="M203 547Q229 550 243 559T258 586Q258 606 248 615T213 624Q200 624 191 621T175 614T160 607T143 603Q128 603 119 612T113 642L114 649Q116 663 126 674T159 694Q176 700 195 703T236
707Q295 707 333 683T371 603Q371 562 347 539T277 506V504Q306 497 324 477T343 424Q343 397 331 376T296 339T244 317T179 309Q150 309 122 315T72 334Q43 351 48 384L49 390Q54 422 84 422Q94 422 102 417T120 405T142 393T174 387Q199 387 214 398T229 430Q229
460 191 470L187 471Q167 476 159 484T151 507Q151 523 159 532T195 546L203 547Z" />
<glyph unicode="&#xb4;" glyph-name="acute" horiz-adv-x="400" d="M254 646Q265 670 283 687T335 704H372Q388 704 398 696T411 675T410 650T395 627L347 587Q333 576 318 569T287 561H282Q257 561 244 579T242 621L254 646V646Z" />
<glyph unicode="&#xb6;" glyph-name="paragraph" horiz-adv-x="592" d="M555 700Q593 700 607 677T615 624L460 -47Q455 -69 443 -82T409 -96H408Q377 -96 365 -77T361 -26L506 598H435L285 -47Q280 -69 268 -82T234 -96H233Q202 -96 190 -77T186 -26L262 303H259Q220
303 187 314T129 346T90 399T76 470Q76 538 102 582T170 653T268 689T381 700H555Z" />
<glyph unicode="&#xb7;" glyph-name="periodcentered" horiz-adv-x="203" d="M193 298Q193 280 186 265T166 239T138 221T105 215Q70 215 49 238T27 293Q27 311 34 326T53 352T81 369T114 376Q149 376 171 353T193 298Z" />
<glyph unicode="&#xb8;" glyph-name="cedilla" horiz-adv-x="400" d="M161 -24Q194 -26 210 -44T226 -89Q226 -114 216 -130T190 -157T154 -171T111 -175Q92 -175 78 -173T54 -166Q38 -160 34 -151T31 -127L32 -121Q35 -99 57 -99Q63 -99 68 -101T78 -106T90 -111T107
-113Q120 -113 129 -109T138 -94Q138 -86 132 -81T108 -76H107Q94 -76 89 -69T86 -50L102 17H171L161 -24Z" />
<glyph unicode="&#xb9;" glyph-name="one.superior" horiz-adv-x="263" d="M265 705Q288 705 299 691T306 653L239 363Q234 339 220 325T183 310H182Q149 310 135 330T129 385L174 583L154 573Q146 569 139 567T124 564Q110 564 102 574T93 604V605Q93 622 104
633T141 657L203 686Q229 698 241 701T264 705H265Z" />
<glyph unicode="&#xba;" glyph-name="ordmasculine" horiz-adv-x="520" d="M209 438Q209 392 231 370T288 347Q310 347 331 358T369 392T396 447T407 522Q407 564 388 590T328 616Q307 616 286 605T248 572T220 516T209 438ZM542 518Q542 456 520 407T462 323T379
270T283 252Q236 252 198 265T132 304T89 364T74 442Q74 504 95 553T152 636T234 689T331 708Q374 708 412 696T480 659T525 600T542 518Z" />
<glyph unicode="&#xbb;" glyph-name="guillemotright" horiz-adv-x="515" d="M148 485Q171 485 184 470T208 432L266 308Q274 291 276 282T278 265V264Q278 252 274 241T257 216L128 76Q110 56 97 46T66 35H65Q45 35 32 44T14 68T10 98T25 127L149 266V269L91
400Q76 434 93 459T146 485H148ZM359 485Q382 485 395 470T419 432L477 308Q485 291 487 282T489 265V264Q489 252 485 241T468 216L339 76Q321 56 308 46T277 35H276Q256 35 243 44T225 68T221 98T236 127L360 266V269L302 400Q287 434 304 459T357 485H359Z"
/>
<glyph unicode="&#xbc;" glyph-name="onequarter" horiz-adv-x="726" d="M264 705Q287 705 298 691T305 653L238 363Q233 339 219 325T182 310H181Q148 310 134 330T128 385L173 583L153 573Q145 569 138 567T123 564Q109 564 101 574T92 604V605Q92 622 103 633T140
657L202 686Q228 698 240 701T263 705H264ZM442 152H537L565 271H562L442 154V152ZM553 349Q577 372 593 381T631 390H632Q659 390 674 372T681 320L642 152H645Q680 152 680 119V118Q680 100 670 90T640 79H625L617 43Q612 21 600 8T565 -5H564Q535 -5 522 13T516
65L519 79H392Q349 79 349 119V120Q349 143 360 157T395 194L553 349ZM142 -3Q128 -20 118 -27T95 -34H94Q80 -34 71 -27T58 -8T57 18T73 46L614 703Q628 720 638 727T661 734H662Q675 734 685 727T699 709T700 684T685 657L142 -3Z" />
<glyph unicode="&#xbd;" glyph-name="onehalf" horiz-adv-x="773" d="M264 705Q287 705 298 691T305 653L238 363Q233 339 219 325T182 310H181Q148 310 134 330T128 385L173 583L153 573Q145 569 138 567T123 564Q109 564 101 574T92 604V605Q92 622 103 633T140
657L202 686Q228 698 240 701T263 705H264ZM443 0Q426 0 416 10T405 41V42Q405 69 421 83T458 113L542 173Q578 199 603 222T628 271Q628 306 584 306Q569 306 559 302T541 294T526 285T507 281Q492 281 484 292T478 322L479 328Q482 345 492 357T526 378Q561 391
608 391Q677 391 711 362T745 284Q745 237 711 202T613 125L549 84H658Q699 84 699 47V45Q699 24 687 12T652 0H443ZM142 -3Q128 -20 118 -27T95 -34H94Q80 -34 71 -27T58 -8T57 18T73 46L614 703Q628 720 638 727T661 734H662Q675 734 685 727T699 709T700 684T685
657L142 -3Z" />
<glyph unicode="&#xbe;" glyph-name="threequarters" horiz-adv-x="772" d="M208 547Q234 550 248 559T263 586Q263 606 253 615T218 624Q205 624 196 621T180 614T165 607T148 603Q133 603 124 612T118 642L119 649Q121 663 131 674T164 694Q181 700 200 703T241
707Q300 707 338 683T376 603Q376 562 352 539T282 506V504Q311 497 329 477T348 424Q348 397 336 376T301 339T249 317T184 309Q155 309 127 315T77 334Q48 351 53 384L54 390Q59 422 89 422Q99 422 107 417T125 405T147 393T179 387Q204 387 219 398T234 430Q234
460 196 470L192 471Q172 476 164 484T156 507Q156 523 164 532T200 546L208 547ZM488 152H583L611 271H608L488 154V152ZM599 349Q623 372 639 381T677 390H678Q705 390 720 372T727 320L688 152H691Q726 152 726 119V118Q726 100 716 90T686 79H671L663 43Q658
21 646 8T611 -5H610Q581 -5 568 13T562 65L565 79H438Q395 79 395 119V120Q395 143 406 157T441 194L599 349ZM194 -3Q180 -20 170 -27T147 -34H146Q132 -34 123 -27T110 -8T109 18T125 46L666 703Q680 720 690 727T713 734H714Q727 734 737 727T751 709T752 684T737
657L194 -3Z" />
<glyph unicode="&#xbf;" glyph-name="questiondown" horiz-adv-x="449" d="M315 426Q338 426 351 411T362 365Q359 328 335 297T262 228Q244 215 225 201T188 171T160 136T149 93Q149 61 170 47T223 33Q247 33 262 38T291 51T315 63T342 69Q362 69 374 55T382
15L380 3Q375 -26 357 -40T316 -62Q292 -71 262 -76T197 -81Q158 -81 122 -73T57 -46T12 5T-5 83Q-5 150 34 200T138 282Q187 307 211 327T250 373Q263 398 275 412T314 426H315ZM256 551Q256 569 263 584T283 610T311 628T344 634Q379 634 400 611T422 556Q422
538 415 523T396 497T368 480T335 473Q300 473 278 496T256 551Z" />
<glyph unicode="&#xc0;" glyph-name="Agrave" horiz-adv-x="665" d="M300 632Q318 664 345 684T411 705H418Q462 705 486 682T515 623L586 86Q591 43 570 19T506 -5H504Q472 -5 454 16T431 75L419 185H186L117 54Q104 29 89 12T47 -5H45Q27 -5 13 3T-10 25T-18
56T-4 94L300 632ZM242 292H407L380 550H378L242 292ZM467 779Q476 753 463 738T427 722H419Q385 722 355 753L324 785Q312 797 309 810T310 835T325 854T353 861H375Q407 861 426 851T456 811L467 779Z" />
<glyph unicode="&#xc1;" glyph-name="Aacute" horiz-adv-x="665" d="M300 632Q318 664 345 684T411 705H418Q462 705 486 682T515 623L586 86Q591 43 570 19T506 -5H504Q472 -5 454 16T431 75L419 185H186L117 54Q104 29 89 12T47 -5H45Q27 -5 13 3T-10 25T-18
56T-4 94L300 632ZM242 292H407L380 550H378L242 292ZM395 811Q409 840 426 850T474 861H505Q522 861 532 853T547 832T547 807T529 783L492 753Q475 739 459 731T425 722H419Q396 722 383 738T380 779L395 811Z" />
<glyph unicode="&#xc2;" glyph-name="Acircumflex" horiz-adv-x="665" d="M300 632Q318 664 345 684T411 705H418Q462 705 486 682T515 623L586 86Q591 43 570 19T506 -5H504Q472 -5 454 16T431 75L419 185H186L117 54Q104 29 89 12T47 -5H45Q27 -5 13 3T-10 25T-18
56T-4 94L300 632ZM242 292H407L380 550H378L242 292ZM422 768L393 746Q377 732 365 727T341 721H339Q324 721 313 730T299 753T301 784T327 818L334 824Q355 842 380 852T429 863H435Q455 863 475 852T515 819L521 812Q536 794 539 778T538 749T523 729T500 721H498Q481
721 469 729T443 749L422 768Z" />
<glyph unicode="&#xc3;" glyph-name="Atilde" horiz-adv-x="665" d="M300 632Q318 664 345 684T411 705H418Q462 705 486 682T515 623L586 86Q591 43 570 19T506 -5H504Q472 -5 454 16T431 75L419 185H186L117 54Q104 29 89 12T47 -5H45Q27 -5 13 3T-10 25T-18
56T-4 94L300 632ZM242 292H407L380 550H378L242 292ZM483 723Q469 723 454 727T425 737T398 746T375 751Q361 751 353 746T338 734Q332 728 325 723T304 717H302Q281 717 272 734T272 786Q280 815 304 835T371 855Q385 855 400 851T429 842T456 832T479 828Q493
828 501 833T516 844Q523 850 530 855T550 860H552Q573 860 582 842T582 791Q573 761 549 742T483 723Z" />
<glyph unicode="&#xc4;" glyph-name="Adieresis" horiz-adv-x="665" d="M300 632Q318 664 345 684T411 705H418Q462 705 486 682T515 623L586 86Q591 43 570 19T506 -5H504Q472 -5 454 16T431 75L419 185H186L117 54Q104 29 89 12T47 -5H45Q27 -5 13 3T-10 25T-18
56T-4 94L300 632ZM242 292H407L380 550H378L242 292ZM413 798Q413 765 389 744T333 722Q301 722 282 743T263 793Q263 809 269 823T287 847T312 863T342 869Q374 869 393 848T413 798ZM605 798Q605 765 581 744T525 722Q493 722 474 743T455 793Q455 809 461 823T479
847T504 863T534 869Q566 869 585 848T605 798Z" />
<glyph unicode="&#xc5;" glyph-name="Aring" horiz-adv-x="665" d="M300 632Q318 664 345 684T411 705H418Q462 705 486 682T515 623L586 86Q591 43 570 19T506 -5H504Q472 -5 454 16T431 75L419 185H186L117 54Q104 29 89 12T47 -5H45Q27 -5 13 3T-10 25T-18
56T-4 94L300 632ZM242 292H407L380 550H378L242 292ZM549 829Q549 805 540 786T516 753T481 732T440 724Q398 724 369 748T339 818Q339 842 348 862T372 896T407 917T448 925Q490 925 519 900T549 829ZM408 819Q408 804 416 795T441 786Q458 786 469 797T481 828Q481
845 472 854T446 863Q429 863 419 851T408 819Z" />
<glyph unicode="&#xc6;" glyph-name="AE" horiz-adv-x="932" d="M415 187H208L108 42Q88 14 75 5T43 -5H41Q23 -5 9 4T-11 28T-15 64T4 107L381 638Q401 667 433 683T501 700H914Q941 700 955 688T969 652V651Q969 622 952 605T908 587H664L623 409H774Q800 409
813 397T827 364V363Q827 336 811 319T768 302H598L554 110H802Q829 110 843 98T857 63V62Q857 35 840 18T796 0H451Q421 0 402 20T390 76L415 187ZM282 294H440L508 587H484L282 294Z" />
<glyph unicode="&#xc7;" glyph-name="Ccedilla" horiz-adv-x="617" d="M479 13Q456 3 422 -2T349 -8Q341 -8 334 -8T316 -7L312 -24Q345 -26 361 -44T377 -89Q377 -114 367 -130T341 -157T305 -171T262 -175Q243 -175 229 -173T205 -166Q189 -160 185 -151T182
-127L183 -121Q186 -99 208 -99Q214 -99 219 -101T229 -106T241 -111T258 -113Q271 -113 280 -109T289 -94Q289 -86 283 -81T259 -76H258Q245 -76 240 -69T237 -50L249 2Q203 13 166 35T101 90T60 169T45 274Q45 355 71 433T149 572T274 670T446 708Q491 708 526
702T590 682Q646 656 634 607L632 599Q619 552 578 552Q563 552 552 558T527 573T493 588T439 595Q374 595 329 563T256 483T216 378T204 272Q204 182 244 142T357 102Q393 102 415 109T451 125T477 141T504 149Q528 149 539 132T547 91L546 85Q542 61 527 44T479
13Z" />
<glyph unicode="&#xc8;" glyph-name="Egrave" horiz-adv-x="563" d="M229 302L185 110H433Q460 110 474 98T488 63V62Q488 35 471 18T427 0H82Q52 0 33 20T21 76L148 624Q157 663 183 681T243 700H545Q572 700 586 688T600 652V651Q600 622 583 605T539 587H295L254
409H405Q431 409 444 397T458 364V363Q458 336 442 319T399 302H229ZM434 779Q443 753 430 738T394 722H386Q352 722 322 753L291 785Q279 797 276 810T277 835T292 854T320 861H342Q374 861 393 851T423 811L434 779Z" />
<glyph unicode="&#xc9;" glyph-name="Eacute" horiz-adv-x="563" d="M229 302L185 110H433Q460 110 474 98T488 63V62Q488 35 471 18T427 0H82Q52 0 33 20T21 76L148 624Q157 663 183 681T243 700H545Q572 700 586 688T600 652V651Q600 622 583 605T539 587H295L254
409H405Q431 409 444 397T458 364V363Q458 336 442 319T399 302H229ZM362 811Q376 840 393 850T441 861H472Q489 861 499 853T514 832T514 807T496 783L459 753Q442 739 426 731T392 722H386Q363 722 350 738T347 779L362 811Z" />
<glyph unicode="&#xca;" glyph-name="Ecircumflex" horiz-adv-x="563" d="M229 302L185 110H433Q460 110 474 98T488 63V62Q488 35 471 18T427 0H82Q52 0 33 20T21 76L148 624Q157 663 183 681T243 700H545Q572 700 586 688T600 652V651Q600 622 583 605T539 587H295L254
409H405Q431 409 444 397T458 364V363Q458 336 442 319T399 302H229ZM390 768L361 746Q345 732 333 727T309 721H307Q292 721 281 730T267 753T269 784T295 818L302 824Q323 842 348 852T397 863H403Q423 863 443 852T483 819L489 812Q504 794 507 778T506 749T491
729T468 721H466Q449 721 437 729T411 749L390 768Z" />
<glyph unicode="&#xcb;" glyph-name="Edieresis" horiz-adv-x="563" d="M229 302L185 110H433Q460 110 474 98T488 63V62Q488 35 471 18T427 0H82Q52 0 33 20T21 76L148 624Q157 663 183 681T243 700H545Q572 700 586 688T600 652V651Q600 622 583 605T539 587H295L254
409H405Q431 409 444 397T458 364V363Q458 336 442 319T399 302H229ZM381 798Q381 765 357 744T301 722Q269 722 250 743T231 793Q231 809 237 823T255 847T280 863T310 869Q342 869 361 848T381 798ZM573 798Q573 765 549 744T493 722Q461 722 442 743T423 793Q423
809 429 823T447 847T472 863T502 869Q534 869 553 848T573 798Z" />
<glyph unicode="&#xcc;" glyph-name="Igrave" horiz-adv-x="287" d="M152 629Q161 669 179 687T227 705H229Q275 705 294 678T303 603L180 72Q163 -5 105 -5H103Q57 -5 37 21T28 94L152 629ZM554 779Q563 753 550 738T514 722H506Q472 722 442 753L411 785Q399
797 396 810T397 835T412 854T440 861H462Q494 861 513 851T543 811L554 779Z" />
<glyph unicode="&#xcd;" glyph-name="Iacute" horiz-adv-x="287" d="M152 629Q161 669 179 687T227 705H229Q275 705 294 678T303 603L180 72Q163 -5 105 -5H103Q57 -5 37 21T28 94L152 629ZM481 811Q495 840 512 850T560 861H591Q608 861 618 853T633 832T633
807T615 783L578 753Q561 739 545 731T511 722H505Q482 722 469 738T466 779L481 811Z" />
<glyph unicode="&#xce;" glyph-name="Icircumflex" horiz-adv-x="287" d="M152 629Q161 669 179 687T227 705H229Q275 705 294 678T303 603L180 72Q163 -5 105 -5H103Q57 -5 37 21T28 94L152 629ZM508 768L479 746Q463 732 451 727T427 721H425Q410 721 399 730T385
753T387 784T413 818L420 824Q441 842 466 852T515 863H521Q541 863 561 852T601 819L607 812Q622 794 625 778T624 749T609 729T586 721H584Q567 721 555 729T529 749L508 768Z" />
<glyph unicode="&#xcf;" glyph-name="Idieresis" horiz-adv-x="287" d="M152 629Q161 669 179 687T227 705H229Q275 705 294 678T303 603L180 72Q163 -5 105 -5H103Q57 -5 37 21T28 94L152 629ZM499 798Q499 765 475 744T419 722Q387 722 368 743T349 793Q349
809 355 823T373 847T398 863T428 869Q460 869 479 848T499 798ZM691 798Q691 765 667 744T611 722Q579 722 560 743T541 793Q541 809 547 823T565 847T590 863T620 869Q652 869 671 848T691 798Z" />
<glyph unicode="&#xd0;" glyph-name="Eth" horiz-adv-x="694" d="M380 700Q523 700 603 627T683 414Q683 336 659 262T586 129T464 36T292 0H87Q47 0 31 24T22 81L71 295H65Q37 295 25 307T12 342V344Q12 369 27 385T72 402H96L148 624Q156 656 178 678T243 700H380ZM252
402H340Q368 402 380 390T393 356V354Q393 328 378 312T333 295H227L185 110H287Q356 110 401 140T474 215T512 313T523 414Q523 450 516 481T492 537T447 574T377 588H295L252 402Z" />
<glyph unicode="&#xd1;" glyph-name="Ntilde" horiz-adv-x="686" d="M581 64Q574 35 556 17T500 -2H490Q452 -2 433 16T403 63L254 509H251L147 57Q140 29 126 12T85 -5H84Q49 -5 31 16T23 83L148 624Q156 657 176 678T239 700H268Q310 700 332 680T366 626L489
252H492L582 642Q589 670 603 687T644 705H646Q683 705 701 683T708 615L581 64ZM533 723Q519 723 504 727T475 737T448 746T425 751Q411 751 403 746T388 734Q382 728 375 723T354 717H352Q331 717 322 734T322 786Q330 815 354 835T421 855Q435 855 450 851T479
842T506 832T529 828Q543 828 551 833T566 844Q573 850 580 855T600 860H602Q623 860 632 842T632 791Q623 761 599 742T533 723Z" />
<glyph unicode="&#xd2;" glyph-name="Ograve" horiz-adv-x="730" d="M204 284Q204 245 212 212T237 154T282 115T350 100Q406 100 446 131T512 209T550 311T562 415Q562 450 555 483T532 542T487 584T417 600Q360 600 320 568T254 489T216 386T204 284ZM721 412Q721
334 696 259T623 124T505 29T345 -8Q276 -8 221 13T126 74T66 167T45 288Q45 370 71 445T146 579T264 673T420 708Q489 708 544 687T639 626T700 533T721 412ZM483 779Q492 753 479 738T443 722H435Q401 722 371 753L340 785Q328 797 325 810T326 835T341 854T369
861H391Q423 861 442 851T472 811L483 779Z" />
<glyph unicode="&#xd3;" glyph-name="Oacute" horiz-adv-x="730" d="M204 284Q204 245 212 212T237 154T282 115T350 100Q406 100 446 131T512 209T550 311T562 415Q562 450 555 483T532 542T487 584T417 600Q360 600 320 568T254 489T216 386T204 284ZM721 412Q721
334 696 259T623 124T505 29T345 -8Q276 -8 221 13T126 74T66 167T45 288Q45 370 71 445T146 579T264 673T420 708Q489 708 544 687T639 626T700 533T721 412ZM410 811Q424 840 441 850T489 861H520Q537 861 547 853T562 832T562 807T544 783L507 753Q490 739 474
731T440 722H434Q411 722 398 738T395 779L410 811Z" />
<glyph unicode="&#xd4;" glyph-name="Ocircumflex" horiz-adv-x="730" d="M204 284Q204 245 212 212T237 154T282 115T350 100Q406 100 446 131T512 209T550 311T562 415Q562 450 555 483T532 542T487 584T417 600Q360 600 320 568T254 489T216 386T204 284ZM721
412Q721 334 696 259T623 124T505 29T345 -8Q276 -8 221 13T126 74T66 167T45 288Q45 370 71 445T146 579T264 673T420 708Q489 708 544 687T639 626T700 533T721 412ZM437 768L408 746Q392 732 380 727T356 721H354Q339 721 328 730T314 753T316 784T342 818L349
824Q370 842 395 852T444 863H450Q470 863 490 852T530 819L536 812Q551 794 554 778T553 749T538 729T515 721H513Q496 721 484 729T458 749L437 768Z" />
<glyph unicode="&#xd5;" glyph-name="Otilde" horiz-adv-x="730" d="M204 284Q204 245 212 212T237 154T282 115T350 100Q406 100 446 131T512 209T550 311T562 415Q562 450 555 483T532 542T487 584T417 600Q360 600 320 568T254 489T216 386T204 284ZM721 412Q721
334 696 259T623 124T505 29T345 -8Q276 -8 221 13T126 74T66 167T45 288Q45 370 71 445T146 579T264 673T420 708Q489 708 544 687T639 626T700 533T721 412ZM503 723Q489 723 474 727T445 737T418 746T395 751Q381 751 373 746T358 734Q352 728 345 723T324 717H322Q301
717 292 734T292 786Q300 815 324 835T391 855Q405 855 420 851T449 842T476 832T499 828Q513 828 521 833T536 844Q543 850 550 855T570 860H572Q593 860 602 842T602 791Q593 761 569 742T503 723Z" />
<glyph unicode="&#xd6;" glyph-name="Odieresis" horiz-adv-x="730" d="M204 284Q204 245 212 212T237 154T282 115T350 100Q406 100 446 131T512 209T550 311T562 415Q562 450 555 483T532 542T487 584T417 600Q360 600 320 568T254 489T216 386T204 284ZM721
412Q721 334 696 259T623 124T505 29T345 -8Q276 -8 221 13T126 74T66 167T45 288Q45 370 71 445T146 579T264 673T420 708Q489 708 544 687T639 626T700 533T721 412ZM428 798Q428 765 404 744T348 722Q316 722 297 743T278 793Q278 809 284 823T302 847T327 863T357
869Q389 869 408 848T428 798ZM620 798Q620 765 596 744T540 722Q508 722 489 743T470 793Q470 809 476 823T494 847T519 863T549 869Q581 869 600 848T620 798Z" />
<glyph unicode="&#xd7;" glyph-name="multiply" d="M433 227Q448 207 446 186T424 149L420 146Q400 132 380 134T345 156L263 262L126 143Q109 129 89 130T55 149L52 153Q38 170 41 188T61 221L201 342L117 451Q102 471 104 492T126 529L130 532Q150 546 170 544T205
522L287 416L427 535Q444 549 463 548T496 528L499 524Q513 507 510 489T490 457L349 336L433 227Z" />
<glyph unicode="&#xd8;" glyph-name="Oslash" horiz-adv-x="730" d="M721 412Q721 334 697 259T624 124T506 29T345 -8Q292 -8 248 5T168 42L133 4Q118 -12 107 -18T85 -25H84Q71 -25 60 -18T44 0T41 27T59 58L102 105Q45 182 45 288Q45 370 71 445T146 579T264
673T420 708Q474 708 519 694T602 654L632 687Q647 703 658 709T680 716H681Q694 716 705 709T721 691T724 664T706 633L667 590Q693 553 707 508T721 412ZM201 284Q201 267 202 251T206 219L519 563Q502 580 477 590T417 600Q360 600 320 568T253 489T214 386T201
284ZM565 415Q565 430 564 444T560 473L249 131Q266 116 291 108T352 99Q408 99 448 130T515 208T553 311T565 415Z" />
<glyph unicode="&#xd9;" glyph-name="Ugrave" horiz-adv-x="666" d="M606 244Q593 188 570 142T512 62T427 11T310 -8Q240 -8 187 11T101 68T58 159T63 283L143 630Q152 670 172 687T217 705H218Q263 705 283 679T293 604L214 264Q206 232 207 204T221 154T258
120T323 107Q387 107 423 141T478 253L568 643Q576 676 592 690T630 705H631Q667 705 684 682T692 618L606 244ZM494 779Q503 753 490 738T454 722H446Q412 722 382 753L351 785Q339 797 336 810T337 835T352 854T380 861H402Q434 861 453 851T483 811L494 779Z"
/>
<glyph unicode="&#xda;" glyph-name="Uacute" horiz-adv-x="666" d="M606 244Q593 188 570 142T512 62T427 11T310 -8Q240 -8 187 11T101 68T58 159T63 283L143 630Q152 670 172 687T217 705H218Q263 705 283 679T293 604L214 264Q206 232 207 204T221 154T258
120T323 107Q387 107 423 141T478 253L568 643Q576 676 592 690T630 705H631Q667 705 684 682T692 618L606 244ZM421 811Q435 840 452 850T500 861H531Q548 861 558 853T573 832T573 807T555 783L518 753Q501 739 485 731T451 722H445Q422 722 409 738T406 779L421
811Z" />
<glyph unicode="&#xdb;" glyph-name="Ucircumflex" horiz-adv-x="666" d="M606 244Q593 188 570 142T512 62T427 11T310 -8Q240 -8 187 11T101 68T58 159T63 283L143 630Q152 670 172 687T217 705H218Q263 705 283 679T293 604L214 264Q206 232 207 204T221 154T258
120T323 107Q387 107 423 141T478 253L568 643Q576 676 592 690T630 705H631Q667 705 684 682T692 618L606 244ZM449 768L420 746Q404 732 392 727T368 721H366Q351 721 340 730T326 753T328 784T354 818L361 824Q382 842 407 852T456 863H462Q482 863 502 852T542
819L548 812Q563 794 566 778T565 749T550 729T527 721H525Q508 721 496 729T470 749L449 768Z" />
<glyph unicode="&#xdc;" glyph-name="Udieresis" horiz-adv-x="666" d="M606 244Q593 188 570 142T512 62T427 11T310 -8Q240 -8 187 11T101 68T58 159T63 283L143 630Q152 670 172 687T217 705H218Q263 705 283 679T293 604L214 264Q206 232 207 204T221 154T258
120T323 107Q387 107 423 141T478 253L568 643Q576 676 592 690T630 705H631Q667 705 684 682T692 618L606 244ZM428 798Q428 765 404 744T348 722Q316 722 297 743T278 793Q278 809 284 823T302 847T327 863T357 869Q389 869 408 848T428 798ZM620 798Q620 765
596 744T540 722Q508 722 489 743T470 793Q470 809 476 823T494 847T519 863T549 869Q581 869 600 848T620 798Z" />
<glyph unicode="&#xdd;" glyph-name="Yacute" horiz-adv-x="592" d="M339 75Q321 -5 263 -5H262Q218 -5 197 20T187 92L231 281L116 603Q108 624 110 642T123 675T150 697T192 705H193Q219 705 235 687T262 639L340 409H343L532 660Q547 680 561 692T594 705H595Q614
705 629 696T651 673T656 639T639 600L383 266L339 75ZM380 811Q394 840 411 850T459 861H490Q507 861 517 853T532 832T532 807T514 783L477 753Q460 739 444 731T410 722H404Q381 722 368 738T365 779L380 811Z" />
<glyph unicode="&#xde;" glyph-name="Thorn" horiz-adv-x="591" d="M215 243H285Q359 243 398 276T438 385Q438 420 415 439T333 459H265L215 243ZM291 571H344Q466 571 527 522T588 380Q588 320 567 275T505 200T407 154T277 138H191L176 72Q159 -5 101 -5H99Q53
-5 34 21T25 94L149 629Q158 669 176 687T224 705H226Q271 705 290 678T299 603L291 571Z" />
<glyph unicode="&#xdf;" glyph-name="germandbls" horiz-adv-x="601" d="M157 66Q141 -5 85 -5H84Q42 -5 24 20T18 97L114 515Q123 555 142 591T195 653T275 694T385 710Q428 710 465 700T529 672T572 627T588 566Q588 519 565 490T494 428Q461 406 434 386T407
348Q407 334 419 325T465 295Q517 264 541 232T565 153Q565 79 512 37T364 -6Q336 -6 311 -2T262 13Q211 37 225 90L226 94Q231 114 243 123T272 132Q284 132 294 127T314 116T337 105T367 100Q402 100 416 112T431 139Q431 160 415 171T368 200Q320 226 299 253T277
320Q277 365 305 399T372 466Q391 482 405 494T428 516T442 537T447 558Q447 578 429 593T375 608Q346 608 326 600T292 578T271 546T259 510L157 66Z" />
<glyph unicode="&#xe0;" glyph-name="agrave" horiz-adv-x="509" d="M145 -6Q82 -6 43 30T3 135Q3 178 19 211T65 268T137 303T231 316Q265 316 285 313T322 304L326 323Q338 375 322 401T257 428Q226 428 207 423T173 411T148 400T125 394Q103 394 92 409T85
449L86 454Q93 492 144 511Q197 533 282 533Q337 533 378 520T444 480T475 410T469 308L413 66Q404 28 386 12T340 -5H338Q312 -5 296 8T275 46Q251 23 219 9T145 -6ZM198 85Q224 85 243 96T281 124L303 224Q291 227 276 229T240 232Q190 232 165 208T140 145Q140
116 154 101T198 85ZM347 612Q355 586 343 571T307 555H303Q269 555 240 585L197 629Q185 641 182 654T183 678T198 696T225 704H259Q289 704 308 691T336 648L347 612Z" />
<glyph unicode="&#xe1;" glyph-name="aacute" horiz-adv-x="509" d="M145 -6Q82 -6 43 30T3 135Q3 178 19 211T65 268T137 303T231 316Q265 316 285 313T322 304L326 323Q338 375 322 401T257 428Q226 428 207 423T173 411T148 400T125 394Q103 394 92 409T85
449L86 454Q93 492 144 511Q197 533 282 533Q337 533 378 520T444 480T475 410T469 308L413 66Q404 28 386 12T340 -5H338Q312 -5 296 8T275 46Q251 23 219 9T145 -6ZM198 85Q224 85 243 96T281 124L303 224Q291 227 276 229T240 232Q190 232 165 208T140 145Q140
116 154 101T198 85ZM281 646Q292 670 310 687T362 704H399Q415 704 425 696T438 675T437 650T422 627L374 587Q360 576 345 569T314 561H309Q284 561 271 579T269 621L281 646V646Z" />
<glyph unicode="&#xe2;" glyph-name="acircumflex" horiz-adv-x="509" d="M145 -6Q82 -6 43 30T3 135Q3 178 19 211T65 268T137 303T231 316Q265 316 285 313T322 304L326 323Q338 375 322 401T257 428Q226 428 207 423T173 411T148 400T125 394Q103 394 92 409T85
449L86 454Q93 492 144 511Q197 533 282 533Q337 533 378 520T444 480T475 410T469 308L413 66Q404 28 386 12T340 -5H338Q312 -5 296 8T275 46Q251 23 219 9T145 -6ZM198 85Q224 85 243 96T281 124L303 224Q291 227 276 229T240 232Q190 232 165 208T140 145Q140
116 154 101T198 85ZM224 557Q210 557 199 566T184 591T189 625T222 665L227 669Q252 689 274 698T322 708H327Q347 708 366 697T402 665L406 660Q421 641 426 623T427 590T412 566T384 557H383Q368 557 356 565T331 587L310 609L274 581Q261 570 250 564T226 557H224Z"
/>
<glyph unicode="&#xe3;" glyph-name="atilde" horiz-adv-x="509" d="M145 -6Q82 -6 43 30T3 135Q3 178 19 211T65 268T137 303T231 316Q265 316 285 313T322 304L326 323Q338 375 322 401T257 428Q226 428 207 423T173 411T148 400T125 394Q103 394 92 409T85
449L86 454Q93 492 144 511Q197 533 282 533Q337 533 378 520T444 480T475 410T469 308L413 66Q404 28 386 12T340 -5H338Q312 -5 296 8T275 46Q251 23 219 9T145 -6ZM198 85Q224 85 243 96T281 124L303 224Q291 227 276 229T240 232Q190 232 165 208T140 145Q140
116 154 101T198 85ZM474 633Q465 603 441 584T375 564Q361 564 346 568T317 578T290 588T267 593Q253 593 245 588T230 576Q224 570 217 565T196 559H194Q173 559 164 576T164 628Q173 657 197 677T263 697Q277 697 292 693T321 683T348 673T371 668Q385 668 393
673T408 685Q415 692 422 697T442 702H444Q465 702 474 684T474 633Z" />
<glyph unicode="&#xe4;" glyph-name="adieresis" horiz-adv-x="509" d="M145 -6Q82 -6 43 30T3 135Q3 178 19 211T65 268T137 303T231 316Q265 316 285 313T322 304L326 323Q338 375 322 401T257 428Q226 428 207 423T173 411T148 400T125 394Q103 394 92 409T85
449L86 454Q93 492 144 511Q197 533 282 533Q337 533 378 520T444 480T475 410T469 308L413 66Q404 28 386 12T340 -5H338Q312 -5 296 8T275 46Q251 23 219 9T145 -6ZM198 85Q224 85 243 96T281 124L303 224Q291 227 276 229T240 232Q190 232 165 208T140 145Q140
116 154 101T198 85ZM297 642Q297 609 273 588T217 566Q185 566 166 587T147 637Q147 653 153 667T171 691T196 707T226 713Q258 713 277 692T297 642ZM489 642Q489 609 465 588T409 566Q377 566 358 587T339 637Q339 653 345 667T363 691T388 707T418 713Q450
713 469 692T489 642Z" />
<glyph unicode="&#xe5;" glyph-name="aring" horiz-adv-x="509" d="M145 -6Q82 -6 43 30T3 135Q3 178 19 211T65 268T137 303T231 316Q265 316 285 313T322 304L326 323Q338 375 322 401T257 428Q226 428 207 423T173 411T148 400T125 394Q103 394 92 409T85 449L86
454Q93 492 144 511Q197 533 282 533Q337 533 378 520T444 480T475 410T469 308L413 66Q404 28 386 12T340 -5H338Q312 -5 296 8T275 46Q251 23 219 9T145 -6ZM198 85Q224 85 243 96T281 124L303 224Q291 227 276 229T240 232Q190 232 165 208T140 145Q140 116
154 101T198 85ZM286 661Q286 646 294 637T319 628Q336 628 347 639T359 670Q359 687 350 696T324 705Q307 705 297 693T286 661ZM427 671Q427 647 418 628T394 595T359 574T318 566Q276 566 247 590T217 660Q217 684 226 704T250 738T285 759T326 767Q368 767
397 742T427 671Z" />
<glyph unicode="&#xe6;" glyph-name="ae" horiz-adv-x="800" d="M158 -6Q86 -6 45 30T3 135Q3 178 19 212T65 269T137 305T231 318H325L326 323Q338 375 322 401T257 428Q226 428 207 423T173 411T148 400T125 394Q103 394 92 409T85 449L86 454Q93 492 144 511Q197
533 282 533Q393 533 431 473Q465 501 507 517T597 533Q691 533 734 482T778 344Q778 330 777 316T773 285Q769 262 755 246T708 230H451V210Q451 147 476 121T552 95Q585 95 604 101T635 114T658 128T683 134Q706 134 716 118T722 77L721 72Q717 52 703 39T665
14Q641 3 606 -2T536 -7Q469 -7 421 14T344 77Q315 42 271 18T158 -6ZM198 85Q233 85 264 103T315 147Q309 175 309 208Q309 213 309 218T309 230H240Q190 230 165 207T140 145Q140 116 154 101T198 85ZM586 440Q540 440 509 407T463 318H648Q652 337 652 357Q652
399 635 419T586 440Z" />
<glyph unicode="&#xe7;" glyph-name="ccedilla" horiz-adv-x="484" d="M364 9Q344 1 317 -3T263 -7H248L244 -24Q277 -26 293 -44T309 -89Q309 -114 299 -130T273 -157T237 -171T194 -175Q175 -175 161 -173T137 -166Q121 -160 117 -151T114 -127L115 -121Q118
-99 140 -99Q146 -99 151 -101T161 -106T173 -111T190 -113Q203 -113 212 -109T221 -94Q221 -86 215 -81T191 -76H190Q177 -76 172 -69T169 -50L181 2Q103 21 65 75T27 209Q27 281 51 340T118 443T218 509T343 533Q378 533 406 528T455 512Q501 491 491 441L490
436Q481 393 443 393Q430 393 421 398T402 410T377 421T339 427Q301 427 270 410T217 364T183 296T171 210Q171 97 274 97Q302 97 318 102T345 114T364 126T386 132Q405 132 415 119T424 83L423 74Q421 49 406 35T364 9Z" />
<glyph unicode="&#xe8;" glyph-name="egrave" horiz-adv-x="515" d="M166 210Q166 147 191 121T267 95Q300 95 319 101T350 114T373 128T398 134Q421 134 431 118T437 77L436 72Q432 52 418 39T380 14Q356 3 321 -2T251 -7Q142 -7 83 47T24 208Q24 272 43 330T98
434T186 506T304 533Q400 533 446 482T493 344Q493 330 492 316T488 285Q484 262 470 246T423 230H166V210ZM363 318Q367 337 367 357Q367 399 348 419T295 440Q251 440 222 407T178 318H363ZM353 612Q361 586 349 571T313 555H309Q275 555 246 585L203 629Q191
641 188 654T189 678T204 696T231 704H265Q295 704 314 691T342 648L353 612Z" />
<glyph unicode="&#xe9;" glyph-name="eacute" horiz-adv-x="515" d="M166 210Q166 147 191 121T267 95Q300 95 319 101T350 114T373 128T398 134Q421 134 431 118T437 77L436 72Q432 52 418 39T380 14Q356 3 321 -2T251 -7Q142 -7 83 47T24 208Q24 272 43 330T98
434T186 506T304 533Q400 533 446 482T493 344Q493 330 492 316T488 285Q484 262 470 246T423 230H166V210ZM363 318Q367 337 367 357Q367 399 348 419T295 440Q251 440 222 407T178 318H363ZM266 646Q277 670 295 687T347 704H384Q400 704 410 696T423 675T422
650T407 627L359 587Q345 576 330 569T299 561H294Q269 561 256 579T254 621L266 646V646Z" />
<glyph unicode="&#xea;" glyph-name="ecircumflex" horiz-adv-x="515" d="M166 210Q166 147 191 121T267 95Q300 95 319 101T350 114T373 128T398 134Q421 134 431 118T437 77L436 72Q432 52 418 39T380 14Q356 3 321 -2T251 -7Q142 -7 83 47T24 208Q24 272 43
330T98 434T186 506T304 533Q400 533 446 482T493 344Q493 330 492 316T488 285Q484 262 470 246T423 230H166V210ZM363 318Q367 337 367 357Q367 399 348 419T295 440Q251 440 222 407T178 318H363ZM233 557Q219 557 208 566T193 591T198 625T231 665L236 669Q261
689 283 698T331 708H336Q356 708 375 697T411 665L415 660Q430 641 435 623T436 590T421 566T393 557H392Q377 557 365 565T340 587L319 609L283 581Q270 570 259 564T235 557H233Z" />
<glyph unicode="&#xeb;" glyph-name="edieresis" horiz-adv-x="515" d="M166 210Q166 147 191 121T267 95Q300 95 319 101T350 114T373 128T398 134Q421 134 431 118T437 77L436 72Q432 52 418 39T380 14Q356 3 321 -2T251 -7Q142 -7 83 47T24 208Q24 272 43 330T98
434T186 506T304 533Q400 533 446 482T493 344Q493 330 492 316T488 285Q484 262 470 246T423 230H166V210ZM363 318Q367 337 367 357Q367 399 348 419T295 440Q251 440 222 407T178 318H363ZM303 642Q303 609 279 588T223 566Q191 566 172 587T153 637Q153 653
159 667T177 691T202 707T232 713Q264 713 283 692T303 642ZM495 642Q495 609 471 588T415 566Q383 566 364 587T345 637Q345 653 351 667T369 691T394 707T424 713Q456 713 475 692T495 642Z" />
<glyph unicode="&#xec;" glyph-name="igrave" horiz-adv-x="260" d="M158 66Q142 -5 86 -5H85Q43 -5 25 20T19 97L102 461Q110 498 128 514T171 530H172Q213 530 233 506T241 429L158 66ZM488 612Q496 586 484 571T448 555H444Q410 555 381 585L338 629Q326 641
323 654T324 678T339 696T366 704H400Q430 704 449 691T477 648L488 612Z" />
<glyph unicode="&#xed;" glyph-name="iacute" horiz-adv-x="260" d="M158 66Q142 -5 86 -5H85Q43 -5 25 20T19 97L102 461Q110 498 128 514T171 530H172Q213 530 233 506T241 429L158 66ZM425 646Q436 670 454 687T506 704H543Q559 704 569 696T582 675T581 650T566
627L518 587Q504 576 489 569T458 561H453Q428 561 415 579T413 621L425 646V646Z" />
<glyph unicode="&#xee;" glyph-name="icircumflex" horiz-adv-x="260" d="M158 66Q142 -5 86 -5H85Q43 -5 25 20T19 97L102 461Q110 498 128 514T171 530H172Q213 530 233 506T241 429L158 66ZM366 557Q352 557 341 566T326 591T331 625T364 665L369 669Q394 689
416 698T464 708H469Q489 708 508 697T544 665L548 660Q563 641 568 623T569 590T554 566T526 557H525Q510 557 498 565T473 587L452 609L416 581Q403 570 392 564T368 557H366Z" />
<glyph unicode="&#xef;" glyph-name="idieresis" horiz-adv-x="260" d="M158 66Q142 -5 86 -5H85Q43 -5 25 20T19 97L102 461Q110 498 128 514T171 530H172Q213 530 233 506T241 429L158 66ZM439 642Q439 609 415 588T359 566Q327 566 308 587T289 637Q289 653
295 667T313 691T338 707T368 713Q400 713 419 692T439 642ZM631 642Q631 609 607 588T551 566Q519 566 500 587T481 637Q481 653 487 667T505 691T530 707T560 713Q592 713 611 692T631 642Z" />
<glyph unicode="&#xf0;" glyph-name="eth" horiz-adv-x="570" d="M407 633Q472 584 507 510T543 340Q543 254 522 189T462 81T372 16T257 -6Q201 -6 159 10T87 54T42 123T27 214Q27 280 48 334T103 426T180 485T267 506Q308 506 334 495T377 462Q358 513 311 550L309
549Q292 535 280 527T257 519H256Q244 519 234 525T220 540T218 561T233 583L242 591L241 592Q217 602 206 619T202 661L203 664Q212 689 233 696Q256 704 290 693Q303 688 315 684T339 673L347 680Q364 694 376 702T399 710H400Q412 710 422 704T436 689T438 668T423
646L407 633ZM170 206Q170 154 192 125T262 95Q296 95 322 113T365 160T390 226T399 300Q399 354 374 380T304 407Q270 407 245 391T204 346T179 282T170 206Z" />
<glyph unicode="&#xf1;" glyph-name="ntilde" horiz-adv-x="572" d="M101 460Q109 497 128 513T174 530H176Q208 530 224 511T242 459Q282 491 327 512T435 533Q466 533 490 521T529 486T548 430T543 356L476 65Q468 28 451 12T405 -5H404Q362 -5 344 19T338 96L396
356Q409 417 360 417Q305 417 226 369L157 65Q149 28 132 12T86 -5H85Q43 -5 25 19T18 95L101 460ZM511 633Q502 603 478 584T412 564Q398 564 383 568T354 578T327 588T304 593Q290 593 282 588T267 576Q261 570 254 565T233 559H231Q210 559 201 576T201 628Q210
657 234 677T300 697Q314 697 329 693T358 683T385 673T408 668Q422 668 430 673T445 685Q452 692 459 697T479 702H481Q502 702 511 684T511 633Z" />
<glyph unicode="&#xf2;" glyph-name="ograve" horiz-adv-x="569" d="M170 211Q170 148 195 122T262 95Q295 95 321 113T364 161T390 230T399 311Q399 374 375 401T309 429Q277 429 251 411T207 362T180 292T170 211ZM542 308Q542 235 520 177T460 79T370 16T257
-6Q147 -6 87 53T27 214Q27 287 50 346T112 446T204 510T313 533Q368 533 410 517T482 472T526 401T542 308ZM371 612Q379 586 367 571T331 555H327Q293 555 264 585L221 629Q209 641 206 654T207 678T222 696T249 704H283Q313 704 332 691T360 648L371 612Z" />
<glyph unicode="&#xf3;" glyph-name="oacute" horiz-adv-x="569" d="M170 211Q170 148 195 122T262 95Q295 95 321 113T364 161T390 230T399 311Q399 374 375 401T309 429Q277 429 251 411T207 362T180 292T170 211ZM542 308Q542 235 520 177T460 79T370 16T257
-6Q147 -6 87 53T27 214Q27 287 50 346T112 446T204 510T313 533Q368 533 410 517T482 472T526 401T542 308ZM305 646Q316 670 334 687T386 704H423Q439 704 449 696T462 675T461 650T446 627L398 587Q384 576 369 569T338 561H333Q308 561 295 579T293 621L305
646V646Z" />
<glyph unicode="&#xf4;" glyph-name="ocircumflex" horiz-adv-x="569" d="M170 211Q170 148 195 122T262 95Q295 95 321 113T364 161T390 230T399 311Q399 374 375 401T309 429Q277 429 251 411T207 362T180 292T170 211ZM542 308Q542 235 520 177T460 79T370
16T257 -6Q147 -6 87 53T27 214Q27 287 50 346T112 446T204 510T313 533Q368 533 410 517T482 472T526 401T542 308ZM248 557Q234 557 223 566T208 591T213 625T246 665L251 669Q276 689 298 698T346 708H351Q371 708 390 697T426 665L430 660Q445 641 450 623T451
590T436 566T408 557H407Q392 557 380 565T355 587L334 609L298 581Q285 570 274 564T250 557H248Z" />
<glyph unicode="&#xf5;" glyph-name="otilde" horiz-adv-x="569" d="M170 211Q170 148 195 122T262 95Q295 95 321 113T364 161T390 230T399 311Q399 374 375 401T309 429Q277 429 251 411T207 362T180 292T170 211ZM542 308Q542 235 520 177T460 79T370 16T257
-6Q147 -6 87 53T27 214Q27 287 50 346T112 446T204 510T313 533Q368 533 410 517T482 472T526 401T542 308ZM497 633Q488 603 464 584T398 564Q384 564 369 568T340 578T313 588T290 593Q276 593 268 588T253 576Q247 570 240 565T219 559H217Q196 559 187 576T187
628Q196 657 220 677T286 697Q300 697 315 693T344 683T371 673T394 668Q408 668 416 673T431 685Q438 692 445 697T465 702H467Q488 702 497 684T497 633Z" />
<glyph unicode="&#xf6;" glyph-name="odieresis" horiz-adv-x="569" d="M170 211Q170 148 195 122T262 95Q295 95 321 113T364 161T390 230T399 311Q399 374 375 401T309 429Q277 429 251 411T207 362T180 292T170 211ZM542 308Q542 235 520 177T460 79T370 16T257
-6Q147 -6 87 53T27 214Q27 287 50 346T112 446T204 510T313 533Q368 533 410 517T482 472T526 401T542 308ZM321 642Q321 609 297 588T241 566Q209 566 190 587T171 637Q171 653 177 667T195 691T220 707T250 713Q282 713 301 692T321 642ZM513 642Q513 609 489
588T433 566Q401 566 382 587T363 637Q363 653 369 667T387 691T412 707T442 713Q474 713 493 692T513 642Z" />
<glyph unicode="&#xf7;" glyph-name="divide" horiz-adv-x="509" d="M324 169Q324 151 317 136T297 110T269 92T236 86Q201 86 180 109T158 164Q158 182 165 197T184 223T212 240T245 247Q280 247 302 224T324 169ZM389 527Q389 509 382 494T362 468T334 450T301
444Q266 444 245 467T223 522Q223 540 230 555T249 581T277 598T310 605Q345 605 367 582T389 527ZM464 403Q493 403 506 390T520 353V351Q520 324 504 306T456 288H84Q55 288 42 301T28 338V340Q28 367 44 385T92 403H464Z" />
<glyph unicode="&#xf8;" glyph-name="oslash" horiz-adv-x="569" d="M504 444Q542 388 542 308Q542 235 520 177T460 79T370 16T257 -6Q181 -6 128 23L105 -3Q91 -20 82 -25T64 -30H63Q50 -30 41 -23T27 -6T25 17T37 42L67 76Q27 131 27 214Q27 287 50 346T112
446T204 510T313 533Q353 533 386 525T446 500L464 520Q478 537 487 542T505 547H506Q519 547 528 540T542 523T544 500T532 475L504 444ZM165 211Q165 204 165 198T166 186L367 412Q344 430 309 430Q276 430 249 411T204 362T175 292T165 211ZM403 311Q403 316
403 320T402 330L204 108Q225 94 262 94Q296 94 322 112T367 160T394 230T403 311Z" />
<glyph unicode="&#xf9;" glyph-name="ugrave" horiz-adv-x="569" d="M463 67Q454 29 437 12T390 -5H388Q356 -5 340 14T322 66Q284 34 242 13T144 -8Q75 -8 43 37T30 169L99 465Q107 501 123 517T169 533H170Q212 533 230 509T237 434L178 169Q165 107 214 107Q240
107 270 118T337 152L408 463Q416 500 433 516T479 533H480Q522 533 540 509T547 433L463 67ZM385 612Q393 586 381 571T345 555H341Q307 555 278 585L235 629Q223 641 220 654T221 678T236 696T263 704H297Q327 704 346 691T374 648L385 612Z" />
<glyph unicode="&#xfa;" glyph-name="uacute" horiz-adv-x="569" d="M463 67Q454 29 437 12T390 -5H388Q356 -5 340 14T322 66Q284 34 242 13T144 -8Q75 -8 43 37T30 169L99 465Q107 501 123 517T169 533H170Q212 533 230 509T237 434L178 169Q165 107 214 107Q240
107 270 118T337 152L408 463Q416 500 433 516T479 533H480Q522 533 540 509T547 433L463 67ZM319 646Q330 670 348 687T400 704H437Q453 704 463 696T476 675T475 650T460 627L412 587Q398 576 383 569T352 561H347Q322 561 309 579T307 621L319 646V646Z" />
<glyph unicode="&#xfb;" glyph-name="ucircumflex" horiz-adv-x="569" d="M463 67Q454 29 437 12T390 -5H388Q356 -5 340 14T322 66Q284 34 242 13T144 -8Q75 -8 43 37T30 169L99 465Q107 501 123 517T169 533H170Q212 533 230 509T237 434L178 169Q165 107 214
107Q240 107 270 118T337 152L408 463Q416 500 433 516T479 533H480Q522 533 540 509T547 433L463 67ZM262 557Q248 557 237 566T222 591T227 625T260 665L265 669Q290 689 312 698T360 708H365Q385 708 404 697T440 665L444 660Q459 641 464 623T465 590T450 566T422
557H421Q406 557 394 565T369 587L348 609L312 581Q299 570 288 564T264 557H262Z" />
<glyph unicode="&#xfc;" glyph-name="udieresis" horiz-adv-x="569" d="M463 67Q454 29 437 12T390 -5H388Q356 -5 340 14T322 66Q284 34 242 13T144 -8Q75 -8 43 37T30 169L99 465Q107 501 123 517T169 533H170Q212 533 230 509T237 434L178 169Q165 107 214
107Q240 107 270 118T337 152L408 463Q416 500 433 516T479 533H480Q522 533 540 509T547 433L463 67ZM335 642Q335 609 311 588T255 566Q223 566 204 587T185 637Q185 653 191 667T209 691T234 707T264 713Q296 713 315 692T335 642ZM527 642Q527 609 503 588T447
566Q415 566 396 587T377 637Q377 653 383 667T401 691T426 707T456 713Q488 713 507 692T527 642Z" />
<glyph unicode="&#xfd;" glyph-name="yacute" horiz-adv-x="518" d="M184 -106Q168 -132 152 -149T106 -167H105Q87 -167 73 -158T51 -134T46 -97T65 -52L138 56L63 446Q55 484 75 507T134 530H135Q167 530 182 512T202 464L247 213H249L407 480Q421 505 435 517T470
530H471Q490 530 504 522T526 499T532 467T520 431L184 -106ZM287 646Q298 670 316 687T368 704H405Q421 704 431 696T444 675T443 650T428 627L380 587Q366 576 351 569T320 561H315Q290 561 277 579T275 621L287 646V646Z" />
<glyph unicode="&#xfe;" glyph-name="thorn" horiz-adv-x="576" d="M285 6Q237 6 207 19T156 50L123 -96Q107 -167 51 -167H50Q7 -167 -11 -142T-18 -65L141 636Q149 673 168 689T211 705H212Q254 705 273 681T281 605L250 467Q279 496 319 514T410 533Q438 533
464 522T510 488T543 428T555 339Q555 259 535 197T479 93T394 28T285 6ZM344 425Q315 425 288 413T230 380L174 133Q185 122 205 113T257 103Q295 103 324 120T372 168T400 242T410 336Q410 381 392 403T344 425Z" />
<glyph unicode="&#xff;" glyph-name="ydieresis" horiz-adv-x="518" d="M184 -106Q168 -132 152 -149T106 -167H105Q87 -167 73 -158T51 -134T46 -97T65 -52L138 56L63 446Q55 484 75 507T134 530H135Q167 530 182 512T202 464L247 213H249L407 480Q421 505 435
517T470 530H471Q490 530 504 522T526 499T532 467T520 431L184 -106ZM302 642Q302 609 278 588T222 566Q190 566 171 587T152 637Q152 653 158 667T176 691T201 707T231 713Q263 713 282 692T302 642ZM494 642Q494 609 470 588T414 566Q382 566 363 587T344 637Q344
653 350 667T368 691T393 707T423 713Q455 713 474 692T494 642Z" />
<glyph unicode="&#x100;" glyph-name="Amacron" horiz-adv-x="665" d="M300 632Q318 664 345 684T411 705H418Q462 705 486 682T515 623L586 86Q591 43 570 19T506 -5H504Q472 -5 454 16T431 75L419 185H186L117 54Q104 29 89 12T47 -5H45Q27 -5 13 3T-10 25T-18
56T-4 94L300 632ZM242 292H407L380 550H378L242 292ZM349 734Q324 734 313 745T301 777V778Q301 802 315 817T356 832H528Q553 832 564 821T576 790V788Q576 765 562 750T521 734H349Z" />
<glyph unicode="&#x101;" glyph-name="amacron" horiz-adv-x="509" d="M145 -6Q82 -6 43 30T3 135Q3 178 19 211T65 268T137 303T231 316Q265 316 285 313T322 304L326 323Q338 375 322 401T257 428Q226 428 207 423T173 411T148 400T125 394Q103 394 92 409T85
449L86 454Q93 492 144 511Q197 533 282 533Q337 533 378 520T444 480T475 410T469 308L413 66Q404 28 386 12T340 -5H338Q312 -5 296 8T275 46Q251 23 219 9T145 -6ZM198 85Q224 85 243 96T281 124L303 224Q291 227 276 229T240 232Q190 232 165 208T140 145Q140
116 154 101T198 85ZM235 584Q210 584 199 595T187 627V628Q187 652 201 667T242 682H409Q434 682 445 671T457 640V638Q457 615 443 600T402 584H235Z" />
<glyph unicode="&#x102;" glyph-name="Abreve" horiz-adv-x="665" d="M300 632Q318 664 345 684T411 705H418Q462 705 486 682T515 623L586 86Q591 43 570 19T506 -5H504Q472 -5 454 16T431 75L419 185H186L117 54Q104 29 89 12T47 -5H45Q27 -5 13 3T-10 25T-18
56T-4 94L300 632ZM242 292H407L380 550H378L242 292ZM565 804Q551 770 516 749T432 727Q378 727 347 750T308 803Q302 829 313 845T346 861H348Q362 861 371 855T388 842Q396 834 407 828T435 822Q454 822 466 828T489 842Q499 849 509 855T533 861H534Q554 861
564 845T565 804Z" />
<glyph unicode="&#x103;" glyph-name="abreve" horiz-adv-x="509" d="M145 -6Q82 -6 43 30T3 135Q3 178 19 211T65 268T137 303T231 316Q265 316 285 313T322 304L326 323Q338 375 322 401T257 428Q226 428 207 423T173 411T148 400T125 394Q103 394 92 409T85
449L86 454Q93 492 144 511Q197 533 282 533Q337 533 378 520T444 480T475 410T469 308L413 66Q404 28 386 12T340 -5H338Q312 -5 296 8T275 46Q251 23 219 9T145 -6ZM198 85Q224 85 243 96T281 124L303 224Q291 227 276 229T240 232Q190 232 165 208T140 145Q140
116 154 101T198 85ZM448 643Q433 608 398 585T313 561Q258 561 227 586T189 647Q183 677 194 694T229 711H231Q246 711 254 703T271 684Q279 673 289 665T316 656Q335 656 346 664T368 684Q378 694 388 702T413 711H414Q438 711 449 691T448 643Z" />
<glyph unicode="&#x104;" glyph-name="Aogonek" horiz-adv-x="665" d="M416 -92Q416 -60 436 -38T483 -2Q458 7 446 26T431 75L419 185H186L117 54Q104 29 89 12T47 -5H45Q27 -5 13 3T-10 25T-18 56T-4 94L300 632Q318 664 345 684T411 705H418Q462 705 486 682T515
623L586 86Q590 60 586 42T566 7Q547 -11 537 -24T526 -57Q526 -69 533 -74T554 -82Q583 -88 583 -114V-115Q583 -138 565 -151T502 -165Q465 -165 441 -146Q416 -126 416 -92ZM242 292H407L380 550H378L242 292Z" />
<glyph unicode="&#x105;" glyph-name="aogonek" horiz-adv-x="509" d="M145 -6Q82 -6 43 30T3 135Q3 178 19 211T65 268T137 303T231 316Q265 316 285 313T322 304L326 323Q338 375 322 401T257 428Q226 428 207 423T173 411T148 400T125 394Q103 394 92 409T85
449L86 454Q93 492 144 511Q197 533 282 533Q337 533 378 520T444 480T475 410T469 308L413 66Q407 40 400 27T381 3Q364 -13 354 -26T344 -57Q344 -70 353 -75T372 -82Q401 -88 401 -114V-115Q401 -138 383 -151T320 -165Q298 -165 282 -159T254 -142Q234 -122
234 -92Q234 -59 256 -35T306 1Q282 16 276 47Q252 23 220 9T145 -6ZM240 232Q190 232 165 208T140 145Q140 116 154 101T198 85Q224 85 243 96T281 124L303 224Q291 227 276 229T240 232Z" />
<glyph unicode="&#x106;" glyph-name="Cacute" horiz-adv-x="617" d="M479 13Q456 3 422 -2T349 -8Q282 -8 227 9T131 60T68 148T45 274Q45 355 71 433T149 572T274 670T446 708Q491 708 526 702T590 682Q646 656 634 607L632 599Q619 552 578 552Q563 552 552
558T527 573T493 588T439 595Q374 595 329 563T256 483T216 378T204 272Q204 182 244 142T357 102Q393 102 415 109T451 125T477 141T504 149Q528 149 539 132T547 91L546 85Q542 61 527 44T479 13ZM408 811Q422 840 439 850T487 861H518Q535 861 545 853T560 832T560
807T542 783L505 753Q488 739 472 731T438 722H432Q409 722 396 738T393 779L408 811Z" />
<glyph unicode="&#x107;" glyph-name="cacute" horiz-adv-x="484" d="M364 9Q344 1 317 -3T263 -7Q203 -7 159 8T85 52T42 120T27 209Q27 281 51 340T118 443T218 509T343 533Q378 533 406 528T455 512Q501 491 491 441L490 436Q481 393 443 393Q430 393 421 398T402
410T377 421T339 427Q301 427 270 410T217 364T183 296T171 210Q171 97 274 97Q302 97 318 102T345 114T364 126T386 132Q405 132 415 119T424 83L423 74Q421 49 406 35T364 9ZM307 646Q318 670 336 687T388 704H425Q441 704 451 696T464 675T463 650T448 627L400
587Q386 576 371 569T340 561H335Q310 561 297 579T295 621L307 646V646Z" />
<glyph unicode="&#x108;" glyph-name="Ccircumflex" horiz-adv-x="617" d="M479 13Q456 3 422 -2T349 -8Q282 -8 227 9T131 60T68 148T45 274Q45 355 71 433T149 572T274 670T446 708Q491 708 526 702T590 682Q646 656 634 607L632 599Q619 552 578 552Q563 552
552 558T527 573T493 588T439 595Q374 595 329 563T256 483T216 378T204 272Q204 182 244 142T357 102Q393 102 415 109T451 125T477 141T504 149Q528 149 539 132T547 91L546 85Q542 61 527 44T479 13ZM434 768L405 746Q389 732 377 727T353 721H351Q336 721 325
730T311 753T313 784T339 818L346 824Q367 842 392 852T441 863H447Q467 863 487 852T527 819L533 812Q548 794 551 778T550 749T535 729T512 721H510Q493 721 481 729T455 749L434 768Z" />
<glyph unicode="&#x109;" glyph-name="ccircumflex" horiz-adv-x="484" d="M364 9Q344 1 317 -3T263 -7Q203 -7 159 8T85 52T42 120T27 209Q27 281 51 340T118 443T218 509T343 533Q378 533 406 528T455 512Q501 491 491 441L490 436Q481 393 443 393Q430 393
421 398T402 410T377 421T339 427Q301 427 270 410T217 364T183 296T171 210Q171 97 274 97Q302 97 318 102T345 114T364 126T386 132Q405 132 415 119T424 83L423 74Q421 49 406 35T364 9ZM249 557Q235 557 224 566T209 591T214 625T247 665L252 669Q277 689 299
698T347 708H352Q372 708 391 697T427 665L431 660Q446 641 451 623T452 590T437 566T409 557H408Q393 557 381 565T356 587L335 609L299 581Q286 570 275 564T251 557H249Z" />
<glyph unicode="&#x10a;" glyph-name="Cdotaccent" horiz-adv-x="617" d="M479 13Q456 3 422 -2T349 -8Q282 -8 227 9T131 60T68 148T45 274Q45 355 71 433T149 572T274 670T446 708Q491 708 526 702T590 682Q646 656 634 607L632 599Q619 552 578 552Q563 552
552 558T527 573T493 588T439 595Q374 595 329 563T256 483T216 378T204 272Q204 182 244 142T357 102Q393 102 415 109T451 125T477 141T504 149Q528 149 539 132T547 91L546 85Q542 61 527 44T479 13ZM524 803Q524 768 499 746T440 724Q407 724 387 745T366 798Q366
832 391 854T449 877Q482 877 503 855T524 803Z" />
<glyph unicode="&#x10b;" glyph-name="cdotaccent" horiz-adv-x="484" d="M364 9Q344 1 317 -3T263 -7Q203 -7 159 8T85 52T42 120T27 209Q27 281 51 340T118 443T218 509T343 533Q378 533 406 528T455 512Q501 491 491 441L490 436Q481 393 443 393Q430 393 421
398T402 410T377 421T339 427Q301 427 270 410T217 364T183 296T171 210Q171 97 274 97Q302 97 318 102T345 114T364 126T386 132Q405 132 415 119T424 83L423 74Q421 49 406 35T364 9ZM423 646Q423 611 398 589T339 567Q306 567 286 588T265 641Q265 675 290 697T348
720Q381 720 402 698T423 646Z" />
<glyph unicode="&#x10c;" glyph-name="Ccaron" horiz-adv-x="617" d="M479 13Q456 3 422 -2T349 -8Q282 -8 227 9T131 60T68 148T45 274Q45 355 71 433T149 572T274 670T446 708Q491 708 526 702T590 682Q646 656 634 607L632 599Q619 552 578 552Q563 552 552
558T527 573T493 588T439 595Q374 595 329 563T256 483T216 378T204 272Q204 182 244 142T357 102Q393 102 415 109T451 125T477 141T504 149Q528 149 539 132T547 91L546 85Q542 61 527 44T479 13ZM451 816L480 838Q496 852 508 857T532 863H534Q549 863 560 854T574
831T572 800T546 766L539 760Q518 742 493 732T444 721H438Q418 721 398 732T358 765L352 772Q337 790 334 806T335 835T350 855T373 863H375Q392 863 404 855T430 835L451 816Z" />
<glyph unicode="&#x10d;" glyph-name="ccaron" horiz-adv-x="484" d="M364 9Q344 1 317 -3T263 -7Q203 -7 159 8T85 52T42 120T27 209Q27 281 51 340T118 443T218 509T343 533Q378 533 406 528T455 512Q501 491 491 441L490 436Q481 393 443 393Q430 393 421 398T402
410T377 421T339 427Q301 427 270 410T217 364T183 296T171 210Q171 97 274 97Q302 97 318 102T345 114T364 126T386 132Q405 132 415 119T424 83L423 74Q421 49 406 35T364 9ZM431 708Q445 708 456 699T471 674T466 640T433 600L428 596Q403 576 381 567T333 557H328Q308
557 289 568T253 600L249 605Q234 624 229 642T228 675T243 699T271 708H272Q287 708 299 700T324 678L345 656L381 684Q394 695 405 701T429 708H431Z" />
<glyph unicode="&#x10e;" glyph-name="Dcaron" horiz-adv-x="692" d="M185 110H287Q356 110 401 140T474 215T512 313T523 414Q523 450 516 481T492 537T447 574T377 588H295L185 110ZM380 700Q523 700 603 627T683 414Q683 336 659 262T586 129T464 36T292 0H87Q47
0 31 24T22 81L148 624Q156 656 178 678T243 700H380ZM421 816L450 838Q466 852 478 857T502 863H504Q519 863 530 854T544 831T542 800T516 766L509 760Q488 742 463 732T414 721H408Q388 721 368 732T328 765L322 772Q307 790 304 806T305 835T320 855T343 863H345Q362
863 374 855T400 835L421 816Z" />
<glyph unicode="&#x10f;" glyph-name="dcaron" horiz-adv-x="581" d="M477 66Q461 -5 406 -5H405Q375 -5 357 11T336 57Q308 26 272 9T193 -8Q158 -8 127 2T73 36T37 95T24 185Q24 258 45 321T103 431T191 505T303 532Q348 532 377 519T426 483L461 636Q469 673
488 689T530 705H531Q573 705 592 681T600 604L477 66ZM244 93Q267 93 294 104T347 135L405 392Q394 403 376 413T326 423Q289 423 260 405T211 356T180 283T169 191Q169 141 186 117T244 93ZM644 650Q649 674 666 689T707 705H729Q746 705 757 698T773 680T776
656T763 630L721 576Q711 563 700 556T672 548H669Q650 548 639 561T632 598L644 650Z" />
<glyph unicode="&#x110;" glyph-name="Dcroat" horiz-adv-x="694" d="M382 700Q525 700 605 627T685 414Q685 336 661 262T588 129T466 36T294 0H89Q49 0 33 24T24 81L73 295H67Q39 295 27 307T14 342V344Q14 369 29 385T74 402H98L150 624Q158 656 180 678T245
700H382ZM254 402H345Q373 402 385 390T398 356V354Q398 328 383 312T338 295H229L187 110H289Q358 110 403 140T476 215T514 313T525 414Q525 450 518 481T494 537T449 574T379 588H297L254 402Z" />
<glyph unicode="&#x111;" glyph-name="dcroat" horiz-adv-x="581" d="M463 646Q473 677 490 691T530 705H531Q563 705 582 691T604 646H620Q642 646 652 635T662 610V608Q662 588 650 575T610 561H590L477 66Q461 -5 406 -5H405Q375 -5 357 11T336 57Q308 26 272
9T193 -8Q158 -8 127 2T73 36T37 95T24 185Q24 258 45 321T103 431T191 505T303 532Q348 532 377 519T426 483L444 561H354Q332 561 322 572T312 597V599Q312 619 324 632T364 646H463ZM244 93Q267 93 294 104T347 135L405 392Q394 403 376 413T326 423Q289 423
260 405T211 356T180 283T169 191Q169 141 186 117T244 93Z" />
<glyph unicode="&#x112;" glyph-name="Emacron" horiz-adv-x="563" d="M229 302L185 110H433Q460 110 474 98T488 63V62Q488 35 471 18T427 0H82Q52 0 33 20T21 76L148 624Q157 663 183 681T243 700H545Q572 700 586 688T600 652V651Q600 622 583 605T539 587H295L254
409H405Q431 409 444 397T458 364V363Q458 336 442 319T399 302H229ZM316 734Q291 734 280 745T268 777V778Q268 802 282 817T323 832H495Q520 832 531 821T543 790V788Q543 765 529 750T488 734H316Z" />
<glyph unicode="&#x113;" glyph-name="emacron" horiz-adv-x="515" d="M166 210Q166 147 191 121T267 95Q300 95 319 101T350 114T373 128T398 134Q421 134 431 118T437 77L436 72Q432 52 418 39T380 14Q356 3 321 -2T251 -7Q142 -7 83 47T24 208Q24 272 43 330T98
434T186 506T304 533Q400 533 446 482T493 344Q493 330 492 316T488 285Q484 262 470 246T423 230H166V210ZM363 318Q367 337 367 357Q367 399 348 419T295 440Q251 440 222 407T178 318H363ZM240 584Q215 584 204 595T192 627V628Q192 652 206 667T247 682H414Q439
682 450 671T462 640V638Q462 615 448 600T407 584H240Z" />
<glyph unicode="&#x114;" glyph-name="Ebreve" horiz-adv-x="563" d="M229 302L185 110H433Q460 110 474 98T488 63V62Q488 35 471 18T427 0H82Q52 0 33 20T21 76L148 624Q157 663 183 681T243 700H545Q572 700 586 688T600 652V651Q600 622 583 605T539 587H295L254
409H405Q431 409 444 397T458 364V363Q458 336 442 319T399 302H229ZM529 804Q515 770 480 749T396 727Q342 727 311 750T272 803Q266 829 277 845T310 861H312Q326 861 335 855T352 842Q360 834 371 828T399 822Q418 822 430 828T453 842Q463 849 473 855T497
861H498Q518 861 528 845T529 804Z" />
<glyph unicode="&#x115;" glyph-name="ebreve" horiz-adv-x="515" d="M166 210Q166 147 191 121T267 95Q300 95 319 101T350 114T373 128T398 134Q421 134 431 118T437 77L436 72Q432 52 418 39T380 14Q356 3 321 -2T251 -7Q142 -7 83 47T24 208Q24 272 43 330T98
434T186 506T304 533Q400 533 446 482T493 344Q493 330 492 316T488 285Q484 262 470 246T423 230H166V210ZM363 318Q367 337 367 357Q367 399 348 419T295 440Q251 440 222 407T178 318H363ZM454 643Q439 608 404 585T319 561Q264 561 233 586T195 647Q189 677
200 694T235 711H237Q252 711 260 703T277 684Q285 673 295 665T322 656Q341 656 352 664T374 684Q384 694 394 702T419 711H420Q444 711 455 691T454 643Z" />
<glyph unicode="&#x116;" glyph-name="Edotaccent" horiz-adv-x="563" d="M229 302L185 110H433Q460 110 474 98T488 63V62Q488 35 471 18T427 0H82Q52 0 33 20T21 76L148 624Q157 663 183 681T243 700H545Q572 700 586 688T600 652V651Q600 622 583 605T539 587H295L254
409H405Q431 409 444 397T458 364V363Q458 336 442 319T399 302H229ZM480 803Q480 768 455 746T396 724Q363 724 343 745T322 798Q322 832 347 854T405 877Q438 877 459 855T480 803Z" />
<glyph unicode="&#x117;" glyph-name="edotaccent" horiz-adv-x="515" d="M166 210Q166 147 191 121T267 95Q300 95 319 101T350 114T373 128T398 134Q421 134 431 118T437 77L436 72Q432 52 418 39T380 14Q356 3 321 -2T251 -7Q142 -7 83 47T24 208Q24 272 43
330T98 434T186 506T304 533Q400 533 446 482T493 344Q493 330 492 316T488 285Q484 262 470 246T423 230H166V210ZM363 318Q367 337 367 357Q367 399 348 419T295 440Q251 440 222 407T178 318H363ZM404 646Q404 611 379 589T320 567Q287 567 267 588T246 641Q246
675 271 697T329 720Q362 720 383 698T404 646Z" />
<glyph unicode="&#x118;" glyph-name="Eogonek" horiz-adv-x="563" d="M254 409H405Q431 409 444 397T458 364V363Q458 336 442 319T399 302H229L185 110H433Q460 110 474 98T488 63V62Q488 38 473 19T426 0H425Q400 -14 386 -27T372 -57Q372 -69 379 -74T400
-82Q429 -88 429 -114V-115Q429 -138 411 -151T348 -165Q305 -165 281 -141Q262 -120 262 -92Q262 -58 285 -35T334 0H82Q52 0 33 20T21 76L148 624Q157 663 183 681T243 700H545Q572 700 586 688T600 652V651Q600 622 583 605T539 587H295L254 409Z" />
<glyph unicode="&#x119;" glyph-name="eogonek" horiz-adv-x="515" d="M359 2Q351 -2 342 -7T324 -20T311 -37T305 -57Q305 -70 314 -75T333 -82Q362 -88 362 -114V-115Q362 -138 344 -151T281 -165Q259 -165 243 -159T215 -142Q195 -122 195 -92Q195 -63 212
-42T253 -7Q229 -7 207 -4Q118 7 71 60T24 208Q24 272 43 330T98 434T186 506T304 533Q400 533 446 482T493 344Q493 330 492 316T488 285Q484 262 470 246T423 230H166V210Q166 147 191 121T267 95Q300 95 318 101T350 114T372 128T397 135Q414 135 426 125T439
94V89Q439 72 432 60T413 36Q402 25 388 18T359 2ZM363 318Q367 337 367 357Q367 399 348 419T295 440Q251 440 222 407T178 318H363Z" />
<glyph unicode="&#x11a;" glyph-name="Ecaron" horiz-adv-x="563" d="M229 302L185 110H433Q460 110 474 98T488 63V62Q488 35 471 18T427 0H82Q52 0 33 20T21 76L148 624Q157 663 183 681T243 700H545Q572 700 586 688T600 652V651Q600 622 583 605T539 587H295L254
409H405Q431 409 444 397T458 364V363Q458 336 442 319T399 302H229ZM407 816L436 838Q452 852 464 857T488 863H490Q505 863 516 854T530 831T528 800T502 766L495 760Q474 742 449 732T400 721H394Q374 721 354 732T314 765L308 772Q293 790 290 806T291 835T306
855T329 863H331Q348 863 360 855T386 835L407 816Z" />
<glyph unicode="&#x11b;" glyph-name="ecaron" horiz-adv-x="515" d="M166 210Q166 147 191 121T267 95Q300 95 319 101T350 114T373 128T398 134Q421 134 431 118T437 77L436 72Q432 52 418 39T380 14Q356 3 321 -2T251 -7Q142 -7 83 47T24 208Q24 272 43 330T98
434T186 506T304 533Q400 533 446 482T493 344Q493 330 492 316T488 285Q484 262 470 246T423 230H166V210ZM363 318Q367 337 367 357Q367 399 348 419T295 440Q251 440 222 407T178 318H363ZM412 708Q426 708 437 699T452 674T447 640T414 600L409 596Q384 576
362 567T314 557H309Q289 557 270 568T234 600L230 605Q215 624 210 642T209 675T224 699T252 708H253Q268 708 280 700T305 678L326 656L362 684Q375 695 386 701T410 708H412Z" />
<glyph unicode="&#x11c;" glyph-name="Gcircumflex" horiz-adv-x="668" d="M561 365Q599 365 614 342T622 289L578 99Q570 64 552 44T498 12Q466 1 427 -3T352 -8Q287 -8 231 7T134 56T69 142T45 267Q45 350 71 429T148 571T274 670T449 708Q493 708 537 701T613
677Q661 652 648 603L646 595Q640 572 628 560T592 547Q577 547 565 554T537 571T498 587T439 595Q375 595 331 563T258 483T216 376T203 263Q203 186 239 143T359 99Q398 99 427 108L463 264H410Q388 264 377 276T366 305V306Q366 329 381 347T422 365H561ZM456
768L427 746Q411 732 399 727T375 721H373Q358 721 347 730T333 753T335 784T361 818L368 824Q389 842 414 852T463 863H469Q489 863 509 852T549 819L555 812Q570 794 573 778T572 749T557 729T534 721H532Q515 721 503 729T477 749L456 768Z" />
<glyph unicode="&#x11d;" glyph-name="gcircumflex" horiz-adv-x="575" d="M467 31Q453 -27 428 -66T367 -128T285 -162T183 -172Q97 -172 36 -146Q-17 -122 -3 -67L-2 -63Q9 -22 49 -22Q63 -22 74 -29T98 -44T131 -59T181 -66Q234 -66 271 -45T322 34L335 91Q306
59 266 41T181 22Q149 22 121 32T71 64T37 119T24 197Q24 268 44 329T102 436T191 507T304 533Q346 533 377 518T429 486Q451 530 491 530H493Q538 530 553 502T557 422L467 31ZM234 124Q263 124 293 137T354 174L406 403Q395 414 377 425T324 437Q284 437 255
417T207 363T179 288T169 203Q169 124 234 124ZM271 557Q257 557 246 566T231 591T236 625T269 665L274 669Q299 689 321 698T369 708H374Q394 708 413 697T449 665L453 660Q468 641 473 623T474 590T459 566T431 557H430Q415 557 403 565T378 587L357 609L321
581Q308 570 297 564T273 557H271Z" />
<glyph unicode="&#x11e;" glyph-name="Gbreve" horiz-adv-x="668" d="M561 365Q599 365 614 342T622 289L578 99Q570 64 552 44T498 12Q466 1 427 -3T352 -8Q287 -8 231 7T134 56T69 142T45 267Q45 350 71 429T148 571T274 670T449 708Q493 708 537 701T613 677Q661
652 648 603L646 595Q640 572 628 560T592 547Q577 547 565 554T537 571T498 587T439 595Q375 595 331 563T258 483T216 376T203 263Q203 186 239 143T359 99Q398 99 427 108L463 264H410Q388 264 377 276T366 305V306Q366 329 381 347T422 365H561ZM599 804Q585
770 550 749T466 727Q412 727 381 750T342 803Q336 829 347 845T380 861H382Q396 861 405 855T422 842Q430 834 441 828T469 822Q488 822 500 828T523 842Q533 849 543 855T567 861H568Q588 861 598 845T599 804Z" />
<glyph unicode="&#x11f;" glyph-name="gbreve" horiz-adv-x="575" d="M467 31Q453 -27 428 -66T367 -128T285 -162T183 -172Q97 -172 36 -146Q-17 -122 -3 -67L-2 -63Q9 -22 49 -22Q63 -22 74 -29T98 -44T131 -59T181 -66Q234 -66 271 -45T322 34L335 91Q306 59
266 41T181 22Q149 22 121 32T71 64T37 119T24 197Q24 268 44 329T102 436T191 507T304 533Q346 533 377 518T429 486Q451 530 491 530H493Q538 530 553 502T557 422L467 31ZM234 124Q263 124 293 137T354 174L406 403Q395 414 377 425T324 437Q284 437 255 417T207
363T179 288T169 203Q169 124 234 124ZM495 643Q480 608 445 585T360 561Q305 561 274 586T236 647Q230 677 241 694T276 711H278Q293 711 301 703T318 684Q326 673 336 665T363 656Q382 656 393 664T415 684Q425 694 435 702T460 711H461Q485 711 496 691T495
643Z" />
<glyph unicode="&#x120;" glyph-name="Gdotaccent" horiz-adv-x="668" d="M561 365Q599 365 614 342T622 289L578 99Q570 64 552 44T498 12Q466 1 427 -3T352 -8Q287 -8 231 7T134 56T69 142T45 267Q45 350 71 429T148 571T274 670T449 708Q493 708 537 701T613
677Q661 652 648 603L646 595Q640 572 628 560T592 547Q577 547 565 554T537 571T498 587T439 595Q375 595 331 563T258 483T216 376T203 263Q203 186 239 143T359 99Q398 99 427 108L463 264H410Q388 264 377 276T366 305V306Q366 329 381 347T422 365H561ZM546
803Q546 768 521 746T462 724Q429 724 409 745T388 798Q388 832 413 854T471 877Q504 877 525 855T546 803Z" />
<glyph unicode="&#x121;" glyph-name="gdotaccent" horiz-adv-x="575" d="M467 31Q453 -27 428 -66T367 -128T285 -162T183 -172Q97 -172 36 -146Q-17 -122 -3 -67L-2 -63Q9 -22 49 -22Q63 -22 74 -29T98 -44T131 -59T181 -66Q234 -66 271 -45T322 34L335 91Q306
59 266 41T181 22Q149 22 121 32T71 64T37 119T24 197Q24 268 44 329T102 436T191 507T304 533Q346 533 377 518T429 486Q451 530 491 530H493Q538 530 553 502T557 422L467 31ZM234 124Q263 124 293 137T354 174L406 403Q395 414 377 425T324 437Q284 437 255
417T207 363T179 288T169 203Q169 124 234 124ZM445 646Q445 611 420 589T361 567Q328 567 308 588T287 641Q287 675 312 697T370 720Q403 720 424 698T445 646Z" />
<glyph unicode="&#x122;" glyph-name="Gcommaaccent" horiz-adv-x="668" d="M561 365Q599 365 614 342T622 289L578 99Q570 64 552 44T498 12Q466 1 427 -3T352 -8Q287 -8 231 7T134 56T69 142T45 267Q45 350 71 429T148 571T274 670T449 708Q493 708 537 701T613
677Q661 652 648 603L646 595Q640 572 628 560T592 547Q577 547 565 554T537 571T498 587T439 595Q375 595 331 563T258 483T216 376T203 263Q203 186 239 143T359 99Q398 99 427 108L463 264H410Q388 264 377 276T366 305V306Q366 329 381 347T422 365H561ZM339
-84Q339 -138 306 -174T209 -217Q179 -220 179 -197V-196Q179 -188 184 -181T211 -167Q247 -155 247 -139Q247 -132 243 -129T231 -120Q222 -113 217 -105T212 -82Q212 -53 231 -36T276 -18Q302 -18 320 -35T339 -84Z" />
<glyph unicode="&#x123;" glyph-name="gcommaaccent" horiz-adv-x="575" d="M467 31Q453 -27 428 -66T367 -128T285 -162T183 -172Q97 -172 36 -146Q-17 -122 -3 -67L-2 -63Q9 -22 49 -22Q63 -22 74 -29T98 -44T131 -59T181 -66Q234 -66 271 -45T322 34L335 91Q306
59 266 41T181 22Q149 22 121 32T71 64T37 119T24 197Q24 268 44 329T102 436T191 507T304 533Q346 533 377 518T429 486Q451 530 491 530H493Q538 530 553 502T557 422L467 31ZM234 124Q263 124 293 137T354 174L406 403Q395 414 377 425T324 437Q284 437 255
417T207 363T179 288T169 203Q169 124 234 124ZM279 633Q279 687 312 723T409 766Q439 769 439 746V745Q439 737 434 730T407 716Q371 704 371 688Q371 681 375 678T387 669Q396 662 401 654T406 631Q406 602 387 585T342 567Q316 567 298 584T279 633Z" />
<glyph unicode="&#x124;" glyph-name="Hcircumflex" horiz-adv-x="693" d="M589 71Q580 31 562 13T514 -5H512Q465 -5 447 21T439 96L487 302H229L176 71Q167 31 149 13T101 -5H99Q52 -5 34 21T26 96L149 629Q158 669 176 687T224 705H226Q273 705 291 678T299
603L255 412H512L562 629Q571 669 589 687T637 705H639Q686 705 704 678T712 603L589 71ZM455 768L426 746Q410 732 398 727T374 721H372Q357 721 346 730T332 753T334 784T360 818L367 824Q388 842 413 852T462 863H468Q488 863 508 852T548 819L554 812Q569 794
572 778T571 749T556 729T533 721H531Q514 721 502 729T476 749L455 768Z" />
<glyph unicode="&#x125;" glyph-name="hcircumflex" horiz-adv-x="572" d="M248 463Q287 493 331 513T435 533Q466 533 490 521T529 486T548 430T543 356L476 65Q468 28 451 12T405 -5H404Q362 -5 344 19T338 96L396 356Q409 417 360 417Q305 417 226 369L157
65Q149 28 132 12T86 -5H85Q43 -5 25 19T18 96L141 635Q149 672 167 688T210 705H211Q253 705 272 681T280 604L248 463ZM394 768L365 746Q349 732 337 727T313 721H311Q296 721 285 730T271 753T273 784T299 818L306 824Q327 842 352 852T401 863H407Q427 863
447 852T487 819L493 812Q508 794 511 778T510 749T495 729T472 721H470Q453 721 441 729T415 749L394 768Z" />
<glyph unicode="&#x126;" glyph-name="Hbar" horiz-adv-x="693" d="M710 596H718Q744 596 755 585T766 553V551Q766 528 753 513T712 498H687L589 71Q580 31 562 13T514 -5H512Q465 -5 447 21T439 96L487 302H229L176 71Q167 31 149 13T101 -5H99Q52 -5 34 21T26
96L119 498H111Q85 498 74 509T62 541V543Q62 566 76 581T116 596H141L149 629Q158 669 176 687T224 705H226Q273 705 291 678T299 603L297 596H554L562 629Q571 669 589 687T637 705H639Q686 705 704 678T712 603L710 596ZM512 412L532 498H275L255 412H512Z"
/>
<glyph unicode="&#x127;" glyph-name="hbar" horiz-adv-x="572" d="M476 65Q468 28 451 12T405 -5H404Q362 -5 344 19T338 96L396 356Q409 417 360 417Q305 417 226 369L157 65Q149 28 132 12T86 -5H85Q43 -5 25 19T18 96L124 561H115Q93 561 83 572T73 597V599Q73
619 85 632T125 646H143Q153 677 170 691T210 705H211Q243 705 262 691T284 646H381Q403 646 413 635T423 610V608Q423 588 411 575T371 561H270L248 463Q287 493 331 513T435 533Q466 533 490 521T529 486T548 430T543 356L476 65Z" />
<glyph unicode="&#x12a;" glyph-name="Imacron" horiz-adv-x="287" d="M152 629Q161 669 179 687T227 705H229Q275 705 294 678T303 603L180 72Q163 -5 105 -5H103Q57 -5 37 21T28 94L152 629ZM177 734Q152 734 141 745T129 777V778Q129 802 143 817T184 832H356Q381
832 392 821T404 790V788Q404 765 390 750T349 734H177Z" />
<glyph unicode="&#x12b;" glyph-name="imacron" horiz-adv-x="260" d="M128 584Q103 584 92 595T80 627V628Q80 652 94 667T135 682H290Q315 682 326 671T338 640V638Q338 615 324 600T283 584H128ZM158 66Q142 -5 86 -5H85Q43 -5 25 20T19 97L102 461Q110 498
128 514T171 530H172Q213 530 233 506T241 429L158 66Z" />
<glyph unicode="&#x12e;" glyph-name="Iogonek" horiz-adv-x="287" d="M-11 -92Q-11 -60 9 -37T62 1Q13 26 28 94L152 629Q161 669 179 687T227 705H229Q275 705 294 678T303 603L180 72Q174 47 168 35T145 9Q123 -9 111 -26T99 -57Q99 -71 107 -75T127 -82Q156
-88 156 -114V-115Q156 -138 138 -151T75 -165Q32 -165 9 -142Q-11 -122 -11 -92Z" />
<glyph unicode="&#x12f;" glyph-name="iogonek" horiz-adv-x="260" d="M292 646Q292 611 267 589T208 567Q175 567 155 588T134 641Q134 675 159 697T217 720Q250 720 271 698T292 646ZM158 66Q149 26 124 5Q102 -13 90 -26T78 -57Q78 -71 86 -75T106 -82Q135
-88 135 -114V-115Q135 -138 117 -151T54 -165Q11 -165 -12 -142Q-32 -122 -32 -92Q-32 -60 -11 -37T43 4Q20 18 17 44T19 97L102 461Q110 498 128 514T171 530H172Q213 530 233 506T241 429L158 66Z" />
<glyph unicode="&#x130;" glyph-name="Idotaccent" horiz-adv-x="287" d="M152 629Q161 669 179 687T227 705H229Q275 705 294 678T303 603L180 72Q163 -5 105 -5H103Q57 -5 37 21T28 94L152 629ZM598 803Q598 768 573 746T514 724Q481 724 461 745T440 798Q440
832 465 854T523 877Q556 877 577 855T598 803Z" />
<glyph unicode="&#x131;" glyph-name="dotlessi" horiz-adv-x="260" d="M158 66Q142 -5 86 -5H85Q43 -5 25 20T19 97L102 461Q110 498 128 514T171 530H172Q213 530 233 506T241 429L158 66Z" />
<glyph unicode="&#x134;" glyph-name="Jcircumflex" horiz-adv-x="457" d="M378 163Q369 125 351 94T303 40T234 5T141 -8Q68 -8 19 15Q-30 37 -19 87L-17 96Q-12 117 0 129T33 142Q46 142 56 136T77 123T101 110T134 104Q176 104 197 125T227 186L329 629Q338
669 356 687T404 705H406Q452 705 471 678T480 603L378 163ZM435 768L406 746Q390 732 378 727T354 721H352Q337 721 326 730T312 753T314 784T340 818L347 824Q368 842 393 852T442 863H448Q468 863 488 852T528 819L534 812Q549 794 552 778T551 749T536 729T513
721H511Q494 721 482 729T456 749L435 768Z" />
<glyph unicode="&#x135;" glyph-name="jcircumflex" horiz-adv-x="258" d="M138 -22Q129 -63 114 -91T77 -136T30 -160T-29 -168Q-43 -168 -55 -167T-80 -163Q-100 -158 -108 -147T-117 -118V-114Q-117 -95 -108 -84T-78 -68Q-60 -64 -48 -60T-27 -49T-13 -32T-4
-4L102 461Q110 498 128 514T171 530H172Q213 530 233 506T241 429L138 -22ZM368 557Q354 557 343 566T328 591T333 625T366 665L371 669Q396 689 418 698T466 708H471Q491 708 510 697T546 665L550 660Q565 641 570 623T571 590T556 566T528 557H527Q512 557 500
565T475 587L454 609L418 581Q405 570 394 564T370 557H368Z" />
<glyph unicode="&#x136;" glyph-name="Kcommaaccent" horiz-adv-x="653" d="M149 629Q158 669 176 687T224 705H226Q271 705 290 678T299 603L246 375L550 667Q572 688 586 696T616 705H617Q638 705 652 694T672 667T673 630T648 592L440 401L563 113Q575 86 574
64T563 27T536 3T498 -5H497Q468 -5 452 13T422 61L321 298L203 189L176 72Q159 -5 100 -5H98Q53 -5 34 21T25 94L149 629ZM339 -84Q339 -138 306 -174T209 -217Q179 -220 179 -197V-196Q179 -188 184 -181T211 -167Q247 -155 247 -139Q247 -132 243 -129T231 -120Q222
-113 217 -105T212 -82Q212 -53 231 -36T276 -18Q302 -18 320 -35T339 -84Z" />
<glyph unicode="&#x137;" glyph-name="kcommaaccent" horiz-adv-x="524" d="M412 492Q439 515 454 522T483 530H484Q501 530 514 519T532 493T533 459T508 425L351 303L344 297L449 109Q462 85 463 64T455 28T430 4T392 -5H391Q365 -5 349 12T318 56L230 216L182
178L157 65Q149 28 132 12T86 -5H85Q43 -5 25 19T18 96L141 636Q149 673 167 689T210 705H211Q253 705 272 681T280 605L217 328L412 492ZM269 -84Q269 -138 236 -174T139 -217Q109 -220 109 -197V-196Q109 -188 114 -181T141 -167Q177 -155 177 -139Q177 -132
173 -129T161 -120Q152 -113 147 -105T142 -82Q142 -53 161 -36T206 -18Q232 -18 250 -35T269 -84Z" />
<glyph unicode="&#x139;" glyph-name="Lacute" horiz-adv-x="534" d="M87 0Q47 0 31 24T22 81L149 629Q158 669 176 687T222 705H223Q269 705 289 679T299 604L185 110H406Q433 110 447 98T461 63V62Q461 35 444 18T400 0H87ZM485 811Q499 840 516 850T564 861H595Q612
861 622 853T637 832T637 807T619 783L582 753Q565 739 549 731T515 722H509Q486 722 473 738T470 779L485 811Z" />
<glyph unicode="&#x13a;" glyph-name="lacute" horiz-adv-x="263" d="M158 66Q150 28 133 12T87 -5H86Q44 -5 26 20T19 97L142 635Q150 672 168 688T211 705H212Q254 705 273 681T281 604L158 66ZM462 816Q476 845 493 855T541 866H572Q589 866 599 858T614 837T614
812T596 788L559 758Q542 744 526 736T492 727H486Q463 727 450 743T447 784L462 816Z" />
<glyph unicode="&#x13b;" glyph-name="Lcommaaccent" horiz-adv-x="534" d="M87 0Q47 0 31 24T22 81L149 629Q158 669 176 687T222 705H223Q269 705 289 679T299 604L185 110H406Q433 110 447 98T461 63V62Q461 35 444 18T400 0H87ZM276 -84Q276 -138 243 -174T146
-217Q116 -220 116 -197V-196Q116 -188 121 -181T148 -167Q184 -155 184 -139Q184 -132 180 -129T168 -120Q159 -113 154 -105T149 -82Q149 -53 168 -36T213 -18Q239 -18 257 -35T276 -84Z" />
<glyph unicode="&#x13c;" glyph-name="lcommaaccent" horiz-adv-x="263" d="M158 66Q150 28 133 12T87 -5H86Q44 -5 26 20T19 97L142 635Q150 672 168 688T211 705H212Q254 705 273 681T281 604L158 66ZM369 -84Q369 -138 336 -174T239 -217Q209 -220 209 -197V-196Q209
-188 214 -181T241 -167Q277 -155 277 -139Q277 -132 273 -129T261 -120Q252 -113 247 -105T242 -82Q242 -53 261 -36T306 -18Q332 -18 350 -35T369 -84Z" />
<glyph unicode="&#x13d;" glyph-name="Lcaron" horiz-adv-x="534" d="M462 576Q452 563 441 556T413 548H410Q391 548 380 561T373 598L385 650Q390 674 407 689T448 705H470Q487 705 498 698T514 680T517 656T504 630L462 576ZM87 0Q47 0 31 24T22 81L149 629Q158
669 176 687T222 705H223Q269 705 289 679T299 604L185 110H406Q433 110 447 98T461 63V62Q461 35 444 18T400 0H87Z" />
<glyph unicode="&#x13e;" glyph-name="lcaron" horiz-adv-x="263" d="M402 576Q392 563 381 556T353 548H350Q331 548 320 561T313 598L325 650Q330 674 347 689T388 705H410Q427 705 438 698T454 680T457 656T444 630L402 576ZM158 66Q150 28 133 12T87 -5H86Q44
-5 26 20T19 97L142 635Q150 672 168 688T211 705H212Q254 705 273 681T281 604L158 66Z" />
<glyph unicode="&#x141;" glyph-name="Lslash" horiz-adv-x="534" d="M87 0Q47 0 31 24T22 81L55 225L51 224Q26 215 10 225T-11 253Q-18 273 -11 291T19 317L82 339L149 629Q158 669 176 687T222 705H223Q269 705 289 679T299 604L252 399L364 439Q392 449 408
440T432 414Q441 393 433 374T403 347L225 285L185 110H406Q433 110 447 98T461 63V62Q461 35 444 18T400 0H87Z" />
<glyph unicode="&#x142;" glyph-name="lslash" horiz-adv-x="263" d="M227 370L158 66Q150 28 133 12T87 -5H86Q44 -5 26 20T19 97L66 305L62 303Q42 295 27 301T4 324Q-3 341 2 358T28 384L90 409L142 635Q150 672 168 688T211 705H212Q254 705 273 681T281 604L251
474L266 480Q286 488 301 483T324 461Q332 443 326 426T300 400L227 370Z" />
<glyph unicode="&#x143;" glyph-name="Nacute" horiz-adv-x="686" d="M581 64Q574 35 556 17T500 -2H490Q452 -2 433 16T403 63L254 509H251L147 57Q140 29 126 12T85 -5H84Q49 -5 31 16T23 83L148 624Q156 657 176 678T239 700H268Q310 700 332 680T366 626L489
252H492L582 642Q589 670 603 687T644 705H646Q683 705 701 683T708 615L581 64ZM440 811Q454 840 471 850T519 861H550Q567 861 577 853T592 832T592 807T574 783L537 753Q520 739 504 731T470 722H464Q441 722 428 738T425 779L440 811Z" />
<glyph unicode="&#x144;" glyph-name="nacute" horiz-adv-x="572" d="M101 460Q109 497 128 513T174 530H176Q208 530 224 511T242 459Q282 491 327 512T435 533Q466 533 490 521T529 486T548 430T543 356L476 65Q468 28 451 12T405 -5H404Q362 -5 344 19T338
96L396 356Q409 417 360 417Q305 417 226 369L157 65Q149 28 132 12T86 -5H85Q43 -5 25 19T18 95L101 460ZM318 646Q329 670 347 687T399 704H436Q452 704 462 696T475 675T474 650T459 627L411 587Q397 576 382 569T351 561H346Q321 561 308 579T306 621L318 646V646Z"
/>
<glyph unicode="&#x145;" glyph-name="Ncommaaccent" horiz-adv-x="686" d="M581 64Q574 35 556 17T500 -2H490Q452 -2 433 16T403 63L254 509H251L147 57Q140 29 126 12T85 -5H84Q49 -5 31 16T23 83L148 624Q156 657 176 678T239 700H268Q310 700 332 680T366
626L489 252H492L582 642Q589 670 603 687T644 705H646Q683 705 701 683T708 615L581 64ZM332 -84Q332 -138 299 -174T202 -217Q172 -220 172 -197V-196Q172 -188 177 -181T204 -167Q240 -155 240 -139Q240 -132 236 -129T224 -120Q215 -113 210 -105T205 -82Q205
-53 224 -36T269 -18Q295 -18 313 -35T332 -84Z" />
<glyph unicode="&#x146;" glyph-name="ncommaaccent" horiz-adv-x="572" d="M101 460Q109 497 128 513T174 530H176Q208 530 224 511T242 459Q282 491 327 512T435 533Q466 533 490 521T529 486T548 430T543 356L476 65Q468 28 451 12T405 -5H404Q362 -5 344 19T338
96L396 356Q409 417 360 417Q305 417 226 369L157 65Q149 28 132 12T86 -5H85Q43 -5 25 19T18 95L101 460ZM292 -84Q292 -138 259 -174T162 -217Q132 -220 132 -197V-196Q132 -188 137 -181T164 -167Q200 -155 200 -139Q200 -132 196 -129T184 -120Q175 -113 170
-105T165 -82Q165 -53 184 -36T229 -18Q255 -18 273 -35T292 -84Z" />
<glyph unicode="&#x147;" glyph-name="Ncaron" horiz-adv-x="686" d="M581 64Q574 35 556 17T500 -2H490Q452 -2 433 16T403 63L254 509H251L147 57Q140 29 126 12T85 -5H84Q49 -5 31 16T23 83L148 624Q156 657 176 678T239 700H268Q310 700 332 680T366 626L489
252H492L582 642Q589 670 603 687T644 705H646Q683 705 701 683T708 615L581 64ZM484 816L513 838Q529 852 541 857T565 863H567Q582 863 593 854T607 831T605 800T579 766L572 760Q551 742 526 732T477 721H471Q451 721 431 732T391 765L385 772Q370 790 367 806T368
835T383 855T406 863H408Q425 863 437 855T463 835L484 816Z" />
<glyph unicode="&#x148;" glyph-name="ncaron" horiz-adv-x="572" d="M101 460Q109 497 128 513T174 530H176Q208 530 224 511T242 459Q282 491 327 512T435 533Q466 533 490 521T529 486T548 430T543 356L476 65Q468 28 451 12T405 -5H404Q362 -5 344 19T338
96L396 356Q409 417 360 417Q305 417 226 369L157 65Q149 28 132 12T86 -5H85Q43 -5 25 19T18 95L101 460ZM437 708Q451 708 462 699T477 674T472 640T439 600L434 596Q409 576 387 567T339 557H334Q314 557 295 568T259 600L255 605Q240 624 235 642T234 675T249
699T277 708H278Q293 708 305 700T330 678L351 656L387 684Q400 695 411 701T435 708H437Z" />
<glyph unicode="&#x14c;" glyph-name="Omacron" horiz-adv-x="730" d="M204 284Q204 245 212 212T237 154T282 115T350 100Q406 100 446 131T512 209T550 311T562 415Q562 450 555 483T532 542T487 584T417 600Q360 600 320 568T254 489T216 386T204 284ZM721
412Q721 334 696 259T623 124T505 29T345 -8Q276 -8 221 13T126 74T66 167T45 288Q45 370 71 445T146 579T264 673T420 708Q489 708 544 687T639 626T700 533T721 412ZM363 734Q338 734 327 745T315 777V778Q315 802 329 817T370 832H542Q567 832 578 821T590 790V788Q590
765 576 750T535 734H363Z" />
<glyph unicode="&#x14d;" glyph-name="omacron" horiz-adv-x="569" d="M170 211Q170 148 195 122T262 95Q295 95 321 113T364 161T390 230T399 311Q399 374 375 401T309 429Q277 429 251 411T207 362T180 292T170 211ZM542 308Q542 235 520 177T460 79T370 16T257
-6Q147 -6 87 53T27 214Q27 287 50 346T112 446T204 510T313 533Q368 533 410 517T482 472T526 401T542 308ZM259 584Q234 584 223 595T211 627V628Q211 652 225 667T266 682H433Q458 682 469 671T481 640V638Q481 615 467 600T426 584H259Z" />
<glyph unicode="&#x150;" glyph-name="Ohungarumlaut" horiz-adv-x="730" d="M204 284Q204 245 212 212T237 154T282 115T350 100Q406 100 446 131T512 209T550 311T562 415Q562 450 555 483T532 542T487 584T417 600Q360 600 320 568T254 489T216 386T204 284ZM721
412Q721 334 696 259T623 124T505 29T345 -8Q276 -8 221 13T126 74T66 167T45 288Q45 370 71 445T146 579T264 673T420 708Q489 708 544 687T639 626T700 533T721 412ZM317 798Q328 829 343 842T388 855H410Q427 855 437 848T450 830T451 806T436 781L398 741Q375
717 348 717H347Q323 717 312 733T309 775L317 798ZM480 798Q491 829 506 842T551 855H573Q590 855 600 848T613 830T614 806T599 781L561 741Q538 717 511 717H510Q486 717 475 733T472 775L480 798Z" />
<glyph unicode="&#x151;" glyph-name="ohungarumlaut" horiz-adv-x="569" d="M170 211Q170 148 195 122T262 95Q295 95 321 113T364 161T390 230T399 311Q399 374 375 401T309 429Q277 429 251 411T207 362T180 292T170 211ZM542 308Q542 235 520 177T460 79T370
16T257 -6Q147 -6 87 53T27 214Q27 287 50 346T112 446T204 510T313 533Q368 533 410 517T482 472T526 401T542 308ZM220 648Q232 678 246 691T291 705H314Q330 705 340 698T354 680T354 656T339 631L296 586Q285 574 274 568T247 562H245Q224 562 211 578T209
621L220 648ZM383 648Q395 678 409 691T454 705H477Q493 705 503 698T517 680T517 656T502 631L459 586Q448 574 437 568T410 562H408Q387 562 374 578T372 621L383 648Z" />
<glyph unicode="&#x152;" glyph-name="OE" horiz-adv-x="965" d="M697 587L656 409H807Q833 409 846 397T860 364V363Q860 336 844 319T801 302H631L587 110H835Q862 110 876 98T890 63V62Q890 35 873 18T829 0H359Q196 0 121 70T45 279Q45 357 69 432T142 567T264
663T436 700H956Q983 700 992 688T1002 652V651Q1002 622 985 605T941 587H697ZM440 588Q371 588 326 558T254 481T216 381T205 279Q205 243 211 212T234 159T281 123T362 110H431L541 588H440Z" />
<glyph unicode="&#x153;" glyph-name="oe" horiz-adv-x="881" d="M313 533Q376 533 419 509T486 439Q519 482 567 507T678 533Q772 533 815 482T859 344Q859 330 858 316T854 285Q850 262 836 246T789 230H532V210Q532 146 557 121T633 95Q666 95 685 101T716
114T739 128T764 134Q787 134 797 118T803 77L802 72Q798 52 784 39T746 14Q722 3 687 -2T617 -7Q488 -7 443 82Q408 39 360 17T257 -6Q147 -6 87 53T27 214Q27 287 50 346T112 446T204 510T313 533ZM170 211Q170 148 195 122T262 95Q295 95 321 113T364 161T390
230T399 311Q399 374 375 401T309 429Q277 429 251 411T207 362T180 292T170 211ZM729 318Q731 329 732 336T733 352Q733 394 718 417T667 440Q622 440 591 408T544 318H729Z" />
<glyph unicode="&#x154;" glyph-name="Racute" horiz-adv-x="628" d="M177 74Q168 32 149 14T100 -5H99Q54 -5 35 21T26 95L148 624Q156 657 178 678T243 700H377Q501 700 560 648T620 499Q620 422 574 369T452 292L537 106Q547 83 546 63T536 28T510 4T471 -5H470Q443
-5 427 12T398 59L307 274H223L177 74ZM247 379H327Q396 379 433 410T470 507Q470 544 448 566T366 588H295L247 379ZM360 811Q374 840 391 850T439 861H470Q487 861 497 853T512 832T512 807T494 783L457 753Q440 739 424 731T390 722H384Q361 722 348 738T345
779L360 811Z" />
<glyph unicode="&#x155;" glyph-name="racute" horiz-adv-x="388" d="M352 400Q304 395 275 382T223 350L158 66Q142 -5 86 -5H85Q43 -5 24 18T17 93L101 460Q109 497 128 513T174 530H176Q213 530 229 506T242 441Q271 481 305 506T376 531Q399 531 412 518T425
480V478Q425 446 410 426T352 400ZM502 646Q513 670 531 687T583 704H620Q636 704 646 696T659 675T658 650T643 627L595 587Q581 576 566 569T535 561H530Q505 561 492 579T490 621L502 646V646Z" />
<glyph unicode="&#x156;" glyph-name="Rcommaaccent" horiz-adv-x="628" d="M177 74Q168 32 149 14T100 -5H99Q54 -5 35 21T26 95L148 624Q156 657 178 678T243 700H377Q501 700 560 648T620 499Q620 422 574 369T452 292L537 106Q547 83 546 63T536 28T510 4T471
-5H470Q443 -5 427 12T398 59L307 274H223L177 74ZM247 379H327Q396 379 433 410T470 507Q470 544 448 566T366 588H295L247 379ZM334 -84Q334 -138 301 -174T204 -217Q174 -220 174 -197V-196Q174 -188 179 -181T206 -167Q242 -155 242 -139Q242 -132 238 -129T226
-120Q217 -113 212 -105T207 -82Q207 -53 226 -36T271 -18Q297 -18 315 -35T334 -84Z" />
<glyph unicode="&#x157;" glyph-name="rcommaaccent" horiz-adv-x="388" d="M352 400Q304 395 275 382T223 350L158 66Q142 -5 86 -5H85Q43 -5 24 18T17 93L101 460Q109 497 128 513T174 530H176Q213 530 229 506T242 441Q271 481 305 506T376 531Q399 531 412
518T425 480V478Q425 446 410 426T352 400ZM373 -84Q373 -138 340 -174T243 -217Q213 -220 213 -197V-196Q213 -188 218 -181T245 -167Q281 -155 281 -139Q281 -132 277 -129T265 -120Q256 -113 251 -105T246 -82Q246 -53 265 -36T310 -18Q336 -18 354 -35T373
-84Z" />
<glyph unicode="&#x158;" glyph-name="Rcaron" horiz-adv-x="628" d="M177 74Q168 32 149 14T100 -5H99Q54 -5 35 21T26 95L148 624Q156 657 178 678T243 700H377Q501 700 560 648T620 499Q620 422 574 369T452 292L537 106Q547 83 546 63T536 28T510 4T471 -5H470Q443
-5 427 12T398 59L307 274H223L177 74ZM247 379H327Q396 379 433 410T470 507Q470 544 448 566T366 588H295L247 379ZM404 816L433 838Q449 852 461 857T485 863H487Q502 863 513 854T527 831T525 800T499 766L492 760Q471 742 446 732T397 721H391Q371 721 351
732T311 765L305 772Q290 790 287 806T288 835T303 855T326 863H328Q345 863 357 855T383 835L404 816Z" />
<glyph unicode="&#x159;" glyph-name="rcaron" horiz-adv-x="388" d="M352 400Q304 395 275 382T223 350L158 66Q142 -5 86 -5H85Q43 -5 24 18T17 93L101 460Q109 497 128 513T174 530H176Q213 530 229 506T242 441Q271 481 305 506T376 531Q399 531 412 518T425
480V478Q425 446 410 426T352 400ZM628 708Q642 708 653 699T668 674T663 640T630 600L625 596Q600 576 578 567T530 557H525Q505 557 486 568T450 600L446 605Q431 624 426 642T425 675T440 699T468 708H469Q484 708 496 700T521 678L542 656L578 684Q591 695
602 701T626 708H628Z" />
<glyph unicode="&#x15a;" glyph-name="Sacute" horiz-adv-x="530" d="M495 224Q495 167 476 124T421 52T335 7T222 -8Q163 -8 115 4T37 37Q8 56 1 78T0 125L1 129Q12 173 52 173Q70 173 83 162T113 138T157 114T228 103Q250 103 272 108T311 124T338 154T349 200Q349
219 341 232T318 256T281 276T229 297Q158 324 119 367T80 484Q80 537 98 579T149 649T229 693T333 708Q382 708 425 698T502 668Q551 638 534 585L533 582Q528 566 517 553T484 539Q467 539 455 548T426 568T387 588T324 597Q304 597 285 592T252 577T228 550T219
510Q219 491 225 479T244 456T280 435T335 413Q370 399 399 383T450 346T483 294T495 224ZM321 811Q335 840 352 850T400 861H431Q448 861 458 853T473 832T473 807T455 783L418 753Q401 739 385 731T351 722H345Q322 722 309 738T306 779L321 811Z" />
<glyph unicode="&#x15b;" glyph-name="sacute" horiz-adv-x="434" d="M387 179Q387 93 328 44T164 -6Q124 -6 87 1T24 21Q-2 35 -9 55T-10 102L-9 106Q-4 125 9 134T39 144Q53 144 63 137T87 121T119 105T168 97Q203 97 227 109T252 149Q252 170 236 181T183 205Q150
217 125 230T82 260T56 300T47 353Q47 436 103 483T260 530Q300 530 334 523T391 502Q437 476 423 434L422 431Q416 413 404 401T372 389Q358 389 348 395T326 408T298 422T254 428Q178 428 178 378Q178 360 193 349T250 323Q280 312 305 300T348 272T376 233T387
179ZM254 646Q265 670 283 687T335 704H372Q388 704 398 696T411 675T410 650T395 627L347 587Q333 576 318 569T287 561H282Q257 561 244 579T242 621L254 646V646Z" />
<glyph unicode="&#x15c;" glyph-name="Scircumflex" horiz-adv-x="530" d="M495 224Q495 167 476 124T421 52T335 7T222 -8Q163 -8 115 4T37 37Q8 56 1 78T0 125L1 129Q12 173 52 173Q70 173 83 162T113 138T157 114T228 103Q250 103 272 108T311 124T338 154T349
200Q349 219 341 232T318 256T281 276T229 297Q158 324 119 367T80 484Q80 537 98 579T149 649T229 693T333 708Q382 708 425 698T502 668Q551 638 534 585L533 582Q528 566 517 553T484 539Q467 539 455 548T426 568T387 588T324 597Q304 597 285 592T252 577T228
550T219 510Q219 491 225 479T244 456T280 435T335 413Q370 399 399 383T450 346T483 294T495 224ZM355 768L326 746Q310 732 298 727T274 721H272Q257 721 246 730T232 753T234 784T260 818L267 824Q288 842 313 852T362 863H368Q388 863 408 852T448 819L454
812Q469 794 472 778T471 749T456 729T433 721H431Q414 721 402 729T376 749L355 768Z" />
<glyph unicode="&#x15d;" glyph-name="scircumflex" horiz-adv-x="434" d="M387 179Q387 93 328 44T164 -6Q124 -6 87 1T24 21Q-2 35 -9 55T-10 102L-9 106Q-4 125 9 134T39 144Q53 144 63 137T87 121T119 105T168 97Q203 97 227 109T252 149Q252 170 236 181T183
205Q150 217 125 230T82 260T56 300T47 353Q47 436 103 483T260 530Q300 530 334 523T391 502Q437 476 423 434L422 431Q416 413 404 401T372 389Q358 389 348 395T326 408T298 422T254 428Q178 428 178 378Q178 360 193 349T250 323Q280 312 305 300T348 272T376
233T387 179ZM453 557Q439 557 428 566T413 591T418 625T451 665L456 669Q481 689 503 698T551 708H556Q576 708 595 697T631 665L635 660Q650 641 655 623T656 590T641 566T613 557H612Q597 557 585 565T560 587L539 609L503 581Q490 570 479 564T455 557H453Z"
/>
<glyph unicode="&#x15e;" glyph-name="Scedilla" horiz-adv-x="530" d="M495 224Q495 169 477 127T424 55T342 9T235 -8L231 -24Q264 -26 280 -44T296 -89Q296 -114 286 -130T260 -157T224 -171T181 -175Q162 -175 148 -173T124 -166Q108 -160 104 -151T101 -127L102
-121Q105 -99 127 -99Q133 -99 138 -101T148 -106T160 -111T177 -113Q190 -113 199 -109T208 -94Q208 -86 202 -81T178 -76H177Q164 -76 159 -69T156 -50L166 -5Q84 4 37 37Q8 56 1 78T0 125L1 129Q12 173 52 173Q70 173 83 162T113 138T157 114T228 103Q250 103
272 108T311 124T338 154T349 200Q349 219 341 232T318 256T281 276T229 297Q158 324 119 367T80 484Q80 537 98 579T149 649T229 693T333 708Q382 708 425 698T502 668Q551 638 534 585L533 582Q528 566 517 553T484 539Q467 539 455 548T426 568T387 588T324
597Q304 597 285 592T252 577T228 550T219 510Q219 491 225 479T244 456T280 435T335 413Q370 399 399 383T450 346T483 294T495 224Z" />
<glyph unicode="&#x15f;" glyph-name="scedilla" horiz-adv-x="434" d="M387 179Q387 98 334 49T187 -5L183 -24Q216 -26 232 -44T248 -89Q248 -114 238 -130T212 -157T176 -171T133 -175Q114 -175 100 -173T76 -166Q60 -160 56 -151T53 -127L54 -121Q57 -99 79
-99Q85 -99 90 -101T100 -106T112 -111T129 -113Q142 -113 151 -109T160 -94Q160 -86 154 -81T130 -76H129Q116 -76 111 -69T108 -50L119 -4Q91 -1 66 5T24 21Q-2 35 -9 55T-10 102L-9 106Q-4 125 9 134T39 144Q53 144 63 137T87 121T119 105T168 97Q203 97 227
109T252 149Q252 170 236 181T183 205Q150 217 125 230T82 260T56 300T47 353Q47 436 103 483T260 530Q300 530 334 523T391 502Q437 476 423 434L422 431Q416 413 404 401T372 389Q358 389 348 395T326 408T298 422T254 428Q178 428 178 378Q178 360 193 349T250
323Q280 312 305 300T348 272T376 233T387 179Z" />
<glyph unicode="&#x160;" glyph-name="Scaron" horiz-adv-x="530" d="M495 224Q495 167 476 124T421 52T335 7T222 -8Q163 -8 115 4T37 37Q8 56 1 78T0 125L1 129Q12 173 52 173Q70 173 83 162T113 138T157 114T228 103Q250 103 272 108T311 124T338 154T349 200Q349
219 341 232T318 256T281 276T229 297Q158 324 119 367T80 484Q80 537 98 579T149 649T229 693T333 708Q382 708 425 698T502 668Q551 638 534 585L533 582Q528 566 517 553T484 539Q467 539 455 548T426 568T387 588T324 597Q304 597 285 592T252 577T228 550T219
510Q219 491 225 479T244 456T280 435T335 413Q370 399 399 383T450 346T483 294T495 224ZM351 816L380 838Q396 852 408 857T432 863H434Q449 863 460 854T474 831T472 800T446 766L439 760Q418 742 393 732T344 721H338Q318 721 298 732T258 765L252 772Q237
790 234 806T235 835T250 855T273 863H275Q292 863 304 855T330 835L351 816Z" />
<glyph unicode="&#x161;" glyph-name="scaron" horiz-adv-x="434" d="M387 179Q387 93 328 44T164 -6Q124 -6 87 1T24 21Q-2 35 -9 55T-10 102L-9 106Q-4 125 9 134T39 144Q53 144 63 137T87 121T119 105T168 97Q203 97 227 109T252 149Q252 170 236 181T183 205Q150
217 125 230T82 260T56 300T47 353Q47 436 103 483T260 530Q300 530 334 523T391 502Q437 476 423 434L422 431Q416 413 404 401T372 389Q358 389 348 395T326 408T298 422T254 428Q178 428 178 378Q178 360 193 349T250 323Q280 312 305 300T348 272T376 233T387
179ZM616 708Q630 708 641 699T656 674T651 640T618 600L613 596Q588 576 566 567T518 557H513Q493 557 474 568T438 600L434 605Q419 624 414 642T413 675T428 699T456 708H457Q472 708 484 700T509 678L530 656L566 684Q579 695 590 701T614 708H616Z" />
<glyph unicode="&#x162;" glyph-name="Tcommaaccent" horiz-adv-x="571" d="M320 71Q311 31 293 13T245 -5H243Q196 -5 178 22T170 96L284 590H163Q136 590 122 602T108 637V638Q108 665 125 682T169 700H586Q613 700 627 688T641 653V652Q641 625 624 608T580
590H440L320 71ZM274 -84Q274 -138 241 -174T144 -217Q114 -220 114 -197V-196Q114 -188 119 -181T146 -167Q182 -155 182 -139Q182 -132 178 -129T166 -120Q157 -113 152 -105T147 -82Q147 -53 166 -36T211 -18Q237 -18 255 -35T274 -84Z" />
<glyph unicode="&#x163;" glyph-name="tcommaaccent" horiz-adv-x="347" d="M327 525Q347 525 361 516T375 484V482Q375 456 361 442T321 427H258L197 160Q190 129 199 115T236 97Q263 93 273 83T284 54V52Q284 26 272 14T230 -5Q222 -7 208 -7T181 -8Q98 -8 66
37T52 163L113 427H104Q84 427 70 436T56 468V470Q56 496 70 510T110 525H135L152 599Q160 636 179 653T223 670H224Q265 670 284 646T291 569L281 525H327ZM437 -84Q437 -138 404 -174T307 -217Q277 -220 277 -197V-196Q277 -188 282 -181T309 -167Q345 -155 345
-139Q345 -132 341 -129T329 -120Q320 -113 315 -105T310 -82Q310 -53 329 -36T374 -18Q400 -18 418 -35T437 -84Z" />
<glyph unicode="&#x164;" glyph-name="Tcaron" horiz-adv-x="571" d="M320 71Q311 31 293 13T245 -5H243Q196 -5 178 22T170 96L284 590H163Q136 590 122 602T108 637V638Q108 665 125 682T169 700H586Q613 700 627 688T641 653V652Q641 625 624 608T580 590H440L320
71ZM398 816L427 838Q443 852 455 857T479 863H481Q496 863 507 854T521 831T519 800T493 766L486 760Q465 742 440 732T391 721H385Q365 721 345 732T305 765L299 772Q284 790 281 806T282 835T297 855T320 863H322Q339 863 351 855T377 835L398 816Z" />
<glyph unicode="&#x165;" glyph-name="tcaron" horiz-adv-x="347" d="M425 576Q415 563 404 556T376 548H373Q354 548 343 561T336 598L348 650Q353 674 370 689T411 705H433Q450 705 461 698T477 680T480 656T467 630L425 576ZM327 525Q347 525 361 516T375 484V482Q375
456 361 442T321 427H258L197 160Q190 129 199 115T236 97Q263 93 273 83T284 54V52Q284 26 272 14T230 -5Q222 -7 208 -7T181 -8Q98 -8 66 37T52 163L113 427H104Q84 427 70 436T56 468V470Q56 496 70 510T110 525H135L152 599Q160 636 179 653T223 670H224Q265
670 284 646T291 569L281 525H327Z" />
<glyph unicode="&#x16a;" glyph-name="Umacron" horiz-adv-x="666" d="M606 244Q593 188 570 142T512 62T427 11T310 -8Q240 -8 187 11T101 68T58 159T63 283L143 630Q152 670 172 687T217 705H218Q263 705 283 679T293 604L214 264Q206 232 207 204T221 154T258
120T323 107Q387 107 423 141T478 253L568 643Q576 676 592 690T630 705H631Q667 705 684 682T692 618L606 244ZM375 734Q350 734 339 745T327 777V778Q327 802 341 817T382 832H554Q579 832 590 821T602 790V788Q602 765 588 750T547 734H375Z" />
<glyph unicode="&#x16b;" glyph-name="umacron" horiz-adv-x="569" d="M463 67Q454 29 437 12T390 -5H388Q356 -5 340 14T322 66Q284 34 242 13T144 -8Q75 -8 43 37T30 169L99 465Q107 501 123 517T169 533H170Q212 533 230 509T237 434L178 169Q165 107 214 107Q240
107 270 118T337 152L408 463Q416 500 433 516T479 533H480Q522 533 540 509T547 433L463 67ZM275 584Q250 584 239 595T227 627V628Q227 652 241 667T282 682H449Q474 682 485 671T497 640V638Q497 615 483 600T442 584H275Z" />
<glyph unicode="&#x16c;" glyph-name="Ubreve" horiz-adv-x="666" d="M606 244Q593 188 570 142T512 62T427 11T310 -8Q240 -8 187 11T101 68T58 159T63 283L143 630Q152 670 172 687T217 705H218Q263 705 283 679T293 604L214 264Q206 232 207 204T221 154T258
120T323 107Q387 107 423 141T478 253L568 643Q576 676 592 690T630 705H631Q667 705 684 682T692 618L606 244ZM592 804Q578 770 543 749T459 727Q405 727 374 750T335 803Q329 829 340 845T373 861H375Q389 861 398 855T415 842Q423 834 434 828T462 822Q481
822 493 828T516 842Q526 849 536 855T560 861H561Q581 861 591 845T592 804Z" />
<glyph unicode="&#x16d;" glyph-name="ubreve" horiz-adv-x="569" d="M463 67Q454 29 437 12T390 -5H388Q356 -5 340 14T322 66Q284 34 242 13T144 -8Q75 -8 43 37T30 169L99 465Q107 501 123 517T169 533H170Q212 533 230 509T237 434L178 169Q165 107 214 107Q240
107 270 118T337 152L408 463Q416 500 433 516T479 533H480Q522 533 540 509T547 433L463 67ZM493 643Q478 608 443 585T358 561Q303 561 272 586T234 647Q228 677 239 694T274 711H276Q291 711 299 703T316 684Q324 673 334 665T361 656Q380 656 391 664T413 684Q423
694 433 702T458 711H459Q483 711 494 691T493 643Z" />
<glyph unicode="&#x16e;" glyph-name="Uring" horiz-adv-x="666" d="M606 244Q593 188 570 142T512 62T427 11T310 -8Q240 -8 187 11T101 68T58 159T63 283L143 630Q152 670 172 687T217 705H218Q263 705 283 679T293 604L214 264Q206 232 207 204T221 154T258
120T323 107Q387 107 423 141T478 253L568 643Q576 676 592 690T630 705H631Q667 705 684 682T692 618L606 244ZM559 1056Q559 1032 550 1013T526 980T491 959T450 951Q408 951 379 975T349 1045Q349 1069 358 1089T382 1123T417 1144T458 1152Q500 1152 529 1127T559
1056ZM418 1046Q418 1031 426 1022T451 1013Q468 1013 479 1024T491 1055Q491 1072 482 1081T456 1090Q439 1090 429 1078T418 1046Z" />
<glyph unicode="&#x16f;" glyph-name="uring" horiz-adv-x="569" d="M463 67Q454 29 437 12T390 -5H388Q356 -5 340 14T322 66Q284 34 242 13T144 -8Q75 -8 43 37T30 169L99 465Q107 501 123 517T169 533H170Q212 533 230 509T237 434L178 169Q165 107 214 107Q240
107 270 118T337 152L408 463Q416 500 433 516T479 533H480Q522 533 540 509T547 433L463 67ZM311 661Q311 646 319 637T344 628Q361 628 372 639T384 670Q384 687 375 696T349 705Q332 705 322 693T311 661ZM452 671Q452 647 443 628T419 595T384 574T343 566Q301
566 272 590T242 660Q242 684 251 704T275 738T310 759T351 767Q393 767 422 742T452 671Z" />
<glyph unicode="&#x170;" glyph-name="Uhungarumlaut" horiz-adv-x="666" d="M606 244Q593 188 570 142T512 62T427 11T310 -8Q240 -8 187 11T101 68T58 159T63 283L143 630Q152 670 172 687T217 705H218Q263 705 283 679T293 604L214 264Q206 232 207 204T221
154T258 120T323 107Q387 107 423 141T478 253L568 643Q576 676 592 690T630 705H631Q667 705 684 682T692 618L606 244ZM329 798Q340 829 355 842T400 855H422Q439 855 449 848T462 830T463 806T448 781L410 741Q387 717 360 717H359Q335 717 324 733T321 775L329
798ZM492 798Q503 829 518 842T563 855H585Q602 855 612 848T625 830T626 806T611 781L573 741Q550 717 523 717H522Q498 717 487 733T484 775L492 798Z" />
<glyph unicode="&#x171;" glyph-name="uhungarumlaut" horiz-adv-x="569" d="M463 67Q454 29 437 12T390 -5H388Q356 -5 340 14T322 66Q284 34 242 13T144 -8Q75 -8 43 37T30 169L99 465Q107 501 123 517T169 533H170Q212 533 230 509T237 434L178 169Q165 107
214 107Q240 107 270 118T337 152L408 463Q416 500 433 516T479 533H480Q522 533 540 509T547 433L463 67ZM235 648Q247 678 261 691T306 705H329Q345 705 355 698T369 680T369 656T354 631L311 586Q300 574 289 568T262 562H260Q239 562 226 578T224 621L235 648ZM398
648Q410 678 424 691T469 705H492Q508 705 518 698T532 680T532 656T517 631L474 586Q463 574 452 568T425 562H423Q402 562 389 578T387 621L398 648Z" />
<glyph unicode="&#x172;" glyph-name="Uogonek" horiz-adv-x="666" d="M143 630Q152 670 172 687T217 705H218Q263 705 283 679T293 604L214 264Q206 232 207 204T221 154T258 120T323 107Q387 107 423 141T478 253L568 643Q576 676 592 690T630 705H631Q667 705
684 682T692 618L606 244Q586 156 543 96T419 9Q373 -6 351 -21Q327 -38 327 -56Q327 -68 335 -74T355 -82Q384 -88 384 -114V-115Q384 -138 366 -151T303 -165Q258 -165 234 -139Q217 -120 217 -92Q217 -62 235 -41T276 -6Q214 -2 168 19T93 77T56 166T63 283L143
630Z" />
<glyph unicode="&#x173;" glyph-name="uogonek" horiz-adv-x="569" d="M463 67Q457 41 450 28T431 3Q414 -13 404 -26T394 -57Q394 -70 402 -75T422 -82Q451 -88 451 -114V-115Q451 -138 433 -151T370 -165Q324 -165 301 -140Q284 -121 284 -92Q284 -59 306 -35T356
1Q339 12 332 28T323 66Q285 35 243 14T144 -8Q75 -8 43 37T30 169L99 465Q107 501 123 517T169 533H170Q212 533 230 509T237 434L178 169Q165 107 214 107Q240 107 270 118T337 152L408 463Q416 500 433 516T479 533H480Q522 533 540 509T547 433L463 67Z" />
<glyph unicode="&#x178;" glyph-name="Ydieresis" horiz-adv-x="592" d="M339 75Q321 -5 263 -5H262Q218 -5 197 20T187 92L231 281L116 603Q108 624 110 642T123 675T150 697T192 705H193Q219 705 235 687T262 639L340 409H343L532 660Q547 680 561 692T594 705H595Q614
705 629 696T651 673T656 639T639 600L383 266L339 75ZM398 798Q398 765 374 744T318 722Q286 722 267 743T248 793Q248 809 254 823T272 847T297 863T327 869Q359 869 378 848T398 798ZM590 798Q590 765 566 744T510 722Q478 722 459 743T440 793Q440 809 446
823T464 847T489 863T519 869Q551 869 570 848T590 798Z" />
<glyph unicode="&#x179;" glyph-name="Zacute" horiz-adv-x="558" d="M421 585V589H189Q163 589 149 601T135 636V637Q135 665 152 682T195 700H570Q601 700 611 683T622 642V640Q622 614 610 596T580 557L174 112V108H432Q458 108 472 96T486 62V61Q486 35 469
18T426 0H29Q-2 0 -12 17T-23 58V60Q-23 86 -11 104T19 143L421 585ZM362 811Q376 840 393 850T441 861H472Q489 861 499 853T514 832T514 807T496 783L459 753Q442 739 426 731T392 722H386Q363 722 350 738T347 779L362 811Z" />
<glyph unicode="&#x17a;" glyph-name="zacute" horiz-adv-x="474" d="M160 103H340Q365 103 378 91T391 59V58Q391 32 376 16T334 0H17Q-7 0 -17 15T-28 50V51Q-28 75 -16 92T16 128L304 422H134Q109 422 96 434T83 466V467Q83 493 98 509T140 525H449Q473 525
484 511T495 476V475Q495 450 483 433T451 396L160 103ZM280 646Q291 670 309 687T361 704H398Q414 704 424 696T437 675T436 650T421 627L373 587Q359 576 344 569T313 561H308Q283 561 270 579T268 621L280 646V646Z" />
<glyph unicode="&#x17b;" glyph-name="Zdotaccent" horiz-adv-x="558" d="M421 585V589H189Q163 589 149 601T135 636V637Q135 665 152 682T195 700H570Q601 700 611 683T622 642V640Q622 614 610 596T580 557L174 112V108H432Q458 108 472 96T486 62V61Q486 35
469 18T426 0H29Q-2 0 -12 17T-23 58V60Q-23 86 -11 104T19 143L421 585ZM479 803Q479 768 454 746T395 724Q362 724 342 745T321 798Q321 832 346 854T404 877Q437 877 458 855T479 803Z" />
<glyph unicode="&#x17c;" glyph-name="zdotaccent" horiz-adv-x="474" d="M160 103H340Q365 103 378 91T391 59V58Q391 32 376 16T334 0H17Q-7 0 -17 15T-28 50V51Q-28 75 -16 92T16 128L304 422H134Q109 422 96 434T83 466V467Q83 493 98 509T140 525H449Q473
525 484 511T495 476V475Q495 450 483 433T451 396L160 103ZM397 646Q397 611 372 589T313 567Q280 567 260 588T239 641Q239 675 264 697T322 720Q355 720 376 698T397 646Z" />
<glyph unicode="&#x17d;" glyph-name="Zcaron" horiz-adv-x="558" d="M421 585V589H189Q163 589 149 601T135 636V637Q135 665 152 682T195 700H570Q601 700 611 683T622 642V640Q622 614 610 596T580 557L174 112V108H432Q458 108 472 96T486 62V61Q486 35 469
18T426 0H29Q-2 0 -12 17T-23 58V60Q-23 86 -11 104T19 143L421 585ZM406 816L435 838Q451 852 463 857T487 863H489Q504 863 515 854T529 831T527 800T501 766L494 760Q473 742 448 732T399 721H393Q373 721 353 732T313 765L307 772Q292 790 289 806T290 835T305
855T328 863H330Q347 863 359 855T385 835L406 816Z" />
<glyph unicode="&#x17e;" glyph-name="zcaron" horiz-adv-x="474" d="M160 103H340Q365 103 378 91T391 59V58Q391 32 376 16T334 0H17Q-7 0 -17 15T-28 50V51Q-28 75 -16 92T16 128L304 422H134Q109 422 96 434T83 466V467Q83 493 98 509T140 525H449Q473 525
484 511T495 476V475Q495 450 483 433T451 396L160 103ZM405 708Q419 708 430 699T445 674T440 640T407 600L402 596Q377 576 355 567T307 557H302Q282 557 263 568T227 600L223 605Q208 624 203 642T202 675T217 699T245 708H246Q261 708 273 700T298 678L319
656L355 684Q368 695 379 701T403 708H405Z" />
<glyph unicode="&#x192;" glyph-name="florin" horiz-adv-x="377" d="M265 346L176 -32Q158 -105 101 -105H100Q57 -105 38 -80T32 -1L114 346H111Q91 346 77 355T63 387V389Q63 415 77 429T117 444H137L166 565Q183 638 228 674T341 710Q352 710 364 710T385
707Q431 698 431 661V659Q431 634 418 623T374 608Q347 605 335 595T316 560L288 444H329Q349 444 363 435T377 403V401Q377 375 363 361T323 346H265Z" />
<glyph unicode="&#x218;" glyph-name="Scommaaccent" horiz-adv-x="530" d="M495 224Q495 167 476 124T421 52T335 7T222 -8Q163 -8 115 4T37 37Q8 56 1 78T0 125L1 129Q12 173 52 173Q70 173 83 162T113 138T157 114T228 103Q250 103 272 108T311 124T338 154T349
200Q349 219 341 232T318 256T281 276T229 297Q158 324 119 367T80 484Q80 537 98 579T149 649T229 693T333 708Q382 708 425 698T502 668Q551 638 534 585L533 582Q528 566 517 553T484 539Q467 539 455 548T426 568T387 588T324 597Q304 597 285 592T252 577T228
550T219 510Q219 491 225 479T244 456T280 435T335 413Q370 399 399 383T450 346T483 294T495 224ZM275 -84Q275 -138 242 -174T145 -217Q115 -220 115 -197V-196Q115 -188 120 -181T147 -167Q183 -155 183 -139Q183 -132 179 -129T167 -120Q158 -113 153 -105T148
-82Q148 -53 167 -36T212 -18Q238 -18 256 -35T275 -84Z" />
<glyph unicode="&#x219;" glyph-name="scommaaccent" horiz-adv-x="434" d="M387 179Q387 93 328 44T164 -6Q124 -6 87 1T24 21Q-2 35 -9 55T-10 102L-9 106Q-4 125 9 134T39 144Q53 144 63 137T87 121T119 105T168 97Q203 97 227 109T252 149Q252 170 236 181T183
205Q150 217 125 230T82 260T56 300T47 353Q47 436 103 483T260 530Q300 530 334 523T391 502Q437 476 423 434L422 431Q416 413 404 401T372 389Q358 389 348 395T326 408T298 422T254 428Q178 428 178 378Q178 360 193 349T250 323Q280 312 305 300T348 272T376
233T387 179ZM198 -84Q198 -138 165 -174T68 -217Q38 -220 38 -197V-196Q38 -188 43 -181T70 -167Q106 -155 106 -139Q106 -132 102 -129T90 -120Q81 -113 76 -105T71 -82Q71 -53 90 -36T135 -18Q161 -18 179 -35T198 -84Z" />
<glyph unicode="&#x237;" glyph-name="uni0237" horiz-adv-x="258" d="M138 -22Q129 -63 114 -91T77 -136T30 -160T-29 -168Q-43 -168 -55 -167T-80 -163Q-100 -158 -108 -147T-117 -118V-114Q-117 -95 -108 -84T-78 -68Q-60 -64 -48 -60T-27 -49T-13 -32T-4 -4L102
461Q110 498 128 514T171 530H172Q213 530 233 506T241 429L138 -22Z" />
<glyph unicode="&#x2c6;" glyph-name="circumflex" horiz-adv-x="400" d="M199 557Q185 557 174 566T159 591T164 625T197 665L202 669Q227 689 249 698T297 708H302Q322 708 341 697T377 665L381 660Q396 641 401 623T402 590T387 566T359 557H358Q343 557 331
565T306 587L285 609L249 581Q236 570 225 564T201 557H199Z" />
<glyph unicode="&#x2c7;" glyph-name="caron" horiz-adv-x="400" d="M373 708Q387 708 398 699T413 674T408 640T375 600L370 596Q345 576 323 567T275 557H270Q250 557 231 568T195 600L191 605Q176 624 171 642T170 675T185 699T213 708H214Q229 708 241 700T266
678L287 656L323 684Q336 695 347 701T371 708H373Z" />
<glyph unicode="&#x2d8;" glyph-name="breve" horiz-adv-x="400" d="M418 643Q403 608 368 585T283 561Q228 561 197 586T159 647Q153 677 164 694T199 711H201Q216 711 224 703T241 684Q249 673 259 665T286 656Q305 656 316 664T338 684Q348 694 358 702T383
711H384Q408 711 419 691T418 643Z" />
<glyph unicode="&#x2d9;" glyph-name="dotaccent" horiz-adv-x="400" d="M368 646Q368 611 343 589T284 567Q251 567 231 588T210 641Q210 675 235 697T293 720Q326 720 347 698T368 646Z" />
<glyph unicode="&#x2da;" glyph-name="ring" horiz-adv-x="400" d="M259 661Q259 646 267 637T292 628Q309 628 320 639T332 670Q332 687 323 696T297 705Q280 705 270 693T259 661ZM400 671Q400 647 391 628T367 595T332 574T291 566Q249 566 220 590T190 660Q190
684 199 704T223 738T258 759T299 767Q341 767 370 742T400 671Z" />
<glyph unicode="&#x2db;" glyph-name="ogonek" horiz-adv-x="400" d="M208 0Q185 -14 172 -27T158 -57Q158 -70 165 -74T186 -82Q215 -88 215 -114V-115Q215 -138 197 -151T134 -165Q94 -165 71 -145Q48 -125 48 -92Q48 -58 71 -35T120 0H208V0Z" />
<glyph unicode="&#x2dc;" glyph-name="tilde" horiz-adv-x="400" d="M434 633Q425 603 401 584T335 564Q321 564 306 568T277 578T250 588T227 593Q213 593 205 588T190 576Q184 570 177 565T156 559H154Q133 559 124 576T124 628Q133 657 157 677T223 697Q237
697 252 693T281 683T308 673T331 668Q345 668 353 673T368 685Q375 692 382 697T402 702H404Q425 702 434 684T434 633Z" />
<glyph unicode="&#x2dd;" glyph-name="hungarumlaut" horiz-adv-x="400" d="M174 648Q186 678 200 691T245 705H268Q284 705 294 698T308 680T308 656T293 631L250 586Q239 574 228 568T201 562H199Q178 562 165 578T163 621L174 648ZM337 648Q349 678 363 691T408
705H431Q447 705 457 698T471 680T471 656T456 631L413 586Q402 574 391 568T364 562H362Q341 562 328 578T326 621L337 648Z" />
</font>
</defs>
</svg>
