<?xml version="1.0" standalone="no"?> <!DOCTYPE svg PUBLIC "-//W3C//DTD SVG 1.0//EN" "http://www.w3.org/TR/2001/REC-SVG-20010904/DTD/svg10.dtd" > <svg xmlns="http://www.w3.org/2000/svg" width="100%" height="100%">
<defs >
<font horiz-adv-x="473" ><font-face
    font-family=""
    units-per-em="1000"
    panose-1="2 11 4 3 4 0 0 2 0 4"
    ascent="800"
    descent="-200"
    alphabetic="0" />
<missing-glyph horiz-adv-x="500" />
<glyph unicode=" " glyph-name="space" horiz-adv-x="214" />
<glyph unicode="!" glyph-name="exclam" horiz-adv-x="192" d="M85 685V700H107V685L104 118H88L85 685ZM96 -3Q87 -3 81 3T75 18Q75 27 81 33T96 39Q105 39 111 33T117 18Q117 9 111 3T96 -3Z" />
<glyph unicode="&quot;" glyph-name="quotedbl" horiz-adv-x="162" d="M32 667V700H55V667L52 545H35L32 667ZM107 667V700H130V667L127 545H110L107 667Z" />
<glyph unicode="#" glyph-name="numbersign" horiz-adv-x="450" d="M53 450H143L180 700H198L161 450H313L350 700H368L331 450H420V432H329L309 295H397V277H306L266 0H248L288 277H136L96 0H78L118 277H30V295H121L141 432H53V450ZM139 295H291L311 432H159L139 295Z" />
<glyph unicode="$" glyph-name="dollar" horiz-adv-x="491" d="M253 703Q284 702 309 698T354 685T393 666T429 642V625H415Q387 650 351 667T253 686V373Q293 361 330 349T394 316T438 265T455 189Q455 139 440 103T397 44T333 10T253 -3V-102H235V-3Q194 -3
164 2T109 16T65 36T27 61V79H41Q55 66 72 55T112 34T166 20T235 14V359Q199 369 165 381T104 412T61 460T45 536Q45 569 56 599T91 651T150 688T235 703V764H253V703ZM435 189Q435 231 421 258T381 303T323 332T253 354V14Q292 15 325 25T383 56T421 110T435 189ZM64
537Q64 496 77 470T114 426T169 399T235 378V686Q190 685 158 673T104 640T74 594T64 537Z" />
<glyph unicode="%" glyph-name="percent" horiz-adv-x="681" d="M183 382Q239 382 273 421T308 534Q308 607 274 647T183 687Q127 687 93 647T58 534Q58 461 92 422T183 382ZM183 366Q154 366 128 376T81 408T50 460T38 534Q38 576 49 607T81 660T127 692T183
703Q212 703 238 692T285 660T316 608T328 534Q328 492 317 461T285 408T239 377T183 366ZM105 -34H84L576 729H597L105 -34ZM498 13Q554 13 588 52T623 165Q623 238 589 278T498 318Q442 318 408 278T373 165Q373 92 407 53T498 13ZM498 -3Q469 -3 443 7T396 39T365
91T353 165Q353 207 364 238T396 291T442 323T498 334Q527 334 553 323T600 291T631 239T643 165Q643 123 632 92T600 39T554 8T498 -3Z" />
<glyph unicode="&amp;" glyph-name="ampersand" horiz-adv-x="630" d="M483 103Q448 55 397 26T273 -3Q217 -3 174 13T103 56T60 120T45 196Q45 238 58 273T93 335T146 381T210 412Q187 441 169 473T151 552Q151 585 163 612T196 660T248 692T316 703Q363 703
395 687T454 644V627H439Q416 655 388 670T317 686Q250 686 211 649T171 552Q171 523 178 501T197 459T227 419T265 376L482 132Q511 179 531 242T561 373H578V362Q569 301 548 236T494 119L593 8V0H576L483 103ZM273 14Q342 14 389 41T472 116L221 398Q187 387
159 370T109 327T77 270T65 196Q65 161 77 128T114 70T178 29T273 14Z" />
<glyph unicode="&apos;" glyph-name="quotesingle" horiz-adv-x="87" d="M32 667V700H55V667L52 545H35L32 667Z" />
<glyph unicode="(" glyph-name="parenleft" horiz-adv-x="284" d="M257 729Q231 713 199 687T138 616T91 507T72 351Q72 259 91 193T138 81T198 7T257 -37V-49H246Q219 -34 186 -5T123 73T73 189T52 351Q52 444 72 511T122 624T185 698T246 741H257V729Z" />
<glyph unicode=")" glyph-name="parenright" horiz-adv-x="284" d="M27 741H38Q65 726 98 697T161 619T211 503T232 341Q232 248 212 181T162 68T99 -6T38 -49H27V-37Q53 -21 85 5T146 76T193 184T212 341Q212 432 193 498T146 611T86 685T27 729V741Z" />
<glyph unicode="*" glyph-name="asterisk" horiz-adv-x="356" d="M190 541L261 450L278 427L262 416L245 438L178 534L111 438L94 416L78 427L95 450L166 541L58 575L31 584L37 603L64 594L171 553L168 671V700H188V671L185 553L292 594L319 603L325 584L298 575L190
541Z" />
<glyph unicode="+" glyph-name="plus" horiz-adv-x="456" d="M238 337V149H219V337H41V354H219V542H238V354H415V337H238Z" />
<glyph unicode="," glyph-name="comma" horiz-adv-x="110" d="M21 -68Q36 -62 46 -51T57 -19Q57 -12 53 -8T45 -1Q34 7 34 19Q34 27 40 33T54 39Q64 39 71 31T79 3Q79 -40 62 -58T21 -83V-68Z" />
<glyph unicode="-" glyph-name="hyphen" horiz-adv-x="211" d="M25 306H186V289H25V306Z" />
<glyph unicode="." glyph-name="period" horiz-adv-x="110" d="M55 -3Q46 -3 40 3T34 18Q34 27 40 33T55 39Q64 39 70 33T76 18Q76 9 70 3T55 -3Z" />
<glyph unicode="/" glyph-name="slash" horiz-adv-x="292" d="M16 -42L256 741H273V734L33 -49H16V-42Z" />
<glyph unicode="0" glyph-name="zero" horiz-adv-x="639" d="M320 -3Q263 -3 213 19T126 85T66 196T44 350Q44 438 66 504T125 614T213 681T320 703Q377 703 427 681T514 615T573 504T595 350Q595 262 574 196T515 86T427 19T320 -3ZM320 14Q375 14 421 35T502
98T555 203T575 350Q575 433 556 496T502 601T422 664T320 686Q265 686 218 665T137 601T84 496T64 350Q64 266 83 203T137 98T218 35T320 14Z" />
<glyph unicode="1" glyph-name="one" horiz-adv-x="277" d="M153 0V678L25 606H13V618L159 700H173V0H153Z" />
<glyph unicode="2" glyph-name="two" horiz-adv-x="497" d="M449 0H29V17L245 235Q284 274 317 310T374 382T412 451T426 522Q426 597 385 641T259 686Q224 686 196 679T146 661T106 635T74 605H60V620Q92 652 141 677T259 703Q306 703 341 690T399 653T434 596T446
522Q446 483 431 447T390 373T330 299T257 223L53 17H449V0Z" />
<glyph unicode="3" glyph-name="three" horiz-adv-x="487" d="M223 -3Q157 -3 108 17T26 67V84H41Q67 56 112 35T223 14Q327 14 376 63T425 199Q425 243 409 273T367 322T307 349T237 358H170V375H229Q268 375 300 384T356 413T393 462T406 531Q406 607 364 646T233
686Q170 686 129 668T62 624H49V640Q83 669 128 686T233 703Q327 703 376 658T426 531Q426 463 389 421T292 368V367Q325 363 353 350T401 316T433 265T445 199Q445 104 391 51T223 -3Z" />
<glyph unicode="4" glyph-name="four" horiz-adv-x="532" d="M394 0V193H23V213L399 700H414V210H508V193H414V0H394ZM46 210H394V662H393L46 211V210Z" />
<glyph unicode="5" glyph-name="five" horiz-adv-x="506" d="M463 240Q463 185 445 140T394 64T316 15T216 -3Q149 -3 103 17T28 64V80H42Q67 54 108 34T216 14Q268 14 310 30T381 75T427 146T443 240Q443 292 428 329T388 389T328 424T256 435Q190 435 146 409T78
353H58V700H430V683H77V376H79Q88 387 104 400T142 425T193 444T256 452Q296 452 333 440T400 402T446 336T463 240Z" />
<glyph unicode="6" glyph-name="six" horiz-adv-x="565" d="M298 -3Q247 -3 201 16T120 75T65 180T44 335Q44 426 68 495T135 610T233 680T354 703Q403 703 435 694T491 672V655H478Q463 668 432 677T354 687Q293 687 240 665T148 599T87 489T64 335Q64 325 64
316T65 297Q84 324 110 346T168 384T234 410T305 419Q348 419 388 408T458 373T507 312T525 220Q525 166 508 125T461 55T389 12T298 -3ZM305 403Q233 403 169 368T66 275Q72 205 92 156T144 76T214 30T298 15Q343 15 381 28T446 67T489 131T505 220Q505 270 489
305T445 361T381 393T305 403Z" />
<glyph unicode="7" glyph-name="seven" horiz-adv-x="494" d="M128 15L453 682V683H35V700H471V680L145 0H128V15Z" />
<glyph unicode="8" glyph-name="eight" horiz-adv-x="548" d="M273 -3Q214 -3 171 11T98 51T54 112T39 188Q39 223 50 254T84 310T137 351T210 374V376Q147 388 110 431T73 534Q73 570 86 601T125 654T188 690T273 703Q320 703 357 690T420 655T459 601T473 534Q473
474 436 432T337 376V374Q377 368 409 352T463 311T497 255T509 188Q509 147 494 112T450 52T376 12T273 -3ZM273 14Q381 14 434 62T488 188Q488 227 474 259T433 315T366 352T273 366Q220 366 180 353T113 316T73 260T59 188Q59 111 112 63T273 14ZM273 383Q361
383 407 424T454 534Q454 603 408 644T273 686Q185 686 139 645T93 534Q93 465 139 424T273 383Z" />
<glyph unicode="9" glyph-name="nine" horiz-adv-x="561" d="M210 -3Q159 -3 125 5T67 27V44H80Q95 31 128 22T210 13Q274 13 326 35T417 101T476 211T497 365Q497 375 497 384T496 403Q477 376 451 354T393 315T327 290T256 281Q213 281 173 292T103 328T54 391T36
483Q36 536 53 577T101 646T174 688T265 703Q316 703 362 684T442 625T497 520T517 365Q517 273 495 205T432 90T335 20T210 -3ZM256 297Q327 297 391 332T494 425Q488 495 468 544T418 624T348 670T265 685Q220 685 182 672T116 634T72 571T56 483Q56 433 72 398T116
340T180 307T256 297Z" />
<glyph unicode=":" glyph-name="colon" horiz-adv-x="118" d="M59 317Q50 317 44 323T38 338Q38 347 44 353T59 359Q68 359 74 353T80 338Q80 329 74 323T59 317ZM59 -3Q50 -3 44 3T38 18Q38 27 44 33T59 39Q68 39 74 33T80 18Q80 9 74 3T59 -3Z" />
<glyph unicode=";" glyph-name="semicolon" horiz-adv-x="118" d="M59 317Q50 317 44 323T38 338Q38 347 44 353T59 359Q68 359 74 353T80 338Q80 329 74 323T59 317ZM25 -68Q40 -62 50 -51T61 -19Q61 -12 57 -8T49 -1Q38 7 38 19Q38 27 44 33T58 39Q68 39 75
31T83 3Q83 -40 66 -58T25 -83V-68Z" />
<glyph unicode="&lt;" glyph-name="less" horiz-adv-x="456" d="M36 338L404 536H416V523L55 330V329L416 135V122H404L36 321V338Z" />
<glyph unicode="=" glyph-name="equal" horiz-adv-x="477" d="M35 382V397H442V382H35ZM35 232V247H442V232H35Z" />
<glyph unicode="&gt;" glyph-name="greater" horiz-adv-x="456" d="M420 320L52 122H40V135L401 328V329L40 523V536H52L420 337V320Z" />
<glyph unicode="?" glyph-name="question" horiz-adv-x="431" d="M159 118Q153 164 156 196T170 253T199 300T240 348Q264 372 287 394T329 439T360 488T372 548Q372 687 224 687Q158 687 119 667T59 623H45V639Q57 649 73 660T110 681T160 697T224 703Q302 703
347 667T392 548Q392 512 380 484T347 431T302 383T252 334Q232 313 216 294T190 251T176 196T177 118H159ZM171 -3Q162 -3 156 3T150 18Q150 27 156 33T171 39Q180 39 186 33T192 18Q192 9 186 3T171 -3Z" />
<glyph unicode="@" glyph-name="at" horiz-adv-x="861" d="M481 469Q522 469 546 459T585 437Q593 469 605 469H611L545 194Q534 146 547 118T609 90Q640 90 674 103T736 145T783 220T801 335Q801 408 775 464T703 559T594 616T457 636Q388 636 318 611T190 537T96
415T60 247Q60 154 89 89T167 -17T282 -78T422 -97Q500 -97 568 -77T678 -23H691V-38Q643 -72 573 -92T422 -113Q346 -113 277 -94T156 -31T72 81T41 247Q41 346 78 421T176 548T310 626T457 652Q533 652 599 632T714 571T791 472T820 335Q820 266 801 217T751
136T683 89T609 74Q554 74 535 102T524 177Q508 159 490 140T450 106T403 81T348 71Q300 71 269 102T238 193Q238 241 256 290T308 379T385 444T481 469ZM349 87Q377 87 401 97T448 123T489 159T528 200L581 421Q562 437 539 445T481 453Q435 453 394 430T323 371T275
288T257 193Q257 136 283 112T349 87Z" />
<glyph unicode="A" glyph-name="A" horiz-adv-x="594" d="M36 14L285 700H312L558 14V0H543L458 235H135L50 0H36V14ZM141 252H452L299 681H297L141 252Z" />
<glyph unicode="B" glyph-name="B" horiz-adv-x="578" d="M97 700H282Q323 700 361 693T429 666T477 614T495 531Q495 493 484 466T454 419T409 387T351 370V369Q388 366 421 355T479 322T518 267T533 188Q533 137 515 101T466 43T392 10T300 0H97V700ZM300 18Q344
18 383 27T451 56T496 108T513 188Q513 235 497 267T451 320T379 350T285 359H117V18H300ZM279 377Q318 377 353 384T416 410T459 457T475 531Q475 577 459 606T417 652T355 675T282 682H117V377H279Z" />
<glyph unicode="C" glyph-name="C" horiz-adv-x="623" d="M349 -3Q286 -3 233 20T140 88T79 199T57 353Q57 440 81 506T147 615T242 681T355 703Q398 703 429 697T485 679T530 653T569 621V604H555Q540 622 522 637T480 663T426 680T356 686Q299 686 248 665T159
603T99 499T77 354Q77 271 96 208T152 101T238 36T349 14Q432 14 484 41T568 109H582V92Q563 73 541 56T492 25T429 5T349 -3Z" />
<glyph unicode="D" glyph-name="D" horiz-adv-x="670" d="M97 700H273Q359 700 424 681T532 619T598 511T620 350Q620 255 598 189T533 80T424 19T273 0H97V700ZM273 18Q356 18 417 36T519 93T580 196T600 350Q600 440 580 503T520 606T418 664T273 682H117V18H273Z" />
<glyph unicode="E" glyph-name="E" horiz-adv-x="553" d="M97 700H501V683H117V372H410V355H117V17H515V0H97V700Z" />
<glyph unicode="F" glyph-name="F" horiz-adv-x="539" d="M97 0V700H498V683H117V352H397V335H117V0H97Z" />
<glyph unicode="G" glyph-name="G" horiz-adv-x="678" d="M369 -3Q297 -3 238 19T137 85T73 196T50 353Q50 443 76 509T146 618T248 682T369 703Q445 703 494 685T573 642V625H559Q532 652 485 669T369 687Q307 687 253 667T158 606T95 502T72 354Q72 183 150
99T369 15Q409 15 439 19T494 30T537 46T572 65V316H405V333H593V55Q578 46 558 36T510 17T449 3T369 -3Z" />
<glyph unicode="H" glyph-name="H" horiz-adv-x="687" d="M97 0V700H117V371H570V700H590V0H570V354H117V0H97Z" />
<glyph unicode="I" glyph-name="I" horiz-adv-x="218" d="M99 0V700H119V0H99Z" />
<glyph unicode="J" glyph-name="J" horiz-adv-x="400" d="M149 -4Q104 -4 73 7T20 33V51H32Q47 36 74 25T149 13Q221 13 254 48T287 149V700H307V149Q307 76 269 36T149 -4Z" />
<glyph unicode="K" glyph-name="K" horiz-adv-x="607" d="M97 700H117V265L524 700H536V688L277 411L560 13V0H546L264 397L117 240V0H97V700Z" />
<glyph unicode="L" glyph-name="L" horiz-adv-x="546" d="M97 0V700H117V17H507V0H97Z" />
<glyph unicode="M" glyph-name="M" horiz-adv-x="802" d="M97 700H137L401 28H402L666 700H705V0H685V685H680L410 0H391L122 685H117V0H97V700Z" />
<glyph unicode="N" glyph-name="N" horiz-adv-x="680" d="M97 700H127L563 34H564V700H583V0H563L117 681H116V0H97V700Z" />
<glyph unicode="O" glyph-name="O" horiz-adv-x="713" d="M357 -3Q294 -3 238 20T141 87T75 198T50 350Q50 436 74 502T140 612T238 680T357 703Q420 703 475 680T573 613T639 502T663 350Q663 264 639 198T573 88T476 20T357 -3ZM357 14Q417 14 469 35T560 99T621
205T643 350Q643 432 621 494T560 599T469 664T357 686Q297 686 245 664T153 600T92 495T70 350Q70 268 92 205T153 100T244 36T357 14Z" />
<glyph unicode="P" glyph-name="P" horiz-adv-x="545" d="M97 700H263Q315 700 359 691T434 659T483 599T501 506Q501 450 485 413T437 352T362 319T263 309H117V0H97V700ZM117 327H263Q314 327 354 335T423 363T466 418T481 506Q481 558 465 592T420 646T351
674T263 682H117V327Z" />
<glyph unicode="Q" glyph-name="Q" horiz-adv-x="721" d="M299 0Q246 12 201 39T122 110T69 213T50 350Q50 436 74 502T140 612T238 680T357 703Q420 703 475 680T573 613T639 502T663 350Q663 270 642 207T583 98T493 28T378 -1V-3L668 -63V-80H652L299 0ZM359
14Q419 14 471 35T561 99T621 205T643 350Q643 432 621 494T560 599T469 664T357 686Q297 686 245 664T153 600T92 495T70 350Q70 268 92 205T154 100T246 36T359 14Z" />
<glyph unicode="R" glyph-name="R" horiz-adv-x="592" d="M344 339Q326 337 307 336T267 334H117V0H97V700H267Q316 700 358 691T431 661T479 605T497 516Q497 437 462 397T365 343L541 13V0H525L344 339ZM117 352H267Q315 352 354 358T420 383T462 433T477 516Q477
566 461 598T417 649T350 675T267 682H117V352Z" />
<glyph unicode="S" glyph-name="S" horiz-adv-x="511" d="M245 -3Q202 -3 170 2T112 17T66 37T27 61V79H41Q55 67 73 55T115 34T170 20T244 14Q287 14 323 23T386 54T428 108T443 189Q443 234 426 261T379 307T313 336T236 359Q200 369 166 381T104 412T61 460T45
536Q45 570 57 600T93 653T155 689T244 703Q278 703 304 699T353 686T394 667T432 642V625H418Q404 638 388 649T350 668T303 681T244 686Q197 686 163 674T107 642T75 595T64 537Q64 495 78 468T117 424T174 397T243 376Q285 364 325 351T395 318T444 268T463
189Q463 138 446 102T400 42T331 8T245 -3Z" />
<glyph unicode="T" glyph-name="T" horiz-adv-x="554" d="M267 0V683H26V700H528V683H287V0H267Z" />
<glyph unicode="U" glyph-name="U" horiz-adv-x="678" d="M342 14Q387 14 427 23T498 56T547 119T566 221V700H586V222Q586 157 566 114T512 44T434 8T341 -3Q293 -3 248 7T169 44T113 113T92 222V700H112V221Q112 161 131 121T181 58T254 24T342 14Z" />
<glyph unicode="V" glyph-name="V" horiz-adv-x="595" d="M34 686V700H49L297 29H299L546 700H561V686L307 0H288L34 686Z" />
<glyph unicode="W" glyph-name="W" horiz-adv-x="888" d="M37 688V700H54L237 41H240L435 700H453L648 41H651L833 700H851V688L659 0H639L444 662H443L248 0H228L37 688Z" />
<glyph unicode="X" glyph-name="X" horiz-adv-x="573" d="M43 13L276 362L61 687V700H75L288 376L500 700H512V687L299 360L529 13V0H516L286 346L56 0H43V13Z" />
<glyph unicode="Y" glyph-name="Y" horiz-adv-x="539" d="M259 0V299L30 687V700H44L269 317H270L496 700H509V687L279 299V0H259Z" />
<glyph unicode="Z" glyph-name="Z" horiz-adv-x="592" d="M51 18L519 682V683H78V700H541V681L73 18V17H526V0H51V18Z" />
<glyph unicode="[" glyph-name="bracketleft" horiz-adv-x="268" d="M87 741H237V725H106V-33H237V-49H87V741Z" />
<glyph unicode="\" glyph-name="backslash" horiz-adv-x="292" d="M276 -49H259L19 734V741H36L276 -42V-49Z" />
<glyph unicode="]" glyph-name="bracketright" horiz-adv-x="268" d="M181 -49H31V-33H162V725H31V741H181V-49Z" />
<glyph unicode="^" glyph-name="asciicircum" horiz-adv-x="379" d="M31 483L180 700H201L348 483V473H334L191 682H190L44 473H31V483Z" />
<glyph unicode="_" glyph-name="underscore" horiz-adv-x="305" d="M-6 -162V-146H311V-162H-6Z" />
<glyph unicode="`" glyph-name="grave" horiz-adv-x="410" d="M208 578L116 689V700H132L221 587V578H208Z" />
<glyph unicode="a" glyph-name="a" horiz-adv-x="489" d="M394 94Q376 72 357 54T315 24T264 4T199 -3Q164 -3 135 5T84 31T50 77T37 144Q37 182 52 210T95 256T161 283T246 292Q326 292 394 274V385Q394 422 384 446T354 484T310 503T254 509Q191 509 149 495T83
461H71V479Q100 496 144 510T255 525Q288 525 317 519T367 497T400 454T413 386V0H408Q400 0 397 4T394 23V94ZM200 13Q271 13 315 42T394 117V257Q359 266 323 271T247 276Q206 276 171 269T111 245T71 204T56 145Q56 109 67 84T97 43T143 20T200 13Z" />
<glyph unicode="b" glyph-name="b" horiz-adv-x="549" d="M100 404Q116 428 137 449T185 488T244 515T313 525Q350 525 385 513T448 471T493 391T510 266Q510 188 491 137T439 54T367 10T287 -3Q218 -3 174 19T100 77V23Q100 9 98 5T88 0H81V700H86Q94 700 97
696T100 677V404ZM312 509Q240 509 188 472T100 380V99Q135 57 179 35T287 13Q323 13 359 24T424 63T472 141T491 265Q491 338 475 385T433 460T375 498T312 509Z" />
<glyph unicode="c" glyph-name="c" horiz-adv-x="483" d="M275 -3Q220 -3 177 15T103 68T56 152T39 262Q39 323 56 372T105 455T180 507T276 525Q310 525 336 519T381 504T414 485T438 465V450H424Q407 473 373 491T276 509Q228 509 188 492T119 444T74 366T58
262Q58 144 115 79T275 13Q308 13 334 19T379 36T413 59T436 84H450V69Q440 57 425 44T387 21T337 4T275 -3Z" />
<glyph unicode="d" glyph-name="d" horiz-adv-x="549" d="M468 0H462Q454 0 452 5T449 27V110Q417 62 365 30T239 -3Q203 -3 168 9T104 51T57 131T39 256Q39 334 59 385T111 468T183 512T262 525Q329 525 374 503T449 444V700H454Q462 700 465 696T468 677V0ZM240
13Q312 13 362 46T449 135V422Q414 465 370 487T262 509Q226 509 190 498T125 459T77 381T58 257Q58 184 74 137T117 62T176 24T240 13Z" />
<glyph unicode="e" glyph-name="e" horiz-adv-x="507" d="M58 259Q58 144 113 79T277 13Q343 13 384 30T446 69H460V56Q434 33 389 15T277 -3Q162 -3 101 66T39 259Q39 320 56 369T103 452T174 506T263 525Q307 525 345 512T410 469T453 395T469 286V273H58V259ZM263
510Q221 510 185 495T123 452T80 382T59 289H450Q449 348 435 390T397 458T338 497T263 510Z" />
<glyph unicode="f" glyph-name="f" horiz-adv-x="258" d="M18 520H88V575Q88 610 96 634T119 672T153 693T196 700Q233 700 253 695V682H196Q157 682 132 660T107 575V520H240V504H107V0H88V504H18V520Z" />
<glyph unicode="g" glyph-name="g" horiz-adv-x="549" d="M468 -4Q468 -49 450 -80T403 -129T337 -156T264 -165Q198 -165 149 -150T70 -118V-100H82Q106 -120 153 -134T262 -149Q296 -149 329 -142T389 -117T432 -72T449 -3V111Q417 63 365 30T239 -3Q203 -3
168 9T104 51T57 131T39 256Q39 334 59 385T111 468T183 512T262 525Q329 525 374 503T449 444V494Q449 510 452 515T463 520H468V-4ZM240 13Q312 13 362 46T449 136V422Q414 465 370 487T262 509Q226 509 190 498T125 459T77 381T58 257Q58 184 74 137T117 62T176
24T240 13Z" />
<glyph unicode="h" glyph-name="h" horiz-adv-x="551" d="M100 416Q124 437 151 456T209 491T273 515T341 525Q368 525 392 520T435 499T464 459T475 395V0H456V392Q456 428 447 451T422 486T385 504T340 509Q274 509 212 476T100 398V0H81V700H86Q94 700 97 696T100
677V416Z" />
<glyph unicode="i" glyph-name="i" horiz-adv-x="187" d="M84 0V520H89Q98 520 100 516T103 494V0H84ZM94 613Q86 613 81 618T76 631Q76 639 81 644T94 649Q102 649 107 644T112 631Q112 623 107 618T94 613Z" />
<glyph unicode="j" glyph-name="j" horiz-adv-x="187" d="M103 -72Q103 -115 81 -139T14 -163Q6 -163 -1 -163T-14 -161V-147H14Q50 -147 67 -127T84 -72V520H89Q98 520 100 516T103 494V-72ZM94 613Q86 613 81 618T76 631Q76 639 81 644T94 649Q102 649 107 644T112
631Q112 623 107 618T94 613Z" />
<glyph unicode="k" glyph-name="k" horiz-adv-x="453" d="M100 193L397 520H411V508L217 298L424 11V0H410L205 284L100 168V0H81V700H86Q94 700 97 696T100 677V193Z" />
<glyph unicode="l" glyph-name="l" horiz-adv-x="185" d="M88 700Q96 700 99 696T102 677V0H83V700H88Z" />
<glyph unicode="m" glyph-name="m" horiz-adv-x="859" d="M100 423Q121 443 145 461T196 494T252 516T315 525Q337 525 358 521T397 506T426 474T441 423Q462 442 486 460T537 493T593 516T656 525Q682 525 705 520T745 501T773 463T783 403V0H764V400Q764 433
756 454T733 487T699 504T656 509Q592 509 540 478T442 404V0H423V400Q423 433 415 454T392 487T358 504T315 509Q283 509 254 501T199 478T148 444T100 403V0H81V520H86Q95 520 97 516T100 494V423Z" />
<glyph unicode="n" glyph-name="n" horiz-adv-x="551" d="M100 416Q124 437 151 456T209 491T273 515T341 525Q368 525 392 520T435 499T464 459T475 395V0H456V392Q456 428 447 451T422 486T385 504T340 509Q274 509 212 476T100 398V0H81V520H86Q95 520 97 516T100
494V416Z" />
<glyph unicode="o" glyph-name="o" horiz-adv-x="546" d="M273 -3Q219 -3 176 15T103 67T56 150T39 261Q39 322 55 371T102 454T176 506T273 525Q327 525 370 507T444 454T490 371T507 261Q507 199 491 151T444 68T371 15T273 -3ZM273 13Q375 13 431 78T488 261Q488
377 432 443T273 509Q172 509 115 443T58 261Q58 144 115 79T273 13Z" />
<glyph unicode="p" glyph-name="p" horiz-adv-x="549" d="M100 404Q116 428 137 449T185 488T244 515T313 525Q349 525 384 513T447 471T492 391T510 266Q510 188 490 137T438 54T366 10T287 -3Q219 -3 174 19T100 77V-162H81V520H86Q95 520 97 516T100 494V404ZM312
509Q276 509 245 499T188 472T140 431T100 380V99Q135 57 179 35T287 13Q323 13 359 24T424 63T472 141T491 265Q491 338 475 385T433 460T375 498T312 509Z" />
<glyph unicode="q" glyph-name="q" horiz-adv-x="549" d="M449 111Q417 63 365 30T239 -3Q203 -3 168 9T104 51T57 131T39 256Q39 334 59 385T111 468T183 512T262 525Q329 525 374 503T449 444V494Q449 510 452 515T463 520H468V-162H449V111ZM240 13Q312 13
362 46T449 136V422Q414 465 370 487T262 509Q226 509 190 498T125 459T77 381T58 257Q58 184 74 137T117 62T176 24T240 13Z" />
<glyph unicode="r" glyph-name="r" horiz-adv-x="334" d="M100 411Q116 432 134 452T175 488T223 513T279 523Q284 523 288 523T301 521V505H295Q284 506 279 506Q250 506 225 497T178 471T137 434T100 388V0H81V520H86Q95 520 97 516T100 494V411Z" />
<glyph unicode="s" glyph-name="s" horiz-adv-x="418" d="M202 -3Q135 -3 94 15T34 50V65H48Q67 46 102 30T202 13Q283 13 322 45T362 146Q362 200 323 224T207 263Q171 269 142 277T91 301T59 338T47 393Q47 456 90 490T212 525Q264 525 303 511T360 480V466H346Q325
484 294 496T212 509Q139 509 103 478T66 393Q66 365 76 346T104 314T151 293T215 279Q254 272 284 263T336 238T369 201T381 147Q381 72 339 35T202 -3Z" />
<glyph unicode="t" glyph-name="t" horiz-adv-x="291" d="M18 520H88V666H107V520H257V504H107V105Q107 56 130 36T203 15H271V1Q260 -1 240 -2T199 -3Q143 -3 116 22T88 104V504H18V520Z" />
<glyph unicode="u" glyph-name="u" horiz-adv-x="543" d="M443 97Q420 77 393 59T335 26T273 4T208 -5Q181 -5 157 0T115 20T87 59T76 123V520H95V126Q95 90 104 68T128 33T164 16T209 11Q272 11 332 41T443 115V520H462V0H457Q449 0 446 4T443 23V97Z" />
<glyph unicode="v" glyph-name="v" horiz-adv-x="474" d="M25 509V520H41L237 30H239L434 520H449V509L246 0H229L25 509Z" />
<glyph unicode="w" glyph-name="w" horiz-adv-x="701" d="M27 509V520H43L188 33H190L342 520H360L512 33H514L657 520H674V509L522 0H503L351 490H350L198 0H179L27 509Z" />
<glyph unicode="x" glyph-name="x" d="M42 12L226 270L56 508V520H69L239 283L401 520H414V508L250 269L431 12V0H418L238 256L55 0H42V12Z" />
<glyph unicode="y" glyph-name="y" horiz-adv-x="478" d="M151 -150L233 40L26 509V520H42L243 64H244L438 520H453V509L167 -162H151V-150Z" />
<glyph unicode="z" glyph-name="z" horiz-adv-x="454" d="M31 15L401 505H54V520H423V504L53 15H417V0H31V15Z" />
<glyph unicode="{" glyph-name="braceleft" horiz-adv-x="297" d="M123 286Q123 347 57 347H27V363H57Q123 363 123 424V633Q123 690 149 715T226 741H266V725H226Q181 725 162 703T142 633V424Q142 389 128 375T93 356V355Q113 351 127 336T142 286V61Q142 13
161 -10T226 -33H266V-49H226Q123 -49 123 61V286Z" />
<glyph unicode="|" glyph-name="bar" horiz-adv-x="221" d="M120 -49H101V741H120V-49Z" />
<glyph unicode="}" glyph-name="braceright" horiz-adv-x="297" d="M174 61Q174 -49 71 -49H31V-33H71Q116 -33 135 -10T155 61V286Q155 321 169 336T204 355V356Q184 360 170 374T155 424V633Q155 681 136 703T71 725H31V741H71Q122 741 148 716T174 633V424Q174
363 240 363H270V347H240Q174 347 174 286V61Z" />
<glyph unicode="~" glyph-name="asciitilde" horiz-adv-x="312" d="M31 256Q36 279 52 296T94 313Q109 313 125 307T158 292T190 278T219 271Q236 271 248 282T263 320H281V310Q276 286 260 270T218 254Q203 254 187 260T154 275T122 289T93 296Q76 296 64 285T49
246H31V256Z" />
<glyph unicode="&#xa0;" glyph-name="uni00A0" horiz-adv-x="214" />
<glyph unicode="&#xa1;" glyph-name="exclamdown" horiz-adv-x="192" d="M107 -62V-77H85V-62L88 505H104L107 -62ZM96 626Q105 626 111 620T117 605Q117 596 111 590T96 584Q87 584 81 590T75 605Q75 614 81 620T96 626Z" />
<glyph unicode="&#xa2;" glyph-name="cent" horiz-adv-x="483" d="M260 -102V-2Q157 3 98 73T39 262Q39 321 55 368T100 449T170 502T260 524V583H278V525Q312 525 338 519T383 503T417 484T441 465V450H427Q408 473 374 490T278 509V13Q343 14 381 36T436 84H450V69Q440
57 425 45T388 22T339 4T278 -3V-102H260ZM58 262Q58 151 111 85T260 13V508Q215 505 178 487T114 438T73 362T58 262Z" />
<glyph unicode="&#xa3;" glyph-name="sterling" horiz-adv-x="500" d="M35 349H101Q93 397 85 440T77 524Q77 564 88 597T123 653T184 690T275 703Q334 703 377 683T454 632V617H440Q412 646 372 666T275 686Q178 686 138 642T97 523Q97 484 104 441T121 349H336V332H124Q130
294 135 255T140 172Q140 144 133 120T114 77T87 42T57 17H462V0H31V17Q72 45 96 82T121 172Q121 214 116 254T104 332H35V349Z" />
<glyph unicode="&#xa5;" glyph-name="yen" horiz-adv-x="499" d="M259 322V245H430V230H259V0H239V230H68V245H239V322H68V337H234L30 687V700H44L249 347H250L456 700H469V687L263 337H430V322H259Z" />
<glyph unicode="&#xa6;" glyph-name="brokenbar" horiz-adv-x="130" d="M55 312H75V-49H55V312ZM55 741H75V379H55V741Z" />
<glyph unicode="&#xa7;" glyph-name="section" horiz-adv-x="492" d="M229 -114Q304 -114 343 -85T382 10Q382 41 371 61T338 95T284 121T209 144Q166 156 133 170T76 202T40 245T28 301Q28 360 68 392T190 435Q142 455 118 486T93 568Q93 628 136 665T257 703Q309
703 347 688T404 657V643H390Q369 661 339 674T257 687Q186 688 149 655T112 568Q112 511 148 481T264 431Q303 422 339 409T402 378T447 334T464 273Q464 207 422 173T312 128Q353 111 377 86T401 11Q401 -130 229 -130Q195 -130 169 -125T122 -112T86 -95T61
-77V-62H75Q84 -71 97 -80T129 -97T172 -109T229 -114ZM223 423Q132 417 90 386T47 302Q47 246 88 216T213 161Q233 155 250 150T284 138Q358 146 401 178T445 273Q445 303 431 325T392 364T334 393T260 414L223 423Z" />
<glyph unicode="&#xa8;" glyph-name="dieresis" horiz-adv-x="410" d="M142 613Q134 613 129 618T124 631Q124 639 129 644T142 649Q150 649 155 644T160 631Q160 623 155 618T142 613ZM268 613Q260 613 255 618T250 631Q250 639 255 644T268 649Q276 649 281
644T286 631Q286 623 281 618T268 613Z" />
<glyph unicode="&#xa9;" glyph-name="copyright" horiz-adv-x="794" d="M397 -3Q326 -3 263 20T151 87T75 198T47 350Q47 436 75 502T151 612T262 680T397 703Q468 703 531 680T643 613T719 502T747 350Q747 264 719 198T643 88T532 20T397 -3ZM65 350Q65 268
91 205T163 100T268 35T397 13Q465 13 525 35T631 99T702 205T729 350Q729 432 703 495T631 600T526 665T397 687Q329 687 269 665T163 601T92 495T65 350ZM406 158Q319 158 269 209T219 351Q219 396 233 431T272 491T331 529T406 542Q460 542 490 527T535 498V482H521Q506
499 481 512T406 525Q369 525 339 514T286 480T252 426T239 351Q239 266 282 221T406 175Q457 175 485 192T527 228H541V212Q524 194 492 176T406 158Z" />
<glyph unicode="&#xaa;" glyph-name="ordfeminine" horiz-adv-x="420" d="M334 336Q304 299 267 277T169 254Q140 254 115 261T72 283T43 322T32 379Q32 444 81 475T209 506Q277 506 334 491V581Q334 614 325 634T300 666T263 682T216 686Q163 686 127 674T71
645H60V662Q84 678 123 690T218 703Q245 703 269 698T312 679T342 642T353 582V257H347Q340 257 337 261T334 276V336ZM170 270Q200 270 224 276T267 295T303 323T334 359V475Q305 482 274 486T210 491Q139 491 95 465T51 380Q51 349 59 328T84 294T122 276T170
270Z" />
<glyph unicode="&#xab;" glyph-name="guillemotleft" horiz-adv-x="411" d="M39 252V266L208 469H220V456L59 260V258L220 63V50H208L39 252ZM191 252V266L360 469H372V456L211 260V258L372 63V50H360L191 252Z" />
<glyph unicode="&#xae;" glyph-name="registered" horiz-adv-x="416" d="M208 350Q172 350 139 362T82 397T42 453T27 529Q27 572 42 605T81 661T139 696T208 708Q244 708 276 696T334 661T374 605T389 529Q389 487 374 454T334 397T277 362T208 350ZM208 366Q241
366 271 377T323 409T358 460T371 529Q371 568 358 598T323 649T271 681T208 692Q175 692 145 681T93 650T58 599T45 529Q45 490 58 460T93 409T145 377T208 366ZM215 521H167V432H147V632H215Q250 632 266 618T282 577Q282 531 235 523L286 442V432H270L215 521ZM167
537H215Q241 537 251 547T262 577Q262 595 253 605T215 615H167V537Z" />
<glyph unicode="&#xaf;" glyph-name="macron" horiz-adv-x="410" d="M102 636H308V621H102V636Z" />
<glyph unicode="&#xb0;" glyph-name="degree" horiz-adv-x="301" d="M150 465Q126 465 105 473T68 498T42 536T32 585Q32 613 41 635T67 673T105 697T150 706Q174 706 195 698T233 673T259 635T269 585Q269 558 260 536T234 498T196 474T150 465ZM50 585Q50 539
79 510T150 481Q192 481 221 510T251 585Q251 633 222 661T150 690Q108 690 79 662T50 585Z" />
<glyph unicode="&#xb2;" glyph-name="two.superior" horiz-adv-x="280" d="M257 334H24V350L140 458Q166 482 184 501T214 536T231 569T237 604Q237 644 214 665T147 686Q110 686 87 673T48 643H36V657Q53 674 80 688T147 702Q196 702 226 677T256 604Q256 565
230 529T149 444L46 350H257V334Z" />
<glyph unicode="&#xb3;" glyph-name="three.superior" horiz-adv-x="268" d="M124 332Q87 332 58 342T12 369V384H25Q39 370 63 359T124 348Q175 348 200 371T226 438Q226 461 217 476T194 501T163 514T127 518H93V533H124Q164 533 190 553T216 612Q216 686 128
686Q96 686 73 676T36 652H24V668Q41 682 68 692T128 702Q179 702 207 680T235 612Q235 574 214 554T164 527V525Q199 521 222 499T245 438Q245 387 213 360T124 332Z" />
<glyph unicode="&#xb4;" glyph-name="acute" horiz-adv-x="410" d="M190 587L279 700H295V689L203 578H190V587Z" />
<glyph unicode="&#xb6;" glyph-name="paragraph" horiz-adv-x="517" d="M289 352H269Q219 352 176 359T101 385T51 438T32 526Q32 580 50 614T99 667T174 693T267 700H420V-91H401V684H308V-91H289V352Z" />
<glyph unicode="&#xb7;" glyph-name="periodcentered" horiz-adv-x="110" d="M55 341Q64 341 70 335T76 320Q76 311 70 305T55 299Q46 299 40 305T34 320Q34 329 40 335T55 341Z" />
<glyph unicode="&#xb8;" glyph-name="cedilla" horiz-adv-x="410" d="M190 0V-50Q271 -50 271 -112Q271 -141 251 -157T199 -173Q175 -173 159 -167T130 -152V-137H143Q149 -147 164 -152T199 -157Q225 -157 239 -145T253 -112Q253 -86 238 -76T184 -66H173V0H190Z" />
<glyph unicode="&#xb9;" glyph-name="one.superior" horiz-adv-x="198" d="M108 334V680L22 631H11V643L114 700H127V334H108Z" />
<glyph unicode="&#xba;" glyph-name="ordmasculine" horiz-adv-x="484" d="M242 254Q198 254 161 269T97 314T54 384T38 479Q38 531 53 572T96 643T161 687T242 703Q285 703 322 688T387 643T430 573T446 479Q446 426 431 385T388 314T323 270T242 254ZM242 270Q326
270 376 324T426 479Q426 577 376 632T242 687Q158 687 108 632T58 479Q58 379 108 325T242 270Z" />
<glyph unicode="&#xbb;" glyph-name="guillemotright" horiz-adv-x="411" d="M372 267V253L203 50H191V63L352 259V261L191 456V469H203L372 267ZM220 267V253L51 50H39V63L200 259V261L39 456V469H51L220 267Z" />
<glyph unicode="&#xbc;" glyph-name="onequarter" horiz-adv-x="627" d="M108 334V680L22 631H11V643L114 700H127V334H108ZM53 -34H32L524 729H545L53 -34ZM524 0V97H329V113L527 366H542V111H602V97H542V0H524ZM350 111H524V334H522L350 113V111Z" />
<glyph unicode="&#xbd;" glyph-name="onehalf" horiz-adv-x="661" d="M108 334V680L22 631H11V643L114 700H127V334H108ZM53 -34H32L524 729H545L53 -34ZM638 0H405V16L521 124Q547 148 565 167T595 202T612 235T618 270Q618 310 595 331T528 352Q491 352 468
339T429 309H417V323Q434 340 461 354T528 368Q577 368 607 343T637 270Q637 250 631 232T611 196T578 156T530 110L427 16H638V0Z" />
<glyph unicode="&#xbe;" glyph-name="threequarters" horiz-adv-x="667" d="M124 332Q87 332 58 342T12 369V384H25Q39 370 63 359T124 348Q175 348 200 371T226 438Q226 461 217 476T194 501T163 514T127 518H93V533H124Q164 533 190 553T216 612Q216 686 128
686Q96 686 73 676T36 652H24V668Q41 682 68 692T128 702Q178 702 206 679T235 612Q235 574 214 554T164 527V525Q199 521 222 499T245 438Q245 387 213 360T124 332ZM112 -34H91L583 729H604L112 -34ZM564 0V97H369V113L567 366H582V111H642V97H582V0H564ZM390
111H564V334H562L390 113V111Z" />
<glyph unicode="&#xbf;" glyph-name="questiondown" horiz-adv-x="431" d="M272 505Q278 459 275 427T261 370T232 322T191 275Q167 251 144 229T101 184T71 135T59 75Q59 -64 207 -64Q273 -64 312 -44T372 0H386V-16Q374 -27 358 -38T321 -59T271 -74T207 -80Q129
-80 84 -44T39 75Q39 111 51 139T84 192T129 240T179 289Q199 310 215 329T241 372T255 427T254 505H272ZM260 626Q269 626 275 620T281 605Q281 596 275 590T260 584Q251 584 245 590T239 605Q239 614 245 620T260 626Z" />
<glyph unicode="&#xc0;" glyph-name="Agrave" horiz-adv-x="594" d="M36 14L285 700H312L558 14V0H543L458 235H135L50 0H36V14ZM141 252H452L299 681H297L141 252ZM302 739L233 830V841H249L315 748V739H302Z" />
<glyph unicode="&#xc1;" glyph-name="Aacute" horiz-adv-x="594" d="M36 14L285 700H312L558 14V0H543L458 235H135L50 0H36V14ZM141 252H452L299 681H297L141 252ZM279 739V748L345 841H361V830L292 739H279Z" />
<glyph unicode="&#xc2;" glyph-name="Acircumflex" horiz-adv-x="594" d="M36 14L285 700H312L558 14V0H543L458 235H135L50 0H36V14ZM141 252H452L299 681H297L141 252ZM195 749L287 861H307L399 749V739H386L297 844L208 739H195V749Z" />
<glyph unicode="&#xc3;" glyph-name="Atilde" horiz-adv-x="594" d="M36 14L285 700H312L558 14V0H543L458 235H135L50 0H36V14ZM141 252H452L299 681H297L141 252ZM182 762Q187 780 202 797T243 815Q258 815 272 809T299 794T326 780T353 773Q371 773 383 785T398
818H414V808Q409 788 394 772T353 756Q338 756 324 762T297 777T270 791T243 798Q225 798 213 786T198 752H182V762Z" />
<glyph unicode="&#xc4;" glyph-name="Adieresis" horiz-adv-x="594" d="M36 14L285 700H312L558 14V0H543L458 235H135L50 0H36V14ZM141 252H452L299 681H297L141 252ZM235 754Q227 754 222 759T217 772Q217 780 222 785T235 790Q243 790 248 785T253 772Q253
764 248 759T235 754ZM361 754Q353 754 348 759T343 772Q343 780 348 785T361 790Q369 790 374 785T379 772Q379 764 374 759T361 754Z" />
<glyph unicode="&#xc5;" glyph-name="Aring" horiz-adv-x="594" d="M36 14L285 700H312L558 14V0H543L458 235H135L50 0H36V14ZM141 252H452L299 681H297L141 252ZM299 744Q267 744 243 765T219 823Q219 858 243 880T299 902Q330 902 354 880T378 823Q378 786
354 765T299 744ZM237 823Q237 794 255 777T299 760Q325 760 342 777T360 823Q360 852 343 869T299 886Q273 886 255 869T237 823Z" />
<glyph unicode="&#xc6;" glyph-name="AE" horiz-adv-x="928" d="M472 235H172L47 0H32V14L400 700H876V683H492V372H785V355H492V17H890V0H472V235ZM181 252H472V683H411L181 252Z" />
<glyph unicode="&#xc7;" glyph-name="Ccedilla" horiz-adv-x="623" d="M582 92Q564 73 543 57T495 27T435 6T360 -3V-50Q441 -50 441 -112Q441 -141 421 -157T369 -173Q345 -173 329 -167T300 -152V-137H313Q319 -147 334 -152T369 -157Q395 -157 409 -145T423
-112Q423 -86 408 -76T354 -66H343V-3Q281 -2 229 21T138 90T79 201T57 353Q57 440 81 506T147 615T242 681T355 703Q398 703 429 697T485 679T530 653T569 621V604H555Q540 622 522 637T480 663T426 680T356 686Q299 686 248 665T159 603T99 499T77 354Q77 271
96 208T152 101T238 36T349 14Q432 14 484 41T568 109H582V92Z" />
<glyph unicode="&#xc8;" glyph-name="Egrave" horiz-adv-x="553" d="M97 700H501V683H117V372H410V355H117V17H515V0H97V700ZM314 739L245 830V841H261L327 748V739H314Z" />
<glyph unicode="&#xc9;" glyph-name="Eacute" horiz-adv-x="553" d="M97 700H501V683H117V372H410V355H117V17H515V0H97V700ZM291 739V748L357 841H373V830L304 739H291Z" />
<glyph unicode="&#xca;" glyph-name="Ecircumflex" horiz-adv-x="553" d="M97 700H501V683H117V372H410V355H117V17H515V0H97V700ZM174 748L266 860H286L378 748V738H365L276 843L187 738H174V748Z" />
<glyph unicode="&#xcb;" glyph-name="Edieresis" horiz-adv-x="553" d="M97 700H501V683H117V372H410V355H117V17H515V0H97V700ZM247 754Q239 754 234 759T229 772Q229 780 234 785T247 790Q255 790 260 785T265 772Q265 764 260 759T247 754ZM373 754Q365 754
360 759T355 772Q355 780 360 785T373 790Q381 790 386 785T391 772Q391 764 386 759T373 754Z" />
<glyph unicode="&#xcc;" glyph-name="Igrave" horiz-adv-x="218" d="M99 0V700H119V0H99ZM370 739L301 830V841H317L383 748V739H370Z" />
<glyph unicode="&#xcd;" glyph-name="Iacute" horiz-adv-x="218" d="M99 0V700H119V0H99ZM347 739V748L413 841H429V830L360 739H347Z" />
<glyph unicode="&#xce;" glyph-name="Icircumflex" horiz-adv-x="218" d="M99 0V700H119V0H99ZM8 749L100 861H120L212 749V739H199L110 844L21 739H8V749Z" />
<glyph unicode="&#xcf;" glyph-name="Idieresis" horiz-adv-x="218" d="M99 0V700H119V0H99ZM47 754Q39 754 34 759T29 772Q29 780 34 785T47 790Q55 790 60 785T65 772Q65 764 60 759T47 754ZM173 754Q165 754 160 759T155 772Q155 780 160 785T173 790Q181 790
186 785T191 772Q191 764 186 759T173 754Z" />
<glyph unicode="&#xd0;" glyph-name="Eth" horiz-adv-x="670" d="M27 360H97V700H273Q359 700 424 681T532 619T598 511T620 350Q620 255 598 189T533 80T424 19T273 0H97V343H27V360ZM273 18Q356 18 417 36T519 93T580 196T600 350Q600 440 580 503T520 606T418
664T273 682H117V360H340V343H117V18H273Z" />
<glyph unicode="&#xd1;" glyph-name="Ntilde" horiz-adv-x="680" d="M97 700H127L563 34H564V700H583V0H563L117 681H116V0H97V700ZM236 762Q241 780 256 797T297 815Q312 815 326 809T353 794T380 780T407 773Q425 773 437 785T452 818H468V808Q463 788 448 772T407
756Q392 756 378 762T351 777T324 791T297 798Q279 798 267 786T252 752H236V762Z" />
<glyph unicode="&#xd2;" glyph-name="Ograve" horiz-adv-x="713" d="M357 -3Q294 -3 238 20T141 87T75 198T50 350Q50 436 74 502T140 612T238 680T357 703Q420 703 475 680T573 613T639 502T663 350Q663 264 639 198T573 88T476 20T357 -3ZM357 14Q417 14 469
35T560 99T621 205T643 350Q643 432 621 494T560 599T469 664T357 686Q297 686 245 664T153 600T92 495T70 350Q70 268 92 205T153 100T244 36T357 14ZM360 739L291 830V841H307L373 748V739H360Z" />
<glyph unicode="&#xd3;" glyph-name="Oacute" horiz-adv-x="713" d="M357 -3Q294 -3 238 20T141 87T75 198T50 350Q50 436 74 502T140 612T238 680T357 703Q420 703 475 680T573 613T639 502T663 350Q663 264 639 198T573 88T476 20T357 -3ZM357 14Q417 14 469
35T560 99T621 205T643 350Q643 432 621 494T560 599T469 664T357 686Q297 686 245 664T153 600T92 495T70 350Q70 268 92 205T153 100T244 36T357 14ZM337 739V748L403 841H419V830L350 739H337Z" />
<glyph unicode="&#xd4;" glyph-name="Ocircumflex" horiz-adv-x="713" d="M357 -3Q294 -3 238 20T141 87T75 198T50 350Q50 436 74 502T140 612T238 680T357 703Q420 703 475 680T573 613T639 502T663 350Q663 264 639 198T573 88T476 20T357 -3ZM357 14Q417 14
469 35T560 99T621 205T643 350Q643 432 621 494T560 599T469 664T357 686Q297 686 245 664T153 600T92 495T70 350Q70 268 92 205T153 100T244 36T357 14ZM254 749L346 861H366L458 749V739H445L356 844L267 739H254V749Z" />
<glyph unicode="&#xd5;" glyph-name="Otilde" horiz-adv-x="713" d="M357 -3Q294 -3 238 20T141 87T75 198T50 350Q50 436 74 502T140 612T238 680T357 703Q420 703 475 680T573 613T639 502T663 350Q663 264 639 198T573 88T476 20T357 -3ZM357 14Q417 14 469
35T560 99T621 205T643 350Q643 432 621 494T560 599T469 664T357 686Q297 686 245 664T153 600T92 495T70 350Q70 268 92 205T153 100T244 36T357 14ZM240 762Q245 780 260 797T301 815Q316 815 330 809T357 794T384 780T411 773Q429 773 441 785T456 818H472V808Q467
788 452 772T411 756Q396 756 382 762T355 777T328 791T301 798Q283 798 271 786T256 752H240V762Z" />
<glyph unicode="&#xd6;" glyph-name="Odieresis" horiz-adv-x="713" d="M357 -3Q294 -3 238 20T141 87T75 198T50 350Q50 436 74 502T140 612T238 680T357 703Q420 703 475 680T573 613T639 502T663 350Q663 264 639 198T573 88T476 20T357 -3ZM357 14Q417 14
469 35T560 99T621 205T643 350Q643 432 621 494T560 599T469 664T357 686Q297 686 245 664T153 600T92 495T70 350Q70 268 92 205T153 100T244 36T357 14ZM293 754Q285 754 280 759T275 772Q275 780 280 785T293 790Q301 790 306 785T311 772Q311 764 306 759T293
754ZM419 754Q411 754 406 759T401 772Q401 780 406 785T419 790Q427 790 432 785T437 772Q437 764 432 759T419 754Z" />
<glyph unicode="&#xd7;" glyph-name="multiply" horiz-adv-x="450" d="M224 326L69 168L57 180L212 338L57 496L69 508L224 350L380 508L392 496L236 338L392 180L380 168L224 326Z" />
<glyph unicode="&#xd8;" glyph-name="Oslash" horiz-adv-x="713" d="M357 -3Q300 -3 250 15T158 70L83 -29H70V-18L145 82Q101 127 76 193T50 350Q50 436 74 502T140 612T238 680T357 703Q414 703 465 684T557 628L627 721H640V710L569 616Q613 571 638 505T663
350Q663 264 639 198T573 88T476 20T357 -3ZM70 350Q70 265 93 202T156 96L546 614Q469 686 357 686Q297 686 245 664T153 600T92 495T70 350ZM357 14Q417 14 469 35T560 99T621 205T643 350Q643 433 621 495T558 601L168 84Q206 49 254 32T357 14Z" />
<glyph unicode="&#xd9;" glyph-name="Ugrave" horiz-adv-x="678" d="M342 14Q387 14 427 23T498 56T547 119T566 221V700H586V222Q586 157 566 114T512 44T434 8T341 -3Q293 -3 248 7T169 44T113 113T92 222V700H112V221Q112 161 131 121T181 58T254 24T342 14ZM343
739L274 830V841H290L356 748V739H343Z" />
<glyph unicode="&#xda;" glyph-name="Uacute" horiz-adv-x="678" d="M342 14Q387 14 427 23T498 56T547 119T566 221V700H586V222Q586 157 566 114T512 44T434 8T341 -3Q293 -3 248 7T169 44T113 113T92 222V700H112V221Q112 161 131 121T181 58T254 24T342 14ZM320
739V748L386 841H402V830L333 739H320Z" />
<glyph unicode="&#xdb;" glyph-name="Ucircumflex" horiz-adv-x="678" d="M342 14Q387 14 427 23T498 56T547 119T566 221V700H586V222Q586 157 566 114T512 44T434 8T341 -3Q293 -3 248 7T169 44T113 113T92 222V700H112V221Q112 161 131 121T181 58T254 24T342
14ZM237 755L329 867H349L441 755V745H428L339 850L250 745H237V755Z" />
<glyph unicode="&#xdc;" glyph-name="Udieresis" horiz-adv-x="678" d="M342 14Q387 14 427 23T498 56T547 119T566 221V700H586V222Q586 157 566 114T512 44T434 8T341 -3Q293 -3 248 7T169 44T113 113T92 222V700H112V221Q112 161 131 121T181 58T254 24T342
14ZM276 754Q268 754 263 759T258 772Q258 780 263 785T276 790Q284 790 289 785T294 772Q294 764 289 759T276 754ZM402 754Q394 754 389 759T384 772Q384 780 389 785T402 790Q410 790 415 785T420 772Q420 764 415 759T402 754Z" />
<glyph unicode="&#xdd;" glyph-name="Yacute" horiz-adv-x="539" d="M259 0V299L30 687V700H44L269 317H270L496 700H509V687L279 299V0H259ZM251 739V748L317 841H333V830L264 739H251Z" />
<glyph unicode="&#xde;" glyph-name="Thorn" horiz-adv-x="545" d="M97 700H117V551H263Q315 551 359 542T434 511T483 453T501 362Q501 308 485 271T437 212T362 180T263 170H117V0H97V700ZM117 188H263Q314 188 354 196T423 223T466 277T481 362Q481 413 465
446T420 498T351 525T263 533H117V188Z" />
<glyph unicode="&#xdf;" glyph-name="germandbls" horiz-adv-x="552" d="M495 135Q495 164 485 184T457 218T417 242T370 261Q312 281 281 301T249 357Q249 386 269 408T325 456Q347 472 367 487T402 519T427 554T436 593Q436 619 425 637T395 666T349 682T293
687Q203 687 152 638T100 489V0H81V489Q81 544 97 584T142 651T210 690T294 703Q326 703 355 697T407 678T442 644T455 593Q455 569 445 549T418 511T379 477T335 444Q301 420 285 400T268 357Q268 331 293 315T375 278Q403 268 428 257T473 229T503 191T514 135Q514
64 469 31T351 -3Q300 -3 269 9T218 36V50H232Q252 33 280 23T351 13Q381 13 407 20T453 42T484 80T495 135Z" />
<glyph unicode="&#xe0;" glyph-name="agrave" horiz-adv-x="489" d="M394 94Q376 72 357 54T315 24T264 4T199 -3Q164 -3 135 5T84 31T50 77T37 144Q37 182 52 210T95 256T161 283T246 292Q326 292 394 274V385Q394 422 384 446T354 484T310 503T254 509Q191 509
149 495T83 461H71V479Q100 496 144 510T255 525Q288 525 317 519T367 497T400 454T413 386V0H408Q400 0 397 4T394 23V94ZM200 13Q271 13 315 42T394 117V257Q359 266 323 271T247 276Q206 276 171 269T111 245T71 204T56 145Q56 109 67 84T97 43T143 20T200 13ZM284
578L192 689V700H208L297 587V578H284Z" />
<glyph unicode="&#xe1;" glyph-name="aacute" horiz-adv-x="489" d="M394 94Q376 72 357 54T315 24T264 4T199 -3Q164 -3 135 5T84 31T50 77T37 144Q37 182 52 210T95 256T161 283T246 292Q326 292 394 274V385Q394 422 384 446T354 484T310 503T254 509Q191 509
149 495T83 461H71V479Q100 496 144 510T255 525Q288 525 317 519T367 497T400 454T413 386V0H408Q400 0 397 4T394 23V94ZM200 13Q271 13 315 42T394 117V257Q359 266 323 271T247 276Q206 276 171 269T111 245T71 204T56 145Q56 109 67 84T97 43T143 20T200 13ZM192
587L281 700H297V689L205 578H192V587Z" />
<glyph unicode="&#xe2;" glyph-name="acircumflex" horiz-adv-x="489" d="M394 94Q376 72 357 54T315 24T264 4T199 -3Q164 -3 135 5T84 31T50 77T37 144Q37 182 52 210T95 256T161 283T246 292Q326 292 394 274V385Q394 422 384 446T354 484T310 503T254 509Q191
509 149 495T83 461H71V479Q100 496 144 510T255 525Q288 525 317 519T367 497T400 454T413 386V0H408Q400 0 397 4T394 23V94ZM200 13Q271 13 315 42T394 117V257Q359 266 323 271T247 276Q206 276 171 269T111 245T71 204T56 145Q56 109 67 84T97 43T143 20T200
13ZM142 588L234 700H254L346 588V578H333L244 683L155 578H142V588Z" />
<glyph unicode="&#xe3;" glyph-name="atilde" horiz-adv-x="489" d="M394 94Q376 72 357 54T315 24T264 4T199 -3Q164 -3 135 5T84 31T50 77T37 144Q37 182 52 210T95 256T161 283T246 292Q326 292 394 274V385Q394 422 384 446T354 484T310 503T254 509Q191 509
149 495T83 461H71V479Q100 496 144 510T255 525Q288 525 317 519T367 497T400 454T413 386V0H408Q400 0 397 4T394 23V94ZM200 13Q271 13 315 42T394 117V257Q359 266 323 271T247 276Q206 276 171 269T111 245T71 204T56 145Q56 109 67 84T97 43T143 20T200 13ZM128
606Q133 624 148 641T189 659Q204 659 218 653T245 638T272 624T299 617Q317 617 329 629T344 662H360V652Q355 632 340 616T299 600Q284 600 270 606T243 621T216 635T189 642Q171 642 159 630T144 596H128V606Z" />
<glyph unicode="&#xe4;" glyph-name="adieresis" horiz-adv-x="489" d="M394 94Q376 72 357 54T315 24T264 4T199 -3Q164 -3 135 5T84 31T50 77T37 144Q37 182 52 210T95 256T161 283T246 292Q326 292 394 274V385Q394 422 384 446T354 484T310 503T254 509Q191
509 149 495T83 461H71V479Q100 496 144 510T255 525Q288 525 317 519T367 497T400 454T413 386V0H408Q400 0 397 4T394 23V94ZM200 13Q271 13 315 42T394 117V257Q359 266 323 271T247 276Q206 276 171 269T111 245T71 204T56 145Q56 109 67 84T97 43T143 20T200
13ZM181 613Q173 613 168 618T163 631Q163 639 168 644T181 649Q189 649 194 644T199 631Q199 623 194 618T181 613ZM307 613Q299 613 294 618T289 631Q289 639 294 644T307 649Q315 649 320 644T325 631Q325 623 320 618T307 613Z" />
<glyph unicode="&#xe5;" glyph-name="aring" horiz-adv-x="489" d="M394 94Q376 72 357 54T315 24T264 4T199 -3Q164 -3 135 5T84 31T50 77T37 144Q37 182 52 210T95 256T161 283T246 292Q326 292 394 274V385Q394 422 384 446T354 484T310 503T254 509Q191 509
149 495T83 461H71V479Q100 496 144 510T255 525Q288 525 317 519T367 497T400 454T413 386V0H408Q400 0 397 4T394 23V94ZM200 13Q271 13 315 42T394 117V257Q359 266 323 271T247 276Q206 276 171 269T111 245T71 204T56 145Q56 109 67 84T97 43T143 20T200 13ZM245
578Q213 578 189 599T165 657Q165 692 189 714T245 736Q276 736 300 714T324 657Q324 620 300 599T245 578ZM183 657Q183 628 201 611T245 594Q271 594 288 611T306 657Q306 686 289 703T245 720Q219 720 201 703T183 657Z" />
<glyph unicode="&#xe6;" glyph-name="ae" horiz-adv-x="859" d="M413 259Q413 144 466 79T629 13Q695 13 736 30T798 69H812V56Q786 33 741 15T629 -3Q550 -3 497 30T418 124Q402 99 383 76T339 36T281 8T205 -3Q170 -3 140 5T87 31T51 77T37 144Q37 182 52 209T95
255T161 281T246 290H394V385Q394 422 384 446T354 484T310 503T254 509Q191 509 149 495T83 461H71V479Q100 496 145 510T256 525Q289 525 317 519T366 497T399 454T411 386V364Q434 440 487 482T616 525Q660 525 697 512T762 470T805 396T821 287V274H413V259ZM206
13Q244 13 274 22T328 47T373 88T411 143Q394 196 394 259V274H247Q206 274 171 267T111 244T71 204T56 145Q56 109 68 84T100 43T148 20T206 13ZM616 510Q574 510 539 495T477 452T434 382T414 290H802Q801 349 787 391T749 459T691 498T616 510Z" />
<glyph unicode="&#xe7;" glyph-name="ccedilla" horiz-adv-x="483" d="M275 -3Q270 -3 266 -3T257 -2V-50Q338 -50 338 -112Q338 -141 318 -157T266 -173Q242 -173 226 -167T197 -152V-137H210Q216 -147 231 -152T266 -157Q292 -157 306 -145T320 -112Q320 -86
305 -76T251 -66H240V-1Q145 10 92 79T39 262Q39 323 56 372T105 455T180 507T276 525Q310 525 336 519T381 504T414 485T438 465V450H424Q405 473 372 491T276 509Q228 509 188 492T119 444T74 366T58 262Q58 146 115 80T275 13Q308 13 334 19T380 36T413 59T436
84H450V69Q440 57 425 44T387 21T337 4T275 -3Z" />
<glyph unicode="&#xe8;" glyph-name="egrave" horiz-adv-x="507" d="M58 259Q58 144 113 79T277 13Q343 13 384 30T446 69H460V56Q434 33 389 15T277 -3Q162 -3 101 66T39 259Q39 320 56 369T103 452T174 506T263 525Q307 525 345 512T410 469T453 395T469 286V273H58V259ZM263
510Q221 510 185 495T123 452T80 382T59 289H450Q449 348 435 390T397 458T338 497T263 510ZM293 578L201 689V700H217L306 587V578H293Z" />
<glyph unicode="&#xe9;" glyph-name="eacute" horiz-adv-x="507" d="M58 259Q58 144 113 79T277 13Q343 13 384 30T446 69H460V56Q434 33 389 15T277 -3Q162 -3 101 66T39 259Q39 320 56 369T103 452T174 506T263 525Q307 525 345 512T410 469T453 395T469 286V273H58V259ZM263
510Q221 510 185 495T123 452T80 382T59 289H450Q449 348 435 390T397 458T338 497T263 510ZM201 587L290 700H306V689L214 578H201V587Z" />
<glyph unicode="&#xea;" glyph-name="ecircumflex" horiz-adv-x="507" d="M58 259Q58 144 113 79T277 13Q343 13 384 30T446 69H460V56Q434 33 389 15T277 -3Q162 -3 101 66T39 259Q39 320 56 369T103 452T174 506T263 525Q307 525 345 512T410 469T453 395T469
286V273H58V259ZM263 510Q221 510 185 495T123 452T80 382T59 289H450Q449 348 435 390T397 458T338 497T263 510ZM151 588L243 700H263L355 588V578H342L253 683L164 578H151V588Z" />
<glyph unicode="&#xeb;" glyph-name="edieresis" horiz-adv-x="507" d="M58 259Q58 144 113 79T277 13Q343 13 384 30T446 69H460V56Q434 33 389 15T277 -3Q162 -3 101 66T39 259Q39 320 56 369T103 452T174 506T263 525Q307 525 345 512T410 469T453 395T469
286V273H58V259ZM263 510Q221 510 185 495T123 452T80 382T59 289H450Q449 348 435 390T397 458T338 497T263 510ZM190 613Q182 613 177 618T172 631Q172 639 177 644T190 649Q198 649 203 644T208 631Q208 623 203 618T190 613ZM316 613Q308 613 303 618T298 631Q298
639 303 644T316 649Q324 649 329 644T334 631Q334 623 329 618T316 613Z" />
<glyph unicode="&#xec;" glyph-name="igrave" horiz-adv-x="187" d="M84 0V520H89Q98 520 100 516T103 494V0H84ZM356 578L264 689V700H280L369 587V578H356Z" />
<glyph unicode="&#xed;" glyph-name="iacute" horiz-adv-x="187" d="M84 0V520H89Q98 520 100 516T103 494V0H84ZM332 587L421 700H437V689L345 578H332V587Z" />
<glyph unicode="&#xee;" glyph-name="icircumflex" horiz-adv-x="187" d="M84 0V520H89Q98 520 100 516T103 494V0H84ZM248 588L340 700H360L452 588V578H439L350 683L261 578H248V588Z" />
<glyph unicode="&#xef;" glyph-name="idieresis" horiz-adv-x="187" d="M84 0V520H89Q98 520 100 516T103 494V0H84ZM287 613Q279 613 274 618T269 631Q269 639 274 644T287 649Q295 649 300 644T305 631Q305 623 300 618T287 613ZM413 613Q405 613 400 618T395
631Q395 639 400 644T413 649Q421 649 426 644T431 631Q431 623 426 618T413 613Z" />
<glyph unicode="&#xf0;" glyph-name="eth" horiz-adv-x="546" d="M299 638Q242 670 176 685V700H187Q255 683 314 647L400 699H414V688L329 637Q408 584 457 493T507 268Q507 201 490 151T443 66T369 15T272 -3Q218 -3 175 15T102 67T56 150T39 261Q39 322 55
371T102 454T176 506T272 525Q340 525 390 498T475 404Q453 478 413 534T315 629L198 559H184V570L299 638ZM272 13Q374 13 431 78T488 261Q488 377 432 443T272 509Q172 509 115 443T58 261Q58 144 114 79T272 13Z" />
<glyph unicode="&#xf1;" glyph-name="ntilde" horiz-adv-x="551" d="M100 416Q124 437 151 456T209 491T273 515T341 525Q368 525 392 520T435 499T464 459T475 395V0H456V392Q456 428 447 451T422 486T385 504T340 509Q274 509 212 476T100 398V0H81V520H86Q95
520 97 516T100 494V416ZM166 606Q171 624 186 641T227 659Q242 659 256 653T283 638T310 624T337 617Q355 617 367 629T382 662H398V652Q393 632 378 616T337 600Q322 600 308 606T281 621T254 635T227 642Q209 642 197 630T182 596H166V606Z" />
<glyph unicode="&#xf2;" glyph-name="ograve" horiz-adv-x="546" d="M273 -3Q219 -3 176 15T103 67T56 150T39 261Q39 322 55 371T102 454T176 506T273 525Q327 525 370 507T444 454T490 371T507 261Q507 199 491 151T444 68T371 15T273 -3ZM273 13Q375 13 431
78T488 261Q488 377 432 443T273 509Q172 509 115 443T58 261Q58 144 115 79T273 13ZM279 578L187 689V700H203L292 587V578H279Z" />
<glyph unicode="&#xf3;" glyph-name="oacute" horiz-adv-x="546" d="M273 -3Q219 -3 176 15T103 67T56 150T39 261Q39 322 55 371T102 454T176 506T273 525Q327 525 370 507T444 454T490 371T507 261Q507 199 491 151T444 68T371 15T273 -3ZM273 13Q375 13 431
78T488 261Q488 377 432 443T273 509Q172 509 115 443T58 261Q58 144 115 79T273 13ZM255 587L344 700H360V689L268 578H255V587Z" />
<glyph unicode="&#xf4;" glyph-name="ocircumflex" horiz-adv-x="546" d="M273 -3Q219 -3 176 15T103 67T56 150T39 261Q39 322 55 371T102 454T176 506T273 525Q327 525 370 507T444 454T490 371T507 261Q507 199 491 151T444 68T371 15T273 -3ZM273 13Q375 13
431 78T488 261Q488 377 432 443T273 509Q172 509 115 443T58 261Q58 144 115 79T273 13ZM171 588L263 700H283L375 588V578H362L273 683L184 578H171V588Z" />
<glyph unicode="&#xf5;" glyph-name="otilde" horiz-adv-x="546" d="M273 -3Q219 -3 176 15T103 67T56 150T39 261Q39 322 55 371T102 454T176 506T273 525Q327 525 370 507T444 454T490 371T507 261Q507 199 491 151T444 68T371 15T273 -3ZM273 13Q375 13 431
78T488 261Q488 377 432 443T273 509Q172 509 115 443T58 261Q58 144 115 79T273 13ZM157 606Q162 624 177 641T218 659Q233 659 247 653T274 638T301 624T328 617Q346 617 358 629T373 662H389V652Q384 632 369 616T328 600Q313 600 299 606T272 621T245 635T218
642Q200 642 188 630T173 596H157V606Z" />
<glyph unicode="&#xf6;" glyph-name="odieresis" horiz-adv-x="546" d="M273 -3Q219 -3 176 15T103 67T56 150T39 261Q39 322 55 371T102 454T176 506T273 525Q327 525 370 507T444 454T490 371T507 261Q507 199 491 151T444 68T371 15T273 -3ZM273 13Q375 13
431 78T488 261Q488 377 432 443T273 509Q172 509 115 443T58 261Q58 144 115 79T273 13ZM210 613Q202 613 197 618T192 631Q192 639 197 644T210 649Q218 649 223 644T228 631Q228 623 223 618T210 613ZM336 613Q328 613 323 618T318 631Q318 639 323 644T336
649Q344 649 349 644T354 631Q354 623 349 618T336 613Z" />
<glyph unicode="&#xf7;" glyph-name="divide" horiz-adv-x="456" d="M41 337V354H415V337H41ZM228 231Q237 231 243 225T249 210Q249 201 243 195T228 189Q219 189 213 195T207 210Q207 219 213 225T228 231ZM228 502Q237 502 243 496T249 481Q249 472 243 466T228
460Q219 460 213 466T207 481Q207 490 213 496T228 502Z" />
<glyph unicode="&#xf8;" glyph-name="oslash" horiz-adv-x="546" d="M273 -3Q179 -3 119 51L61 -23H49V-13L108 61Q75 96 57 146T39 261Q39 322 55 371T102 454T176 506T273 525Q321 525 360 511T429 469L485 541H497V531L440 459Q472 424 489 374T507 261Q507
199 491 151T444 68T371 15T273 -3ZM58 261Q58 140 118 75L418 456Q391 482 355 495T273 509Q172 509 115 443T58 261ZM273 13Q375 13 431 78T488 261Q488 320 473 366T429 445L129 64Q185 13 273 13Z" />
<glyph unicode="&#xf9;" glyph-name="ugrave" horiz-adv-x="543" d="M443 97Q420 77 393 59T335 26T273 4T208 -5Q181 -5 157 0T115 20T87 59T76 123V520H95V126Q95 90 104 68T128 33T164 16T209 11Q272 11 332 41T443 115V520H462V0H457Q449 0 446 4T443 23V97ZM276
578L184 689V700H200L289 587V578H276Z" />
<glyph unicode="&#xfa;" glyph-name="uacute" horiz-adv-x="543" d="M443 97Q420 77 393 59T335 26T273 4T208 -5Q181 -5 157 0T115 20T87 59T76 123V520H95V126Q95 90 104 68T128 33T164 16T209 11Q272 11 332 41T443 115V520H462V0H457Q449 0 446 4T443 23V97ZM252
587L341 700H357V689L265 578H252V587Z" />
<glyph unicode="&#xfb;" glyph-name="ucircumflex" horiz-adv-x="543" d="M443 97Q420 77 393 59T335 26T273 4T208 -5Q181 -5 157 0T115 20T87 59T76 123V520H95V126Q95 90 104 68T128 33T164 16T209 11Q272 11 332 41T443 115V520H462V0H457Q449 0 446 4T443
23V97ZM168 588L260 700H280L372 588V578H359L270 683L181 578H168V588Z" />
<glyph unicode="&#xfc;" glyph-name="udieresis" horiz-adv-x="543" d="M443 97Q420 77 393 59T335 26T273 4T208 -5Q181 -5 157 0T115 20T87 59T76 123V520H95V126Q95 90 104 68T128 33T164 16T209 11Q272 11 332 41T443 115V520H462V0H457Q449 0 446 4T443 23V97ZM208
613Q200 613 195 618T190 631Q190 639 195 644T208 649Q216 649 221 644T226 631Q226 623 221 618T208 613ZM334 613Q326 613 321 618T316 631Q316 639 321 644T334 649Q342 649 347 644T352 631Q352 623 347 618T334 613Z" />
<glyph unicode="&#xfd;" glyph-name="yacute" horiz-adv-x="478" d="M151 -150L233 40L26 509V520H42L243 64H244L438 520H453V509L167 -162H151V-150ZM226 587L315 700H331V689L239 578H226V587Z" />
<glyph unicode="&#xfe;" glyph-name="thorn" horiz-adv-x="549" d="M100 404Q116 428 137 449T185 488T244 515T313 525Q349 525 384 513T447 471T492 391T510 266Q510 188 490 137T438 54T366 10T287 -3Q219 -3 174 19T100 77V-162H81V700H86Q94 700 97 696T100
677V404ZM312 509Q276 509 245 499T188 472T140 431T100 380V99Q135 57 179 35T287 13Q323 13 359 24T424 63T472 141T491 265Q491 338 475 385T433 460T375 498T312 509Z" />
<glyph unicode="&#xff;" glyph-name="ydieresis" horiz-adv-x="478" d="M151 -150L233 40L26 509V520H42L243 64H244L438 520H453V509L167 -162H151V-150ZM181 613Q173 613 168 618T163 631Q163 639 168 644T181 649Q189 649 194 644T199 631Q199 623 194 618T181
613ZM307 613Q299 613 294 618T289 631Q289 639 294 644T307 649Q315 649 320 644T325 631Q325 623 320 618T307 613Z" />
<glyph unicode="&#x100;" glyph-name="Amacron" horiz-adv-x="594" d="M36 14L285 700H312L558 14V0H543L458 235H135L50 0H36V14ZM141 252H452L299 681H297L141 252ZM194 803H400V788H194V803Z" />
<glyph unicode="&#x101;" glyph-name="amacron" horiz-adv-x="489" d="M394 94Q376 72 357 54T315 24T264 4T199 -3Q164 -3 135 5T84 31T50 77T37 144Q37 182 52 210T95 256T161 283T246 292Q326 292 394 274V385Q394 422 384 446T354 484T310 503T254 509Q191
509 149 495T83 461H71V479Q100 496 144 510T255 525Q288 525 317 519T367 497T400 454T413 386V0H408Q400 0 397 4T394 23V94ZM200 13Q271 13 315 42T394 117V257Q359 266 323 271T247 276Q206 276 171 269T111 245T71 204T56 145Q56 109 67 84T97 43T143 20T200
13ZM141 636H347V621H141V636Z" />
<glyph unicode="&#x102;" glyph-name="Abreve" horiz-adv-x="594" d="M36 14L285 700H312L558 14V0H543L458 235H135L50 0H36V14ZM141 252H452L299 681H297L141 252ZM297 747Q254 747 227 772T191 837V848H209Q213 808 236 786T297 763Q335 763 358 785T385 848H403V837Q395
798 368 773T297 747Z" />
<glyph unicode="&#x103;" glyph-name="abreve" horiz-adv-x="489" d="M394 94Q376 72 357 54T315 24T264 4T199 -3Q164 -3 135 5T84 31T50 77T37 144Q37 182 52 210T95 256T161 283T246 292Q326 292 394 274V385Q394 422 384 446T354 484T310 503T254 509Q191
509 149 495T83 461H71V479Q100 496 144 510T255 525Q288 525 317 519T367 497T400 454T413 386V0H408Q400 0 397 4T394 23V94ZM200 13Q271 13 315 42T394 117V257Q359 266 323 271T247 276Q206 276 171 269T111 245T71 204T56 145Q56 109 67 84T97 43T143 20T200
13ZM244 580Q201 580 174 605T138 670V681H156Q160 641 183 619T244 596Q282 596 305 618T332 681H350V670Q342 631 315 606T244 580Z" />
<glyph unicode="&#x104;" glyph-name="Aogonek" horiz-adv-x="594" d="M544 -164Q511 -164 491 -146T471 -98Q471 -66 493 -42T542 2L458 235H135L50 0H36V14L285 700H312L558 14V-3Q527 -26 509 -47T490 -98Q490 -147 546 -147H582V-161Q567 -164 544 -164ZM141
252H452L299 681H297L141 252Z" />
<glyph unicode="&#x105;" glyph-name="aogonek" horiz-adv-x="489" d="M398 -164Q365 -164 345 -146T325 -98Q325 -68 345 -44T394 0V94Q376 72 357 54T315 24T264 4T199 -3Q164 -3 135 5T84 31T50 77T37 144Q37 182 52 210T95 256T161 283T246 292Q326 292 394
274V385Q394 422 384 446T354 484T310 503T254 509Q191 509 149 495T83 461H71V479Q100 496 144 510T255 525Q288 525 317 519T367 497T400 454T413 386V-2Q381 -26 363 -47T344 -98Q344 -147 400 -147H436V-161Q421 -164 398 -164ZM200 13Q271 13 315 42T394 117V257Q359
266 323 271T247 276Q206 276 171 269T111 245T71 204T56 145Q56 109 67 84T97 43T143 20T200 13Z" />
<glyph unicode="&#x106;" glyph-name="Cacute" horiz-adv-x="623" d="M349 -3Q286 -3 233 20T140 88T79 199T57 353Q57 440 81 506T147 615T242 681T355 703Q398 703 429 697T485 679T530 653T569 621V604H555Q540 622 522 637T480 663T426 680T356 686Q299 686
248 665T159 603T99 499T77 354Q77 271 96 208T152 101T238 36T349 14Q432 14 484 41T568 109H582V92Q563 73 541 56T492 25T429 5T349 -3ZM295 754L384 867H400V856L308 745H295V754Z" />
<glyph unicode="&#x107;" glyph-name="cacute" horiz-adv-x="483" d="M275 -3Q220 -3 177 15T103 68T56 152T39 262Q39 323 56 372T105 455T180 507T276 525Q310 525 336 519T381 504T414 485T438 465V450H424Q407 473 373 491T276 509Q228 509 188 492T119 444T74
366T58 262Q58 144 115 79T275 13Q308 13 334 19T379 36T413 59T436 84H450V69Q440 57 425 44T387 21T337 4T275 -3ZM251 587L340 700H356V689L264 578H251V587Z" />
<glyph unicode="&#x108;" glyph-name="Ccircumflex" horiz-adv-x="623" d="M349 -3Q286 -3 233 20T140 88T79 199T57 353Q57 440 81 506T147 615T242 681T355 703Q398 703 429 697T485 679T530 653T569 621V604H555Q540 622 522 637T480 663T426 680T356 686Q299
686 248 665T159 603T99 499T77 354Q77 271 96 208T152 101T238 36T349 14Q432 14 484 41T568 109H582V92Q563 73 541 56T492 25T429 5T349 -3ZM254 749L342 841H362L450 749V739H437L352 824L267 739H254V749Z" />
<glyph unicode="&#x109;" glyph-name="ccircumflex" horiz-adv-x="483" d="M275 -3Q220 -3 177 15T103 68T56 152T39 262Q39 323 56 372T105 455T180 507T276 525Q310 525 336 519T381 504T414 485T438 465V450H424Q407 473 373 491T276 509Q228 509 188 492T119
444T74 366T58 262Q58 144 115 79T275 13Q308 13 334 19T379 36T413 59T436 84H450V69Q440 57 425 44T387 21T337 4T275 -3ZM167 588L259 700H279L371 588V578H358L269 683L180 578H167V588Z" />
<glyph unicode="&#x10a;" glyph-name="Cdotaccent" horiz-adv-x="623" d="M349 -3Q286 -3 233 20T140 88T79 199T57 353Q57 440 81 506T147 615T242 681T355 703Q398 703 429 697T485 679T530 653T569 621V604H555Q540 622 522 637T480 663T426 680T356 686Q299
686 248 665T159 603T99 499T77 354Q77 271 96 208T152 101T238 36T349 14Q432 14 484 41T568 109H582V92Q563 73 541 56T492 25T429 5T349 -3ZM352 790Q370 790 370 772Q370 754 352 754Q334 754 334 772Q334 790 352 790Z" />
<glyph unicode="&#x10b;" glyph-name="cdotaccent" horiz-adv-x="483" d="M275 -3Q220 -3 177 15T103 68T56 152T39 262Q39 323 56 372T105 455T180 507T276 525Q310 525 336 519T381 504T414 485T438 465V450H424Q407 473 373 491T276 509Q228 509 188 492T119
444T74 366T58 262Q58 144 115 79T275 13Q308 13 334 19T379 36T413 59T436 84H450V69Q440 57 425 44T387 21T337 4T275 -3ZM269 649Q287 649 287 631Q287 613 269 613Q251 613 251 631Q251 649 269 649Z" />
<glyph unicode="&#x10c;" glyph-name="Ccaron" horiz-adv-x="623" d="M349 -3Q286 -3 233 20T140 88T79 199T57 353Q57 440 81 506T147 615T242 681T355 703Q398 703 429 697T485 679T530 653T569 621V604H555Q540 622 522 637T480 663T426 680T356 686Q299 686
248 665T159 603T99 499T77 354Q77 271 96 208T152 101T238 36T349 14Q432 14 484 41T568 109H582V92Q563 73 541 56T492 25T429 5T349 -3ZM450 831L362 739H342L254 831V841H267L352 756L437 841H450V831Z" />
<glyph unicode="&#x10d;" glyph-name="ccaron" horiz-adv-x="483" d="M275 -3Q220 -3 177 15T103 68T56 152T39 262Q39 323 56 372T105 455T180 507T276 525Q310 525 336 519T381 504T414 485T438 465V450H424Q407 473 373 491T276 509Q228 509 188 492T119 444T74
366T58 262Q58 144 115 79T275 13Q308 13 334 19T379 36T413 59T436 84H450V69Q440 57 425 44T387 21T337 4T275 -3ZM371 690L279 578H259L167 690V700H180L269 595L358 700H371V690Z" />
<glyph unicode="&#x10e;" glyph-name="Dcaron" horiz-adv-x="670" d="M97 700H273Q359 700 424 681T532 619T598 511T620 350Q620 255 598 189T533 80T424 19T273 0H97V700ZM273 18Q356 18 417 36T519 93T580 196T600 350Q600 440 580 503T520 606T418 664T273
682H117V18H273ZM414 831L326 739H306L218 831V841H231L316 756L401 841H414V831Z" />
<glyph unicode="&#x10f;" glyph-name="dcaron" horiz-adv-x="549" d="M541 700H560V689L544 578H531L541 700ZM468 0H462Q454 0 452 5T449 27V110Q417 62 365 30T239 -3Q203 -3 168 9T104 51T57 131T39 256Q39 334 59 385T111 468T183 512T262 525Q329 525 374
503T449 444V700H454Q462 700 465 696T468 677V0ZM240 13Q312 13 362 46T449 135V422Q414 465 370 487T262 509Q226 509 190 498T125 459T77 381T58 257Q58 184 74 137T117 62T176 24T240 13Z" />
<glyph unicode="&#x110;" glyph-name="Dcroat" horiz-adv-x="670" d="M27 360H97V700H273Q359 700 424 681T532 619T598 511T620 350Q620 255 598 189T533 80T424 19T273 0H97V343H27V360ZM273 18Q356 18 417 36T519 93T580 196T600 350Q600 440 580 503T520 606T418
664T273 682H117V360H340V343H117V18H273Z" />
<glyph unicode="&#x111;" glyph-name="dcroat" horiz-adv-x="549" d="M468 613H539V597H468V0H462Q454 0 452 5T449 27V110Q417 62 365 30T239 -3Q203 -3 168 9T104 51T57 131T39 256Q39 334 59 385T111 468T183 512T262 525Q329 525 374 503T449 444V597H287V613H449V700H454Q462
700 465 696T468 677V613ZM240 13Q312 13 362 45T449 135V422Q414 465 370 487T262 509Q226 509 190 498T125 459T77 381T58 257Q58 183 74 136T117 62T176 24T240 13Z" />
<glyph unicode="&#x112;" glyph-name="Emacron" horiz-adv-x="553" d="M97 700H501V683H117V372H410V355H117V17H515V0H97V700ZM202 787H418V772H202V787Z" />
<glyph unicode="&#x113;" glyph-name="emacron" horiz-adv-x="507" d="M58 259Q58 144 113 79T277 13Q343 13 384 30T446 69H460V56Q434 33 389 15T277 -3Q162 -3 101 66T39 259Q39 320 56 369T103 452T174 506T263 525Q307 525 345 512T410 469T453 395T469 286V273H58V259ZM263
510Q221 510 185 495T123 452T80 382T59 289H450Q449 348 435 390T397 458T338 497T263 510ZM150 636H356V621H150V636Z" />
<glyph unicode="&#x114;" glyph-name="Ebreve" horiz-adv-x="553" d="M97 700H501V683H117V372H410V355H117V17H515V0H97V700ZM310 741Q267 741 240 763T204 823V834H222Q226 796 249 777T310 757Q348 757 371 776T398 834H416V823Q408 786 381 764T310 741Z" />
<glyph unicode="&#x115;" glyph-name="ebreve" horiz-adv-x="507" d="M58 259Q58 144 113 79T277 13Q343 13 384 30T446 69H460V56Q434 33 389 15T277 -3Q162 -3 101 66T39 259Q39 320 56 369T103 452T174 506T263 525Q307 525 345 512T410 469T453 395T469 286V273H58V259ZM263
510Q221 510 185 495T123 452T80 382T59 289H450Q449 348 435 390T397 458T338 497T263 510ZM260 580Q217 580 190 605T154 670V681H172Q176 641 199 619T260 596Q298 596 321 618T348 681H366V670Q358 631 331 606T260 580Z" />
<glyph unicode="&#x116;" glyph-name="Edotaccent" horiz-adv-x="553" d="M97 700H501V683H117V372H410V355H117V17H515V0H97V700ZM310 790Q328 790 328 772Q328 754 310 754Q292 754 292 772Q292 790 310 790Z" />
<glyph unicode="&#x117;" glyph-name="edotaccent" horiz-adv-x="507" d="M58 259Q58 144 113 79T277 13Q343 13 384 30T446 69H460V56Q434 33 389 15T277 -3Q162 -3 101 66T39 259Q39 320 56 369T103 452T174 506T263 525Q307 525 345 512T410 469T453 395T469
286V273H58V259ZM263 510Q221 510 185 495T123 452T80 382T59 289H450Q449 348 435 390T397 458T338 497T263 510ZM269 649Q287 649 287 631Q287 613 269 613Q251 613 251 631Q251 649 269 649Z" />
<glyph unicode="&#x118;" glyph-name="Eogonek" horiz-adv-x="553" d="M97 700H501V683H117V372H410V355H117V17H515V0H482Q449 -25 430 -47T410 -98Q410 -147 466 -147H502V-161Q487 -164 464 -164Q431 -164 411 -146T391 -98Q391 -66 412 -42T460 0H97V700Z" />
<glyph unicode="&#x119;" glyph-name="eogonek" horiz-adv-x="507" d="M377 -164Q344 -164 324 -146T304 -98Q304 -63 327 -38T396 22Q371 11 344 4T277 -3Q162 -3 101 65T39 259Q39 320 56 369T103 452T174 506T263 525Q307 525 345 512T410 469T453 395T469
286Q469 283 469 281T468 277V273H58V259Q58 144 113 79T277 13Q343 13 384 30T446 69H460V56Q433 31 405 11T353 -33Q336 -50 330 -64T323 -98Q323 -147 379 -147H415V-161Q400 -164 377 -164ZM263 510Q178 510 123 452T59 289H450Q449 348 435 390T397 458T338
497T263 510Z" />
<glyph unicode="&#x11a;" glyph-name="Ecaron" horiz-adv-x="553" d="M97 700H501V683H117V372H410V355H117V17H515V0H97V700ZM408 831L320 739H300L212 831V841H225L310 756L395 841H408V831Z" />
<glyph unicode="&#x11b;" glyph-name="ecaron" horiz-adv-x="507" d="M58 259Q58 144 113 79T277 13Q343 13 384 30T446 69H460V56Q434 33 389 15T277 -3Q162 -3 101 66T39 259Q39 320 56 369T103 452T174 506T263 525Q307 525 345 512T410 469T453 395T469 286V273H58V259ZM263
510Q221 510 185 495T123 452T80 382T59 289H450Q449 348 435 390T397 458T338 497T263 510ZM355 690L263 578H243L151 690V700H164L253 595L342 700H355V690Z" />
<glyph unicode="&#x11c;" glyph-name="Gcircumflex" horiz-adv-x="678" d="M369 -3Q297 -3 238 19T137 85T73 196T50 353Q50 443 76 509T146 618T248 682T369 703Q445 703 494 685T573 642V625H559Q532 652 485 669T369 687Q307 687 253 667T158 606T95 502T72
354Q72 183 150 99T369 15Q409 15 439 19T494 30T537 46T572 65V316H405V333H593V55Q578 46 558 36T510 17T449 3T369 -3ZM264 749L352 841H372L460 749V739H447L362 824L277 739H264V749Z" />
<glyph unicode="&#x11d;" glyph-name="gcircumflex" horiz-adv-x="549" d="M468 -4Q468 -49 450 -80T403 -129T337 -156T264 -165Q198 -165 149 -150T70 -118V-100H82Q106 -120 153 -134T262 -149Q296 -149 329 -142T389 -117T432 -72T449 -3V111Q417 63 365 30T239
-3Q203 -3 168 9T104 51T57 131T39 256Q39 334 59 385T111 468T183 512T262 525Q329 525 374 503T449 444V494Q449 510 452 515T463 520H468V-4ZM240 13Q312 13 362 46T449 136V422Q414 465 370 487T262 509Q226 509 190 498T125 459T77 381T58 257Q58 184 74 137T117
62T176 24T240 13ZM174 588L266 700H286L378 588V578H365L276 683L187 578H174V588Z" />
<glyph unicode="&#x11e;" glyph-name="Gbreve" horiz-adv-x="678" d="M369 -3Q297 -3 238 19T137 85T73 196T50 353Q50 443 76 509T146 618T248 682T369 703Q445 703 494 685T573 642V625H559Q532 652 485 669T369 687Q307 687 253 667T158 606T95 502T72 354Q72
183 150 99T369 15Q409 15 439 19T494 30T537 46T572 65V316H405V333H593V55Q578 46 558 36T510 17T449 3T369 -3ZM362 741Q319 741 292 763T256 823V834H274Q278 796 301 777T362 757Q400 757 423 776T450 834H468V823Q460 786 433 764T362 741Z" />
<glyph unicode="&#x11f;" glyph-name="gbreve" horiz-adv-x="549" d="M468 -4Q468 -49 450 -80T403 -129T337 -156T264 -165Q198 -165 149 -150T70 -118V-100H82Q106 -120 153 -134T262 -149Q296 -149 329 -142T389 -117T432 -72T449 -3V111Q417 63 365 30T239
-3Q203 -3 168 9T104 51T57 131T39 256Q39 334 59 385T111 468T183 512T262 525Q329 525 374 503T449 444V494Q449 510 452 515T463 520H468V-4ZM240 13Q312 13 362 46T449 136V422Q414 465 370 487T262 509Q226 509 190 498T125 459T77 381T58 257Q58 184 74 137T117
62T176 24T240 13ZM276 580Q233 580 206 605T170 670V681H188Q192 641 215 619T276 596Q314 596 337 618T364 681H382V670Q374 631 347 606T276 580Z" />
<glyph unicode="&#x120;" glyph-name="Gdotaccent" horiz-adv-x="678" d="M369 -3Q297 -3 238 19T137 85T73 196T50 353Q50 443 76 509T146 618T248 682T369 703Q445 703 494 685T573 642V625H559Q532 652 485 669T369 687Q307 687 253 667T158 606T95 502T72
354Q72 183 150 99T369 15Q409 15 439 19T494 30T537 46T572 65V316H405V333H593V55Q578 46 558 36T510 17T449 3T369 -3ZM362 790Q380 790 380 772Q380 754 362 754Q344 754 344 772Q344 790 362 790Z" />
<glyph unicode="&#x121;" glyph-name="gdotaccent" horiz-adv-x="549" d="M468 -4Q468 -49 450 -80T403 -129T337 -156T264 -165Q198 -165 149 -150T70 -118V-100H82Q106 -120 153 -134T262 -149Q296 -149 329 -142T389 -117T432 -72T449 -3V111Q417 63 365 30T239
-3Q203 -3 168 9T104 51T57 131T39 256Q39 334 59 385T111 468T183 512T262 525Q329 525 374 503T449 444V494Q449 510 452 515T463 520H468V-4ZM240 13Q312 13 362 46T449 136V422Q414 465 370 487T262 509Q226 509 190 498T125 459T77 381T58 257Q58 184 74 137T117
62T176 24T240 13ZM276 649Q294 649 294 631Q294 613 276 613Q258 613 258 631Q258 649 276 649Z" />
<glyph unicode="&#x122;" glyph-name="Gcommaaccent" horiz-adv-x="678" d="M369 -3Q297 -3 238 19T137 85T73 196T50 353Q50 443 76 509T146 618T248 682T369 703Q445 703 494 685T573 642V625H559Q532 652 485 669T369 687Q307 687 253 667T158 606T95 502T72
354Q72 183 150 99T369 15Q409 15 439 19T494 30T537 46T572 65V316H405V333H593V55Q578 46 558 36T510 17T449 3T369 -3ZM332 -137Q346 -131 354 -121T362 -95Q362 -88 359 -84T351 -78Q341 -71 341 -59Q341 -51 346 -46T359 -40Q369 -40 376 -47T384 -74Q384
-109 368 -127T332 -152V-137Z" />
<glyph unicode="&#x123;" glyph-name="gcommaaccent" horiz-adv-x="549" d="M299 693Q285 687 277 677T269 651Q269 644 272 640T280 634Q290 627 290 615Q290 607 285 602T272 596Q262 596 255 603T247 630Q247 665 263 683T299 708V693ZM468 -4Q468 -49 450
-80T403 -129T337 -156T264 -165Q198 -165 149 -150T70 -118V-100H82Q106 -120 153 -134T262 -149Q296 -149 329 -142T389 -117T432 -72T449 -3V111Q417 63 365 30T239 -3Q203 -3 168 9T104 51T57 131T39 256Q39 334 59 385T111 468T183 512T262 525Q329 525 374
503T449 444V494Q449 510 452 515T463 520H468V-4ZM240 13Q312 13 362 46T449 136V422Q414 465 370 487T262 509Q226 509 190 498T125 459T77 381T58 257Q58 184 74 137T117 62T176 24T240 13Z" />
<glyph unicode="&#x124;" glyph-name="Hcircumflex" horiz-adv-x="687" d="M97 0V700H117V371H570V700H590V0H570V354H117V0H97ZM245 749L333 841H353L441 749V739H428L343 824L258 739H245V749Z" />
<glyph unicode="&#x125;" glyph-name="hcircumflex" horiz-adv-x="551" d="M100 416Q124 437 151 456T209 491T273 515T341 525Q368 525 392 520T435 499T464 459T475 395V0H456V392Q456 428 447 451T422 486T385 504T340 509Q274 509 212 476T100 398V0H81V700H86Q94
700 97 696T100 677V416ZM178 733L270 845H290L382 733V723H369L280 828L191 723H178V733Z" />
<glyph unicode="&#x126;" glyph-name="Hbar" horiz-adv-x="687" d="M9 542H97V700H117V542H570V700H590V542H678V526H590V0H570V354H117V0H97V526H9V542ZM570 371V526H117V371H570Z" />
<glyph unicode="&#x127;" glyph-name="hbar" horiz-adv-x="551" d="M100 613H260V597H100V416Q124 437 151 456T209 491T273 515T341 525Q368 525 392 520T435 499T464 459T475 395V0H456V392Q456 428 447 451T422 486T385 504T340 509Q307 509 275 500T213 476T154
441T100 398V0H81V597H8V613H81V700H86Q94 700 97 696T100 677V613Z" />
<glyph unicode="&#x12a;" glyph-name="Imacron" horiz-adv-x="218" d="M99 0V700H119V0H99ZM258 787H474V772H258V787Z" />
<glyph unicode="&#x12b;" glyph-name="imacron" horiz-adv-x="187" d="M84 0V520H89Q98 520 100 516T103 494V0H84ZM15 636H171V621H15V636Z" />
<glyph unicode="&#x12e;" glyph-name="Iogonek" horiz-adv-x="218" d="M103 -164Q70 -164 50 -146T30 -98Q30 -66 51 -42T99 0V700H119V-2Q87 -26 68 -47T49 -98Q49 -147 105 -147H141V-161Q126 -164 103 -164Z" />
<glyph unicode="&#x12f;" glyph-name="iogonek" horiz-adv-x="187" d="M88 -164Q55 -164 35 -146T15 -98Q15 -66 36 -42T84 0V520H89Q98 520 100 516T103 494V-2Q71 -27 53 -48T34 -98Q34 -147 90 -147H126V-161Q111 -164 88 -164ZM94 613Q76 613 76 631Q76 649
94 649Q112 649 112 631Q112 613 94 613Z" />
<glyph unicode="&#x130;" glyph-name="Idotaccent" horiz-adv-x="218" d="M99 0V700H119V0H99ZM110 790Q128 790 128 772Q128 754 110 754Q92 754 92 772Q92 790 110 790Z" />
<glyph unicode="&#x131;" glyph-name="dotlessi" horiz-adv-x="187" d="M84 0V520H89Q98 520 100 516T103 494V0H84Z" />
<glyph unicode="&#x134;" glyph-name="Jcircumflex" horiz-adv-x="400" d="M149 -4Q104 -4 73 7T20 33V51H32Q47 36 74 25T149 13Q221 13 254 48T287 149V700H307V149Q307 76 269 36T149 -4ZM200 749L288 841H308L396 749V739H383L298 824L213 739H200V749Z" />
<glyph unicode="&#x135;" glyph-name="jcircumflex" horiz-adv-x="187" d="M103 -72Q103 -115 81 -139T14 -163Q6 -163 -1 -163T-14 -161V-147H14Q50 -147 67 -127T84 -72V520H89Q98 520 100 516T103 494V-72ZM248 588L340 700H360L452 588V578H439L350 683L261
578H248V588Z" />
<glyph unicode="&#x136;" glyph-name="Kcommaaccent" horiz-adv-x="607" d="M97 700H117V265L524 700H536V688L277 411L560 13V0H546L264 397L117 240V0H97V700ZM268 -137Q282 -131 290 -121T298 -95Q298 -88 295 -84T287 -78Q277 -71 277 -59Q277 -51 282 -46T295
-40Q305 -40 312 -47T320 -74Q320 -109 304 -127T268 -152V-137Z" />
<glyph unicode="&#x137;" glyph-name="kcommaaccent" horiz-adv-x="453" d="M100 193L397 520H411V508L217 298L424 11V0H410L205 284L100 168V0H81V700H86Q94 700 97 696T100 677V193ZM198 -137Q212 -131 220 -121T228 -95Q228 -88 225 -84T217 -78Q207 -71 207
-59Q207 -51 212 -46T225 -40Q235 -40 242 -47T250 -74Q250 -109 234 -127T198 -152V-137Z" />
<glyph unicode="&#x139;" glyph-name="Lacute" horiz-adv-x="546" d="M97 0V700H117V17H507V0H97ZM346 739V748L412 841H428V830L359 739H346Z" />
<glyph unicode="&#x13a;" glyph-name="lacute" horiz-adv-x="185" d="M88 700Q96 700 99 696T102 677V0H83V700H88ZM83 732L172 845H188V834L96 723H83V732Z" />
<glyph unicode="&#x13b;" glyph-name="Lcommaaccent" horiz-adv-x="546" d="M97 0V700H117V17H507V0H97ZM280 -137Q294 -131 302 -121T310 -95Q310 -88 307 -84T299 -78Q289 -71 289 -59Q289 -51 294 -46T307 -40Q317 -40 324 -47T332 -74Q332 -109 316 -127T280
-152V-137Z" />
<glyph unicode="&#x13c;" glyph-name="lcommaaccent" horiz-adv-x="185" d="M88 700Q96 700 99 696T102 677V0H83V700H88ZM62 -137Q76 -131 84 -121T92 -95Q92 -88 89 -84T81 -78Q71 -71 71 -59Q71 -51 76 -46T89 -40Q99 -40 106 -47T114 -74Q114 -109 98 -127T62
-152V-137Z" />
<glyph unicode="&#x13d;" glyph-name="Lcaron" horiz-adv-x="546" d="M333 700H353V689L336 578H323L333 700ZM97 0V700H117V17H507V0H97Z" />
<glyph unicode="&#x13e;" glyph-name="lcaron" horiz-adv-x="185" d="M175 700H194V689L178 578H165L175 700ZM88 700Q96 700 99 696T102 677V0H83V700H88Z" />
<glyph unicode="&#x141;" glyph-name="Lslash" horiz-adv-x="546" d="M97 0V280L7 240V258L97 298V700H117V307L373 420V402L117 289V17H507V0H97Z" />
<glyph unicode="&#x142;" glyph-name="lslash" horiz-adv-x="185" d="M88 700Q96 700 99 696T102 677V430L184 490V470L102 410V0H83V396L2 338V358L83 416V700H88Z" />
<glyph unicode="&#x143;" glyph-name="Nacute" horiz-adv-x="680" d="M97 700H127L563 34H564V700H583V0H563L117 681H116V0H97V700ZM333 739V748L399 841H415V830L346 739H333Z" />
<glyph unicode="&#x144;" glyph-name="nacute" horiz-adv-x="551" d="M100 416Q124 437 151 456T209 491T273 515T341 525Q368 525 392 520T435 499T464 459T475 395V0H456V392Q456 428 447 451T422 486T385 504T340 509Q274 509 212 476T100 398V0H81V520H86Q95
520 97 516T100 494V416ZM264 587L353 700H369V689L277 578H264V587Z" />
<glyph unicode="&#x145;" glyph-name="Ncommaaccent" horiz-adv-x="680" d="M97 700H127L563 34H564V700H583V0H563L117 681H116V0H97V700ZM291 -137Q305 -131 313 -121T321 -95Q321 -88 318 -84T310 -78Q300 -71 300 -59Q300 -51 305 -46T318 -40Q328 -40 335
-47T343 -74Q343 -109 327 -127T291 -152V-137Z" />
<glyph unicode="&#x146;" glyph-name="ncommaaccent" horiz-adv-x="551" d="M100 416Q124 437 151 456T209 491T273 515T341 525Q368 525 392 520T435 499T464 459T475 395V0H456V392Q456 428 447 451T422 486T385 504T340 509Q274 509 212 476T100 398V0H81V520H86Q95
520 97 516T100 494V416ZM252 -137Q266 -131 274 -121T282 -95Q282 -88 279 -84T271 -78Q261 -71 261 -59Q261 -51 266 -46T279 -40Q289 -40 296 -47T304 -74Q304 -109 288 -127T252 -152V-137Z" />
<glyph unicode="&#x147;" glyph-name="Ncaron" horiz-adv-x="680" d="M97 700H127L563 34H564V700H583V0H563L117 681H116V0H97V700ZM450 831L362 739H342L254 831V841H267L352 756L437 841H450V831Z" />
<glyph unicode="&#x148;" glyph-name="ncaron" horiz-adv-x="551" d="M100 416Q124 437 151 456T209 491T273 515T341 525Q368 525 392 520T435 499T464 459T475 395V0H456V392Q456 428 447 451T422 486T385 504T340 509Q274 509 212 476T100 398V0H81V520H86Q95
520 97 516T100 494V416ZM384 690L292 578H272L180 690V700H193L282 595L371 700H384V690Z" />
<glyph unicode="&#x14c;" glyph-name="Omacron" horiz-adv-x="713" d="M357 -3Q294 -3 238 20T141 87T75 198T50 350Q50 436 74 502T140 612T238 680T357 703Q420 703 475 680T573 613T639 502T663 350Q663 264 639 198T573 88T476 20T357 -3ZM357 14Q417 14 469
35T560 99T621 205T643 350Q643 432 621 494T560 599T469 664T357 686Q297 686 245 664T153 600T92 495T70 350Q70 268 92 205T153 100T244 36T357 14ZM248 787H464V772H248V787Z" />
<glyph unicode="&#x14d;" glyph-name="omacron" horiz-adv-x="546" d="M273 -3Q219 -3 176 15T103 67T56 150T39 261Q39 322 55 371T102 454T176 506T273 525Q327 525 370 507T444 454T490 371T507 261Q507 199 491 151T444 68T371 15T273 -3ZM273 13Q375 13 431
78T488 261Q488 377 432 443T273 509Q172 509 115 443T58 261Q58 144 115 79T273 13ZM170 636H376V621H170V636Z" />
<glyph unicode="&#x150;" glyph-name="Ohungarumlaut" horiz-adv-x="713" d="M399 746L444 841H462V830L414 739H399V746ZM296 746L341 841H359V830L311 739H296V746ZM357 -3Q294 -3 238 20T141 87T75 198T50 350Q50 436 74 502T140 612T238 680T357 703Q420 703
475 680T573 613T639 502T663 350Q663 264 639 198T573 88T476 20T357 -3ZM357 14Q417 14 469 35T560 99T621 205T643 350Q643 432 621 494T560 599T469 664T357 686Q297 686 245 664T153 600T92 495T70 350Q70 268 92 205T153 100T244 36T357 14Z" />
<glyph unicode="&#x151;" glyph-name="ohungarumlaut" horiz-adv-x="546" d="M211 585L266 700H284V689L226 578H211V585ZM314 585L369 700H387V689L329 578H314V585ZM273 -3Q219 -3 176 15T103 67T56 150T39 261Q39 322 55 371T102 454T176 506T273 525Q327 525
370 507T444 454T490 371T507 261Q507 199 491 151T444 68T371 15T273 -3ZM273 13Q375 13 431 78T488 261Q488 377 432 443T273 509Q172 509 115 443T58 261Q58 144 115 79T273 13Z" />
<glyph unicode="&#x152;" glyph-name="OE" horiz-adv-x="969" d="M397 0Q311 0 246 19T138 80T72 188T50 350Q50 444 72 510T137 619T246 680T397 700H917V683H543V372H826V355H543V17H931V0H397ZM397 683Q314 683 253 665T151 607T90 504T70 350Q70 260 90 197T150
93T252 35T397 17H523V683H397Z" />
<glyph unicode="&#x153;" glyph-name="oe" horiz-adv-x="950" d="M504 259Q504 144 557 79T720 13Q786 13 827 30T889 69H903V56Q877 33 832 15T720 -3Q624 -3 568 44T494 180Q476 92 419 45T273 -3Q219 -3 176 15T103 67T56 150T39 261Q39 322 55 371T102 454T176
506T273 525Q363 525 420 476T495 338Q513 426 569 475T706 525Q750 525 788 512T853 469T896 395T912 286Q912 279 912 277V273H504V259ZM273 13Q375 13 430 78T485 261Q485 377 430 443T273 509Q172 509 115 443T58 261Q58 144 115 79T273 13ZM706 510Q621 510
567 452T505 289H893Q892 348 878 390T840 458T781 497T706 510Z" />
<glyph unicode="&#x154;" glyph-name="Racute" horiz-adv-x="592" d="M344 339Q326 337 307 336T267 334H117V0H97V700H267Q316 700 358 691T431 661T479 605T497 516Q497 437 462 397T365 343L541 13V0H525L344 339ZM117 352H267Q315 352 354 358T420 383T462
433T477 516Q477 566 461 598T417 649T350 675T267 682H117V352ZM270 739V748L336 841H352V830L283 739H270Z" />
<glyph unicode="&#x155;" glyph-name="racute" horiz-adv-x="334" d="M425 587L514 700H530V689L438 578H425V587ZM100 411Q116 432 134 452T175 488T223 513T279 523Q284 523 288 523T301 521V505H295Q284 506 279 506Q250 506 225 497T178 471T137 434T100 388V0H81V520H86Q95
520 97 516T100 494V411Z" />
<glyph unicode="&#x156;" glyph-name="Rcommaaccent" horiz-adv-x="592" d="M344 339Q326 337 307 336T267 334H117V0H97V700H267Q316 700 358 691T431 661T479 605T497 516Q497 437 462 397T365 343L541 13V0H525L344 339ZM117 352H267Q315 352 354 358T420 383T462
433T477 516Q477 566 461 598T417 649T350 675T267 682H117V352ZM271 -137Q285 -131 293 -121T301 -95Q301 -88 298 -84T290 -78Q280 -71 280 -59Q280 -51 285 -46T298 -40Q308 -40 315 -47T323 -74Q323 -109 307 -127T271 -152V-137Z" />
<glyph unicode="&#x157;" glyph-name="rcommaaccent" horiz-adv-x="334" d="M62 -137Q76 -131 84 -121T92 -95Q92 -88 89 -84T81 -78Q71 -71 71 -59Q71 -51 76 -46T89 -40Q99 -40 106 -47T114 -74Q114 -109 98 -127T62 -152V-137ZM100 411Q116 432 134 452T175
488T223 513T279 523Q284 523 288 523T301 521V505H295Q284 506 279 506Q250 506 225 497T178 471T137 434T100 388V0H81V520H86Q95 520 97 516T100 494V411Z" />
<glyph unicode="&#x158;" glyph-name="Rcaron" horiz-adv-x="592" d="M344 339Q326 337 307 336T267 334H117V0H97V700H267Q316 700 358 691T431 661T479 605T497 516Q497 437 462 397T365 343L541 13V0H525L344 339ZM117 352H267Q315 352 354 358T420 383T462
433T477 516Q477 566 461 598T417 649T350 675T267 682H117V352ZM387 831L299 739H279L191 831V841H204L289 756L374 841H387V831Z" />
<glyph unicode="&#x159;" glyph-name="rcaron" horiz-adv-x="334" d="M545 690L453 578H433L341 690V700H354L443 595L532 700H545V690ZM100 411Q116 432 134 452T175 488T223 513T279 523Q284 523 288 523T301 521V505H295Q284 506 279 506Q250 506 225 497T178
471T137 434T100 388V0H81V520H86Q95 520 97 516T100 494V411Z" />
<glyph unicode="&#x15a;" glyph-name="Sacute" horiz-adv-x="511" d="M245 -3Q202 -3 170 2T112 17T66 37T27 61V79H41Q55 67 73 55T115 34T170 20T244 14Q287 14 323 23T386 54T428 108T443 189Q443 234 426 261T379 307T313 336T236 359Q200 369 166 381T104
412T61 460T45 536Q45 570 57 600T93 653T155 689T244 703Q278 703 304 699T353 686T394 667T432 642V625H418Q404 638 388 649T350 668T303 681T244 686Q197 686 163 674T107 642T75 595T64 537Q64 495 78 468T117 424T174 397T243 376Q285 364 325 351T395 318T444
268T463 189Q463 138 446 102T400 42T331 8T245 -3ZM232 739V748L298 841H314V830L245 739H232Z" />
<glyph unicode="&#x15b;" glyph-name="sacute" horiz-adv-x="418" d="M202 -3Q135 -3 94 15T34 50V65H48Q67 46 102 30T202 13Q283 13 322 45T362 146Q362 200 323 224T207 263Q171 269 142 277T91 301T59 338T47 393Q47 456 90 490T212 525Q264 525 303 511T360
480V466H346Q325 484 294 496T212 509Q139 509 103 478T66 393Q66 365 76 346T104 314T151 293T215 279Q254 272 284 263T336 238T369 201T381 147Q381 72 339 35T202 -3ZM193 587L282 700H298V689L206 578H193V587Z" />
<glyph unicode="&#x15c;" glyph-name="Scircumflex" horiz-adv-x="511" d="M245 -3Q202 -3 170 2T112 17T66 37T27 61V79H41Q55 67 73 55T115 34T170 20T244 14Q287 14 323 23T386 54T428 108T443 189Q443 234 426 261T379 307T313 336T236 359Q200 369 166 381T104
412T61 460T45 536Q45 570 57 600T93 653T155 689T244 703Q278 703 304 699T353 686T394 667T432 642V625H418Q404 638 388 649T350 668T303 681T244 686Q197 686 163 674T107 642T75 595T64 537Q64 495 78 468T117 424T174 397T243 376Q285 364 325 351T395 318T444
268T463 189Q463 138 446 102T400 42T331 8T245 -3ZM153 749L241 841H261L349 749V739H336L251 824L166 739H153V749Z" />
<glyph unicode="&#x15d;" glyph-name="scircumflex" horiz-adv-x="418" d="M202 -3Q135 -3 94 15T34 50V65H48Q67 46 102 30T202 13Q283 13 322 45T362 146Q362 200 323 224T207 263Q171 269 142 277T91 301T59 338T47 393Q47 456 90 490T212 525Q264 525 303
511T360 480V466H346Q325 484 294 496T212 509Q139 509 103 478T66 393Q66 365 76 346T104 314T151 293T215 279Q254 272 284 263T336 238T369 201T381 147Q381 72 339 35T202 -3ZM109 588L201 700H221L313 588V578H300L211 683L122 578H109V588Z" />
<glyph unicode="&#x15e;" glyph-name="Scedilla" horiz-adv-x="511" d="M245 -50Q326 -50 326 -112Q326 -141 306 -157T254 -173Q230 -173 214 -167T185 -152V-137H198Q204 -147 219 -152T254 -157Q280 -157 294 -145T308 -112Q308 -86 293 -76T239 -66H228V-3Q189
-2 160 3T106 18T63 38T27 61V79H41Q55 67 73 55T115 34T170 20T244 14Q287 14 323 23T386 54T428 108T443 189Q443 233 426 261T379 307T313 336T236 359Q200 369 166 381T104 412T61 460T45 536Q45 570 57 600T93 653T155 689T244 703Q278 703 304 699T353 686T394
667T432 642V625H418Q390 651 350 668T244 686Q197 686 163 674T107 642T75 595T64 537Q64 495 78 468T117 424T174 397T243 376Q285 364 325 351T395 318T444 268T463 189Q463 138 446 102T400 42T331 8T245 -3V-50Z" />
<glyph unicode="&#x15f;" glyph-name="scedilla" horiz-adv-x="418" d="M381 147Q381 72 339 35T206 -3V-50Q287 -50 287 -112Q287 -141 267 -157T215 -173Q191 -173 175 -167T146 -152V-137H159Q165 -147 180 -152T215 -157Q241 -157 255 -145T269 -112Q269 -86
254 -76T200 -66H189V-3Q158 -2 134 3T90 16T57 33T34 50V65H48Q67 46 102 30T202 13Q283 13 322 45T362 146Q362 173 352 192T323 224T274 247T207 263Q171 269 142 277T91 301T59 338T47 393Q47 456 90 490T212 525Q264 525 303 511T360 480V466H346Q325 484
294 496T212 509Q139 509 103 478T66 393Q66 365 76 346T104 314T151 293T215 279Q254 272 284 263T336 238T369 201T381 147Z" />
<glyph unicode="&#x160;" glyph-name="Scaron" horiz-adv-x="511" d="M245 -3Q202 -3 170 2T112 17T66 37T27 61V79H41Q55 67 73 55T115 34T170 20T244 14Q287 14 323 23T386 54T428 108T443 189Q443 234 426 261T379 307T313 336T236 359Q200 369 166 381T104
412T61 460T45 536Q45 570 57 600T93 653T155 689T244 703Q278 703 304 699T353 686T394 667T432 642V625H418Q404 638 388 649T350 668T303 681T244 686Q197 686 163 674T107 642T75 595T64 537Q64 495 78 468T117 424T174 397T243 376Q285 364 325 351T395 318T444
268T463 189Q463 138 446 102T400 42T331 8T245 -3ZM349 831L261 739H241L153 831V841H166L251 756L336 841H349V831Z" />
<glyph unicode="&#x161;" glyph-name="scaron" horiz-adv-x="418" d="M202 -3Q135 -3 94 15T34 50V65H48Q67 46 102 30T202 13Q283 13 322 45T362 146Q362 200 323 224T207 263Q171 269 142 277T91 301T59 338T47 393Q47 456 90 490T212 525Q264 525 303 511T360
480V466H346Q325 484 294 496T212 509Q139 509 103 478T66 393Q66 365 76 346T104 314T151 293T215 279Q254 272 284 263T336 238T369 201T381 147Q381 72 339 35T202 -3ZM313 690L221 578H201L109 690V700H122L211 595L300 700H313V690Z" />
<glyph unicode="&#x162;" glyph-name="Tcommaaccent" horiz-adv-x="554" d="M267 0V683H26V700H528V683H287V0H267ZM247 -137Q261 -131 269 -121T277 -95Q277 -88 274 -84T266 -78Q256 -71 256 -59Q256 -51 261 -46T274 -40Q284 -40 291 -47T299 -74Q299 -109
283 -127T247 -152V-137Z" />
<glyph unicode="&#x163;" glyph-name="tcommaaccent" horiz-adv-x="291" d="M18 520H88V666H107V520H257V504H107V105Q107 56 130 36T203 15H271V1Q260 -1 240 -2T199 -3Q143 -3 116 22T88 104V504H18V520ZM146 -137Q160 -131 168 -121T176 -95Q176 -88 173 -84T165
-78Q155 -71 155 -59Q155 -51 160 -46T173 -40Q183 -40 190 -47T198 -74Q198 -109 182 -127T146 -152V-137Z" />
<glyph unicode="&#x164;" glyph-name="Tcaron" horiz-adv-x="554" d="M267 0V683H26V700H528V683H287V0H267ZM375 831L287 739H267L179 831V841H192L277 756L362 841H375V831Z" />
<glyph unicode="&#x165;" glyph-name="tcaron" horiz-adv-x="291" d="M188 700H207V689L191 578H178L188 700ZM18 520H88V666H107V520H257V504H107V105Q107 56 130 36T203 15H271V1Q260 -1 240 -2T199 -3Q143 -3 116 22T88 104V504H18V520Z" />
<glyph unicode="&#x16a;" glyph-name="Umacron" horiz-adv-x="678" d="M342 14Q387 14 427 23T498 56T547 119T566 221V700H586V222Q586 157 566 114T512 44T434 8T341 -3Q293 -3 248 7T169 44T113 113T92 222V700H112V221Q112 161 131 121T181 58T254 24T342
14ZM231 787H447V772H231V787Z" />
<glyph unicode="&#x16b;" glyph-name="umacron" horiz-adv-x="543" d="M443 97Q420 77 393 59T335 26T273 4T208 -5Q181 -5 157 0T115 20T87 59T76 123V520H95V126Q95 90 104 68T128 33T164 16T209 11Q272 11 332 41T443 115V520H462V0H457Q449 0 446 4T443 23V97ZM167
636H373V621H167V636Z" />
<glyph unicode="&#x16c;" glyph-name="Ubreve" horiz-adv-x="678" d="M342 14Q387 14 427 23T498 56T547 119T566 221V700H586V222Q586 157 566 114T512 44T434 8T341 -3Q293 -3 248 7T169 44T113 113T92 222V700H112V221Q112 161 131 121T181 58T254 24T342 14ZM339
741Q296 741 269 763T233 823V834H251Q255 796 278 777T339 757Q377 757 400 776T427 834H445V823Q437 786 410 764T339 741Z" />
<glyph unicode="&#x16d;" glyph-name="ubreve" horiz-adv-x="543" d="M443 97Q420 77 393 59T335 26T273 4T208 -5Q181 -5 157 0T115 20T87 59T76 123V520H95V126Q95 90 104 68T128 33T164 16T209 11Q272 11 332 41T443 115V520H462V0H457Q449 0 446 4T443 23V97ZM270
580Q227 580 200 605T164 670V681H182Q186 641 209 619T270 596Q308 596 331 618T358 681H376V670Q368 631 341 606T270 580Z" />
<glyph unicode="&#x16e;" glyph-name="Uring" horiz-adv-x="678" d="M342 14Q387 14 427 23T498 56T547 119T566 221V700H586V222Q586 157 566 114T512 44T434 8T341 -3Q293 -3 248 7T169 44T113 113T92 222V700H112V221Q112 161 131 121T181 58T254 24T342 14ZM343
702Q311 702 287 723T263 781Q263 816 287 838T343 860Q374 860 398 838T422 781Q422 744 398 723T343 702ZM281 781Q281 752 299 735T343 718Q369 718 386 735T404 781Q404 810 387 827T343 844Q317 844 299 827T281 781Z" />
<glyph unicode="&#x16f;" glyph-name="uring" horiz-adv-x="543" d="M443 97Q420 77 393 59T335 26T273 4T208 -5Q181 -5 157 0T115 20T87 59T76 123V520H95V126Q95 90 104 68T128 33T164 16T209 11Q272 11 332 41T443 115V520H462V0H457Q449 0 446 4T443 23V97ZM271
578Q239 578 215 599T191 657Q191 692 215 714T271 736Q302 736 326 714T350 657Q350 620 326 599T271 578ZM209 657Q209 628 227 611T271 594Q297 594 314 611T332 657Q332 686 315 703T271 720Q245 720 227 703T209 657Z" />
<glyph unicode="&#x170;" glyph-name="Uhungarumlaut" horiz-adv-x="678" d="M279 746L324 841H342V830L294 739H279V746ZM382 746L427 841H445V830L397 739H382V746ZM342 14Q387 14 427 23T498 56T547 119T566 221V700H586V222Q586 157 566 114T512 44T434 8T341
-3Q293 -3 248 7T169 44T113 113T92 222V700H112V221Q112 161 131 121T181 58T254 24T342 14Z" />
<glyph unicode="&#x171;" glyph-name="uhungarumlaut" horiz-adv-x="543" d="M311 585L366 700H384V689L326 578H311V585ZM208 585L263 700H281V689L223 578H208V585ZM443 97Q420 77 393 59T335 26T273 4T208 -5Q181 -5 157 0T115 20T87 59T76 123V520H95V126Q95
90 104 68T128 33T164 16T209 11Q272 11 332 41T443 115V520H462V0H457Q449 0 446 4T443 23V97Z" />
<glyph unicode="&#x172;" glyph-name="Uogonek" horiz-adv-x="678" d="M369 -164Q336 -164 316 -146T296 -98Q296 -67 317 -42T365 -2Q360 -3 353 -3T341 -3Q293 -3 248 7T169 44T113 113T92 222V700H112V221Q112 161 131 121T181 58T254 24T342 14Q387 14 427
23T498 56T547 119T566 221V700H586V222Q586 174 575 138T543 75T495 33T435 8Q418 3 406 0T383 -8T365 -17T348 -32Q334 -46 325 -61T315 -98Q315 -147 371 -147H407V-161Q392 -164 369 -164Z" />
<glyph unicode="&#x173;" glyph-name="uogonek" horiz-adv-x="543" d="M448 -164Q415 -164 395 -146T375 -98Q375 -66 396 -42T443 0V97Q420 77 393 59T335 26T273 4T208 -5Q181 -5 157 0T115 20T87 59T76 123V520H95V126Q95 90 104 68T128 33T164 16T209 11Q272
11 332 41T443 115V520H462V-3Q431 -26 413 -47T394 -98Q394 -147 450 -147H486V-161Q471 -164 448 -164Z" />
<glyph unicode="&#x178;" glyph-name="Ydieresis" horiz-adv-x="539" d="M259 0V299L30 687V700H44L269 317H270L496 700H509V687L279 299V0H259ZM207 754Q199 754 194 759T189 772Q189 780 194 785T207 790Q215 790 220 785T225 772Q225 764 220 759T207 754ZM333
754Q325 754 320 759T315 772Q315 780 320 785T333 790Q341 790 346 785T351 772Q351 764 346 759T333 754Z" />
<glyph unicode="&#x179;" glyph-name="Zacute" horiz-adv-x="592" d="M51 18L519 682V683H78V700H541V681L73 18V17H526V0H51V18ZM300 739V748L366 841H382V830L313 739H300Z" />
<glyph unicode="&#x17a;" glyph-name="zacute" horiz-adv-x="454" d="M31 15L401 505H54V520H423V504L53 15H417V0H31V15ZM224 587L313 700H329V689L237 578H224V587Z" />
<glyph unicode="&#x17b;" glyph-name="Zdotaccent" horiz-adv-x="592" d="M51 18L519 682V683H78V700H541V681L73 18V17H526V0H51V18ZM319 790Q337 790 337 772Q337 754 319 754Q301 754 301 772Q301 790 319 790Z" />
<glyph unicode="&#x17c;" glyph-name="zdotaccent" horiz-adv-x="454" d="M31 15L401 505H54V520H423V504L53 15H417V0H31V15ZM242 649Q260 649 260 631Q260 613 242 613Q224 613 224 631Q224 649 242 649Z" />
<glyph unicode="&#x17d;" glyph-name="Zcaron" horiz-adv-x="592" d="M51 18L519 682V683H78V700H541V681L73 18V17H526V0H51V18ZM417 831L329 739H309L221 831V841H234L319 756L404 841H417V831Z" />
<glyph unicode="&#x17e;" glyph-name="zcaron" horiz-adv-x="454" d="M31 15L401 505H54V520H423V504L53 15H417V0H31V15ZM344 690L252 578H232L140 690V700H153L242 595L331 700H344V690Z" />
<glyph unicode="&#x192;" glyph-name="florin" horiz-adv-x="321" d="M119 420L138 575Q146 645 181 672T266 700Q293 700 313 695V682H268Q223 682 194 659T157 573L138 420H263V404H136L77 -78H58L117 404H41V420H119Z" />
<glyph unicode="&#x218;" glyph-name="Scommaaccent" horiz-adv-x="511" d="M245 -3Q202 -3 170 2T112 17T66 37T27 61V79H41Q55 67 73 55T115 34T170 20T244 14Q287 14 323 23T386 54T428 108T443 189Q443 234 426 261T379 307T313 336T236 359Q200 369 166 381T104
412T61 460T45 536Q45 570 57 600T93 653T155 689T244 703Q278 703 304 699T353 686T394 667T432 642V625H418Q404 638 388 649T350 668T303 681T244 686Q197 686 163 674T107 642T75 595T64 537Q64 495 78 468T117 424T174 397T243 376Q285 364 325 351T395 318T444
268T463 189Q463 138 446 102T400 42T331 8T245 -3ZM221 -137Q235 -131 243 -121T251 -95Q251 -88 248 -84T240 -78Q230 -71 230 -59Q230 -51 235 -46T248 -40Q258 -40 265 -47T273 -74Q273 -109 257 -127T221 -152V-137Z" />
<glyph unicode="&#x219;" glyph-name="scommaaccent" horiz-adv-x="418" d="M202 -3Q135 -3 94 15T34 50V65H48Q67 46 102 30T202 13Q283 13 322 45T362 146Q362 200 323 224T207 263Q171 269 142 277T91 301T59 338T47 393Q47 456 90 490T212 525Q264 525 303
511T360 480V466H346Q325 484 294 496T212 509Q139 509 103 478T66 393Q66 365 76 346T104 314T151 293T215 279Q254 272 284 263T336 238T369 201T381 147Q381 72 339 35T202 -3ZM181 -137Q195 -131 203 -121T211 -95Q211 -88 208 -84T200 -78Q190 -71 190 -59Q190
-51 195 -46T208 -40Q218 -40 225 -47T233 -74Q233 -109 217 -127T181 -152V-137Z" />
<glyph unicode="&#x21a;" glyph-name="uni021A" horiz-adv-x="554" d="M267 0V683H26V700H528V683H287V0H267ZM247 -138Q261 -132 269 -122T277 -96Q277 -89 274 -85T266 -79Q256 -72 256 -60Q256 -52 261 -47T274 -41Q284 -41 291 -48T299 -75Q299 -110 283 -128T247
-153V-138Z" />
<glyph unicode="&#x21b;" glyph-name="uni021B" horiz-adv-x="291" d="M18 520H88V666H107V520H257V504H107V105Q107 56 130 36T203 15H271V1Q260 -1 240 -2T199 -3Q143 -3 116 22T88 104V504H18V520ZM403 -138Q417 -132 425 -122T433 -96Q433 -89 430 -85T422
-79Q412 -72 412 -60Q412 -52 417 -47T430 -41Q440 -41 447 -48T455 -75Q455 -110 439 -128T403 -153V-138Z" />
<glyph unicode="&#x237;" glyph-name="uni0237" horiz-adv-x="187" d="M103 -72Q103 -115 81 -139T14 -163Q6 -163 -1 -163T-14 -161V-147H14Q50 -147 67 -127T84 -72V520H89Q98 520 100 516T103 494V-72Z" />
<glyph unicode="&#x2c6;" glyph-name="circumflex" horiz-adv-x="410" d="M103 588L195 700H215L307 588V578H294L205 683L116 578H103V588Z" />
<glyph unicode="&#x2c7;" glyph-name="caron" horiz-adv-x="410" d="M307 690L215 578H195L103 690V700H116L205 595L294 700H307V690Z" />
<glyph unicode="&#x2d8;" glyph-name="breve" horiz-adv-x="410" d="M205 580Q162 580 135 605T99 670V681H117Q121 641 144 619T205 596Q243 596 266 618T293 681H311V670Q303 631 276 606T205 580Z" />
<glyph unicode="&#x2d9;" glyph-name="dotaccent" horiz-adv-x="410" d="M205 649Q223 649 223 631Q223 613 205 613Q187 613 187 631Q187 649 205 649Z" />
<glyph unicode="&#x2da;" glyph-name="ring" horiz-adv-x="410" d="M205 578Q173 578 149 599T125 657Q125 692 149 714T205 736Q236 736 260 714T284 657Q284 620 260 599T205 578ZM143 657Q143 628 161 611T205 594Q231 594 248 611T266 657Q266 686 249 703T205
720Q179 720 161 703T143 657Z" />
<glyph unicode="&#x2db;" glyph-name="ogonek" horiz-adv-x="394" d="M223 -164Q190 -164 170 -146T150 -98Q150 -66 171 -42T219 0H241Q208 -25 189 -47T169 -98Q169 -147 225 -147H261V-161Q246 -164 223 -164Z" />
<glyph unicode="&#x2dc;" glyph-name="tilde" horiz-adv-x="410" d="M89 606Q94 624 109 641T150 659Q165 659 179 653T206 638T233 624T260 617Q278 617 290 629T305 662H321V652Q316 632 301 616T260 600Q245 600 231 606T204 621T177 635T150 642Q132 642 120
630T105 596H89V606Z" />
<glyph unicode="&#x2dd;" glyph-name="hungarumlaut" horiz-adv-x="410" d="M151 585L206 700H224V689L166 578H151V585ZM254 585L309 700H327V689L269 578H254V585Z" />
</font>
</defs>
</svg>
