<svg xmlns="http://www.w3.org/2000/svg" xmlns:xlink="http://www.w3.org/1999/xlink" width="19px" height="15px" viewBox="0 0 19 15" version="1.1">
    <!-- Generator: Sketch 43.2 (39069) - http://www.bohemiancoding.com/sketch -->
    <title>Page 1</title>
    <desc>Created with Sketch.</desc>
    <defs/>
    <g id="Vet-Times" stroke="none" stroke-width="1" fill="none" fill-rule="evenodd">
        <g transform="translate(-160.000000, -2814.000000)" id="Page-1" fill="#343433">
            <path d="M176.036178,2822.57882 L176.036178,2828.14744 C176.036178,2828.34832 175.960727,2828.52371 175.810804,2828.67463 C175.659902,2828.82553 175.484498,2828.9 175.283617,2828.9 L170.842819,2828.9 L170.842819,2824.43462 L167.883542,2824.43462 L167.883542,2828.87441 L163.418161,2828.87539 C163.217285,2828.87539 163.041886,2828.79994 162.890974,2828.65002 C162.740073,2828.49912 162.6656,2828.32371 162.6656,2828.12283 L162.6656,2822.52762 L169.363045,2817.00992 L176.036157,2822.50304 L176.036157,2822.57849 L176.036178,2822.57882 Z M178.61918,2821.7763 L177.892116,2822.62879 C177.842142,2822.70424 177.741215,2822.72874 177.641266,2822.75421 L177.61579,2822.75421 C177.515841,2822.75421 177.440391,2822.72874 177.36494,2822.67876 L169.363326,2815.98132 L161.336125,2822.67876 C161.236177,2822.72874 161.160726,2822.77871 161.059789,2822.75421 C160.95984,2822.72874 160.88439,2822.70424 160.808939,2822.62879 L160.081875,2821.7763 C160.031901,2821.70085 159.981927,2821.6009 160.006425,2821.49996 C160.006425,2821.40002 160.056399,2821.32456 160.13185,2821.24911 L168.45982,2814.30082 C168.71067,2814.09994 169.011489,2814 169.337795,2814 C169.688583,2814 169.96492,2814.09995 170.21577,2814.30082 L173.075962,2816.68389 L173.075962,2814.42624 C173.075962,2814.3263 173.101438,2814.22537 173.17591,2814.14991 C173.251361,2814.07446 173.326812,2814.04996 173.452247,2814.04996 L175.684411,2814.04996 C175.784359,2814.04996 175.885286,2814.07544 175.960747,2814.14991 C176.036198,2814.22536 176.060696,2814.30081 176.060696,2814.42624 L176.060696,2819.16681 L178.594783,2821.27355 C178.670233,2821.32352 178.720208,2821.42445 178.720208,2821.5244 C178.720208,2821.60083 178.694731,2821.70077 178.619281,2821.77623 L178.61918,2821.7763 Z"/>
        </g>
    </g>
</svg>