<?xml version="1.0" encoding="utf-8"?>
<!-- Generator: Adobe Illustrator 23.0.1, SVG Export Plug-In . SVG Version: 6.00 Build 0)  -->
<svg version="1.1" id="Layer_1" focusable="false" xmlns="http://www.w3.org/2000/svg" xmlns:xlink="http://www.w3.org/1999/xlink"
	 x="0px" y="0px" viewBox="0 0 640 512" style="enable-background:new 0 0 640 512;" xml:space="preserve">
<style type="text/css">
	.st0{fill:#A70050;}
</style>
<path class="st0" d="M496,224c-79.6,0-144,64.4-144,144s64.4,144,144,144s144-64.4,144-144S575.6,224,496,224z M560,374.3
	c0,5.3-4.4,9.7-9.7,9.7h-60.6c-5.3,0-9.7-4.4-9.7-9.7v-76.6c0-5.3,4.4-9.7,9.7-9.7h12.6c5.3,0,9.7,4.4,9.7,9.7V352h38.3
	c5.3,0,9.7,4.4,9.7,9.7V374.3L560,374.3z M320,368c0-27.8,6.7-54.1,18.2-77.5c-8-1.5-16.2-2.5-24.6-2.5h-16.7
	c-22.2,10.2-46.9,16-72.9,16s-50.6-5.8-72.9-16h-16.7C60.2,288,0,348.2,0,422.4V464c0,26.5,21.5,48,48,48h347.1
	C349.8,480.1,320,427.5,320,368z M224,256c70.7,0,128-57.3,128-128S294.7,0,224,0S96,57.3,96,128S153.3,256,224,256z"/>
</svg>
